G04 start of page 10 for group -4015 idx -4015 *
G04 Title: (unknown), toppaste *
G04 Creator: pcb 20110918 *
G04 CreationDate: Tue 04 Nov 2014 07:01:44 PM GMT UTC *
G04 For: railfan *
G04 Format: Gerber/RS-274X *
G04 PCB-Dimensions: 210000 270000 *
G04 PCB-Coordinate-Origin: lower left *
%MOIN*%
%FSLAX25Y25*%
%LNTOPPASTE*%
%ADD79R,0.0500X0.0500*%
%ADD78R,0.0244X0.0244*%
%ADD77R,0.0490X0.0490*%
%ADD76R,0.0700X0.0700*%
%ADD75R,0.0098X0.0098*%
%ADD74C,0.0001*%
%ADD73R,0.0945X0.0945*%
%ADD72R,0.0378X0.0378*%
%ADD71R,0.0512X0.0512*%
%ADD70R,0.0240X0.0240*%
G54D70*X165500Y165800D02*Y164200D01*
X161600Y165800D02*Y164200D01*
X157700Y165800D02*Y164200D01*
Y157600D02*Y156000D01*
X161600Y157600D02*Y156000D01*
X165500Y157600D02*Y156000D01*
G54D71*X57543Y102393D02*Y101607D01*
X50457Y102393D02*Y101607D01*
X34607Y98543D02*X35393D01*
X34607Y91457D02*X35393D01*
G54D72*X56906Y91989D02*Y87895D01*
X51000Y91989D02*Y80179D01*
G54D73*Y78445D02*Y76555D01*
G54D74*G36*
X52885Y86010D02*X55725Y83170D01*
X54305Y81750D01*
X51465Y84590D01*
X52885Y86010D01*
G37*
G36*
X46275Y83170D02*X49115Y86010D01*
X50535Y84590D01*
X47695Y81750D01*
X46275Y83170D01*
G37*
G54D72*X45094Y91989D02*Y87895D01*
G54D75*X110827Y170335D02*Y168563D01*
X108858Y170335D02*Y168563D01*
X106890Y170335D02*Y168563D01*
X104921Y170335D02*Y168563D01*
X102953Y170335D02*Y168563D01*
X100984Y170335D02*Y168563D01*
X99016Y170335D02*Y168563D01*
X97047Y170335D02*Y168563D01*
X95079Y170335D02*Y168563D01*
X93110Y170335D02*Y168563D01*
X91142Y170335D02*Y168563D01*
X89173Y170335D02*Y168563D01*
X85728Y165906D02*X87500D01*
X85728Y163937D02*X87500D01*
X85728Y161969D02*X87500D01*
X85728Y160000D02*X87500D01*
X85728Y158031D02*X87500D01*
X85728Y156063D02*X87500D01*
X85728Y154094D02*X87500D01*
X89173Y151437D02*Y149665D01*
X91142Y151437D02*Y149665D01*
X93110Y151437D02*Y149665D01*
X95079Y151437D02*Y149665D01*
X97047Y151437D02*Y149665D01*
X99016Y151437D02*Y149665D01*
X100984Y151437D02*Y149665D01*
X102953Y151437D02*Y149665D01*
X104921Y151437D02*Y149665D01*
X106890Y151437D02*Y149665D01*
X108858Y151437D02*Y149665D01*
X110827Y151437D02*Y149665D01*
X112500Y154094D02*X114272D01*
X112500Y156063D02*X114272D01*
X112500Y158031D02*X114272D01*
X112500Y160000D02*X114272D01*
X112500Y161969D02*X114272D01*
X112500Y163937D02*X114272D01*
X112500Y165906D02*X114272D01*
G54D76*X97500Y160000D02*X102500D01*
G54D71*X34607Y111414D02*X35393D01*
X34607Y118500D02*X35393D01*
X138457Y221893D02*Y221107D01*
X131371Y221893D02*Y221107D01*
X138500Y210893D02*Y210107D01*
X131414Y210893D02*Y210107D01*
G54D77*X116500Y137300D02*Y133700D01*
X126500Y137300D02*Y133700D01*
G54D71*X117457Y123893D02*Y123107D01*
X124543Y123893D02*Y123107D01*
G54D78*X124976Y106760D02*X127339D01*
X124976Y110500D02*X127339D01*
X124976Y114240D02*X127339D01*
X114661D02*X117024D01*
X114661Y110500D02*X117024D01*
X114661Y106760D02*X117024D01*
G54D71*X117457Y97393D02*Y96607D01*
X124543Y97393D02*Y96607D01*
X175107Y157457D02*X175893D01*
X175107Y164543D02*X175893D01*
G54D79*X40000Y145327D02*Y138674D01*
X50000Y131154D02*Y124501D01*
X60000Y145327D02*Y138674D01*
X70000Y131154D02*Y124501D01*
X181000Y214240D02*Y207587D01*
X171000Y228413D02*Y221760D01*
X161000Y214240D02*Y207587D01*
X151000Y228413D02*Y221760D01*
G54D71*X160457Y32893D02*Y32107D01*
X167543Y32893D02*Y32107D01*
G54D79*X172174Y80000D02*X178827D01*
X158001Y70000D02*X164654D01*
X172174Y60000D02*X178827D01*
X158001Y50000D02*X164654D01*
X152174Y80000D02*X158827D01*
X138001Y70000D02*X144654D01*
X152174Y60000D02*X158827D01*
X138001Y50000D02*X144654D01*
X132174Y80000D02*X138827D01*
X118001Y70000D02*X124654D01*
X132174Y60000D02*X138827D01*
X118001Y50000D02*X124654D01*
G54D71*X138690Y33681D02*Y31319D01*
X150500Y33681D02*Y31319D01*
G54D79*X175000Y129740D02*Y123087D01*
X165000Y143913D02*Y137260D01*
X155000Y129740D02*Y123087D01*
X145000Y143913D02*Y137260D01*
G54D71*X173457Y97893D02*Y97107D01*
X180543Y97893D02*Y97107D01*
X173414Y106393D02*Y105607D01*
X180500Y106393D02*Y105607D01*
M02*
