G04 #@! TF.GenerationSoftware,KiCad,Pcbnew,6.0.2+dfsg-1*
G04 #@! TF.CreationDate,2025-02-22T22:39:26-07:00*
G04 #@! TF.ProjectId,ard-ltc2499-test,6172642d-6c74-4633-9234-39392d746573,rev?*
G04 #@! TF.SameCoordinates,Original*
G04 #@! TF.FileFunction,AssemblyDrawing,Top*
%FSLAX46Y46*%
G04 Gerber Fmt 4.6, Leading zero omitted, Abs format (unit mm)*
G04 Created by KiCad (PCBNEW 6.0.2+dfsg-1) date 2025-02-22 22:39:26*
%MOMM*%
%LPD*%
G01*
G04 APERTURE LIST*
%ADD10C,0.150000*%
%ADD11C,0.080000*%
%ADD12C,0.060000*%
%ADD13C,0.100000*%
G04 APERTURE END LIST*
D10*
X118054380Y-96591190D02*
X117054380Y-96591190D01*
X117054380Y-96210238D01*
X117102000Y-96115000D01*
X117149619Y-96067380D01*
X117244857Y-96019761D01*
X117387714Y-96019761D01*
X117482952Y-96067380D01*
X117530571Y-96115000D01*
X117578190Y-96210238D01*
X117578190Y-96591190D01*
X118054380Y-95448333D02*
X118006761Y-95543571D01*
X117959142Y-95591190D01*
X117863904Y-95638809D01*
X117578190Y-95638809D01*
X117482952Y-95591190D01*
X117435333Y-95543571D01*
X117387714Y-95448333D01*
X117387714Y-95305476D01*
X117435333Y-95210238D01*
X117482952Y-95162619D01*
X117578190Y-95115000D01*
X117863904Y-95115000D01*
X117959142Y-95162619D01*
X118006761Y-95210238D01*
X118054380Y-95305476D01*
X118054380Y-95448333D01*
X117387714Y-94781666D02*
X118054380Y-94591190D01*
X117578190Y-94400714D01*
X118054380Y-94210238D01*
X117387714Y-94019761D01*
X118006761Y-93257857D02*
X118054380Y-93353095D01*
X118054380Y-93543571D01*
X118006761Y-93638809D01*
X117911523Y-93686428D01*
X117530571Y-93686428D01*
X117435333Y-93638809D01*
X117387714Y-93543571D01*
X117387714Y-93353095D01*
X117435333Y-93257857D01*
X117530571Y-93210238D01*
X117625809Y-93210238D01*
X117721047Y-93686428D01*
X118054380Y-92781666D02*
X117387714Y-92781666D01*
X117578190Y-92781666D02*
X117482952Y-92734047D01*
X117435333Y-92686428D01*
X117387714Y-92591190D01*
X117387714Y-92495952D01*
X117768666Y-117498523D02*
X117768666Y-117022333D01*
X118054380Y-117593761D02*
X117054380Y-117260428D01*
X118054380Y-116927095D01*
X117387714Y-116593761D02*
X118054380Y-116593761D01*
X117482952Y-116593761D02*
X117435333Y-116546142D01*
X117387714Y-116450904D01*
X117387714Y-116308047D01*
X117435333Y-116212809D01*
X117530571Y-116165190D01*
X118054380Y-116165190D01*
X118054380Y-115260428D02*
X117530571Y-115260428D01*
X117435333Y-115308047D01*
X117387714Y-115403285D01*
X117387714Y-115593761D01*
X117435333Y-115689000D01*
X118006761Y-115260428D02*
X118054380Y-115355666D01*
X118054380Y-115593761D01*
X118006761Y-115689000D01*
X117911523Y-115736619D01*
X117816285Y-115736619D01*
X117721047Y-115689000D01*
X117673428Y-115593761D01*
X117673428Y-115355666D01*
X117625809Y-115260428D01*
X118054380Y-114641380D02*
X118006761Y-114736619D01*
X117911523Y-114784238D01*
X117054380Y-114784238D01*
X118054380Y-114117571D02*
X118006761Y-114212809D01*
X117959142Y-114260428D01*
X117863904Y-114308047D01*
X117578190Y-114308047D01*
X117482952Y-114260428D01*
X117435333Y-114212809D01*
X117387714Y-114117571D01*
X117387714Y-113974714D01*
X117435333Y-113879476D01*
X117482952Y-113831857D01*
X117578190Y-113784238D01*
X117863904Y-113784238D01*
X117959142Y-113831857D01*
X118006761Y-113879476D01*
X118054380Y-113974714D01*
X118054380Y-114117571D01*
X117387714Y-112927095D02*
X118197238Y-112927095D01*
X118292476Y-112974714D01*
X118340095Y-113022333D01*
X118387714Y-113117571D01*
X118387714Y-113260428D01*
X118340095Y-113355666D01*
X118006761Y-112927095D02*
X118054380Y-113022333D01*
X118054380Y-113212809D01*
X118006761Y-113308047D01*
X117959142Y-113355666D01*
X117863904Y-113403285D01*
X117578190Y-113403285D01*
X117482952Y-113355666D01*
X117435333Y-113308047D01*
X117387714Y-113212809D01*
X117387714Y-113022333D01*
X117435333Y-112927095D01*
X157932380Y-90201476D02*
X156932380Y-90201476D01*
X156932380Y-89963380D01*
X156980000Y-89820523D01*
X157075238Y-89725285D01*
X157170476Y-89677666D01*
X157360952Y-89630047D01*
X157503809Y-89630047D01*
X157694285Y-89677666D01*
X157789523Y-89725285D01*
X157884761Y-89820523D01*
X157932380Y-89963380D01*
X157932380Y-90201476D01*
X157932380Y-89201476D02*
X157265714Y-89201476D01*
X156932380Y-89201476D02*
X156980000Y-89249095D01*
X157027619Y-89201476D01*
X156980000Y-89153857D01*
X156932380Y-89201476D01*
X157027619Y-89201476D01*
X157265714Y-88296714D02*
X158075238Y-88296714D01*
X158170476Y-88344333D01*
X158218095Y-88391952D01*
X158265714Y-88487190D01*
X158265714Y-88630047D01*
X158218095Y-88725285D01*
X157884761Y-88296714D02*
X157932380Y-88391952D01*
X157932380Y-88582428D01*
X157884761Y-88677666D01*
X157837142Y-88725285D01*
X157741904Y-88772904D01*
X157456190Y-88772904D01*
X157360952Y-88725285D01*
X157313333Y-88677666D01*
X157265714Y-88582428D01*
X157265714Y-88391952D01*
X157313333Y-88296714D01*
X157932380Y-87820523D02*
X157265714Y-87820523D01*
X156932380Y-87820523D02*
X156980000Y-87868142D01*
X157027619Y-87820523D01*
X156980000Y-87772904D01*
X156932380Y-87820523D01*
X157027619Y-87820523D01*
X157265714Y-87487190D02*
X157265714Y-87106238D01*
X156932380Y-87344333D02*
X157789523Y-87344333D01*
X157884761Y-87296714D01*
X157932380Y-87201476D01*
X157932380Y-87106238D01*
X157932380Y-86344333D02*
X157408571Y-86344333D01*
X157313333Y-86391952D01*
X157265714Y-86487190D01*
X157265714Y-86677666D01*
X157313333Y-86772904D01*
X157884761Y-86344333D02*
X157932380Y-86439571D01*
X157932380Y-86677666D01*
X157884761Y-86772904D01*
X157789523Y-86820523D01*
X157694285Y-86820523D01*
X157599047Y-86772904D01*
X157551428Y-86677666D01*
X157551428Y-86439571D01*
X157503809Y-86344333D01*
X157932380Y-85725285D02*
X157884761Y-85820523D01*
X157789523Y-85868142D01*
X156932380Y-85868142D01*
X157932380Y-114585476D02*
X156932380Y-114585476D01*
X156932380Y-114347380D01*
X156980000Y-114204523D01*
X157075238Y-114109285D01*
X157170476Y-114061666D01*
X157360952Y-114014047D01*
X157503809Y-114014047D01*
X157694285Y-114061666D01*
X157789523Y-114109285D01*
X157884761Y-114204523D01*
X157932380Y-114347380D01*
X157932380Y-114585476D01*
X157932380Y-113585476D02*
X157265714Y-113585476D01*
X156932380Y-113585476D02*
X156980000Y-113633095D01*
X157027619Y-113585476D01*
X156980000Y-113537857D01*
X156932380Y-113585476D01*
X157027619Y-113585476D01*
X157265714Y-112680714D02*
X158075238Y-112680714D01*
X158170476Y-112728333D01*
X158218095Y-112775952D01*
X158265714Y-112871190D01*
X158265714Y-113014047D01*
X158218095Y-113109285D01*
X157884761Y-112680714D02*
X157932380Y-112775952D01*
X157932380Y-112966428D01*
X157884761Y-113061666D01*
X157837142Y-113109285D01*
X157741904Y-113156904D01*
X157456190Y-113156904D01*
X157360952Y-113109285D01*
X157313333Y-113061666D01*
X157265714Y-112966428D01*
X157265714Y-112775952D01*
X157313333Y-112680714D01*
X157932380Y-112204523D02*
X157265714Y-112204523D01*
X156932380Y-112204523D02*
X156980000Y-112252142D01*
X157027619Y-112204523D01*
X156980000Y-112156904D01*
X156932380Y-112204523D01*
X157027619Y-112204523D01*
X157265714Y-111871190D02*
X157265714Y-111490238D01*
X156932380Y-111728333D02*
X157789523Y-111728333D01*
X157884761Y-111680714D01*
X157932380Y-111585476D01*
X157932380Y-111490238D01*
X157932380Y-110728333D02*
X157408571Y-110728333D01*
X157313333Y-110775952D01*
X157265714Y-110871190D01*
X157265714Y-111061666D01*
X157313333Y-111156904D01*
X157884761Y-110728333D02*
X157932380Y-110823571D01*
X157932380Y-111061666D01*
X157884761Y-111156904D01*
X157789523Y-111204523D01*
X157694285Y-111204523D01*
X157599047Y-111156904D01*
X157551428Y-111061666D01*
X157551428Y-110823571D01*
X157503809Y-110728333D01*
X157932380Y-110109285D02*
X157884761Y-110204523D01*
X157789523Y-110252142D01*
X156932380Y-110252142D01*
X136930809Y-77869761D02*
X137073666Y-77917380D01*
X137311761Y-77917380D01*
X137407000Y-77869761D01*
X137454619Y-77822142D01*
X137502238Y-77726904D01*
X137502238Y-77631666D01*
X137454619Y-77536428D01*
X137407000Y-77488809D01*
X137311761Y-77441190D01*
X137121285Y-77393571D01*
X137026047Y-77345952D01*
X136978428Y-77298333D01*
X136930809Y-77203095D01*
X136930809Y-77107857D01*
X136978428Y-77012619D01*
X137026047Y-76965000D01*
X137121285Y-76917380D01*
X137359380Y-76917380D01*
X137502238Y-76965000D01*
X138073666Y-77917380D02*
X137978428Y-77869761D01*
X137930809Y-77822142D01*
X137883190Y-77726904D01*
X137883190Y-77441190D01*
X137930809Y-77345952D01*
X137978428Y-77298333D01*
X138073666Y-77250714D01*
X138216523Y-77250714D01*
X138311761Y-77298333D01*
X138359380Y-77345952D01*
X138407000Y-77441190D01*
X138407000Y-77726904D01*
X138359380Y-77822142D01*
X138311761Y-77869761D01*
X138216523Y-77917380D01*
X138073666Y-77917380D01*
X138978428Y-77917380D02*
X138883190Y-77869761D01*
X138835571Y-77774523D01*
X138835571Y-76917380D01*
X139787952Y-77917380D02*
X139787952Y-76917380D01*
X139787952Y-77869761D02*
X139692714Y-77917380D01*
X139502238Y-77917380D01*
X139407000Y-77869761D01*
X139359380Y-77822142D01*
X139311761Y-77726904D01*
X139311761Y-77441190D01*
X139359380Y-77345952D01*
X139407000Y-77298333D01*
X139502238Y-77250714D01*
X139692714Y-77250714D01*
X139787952Y-77298333D01*
X140645095Y-77869761D02*
X140549857Y-77917380D01*
X140359380Y-77917380D01*
X140264142Y-77869761D01*
X140216523Y-77774523D01*
X140216523Y-77393571D01*
X140264142Y-77298333D01*
X140359380Y-77250714D01*
X140549857Y-77250714D01*
X140645095Y-77298333D01*
X140692714Y-77393571D01*
X140692714Y-77488809D01*
X140216523Y-77584047D01*
X141121285Y-77917380D02*
X141121285Y-77250714D01*
X141121285Y-77441190D02*
X141168904Y-77345952D01*
X141216523Y-77298333D01*
X141311761Y-77250714D01*
X141407000Y-77250714D01*
X142026047Y-76917380D02*
X142026047Y-77631666D01*
X141978428Y-77774523D01*
X141883190Y-77869761D01*
X141740333Y-77917380D01*
X141645095Y-77917380D01*
X142930809Y-77250714D02*
X142930809Y-77917380D01*
X142502238Y-77250714D02*
X142502238Y-77774523D01*
X142549857Y-77869761D01*
X142645095Y-77917380D01*
X142787952Y-77917380D01*
X142883190Y-77869761D01*
X142930809Y-77822142D01*
X143407000Y-77917380D02*
X143407000Y-77250714D01*
X143407000Y-77345952D02*
X143454619Y-77298333D01*
X143549857Y-77250714D01*
X143692714Y-77250714D01*
X143787952Y-77298333D01*
X143835571Y-77393571D01*
X143835571Y-77917380D01*
X143835571Y-77393571D02*
X143883190Y-77298333D01*
X143978428Y-77250714D01*
X144121285Y-77250714D01*
X144216523Y-77298333D01*
X144264142Y-77393571D01*
X144264142Y-77917380D01*
X144740333Y-77250714D02*
X144740333Y-78250714D01*
X144740333Y-77298333D02*
X144835571Y-77250714D01*
X145026047Y-77250714D01*
X145121285Y-77298333D01*
X145168904Y-77345952D01*
X145216523Y-77441190D01*
X145216523Y-77726904D01*
X145168904Y-77822142D01*
X145121285Y-77869761D01*
X145026047Y-77917380D01*
X144835571Y-77917380D01*
X144740333Y-77869761D01*
X146026047Y-77869761D02*
X145930809Y-77917380D01*
X145740333Y-77917380D01*
X145645095Y-77869761D01*
X145597476Y-77774523D01*
X145597476Y-77393571D01*
X145645095Y-77298333D01*
X145740333Y-77250714D01*
X145930809Y-77250714D01*
X146026047Y-77298333D01*
X146073666Y-77393571D01*
X146073666Y-77488809D01*
X145597476Y-77584047D01*
X146502238Y-77917380D02*
X146502238Y-77250714D01*
X146502238Y-77441190D02*
X146549857Y-77345952D01*
X146597476Y-77298333D01*
X146692714Y-77250714D01*
X146787952Y-77250714D01*
X146883190Y-78012619D02*
X147645095Y-78012619D01*
X147835571Y-77012619D02*
X147883190Y-76965000D01*
X147978428Y-76917380D01*
X148216523Y-76917380D01*
X148311761Y-76965000D01*
X148359380Y-77012619D01*
X148407000Y-77107857D01*
X148407000Y-77203095D01*
X148359380Y-77345952D01*
X147787952Y-77917380D01*
X148407000Y-77917380D01*
X148597476Y-78012619D02*
X149359380Y-78012619D01*
X149787952Y-76917380D02*
X149978428Y-76917380D01*
X150073666Y-76965000D01*
X150168904Y-77060238D01*
X150216523Y-77250714D01*
X150216523Y-77584047D01*
X150168904Y-77774523D01*
X150073666Y-77869761D01*
X149978428Y-77917380D01*
X149787952Y-77917380D01*
X149692714Y-77869761D01*
X149597476Y-77774523D01*
X149549857Y-77584047D01*
X149549857Y-77250714D01*
X149597476Y-77060238D01*
X149692714Y-76965000D01*
X149787952Y-76917380D01*
X150645095Y-77250714D02*
X150645095Y-78250714D01*
X150645095Y-77298333D02*
X150740333Y-77250714D01*
X150930809Y-77250714D01*
X151026047Y-77298333D01*
X151073666Y-77345952D01*
X151121285Y-77441190D01*
X151121285Y-77726904D01*
X151073666Y-77822142D01*
X151026047Y-77869761D01*
X150930809Y-77917380D01*
X150740333Y-77917380D01*
X150645095Y-77869761D01*
X151930809Y-77869761D02*
X151835571Y-77917380D01*
X151645095Y-77917380D01*
X151549857Y-77869761D01*
X151502238Y-77774523D01*
X151502238Y-77393571D01*
X151549857Y-77298333D01*
X151645095Y-77250714D01*
X151835571Y-77250714D01*
X151930809Y-77298333D01*
X151978428Y-77393571D01*
X151978428Y-77488809D01*
X151502238Y-77584047D01*
X152407000Y-77250714D02*
X152407000Y-77917380D01*
X152407000Y-77345952D02*
X152454619Y-77298333D01*
X152549857Y-77250714D01*
X152692714Y-77250714D01*
X152787952Y-77298333D01*
X152835571Y-77393571D01*
X152835571Y-77917380D01*
X171545666Y-61472380D02*
X172117095Y-61472380D01*
X171831380Y-62472380D02*
X171831380Y-61472380D01*
X172831380Y-62424761D02*
X172736142Y-62472380D01*
X172545666Y-62472380D01*
X172450428Y-62424761D01*
X172402809Y-62329523D01*
X172402809Y-61948571D01*
X172450428Y-61853333D01*
X172545666Y-61805714D01*
X172736142Y-61805714D01*
X172831380Y-61853333D01*
X172879000Y-61948571D01*
X172879000Y-62043809D01*
X172402809Y-62139047D01*
X173259952Y-62424761D02*
X173355190Y-62472380D01*
X173545666Y-62472380D01*
X173640904Y-62424761D01*
X173688523Y-62329523D01*
X173688523Y-62281904D01*
X173640904Y-62186666D01*
X173545666Y-62139047D01*
X173402809Y-62139047D01*
X173307571Y-62091428D01*
X173259952Y-61996190D01*
X173259952Y-61948571D01*
X173307571Y-61853333D01*
X173402809Y-61805714D01*
X173545666Y-61805714D01*
X173640904Y-61853333D01*
X173974238Y-61805714D02*
X174355190Y-61805714D01*
X174117095Y-61472380D02*
X174117095Y-62329523D01*
X174164714Y-62424761D01*
X174259952Y-62472380D01*
X174355190Y-62472380D01*
X174688523Y-62472380D02*
X174688523Y-61472380D01*
X175069476Y-61472380D01*
X175164714Y-61520000D01*
X175212333Y-61567619D01*
X175259952Y-61662857D01*
X175259952Y-61805714D01*
X175212333Y-61900952D01*
X175164714Y-61948571D01*
X175069476Y-61996190D01*
X174688523Y-61996190D01*
X175831380Y-62472380D02*
X175736142Y-62424761D01*
X175688523Y-62377142D01*
X175640904Y-62281904D01*
X175640904Y-61996190D01*
X175688523Y-61900952D01*
X175736142Y-61853333D01*
X175831380Y-61805714D01*
X175974238Y-61805714D01*
X176069476Y-61853333D01*
X176117095Y-61900952D01*
X176164714Y-61996190D01*
X176164714Y-62281904D01*
X176117095Y-62377142D01*
X176069476Y-62424761D01*
X175974238Y-62472380D01*
X175831380Y-62472380D01*
X176593285Y-62472380D02*
X176593285Y-61805714D01*
X176593285Y-61472380D02*
X176545666Y-61520000D01*
X176593285Y-61567619D01*
X176640904Y-61520000D01*
X176593285Y-61472380D01*
X176593285Y-61567619D01*
X177069476Y-61805714D02*
X177069476Y-62472380D01*
X177069476Y-61900952D02*
X177117095Y-61853333D01*
X177212333Y-61805714D01*
X177355190Y-61805714D01*
X177450428Y-61853333D01*
X177498047Y-61948571D01*
X177498047Y-62472380D01*
X177831380Y-61805714D02*
X178212333Y-61805714D01*
X177974238Y-61472380D02*
X177974238Y-62329523D01*
X178021857Y-62424761D01*
X178117095Y-62472380D01*
X178212333Y-62472380D01*
X174331380Y-61428095D02*
X174331380Y-60856666D01*
X175331380Y-61142380D02*
X174331380Y-61142380D01*
X175331380Y-60523333D02*
X174331380Y-60523333D01*
X174331380Y-60142380D01*
X174379000Y-60047142D01*
X174426619Y-59999523D01*
X174521857Y-59951904D01*
X174664714Y-59951904D01*
X174759952Y-59999523D01*
X174807571Y-60047142D01*
X174855190Y-60142380D01*
X174855190Y-60523333D01*
X175331380Y-58999523D02*
X175331380Y-59570952D01*
X175331380Y-59285238D02*
X174331380Y-59285238D01*
X174474238Y-59380476D01*
X174569476Y-59475714D01*
X174617095Y-59570952D01*
X175331380Y-58047142D02*
X175331380Y-58618571D01*
X175331380Y-58332857D02*
X174331380Y-58332857D01*
X174474238Y-58428095D01*
X174569476Y-58523333D01*
X174617095Y-58618571D01*
X177204761Y-103067380D02*
X176633333Y-103067380D01*
X176919047Y-103067380D02*
X176919047Y-102067380D01*
X176823809Y-102210238D01*
X176728571Y-102305476D01*
X176633333Y-102353095D01*
X177823809Y-102067380D02*
X177919047Y-102067380D01*
X178014285Y-102115000D01*
X178061904Y-102162619D01*
X178109523Y-102257857D01*
X178157142Y-102448333D01*
X178157142Y-102686428D01*
X178109523Y-102876904D01*
X178061904Y-102972142D01*
X178014285Y-103019761D01*
X177919047Y-103067380D01*
X177823809Y-103067380D01*
X177728571Y-103019761D01*
X177680952Y-102972142D01*
X177633333Y-102876904D01*
X177585714Y-102686428D01*
X177585714Y-102448333D01*
X177633333Y-102257857D01*
X177680952Y-102162619D01*
X177728571Y-102115000D01*
X177823809Y-102067380D01*
X178585714Y-103067380D02*
X178585714Y-102067380D01*
X178680952Y-102686428D02*
X178966666Y-103067380D01*
X178966666Y-102400714D02*
X178585714Y-102781666D01*
D11*
X177716666Y-101191190D02*
X177550000Y-100953095D01*
X177430952Y-101191190D02*
X177430952Y-100691190D01*
X177621428Y-100691190D01*
X177669047Y-100715000D01*
X177692857Y-100738809D01*
X177716666Y-100786428D01*
X177716666Y-100857857D01*
X177692857Y-100905476D01*
X177669047Y-100929285D01*
X177621428Y-100953095D01*
X177430952Y-100953095D01*
X178145238Y-100857857D02*
X178145238Y-101191190D01*
X178026190Y-100667380D02*
X177907142Y-101024523D01*
X178216666Y-101024523D01*
D10*
X224405380Y-105695476D02*
X223405380Y-105695476D01*
X223405380Y-105457380D01*
X223453000Y-105314523D01*
X223548238Y-105219285D01*
X223643476Y-105171666D01*
X223833952Y-105124047D01*
X223976809Y-105124047D01*
X224167285Y-105171666D01*
X224262523Y-105219285D01*
X224357761Y-105314523D01*
X224405380Y-105457380D01*
X224405380Y-105695476D01*
X224405380Y-104695476D02*
X223738714Y-104695476D01*
X223405380Y-104695476D02*
X223453000Y-104743095D01*
X223500619Y-104695476D01*
X223453000Y-104647857D01*
X223405380Y-104695476D01*
X223500619Y-104695476D01*
X223738714Y-103790714D02*
X224548238Y-103790714D01*
X224643476Y-103838333D01*
X224691095Y-103885952D01*
X224738714Y-103981190D01*
X224738714Y-104124047D01*
X224691095Y-104219285D01*
X224357761Y-103790714D02*
X224405380Y-103885952D01*
X224405380Y-104076428D01*
X224357761Y-104171666D01*
X224310142Y-104219285D01*
X224214904Y-104266904D01*
X223929190Y-104266904D01*
X223833952Y-104219285D01*
X223786333Y-104171666D01*
X223738714Y-104076428D01*
X223738714Y-103885952D01*
X223786333Y-103790714D01*
X224405380Y-103314523D02*
X223738714Y-103314523D01*
X223405380Y-103314523D02*
X223453000Y-103362142D01*
X223500619Y-103314523D01*
X223453000Y-103266904D01*
X223405380Y-103314523D01*
X223500619Y-103314523D01*
X223738714Y-102981190D02*
X223738714Y-102600238D01*
X223405380Y-102838333D02*
X224262523Y-102838333D01*
X224357761Y-102790714D01*
X224405380Y-102695476D01*
X224405380Y-102600238D01*
X224405380Y-101838333D02*
X223881571Y-101838333D01*
X223786333Y-101885952D01*
X223738714Y-101981190D01*
X223738714Y-102171666D01*
X223786333Y-102266904D01*
X224357761Y-101838333D02*
X224405380Y-101933571D01*
X224405380Y-102171666D01*
X224357761Y-102266904D01*
X224262523Y-102314523D01*
X224167285Y-102314523D01*
X224072047Y-102266904D01*
X224024428Y-102171666D01*
X224024428Y-101933571D01*
X223976809Y-101838333D01*
X224405380Y-101219285D02*
X224357761Y-101314523D01*
X224262523Y-101362142D01*
X223405380Y-101362142D01*
X169005666Y-62361380D02*
X169577095Y-62361380D01*
X169291380Y-63361380D02*
X169291380Y-62361380D01*
X170291380Y-63313761D02*
X170196142Y-63361380D01*
X170005666Y-63361380D01*
X169910428Y-63313761D01*
X169862809Y-63218523D01*
X169862809Y-62837571D01*
X169910428Y-62742333D01*
X170005666Y-62694714D01*
X170196142Y-62694714D01*
X170291380Y-62742333D01*
X170339000Y-62837571D01*
X170339000Y-62932809D01*
X169862809Y-63028047D01*
X170719952Y-63313761D02*
X170815190Y-63361380D01*
X171005666Y-63361380D01*
X171100904Y-63313761D01*
X171148523Y-63218523D01*
X171148523Y-63170904D01*
X171100904Y-63075666D01*
X171005666Y-63028047D01*
X170862809Y-63028047D01*
X170767571Y-62980428D01*
X170719952Y-62885190D01*
X170719952Y-62837571D01*
X170767571Y-62742333D01*
X170862809Y-62694714D01*
X171005666Y-62694714D01*
X171100904Y-62742333D01*
X171434238Y-62694714D02*
X171815190Y-62694714D01*
X171577095Y-62361380D02*
X171577095Y-63218523D01*
X171624714Y-63313761D01*
X171719952Y-63361380D01*
X171815190Y-63361380D01*
X172148523Y-63361380D02*
X172148523Y-62361380D01*
X172529476Y-62361380D01*
X172624714Y-62409000D01*
X172672333Y-62456619D01*
X172719952Y-62551857D01*
X172719952Y-62694714D01*
X172672333Y-62789952D01*
X172624714Y-62837571D01*
X172529476Y-62885190D01*
X172148523Y-62885190D01*
X173291380Y-63361380D02*
X173196142Y-63313761D01*
X173148523Y-63266142D01*
X173100904Y-63170904D01*
X173100904Y-62885190D01*
X173148523Y-62789952D01*
X173196142Y-62742333D01*
X173291380Y-62694714D01*
X173434238Y-62694714D01*
X173529476Y-62742333D01*
X173577095Y-62789952D01*
X173624714Y-62885190D01*
X173624714Y-63170904D01*
X173577095Y-63266142D01*
X173529476Y-63313761D01*
X173434238Y-63361380D01*
X173291380Y-63361380D01*
X174053285Y-63361380D02*
X174053285Y-62694714D01*
X174053285Y-62361380D02*
X174005666Y-62409000D01*
X174053285Y-62456619D01*
X174100904Y-62409000D01*
X174053285Y-62361380D01*
X174053285Y-62456619D01*
X174529476Y-62694714D02*
X174529476Y-63361380D01*
X174529476Y-62789952D02*
X174577095Y-62742333D01*
X174672333Y-62694714D01*
X174815190Y-62694714D01*
X174910428Y-62742333D01*
X174958047Y-62837571D01*
X174958047Y-63361380D01*
X175291380Y-62694714D02*
X175672333Y-62694714D01*
X175434238Y-62361380D02*
X175434238Y-63218523D01*
X175481857Y-63313761D01*
X175577095Y-63361380D01*
X175672333Y-63361380D01*
X171791380Y-61840904D02*
X171791380Y-61269476D01*
X172791380Y-61555190D02*
X171791380Y-61555190D01*
X172791380Y-60936142D02*
X171791380Y-60936142D01*
X171791380Y-60555190D01*
X171839000Y-60459952D01*
X171886619Y-60412333D01*
X171981857Y-60364714D01*
X172124714Y-60364714D01*
X172219952Y-60412333D01*
X172267571Y-60459952D01*
X172315190Y-60555190D01*
X172315190Y-60936142D01*
X171791380Y-60031380D02*
X171791380Y-59412333D01*
X172172333Y-59745666D01*
X172172333Y-59602809D01*
X172219952Y-59507571D01*
X172267571Y-59459952D01*
X172362809Y-59412333D01*
X172600904Y-59412333D01*
X172696142Y-59459952D01*
X172743761Y-59507571D01*
X172791380Y-59602809D01*
X172791380Y-59888523D01*
X172743761Y-59983761D01*
X172696142Y-60031380D01*
X126278380Y-93657380D02*
X125802190Y-93657380D01*
X125802190Y-92657380D01*
X126468857Y-92657380D02*
X127040285Y-92657380D01*
X126754571Y-93657380D02*
X126754571Y-92657380D01*
X127802190Y-92657380D02*
X127611714Y-92657380D01*
X127516476Y-92705000D01*
X127468857Y-92752619D01*
X127373619Y-92895476D01*
X127326000Y-93085952D01*
X127326000Y-93466904D01*
X127373619Y-93562142D01*
X127421238Y-93609761D01*
X127516476Y-93657380D01*
X127706952Y-93657380D01*
X127802190Y-93609761D01*
X127849809Y-93562142D01*
X127897428Y-93466904D01*
X127897428Y-93228809D01*
X127849809Y-93133571D01*
X127802190Y-93085952D01*
X127706952Y-93038333D01*
X127516476Y-93038333D01*
X127421238Y-93085952D01*
X127373619Y-93133571D01*
X127326000Y-93228809D01*
X128754571Y-92657380D02*
X128564095Y-92657380D01*
X128468857Y-92705000D01*
X128421238Y-92752619D01*
X128326000Y-92895476D01*
X128278380Y-93085952D01*
X128278380Y-93466904D01*
X128326000Y-93562142D01*
X128373619Y-93609761D01*
X128468857Y-93657380D01*
X128659333Y-93657380D01*
X128754571Y-93609761D01*
X128802190Y-93562142D01*
X128849809Y-93466904D01*
X128849809Y-93228809D01*
X128802190Y-93133571D01*
X128754571Y-93085952D01*
X128659333Y-93038333D01*
X128468857Y-93038333D01*
X128373619Y-93085952D01*
X128326000Y-93133571D01*
X128278380Y-93228809D01*
X129754571Y-92657380D02*
X129278380Y-92657380D01*
X129230761Y-93133571D01*
X129278380Y-93085952D01*
X129373619Y-93038333D01*
X129611714Y-93038333D01*
X129706952Y-93085952D01*
X129754571Y-93133571D01*
X129802190Y-93228809D01*
X129802190Y-93466904D01*
X129754571Y-93562142D01*
X129706952Y-93609761D01*
X129611714Y-93657380D01*
X129373619Y-93657380D01*
X129278380Y-93609761D01*
X129230761Y-93562142D01*
X130659333Y-92990714D02*
X130659333Y-93657380D01*
X130421238Y-92609761D02*
X130183142Y-93324047D01*
X130802190Y-93324047D01*
X131087904Y-93657380D02*
X131611714Y-92990714D01*
X131087904Y-92990714D02*
X131611714Y-93657380D01*
X131897428Y-93657380D02*
X132421238Y-92990714D01*
X131897428Y-92990714D02*
X132421238Y-93657380D01*
X132754571Y-93609761D02*
X132897428Y-93657380D01*
X133135523Y-93657380D01*
X133230761Y-93609761D01*
X133278380Y-93562142D01*
X133326000Y-93466904D01*
X133326000Y-93371666D01*
X133278380Y-93276428D01*
X133230761Y-93228809D01*
X133135523Y-93181190D01*
X132945047Y-93133571D01*
X132849809Y-93085952D01*
X132802190Y-93038333D01*
X132754571Y-92943095D01*
X132754571Y-92847857D01*
X132802190Y-92752619D01*
X132849809Y-92705000D01*
X132945047Y-92657380D01*
X133183142Y-92657380D01*
X133326000Y-92705000D01*
X134183142Y-92657380D02*
X133992666Y-92657380D01*
X133897428Y-92705000D01*
X133849809Y-92752619D01*
X133754571Y-92895476D01*
X133706952Y-93085952D01*
X133706952Y-93466904D01*
X133754571Y-93562142D01*
X133802190Y-93609761D01*
X133897428Y-93657380D01*
X134087904Y-93657380D01*
X134183142Y-93609761D01*
X134230761Y-93562142D01*
X134278380Y-93466904D01*
X134278380Y-93228809D01*
X134230761Y-93133571D01*
X134183142Y-93085952D01*
X134087904Y-93038333D01*
X133897428Y-93038333D01*
X133802190Y-93085952D01*
X133754571Y-93133571D01*
X133706952Y-93228809D01*
X134706952Y-93276428D02*
X135468857Y-93276428D01*
X135897428Y-92752619D02*
X135945047Y-92705000D01*
X136040285Y-92657380D01*
X136278380Y-92657380D01*
X136373619Y-92705000D01*
X136421238Y-92752619D01*
X136468857Y-92847857D01*
X136468857Y-92943095D01*
X136421238Y-93085952D01*
X135849809Y-93657380D01*
X136468857Y-93657380D01*
X136897428Y-93562142D02*
X136945047Y-93609761D01*
X136897428Y-93657380D01*
X136849809Y-93609761D01*
X136897428Y-93562142D01*
X136897428Y-93657380D01*
X137849809Y-92657380D02*
X137373619Y-92657380D01*
X137326000Y-93133571D01*
X137373619Y-93085952D01*
X137468857Y-93038333D01*
X137706952Y-93038333D01*
X137802190Y-93085952D01*
X137849809Y-93133571D01*
X137897428Y-93228809D01*
X137897428Y-93466904D01*
X137849809Y-93562142D01*
X137802190Y-93609761D01*
X137706952Y-93657380D01*
X137468857Y-93657380D01*
X137373619Y-93609761D01*
X137326000Y-93562142D01*
D12*
X131521238Y-90585952D02*
X131521238Y-90909761D01*
X131540285Y-90947857D01*
X131559333Y-90966904D01*
X131597428Y-90985952D01*
X131673619Y-90985952D01*
X131711714Y-90966904D01*
X131730761Y-90947857D01*
X131749809Y-90909761D01*
X131749809Y-90585952D01*
X131921238Y-90624047D02*
X131940285Y-90605000D01*
X131978380Y-90585952D01*
X132073619Y-90585952D01*
X132111714Y-90605000D01*
X132130761Y-90624047D01*
X132149809Y-90662142D01*
X132149809Y-90700238D01*
X132130761Y-90757380D01*
X131902190Y-90985952D01*
X132149809Y-90985952D01*
D10*
X125802190Y-88450380D02*
X125326000Y-88450380D01*
X125326000Y-87450380D01*
X125992666Y-87450380D02*
X126564095Y-87450380D01*
X126278380Y-88450380D02*
X126278380Y-87450380D01*
X127326000Y-87450380D02*
X127135523Y-87450380D01*
X127040285Y-87498000D01*
X126992666Y-87545619D01*
X126897428Y-87688476D01*
X126849809Y-87878952D01*
X126849809Y-88259904D01*
X126897428Y-88355142D01*
X126945047Y-88402761D01*
X127040285Y-88450380D01*
X127230761Y-88450380D01*
X127326000Y-88402761D01*
X127373619Y-88355142D01*
X127421238Y-88259904D01*
X127421238Y-88021809D01*
X127373619Y-87926571D01*
X127326000Y-87878952D01*
X127230761Y-87831333D01*
X127040285Y-87831333D01*
X126945047Y-87878952D01*
X126897428Y-87926571D01*
X126849809Y-88021809D01*
X128278380Y-87450380D02*
X128087904Y-87450380D01*
X127992666Y-87498000D01*
X127945047Y-87545619D01*
X127849809Y-87688476D01*
X127802190Y-87878952D01*
X127802190Y-88259904D01*
X127849809Y-88355142D01*
X127897428Y-88402761D01*
X127992666Y-88450380D01*
X128183142Y-88450380D01*
X128278380Y-88402761D01*
X128326000Y-88355142D01*
X128373619Y-88259904D01*
X128373619Y-88021809D01*
X128326000Y-87926571D01*
X128278380Y-87878952D01*
X128183142Y-87831333D01*
X127992666Y-87831333D01*
X127897428Y-87878952D01*
X127849809Y-87926571D01*
X127802190Y-88021809D01*
X129278380Y-87450380D02*
X128802190Y-87450380D01*
X128754571Y-87926571D01*
X128802190Y-87878952D01*
X128897428Y-87831333D01*
X129135523Y-87831333D01*
X129230761Y-87878952D01*
X129278380Y-87926571D01*
X129326000Y-88021809D01*
X129326000Y-88259904D01*
X129278380Y-88355142D01*
X129230761Y-88402761D01*
X129135523Y-88450380D01*
X128897428Y-88450380D01*
X128802190Y-88402761D01*
X128754571Y-88355142D01*
X130183142Y-87783714D02*
X130183142Y-88450380D01*
X129945047Y-87402761D02*
X129706952Y-88117047D01*
X130326000Y-88117047D01*
X130611714Y-88450380D02*
X131135523Y-87783714D01*
X130611714Y-87783714D02*
X131135523Y-88450380D01*
X131421238Y-88450380D02*
X131945047Y-87783714D01*
X131421238Y-87783714D02*
X131945047Y-88450380D01*
X132278380Y-88402761D02*
X132421238Y-88450380D01*
X132659333Y-88450380D01*
X132754571Y-88402761D01*
X132802190Y-88355142D01*
X132849809Y-88259904D01*
X132849809Y-88164666D01*
X132802190Y-88069428D01*
X132754571Y-88021809D01*
X132659333Y-87974190D01*
X132468857Y-87926571D01*
X132373619Y-87878952D01*
X132326000Y-87831333D01*
X132278380Y-87736095D01*
X132278380Y-87640857D01*
X132326000Y-87545619D01*
X132373619Y-87498000D01*
X132468857Y-87450380D01*
X132706952Y-87450380D01*
X132849809Y-87498000D01*
X133706952Y-87450380D02*
X133516476Y-87450380D01*
X133421238Y-87498000D01*
X133373619Y-87545619D01*
X133278380Y-87688476D01*
X133230761Y-87878952D01*
X133230761Y-88259904D01*
X133278380Y-88355142D01*
X133326000Y-88402761D01*
X133421238Y-88450380D01*
X133611714Y-88450380D01*
X133706952Y-88402761D01*
X133754571Y-88355142D01*
X133802190Y-88259904D01*
X133802190Y-88021809D01*
X133754571Y-87926571D01*
X133706952Y-87878952D01*
X133611714Y-87831333D01*
X133421238Y-87831333D01*
X133326000Y-87878952D01*
X133278380Y-87926571D01*
X133230761Y-88021809D01*
X134230761Y-88069428D02*
X134992666Y-88069428D01*
X135992666Y-88450380D02*
X135421238Y-88450380D01*
X135706952Y-88450380D02*
X135706952Y-87450380D01*
X135611714Y-87593238D01*
X135516476Y-87688476D01*
X135421238Y-87736095D01*
X136421238Y-88355142D02*
X136468857Y-88402761D01*
X136421238Y-88450380D01*
X136373619Y-88402761D01*
X136421238Y-88355142D01*
X136421238Y-88450380D01*
X136849809Y-87545619D02*
X136897428Y-87498000D01*
X136992666Y-87450380D01*
X137230761Y-87450380D01*
X137326000Y-87498000D01*
X137373619Y-87545619D01*
X137421238Y-87640857D01*
X137421238Y-87736095D01*
X137373619Y-87878952D01*
X136802190Y-88450380D01*
X137421238Y-88450380D01*
X138326000Y-87450380D02*
X137849809Y-87450380D01*
X137802190Y-87926571D01*
X137849809Y-87878952D01*
X137945047Y-87831333D01*
X138183142Y-87831333D01*
X138278380Y-87878952D01*
X138326000Y-87926571D01*
X138373619Y-88021809D01*
X138373619Y-88259904D01*
X138326000Y-88355142D01*
X138278380Y-88402761D01*
X138183142Y-88450380D01*
X137945047Y-88450380D01*
X137849809Y-88402761D01*
X137802190Y-88355142D01*
D12*
X131521238Y-85378952D02*
X131521238Y-85702761D01*
X131540285Y-85740857D01*
X131559333Y-85759904D01*
X131597428Y-85778952D01*
X131673619Y-85778952D01*
X131711714Y-85759904D01*
X131730761Y-85740857D01*
X131749809Y-85702761D01*
X131749809Y-85378952D01*
X132149809Y-85778952D02*
X131921238Y-85778952D01*
X132035523Y-85778952D02*
X132035523Y-85378952D01*
X131997428Y-85436095D01*
X131959333Y-85474190D01*
X131921238Y-85493238D01*
D10*
X197199666Y-125353380D02*
X197771095Y-125353380D01*
X197485380Y-126353380D02*
X197485380Y-125353380D01*
X198485380Y-126305761D02*
X198390142Y-126353380D01*
X198199666Y-126353380D01*
X198104428Y-126305761D01*
X198056809Y-126210523D01*
X198056809Y-125829571D01*
X198104428Y-125734333D01*
X198199666Y-125686714D01*
X198390142Y-125686714D01*
X198485380Y-125734333D01*
X198533000Y-125829571D01*
X198533000Y-125924809D01*
X198056809Y-126020047D01*
X198913952Y-126305761D02*
X199009190Y-126353380D01*
X199199666Y-126353380D01*
X199294904Y-126305761D01*
X199342523Y-126210523D01*
X199342523Y-126162904D01*
X199294904Y-126067666D01*
X199199666Y-126020047D01*
X199056809Y-126020047D01*
X198961571Y-125972428D01*
X198913952Y-125877190D01*
X198913952Y-125829571D01*
X198961571Y-125734333D01*
X199056809Y-125686714D01*
X199199666Y-125686714D01*
X199294904Y-125734333D01*
X199628238Y-125686714D02*
X200009190Y-125686714D01*
X199771095Y-125353380D02*
X199771095Y-126210523D01*
X199818714Y-126305761D01*
X199913952Y-126353380D01*
X200009190Y-126353380D01*
X200342523Y-126353380D02*
X200342523Y-125353380D01*
X200723476Y-125353380D01*
X200818714Y-125401000D01*
X200866333Y-125448619D01*
X200913952Y-125543857D01*
X200913952Y-125686714D01*
X200866333Y-125781952D01*
X200818714Y-125829571D01*
X200723476Y-125877190D01*
X200342523Y-125877190D01*
X201485380Y-126353380D02*
X201390142Y-126305761D01*
X201342523Y-126258142D01*
X201294904Y-126162904D01*
X201294904Y-125877190D01*
X201342523Y-125781952D01*
X201390142Y-125734333D01*
X201485380Y-125686714D01*
X201628238Y-125686714D01*
X201723476Y-125734333D01*
X201771095Y-125781952D01*
X201818714Y-125877190D01*
X201818714Y-126162904D01*
X201771095Y-126258142D01*
X201723476Y-126305761D01*
X201628238Y-126353380D01*
X201485380Y-126353380D01*
X202247285Y-126353380D02*
X202247285Y-125686714D01*
X202247285Y-125353380D02*
X202199666Y-125401000D01*
X202247285Y-125448619D01*
X202294904Y-125401000D01*
X202247285Y-125353380D01*
X202247285Y-125448619D01*
X202723476Y-125686714D02*
X202723476Y-126353380D01*
X202723476Y-125781952D02*
X202771095Y-125734333D01*
X202866333Y-125686714D01*
X203009190Y-125686714D01*
X203104428Y-125734333D01*
X203152047Y-125829571D01*
X203152047Y-126353380D01*
X203485380Y-125686714D02*
X203866333Y-125686714D01*
X203628238Y-125353380D02*
X203628238Y-126210523D01*
X203675857Y-126305761D01*
X203771095Y-126353380D01*
X203866333Y-126353380D01*
X199985380Y-125309095D02*
X199985380Y-124737666D01*
X200985380Y-125023380D02*
X199985380Y-125023380D01*
X200985380Y-124404333D02*
X199985380Y-124404333D01*
X199985380Y-124023380D01*
X200033000Y-123928142D01*
X200080619Y-123880523D01*
X200175857Y-123832904D01*
X200318714Y-123832904D01*
X200413952Y-123880523D01*
X200461571Y-123928142D01*
X200509190Y-124023380D01*
X200509190Y-124404333D01*
X200985380Y-122880523D02*
X200985380Y-123451952D01*
X200985380Y-123166238D02*
X199985380Y-123166238D01*
X200128238Y-123261476D01*
X200223476Y-123356714D01*
X200271095Y-123451952D01*
X200413952Y-122309095D02*
X200366333Y-122404333D01*
X200318714Y-122451952D01*
X200223476Y-122499571D01*
X200175857Y-122499571D01*
X200080619Y-122451952D01*
X200033000Y-122404333D01*
X199985380Y-122309095D01*
X199985380Y-122118619D01*
X200033000Y-122023380D01*
X200080619Y-121975761D01*
X200175857Y-121928142D01*
X200223476Y-121928142D01*
X200318714Y-121975761D01*
X200366333Y-122023380D01*
X200413952Y-122118619D01*
X200413952Y-122309095D01*
X200461571Y-122404333D01*
X200509190Y-122451952D01*
X200604428Y-122499571D01*
X200794904Y-122499571D01*
X200890142Y-122451952D01*
X200937761Y-122404333D01*
X200985380Y-122309095D01*
X200985380Y-122118619D01*
X200937761Y-122023380D01*
X200890142Y-121975761D01*
X200794904Y-121928142D01*
X200604428Y-121928142D01*
X200509190Y-121975761D01*
X200461571Y-122023380D01*
X200413952Y-122118619D01*
X175859666Y-110894523D02*
X175859666Y-110418333D01*
X176145380Y-110989761D02*
X175145380Y-110656428D01*
X176145380Y-110323095D01*
X175478714Y-109989761D02*
X176145380Y-109989761D01*
X175573952Y-109989761D02*
X175526333Y-109942142D01*
X175478714Y-109846904D01*
X175478714Y-109704047D01*
X175526333Y-109608809D01*
X175621571Y-109561190D01*
X176145380Y-109561190D01*
X176145380Y-108656428D02*
X175621571Y-108656428D01*
X175526333Y-108704047D01*
X175478714Y-108799285D01*
X175478714Y-108989761D01*
X175526333Y-109085000D01*
X176097761Y-108656428D02*
X176145380Y-108751666D01*
X176145380Y-108989761D01*
X176097761Y-109085000D01*
X176002523Y-109132619D01*
X175907285Y-109132619D01*
X175812047Y-109085000D01*
X175764428Y-108989761D01*
X175764428Y-108751666D01*
X175716809Y-108656428D01*
X176145380Y-108037380D02*
X176097761Y-108132619D01*
X176002523Y-108180238D01*
X175145380Y-108180238D01*
X176145380Y-107513571D02*
X176097761Y-107608809D01*
X176050142Y-107656428D01*
X175954904Y-107704047D01*
X175669190Y-107704047D01*
X175573952Y-107656428D01*
X175526333Y-107608809D01*
X175478714Y-107513571D01*
X175478714Y-107370714D01*
X175526333Y-107275476D01*
X175573952Y-107227857D01*
X175669190Y-107180238D01*
X175954904Y-107180238D01*
X176050142Y-107227857D01*
X176097761Y-107275476D01*
X176145380Y-107370714D01*
X176145380Y-107513571D01*
X175478714Y-106323095D02*
X176288238Y-106323095D01*
X176383476Y-106370714D01*
X176431095Y-106418333D01*
X176478714Y-106513571D01*
X176478714Y-106656428D01*
X176431095Y-106751666D01*
X176097761Y-106323095D02*
X176145380Y-106418333D01*
X176145380Y-106608809D01*
X176097761Y-106704047D01*
X176050142Y-106751666D01*
X175954904Y-106799285D01*
X175669190Y-106799285D01*
X175573952Y-106751666D01*
X175526333Y-106704047D01*
X175478714Y-106608809D01*
X175478714Y-106418333D01*
X175526333Y-106323095D01*
X142787761Y-78812380D02*
X142216333Y-78812380D01*
X142502047Y-78812380D02*
X142502047Y-77812380D01*
X142406809Y-77955238D01*
X142311571Y-78050476D01*
X142216333Y-78098095D01*
X143406809Y-77812380D02*
X143502047Y-77812380D01*
X143597285Y-77860000D01*
X143644904Y-77907619D01*
X143692523Y-78002857D01*
X143740142Y-78193333D01*
X143740142Y-78431428D01*
X143692523Y-78621904D01*
X143644904Y-78717142D01*
X143597285Y-78764761D01*
X143502047Y-78812380D01*
X143406809Y-78812380D01*
X143311571Y-78764761D01*
X143263952Y-78717142D01*
X143216333Y-78621904D01*
X143168714Y-78431428D01*
X143168714Y-78193333D01*
X143216333Y-78002857D01*
X143263952Y-77907619D01*
X143311571Y-77860000D01*
X143406809Y-77812380D01*
X144168714Y-78812380D02*
X144168714Y-77812380D01*
X144263952Y-78431428D02*
X144549666Y-78812380D01*
X144549666Y-78145714D02*
X144168714Y-78526666D01*
D11*
X143299666Y-80236190D02*
X143133000Y-79998095D01*
X143013952Y-80236190D02*
X143013952Y-79736190D01*
X143204428Y-79736190D01*
X143252047Y-79760000D01*
X143275857Y-79783809D01*
X143299666Y-79831428D01*
X143299666Y-79902857D01*
X143275857Y-79950476D01*
X143252047Y-79974285D01*
X143204428Y-79998095D01*
X143013952Y-79998095D01*
X143490142Y-79783809D02*
X143513952Y-79760000D01*
X143561571Y-79736190D01*
X143680619Y-79736190D01*
X143728238Y-79760000D01*
X143752047Y-79783809D01*
X143775857Y-79831428D01*
X143775857Y-79879047D01*
X143752047Y-79950476D01*
X143466333Y-80236190D01*
X143775857Y-80236190D01*
D10*
X174085666Y-62361380D02*
X174657095Y-62361380D01*
X174371380Y-63361380D02*
X174371380Y-62361380D01*
X175371380Y-63313761D02*
X175276142Y-63361380D01*
X175085666Y-63361380D01*
X174990428Y-63313761D01*
X174942809Y-63218523D01*
X174942809Y-62837571D01*
X174990428Y-62742333D01*
X175085666Y-62694714D01*
X175276142Y-62694714D01*
X175371380Y-62742333D01*
X175419000Y-62837571D01*
X175419000Y-62932809D01*
X174942809Y-63028047D01*
X175799952Y-63313761D02*
X175895190Y-63361380D01*
X176085666Y-63361380D01*
X176180904Y-63313761D01*
X176228523Y-63218523D01*
X176228523Y-63170904D01*
X176180904Y-63075666D01*
X176085666Y-63028047D01*
X175942809Y-63028047D01*
X175847571Y-62980428D01*
X175799952Y-62885190D01*
X175799952Y-62837571D01*
X175847571Y-62742333D01*
X175942809Y-62694714D01*
X176085666Y-62694714D01*
X176180904Y-62742333D01*
X176514238Y-62694714D02*
X176895190Y-62694714D01*
X176657095Y-62361380D02*
X176657095Y-63218523D01*
X176704714Y-63313761D01*
X176799952Y-63361380D01*
X176895190Y-63361380D01*
X177228523Y-63361380D02*
X177228523Y-62361380D01*
X177609476Y-62361380D01*
X177704714Y-62409000D01*
X177752333Y-62456619D01*
X177799952Y-62551857D01*
X177799952Y-62694714D01*
X177752333Y-62789952D01*
X177704714Y-62837571D01*
X177609476Y-62885190D01*
X177228523Y-62885190D01*
X178371380Y-63361380D02*
X178276142Y-63313761D01*
X178228523Y-63266142D01*
X178180904Y-63170904D01*
X178180904Y-62885190D01*
X178228523Y-62789952D01*
X178276142Y-62742333D01*
X178371380Y-62694714D01*
X178514238Y-62694714D01*
X178609476Y-62742333D01*
X178657095Y-62789952D01*
X178704714Y-62885190D01*
X178704714Y-63170904D01*
X178657095Y-63266142D01*
X178609476Y-63313761D01*
X178514238Y-63361380D01*
X178371380Y-63361380D01*
X179133285Y-63361380D02*
X179133285Y-62694714D01*
X179133285Y-62361380D02*
X179085666Y-62409000D01*
X179133285Y-62456619D01*
X179180904Y-62409000D01*
X179133285Y-62361380D01*
X179133285Y-62456619D01*
X179609476Y-62694714D02*
X179609476Y-63361380D01*
X179609476Y-62789952D02*
X179657095Y-62742333D01*
X179752333Y-62694714D01*
X179895190Y-62694714D01*
X179990428Y-62742333D01*
X180038047Y-62837571D01*
X180038047Y-63361380D01*
X180371380Y-62694714D02*
X180752333Y-62694714D01*
X180514238Y-62361380D02*
X180514238Y-63218523D01*
X180561857Y-63313761D01*
X180657095Y-63361380D01*
X180752333Y-63361380D01*
X176871380Y-61840904D02*
X176871380Y-61269476D01*
X177871380Y-61555190D02*
X176871380Y-61555190D01*
X177871380Y-60936142D02*
X176871380Y-60936142D01*
X176871380Y-60555190D01*
X176919000Y-60459952D01*
X176966619Y-60412333D01*
X177061857Y-60364714D01*
X177204714Y-60364714D01*
X177299952Y-60412333D01*
X177347571Y-60459952D01*
X177395190Y-60555190D01*
X177395190Y-60936142D01*
X177204714Y-59507571D02*
X177871380Y-59507571D01*
X176823761Y-59745666D02*
X177538047Y-59983761D01*
X177538047Y-59364714D01*
X192119666Y-125353380D02*
X192691095Y-125353380D01*
X192405380Y-126353380D02*
X192405380Y-125353380D01*
X193405380Y-126305761D02*
X193310142Y-126353380D01*
X193119666Y-126353380D01*
X193024428Y-126305761D01*
X192976809Y-126210523D01*
X192976809Y-125829571D01*
X193024428Y-125734333D01*
X193119666Y-125686714D01*
X193310142Y-125686714D01*
X193405380Y-125734333D01*
X193453000Y-125829571D01*
X193453000Y-125924809D01*
X192976809Y-126020047D01*
X193833952Y-126305761D02*
X193929190Y-126353380D01*
X194119666Y-126353380D01*
X194214904Y-126305761D01*
X194262523Y-126210523D01*
X194262523Y-126162904D01*
X194214904Y-126067666D01*
X194119666Y-126020047D01*
X193976809Y-126020047D01*
X193881571Y-125972428D01*
X193833952Y-125877190D01*
X193833952Y-125829571D01*
X193881571Y-125734333D01*
X193976809Y-125686714D01*
X194119666Y-125686714D01*
X194214904Y-125734333D01*
X194548238Y-125686714D02*
X194929190Y-125686714D01*
X194691095Y-125353380D02*
X194691095Y-126210523D01*
X194738714Y-126305761D01*
X194833952Y-126353380D01*
X194929190Y-126353380D01*
X195262523Y-126353380D02*
X195262523Y-125353380D01*
X195643476Y-125353380D01*
X195738714Y-125401000D01*
X195786333Y-125448619D01*
X195833952Y-125543857D01*
X195833952Y-125686714D01*
X195786333Y-125781952D01*
X195738714Y-125829571D01*
X195643476Y-125877190D01*
X195262523Y-125877190D01*
X196405380Y-126353380D02*
X196310142Y-126305761D01*
X196262523Y-126258142D01*
X196214904Y-126162904D01*
X196214904Y-125877190D01*
X196262523Y-125781952D01*
X196310142Y-125734333D01*
X196405380Y-125686714D01*
X196548238Y-125686714D01*
X196643476Y-125734333D01*
X196691095Y-125781952D01*
X196738714Y-125877190D01*
X196738714Y-126162904D01*
X196691095Y-126258142D01*
X196643476Y-126305761D01*
X196548238Y-126353380D01*
X196405380Y-126353380D01*
X197167285Y-126353380D02*
X197167285Y-125686714D01*
X197167285Y-125353380D02*
X197119666Y-125401000D01*
X197167285Y-125448619D01*
X197214904Y-125401000D01*
X197167285Y-125353380D01*
X197167285Y-125448619D01*
X197643476Y-125686714D02*
X197643476Y-126353380D01*
X197643476Y-125781952D02*
X197691095Y-125734333D01*
X197786333Y-125686714D01*
X197929190Y-125686714D01*
X198024428Y-125734333D01*
X198072047Y-125829571D01*
X198072047Y-126353380D01*
X198405380Y-125686714D02*
X198786333Y-125686714D01*
X198548238Y-125353380D02*
X198548238Y-126210523D01*
X198595857Y-126305761D01*
X198691095Y-126353380D01*
X198786333Y-126353380D01*
X194905380Y-125309095D02*
X194905380Y-124737666D01*
X195905380Y-125023380D02*
X194905380Y-125023380D01*
X195905380Y-124404333D02*
X194905380Y-124404333D01*
X194905380Y-124023380D01*
X194953000Y-123928142D01*
X195000619Y-123880523D01*
X195095857Y-123832904D01*
X195238714Y-123832904D01*
X195333952Y-123880523D01*
X195381571Y-123928142D01*
X195429190Y-124023380D01*
X195429190Y-124404333D01*
X195905380Y-122880523D02*
X195905380Y-123451952D01*
X195905380Y-123166238D02*
X194905380Y-123166238D01*
X195048238Y-123261476D01*
X195143476Y-123356714D01*
X195191095Y-123451952D01*
X194905380Y-122547190D02*
X194905380Y-121880523D01*
X195905380Y-122309095D01*
X184499666Y-126242380D02*
X185071095Y-126242380D01*
X184785380Y-127242380D02*
X184785380Y-126242380D01*
X185785380Y-127194761D02*
X185690142Y-127242380D01*
X185499666Y-127242380D01*
X185404428Y-127194761D01*
X185356809Y-127099523D01*
X185356809Y-126718571D01*
X185404428Y-126623333D01*
X185499666Y-126575714D01*
X185690142Y-126575714D01*
X185785380Y-126623333D01*
X185833000Y-126718571D01*
X185833000Y-126813809D01*
X185356809Y-126909047D01*
X186213952Y-127194761D02*
X186309190Y-127242380D01*
X186499666Y-127242380D01*
X186594904Y-127194761D01*
X186642523Y-127099523D01*
X186642523Y-127051904D01*
X186594904Y-126956666D01*
X186499666Y-126909047D01*
X186356809Y-126909047D01*
X186261571Y-126861428D01*
X186213952Y-126766190D01*
X186213952Y-126718571D01*
X186261571Y-126623333D01*
X186356809Y-126575714D01*
X186499666Y-126575714D01*
X186594904Y-126623333D01*
X186928238Y-126575714D02*
X187309190Y-126575714D01*
X187071095Y-126242380D02*
X187071095Y-127099523D01*
X187118714Y-127194761D01*
X187213952Y-127242380D01*
X187309190Y-127242380D01*
X187642523Y-127242380D02*
X187642523Y-126242380D01*
X188023476Y-126242380D01*
X188118714Y-126290000D01*
X188166333Y-126337619D01*
X188213952Y-126432857D01*
X188213952Y-126575714D01*
X188166333Y-126670952D01*
X188118714Y-126718571D01*
X188023476Y-126766190D01*
X187642523Y-126766190D01*
X188785380Y-127242380D02*
X188690142Y-127194761D01*
X188642523Y-127147142D01*
X188594904Y-127051904D01*
X188594904Y-126766190D01*
X188642523Y-126670952D01*
X188690142Y-126623333D01*
X188785380Y-126575714D01*
X188928238Y-126575714D01*
X189023476Y-126623333D01*
X189071095Y-126670952D01*
X189118714Y-126766190D01*
X189118714Y-127051904D01*
X189071095Y-127147142D01*
X189023476Y-127194761D01*
X188928238Y-127242380D01*
X188785380Y-127242380D01*
X189547285Y-127242380D02*
X189547285Y-126575714D01*
X189547285Y-126242380D02*
X189499666Y-126290000D01*
X189547285Y-126337619D01*
X189594904Y-126290000D01*
X189547285Y-126242380D01*
X189547285Y-126337619D01*
X190023476Y-126575714D02*
X190023476Y-127242380D01*
X190023476Y-126670952D02*
X190071095Y-126623333D01*
X190166333Y-126575714D01*
X190309190Y-126575714D01*
X190404428Y-126623333D01*
X190452047Y-126718571D01*
X190452047Y-127242380D01*
X190785380Y-126575714D02*
X191166333Y-126575714D01*
X190928238Y-126242380D02*
X190928238Y-127099523D01*
X190975857Y-127194761D01*
X191071095Y-127242380D01*
X191166333Y-127242380D01*
X187285380Y-125721904D02*
X187285380Y-125150476D01*
X188285380Y-125436190D02*
X187285380Y-125436190D01*
X188285380Y-124817142D02*
X187285380Y-124817142D01*
X187285380Y-124436190D01*
X187333000Y-124340952D01*
X187380619Y-124293333D01*
X187475857Y-124245714D01*
X187618714Y-124245714D01*
X187713952Y-124293333D01*
X187761571Y-124340952D01*
X187809190Y-124436190D01*
X187809190Y-124817142D01*
X187713952Y-123674285D02*
X187666333Y-123769523D01*
X187618714Y-123817142D01*
X187523476Y-123864761D01*
X187475857Y-123864761D01*
X187380619Y-123817142D01*
X187333000Y-123769523D01*
X187285380Y-123674285D01*
X187285380Y-123483809D01*
X187333000Y-123388571D01*
X187380619Y-123340952D01*
X187475857Y-123293333D01*
X187523476Y-123293333D01*
X187618714Y-123340952D01*
X187666333Y-123388571D01*
X187713952Y-123483809D01*
X187713952Y-123674285D01*
X187761571Y-123769523D01*
X187809190Y-123817142D01*
X187904428Y-123864761D01*
X188094904Y-123864761D01*
X188190142Y-123817142D01*
X188237761Y-123769523D01*
X188285380Y-123674285D01*
X188285380Y-123483809D01*
X188237761Y-123388571D01*
X188190142Y-123340952D01*
X188094904Y-123293333D01*
X187904428Y-123293333D01*
X187809190Y-123340952D01*
X187761571Y-123388571D01*
X187713952Y-123483809D01*
X181395761Y-105480380D02*
X180824333Y-105480380D01*
X181110047Y-105480380D02*
X181110047Y-104480380D01*
X181014809Y-104623238D01*
X180919571Y-104718476D01*
X180824333Y-104766095D01*
X182014809Y-104480380D02*
X182110047Y-104480380D01*
X182205285Y-104528000D01*
X182252904Y-104575619D01*
X182300523Y-104670857D01*
X182348142Y-104861333D01*
X182348142Y-105099428D01*
X182300523Y-105289904D01*
X182252904Y-105385142D01*
X182205285Y-105432761D01*
X182110047Y-105480380D01*
X182014809Y-105480380D01*
X181919571Y-105432761D01*
X181871952Y-105385142D01*
X181824333Y-105289904D01*
X181776714Y-105099428D01*
X181776714Y-104861333D01*
X181824333Y-104670857D01*
X181871952Y-104575619D01*
X181919571Y-104528000D01*
X182014809Y-104480380D01*
X182776714Y-105480380D02*
X182776714Y-104480380D01*
X182871952Y-105099428D02*
X183157666Y-105480380D01*
X183157666Y-104813714D02*
X182776714Y-105194666D01*
D11*
X181907666Y-103604190D02*
X181741000Y-103366095D01*
X181621952Y-103604190D02*
X181621952Y-103104190D01*
X181812428Y-103104190D01*
X181860047Y-103128000D01*
X181883857Y-103151809D01*
X181907666Y-103199428D01*
X181907666Y-103270857D01*
X181883857Y-103318476D01*
X181860047Y-103342285D01*
X181812428Y-103366095D01*
X181621952Y-103366095D01*
X182074333Y-103104190D02*
X182383857Y-103104190D01*
X182217190Y-103294666D01*
X182288619Y-103294666D01*
X182336238Y-103318476D01*
X182360047Y-103342285D01*
X182383857Y-103389904D01*
X182383857Y-103508952D01*
X182360047Y-103556571D01*
X182336238Y-103580380D01*
X182288619Y-103604190D01*
X182145761Y-103604190D01*
X182098142Y-103580380D01*
X182074333Y-103556571D01*
D10*
X224405380Y-78771476D02*
X223405380Y-78771476D01*
X223405380Y-78533380D01*
X223453000Y-78390523D01*
X223548238Y-78295285D01*
X223643476Y-78247666D01*
X223833952Y-78200047D01*
X223976809Y-78200047D01*
X224167285Y-78247666D01*
X224262523Y-78295285D01*
X224357761Y-78390523D01*
X224405380Y-78533380D01*
X224405380Y-78771476D01*
X224405380Y-77771476D02*
X223738714Y-77771476D01*
X223405380Y-77771476D02*
X223453000Y-77819095D01*
X223500619Y-77771476D01*
X223453000Y-77723857D01*
X223405380Y-77771476D01*
X223500619Y-77771476D01*
X223738714Y-76866714D02*
X224548238Y-76866714D01*
X224643476Y-76914333D01*
X224691095Y-76961952D01*
X224738714Y-77057190D01*
X224738714Y-77200047D01*
X224691095Y-77295285D01*
X224357761Y-76866714D02*
X224405380Y-76961952D01*
X224405380Y-77152428D01*
X224357761Y-77247666D01*
X224310142Y-77295285D01*
X224214904Y-77342904D01*
X223929190Y-77342904D01*
X223833952Y-77295285D01*
X223786333Y-77247666D01*
X223738714Y-77152428D01*
X223738714Y-76961952D01*
X223786333Y-76866714D01*
X224405380Y-76390523D02*
X223738714Y-76390523D01*
X223405380Y-76390523D02*
X223453000Y-76438142D01*
X223500619Y-76390523D01*
X223453000Y-76342904D01*
X223405380Y-76390523D01*
X223500619Y-76390523D01*
X223738714Y-76057190D02*
X223738714Y-75676238D01*
X223405380Y-75914333D02*
X224262523Y-75914333D01*
X224357761Y-75866714D01*
X224405380Y-75771476D01*
X224405380Y-75676238D01*
X224405380Y-74914333D02*
X223881571Y-74914333D01*
X223786333Y-74961952D01*
X223738714Y-75057190D01*
X223738714Y-75247666D01*
X223786333Y-75342904D01*
X224357761Y-74914333D02*
X224405380Y-75009571D01*
X224405380Y-75247666D01*
X224357761Y-75342904D01*
X224262523Y-75390523D01*
X224167285Y-75390523D01*
X224072047Y-75342904D01*
X224024428Y-75247666D01*
X224024428Y-75009571D01*
X223976809Y-74914333D01*
X224405380Y-74295285D02*
X224357761Y-74390523D01*
X224262523Y-74438142D01*
X223405380Y-74438142D01*
X181705666Y-61472380D02*
X182277095Y-61472380D01*
X181991380Y-62472380D02*
X181991380Y-61472380D01*
X182991380Y-62424761D02*
X182896142Y-62472380D01*
X182705666Y-62472380D01*
X182610428Y-62424761D01*
X182562809Y-62329523D01*
X182562809Y-61948571D01*
X182610428Y-61853333D01*
X182705666Y-61805714D01*
X182896142Y-61805714D01*
X182991380Y-61853333D01*
X183039000Y-61948571D01*
X183039000Y-62043809D01*
X182562809Y-62139047D01*
X183419952Y-62424761D02*
X183515190Y-62472380D01*
X183705666Y-62472380D01*
X183800904Y-62424761D01*
X183848523Y-62329523D01*
X183848523Y-62281904D01*
X183800904Y-62186666D01*
X183705666Y-62139047D01*
X183562809Y-62139047D01*
X183467571Y-62091428D01*
X183419952Y-61996190D01*
X183419952Y-61948571D01*
X183467571Y-61853333D01*
X183562809Y-61805714D01*
X183705666Y-61805714D01*
X183800904Y-61853333D01*
X184134238Y-61805714D02*
X184515190Y-61805714D01*
X184277095Y-61472380D02*
X184277095Y-62329523D01*
X184324714Y-62424761D01*
X184419952Y-62472380D01*
X184515190Y-62472380D01*
X184848523Y-62472380D02*
X184848523Y-61472380D01*
X185229476Y-61472380D01*
X185324714Y-61520000D01*
X185372333Y-61567619D01*
X185419952Y-61662857D01*
X185419952Y-61805714D01*
X185372333Y-61900952D01*
X185324714Y-61948571D01*
X185229476Y-61996190D01*
X184848523Y-61996190D01*
X185991380Y-62472380D02*
X185896142Y-62424761D01*
X185848523Y-62377142D01*
X185800904Y-62281904D01*
X185800904Y-61996190D01*
X185848523Y-61900952D01*
X185896142Y-61853333D01*
X185991380Y-61805714D01*
X186134238Y-61805714D01*
X186229476Y-61853333D01*
X186277095Y-61900952D01*
X186324714Y-61996190D01*
X186324714Y-62281904D01*
X186277095Y-62377142D01*
X186229476Y-62424761D01*
X186134238Y-62472380D01*
X185991380Y-62472380D01*
X186753285Y-62472380D02*
X186753285Y-61805714D01*
X186753285Y-61472380D02*
X186705666Y-61520000D01*
X186753285Y-61567619D01*
X186800904Y-61520000D01*
X186753285Y-61472380D01*
X186753285Y-61567619D01*
X187229476Y-61805714D02*
X187229476Y-62472380D01*
X187229476Y-61900952D02*
X187277095Y-61853333D01*
X187372333Y-61805714D01*
X187515190Y-61805714D01*
X187610428Y-61853333D01*
X187658047Y-61948571D01*
X187658047Y-62472380D01*
X187991380Y-61805714D02*
X188372333Y-61805714D01*
X188134238Y-61472380D02*
X188134238Y-62329523D01*
X188181857Y-62424761D01*
X188277095Y-62472380D01*
X188372333Y-62472380D01*
X184491380Y-61428095D02*
X184491380Y-60856666D01*
X185491380Y-61142380D02*
X184491380Y-61142380D01*
X185491380Y-60523333D02*
X184491380Y-60523333D01*
X184491380Y-60142380D01*
X184539000Y-60047142D01*
X184586619Y-59999523D01*
X184681857Y-59951904D01*
X184824714Y-59951904D01*
X184919952Y-59999523D01*
X184967571Y-60047142D01*
X185015190Y-60142380D01*
X185015190Y-60523333D01*
X185491380Y-58999523D02*
X185491380Y-59570952D01*
X185491380Y-59285238D02*
X184491380Y-59285238D01*
X184634238Y-59380476D01*
X184729476Y-59475714D01*
X184777095Y-59570952D01*
X184491380Y-58666190D02*
X184491380Y-58047142D01*
X184872333Y-58380476D01*
X184872333Y-58237619D01*
X184919952Y-58142380D01*
X184967571Y-58094761D01*
X185062809Y-58047142D01*
X185300904Y-58047142D01*
X185396142Y-58094761D01*
X185443761Y-58142380D01*
X185491380Y-58237619D01*
X185491380Y-58523333D01*
X185443761Y-58618571D01*
X185396142Y-58666190D01*
X183483666Y-105160380D02*
X184055095Y-105160380D01*
X183769380Y-106160380D02*
X183769380Y-105160380D01*
X184769380Y-106112761D02*
X184674142Y-106160380D01*
X184483666Y-106160380D01*
X184388428Y-106112761D01*
X184340809Y-106017523D01*
X184340809Y-105636571D01*
X184388428Y-105541333D01*
X184483666Y-105493714D01*
X184674142Y-105493714D01*
X184769380Y-105541333D01*
X184817000Y-105636571D01*
X184817000Y-105731809D01*
X184340809Y-105827047D01*
X185197952Y-106112761D02*
X185293190Y-106160380D01*
X185483666Y-106160380D01*
X185578904Y-106112761D01*
X185626523Y-106017523D01*
X185626523Y-105969904D01*
X185578904Y-105874666D01*
X185483666Y-105827047D01*
X185340809Y-105827047D01*
X185245571Y-105779428D01*
X185197952Y-105684190D01*
X185197952Y-105636571D01*
X185245571Y-105541333D01*
X185340809Y-105493714D01*
X185483666Y-105493714D01*
X185578904Y-105541333D01*
X185912238Y-105493714D02*
X186293190Y-105493714D01*
X186055095Y-105160380D02*
X186055095Y-106017523D01*
X186102714Y-106112761D01*
X186197952Y-106160380D01*
X186293190Y-106160380D01*
X186626523Y-106160380D02*
X186626523Y-105160380D01*
X187007476Y-105160380D01*
X187102714Y-105208000D01*
X187150333Y-105255619D01*
X187197952Y-105350857D01*
X187197952Y-105493714D01*
X187150333Y-105588952D01*
X187102714Y-105636571D01*
X187007476Y-105684190D01*
X186626523Y-105684190D01*
X187769380Y-106160380D02*
X187674142Y-106112761D01*
X187626523Y-106065142D01*
X187578904Y-105969904D01*
X187578904Y-105684190D01*
X187626523Y-105588952D01*
X187674142Y-105541333D01*
X187769380Y-105493714D01*
X187912238Y-105493714D01*
X188007476Y-105541333D01*
X188055095Y-105588952D01*
X188102714Y-105684190D01*
X188102714Y-105969904D01*
X188055095Y-106065142D01*
X188007476Y-106112761D01*
X187912238Y-106160380D01*
X187769380Y-106160380D01*
X188531285Y-106160380D02*
X188531285Y-105493714D01*
X188531285Y-105160380D02*
X188483666Y-105208000D01*
X188531285Y-105255619D01*
X188578904Y-105208000D01*
X188531285Y-105160380D01*
X188531285Y-105255619D01*
X189007476Y-105493714D02*
X189007476Y-106160380D01*
X189007476Y-105588952D02*
X189055095Y-105541333D01*
X189150333Y-105493714D01*
X189293190Y-105493714D01*
X189388428Y-105541333D01*
X189436047Y-105636571D01*
X189436047Y-106160380D01*
X189769380Y-105493714D02*
X190150333Y-105493714D01*
X189912238Y-105160380D02*
X189912238Y-106017523D01*
X189959857Y-106112761D01*
X190055095Y-106160380D01*
X190150333Y-106160380D01*
X186269380Y-104639904D02*
X186269380Y-104068476D01*
X187269380Y-104354190D02*
X186269380Y-104354190D01*
X187269380Y-103735142D02*
X186269380Y-103735142D01*
X186269380Y-103354190D01*
X186317000Y-103258952D01*
X186364619Y-103211333D01*
X186459857Y-103163714D01*
X186602714Y-103163714D01*
X186697952Y-103211333D01*
X186745571Y-103258952D01*
X186793190Y-103354190D01*
X186793190Y-103735142D01*
X187269380Y-102211333D02*
X187269380Y-102782761D01*
X187269380Y-102497047D02*
X186269380Y-102497047D01*
X186412238Y-102592285D01*
X186507476Y-102687523D01*
X186555095Y-102782761D01*
X137072761Y-91921380D02*
X136501333Y-91921380D01*
X136787047Y-91921380D02*
X136787047Y-90921380D01*
X136691809Y-91064238D01*
X136596571Y-91159476D01*
X136501333Y-91207095D01*
X137929904Y-91254714D02*
X137929904Y-91921380D01*
X137501333Y-91254714D02*
X137501333Y-91778523D01*
X137548952Y-91873761D01*
X137644190Y-91921380D01*
X137787047Y-91921380D01*
X137882285Y-91873761D01*
X137929904Y-91826142D01*
X138739428Y-91397571D02*
X138406095Y-91397571D01*
X138406095Y-91921380D02*
X138406095Y-90921380D01*
X138882285Y-90921380D01*
D11*
X137584666Y-89967571D02*
X137560857Y-89991380D01*
X137489428Y-90015190D01*
X137441809Y-90015190D01*
X137370380Y-89991380D01*
X137322761Y-89943761D01*
X137298952Y-89896142D01*
X137275142Y-89800904D01*
X137275142Y-89729476D01*
X137298952Y-89634238D01*
X137322761Y-89586619D01*
X137370380Y-89539000D01*
X137441809Y-89515190D01*
X137489428Y-89515190D01*
X137560857Y-89539000D01*
X137584666Y-89562809D01*
X137775142Y-89562809D02*
X137798952Y-89539000D01*
X137846571Y-89515190D01*
X137965619Y-89515190D01*
X138013238Y-89539000D01*
X138037047Y-89562809D01*
X138060857Y-89610428D01*
X138060857Y-89658047D01*
X138037047Y-89729476D01*
X137751333Y-90015190D01*
X138060857Y-90015190D01*
D10*
X196945666Y-61472380D02*
X197517095Y-61472380D01*
X197231380Y-62472380D02*
X197231380Y-61472380D01*
X198231380Y-62424761D02*
X198136142Y-62472380D01*
X197945666Y-62472380D01*
X197850428Y-62424761D01*
X197802809Y-62329523D01*
X197802809Y-61948571D01*
X197850428Y-61853333D01*
X197945666Y-61805714D01*
X198136142Y-61805714D01*
X198231380Y-61853333D01*
X198279000Y-61948571D01*
X198279000Y-62043809D01*
X197802809Y-62139047D01*
X198659952Y-62424761D02*
X198755190Y-62472380D01*
X198945666Y-62472380D01*
X199040904Y-62424761D01*
X199088523Y-62329523D01*
X199088523Y-62281904D01*
X199040904Y-62186666D01*
X198945666Y-62139047D01*
X198802809Y-62139047D01*
X198707571Y-62091428D01*
X198659952Y-61996190D01*
X198659952Y-61948571D01*
X198707571Y-61853333D01*
X198802809Y-61805714D01*
X198945666Y-61805714D01*
X199040904Y-61853333D01*
X199374238Y-61805714D02*
X199755190Y-61805714D01*
X199517095Y-61472380D02*
X199517095Y-62329523D01*
X199564714Y-62424761D01*
X199659952Y-62472380D01*
X199755190Y-62472380D01*
X200088523Y-62472380D02*
X200088523Y-61472380D01*
X200469476Y-61472380D01*
X200564714Y-61520000D01*
X200612333Y-61567619D01*
X200659952Y-61662857D01*
X200659952Y-61805714D01*
X200612333Y-61900952D01*
X200564714Y-61948571D01*
X200469476Y-61996190D01*
X200088523Y-61996190D01*
X201231380Y-62472380D02*
X201136142Y-62424761D01*
X201088523Y-62377142D01*
X201040904Y-62281904D01*
X201040904Y-61996190D01*
X201088523Y-61900952D01*
X201136142Y-61853333D01*
X201231380Y-61805714D01*
X201374238Y-61805714D01*
X201469476Y-61853333D01*
X201517095Y-61900952D01*
X201564714Y-61996190D01*
X201564714Y-62281904D01*
X201517095Y-62377142D01*
X201469476Y-62424761D01*
X201374238Y-62472380D01*
X201231380Y-62472380D01*
X201993285Y-62472380D02*
X201993285Y-61805714D01*
X201993285Y-61472380D02*
X201945666Y-61520000D01*
X201993285Y-61567619D01*
X202040904Y-61520000D01*
X201993285Y-61472380D01*
X201993285Y-61567619D01*
X202469476Y-61805714D02*
X202469476Y-62472380D01*
X202469476Y-61900952D02*
X202517095Y-61853333D01*
X202612333Y-61805714D01*
X202755190Y-61805714D01*
X202850428Y-61853333D01*
X202898047Y-61948571D01*
X202898047Y-62472380D01*
X203231380Y-61805714D02*
X203612333Y-61805714D01*
X203374238Y-61472380D02*
X203374238Y-62329523D01*
X203421857Y-62424761D01*
X203517095Y-62472380D01*
X203612333Y-62472380D01*
X199731380Y-60951904D02*
X199731380Y-60380476D01*
X200731380Y-60666190D02*
X199731380Y-60666190D01*
X200731380Y-60047142D02*
X199731380Y-60047142D01*
X199731380Y-59666190D01*
X199779000Y-59570952D01*
X199826619Y-59523333D01*
X199921857Y-59475714D01*
X200064714Y-59475714D01*
X200159952Y-59523333D01*
X200207571Y-59570952D01*
X200255190Y-59666190D01*
X200255190Y-60047142D01*
X199826619Y-59094761D02*
X199779000Y-59047142D01*
X199731380Y-58951904D01*
X199731380Y-58713809D01*
X199779000Y-58618571D01*
X199826619Y-58570952D01*
X199921857Y-58523333D01*
X200017095Y-58523333D01*
X200159952Y-58570952D01*
X200731380Y-59142380D01*
X200731380Y-58523333D01*
X179419666Y-126242380D02*
X179991095Y-126242380D01*
X179705380Y-127242380D02*
X179705380Y-126242380D01*
X180705380Y-127194761D02*
X180610142Y-127242380D01*
X180419666Y-127242380D01*
X180324428Y-127194761D01*
X180276809Y-127099523D01*
X180276809Y-126718571D01*
X180324428Y-126623333D01*
X180419666Y-126575714D01*
X180610142Y-126575714D01*
X180705380Y-126623333D01*
X180753000Y-126718571D01*
X180753000Y-126813809D01*
X180276809Y-126909047D01*
X181133952Y-127194761D02*
X181229190Y-127242380D01*
X181419666Y-127242380D01*
X181514904Y-127194761D01*
X181562523Y-127099523D01*
X181562523Y-127051904D01*
X181514904Y-126956666D01*
X181419666Y-126909047D01*
X181276809Y-126909047D01*
X181181571Y-126861428D01*
X181133952Y-126766190D01*
X181133952Y-126718571D01*
X181181571Y-126623333D01*
X181276809Y-126575714D01*
X181419666Y-126575714D01*
X181514904Y-126623333D01*
X181848238Y-126575714D02*
X182229190Y-126575714D01*
X181991095Y-126242380D02*
X181991095Y-127099523D01*
X182038714Y-127194761D01*
X182133952Y-127242380D01*
X182229190Y-127242380D01*
X182562523Y-127242380D02*
X182562523Y-126242380D01*
X182943476Y-126242380D01*
X183038714Y-126290000D01*
X183086333Y-126337619D01*
X183133952Y-126432857D01*
X183133952Y-126575714D01*
X183086333Y-126670952D01*
X183038714Y-126718571D01*
X182943476Y-126766190D01*
X182562523Y-126766190D01*
X183705380Y-127242380D02*
X183610142Y-127194761D01*
X183562523Y-127147142D01*
X183514904Y-127051904D01*
X183514904Y-126766190D01*
X183562523Y-126670952D01*
X183610142Y-126623333D01*
X183705380Y-126575714D01*
X183848238Y-126575714D01*
X183943476Y-126623333D01*
X183991095Y-126670952D01*
X184038714Y-126766190D01*
X184038714Y-127051904D01*
X183991095Y-127147142D01*
X183943476Y-127194761D01*
X183848238Y-127242380D01*
X183705380Y-127242380D01*
X184467285Y-127242380D02*
X184467285Y-126575714D01*
X184467285Y-126242380D02*
X184419666Y-126290000D01*
X184467285Y-126337619D01*
X184514904Y-126290000D01*
X184467285Y-126242380D01*
X184467285Y-126337619D01*
X184943476Y-126575714D02*
X184943476Y-127242380D01*
X184943476Y-126670952D02*
X184991095Y-126623333D01*
X185086333Y-126575714D01*
X185229190Y-126575714D01*
X185324428Y-126623333D01*
X185372047Y-126718571D01*
X185372047Y-127242380D01*
X185705380Y-126575714D02*
X186086333Y-126575714D01*
X185848238Y-126242380D02*
X185848238Y-127099523D01*
X185895857Y-127194761D01*
X185991095Y-127242380D01*
X186086333Y-127242380D01*
X182205380Y-125721904D02*
X182205380Y-125150476D01*
X183205380Y-125436190D02*
X182205380Y-125436190D01*
X183205380Y-124817142D02*
X182205380Y-124817142D01*
X182205380Y-124436190D01*
X182253000Y-124340952D01*
X182300619Y-124293333D01*
X182395857Y-124245714D01*
X182538714Y-124245714D01*
X182633952Y-124293333D01*
X182681571Y-124340952D01*
X182729190Y-124436190D01*
X182729190Y-124817142D01*
X182205380Y-123912380D02*
X182205380Y-123245714D01*
X183205380Y-123674285D01*
X189579666Y-126242380D02*
X190151095Y-126242380D01*
X189865380Y-127242380D02*
X189865380Y-126242380D01*
X190865380Y-127194761D02*
X190770142Y-127242380D01*
X190579666Y-127242380D01*
X190484428Y-127194761D01*
X190436809Y-127099523D01*
X190436809Y-126718571D01*
X190484428Y-126623333D01*
X190579666Y-126575714D01*
X190770142Y-126575714D01*
X190865380Y-126623333D01*
X190913000Y-126718571D01*
X190913000Y-126813809D01*
X190436809Y-126909047D01*
X191293952Y-127194761D02*
X191389190Y-127242380D01*
X191579666Y-127242380D01*
X191674904Y-127194761D01*
X191722523Y-127099523D01*
X191722523Y-127051904D01*
X191674904Y-126956666D01*
X191579666Y-126909047D01*
X191436809Y-126909047D01*
X191341571Y-126861428D01*
X191293952Y-126766190D01*
X191293952Y-126718571D01*
X191341571Y-126623333D01*
X191436809Y-126575714D01*
X191579666Y-126575714D01*
X191674904Y-126623333D01*
X192008238Y-126575714D02*
X192389190Y-126575714D01*
X192151095Y-126242380D02*
X192151095Y-127099523D01*
X192198714Y-127194761D01*
X192293952Y-127242380D01*
X192389190Y-127242380D01*
X192722523Y-127242380D02*
X192722523Y-126242380D01*
X193103476Y-126242380D01*
X193198714Y-126290000D01*
X193246333Y-126337619D01*
X193293952Y-126432857D01*
X193293952Y-126575714D01*
X193246333Y-126670952D01*
X193198714Y-126718571D01*
X193103476Y-126766190D01*
X192722523Y-126766190D01*
X193865380Y-127242380D02*
X193770142Y-127194761D01*
X193722523Y-127147142D01*
X193674904Y-127051904D01*
X193674904Y-126766190D01*
X193722523Y-126670952D01*
X193770142Y-126623333D01*
X193865380Y-126575714D01*
X194008238Y-126575714D01*
X194103476Y-126623333D01*
X194151095Y-126670952D01*
X194198714Y-126766190D01*
X194198714Y-127051904D01*
X194151095Y-127147142D01*
X194103476Y-127194761D01*
X194008238Y-127242380D01*
X193865380Y-127242380D01*
X194627285Y-127242380D02*
X194627285Y-126575714D01*
X194627285Y-126242380D02*
X194579666Y-126290000D01*
X194627285Y-126337619D01*
X194674904Y-126290000D01*
X194627285Y-126242380D01*
X194627285Y-126337619D01*
X195103476Y-126575714D02*
X195103476Y-127242380D01*
X195103476Y-126670952D02*
X195151095Y-126623333D01*
X195246333Y-126575714D01*
X195389190Y-126575714D01*
X195484428Y-126623333D01*
X195532047Y-126718571D01*
X195532047Y-127242380D01*
X195865380Y-126575714D02*
X196246333Y-126575714D01*
X196008238Y-126242380D02*
X196008238Y-127099523D01*
X196055857Y-127194761D01*
X196151095Y-127242380D01*
X196246333Y-127242380D01*
X192365380Y-125721904D02*
X192365380Y-125150476D01*
X193365380Y-125436190D02*
X192365380Y-125436190D01*
X193365380Y-124817142D02*
X192365380Y-124817142D01*
X192365380Y-124436190D01*
X192413000Y-124340952D01*
X192460619Y-124293333D01*
X192555857Y-124245714D01*
X192698714Y-124245714D01*
X192793952Y-124293333D01*
X192841571Y-124340952D01*
X192889190Y-124436190D01*
X192889190Y-124817142D01*
X193365380Y-123769523D02*
X193365380Y-123579047D01*
X193317761Y-123483809D01*
X193270142Y-123436190D01*
X193127285Y-123340952D01*
X192936809Y-123293333D01*
X192555857Y-123293333D01*
X192460619Y-123340952D01*
X192413000Y-123388571D01*
X192365380Y-123483809D01*
X192365380Y-123674285D01*
X192413000Y-123769523D01*
X192460619Y-123817142D01*
X192555857Y-123864761D01*
X192793952Y-123864761D01*
X192889190Y-123817142D01*
X192936809Y-123769523D01*
X192984428Y-123674285D01*
X192984428Y-123483809D01*
X192936809Y-123388571D01*
X192889190Y-123340952D01*
X192793952Y-123293333D01*
X137072761Y-86714380D02*
X136501333Y-86714380D01*
X136787047Y-86714380D02*
X136787047Y-85714380D01*
X136691809Y-85857238D01*
X136596571Y-85952476D01*
X136501333Y-86000095D01*
X137929904Y-86047714D02*
X137929904Y-86714380D01*
X137501333Y-86047714D02*
X137501333Y-86571523D01*
X137548952Y-86666761D01*
X137644190Y-86714380D01*
X137787047Y-86714380D01*
X137882285Y-86666761D01*
X137929904Y-86619142D01*
X138739428Y-86190571D02*
X138406095Y-86190571D01*
X138406095Y-86714380D02*
X138406095Y-85714380D01*
X138882285Y-85714380D01*
D11*
X137584666Y-84760571D02*
X137560857Y-84784380D01*
X137489428Y-84808190D01*
X137441809Y-84808190D01*
X137370380Y-84784380D01*
X137322761Y-84736761D01*
X137298952Y-84689142D01*
X137275142Y-84593904D01*
X137275142Y-84522476D01*
X137298952Y-84427238D01*
X137322761Y-84379619D01*
X137370380Y-84332000D01*
X137441809Y-84308190D01*
X137489428Y-84308190D01*
X137560857Y-84332000D01*
X137584666Y-84355809D01*
X138060857Y-84808190D02*
X137775142Y-84808190D01*
X137918000Y-84808190D02*
X137918000Y-84308190D01*
X137870380Y-84379619D01*
X137822761Y-84427238D01*
X137775142Y-84451047D01*
D10*
X186785666Y-61472380D02*
X187357095Y-61472380D01*
X187071380Y-62472380D02*
X187071380Y-61472380D01*
X188071380Y-62424761D02*
X187976142Y-62472380D01*
X187785666Y-62472380D01*
X187690428Y-62424761D01*
X187642809Y-62329523D01*
X187642809Y-61948571D01*
X187690428Y-61853333D01*
X187785666Y-61805714D01*
X187976142Y-61805714D01*
X188071380Y-61853333D01*
X188119000Y-61948571D01*
X188119000Y-62043809D01*
X187642809Y-62139047D01*
X188499952Y-62424761D02*
X188595190Y-62472380D01*
X188785666Y-62472380D01*
X188880904Y-62424761D01*
X188928523Y-62329523D01*
X188928523Y-62281904D01*
X188880904Y-62186666D01*
X188785666Y-62139047D01*
X188642809Y-62139047D01*
X188547571Y-62091428D01*
X188499952Y-61996190D01*
X188499952Y-61948571D01*
X188547571Y-61853333D01*
X188642809Y-61805714D01*
X188785666Y-61805714D01*
X188880904Y-61853333D01*
X189214238Y-61805714D02*
X189595190Y-61805714D01*
X189357095Y-61472380D02*
X189357095Y-62329523D01*
X189404714Y-62424761D01*
X189499952Y-62472380D01*
X189595190Y-62472380D01*
X189928523Y-62472380D02*
X189928523Y-61472380D01*
X190309476Y-61472380D01*
X190404714Y-61520000D01*
X190452333Y-61567619D01*
X190499952Y-61662857D01*
X190499952Y-61805714D01*
X190452333Y-61900952D01*
X190404714Y-61948571D01*
X190309476Y-61996190D01*
X189928523Y-61996190D01*
X191071380Y-62472380D02*
X190976142Y-62424761D01*
X190928523Y-62377142D01*
X190880904Y-62281904D01*
X190880904Y-61996190D01*
X190928523Y-61900952D01*
X190976142Y-61853333D01*
X191071380Y-61805714D01*
X191214238Y-61805714D01*
X191309476Y-61853333D01*
X191357095Y-61900952D01*
X191404714Y-61996190D01*
X191404714Y-62281904D01*
X191357095Y-62377142D01*
X191309476Y-62424761D01*
X191214238Y-62472380D01*
X191071380Y-62472380D01*
X191833285Y-62472380D02*
X191833285Y-61805714D01*
X191833285Y-61472380D02*
X191785666Y-61520000D01*
X191833285Y-61567619D01*
X191880904Y-61520000D01*
X191833285Y-61472380D01*
X191833285Y-61567619D01*
X192309476Y-61805714D02*
X192309476Y-62472380D01*
X192309476Y-61900952D02*
X192357095Y-61853333D01*
X192452333Y-61805714D01*
X192595190Y-61805714D01*
X192690428Y-61853333D01*
X192738047Y-61948571D01*
X192738047Y-62472380D01*
X193071380Y-61805714D02*
X193452333Y-61805714D01*
X193214238Y-61472380D02*
X193214238Y-62329523D01*
X193261857Y-62424761D01*
X193357095Y-62472380D01*
X193452333Y-62472380D01*
X189571380Y-61428095D02*
X189571380Y-60856666D01*
X190571380Y-61142380D02*
X189571380Y-61142380D01*
X190571380Y-60523333D02*
X189571380Y-60523333D01*
X189571380Y-60142380D01*
X189619000Y-60047142D01*
X189666619Y-59999523D01*
X189761857Y-59951904D01*
X189904714Y-59951904D01*
X189999952Y-59999523D01*
X190047571Y-60047142D01*
X190095190Y-60142380D01*
X190095190Y-60523333D01*
X190571380Y-58999523D02*
X190571380Y-59570952D01*
X190571380Y-59285238D02*
X189571380Y-59285238D01*
X189714238Y-59380476D01*
X189809476Y-59475714D01*
X189857095Y-59570952D01*
X189904714Y-58142380D02*
X190571380Y-58142380D01*
X189523761Y-58380476D02*
X190238047Y-58618571D01*
X190238047Y-57999523D01*
X194659666Y-126242380D02*
X195231095Y-126242380D01*
X194945380Y-127242380D02*
X194945380Y-126242380D01*
X195945380Y-127194761D02*
X195850142Y-127242380D01*
X195659666Y-127242380D01*
X195564428Y-127194761D01*
X195516809Y-127099523D01*
X195516809Y-126718571D01*
X195564428Y-126623333D01*
X195659666Y-126575714D01*
X195850142Y-126575714D01*
X195945380Y-126623333D01*
X195993000Y-126718571D01*
X195993000Y-126813809D01*
X195516809Y-126909047D01*
X196373952Y-127194761D02*
X196469190Y-127242380D01*
X196659666Y-127242380D01*
X196754904Y-127194761D01*
X196802523Y-127099523D01*
X196802523Y-127051904D01*
X196754904Y-126956666D01*
X196659666Y-126909047D01*
X196516809Y-126909047D01*
X196421571Y-126861428D01*
X196373952Y-126766190D01*
X196373952Y-126718571D01*
X196421571Y-126623333D01*
X196516809Y-126575714D01*
X196659666Y-126575714D01*
X196754904Y-126623333D01*
X197088238Y-126575714D02*
X197469190Y-126575714D01*
X197231095Y-126242380D02*
X197231095Y-127099523D01*
X197278714Y-127194761D01*
X197373952Y-127242380D01*
X197469190Y-127242380D01*
X197802523Y-127242380D02*
X197802523Y-126242380D01*
X198183476Y-126242380D01*
X198278714Y-126290000D01*
X198326333Y-126337619D01*
X198373952Y-126432857D01*
X198373952Y-126575714D01*
X198326333Y-126670952D01*
X198278714Y-126718571D01*
X198183476Y-126766190D01*
X197802523Y-126766190D01*
X198945380Y-127242380D02*
X198850142Y-127194761D01*
X198802523Y-127147142D01*
X198754904Y-127051904D01*
X198754904Y-126766190D01*
X198802523Y-126670952D01*
X198850142Y-126623333D01*
X198945380Y-126575714D01*
X199088238Y-126575714D01*
X199183476Y-126623333D01*
X199231095Y-126670952D01*
X199278714Y-126766190D01*
X199278714Y-127051904D01*
X199231095Y-127147142D01*
X199183476Y-127194761D01*
X199088238Y-127242380D01*
X198945380Y-127242380D01*
X199707285Y-127242380D02*
X199707285Y-126575714D01*
X199707285Y-126242380D02*
X199659666Y-126290000D01*
X199707285Y-126337619D01*
X199754904Y-126290000D01*
X199707285Y-126242380D01*
X199707285Y-126337619D01*
X200183476Y-126575714D02*
X200183476Y-127242380D01*
X200183476Y-126670952D02*
X200231095Y-126623333D01*
X200326333Y-126575714D01*
X200469190Y-126575714D01*
X200564428Y-126623333D01*
X200612047Y-126718571D01*
X200612047Y-127242380D01*
X200945380Y-126575714D02*
X201326333Y-126575714D01*
X201088238Y-126242380D02*
X201088238Y-127099523D01*
X201135857Y-127194761D01*
X201231095Y-127242380D01*
X201326333Y-127242380D01*
X197445380Y-126198095D02*
X197445380Y-125626666D01*
X198445380Y-125912380D02*
X197445380Y-125912380D01*
X198445380Y-125293333D02*
X197445380Y-125293333D01*
X197445380Y-124912380D01*
X197493000Y-124817142D01*
X197540619Y-124769523D01*
X197635857Y-124721904D01*
X197778714Y-124721904D01*
X197873952Y-124769523D01*
X197921571Y-124817142D01*
X197969190Y-124912380D01*
X197969190Y-125293333D01*
X198445380Y-123769523D02*
X198445380Y-124340952D01*
X198445380Y-124055238D02*
X197445380Y-124055238D01*
X197588238Y-124150476D01*
X197683476Y-124245714D01*
X197731095Y-124340952D01*
X197445380Y-123150476D02*
X197445380Y-123055238D01*
X197493000Y-122960000D01*
X197540619Y-122912380D01*
X197635857Y-122864761D01*
X197826333Y-122817142D01*
X198064428Y-122817142D01*
X198254904Y-122864761D01*
X198350142Y-122912380D01*
X198397761Y-122960000D01*
X198445380Y-123055238D01*
X198445380Y-123150476D01*
X198397761Y-123245714D01*
X198350142Y-123293333D01*
X198254904Y-123340952D01*
X198064428Y-123388571D01*
X197826333Y-123388571D01*
X197635857Y-123340952D01*
X197540619Y-123293333D01*
X197493000Y-123245714D01*
X197445380Y-123150476D01*
X176625666Y-61472380D02*
X177197095Y-61472380D01*
X176911380Y-62472380D02*
X176911380Y-61472380D01*
X177911380Y-62424761D02*
X177816142Y-62472380D01*
X177625666Y-62472380D01*
X177530428Y-62424761D01*
X177482809Y-62329523D01*
X177482809Y-61948571D01*
X177530428Y-61853333D01*
X177625666Y-61805714D01*
X177816142Y-61805714D01*
X177911380Y-61853333D01*
X177959000Y-61948571D01*
X177959000Y-62043809D01*
X177482809Y-62139047D01*
X178339952Y-62424761D02*
X178435190Y-62472380D01*
X178625666Y-62472380D01*
X178720904Y-62424761D01*
X178768523Y-62329523D01*
X178768523Y-62281904D01*
X178720904Y-62186666D01*
X178625666Y-62139047D01*
X178482809Y-62139047D01*
X178387571Y-62091428D01*
X178339952Y-61996190D01*
X178339952Y-61948571D01*
X178387571Y-61853333D01*
X178482809Y-61805714D01*
X178625666Y-61805714D01*
X178720904Y-61853333D01*
X179054238Y-61805714D02*
X179435190Y-61805714D01*
X179197095Y-61472380D02*
X179197095Y-62329523D01*
X179244714Y-62424761D01*
X179339952Y-62472380D01*
X179435190Y-62472380D01*
X179768523Y-62472380D02*
X179768523Y-61472380D01*
X180149476Y-61472380D01*
X180244714Y-61520000D01*
X180292333Y-61567619D01*
X180339952Y-61662857D01*
X180339952Y-61805714D01*
X180292333Y-61900952D01*
X180244714Y-61948571D01*
X180149476Y-61996190D01*
X179768523Y-61996190D01*
X180911380Y-62472380D02*
X180816142Y-62424761D01*
X180768523Y-62377142D01*
X180720904Y-62281904D01*
X180720904Y-61996190D01*
X180768523Y-61900952D01*
X180816142Y-61853333D01*
X180911380Y-61805714D01*
X181054238Y-61805714D01*
X181149476Y-61853333D01*
X181197095Y-61900952D01*
X181244714Y-61996190D01*
X181244714Y-62281904D01*
X181197095Y-62377142D01*
X181149476Y-62424761D01*
X181054238Y-62472380D01*
X180911380Y-62472380D01*
X181673285Y-62472380D02*
X181673285Y-61805714D01*
X181673285Y-61472380D02*
X181625666Y-61520000D01*
X181673285Y-61567619D01*
X181720904Y-61520000D01*
X181673285Y-61472380D01*
X181673285Y-61567619D01*
X182149476Y-61805714D02*
X182149476Y-62472380D01*
X182149476Y-61900952D02*
X182197095Y-61853333D01*
X182292333Y-61805714D01*
X182435190Y-61805714D01*
X182530428Y-61853333D01*
X182578047Y-61948571D01*
X182578047Y-62472380D01*
X182911380Y-61805714D02*
X183292333Y-61805714D01*
X183054238Y-61472380D02*
X183054238Y-62329523D01*
X183101857Y-62424761D01*
X183197095Y-62472380D01*
X183292333Y-62472380D01*
X179411380Y-61428095D02*
X179411380Y-60856666D01*
X180411380Y-61142380D02*
X179411380Y-61142380D01*
X180411380Y-60523333D02*
X179411380Y-60523333D01*
X179411380Y-60142380D01*
X179459000Y-60047142D01*
X179506619Y-59999523D01*
X179601857Y-59951904D01*
X179744714Y-59951904D01*
X179839952Y-59999523D01*
X179887571Y-60047142D01*
X179935190Y-60142380D01*
X179935190Y-60523333D01*
X180411380Y-58999523D02*
X180411380Y-59570952D01*
X180411380Y-59285238D02*
X179411380Y-59285238D01*
X179554238Y-59380476D01*
X179649476Y-59475714D01*
X179697095Y-59570952D01*
X179506619Y-58618571D02*
X179459000Y-58570952D01*
X179411380Y-58475714D01*
X179411380Y-58237619D01*
X179459000Y-58142380D01*
X179506619Y-58094761D01*
X179601857Y-58047142D01*
X179697095Y-58047142D01*
X179839952Y-58094761D01*
X180411380Y-58666190D01*
X180411380Y-58047142D01*
X130754571Y-93514380D02*
X130183142Y-93514380D01*
X130468857Y-93514380D02*
X130468857Y-92514380D01*
X130373619Y-92657238D01*
X130278380Y-92752476D01*
X130183142Y-92800095D01*
X131373619Y-92514380D02*
X131468857Y-92514380D01*
X131564095Y-92562000D01*
X131611714Y-92609619D01*
X131659333Y-92704857D01*
X131706952Y-92895333D01*
X131706952Y-93133428D01*
X131659333Y-93323904D01*
X131611714Y-93419142D01*
X131564095Y-93466761D01*
X131468857Y-93514380D01*
X131373619Y-93514380D01*
X131278380Y-93466761D01*
X131230761Y-93419142D01*
X131183142Y-93323904D01*
X131135523Y-93133428D01*
X131135523Y-92895333D01*
X131183142Y-92704857D01*
X131230761Y-92609619D01*
X131278380Y-92562000D01*
X131373619Y-92514380D01*
X132564095Y-92847714D02*
X132564095Y-93514380D01*
X132135523Y-92847714D02*
X132135523Y-93371523D01*
X132183142Y-93466761D01*
X132278380Y-93514380D01*
X132421238Y-93514380D01*
X132516476Y-93466761D01*
X132564095Y-93419142D01*
X133373619Y-92990571D02*
X133040285Y-92990571D01*
X133040285Y-93514380D02*
X133040285Y-92514380D01*
X133516476Y-92514380D01*
D11*
X131742666Y-94920571D02*
X131718857Y-94944380D01*
X131647428Y-94968190D01*
X131599809Y-94968190D01*
X131528380Y-94944380D01*
X131480761Y-94896761D01*
X131456952Y-94849142D01*
X131433142Y-94753904D01*
X131433142Y-94682476D01*
X131456952Y-94587238D01*
X131480761Y-94539619D01*
X131528380Y-94492000D01*
X131599809Y-94468190D01*
X131647428Y-94468190D01*
X131718857Y-94492000D01*
X131742666Y-94515809D01*
X131909333Y-94468190D02*
X132218857Y-94468190D01*
X132052190Y-94658666D01*
X132123619Y-94658666D01*
X132171238Y-94682476D01*
X132195047Y-94706285D01*
X132218857Y-94753904D01*
X132218857Y-94872952D01*
X132195047Y-94920571D01*
X132171238Y-94944380D01*
X132123619Y-94968190D01*
X131980761Y-94968190D01*
X131933142Y-94944380D01*
X131909333Y-94920571D01*
D10*
X179165666Y-62361380D02*
X179737095Y-62361380D01*
X179451380Y-63361380D02*
X179451380Y-62361380D01*
X180451380Y-63313761D02*
X180356142Y-63361380D01*
X180165666Y-63361380D01*
X180070428Y-63313761D01*
X180022809Y-63218523D01*
X180022809Y-62837571D01*
X180070428Y-62742333D01*
X180165666Y-62694714D01*
X180356142Y-62694714D01*
X180451380Y-62742333D01*
X180499000Y-62837571D01*
X180499000Y-62932809D01*
X180022809Y-63028047D01*
X180879952Y-63313761D02*
X180975190Y-63361380D01*
X181165666Y-63361380D01*
X181260904Y-63313761D01*
X181308523Y-63218523D01*
X181308523Y-63170904D01*
X181260904Y-63075666D01*
X181165666Y-63028047D01*
X181022809Y-63028047D01*
X180927571Y-62980428D01*
X180879952Y-62885190D01*
X180879952Y-62837571D01*
X180927571Y-62742333D01*
X181022809Y-62694714D01*
X181165666Y-62694714D01*
X181260904Y-62742333D01*
X181594238Y-62694714D02*
X181975190Y-62694714D01*
X181737095Y-62361380D02*
X181737095Y-63218523D01*
X181784714Y-63313761D01*
X181879952Y-63361380D01*
X181975190Y-63361380D01*
X182308523Y-63361380D02*
X182308523Y-62361380D01*
X182689476Y-62361380D01*
X182784714Y-62409000D01*
X182832333Y-62456619D01*
X182879952Y-62551857D01*
X182879952Y-62694714D01*
X182832333Y-62789952D01*
X182784714Y-62837571D01*
X182689476Y-62885190D01*
X182308523Y-62885190D01*
X183451380Y-63361380D02*
X183356142Y-63313761D01*
X183308523Y-63266142D01*
X183260904Y-63170904D01*
X183260904Y-62885190D01*
X183308523Y-62789952D01*
X183356142Y-62742333D01*
X183451380Y-62694714D01*
X183594238Y-62694714D01*
X183689476Y-62742333D01*
X183737095Y-62789952D01*
X183784714Y-62885190D01*
X183784714Y-63170904D01*
X183737095Y-63266142D01*
X183689476Y-63313761D01*
X183594238Y-63361380D01*
X183451380Y-63361380D01*
X184213285Y-63361380D02*
X184213285Y-62694714D01*
X184213285Y-62361380D02*
X184165666Y-62409000D01*
X184213285Y-62456619D01*
X184260904Y-62409000D01*
X184213285Y-62361380D01*
X184213285Y-62456619D01*
X184689476Y-62694714D02*
X184689476Y-63361380D01*
X184689476Y-62789952D02*
X184737095Y-62742333D01*
X184832333Y-62694714D01*
X184975190Y-62694714D01*
X185070428Y-62742333D01*
X185118047Y-62837571D01*
X185118047Y-63361380D01*
X185451380Y-62694714D02*
X185832333Y-62694714D01*
X185594238Y-62361380D02*
X185594238Y-63218523D01*
X185641857Y-63313761D01*
X185737095Y-63361380D01*
X185832333Y-63361380D01*
X181951380Y-61840904D02*
X181951380Y-61269476D01*
X182951380Y-61555190D02*
X181951380Y-61555190D01*
X182951380Y-60936142D02*
X181951380Y-60936142D01*
X181951380Y-60555190D01*
X181999000Y-60459952D01*
X182046619Y-60412333D01*
X182141857Y-60364714D01*
X182284714Y-60364714D01*
X182379952Y-60412333D01*
X182427571Y-60459952D01*
X182475190Y-60555190D01*
X182475190Y-60936142D01*
X181951380Y-59459952D02*
X181951380Y-59936142D01*
X182427571Y-59983761D01*
X182379952Y-59936142D01*
X182332333Y-59840904D01*
X182332333Y-59602809D01*
X182379952Y-59507571D01*
X182427571Y-59459952D01*
X182522809Y-59412333D01*
X182760904Y-59412333D01*
X182856142Y-59459952D01*
X182903761Y-59507571D01*
X182951380Y-59602809D01*
X182951380Y-59840904D01*
X182903761Y-59936142D01*
X182856142Y-59983761D01*
X138723761Y-78812380D02*
X138152333Y-78812380D01*
X138438047Y-78812380D02*
X138438047Y-77812380D01*
X138342809Y-77955238D01*
X138247571Y-78050476D01*
X138152333Y-78098095D01*
X139342809Y-77812380D02*
X139438047Y-77812380D01*
X139533285Y-77860000D01*
X139580904Y-77907619D01*
X139628523Y-78002857D01*
X139676142Y-78193333D01*
X139676142Y-78431428D01*
X139628523Y-78621904D01*
X139580904Y-78717142D01*
X139533285Y-78764761D01*
X139438047Y-78812380D01*
X139342809Y-78812380D01*
X139247571Y-78764761D01*
X139199952Y-78717142D01*
X139152333Y-78621904D01*
X139104714Y-78431428D01*
X139104714Y-78193333D01*
X139152333Y-78002857D01*
X139199952Y-77907619D01*
X139247571Y-77860000D01*
X139342809Y-77812380D01*
X140104714Y-78812380D02*
X140104714Y-77812380D01*
X140199952Y-78431428D02*
X140485666Y-78812380D01*
X140485666Y-78145714D02*
X140104714Y-78526666D01*
D11*
X139235666Y-80236190D02*
X139069000Y-79998095D01*
X138949952Y-80236190D02*
X138949952Y-79736190D01*
X139140428Y-79736190D01*
X139188047Y-79760000D01*
X139211857Y-79783809D01*
X139235666Y-79831428D01*
X139235666Y-79902857D01*
X139211857Y-79950476D01*
X139188047Y-79974285D01*
X139140428Y-79998095D01*
X138949952Y-79998095D01*
X139711857Y-80236190D02*
X139426142Y-80236190D01*
X139569000Y-80236190D02*
X139569000Y-79736190D01*
X139521380Y-79807619D01*
X139473761Y-79855238D01*
X139426142Y-79879047D01*
D10*
X176145380Y-87701190D02*
X175145380Y-87701190D01*
X175145380Y-87320238D01*
X175193000Y-87225000D01*
X175240619Y-87177380D01*
X175335857Y-87129761D01*
X175478714Y-87129761D01*
X175573952Y-87177380D01*
X175621571Y-87225000D01*
X175669190Y-87320238D01*
X175669190Y-87701190D01*
X176145380Y-86558333D02*
X176097761Y-86653571D01*
X176050142Y-86701190D01*
X175954904Y-86748809D01*
X175669190Y-86748809D01*
X175573952Y-86701190D01*
X175526333Y-86653571D01*
X175478714Y-86558333D01*
X175478714Y-86415476D01*
X175526333Y-86320238D01*
X175573952Y-86272619D01*
X175669190Y-86225000D01*
X175954904Y-86225000D01*
X176050142Y-86272619D01*
X176097761Y-86320238D01*
X176145380Y-86415476D01*
X176145380Y-86558333D01*
X175478714Y-85891666D02*
X176145380Y-85701190D01*
X175669190Y-85510714D01*
X176145380Y-85320238D01*
X175478714Y-85129761D01*
X176097761Y-84367857D02*
X176145380Y-84463095D01*
X176145380Y-84653571D01*
X176097761Y-84748809D01*
X176002523Y-84796428D01*
X175621571Y-84796428D01*
X175526333Y-84748809D01*
X175478714Y-84653571D01*
X175478714Y-84463095D01*
X175526333Y-84367857D01*
X175621571Y-84320238D01*
X175716809Y-84320238D01*
X175812047Y-84796428D01*
X176145380Y-83891666D02*
X175478714Y-83891666D01*
X175669190Y-83891666D02*
X175573952Y-83844047D01*
X175526333Y-83796428D01*
X175478714Y-83701190D01*
X175478714Y-83605952D01*
X181959666Y-125353380D02*
X182531095Y-125353380D01*
X182245380Y-126353380D02*
X182245380Y-125353380D01*
X183245380Y-126305761D02*
X183150142Y-126353380D01*
X182959666Y-126353380D01*
X182864428Y-126305761D01*
X182816809Y-126210523D01*
X182816809Y-125829571D01*
X182864428Y-125734333D01*
X182959666Y-125686714D01*
X183150142Y-125686714D01*
X183245380Y-125734333D01*
X183293000Y-125829571D01*
X183293000Y-125924809D01*
X182816809Y-126020047D01*
X183673952Y-126305761D02*
X183769190Y-126353380D01*
X183959666Y-126353380D01*
X184054904Y-126305761D01*
X184102523Y-126210523D01*
X184102523Y-126162904D01*
X184054904Y-126067666D01*
X183959666Y-126020047D01*
X183816809Y-126020047D01*
X183721571Y-125972428D01*
X183673952Y-125877190D01*
X183673952Y-125829571D01*
X183721571Y-125734333D01*
X183816809Y-125686714D01*
X183959666Y-125686714D01*
X184054904Y-125734333D01*
X184388238Y-125686714D02*
X184769190Y-125686714D01*
X184531095Y-125353380D02*
X184531095Y-126210523D01*
X184578714Y-126305761D01*
X184673952Y-126353380D01*
X184769190Y-126353380D01*
X185102523Y-126353380D02*
X185102523Y-125353380D01*
X185483476Y-125353380D01*
X185578714Y-125401000D01*
X185626333Y-125448619D01*
X185673952Y-125543857D01*
X185673952Y-125686714D01*
X185626333Y-125781952D01*
X185578714Y-125829571D01*
X185483476Y-125877190D01*
X185102523Y-125877190D01*
X186245380Y-126353380D02*
X186150142Y-126305761D01*
X186102523Y-126258142D01*
X186054904Y-126162904D01*
X186054904Y-125877190D01*
X186102523Y-125781952D01*
X186150142Y-125734333D01*
X186245380Y-125686714D01*
X186388238Y-125686714D01*
X186483476Y-125734333D01*
X186531095Y-125781952D01*
X186578714Y-125877190D01*
X186578714Y-126162904D01*
X186531095Y-126258142D01*
X186483476Y-126305761D01*
X186388238Y-126353380D01*
X186245380Y-126353380D01*
X187007285Y-126353380D02*
X187007285Y-125686714D01*
X187007285Y-125353380D02*
X186959666Y-125401000D01*
X187007285Y-125448619D01*
X187054904Y-125401000D01*
X187007285Y-125353380D01*
X187007285Y-125448619D01*
X187483476Y-125686714D02*
X187483476Y-126353380D01*
X187483476Y-125781952D02*
X187531095Y-125734333D01*
X187626333Y-125686714D01*
X187769190Y-125686714D01*
X187864428Y-125734333D01*
X187912047Y-125829571D01*
X187912047Y-126353380D01*
X188245380Y-125686714D02*
X188626333Y-125686714D01*
X188388238Y-125353380D02*
X188388238Y-126210523D01*
X188435857Y-126305761D01*
X188531095Y-126353380D01*
X188626333Y-126353380D01*
X184745380Y-125309095D02*
X184745380Y-124737666D01*
X185745380Y-125023380D02*
X184745380Y-125023380D01*
X185745380Y-124404333D02*
X184745380Y-124404333D01*
X184745380Y-124023380D01*
X184793000Y-123928142D01*
X184840619Y-123880523D01*
X184935857Y-123832904D01*
X185078714Y-123832904D01*
X185173952Y-123880523D01*
X185221571Y-123928142D01*
X185269190Y-124023380D01*
X185269190Y-124404333D01*
X185745380Y-122880523D02*
X185745380Y-123451952D01*
X185745380Y-123166238D02*
X184745380Y-123166238D01*
X184888238Y-123261476D01*
X184983476Y-123356714D01*
X185031095Y-123451952D01*
X184745380Y-121975761D02*
X184745380Y-122451952D01*
X185221571Y-122499571D01*
X185173952Y-122451952D01*
X185126333Y-122356714D01*
X185126333Y-122118619D01*
X185173952Y-122023380D01*
X185221571Y-121975761D01*
X185316809Y-121928142D01*
X185554904Y-121928142D01*
X185650142Y-121975761D01*
X185697761Y-122023380D01*
X185745380Y-122118619D01*
X185745380Y-122356714D01*
X185697761Y-122451952D01*
X185650142Y-122499571D01*
X187039666Y-125353380D02*
X187611095Y-125353380D01*
X187325380Y-126353380D02*
X187325380Y-125353380D01*
X188325380Y-126305761D02*
X188230142Y-126353380D01*
X188039666Y-126353380D01*
X187944428Y-126305761D01*
X187896809Y-126210523D01*
X187896809Y-125829571D01*
X187944428Y-125734333D01*
X188039666Y-125686714D01*
X188230142Y-125686714D01*
X188325380Y-125734333D01*
X188373000Y-125829571D01*
X188373000Y-125924809D01*
X187896809Y-126020047D01*
X188753952Y-126305761D02*
X188849190Y-126353380D01*
X189039666Y-126353380D01*
X189134904Y-126305761D01*
X189182523Y-126210523D01*
X189182523Y-126162904D01*
X189134904Y-126067666D01*
X189039666Y-126020047D01*
X188896809Y-126020047D01*
X188801571Y-125972428D01*
X188753952Y-125877190D01*
X188753952Y-125829571D01*
X188801571Y-125734333D01*
X188896809Y-125686714D01*
X189039666Y-125686714D01*
X189134904Y-125734333D01*
X189468238Y-125686714D02*
X189849190Y-125686714D01*
X189611095Y-125353380D02*
X189611095Y-126210523D01*
X189658714Y-126305761D01*
X189753952Y-126353380D01*
X189849190Y-126353380D01*
X190182523Y-126353380D02*
X190182523Y-125353380D01*
X190563476Y-125353380D01*
X190658714Y-125401000D01*
X190706333Y-125448619D01*
X190753952Y-125543857D01*
X190753952Y-125686714D01*
X190706333Y-125781952D01*
X190658714Y-125829571D01*
X190563476Y-125877190D01*
X190182523Y-125877190D01*
X191325380Y-126353380D02*
X191230142Y-126305761D01*
X191182523Y-126258142D01*
X191134904Y-126162904D01*
X191134904Y-125877190D01*
X191182523Y-125781952D01*
X191230142Y-125734333D01*
X191325380Y-125686714D01*
X191468238Y-125686714D01*
X191563476Y-125734333D01*
X191611095Y-125781952D01*
X191658714Y-125877190D01*
X191658714Y-126162904D01*
X191611095Y-126258142D01*
X191563476Y-126305761D01*
X191468238Y-126353380D01*
X191325380Y-126353380D01*
X192087285Y-126353380D02*
X192087285Y-125686714D01*
X192087285Y-125353380D02*
X192039666Y-125401000D01*
X192087285Y-125448619D01*
X192134904Y-125401000D01*
X192087285Y-125353380D01*
X192087285Y-125448619D01*
X192563476Y-125686714D02*
X192563476Y-126353380D01*
X192563476Y-125781952D02*
X192611095Y-125734333D01*
X192706333Y-125686714D01*
X192849190Y-125686714D01*
X192944428Y-125734333D01*
X192992047Y-125829571D01*
X192992047Y-126353380D01*
X193325380Y-125686714D02*
X193706333Y-125686714D01*
X193468238Y-125353380D02*
X193468238Y-126210523D01*
X193515857Y-126305761D01*
X193611095Y-126353380D01*
X193706333Y-126353380D01*
X189825380Y-125309095D02*
X189825380Y-124737666D01*
X190825380Y-125023380D02*
X189825380Y-125023380D01*
X190825380Y-124404333D02*
X189825380Y-124404333D01*
X189825380Y-124023380D01*
X189873000Y-123928142D01*
X189920619Y-123880523D01*
X190015857Y-123832904D01*
X190158714Y-123832904D01*
X190253952Y-123880523D01*
X190301571Y-123928142D01*
X190349190Y-124023380D01*
X190349190Y-124404333D01*
X190825380Y-122880523D02*
X190825380Y-123451952D01*
X190825380Y-123166238D02*
X189825380Y-123166238D01*
X189968238Y-123261476D01*
X190063476Y-123356714D01*
X190111095Y-123451952D01*
X189825380Y-122023380D02*
X189825380Y-122213857D01*
X189873000Y-122309095D01*
X189920619Y-122356714D01*
X190063476Y-122451952D01*
X190253952Y-122499571D01*
X190634904Y-122499571D01*
X190730142Y-122451952D01*
X190777761Y-122404333D01*
X190825380Y-122309095D01*
X190825380Y-122118619D01*
X190777761Y-122023380D01*
X190730142Y-121975761D01*
X190634904Y-121928142D01*
X190396809Y-121928142D01*
X190301571Y-121975761D01*
X190253952Y-122023380D01*
X190206333Y-122118619D01*
X190206333Y-122309095D01*
X190253952Y-122404333D01*
X190301571Y-122451952D01*
X190396809Y-122499571D01*
X184245666Y-62361380D02*
X184817095Y-62361380D01*
X184531380Y-63361380D02*
X184531380Y-62361380D01*
X185531380Y-63313761D02*
X185436142Y-63361380D01*
X185245666Y-63361380D01*
X185150428Y-63313761D01*
X185102809Y-63218523D01*
X185102809Y-62837571D01*
X185150428Y-62742333D01*
X185245666Y-62694714D01*
X185436142Y-62694714D01*
X185531380Y-62742333D01*
X185579000Y-62837571D01*
X185579000Y-62932809D01*
X185102809Y-63028047D01*
X185959952Y-63313761D02*
X186055190Y-63361380D01*
X186245666Y-63361380D01*
X186340904Y-63313761D01*
X186388523Y-63218523D01*
X186388523Y-63170904D01*
X186340904Y-63075666D01*
X186245666Y-63028047D01*
X186102809Y-63028047D01*
X186007571Y-62980428D01*
X185959952Y-62885190D01*
X185959952Y-62837571D01*
X186007571Y-62742333D01*
X186102809Y-62694714D01*
X186245666Y-62694714D01*
X186340904Y-62742333D01*
X186674238Y-62694714D02*
X187055190Y-62694714D01*
X186817095Y-62361380D02*
X186817095Y-63218523D01*
X186864714Y-63313761D01*
X186959952Y-63361380D01*
X187055190Y-63361380D01*
X187388523Y-63361380D02*
X187388523Y-62361380D01*
X187769476Y-62361380D01*
X187864714Y-62409000D01*
X187912333Y-62456619D01*
X187959952Y-62551857D01*
X187959952Y-62694714D01*
X187912333Y-62789952D01*
X187864714Y-62837571D01*
X187769476Y-62885190D01*
X187388523Y-62885190D01*
X188531380Y-63361380D02*
X188436142Y-63313761D01*
X188388523Y-63266142D01*
X188340904Y-63170904D01*
X188340904Y-62885190D01*
X188388523Y-62789952D01*
X188436142Y-62742333D01*
X188531380Y-62694714D01*
X188674238Y-62694714D01*
X188769476Y-62742333D01*
X188817095Y-62789952D01*
X188864714Y-62885190D01*
X188864714Y-63170904D01*
X188817095Y-63266142D01*
X188769476Y-63313761D01*
X188674238Y-63361380D01*
X188531380Y-63361380D01*
X189293285Y-63361380D02*
X189293285Y-62694714D01*
X189293285Y-62361380D02*
X189245666Y-62409000D01*
X189293285Y-62456619D01*
X189340904Y-62409000D01*
X189293285Y-62361380D01*
X189293285Y-62456619D01*
X189769476Y-62694714D02*
X189769476Y-63361380D01*
X189769476Y-62789952D02*
X189817095Y-62742333D01*
X189912333Y-62694714D01*
X190055190Y-62694714D01*
X190150428Y-62742333D01*
X190198047Y-62837571D01*
X190198047Y-63361380D01*
X190531380Y-62694714D02*
X190912333Y-62694714D01*
X190674238Y-62361380D02*
X190674238Y-63218523D01*
X190721857Y-63313761D01*
X190817095Y-63361380D01*
X190912333Y-63361380D01*
X187031380Y-61840904D02*
X187031380Y-61269476D01*
X188031380Y-61555190D02*
X187031380Y-61555190D01*
X188031380Y-60936142D02*
X187031380Y-60936142D01*
X187031380Y-60555190D01*
X187079000Y-60459952D01*
X187126619Y-60412333D01*
X187221857Y-60364714D01*
X187364714Y-60364714D01*
X187459952Y-60412333D01*
X187507571Y-60459952D01*
X187555190Y-60555190D01*
X187555190Y-60936142D01*
X187031380Y-59507571D02*
X187031380Y-59698047D01*
X187079000Y-59793285D01*
X187126619Y-59840904D01*
X187269476Y-59936142D01*
X187459952Y-59983761D01*
X187840904Y-59983761D01*
X187936142Y-59936142D01*
X187983761Y-59888523D01*
X188031380Y-59793285D01*
X188031380Y-59602809D01*
X187983761Y-59507571D01*
X187936142Y-59459952D01*
X187840904Y-59412333D01*
X187602809Y-59412333D01*
X187507571Y-59459952D01*
X187459952Y-59507571D01*
X187412333Y-59602809D01*
X187412333Y-59793285D01*
X187459952Y-59888523D01*
X187507571Y-59936142D01*
X187602809Y-59983761D01*
D13*
X176149000Y-60960000D02*
X173609000Y-60960000D01*
X173609000Y-59055000D02*
X174244000Y-58420000D01*
X176149000Y-58420000D02*
X176149000Y-60960000D01*
X173609000Y-60960000D02*
X173609000Y-59055000D01*
X174244000Y-58420000D02*
X176149000Y-58420000D01*
X178800000Y-101590000D02*
X176800000Y-101590000D01*
X178800000Y-100340000D02*
X178800000Y-101590000D01*
X176800000Y-100340000D02*
X178800000Y-100340000D01*
X176800000Y-101590000D02*
X176800000Y-100340000D01*
X171704000Y-59309000D02*
X173609000Y-59309000D01*
X173609000Y-61849000D02*
X171069000Y-61849000D01*
X173609000Y-59309000D02*
X173609000Y-61849000D01*
X171069000Y-59944000D02*
X171704000Y-59309000D01*
X171069000Y-61849000D02*
X171069000Y-59944000D01*
X131026000Y-92255000D02*
X131026000Y-89755000D01*
X131426000Y-89355000D02*
X132626000Y-89355000D01*
X131026000Y-89755000D02*
X131426000Y-89355000D01*
X132626000Y-92255000D02*
X131026000Y-92255000D01*
X132626000Y-89355000D02*
X132626000Y-92255000D01*
X131426000Y-84148000D02*
X132626000Y-84148000D01*
X131026000Y-87048000D02*
X131026000Y-84548000D01*
X132626000Y-87048000D02*
X131026000Y-87048000D01*
X131026000Y-84548000D02*
X131426000Y-84148000D01*
X132626000Y-84148000D02*
X132626000Y-87048000D01*
X199898000Y-122301000D02*
X201803000Y-122301000D01*
X199263000Y-124841000D02*
X199263000Y-122936000D01*
X201803000Y-122301000D02*
X201803000Y-124841000D01*
X201803000Y-124841000D02*
X199263000Y-124841000D01*
X199263000Y-122936000D02*
X199898000Y-122301000D01*
X142383000Y-80635000D02*
X142383000Y-79385000D01*
X144383000Y-80635000D02*
X142383000Y-80635000D01*
X142383000Y-79385000D02*
X144383000Y-79385000D01*
X144383000Y-79385000D02*
X144383000Y-80635000D01*
X178689000Y-61849000D02*
X176149000Y-61849000D01*
X176149000Y-59944000D02*
X176784000Y-59309000D01*
X178689000Y-59309000D02*
X178689000Y-61849000D01*
X176149000Y-61849000D02*
X176149000Y-59944000D01*
X176784000Y-59309000D02*
X178689000Y-59309000D01*
X196723000Y-122301000D02*
X196723000Y-124841000D01*
X194183000Y-122936000D02*
X194818000Y-122301000D01*
X194183000Y-124841000D02*
X194183000Y-122936000D01*
X196723000Y-124841000D02*
X194183000Y-124841000D01*
X194818000Y-122301000D02*
X196723000Y-122301000D01*
X189103000Y-125730000D02*
X186563000Y-125730000D01*
X186563000Y-125730000D02*
X186563000Y-123825000D01*
X189103000Y-123190000D02*
X189103000Y-125730000D01*
X186563000Y-123825000D02*
X187198000Y-123190000D01*
X187198000Y-123190000D02*
X189103000Y-123190000D01*
X182991000Y-102753000D02*
X182991000Y-104003000D01*
X182991000Y-104003000D02*
X180991000Y-104003000D01*
X180991000Y-104003000D02*
X180991000Y-102753000D01*
X180991000Y-102753000D02*
X182991000Y-102753000D01*
X184404000Y-58420000D02*
X186309000Y-58420000D01*
X186309000Y-58420000D02*
X186309000Y-60960000D01*
X183769000Y-60960000D02*
X183769000Y-59055000D01*
X183769000Y-59055000D02*
X184404000Y-58420000D01*
X186309000Y-60960000D02*
X183769000Y-60960000D01*
X185547000Y-102743000D02*
X186182000Y-102108000D01*
X185547000Y-104648000D02*
X185547000Y-102743000D01*
X188087000Y-104648000D02*
X185547000Y-104648000D01*
X188087000Y-102108000D02*
X188087000Y-104648000D01*
X186182000Y-102108000D02*
X188087000Y-102108000D01*
X138668000Y-89164000D02*
X138668000Y-90414000D01*
X138668000Y-90414000D02*
X136668000Y-90414000D01*
X136668000Y-90414000D02*
X136668000Y-89164000D01*
X136668000Y-89164000D02*
X138668000Y-89164000D01*
X201549000Y-60960000D02*
X199009000Y-60960000D01*
X199009000Y-59055000D02*
X199644000Y-58420000D01*
X199009000Y-60960000D02*
X199009000Y-59055000D01*
X201549000Y-58420000D02*
X201549000Y-60960000D01*
X199644000Y-58420000D02*
X201549000Y-58420000D01*
X184023000Y-125730000D02*
X181483000Y-125730000D01*
X184023000Y-123190000D02*
X184023000Y-125730000D01*
X182118000Y-123190000D02*
X184023000Y-123190000D01*
X181483000Y-123825000D02*
X182118000Y-123190000D01*
X181483000Y-125730000D02*
X181483000Y-123825000D01*
X191643000Y-125730000D02*
X191643000Y-123825000D01*
X194183000Y-125730000D02*
X191643000Y-125730000D01*
X191643000Y-123825000D02*
X192278000Y-123190000D01*
X194183000Y-123190000D02*
X194183000Y-125730000D01*
X192278000Y-123190000D02*
X194183000Y-123190000D01*
X138668000Y-83957000D02*
X138668000Y-85207000D01*
X138668000Y-85207000D02*
X136668000Y-85207000D01*
X136668000Y-83957000D02*
X138668000Y-83957000D01*
X136668000Y-85207000D02*
X136668000Y-83957000D01*
X191389000Y-60960000D02*
X188849000Y-60960000D01*
X188849000Y-60960000D02*
X188849000Y-59055000D01*
X191389000Y-58420000D02*
X191389000Y-60960000D01*
X188849000Y-59055000D02*
X189484000Y-58420000D01*
X189484000Y-58420000D02*
X191389000Y-58420000D01*
X197358000Y-123190000D02*
X199263000Y-123190000D01*
X199263000Y-125730000D02*
X196723000Y-125730000D01*
X199263000Y-123190000D02*
X199263000Y-125730000D01*
X196723000Y-125730000D02*
X196723000Y-123825000D01*
X196723000Y-123825000D02*
X197358000Y-123190000D01*
X178689000Y-60960000D02*
X178689000Y-59055000D01*
X181229000Y-60960000D02*
X178689000Y-60960000D01*
X178689000Y-59055000D02*
X179324000Y-58420000D01*
X179324000Y-58420000D02*
X181229000Y-58420000D01*
X181229000Y-58420000D02*
X181229000Y-60960000D01*
X130826000Y-95367000D02*
X130826000Y-94117000D01*
X130826000Y-94117000D02*
X132826000Y-94117000D01*
X132826000Y-95367000D02*
X130826000Y-95367000D01*
X132826000Y-94117000D02*
X132826000Y-95367000D01*
X181864000Y-59309000D02*
X183769000Y-59309000D01*
X181229000Y-59944000D02*
X181864000Y-59309000D01*
X183769000Y-61849000D02*
X181229000Y-61849000D01*
X183769000Y-59309000D02*
X183769000Y-61849000D01*
X181229000Y-61849000D02*
X181229000Y-59944000D01*
X138319000Y-80635000D02*
X138319000Y-79385000D01*
X138319000Y-79385000D02*
X140319000Y-79385000D01*
X140319000Y-79385000D02*
X140319000Y-80635000D01*
X140319000Y-80635000D02*
X138319000Y-80635000D01*
X186563000Y-122301000D02*
X186563000Y-124841000D01*
X184023000Y-124841000D02*
X184023000Y-122936000D01*
X184658000Y-122301000D02*
X186563000Y-122301000D01*
X184023000Y-122936000D02*
X184658000Y-122301000D01*
X186563000Y-124841000D02*
X184023000Y-124841000D01*
X191643000Y-124841000D02*
X189103000Y-124841000D01*
X191643000Y-122301000D02*
X191643000Y-124841000D01*
X189738000Y-122301000D02*
X191643000Y-122301000D01*
X189103000Y-124841000D02*
X189103000Y-122936000D01*
X189103000Y-122936000D02*
X189738000Y-122301000D01*
X188849000Y-61849000D02*
X186309000Y-61849000D01*
X186309000Y-59944000D02*
X186944000Y-59309000D01*
X186309000Y-61849000D02*
X186309000Y-59944000D01*
X186944000Y-59309000D02*
X188849000Y-59309000D01*
X188849000Y-59309000D02*
X188849000Y-61849000D01*
M02*
