G04 #@! TF.GenerationSoftware,KiCad,Pcbnew,6.0.2+dfsg-1*
G04 #@! TF.CreationDate,2025-02-22T22:39:26-07:00*
G04 #@! TF.ProjectId,ard-ltc2499-test,6172642d-6c74-4633-9234-39392d746573,rev?*
G04 #@! TF.SameCoordinates,Original*
G04 #@! TF.FileFunction,Soldermask,Top*
G04 #@! TF.FilePolarity,Negative*
%FSLAX46Y46*%
G04 Gerber Fmt 4.6, Leading zero omitted, Abs format (unit mm)*
G04 Created by KiCad (PCBNEW 6.0.2+dfsg-1) date 2025-02-22 22:39:26*
%MOMM*%
%LPD*%
G01*
G04 APERTURE LIST*
%ADD10O,2.032000X1.727200*%
%ADD11C,4.064000*%
%ADD12R,1.700000X1.700000*%
%ADD13C,6.400000*%
G04 APERTURE END LIST*
D10*
X113538000Y-85725000D03*
X113538000Y-88265000D03*
X113538000Y-90805000D03*
X113538000Y-93345000D03*
X113538000Y-95885000D03*
X113538000Y-98425000D03*
X113538000Y-100965000D03*
X113538000Y-103505000D03*
X113538000Y-108585000D03*
X113538000Y-111125000D03*
X113538000Y-113665000D03*
X113538000Y-116205000D03*
X113538000Y-118745000D03*
X113538000Y-121285000D03*
X161798000Y-76581000D03*
X161798000Y-79121000D03*
X161798000Y-81661000D03*
X161798000Y-84201000D03*
X161798000Y-86741000D03*
X161798000Y-89281000D03*
X161798000Y-91821000D03*
X161798000Y-94361000D03*
X161798000Y-96901000D03*
X161798000Y-99441000D03*
X161798000Y-103505000D03*
X161798000Y-106045000D03*
X161798000Y-108585000D03*
X161798000Y-111125000D03*
X161798000Y-113665000D03*
X161798000Y-116205000D03*
X161798000Y-118745000D03*
X161798000Y-121285000D03*
D11*
X113538000Y-71755000D03*
X118618000Y-123825000D03*
X161798000Y-73025000D03*
X146558000Y-123825000D03*
G36*
X144757000Y-76315000D02*
G01*
X144257000Y-76315000D01*
X144257000Y-76310033D01*
X144177059Y-76308568D01*
X144041744Y-76266293D01*
X143923734Y-76187738D01*
X143832514Y-76079219D01*
X143775419Y-75949460D01*
X143757836Y-75815000D01*
X143757000Y-75815000D01*
X143757000Y-75315000D01*
X143757836Y-75315000D01*
X143757037Y-75308891D01*
X143778848Y-75168814D01*
X143839096Y-75040489D01*
X143932940Y-74934231D01*
X144052835Y-74858583D01*
X144189142Y-74819626D01*
X144257000Y-74820041D01*
X144257000Y-74815000D01*
X144757000Y-74815000D01*
X144757000Y-76315000D01*
G37*
G36*
X145557000Y-74820041D02*
G01*
X145630905Y-74820492D01*
X145766726Y-74861111D01*
X145885688Y-74938218D01*
X145978226Y-75045615D01*
X146036903Y-75174667D01*
X146057000Y-75315000D01*
X146057000Y-75815000D01*
X146056851Y-75827216D01*
X146033331Y-75967017D01*
X145971519Y-76094596D01*
X145876384Y-76199700D01*
X145755574Y-76273877D01*
X145618801Y-76311166D01*
X145557000Y-76310033D01*
X145557000Y-76315000D01*
X145057000Y-76315000D01*
X145057000Y-74815000D01*
X145557000Y-74815000D01*
X145557000Y-74820041D01*
G37*
D12*
X174879000Y-59690000D03*
G36*
G01*
X176375000Y-101415000D02*
X176375000Y-100515000D01*
G75*
G02*
X176625000Y-100265000I250000J0D01*
G01*
X177150000Y-100265000D01*
G75*
G02*
X177400000Y-100515000I0J-250000D01*
G01*
X177400000Y-101415000D01*
G75*
G02*
X177150000Y-101665000I-250000J0D01*
G01*
X176625000Y-101665000D01*
G75*
G02*
X176375000Y-101415000I0J250000D01*
G01*
G37*
G36*
G01*
X178200000Y-101415000D02*
X178200000Y-100515000D01*
G75*
G02*
X178450000Y-100265000I250000J0D01*
G01*
X178975000Y-100265000D01*
G75*
G02*
X179225000Y-100515000I0J-250000D01*
G01*
X179225000Y-101415000D01*
G75*
G02*
X178975000Y-101665000I-250000J0D01*
G01*
X178450000Y-101665000D01*
G75*
G02*
X178200000Y-101415000I0J250000D01*
G01*
G37*
D10*
X220853000Y-103505000D03*
X220853000Y-106045000D03*
X220853000Y-108585000D03*
X220853000Y-111125000D03*
X220853000Y-113665000D03*
X220853000Y-116205000D03*
X220853000Y-118745000D03*
X220853000Y-121285000D03*
D12*
X172339000Y-60579000D03*
G36*
G01*
X130026000Y-90005000D02*
X130026000Y-89705000D01*
G75*
G02*
X130176000Y-89555000I150000J0D01*
G01*
X131201000Y-89555000D01*
G75*
G02*
X131351000Y-89705000I0J-150000D01*
G01*
X131351000Y-90005000D01*
G75*
G02*
X131201000Y-90155000I-150000J0D01*
G01*
X130176000Y-90155000D01*
G75*
G02*
X130026000Y-90005000I0J150000D01*
G01*
G37*
G36*
G01*
X130026000Y-90955000D02*
X130026000Y-90655000D01*
G75*
G02*
X130176000Y-90505000I150000J0D01*
G01*
X131201000Y-90505000D01*
G75*
G02*
X131351000Y-90655000I0J-150000D01*
G01*
X131351000Y-90955000D01*
G75*
G02*
X131201000Y-91105000I-150000J0D01*
G01*
X130176000Y-91105000D01*
G75*
G02*
X130026000Y-90955000I0J150000D01*
G01*
G37*
G36*
G01*
X130026000Y-91905000D02*
X130026000Y-91605000D01*
G75*
G02*
X130176000Y-91455000I150000J0D01*
G01*
X131201000Y-91455000D01*
G75*
G02*
X131351000Y-91605000I0J-150000D01*
G01*
X131351000Y-91905000D01*
G75*
G02*
X131201000Y-92055000I-150000J0D01*
G01*
X130176000Y-92055000D01*
G75*
G02*
X130026000Y-91905000I0J150000D01*
G01*
G37*
G36*
G01*
X132301000Y-91905000D02*
X132301000Y-91605000D01*
G75*
G02*
X132451000Y-91455000I150000J0D01*
G01*
X133476000Y-91455000D01*
G75*
G02*
X133626000Y-91605000I0J-150000D01*
G01*
X133626000Y-91905000D01*
G75*
G02*
X133476000Y-92055000I-150000J0D01*
G01*
X132451000Y-92055000D01*
G75*
G02*
X132301000Y-91905000I0J150000D01*
G01*
G37*
G36*
G01*
X132301000Y-90955000D02*
X132301000Y-90655000D01*
G75*
G02*
X132451000Y-90505000I150000J0D01*
G01*
X133476000Y-90505000D01*
G75*
G02*
X133626000Y-90655000I0J-150000D01*
G01*
X133626000Y-90955000D01*
G75*
G02*
X133476000Y-91105000I-150000J0D01*
G01*
X132451000Y-91105000D01*
G75*
G02*
X132301000Y-90955000I0J150000D01*
G01*
G37*
G36*
G01*
X132301000Y-90005000D02*
X132301000Y-89705000D01*
G75*
G02*
X132451000Y-89555000I150000J0D01*
G01*
X133476000Y-89555000D01*
G75*
G02*
X133626000Y-89705000I0J-150000D01*
G01*
X133626000Y-90005000D01*
G75*
G02*
X133476000Y-90155000I-150000J0D01*
G01*
X132451000Y-90155000D01*
G75*
G02*
X132301000Y-90005000I0J150000D01*
G01*
G37*
G36*
G01*
X130026000Y-84798000D02*
X130026000Y-84498000D01*
G75*
G02*
X130176000Y-84348000I150000J0D01*
G01*
X131201000Y-84348000D01*
G75*
G02*
X131351000Y-84498000I0J-150000D01*
G01*
X131351000Y-84798000D01*
G75*
G02*
X131201000Y-84948000I-150000J0D01*
G01*
X130176000Y-84948000D01*
G75*
G02*
X130026000Y-84798000I0J150000D01*
G01*
G37*
G36*
G01*
X130026000Y-85748000D02*
X130026000Y-85448000D01*
G75*
G02*
X130176000Y-85298000I150000J0D01*
G01*
X131201000Y-85298000D01*
G75*
G02*
X131351000Y-85448000I0J-150000D01*
G01*
X131351000Y-85748000D01*
G75*
G02*
X131201000Y-85898000I-150000J0D01*
G01*
X130176000Y-85898000D01*
G75*
G02*
X130026000Y-85748000I0J150000D01*
G01*
G37*
G36*
G01*
X130026000Y-86698000D02*
X130026000Y-86398000D01*
G75*
G02*
X130176000Y-86248000I150000J0D01*
G01*
X131201000Y-86248000D01*
G75*
G02*
X131351000Y-86398000I0J-150000D01*
G01*
X131351000Y-86698000D01*
G75*
G02*
X131201000Y-86848000I-150000J0D01*
G01*
X130176000Y-86848000D01*
G75*
G02*
X130026000Y-86698000I0J150000D01*
G01*
G37*
G36*
G01*
X132301000Y-86698000D02*
X132301000Y-86398000D01*
G75*
G02*
X132451000Y-86248000I150000J0D01*
G01*
X133476000Y-86248000D01*
G75*
G02*
X133626000Y-86398000I0J-150000D01*
G01*
X133626000Y-86698000D01*
G75*
G02*
X133476000Y-86848000I-150000J0D01*
G01*
X132451000Y-86848000D01*
G75*
G02*
X132301000Y-86698000I0J150000D01*
G01*
G37*
G36*
G01*
X132301000Y-85748000D02*
X132301000Y-85448000D01*
G75*
G02*
X132451000Y-85298000I150000J0D01*
G01*
X133476000Y-85298000D01*
G75*
G02*
X133626000Y-85448000I0J-150000D01*
G01*
X133626000Y-85748000D01*
G75*
G02*
X133476000Y-85898000I-150000J0D01*
G01*
X132451000Y-85898000D01*
G75*
G02*
X132301000Y-85748000I0J150000D01*
G01*
G37*
G36*
G01*
X132301000Y-84798000D02*
X132301000Y-84498000D01*
G75*
G02*
X132451000Y-84348000I150000J0D01*
G01*
X133476000Y-84348000D01*
G75*
G02*
X133626000Y-84498000I0J-150000D01*
G01*
X133626000Y-84798000D01*
G75*
G02*
X133476000Y-84948000I-150000J0D01*
G01*
X132451000Y-84948000D01*
G75*
G02*
X132301000Y-84798000I0J150000D01*
G01*
G37*
X200533000Y-123571000D03*
D10*
X172593000Y-108585000D03*
X172593000Y-111125000D03*
X172593000Y-113665000D03*
X172593000Y-116205000D03*
X172593000Y-118745000D03*
X172593000Y-121285000D03*
G36*
G01*
X144808000Y-79560000D02*
X144808000Y-80460000D01*
G75*
G02*
X144558000Y-80710000I-250000J0D01*
G01*
X144033000Y-80710000D01*
G75*
G02*
X143783000Y-80460000I0J250000D01*
G01*
X143783000Y-79560000D01*
G75*
G02*
X144033000Y-79310000I250000J0D01*
G01*
X144558000Y-79310000D01*
G75*
G02*
X144808000Y-79560000I0J-250000D01*
G01*
G37*
G36*
G01*
X142983000Y-79560000D02*
X142983000Y-80460000D01*
G75*
G02*
X142733000Y-80710000I-250000J0D01*
G01*
X142208000Y-80710000D01*
G75*
G02*
X141958000Y-80460000I0J250000D01*
G01*
X141958000Y-79560000D01*
G75*
G02*
X142208000Y-79310000I250000J0D01*
G01*
X142733000Y-79310000D01*
G75*
G02*
X142983000Y-79560000I0J-250000D01*
G01*
G37*
D12*
X177419000Y-60579000D03*
X195453000Y-123571000D03*
D13*
X228981000Y-122047000D03*
D12*
X187833000Y-124460000D03*
G36*
G01*
X180566000Y-103828000D02*
X180566000Y-102928000D01*
G75*
G02*
X180816000Y-102678000I250000J0D01*
G01*
X181341000Y-102678000D01*
G75*
G02*
X181591000Y-102928000I0J-250000D01*
G01*
X181591000Y-103828000D01*
G75*
G02*
X181341000Y-104078000I-250000J0D01*
G01*
X180816000Y-104078000D01*
G75*
G02*
X180566000Y-103828000I0J250000D01*
G01*
G37*
G36*
G01*
X182391000Y-103828000D02*
X182391000Y-102928000D01*
G75*
G02*
X182641000Y-102678000I250000J0D01*
G01*
X183166000Y-102678000D01*
G75*
G02*
X183416000Y-102928000I0J-250000D01*
G01*
X183416000Y-103828000D01*
G75*
G02*
X183166000Y-104078000I-250000J0D01*
G01*
X182641000Y-104078000D01*
G75*
G02*
X182391000Y-103828000I0J250000D01*
G01*
G37*
D10*
X220853000Y-76581000D03*
X220853000Y-79121000D03*
X220853000Y-81661000D03*
X220853000Y-84201000D03*
X220853000Y-86741000D03*
X220853000Y-89281000D03*
X220853000Y-91821000D03*
X220853000Y-94361000D03*
X220853000Y-96901000D03*
X220853000Y-99441000D03*
D12*
X185039000Y-59690000D03*
X186817000Y-103378000D03*
G36*
G01*
X136218000Y-90264000D02*
X136218000Y-89314000D01*
G75*
G02*
X136468000Y-89064000I250000J0D01*
G01*
X136968000Y-89064000D01*
G75*
G02*
X137218000Y-89314000I0J-250000D01*
G01*
X137218000Y-90264000D01*
G75*
G02*
X136968000Y-90514000I-250000J0D01*
G01*
X136468000Y-90514000D01*
G75*
G02*
X136218000Y-90264000I0J250000D01*
G01*
G37*
G36*
G01*
X138118000Y-90264000D02*
X138118000Y-89314000D01*
G75*
G02*
X138368000Y-89064000I250000J0D01*
G01*
X138868000Y-89064000D01*
G75*
G02*
X139118000Y-89314000I0J-250000D01*
G01*
X139118000Y-90264000D01*
G75*
G02*
X138868000Y-90514000I-250000J0D01*
G01*
X138368000Y-90514000D01*
G75*
G02*
X138118000Y-90264000I0J250000D01*
G01*
G37*
X200279000Y-59690000D03*
X182753000Y-124460000D03*
X192913000Y-124460000D03*
G36*
G01*
X136218000Y-85057000D02*
X136218000Y-84107000D01*
G75*
G02*
X136468000Y-83857000I250000J0D01*
G01*
X136968000Y-83857000D01*
G75*
G02*
X137218000Y-84107000I0J-250000D01*
G01*
X137218000Y-85057000D01*
G75*
G02*
X136968000Y-85307000I-250000J0D01*
G01*
X136468000Y-85307000D01*
G75*
G02*
X136218000Y-85057000I0J250000D01*
G01*
G37*
G36*
G01*
X138118000Y-85057000D02*
X138118000Y-84107000D01*
G75*
G02*
X138368000Y-83857000I250000J0D01*
G01*
X138868000Y-83857000D01*
G75*
G02*
X139118000Y-84107000I0J-250000D01*
G01*
X139118000Y-85057000D01*
G75*
G02*
X138868000Y-85307000I-250000J0D01*
G01*
X138368000Y-85307000D01*
G75*
G02*
X138118000Y-85057000I0J250000D01*
G01*
G37*
X190119000Y-59690000D03*
X197993000Y-124460000D03*
X179959000Y-59690000D03*
G36*
G01*
X133276000Y-94267000D02*
X133276000Y-95217000D01*
G75*
G02*
X133026000Y-95467000I-250000J0D01*
G01*
X132526000Y-95467000D01*
G75*
G02*
X132276000Y-95217000I0J250000D01*
G01*
X132276000Y-94267000D01*
G75*
G02*
X132526000Y-94017000I250000J0D01*
G01*
X133026000Y-94017000D01*
G75*
G02*
X133276000Y-94267000I0J-250000D01*
G01*
G37*
G36*
G01*
X131376000Y-94267000D02*
X131376000Y-95217000D01*
G75*
G02*
X131126000Y-95467000I-250000J0D01*
G01*
X130626000Y-95467000D01*
G75*
G02*
X130376000Y-95217000I0J250000D01*
G01*
X130376000Y-94267000D01*
G75*
G02*
X130626000Y-94017000I250000J0D01*
G01*
X131126000Y-94017000D01*
G75*
G02*
X131376000Y-94267000I0J-250000D01*
G01*
G37*
X182499000Y-60579000D03*
G36*
G01*
X140744000Y-79560000D02*
X140744000Y-80460000D01*
G75*
G02*
X140494000Y-80710000I-250000J0D01*
G01*
X139969000Y-80710000D01*
G75*
G02*
X139719000Y-80460000I0J250000D01*
G01*
X139719000Y-79560000D01*
G75*
G02*
X139969000Y-79310000I250000J0D01*
G01*
X140494000Y-79310000D01*
G75*
G02*
X140744000Y-79560000I0J-250000D01*
G01*
G37*
G36*
G01*
X138919000Y-79560000D02*
X138919000Y-80460000D01*
G75*
G02*
X138669000Y-80710000I-250000J0D01*
G01*
X138144000Y-80710000D01*
G75*
G02*
X137894000Y-80460000I0J250000D01*
G01*
X137894000Y-79560000D01*
G75*
G02*
X138144000Y-79310000I250000J0D01*
G01*
X138669000Y-79310000D01*
G75*
G02*
X138919000Y-79560000I0J-250000D01*
G01*
G37*
D10*
X172593000Y-85725000D03*
X172593000Y-88265000D03*
X172593000Y-90805000D03*
X172593000Y-93345000D03*
X172593000Y-95885000D03*
X172593000Y-98425000D03*
X172593000Y-100965000D03*
X172593000Y-103505000D03*
D12*
X185293000Y-123571000D03*
D13*
X228981000Y-62103000D03*
D12*
X190373000Y-123571000D03*
X187579000Y-60579000D03*
M02*
