G04 #@! TF.GenerationSoftware,KiCad,Pcbnew,6.0.10-86aedd382b~118~ubuntu18.04.1*
G04 #@! TF.CreationDate,2025-02-22T22:25:58-07:00*
G04 #@! TF.ProjectId,ard-ltc2499-test,6172642d-6c74-4633-9234-39392d746573,rev?*
G04 #@! TF.SameCoordinates,Original*
G04 #@! TF.FileFunction,Soldermask,Bot*
G04 #@! TF.FilePolarity,Negative*
%FSLAX46Y46*%
G04 Gerber Fmt 4.6, Leading zero omitted, Abs format (unit mm)*
G04 Created by KiCad (PCBNEW 6.0.10-86aedd382b~118~ubuntu18.04.1) date 2025-02-22 22:25:58*
%MOMM*%
%LPD*%
G01*
G04 APERTURE LIST*
%ADD10O,2.032000X1.727200*%
%ADD11C,4.064000*%
%ADD12R,1.700000X1.700000*%
%ADD13C,6.400000*%
G04 APERTURE END LIST*
D10*
X113538000Y-85725000D03*
X113538000Y-88265000D03*
X113538000Y-90805000D03*
X113538000Y-93345000D03*
X113538000Y-95885000D03*
X113538000Y-98425000D03*
X113538000Y-100965000D03*
X113538000Y-103505000D03*
X113538000Y-108585000D03*
X113538000Y-111125000D03*
X113538000Y-113665000D03*
X113538000Y-116205000D03*
X113538000Y-118745000D03*
X113538000Y-121285000D03*
X161798000Y-76581000D03*
X161798000Y-79121000D03*
X161798000Y-81661000D03*
X161798000Y-84201000D03*
X161798000Y-86741000D03*
X161798000Y-89281000D03*
X161798000Y-91821000D03*
X161798000Y-94361000D03*
X161798000Y-96901000D03*
X161798000Y-99441000D03*
X161798000Y-103505000D03*
X161798000Y-106045000D03*
X161798000Y-108585000D03*
X161798000Y-111125000D03*
X161798000Y-113665000D03*
X161798000Y-116205000D03*
X161798000Y-118745000D03*
X161798000Y-121285000D03*
D11*
X113538000Y-71755000D03*
X118618000Y-123825000D03*
X161798000Y-73025000D03*
X146558000Y-123825000D03*
D12*
X174879000Y-59690000D03*
D10*
X220853000Y-103505000D03*
X220853000Y-106045000D03*
X220853000Y-108585000D03*
X220853000Y-111125000D03*
X220853000Y-113665000D03*
X220853000Y-116205000D03*
X220853000Y-118745000D03*
X220853000Y-121285000D03*
D12*
X172339000Y-60579000D03*
X200533000Y-123571000D03*
D10*
X172593000Y-108585000D03*
X172593000Y-111125000D03*
X172593000Y-113665000D03*
X172593000Y-116205000D03*
X172593000Y-118745000D03*
X172593000Y-121285000D03*
D12*
X177419000Y-60579000D03*
X195453000Y-123571000D03*
D13*
X228981000Y-122047000D03*
D12*
X187833000Y-124460000D03*
D10*
X220853000Y-76581000D03*
X220853000Y-79121000D03*
X220853000Y-81661000D03*
X220853000Y-84201000D03*
X220853000Y-86741000D03*
X220853000Y-89281000D03*
X220853000Y-91821000D03*
X220853000Y-94361000D03*
X220853000Y-96901000D03*
X220853000Y-99441000D03*
D12*
X185039000Y-59690000D03*
X186817000Y-103378000D03*
X200279000Y-59690000D03*
X182753000Y-124460000D03*
X192913000Y-124460000D03*
X190119000Y-59690000D03*
X197993000Y-124460000D03*
X179959000Y-59690000D03*
X182499000Y-60579000D03*
D10*
X172593000Y-85725000D03*
X172593000Y-88265000D03*
X172593000Y-90805000D03*
X172593000Y-93345000D03*
X172593000Y-95885000D03*
X172593000Y-98425000D03*
X172593000Y-100965000D03*
X172593000Y-103505000D03*
D12*
X185293000Y-123571000D03*
D13*
X228981000Y-62103000D03*
D12*
X190373000Y-123571000D03*
X187579000Y-60579000D03*
M02*
