G04 #@! TF.GenerationSoftware,KiCad,Pcbnew,6.0.10-86aedd382b~118~ubuntu18.04.1*
G04 #@! TF.CreationDate,2025-02-22T22:25:58-07:00*
G04 #@! TF.ProjectId,ard-ltc2499-test,6172642d-6c74-4633-9234-39392d746573,rev?*
G04 #@! TF.SameCoordinates,Original*
G04 #@! TF.FileFunction,Legend,Top*
G04 #@! TF.FilePolarity,Positive*
%FSLAX46Y46*%
G04 Gerber Fmt 4.6, Leading zero omitted, Abs format (unit mm)*
G04 Created by KiCad (PCBNEW 6.0.10-86aedd382b~118~ubuntu18.04.1) date 2025-02-22 22:25:58*
%MOMM*%
%LPD*%
G01*
G04 APERTURE LIST*
%ADD10C,0.152400*%
%ADD11C,0.150000*%
%ADD12C,0.120000*%
%ADD13O,2.032000X1.727200*%
%ADD14C,4.064000*%
G04 APERTURE END LIST*
D10*
X127546583Y-63755693D02*
X128030393Y-63755693D01*
X127449821Y-64045979D02*
X127788488Y-63029979D01*
X128127155Y-64045979D01*
X129046393Y-64045979D02*
X128707726Y-63562169D01*
X128465821Y-64045979D02*
X128465821Y-63029979D01*
X128852869Y-63029979D01*
X128949631Y-63078360D01*
X128998012Y-63126740D01*
X129046393Y-63223502D01*
X129046393Y-63368645D01*
X128998012Y-63465407D01*
X128949631Y-63513788D01*
X128852869Y-63562169D01*
X128465821Y-63562169D01*
X129481821Y-64045979D02*
X129481821Y-63029979D01*
X129723726Y-63029979D01*
X129868869Y-63078360D01*
X129965631Y-63175121D01*
X130014012Y-63271883D01*
X130062393Y-63465407D01*
X130062393Y-63610550D01*
X130014012Y-63804074D01*
X129965631Y-63900836D01*
X129868869Y-63997598D01*
X129723726Y-64045979D01*
X129481821Y-64045979D01*
X130497821Y-63658931D02*
X131271917Y-63658931D01*
X132239536Y-64045979D02*
X131755726Y-64045979D01*
X131755726Y-63029979D01*
X132433060Y-63029979D02*
X133013631Y-63029979D01*
X132723345Y-64045979D02*
X132723345Y-63029979D01*
X133932869Y-63949217D02*
X133884488Y-63997598D01*
X133739345Y-64045979D01*
X133642583Y-64045979D01*
X133497440Y-63997598D01*
X133400679Y-63900836D01*
X133352298Y-63804074D01*
X133303917Y-63610550D01*
X133303917Y-63465407D01*
X133352298Y-63271883D01*
X133400679Y-63175121D01*
X133497440Y-63078360D01*
X133642583Y-63029979D01*
X133739345Y-63029979D01*
X133884488Y-63078360D01*
X133932869Y-63126740D01*
X134319917Y-63126740D02*
X134368298Y-63078360D01*
X134465060Y-63029979D01*
X134706964Y-63029979D01*
X134803726Y-63078360D01*
X134852107Y-63126740D01*
X134900488Y-63223502D01*
X134900488Y-63320264D01*
X134852107Y-63465407D01*
X134271536Y-64045979D01*
X134900488Y-64045979D01*
X135771345Y-63368645D02*
X135771345Y-64045979D01*
X135529440Y-62981598D02*
X135287536Y-63707312D01*
X135916488Y-63707312D01*
X136351917Y-64045979D02*
X136545440Y-64045979D01*
X136642202Y-63997598D01*
X136690583Y-63949217D01*
X136787345Y-63804074D01*
X136835726Y-63610550D01*
X136835726Y-63223502D01*
X136787345Y-63126740D01*
X136738964Y-63078360D01*
X136642202Y-63029979D01*
X136448679Y-63029979D01*
X136351917Y-63078360D01*
X136303536Y-63126740D01*
X136255155Y-63223502D01*
X136255155Y-63465407D01*
X136303536Y-63562169D01*
X136351917Y-63610550D01*
X136448679Y-63658931D01*
X136642202Y-63658931D01*
X136738964Y-63610550D01*
X136787345Y-63562169D01*
X136835726Y-63465407D01*
X137319536Y-64045979D02*
X137513060Y-64045979D01*
X137609821Y-63997598D01*
X137658202Y-63949217D01*
X137754964Y-63804074D01*
X137803345Y-63610550D01*
X137803345Y-63223502D01*
X137754964Y-63126740D01*
X137706583Y-63078360D01*
X137609821Y-63029979D01*
X137416298Y-63029979D01*
X137319536Y-63078360D01*
X137271155Y-63126740D01*
X137222774Y-63223502D01*
X137222774Y-63465407D01*
X137271155Y-63562169D01*
X137319536Y-63610550D01*
X137416298Y-63658931D01*
X137609821Y-63658931D01*
X137706583Y-63610550D01*
X137754964Y-63562169D01*
X137803345Y-63465407D01*
X138238774Y-63658931D02*
X139012869Y-63658931D01*
X139351536Y-63029979D02*
X139932107Y-63029979D01*
X139641821Y-64045979D02*
X139641821Y-63029979D01*
X140270774Y-63513788D02*
X140609440Y-63513788D01*
X140754583Y-64045979D02*
X140270774Y-64045979D01*
X140270774Y-63029979D01*
X140754583Y-63029979D01*
X141141631Y-63997598D02*
X141286774Y-64045979D01*
X141528679Y-64045979D01*
X141625440Y-63997598D01*
X141673821Y-63949217D01*
X141722202Y-63852455D01*
X141722202Y-63755693D01*
X141673821Y-63658931D01*
X141625440Y-63610550D01*
X141528679Y-63562169D01*
X141335155Y-63513788D01*
X141238393Y-63465407D01*
X141190012Y-63417026D01*
X141141631Y-63320264D01*
X141141631Y-63223502D01*
X141190012Y-63126740D01*
X141238393Y-63078360D01*
X141335155Y-63029979D01*
X141577060Y-63029979D01*
X141722202Y-63078360D01*
X142012488Y-63029979D02*
X142593060Y-63029979D01*
X142302774Y-64045979D02*
X142302774Y-63029979D01*
X143609060Y-63368645D02*
X143850964Y-64045979D01*
X144092869Y-63368645D01*
X144431536Y-63126740D02*
X144479917Y-63078360D01*
X144576679Y-63029979D01*
X144818583Y-63029979D01*
X144915345Y-63078360D01*
X144963726Y-63126740D01*
X145012107Y-63223502D01*
X145012107Y-63320264D01*
X144963726Y-63465407D01*
X144383155Y-64045979D01*
X145012107Y-64045979D01*
X145447536Y-63949217D02*
X145495917Y-63997598D01*
X145447536Y-64045979D01*
X145399155Y-63997598D01*
X145447536Y-63949217D01*
X145447536Y-64045979D01*
X146124869Y-63029979D02*
X146221631Y-63029979D01*
X146318393Y-63078360D01*
X146366774Y-63126740D01*
X146415155Y-63223502D01*
X146463536Y-63417026D01*
X146463536Y-63658931D01*
X146415155Y-63852455D01*
X146366774Y-63949217D01*
X146318393Y-63997598D01*
X146221631Y-64045979D01*
X146124869Y-64045979D01*
X146028107Y-63997598D01*
X145979726Y-63949217D01*
X145931345Y-63852455D01*
X145882964Y-63658931D01*
X145882964Y-63417026D01*
X145931345Y-63223502D01*
X145979726Y-63126740D01*
X146028107Y-63078360D01*
X146124869Y-63029979D01*
X127594964Y-65681739D02*
X127594964Y-64665739D01*
X128223917Y-65681739D02*
X128127155Y-65633358D01*
X128078774Y-65584977D01*
X128030393Y-65488215D01*
X128030393Y-65197929D01*
X128078774Y-65101167D01*
X128127155Y-65052786D01*
X128223917Y-65004405D01*
X128369060Y-65004405D01*
X128465821Y-65052786D01*
X128514202Y-65101167D01*
X128562583Y-65197929D01*
X128562583Y-65488215D01*
X128514202Y-65584977D01*
X128465821Y-65633358D01*
X128369060Y-65681739D01*
X128223917Y-65681739D01*
X128901250Y-65004405D02*
X129094774Y-65681739D01*
X129288298Y-65197929D01*
X129481821Y-65681739D01*
X129675345Y-65004405D01*
X130497821Y-65681739D02*
X130497821Y-65149548D01*
X130449440Y-65052786D01*
X130352679Y-65004405D01*
X130159155Y-65004405D01*
X130062393Y-65052786D01*
X130497821Y-65633358D02*
X130401060Y-65681739D01*
X130159155Y-65681739D01*
X130062393Y-65633358D01*
X130014012Y-65536596D01*
X130014012Y-65439834D01*
X130062393Y-65343072D01*
X130159155Y-65294691D01*
X130401060Y-65294691D01*
X130497821Y-65246310D01*
X131707345Y-65633358D02*
X131852488Y-65681739D01*
X132094393Y-65681739D01*
X132191155Y-65633358D01*
X132239536Y-65584977D01*
X132287917Y-65488215D01*
X132287917Y-65391453D01*
X132239536Y-65294691D01*
X132191155Y-65246310D01*
X132094393Y-65197929D01*
X131900869Y-65149548D01*
X131804107Y-65101167D01*
X131755726Y-65052786D01*
X131707345Y-64956024D01*
X131707345Y-64859262D01*
X131755726Y-64762500D01*
X131804107Y-64714120D01*
X131900869Y-64665739D01*
X132142774Y-64665739D01*
X132287917Y-64714120D01*
X133158774Y-65633358D02*
X133062012Y-65681739D01*
X132868488Y-65681739D01*
X132771726Y-65633358D01*
X132723345Y-65584977D01*
X132674964Y-65488215D01*
X132674964Y-65197929D01*
X132723345Y-65101167D01*
X132771726Y-65052786D01*
X132868488Y-65004405D01*
X133062012Y-65004405D01*
X133158774Y-65052786D01*
X134029631Y-65681739D02*
X134029631Y-65149548D01*
X133981250Y-65052786D01*
X133884488Y-65004405D01*
X133690964Y-65004405D01*
X133594202Y-65052786D01*
X134029631Y-65633358D02*
X133932869Y-65681739D01*
X133690964Y-65681739D01*
X133594202Y-65633358D01*
X133545821Y-65536596D01*
X133545821Y-65439834D01*
X133594202Y-65343072D01*
X133690964Y-65294691D01*
X133932869Y-65294691D01*
X134029631Y-65246310D01*
X134658583Y-65681739D02*
X134561821Y-65633358D01*
X134513440Y-65536596D01*
X134513440Y-64665739D01*
X135432679Y-65633358D02*
X135335917Y-65681739D01*
X135142393Y-65681739D01*
X135045631Y-65633358D01*
X134997250Y-65536596D01*
X134997250Y-65149548D01*
X135045631Y-65052786D01*
X135142393Y-65004405D01*
X135335917Y-65004405D01*
X135432679Y-65052786D01*
X135481060Y-65149548D01*
X135481060Y-65246310D01*
X134997250Y-65343072D01*
X136351917Y-65681739D02*
X136351917Y-64665739D01*
X136351917Y-65633358D02*
X136255155Y-65681739D01*
X136061631Y-65681739D01*
X135964869Y-65633358D01*
X135916488Y-65584977D01*
X135868107Y-65488215D01*
X135868107Y-65197929D01*
X135916488Y-65101167D01*
X135964869Y-65052786D01*
X136061631Y-65004405D01*
X136255155Y-65004405D01*
X136351917Y-65052786D01*
X137609821Y-65149548D02*
X137948488Y-65149548D01*
X138093631Y-65681739D02*
X137609821Y-65681739D01*
X137609821Y-64665739D01*
X138093631Y-64665739D01*
X138529060Y-65004405D02*
X138529060Y-65681739D01*
X138529060Y-65101167D02*
X138577440Y-65052786D01*
X138674202Y-65004405D01*
X138819345Y-65004405D01*
X138916107Y-65052786D01*
X138964488Y-65149548D01*
X138964488Y-65681739D01*
X139883726Y-65004405D02*
X139883726Y-65826881D01*
X139835345Y-65923643D01*
X139786964Y-65972024D01*
X139690202Y-66020405D01*
X139545060Y-66020405D01*
X139448298Y-65972024D01*
X139883726Y-65633358D02*
X139786964Y-65681739D01*
X139593440Y-65681739D01*
X139496679Y-65633358D01*
X139448298Y-65584977D01*
X139399917Y-65488215D01*
X139399917Y-65197929D01*
X139448298Y-65101167D01*
X139496679Y-65052786D01*
X139593440Y-65004405D01*
X139786964Y-65004405D01*
X139883726Y-65052786D01*
X140367536Y-65681739D02*
X140367536Y-65004405D01*
X140367536Y-64665739D02*
X140319155Y-64714120D01*
X140367536Y-64762500D01*
X140415917Y-64714120D01*
X140367536Y-64665739D01*
X140367536Y-64762500D01*
X140851345Y-65004405D02*
X140851345Y-65681739D01*
X140851345Y-65101167D02*
X140899726Y-65052786D01*
X140996488Y-65004405D01*
X141141631Y-65004405D01*
X141238393Y-65052786D01*
X141286774Y-65149548D01*
X141286774Y-65681739D01*
X142157631Y-65633358D02*
X142060869Y-65681739D01*
X141867345Y-65681739D01*
X141770583Y-65633358D01*
X141722202Y-65536596D01*
X141722202Y-65149548D01*
X141770583Y-65052786D01*
X141867345Y-65004405D01*
X142060869Y-65004405D01*
X142157631Y-65052786D01*
X142206012Y-65149548D01*
X142206012Y-65246310D01*
X141722202Y-65343072D01*
X143028488Y-65633358D02*
X142931726Y-65681739D01*
X142738202Y-65681739D01*
X142641440Y-65633358D01*
X142593060Y-65536596D01*
X142593060Y-65149548D01*
X142641440Y-65052786D01*
X142738202Y-65004405D01*
X142931726Y-65004405D01*
X143028488Y-65052786D01*
X143076869Y-65149548D01*
X143076869Y-65246310D01*
X142593060Y-65343072D01*
X143512298Y-65681739D02*
X143512298Y-65004405D01*
X143512298Y-65197929D02*
X143560679Y-65101167D01*
X143609060Y-65052786D01*
X143705821Y-65004405D01*
X143802583Y-65004405D01*
X144141250Y-65681739D02*
X144141250Y-65004405D01*
X144141250Y-64665739D02*
X144092869Y-64714120D01*
X144141250Y-64762500D01*
X144189631Y-64714120D01*
X144141250Y-64665739D01*
X144141250Y-64762500D01*
X144625060Y-65004405D02*
X144625060Y-65681739D01*
X144625060Y-65101167D02*
X144673440Y-65052786D01*
X144770202Y-65004405D01*
X144915345Y-65004405D01*
X145012107Y-65052786D01*
X145060488Y-65149548D01*
X145060488Y-65681739D01*
X145979726Y-65004405D02*
X145979726Y-65826881D01*
X145931345Y-65923643D01*
X145882964Y-65972024D01*
X145786202Y-66020405D01*
X145641060Y-66020405D01*
X145544298Y-65972024D01*
X145979726Y-65633358D02*
X145882964Y-65681739D01*
X145689440Y-65681739D01*
X145592679Y-65633358D01*
X145544298Y-65584977D01*
X145495917Y-65488215D01*
X145495917Y-65197929D01*
X145544298Y-65101167D01*
X145592679Y-65052786D01*
X145689440Y-65004405D01*
X145882964Y-65004405D01*
X145979726Y-65052786D01*
X127594964Y-67317499D02*
X127594964Y-66301499D01*
X128030393Y-67317499D02*
X128030393Y-66785308D01*
X127982012Y-66688546D01*
X127885250Y-66640165D01*
X127740107Y-66640165D01*
X127643345Y-66688546D01*
X127594964Y-66736927D01*
X128369060Y-66640165D02*
X128756107Y-66640165D01*
X128514202Y-66301499D02*
X128514202Y-67172356D01*
X128562583Y-67269118D01*
X128659345Y-67317499D01*
X128756107Y-67317499D01*
X128949631Y-66640165D02*
X129336679Y-66640165D01*
X129094774Y-66301499D02*
X129094774Y-67172356D01*
X129143155Y-67269118D01*
X129239917Y-67317499D01*
X129336679Y-67317499D01*
X129675345Y-66640165D02*
X129675345Y-67656165D01*
X129675345Y-66688546D02*
X129772107Y-66640165D01*
X129965631Y-66640165D01*
X130062393Y-66688546D01*
X130110774Y-66736927D01*
X130159155Y-66833689D01*
X130159155Y-67123975D01*
X130110774Y-67220737D01*
X130062393Y-67269118D01*
X129965631Y-67317499D01*
X129772107Y-67317499D01*
X129675345Y-67269118D01*
X130594583Y-67220737D02*
X130642964Y-67269118D01*
X130594583Y-67317499D01*
X130546202Y-67269118D01*
X130594583Y-67220737D01*
X130594583Y-67317499D01*
X130594583Y-66688546D02*
X130642964Y-66736927D01*
X130594583Y-66785308D01*
X130546202Y-66736927D01*
X130594583Y-66688546D01*
X130594583Y-66785308D01*
X131804107Y-66253118D02*
X130933250Y-67559403D01*
X132868488Y-66253118D02*
X131997631Y-67559403D01*
X133110393Y-66640165D02*
X133303917Y-67317499D01*
X133497440Y-66833689D01*
X133690964Y-67317499D01*
X133884488Y-66640165D01*
X134174774Y-66640165D02*
X134368298Y-67317499D01*
X134561821Y-66833689D01*
X134755345Y-67317499D01*
X134948869Y-66640165D01*
X135239155Y-66640165D02*
X135432679Y-67317499D01*
X135626202Y-66833689D01*
X135819726Y-67317499D01*
X136013250Y-66640165D01*
X136400298Y-67220737D02*
X136448679Y-67269118D01*
X136400298Y-67317499D01*
X136351917Y-67269118D01*
X136400298Y-67220737D01*
X136400298Y-67317499D01*
X136884107Y-67317499D02*
X136884107Y-66640165D01*
X136884107Y-66301499D02*
X136835726Y-66349880D01*
X136884107Y-66398260D01*
X136932488Y-66349880D01*
X136884107Y-66301499D01*
X136884107Y-66398260D01*
X137803345Y-67317499D02*
X137803345Y-66785308D01*
X137754964Y-66688546D01*
X137658202Y-66640165D01*
X137464679Y-66640165D01*
X137367917Y-66688546D01*
X137803345Y-67269118D02*
X137706583Y-67317499D01*
X137464679Y-67317499D01*
X137367917Y-67269118D01*
X137319536Y-67172356D01*
X137319536Y-67075594D01*
X137367917Y-66978832D01*
X137464679Y-66930451D01*
X137706583Y-66930451D01*
X137803345Y-66882070D01*
X138238774Y-67269118D02*
X138335536Y-67317499D01*
X138529060Y-67317499D01*
X138625821Y-67269118D01*
X138674202Y-67172356D01*
X138674202Y-67123975D01*
X138625821Y-67027213D01*
X138529060Y-66978832D01*
X138383917Y-66978832D01*
X138287155Y-66930451D01*
X138238774Y-66833689D01*
X138238774Y-66785308D01*
X138287155Y-66688546D01*
X138383917Y-66640165D01*
X138529060Y-66640165D01*
X138625821Y-66688546D01*
X139545060Y-67269118D02*
X139448298Y-67317499D01*
X139254774Y-67317499D01*
X139158012Y-67269118D01*
X139109631Y-67220737D01*
X139061250Y-67123975D01*
X139061250Y-66833689D01*
X139109631Y-66736927D01*
X139158012Y-66688546D01*
X139254774Y-66640165D01*
X139448298Y-66640165D01*
X139545060Y-66688546D01*
X140415917Y-67317499D02*
X140415917Y-66785308D01*
X140367536Y-66688546D01*
X140270774Y-66640165D01*
X140077250Y-66640165D01*
X139980488Y-66688546D01*
X140415917Y-67269118D02*
X140319155Y-67317499D01*
X140077250Y-67317499D01*
X139980488Y-67269118D01*
X139932107Y-67172356D01*
X139932107Y-67075594D01*
X139980488Y-66978832D01*
X140077250Y-66930451D01*
X140319155Y-66930451D01*
X140415917Y-66882070D01*
X141044869Y-67317499D02*
X140948107Y-67269118D01*
X140899726Y-67172356D01*
X140899726Y-66301499D01*
X141818964Y-67269118D02*
X141722202Y-67317499D01*
X141528679Y-67317499D01*
X141431917Y-67269118D01*
X141383536Y-67172356D01*
X141383536Y-66785308D01*
X141431917Y-66688546D01*
X141528679Y-66640165D01*
X141722202Y-66640165D01*
X141818964Y-66688546D01*
X141867345Y-66785308D01*
X141867345Y-66882070D01*
X141383536Y-66978832D01*
X142738202Y-67317499D02*
X142738202Y-66301499D01*
X142738202Y-67269118D02*
X142641440Y-67317499D01*
X142447917Y-67317499D01*
X142351155Y-67269118D01*
X142302774Y-67220737D01*
X142254393Y-67123975D01*
X142254393Y-66833689D01*
X142302774Y-66736927D01*
X142351155Y-66688546D01*
X142447917Y-66640165D01*
X142641440Y-66640165D01*
X142738202Y-66688546D01*
X143222012Y-67220737D02*
X143270393Y-67269118D01*
X143222012Y-67317499D01*
X143173631Y-67269118D01*
X143222012Y-67220737D01*
X143222012Y-67317499D01*
X144141250Y-67269118D02*
X144044488Y-67317499D01*
X143850964Y-67317499D01*
X143754202Y-67269118D01*
X143705821Y-67220737D01*
X143657440Y-67123975D01*
X143657440Y-66833689D01*
X143705821Y-66736927D01*
X143754202Y-66688546D01*
X143850964Y-66640165D01*
X144044488Y-66640165D01*
X144141250Y-66688546D01*
X144721821Y-67317499D02*
X144625060Y-67269118D01*
X144576679Y-67220737D01*
X144528298Y-67123975D01*
X144528298Y-66833689D01*
X144576679Y-66736927D01*
X144625060Y-66688546D01*
X144721821Y-66640165D01*
X144866964Y-66640165D01*
X144963726Y-66688546D01*
X145012107Y-66736927D01*
X145060488Y-66833689D01*
X145060488Y-67123975D01*
X145012107Y-67220737D01*
X144963726Y-67269118D01*
X144866964Y-67317499D01*
X144721821Y-67317499D01*
X145495917Y-67317499D02*
X145495917Y-66640165D01*
X145495917Y-66736927D02*
X145544298Y-66688546D01*
X145641060Y-66640165D01*
X145786202Y-66640165D01*
X145882964Y-66688546D01*
X145931345Y-66785308D01*
X145931345Y-67317499D01*
X145931345Y-66785308D02*
X145979726Y-66688546D01*
X146076488Y-66640165D01*
X146221631Y-66640165D01*
X146318393Y-66688546D01*
X146366774Y-66785308D01*
X146366774Y-67317499D01*
X128175536Y-68856497D02*
X128127155Y-68904878D01*
X127982012Y-68953259D01*
X127885250Y-68953259D01*
X127740107Y-68904878D01*
X127643345Y-68808116D01*
X127594964Y-68711354D01*
X127546583Y-68517830D01*
X127546583Y-68372687D01*
X127594964Y-68179163D01*
X127643345Y-68082401D01*
X127740107Y-67985640D01*
X127885250Y-67937259D01*
X127982012Y-67937259D01*
X128127155Y-67985640D01*
X128175536Y-68034020D01*
X129191536Y-68856497D02*
X129143155Y-68904878D01*
X128998012Y-68953259D01*
X128901250Y-68953259D01*
X128756107Y-68904878D01*
X128659345Y-68808116D01*
X128610964Y-68711354D01*
X128562583Y-68517830D01*
X128562583Y-68372687D01*
X128610964Y-68179163D01*
X128659345Y-68082401D01*
X128756107Y-67985640D01*
X128901250Y-67937259D01*
X128998012Y-67937259D01*
X129143155Y-67985640D01*
X129191536Y-68034020D01*
X130739726Y-68421068D02*
X130884869Y-68469449D01*
X130933250Y-68517830D01*
X130981631Y-68614592D01*
X130981631Y-68759735D01*
X130933250Y-68856497D01*
X130884869Y-68904878D01*
X130788107Y-68953259D01*
X130401060Y-68953259D01*
X130401060Y-67937259D01*
X130739726Y-67937259D01*
X130836488Y-67985640D01*
X130884869Y-68034020D01*
X130933250Y-68130782D01*
X130933250Y-68227544D01*
X130884869Y-68324306D01*
X130836488Y-68372687D01*
X130739726Y-68421068D01*
X130401060Y-68421068D01*
X131610583Y-68469449D02*
X131610583Y-68953259D01*
X131271917Y-67937259D02*
X131610583Y-68469449D01*
X131949250Y-67937259D01*
X132287917Y-68566211D02*
X133062012Y-68566211D01*
X133497440Y-68904878D02*
X133642583Y-68953259D01*
X133884488Y-68953259D01*
X133981250Y-68904878D01*
X134029631Y-68856497D01*
X134078012Y-68759735D01*
X134078012Y-68662973D01*
X134029631Y-68566211D01*
X133981250Y-68517830D01*
X133884488Y-68469449D01*
X133690964Y-68421068D01*
X133594202Y-68372687D01*
X133545821Y-68324306D01*
X133497440Y-68227544D01*
X133497440Y-68130782D01*
X133545821Y-68034020D01*
X133594202Y-67985640D01*
X133690964Y-67937259D01*
X133932869Y-67937259D01*
X134078012Y-67985640D01*
X134465060Y-68662973D02*
X134948869Y-68662973D01*
X134368298Y-68953259D02*
X134706964Y-67937259D01*
X135045631Y-68953259D01*
X136980869Y-68179163D02*
X136884107Y-68130782D01*
X136690583Y-68130782D01*
X136593821Y-68179163D01*
X136497060Y-68275925D01*
X136448679Y-68372687D01*
X136448679Y-68566211D01*
X136497060Y-68662973D01*
X136593821Y-68759735D01*
X136690583Y-68808116D01*
X136884107Y-68808116D01*
X136980869Y-68759735D01*
X136787345Y-67792116D02*
X136545440Y-67840497D01*
X136303536Y-67985640D01*
X136158393Y-68227544D01*
X136110012Y-68469449D01*
X136158393Y-68711354D01*
X136303536Y-68953259D01*
X136545440Y-69098401D01*
X136787345Y-69146782D01*
X137029250Y-69098401D01*
X137271155Y-68953259D01*
X137416298Y-68711354D01*
X137464679Y-68469449D01*
X137416298Y-68227544D01*
X137271155Y-67985640D01*
X137029250Y-67840497D01*
X136787345Y-67792116D01*
X137851726Y-68034020D02*
X137900107Y-67985640D01*
X137996869Y-67937259D01*
X138238774Y-67937259D01*
X138335536Y-67985640D01*
X138383917Y-68034020D01*
X138432298Y-68130782D01*
X138432298Y-68227544D01*
X138383917Y-68372687D01*
X137803345Y-68953259D01*
X138432298Y-68953259D01*
X139061250Y-67937259D02*
X139158012Y-67937259D01*
X139254774Y-67985640D01*
X139303155Y-68034020D01*
X139351536Y-68130782D01*
X139399917Y-68324306D01*
X139399917Y-68566211D01*
X139351536Y-68759735D01*
X139303155Y-68856497D01*
X139254774Y-68904878D01*
X139158012Y-68953259D01*
X139061250Y-68953259D01*
X138964488Y-68904878D01*
X138916107Y-68856497D01*
X138867726Y-68759735D01*
X138819345Y-68566211D01*
X138819345Y-68324306D01*
X138867726Y-68130782D01*
X138916107Y-68034020D01*
X138964488Y-67985640D01*
X139061250Y-67937259D01*
X139786964Y-68034020D02*
X139835345Y-67985640D01*
X139932107Y-67937259D01*
X140174012Y-67937259D01*
X140270774Y-67985640D01*
X140319155Y-68034020D01*
X140367536Y-68130782D01*
X140367536Y-68227544D01*
X140319155Y-68372687D01*
X139738583Y-68953259D01*
X140367536Y-68953259D01*
X141286774Y-67937259D02*
X140802964Y-67937259D01*
X140754583Y-68421068D01*
X140802964Y-68372687D01*
X140899726Y-68324306D01*
X141141631Y-68324306D01*
X141238393Y-68372687D01*
X141286774Y-68421068D01*
X141335155Y-68517830D01*
X141335155Y-68759735D01*
X141286774Y-68856497D01*
X141238393Y-68904878D01*
X141141631Y-68953259D01*
X140899726Y-68953259D01*
X140802964Y-68904878D01*
X140754583Y-68856497D01*
D11*
X116363714Y-86177380D02*
X115792285Y-86177380D01*
X116078000Y-86177380D02*
X116078000Y-85177380D01*
X115982761Y-85320238D01*
X115887523Y-85415476D01*
X115792285Y-85463095D01*
X116530380Y-95353095D02*
X115530380Y-95353095D01*
X115530380Y-94972142D01*
X115578000Y-94876904D01*
X115625619Y-94829285D01*
X115720857Y-94781666D01*
X115863714Y-94781666D01*
X115958952Y-94829285D01*
X116006571Y-94876904D01*
X116054190Y-94972142D01*
X116054190Y-95353095D01*
X116530380Y-93829285D02*
X116530380Y-94400714D01*
X116530380Y-94115000D02*
X115530380Y-94115000D01*
X115673238Y-94210238D01*
X115768476Y-94305476D01*
X115816095Y-94400714D01*
X116530380Y-115927095D02*
X115530380Y-115927095D01*
X115530380Y-115546142D01*
X115578000Y-115450904D01*
X115625619Y-115403285D01*
X115720857Y-115355666D01*
X115863714Y-115355666D01*
X115958952Y-115403285D01*
X116006571Y-115450904D01*
X116054190Y-115546142D01*
X116054190Y-115927095D01*
X115625619Y-114974714D02*
X115578000Y-114927095D01*
X115530380Y-114831857D01*
X115530380Y-114593761D01*
X115578000Y-114498523D01*
X115625619Y-114450904D01*
X115720857Y-114403285D01*
X115816095Y-114403285D01*
X115958952Y-114450904D01*
X116530380Y-115022333D01*
X116530380Y-114403285D01*
X159456380Y-88749095D02*
X158456380Y-88749095D01*
X158456380Y-88368142D01*
X158504000Y-88272904D01*
X158551619Y-88225285D01*
X158646857Y-88177666D01*
X158789714Y-88177666D01*
X158884952Y-88225285D01*
X158932571Y-88272904D01*
X158980190Y-88368142D01*
X158980190Y-88749095D01*
X158456380Y-87844333D02*
X158456380Y-87225285D01*
X158837333Y-87558619D01*
X158837333Y-87415761D01*
X158884952Y-87320523D01*
X158932571Y-87272904D01*
X159027809Y-87225285D01*
X159265904Y-87225285D01*
X159361142Y-87272904D01*
X159408761Y-87320523D01*
X159456380Y-87415761D01*
X159456380Y-87701476D01*
X159408761Y-87796714D01*
X159361142Y-87844333D01*
X159456380Y-113133095D02*
X158456380Y-113133095D01*
X158456380Y-112752142D01*
X158504000Y-112656904D01*
X158551619Y-112609285D01*
X158646857Y-112561666D01*
X158789714Y-112561666D01*
X158884952Y-112609285D01*
X158932571Y-112656904D01*
X158980190Y-112752142D01*
X158980190Y-113133095D01*
X158789714Y-111704523D02*
X159456380Y-111704523D01*
X158408761Y-111942619D02*
X159123047Y-112180714D01*
X159123047Y-111561666D01*
X144073666Y-73217380D02*
X144073666Y-73931666D01*
X144026047Y-74074523D01*
X143930809Y-74169761D01*
X143787952Y-74217380D01*
X143692714Y-74217380D01*
X144549857Y-74217380D02*
X144549857Y-73217380D01*
X144930809Y-73217380D01*
X145026047Y-73265000D01*
X145073666Y-73312619D01*
X145121285Y-73407857D01*
X145121285Y-73550714D01*
X145073666Y-73645952D01*
X145026047Y-73693571D01*
X144930809Y-73741190D01*
X144549857Y-73741190D01*
X146073666Y-74217380D02*
X145502238Y-74217380D01*
X145787952Y-74217380D02*
X145787952Y-73217380D01*
X145692714Y-73360238D01*
X145597476Y-73455476D01*
X145502238Y-73503095D01*
X177633333Y-99767380D02*
X177300000Y-99291190D01*
X177061904Y-99767380D02*
X177061904Y-98767380D01*
X177442857Y-98767380D01*
X177538095Y-98815000D01*
X177585714Y-98862619D01*
X177633333Y-98957857D01*
X177633333Y-99100714D01*
X177585714Y-99195952D01*
X177538095Y-99243571D01*
X177442857Y-99291190D01*
X177061904Y-99291190D01*
X178490476Y-99100714D02*
X178490476Y-99767380D01*
X178252380Y-98719761D02*
X178014285Y-99434047D01*
X178633333Y-99434047D01*
X226405380Y-104719285D02*
X225405380Y-104719285D01*
X225405380Y-104338333D01*
X225453000Y-104243095D01*
X225500619Y-104195476D01*
X225595857Y-104147857D01*
X225738714Y-104147857D01*
X225833952Y-104195476D01*
X225881571Y-104243095D01*
X225929190Y-104338333D01*
X225929190Y-104719285D01*
X225405380Y-103814523D02*
X226405380Y-103147857D01*
X225405380Y-103147857D02*
X226405380Y-103814523D01*
X225738714Y-102338333D02*
X226405380Y-102338333D01*
X225357761Y-102576428D02*
X226072047Y-102814523D01*
X226072047Y-102195476D01*
X131064095Y-87857380D02*
X131064095Y-88666904D01*
X131111714Y-88762142D01*
X131159333Y-88809761D01*
X131254571Y-88857380D01*
X131445047Y-88857380D01*
X131540285Y-88809761D01*
X131587904Y-88762142D01*
X131635523Y-88666904D01*
X131635523Y-87857380D01*
X132064095Y-87952619D02*
X132111714Y-87905000D01*
X132206952Y-87857380D01*
X132445047Y-87857380D01*
X132540285Y-87905000D01*
X132587904Y-87952619D01*
X132635523Y-88047857D01*
X132635523Y-88143095D01*
X132587904Y-88285952D01*
X132016476Y-88857380D01*
X132635523Y-88857380D01*
X131064095Y-82650380D02*
X131064095Y-83459904D01*
X131111714Y-83555142D01*
X131159333Y-83602761D01*
X131254571Y-83650380D01*
X131445047Y-83650380D01*
X131540285Y-83602761D01*
X131587904Y-83555142D01*
X131635523Y-83459904D01*
X131635523Y-82650380D01*
X132635523Y-83650380D02*
X132064095Y-83650380D01*
X132349809Y-83650380D02*
X132349809Y-82650380D01*
X132254571Y-82793238D01*
X132159333Y-82888476D01*
X132064095Y-82936095D01*
X178145380Y-109799285D02*
X177145380Y-109799285D01*
X177145380Y-109418333D01*
X177193000Y-109323095D01*
X177240619Y-109275476D01*
X177335857Y-109227857D01*
X177478714Y-109227857D01*
X177573952Y-109275476D01*
X177621571Y-109323095D01*
X177669190Y-109418333D01*
X177669190Y-109799285D01*
X177145380Y-108894523D02*
X178145380Y-108227857D01*
X177145380Y-108227857D02*
X178145380Y-108894523D01*
X177240619Y-107894523D02*
X177193000Y-107846904D01*
X177145380Y-107751666D01*
X177145380Y-107513571D01*
X177193000Y-107418333D01*
X177240619Y-107370714D01*
X177335857Y-107323095D01*
X177431095Y-107323095D01*
X177573952Y-107370714D01*
X178145380Y-107942142D01*
X178145380Y-107323095D01*
X143216333Y-82112380D02*
X142883000Y-81636190D01*
X142644904Y-82112380D02*
X142644904Y-81112380D01*
X143025857Y-81112380D01*
X143121095Y-81160000D01*
X143168714Y-81207619D01*
X143216333Y-81302857D01*
X143216333Y-81445714D01*
X143168714Y-81540952D01*
X143121095Y-81588571D01*
X143025857Y-81636190D01*
X142644904Y-81636190D01*
X143597285Y-81207619D02*
X143644904Y-81160000D01*
X143740142Y-81112380D01*
X143978238Y-81112380D01*
X144073476Y-81160000D01*
X144121095Y-81207619D01*
X144168714Y-81302857D01*
X144168714Y-81398095D01*
X144121095Y-81540952D01*
X143549666Y-82112380D01*
X144168714Y-82112380D01*
X181824333Y-102180380D02*
X181491000Y-101704190D01*
X181252904Y-102180380D02*
X181252904Y-101180380D01*
X181633857Y-101180380D01*
X181729095Y-101228000D01*
X181776714Y-101275619D01*
X181824333Y-101370857D01*
X181824333Y-101513714D01*
X181776714Y-101608952D01*
X181729095Y-101656571D01*
X181633857Y-101704190D01*
X181252904Y-101704190D01*
X182157666Y-101180380D02*
X182776714Y-101180380D01*
X182443380Y-101561333D01*
X182586238Y-101561333D01*
X182681476Y-101608952D01*
X182729095Y-101656571D01*
X182776714Y-101751809D01*
X182776714Y-101989904D01*
X182729095Y-102085142D01*
X182681476Y-102132761D01*
X182586238Y-102180380D01*
X182300523Y-102180380D01*
X182205285Y-102132761D01*
X182157666Y-102085142D01*
X226405380Y-77795285D02*
X225405380Y-77795285D01*
X225405380Y-77414333D01*
X225453000Y-77319095D01*
X225500619Y-77271476D01*
X225595857Y-77223857D01*
X225738714Y-77223857D01*
X225833952Y-77271476D01*
X225881571Y-77319095D01*
X225929190Y-77414333D01*
X225929190Y-77795285D01*
X225405380Y-76890523D02*
X226405380Y-76223857D01*
X225405380Y-76223857D02*
X226405380Y-76890523D01*
X225405380Y-75938142D02*
X225405380Y-75319095D01*
X225786333Y-75652428D01*
X225786333Y-75509571D01*
X225833952Y-75414333D01*
X225881571Y-75366714D01*
X225976809Y-75319095D01*
X226214904Y-75319095D01*
X226310142Y-75366714D01*
X226357761Y-75414333D01*
X226405380Y-75509571D01*
X226405380Y-75795285D01*
X226357761Y-75890523D01*
X226310142Y-75938142D01*
X185555095Y-100500380D02*
X186126523Y-100500380D01*
X185840809Y-101500380D02*
X185840809Y-100500380D01*
X186459857Y-101500380D02*
X186459857Y-100500380D01*
X186840809Y-100500380D01*
X186936047Y-100548000D01*
X186983666Y-100595619D01*
X187031285Y-100690857D01*
X187031285Y-100833714D01*
X186983666Y-100928952D01*
X186936047Y-100976571D01*
X186840809Y-101024190D01*
X186459857Y-101024190D01*
X187983666Y-101500380D02*
X187412238Y-101500380D01*
X187697952Y-101500380D02*
X187697952Y-100500380D01*
X187602714Y-100643238D01*
X187507476Y-100738476D01*
X187412238Y-100786095D01*
X140295333Y-90146142D02*
X140247714Y-90193761D01*
X140104857Y-90241380D01*
X140009619Y-90241380D01*
X139866761Y-90193761D01*
X139771523Y-90098523D01*
X139723904Y-90003285D01*
X139676285Y-89812809D01*
X139676285Y-89669952D01*
X139723904Y-89479476D01*
X139771523Y-89384238D01*
X139866761Y-89289000D01*
X140009619Y-89241380D01*
X140104857Y-89241380D01*
X140247714Y-89289000D01*
X140295333Y-89336619D01*
X140676285Y-89336619D02*
X140723904Y-89289000D01*
X140819142Y-89241380D01*
X141057238Y-89241380D01*
X141152476Y-89289000D01*
X141200095Y-89336619D01*
X141247714Y-89431857D01*
X141247714Y-89527095D01*
X141200095Y-89669952D01*
X140628666Y-90241380D01*
X141247714Y-90241380D01*
X199017095Y-61809380D02*
X199588523Y-61809380D01*
X199302809Y-62809380D02*
X199302809Y-61809380D01*
X199921857Y-62809380D02*
X199921857Y-61809380D01*
X200302809Y-61809380D01*
X200398047Y-61857000D01*
X200445666Y-61904619D01*
X200493285Y-61999857D01*
X200493285Y-62142714D01*
X200445666Y-62237952D01*
X200398047Y-62285571D01*
X200302809Y-62333190D01*
X199921857Y-62333190D01*
X200874238Y-61904619D02*
X200921857Y-61857000D01*
X201017095Y-61809380D01*
X201255190Y-61809380D01*
X201350428Y-61857000D01*
X201398047Y-61904619D01*
X201445666Y-61999857D01*
X201445666Y-62095095D01*
X201398047Y-62237952D01*
X200826619Y-62809380D01*
X201445666Y-62809380D01*
X140295333Y-84939142D02*
X140247714Y-84986761D01*
X140104857Y-85034380D01*
X140009619Y-85034380D01*
X139866761Y-84986761D01*
X139771523Y-84891523D01*
X139723904Y-84796285D01*
X139676285Y-84605809D01*
X139676285Y-84462952D01*
X139723904Y-84272476D01*
X139771523Y-84177238D01*
X139866761Y-84082000D01*
X140009619Y-84034380D01*
X140104857Y-84034380D01*
X140247714Y-84082000D01*
X140295333Y-84129619D01*
X141247714Y-85034380D02*
X140676285Y-85034380D01*
X140962000Y-85034380D02*
X140962000Y-84034380D01*
X140866761Y-84177238D01*
X140771523Y-84272476D01*
X140676285Y-84320095D01*
X131659333Y-96779142D02*
X131611714Y-96826761D01*
X131468857Y-96874380D01*
X131373619Y-96874380D01*
X131230761Y-96826761D01*
X131135523Y-96731523D01*
X131087904Y-96636285D01*
X131040285Y-96445809D01*
X131040285Y-96302952D01*
X131087904Y-96112476D01*
X131135523Y-96017238D01*
X131230761Y-95922000D01*
X131373619Y-95874380D01*
X131468857Y-95874380D01*
X131611714Y-95922000D01*
X131659333Y-95969619D01*
X131992666Y-95874380D02*
X132611714Y-95874380D01*
X132278380Y-96255333D01*
X132421238Y-96255333D01*
X132516476Y-96302952D01*
X132564095Y-96350571D01*
X132611714Y-96445809D01*
X132611714Y-96683904D01*
X132564095Y-96779142D01*
X132516476Y-96826761D01*
X132421238Y-96874380D01*
X132135523Y-96874380D01*
X132040285Y-96826761D01*
X131992666Y-96779142D01*
X139152333Y-82112380D02*
X138819000Y-81636190D01*
X138580904Y-82112380D02*
X138580904Y-81112380D01*
X138961857Y-81112380D01*
X139057095Y-81160000D01*
X139104714Y-81207619D01*
X139152333Y-81302857D01*
X139152333Y-81445714D01*
X139104714Y-81540952D01*
X139057095Y-81588571D01*
X138961857Y-81636190D01*
X138580904Y-81636190D01*
X140104714Y-82112380D02*
X139533285Y-82112380D01*
X139819000Y-82112380D02*
X139819000Y-81112380D01*
X139723761Y-81255238D01*
X139628523Y-81350476D01*
X139533285Y-81398095D01*
X178145380Y-86939285D02*
X177145380Y-86939285D01*
X177145380Y-86558333D01*
X177193000Y-86463095D01*
X177240619Y-86415476D01*
X177335857Y-86367857D01*
X177478714Y-86367857D01*
X177573952Y-86415476D01*
X177621571Y-86463095D01*
X177669190Y-86558333D01*
X177669190Y-86939285D01*
X177145380Y-86034523D02*
X178145380Y-85367857D01*
X177145380Y-85367857D02*
X178145380Y-86034523D01*
X178145380Y-84463095D02*
X178145380Y-85034523D01*
X178145380Y-84748809D02*
X177145380Y-84748809D01*
X177288238Y-84844047D01*
X177383476Y-84939285D01*
X177431095Y-85034523D01*
X112268000Y-104775000D02*
X114808000Y-104775000D01*
X112268000Y-86995000D02*
X112268000Y-104775000D01*
X114808000Y-104775000D02*
X114808000Y-86995000D01*
X115088000Y-85725000D02*
X115088000Y-84175000D01*
X115088000Y-84175000D02*
X111988000Y-84175000D01*
X111988000Y-84175000D02*
X111988000Y-85725000D01*
X112268000Y-86995000D02*
X114808000Y-86995000D01*
X112268000Y-109855000D02*
X114808000Y-109855000D01*
X115088000Y-108585000D02*
X115088000Y-107035000D01*
X114808000Y-122555000D02*
X114808000Y-109855000D01*
X112268000Y-109855000D02*
X112268000Y-122555000D01*
X112268000Y-122555000D02*
X114808000Y-122555000D01*
X115088000Y-107035000D02*
X111988000Y-107035000D01*
X111988000Y-107035000D02*
X111988000Y-108585000D01*
X160528000Y-77851000D02*
X160528000Y-100711000D01*
X160528000Y-100711000D02*
X163068000Y-100711000D01*
X163068000Y-100711000D02*
X163068000Y-77851000D01*
X160528000Y-77851000D02*
X163068000Y-77851000D01*
X163068000Y-122555000D02*
X163068000Y-104775000D01*
X160248000Y-101955000D02*
X160248000Y-103505000D01*
X160528000Y-104775000D02*
X160528000Y-122555000D01*
X160528000Y-104775000D02*
X163068000Y-104775000D01*
X163348000Y-103505000D02*
X163348000Y-101955000D01*
X160528000Y-122555000D02*
X163068000Y-122555000D01*
X163348000Y-101955000D02*
X160248000Y-101955000D01*
X115824000Y-71755000D02*
G75*
G03*
X115824000Y-71755000I-2286000J0D01*
G01*
X120904000Y-123825000D02*
G75*
G03*
X120904000Y-123825000I-2286000J0D01*
G01*
X164084000Y-73025000D02*
G75*
G03*
X164084000Y-73025000I-2286000J0D01*
G01*
X148844000Y-123825000D02*
G75*
G03*
X148844000Y-123825000I-2286000J0D01*
G01*
D12*
X145607000Y-76565000D02*
X144207000Y-76565000D01*
X143507000Y-75865000D02*
X143507000Y-75265000D01*
X144207000Y-74565000D02*
X145607000Y-74565000D01*
X146307000Y-75265000D02*
X146307000Y-75865000D01*
X144207000Y-74565000D02*
G75*
G03*
X143507000Y-75265000I-1J-699999D01*
G01*
X146307000Y-75265000D02*
G75*
G03*
X145607000Y-74565000I-700000J0D01*
G01*
X143507000Y-75865000D02*
G75*
G03*
X144207000Y-76565000I699999J-1D01*
G01*
X145607000Y-76565000D02*
G75*
G03*
X146307000Y-75865000I0J700000D01*
G01*
X176209000Y-60960000D02*
X176209000Y-61020000D01*
X173549000Y-60960000D02*
X173549000Y-61020000D01*
X173549000Y-59690000D02*
X173549000Y-58360000D01*
X173549000Y-60960000D02*
X176209000Y-60960000D01*
X173549000Y-61020000D02*
X176209000Y-61020000D01*
X173549000Y-58360000D02*
X174879000Y-58360000D01*
X177572936Y-100230000D02*
X178027064Y-100230000D01*
X177572936Y-101700000D02*
X178027064Y-101700000D01*
D11*
X219303000Y-101955000D02*
X219303000Y-103505000D01*
X219583000Y-104775000D02*
X222123000Y-104775000D01*
X219583000Y-104775000D02*
X219583000Y-122555000D01*
X222403000Y-101955000D02*
X219303000Y-101955000D01*
X222123000Y-122555000D02*
X222123000Y-104775000D01*
X222403000Y-103505000D02*
X222403000Y-101955000D01*
X219583000Y-122555000D02*
X222123000Y-122555000D01*
D12*
X171009000Y-60579000D02*
X171009000Y-59249000D01*
X171009000Y-61849000D02*
X171009000Y-61909000D01*
X173669000Y-61849000D02*
X173669000Y-61909000D01*
X171009000Y-61909000D02*
X173669000Y-61909000D01*
X171009000Y-61849000D02*
X173669000Y-61849000D01*
X171009000Y-59249000D02*
X172339000Y-59249000D01*
X131826000Y-89245000D02*
X132626000Y-89245000D01*
X131826000Y-89245000D02*
X130026000Y-89245000D01*
X131826000Y-92365000D02*
X131026000Y-92365000D01*
X131826000Y-92365000D02*
X132626000Y-92365000D01*
X131826000Y-87158000D02*
X132626000Y-87158000D01*
X131826000Y-84038000D02*
X130026000Y-84038000D01*
X131826000Y-84038000D02*
X132626000Y-84038000D01*
X131826000Y-87158000D02*
X131026000Y-87158000D01*
X199203000Y-124841000D02*
X201863000Y-124841000D01*
X199203000Y-122241000D02*
X200533000Y-122241000D01*
X199203000Y-124841000D02*
X199203000Y-124901000D01*
X199203000Y-124901000D02*
X201863000Y-124901000D01*
X201863000Y-124841000D02*
X201863000Y-124901000D01*
X199203000Y-123571000D02*
X199203000Y-122241000D01*
D11*
X173863000Y-122555000D02*
X173863000Y-109855000D01*
X174143000Y-108585000D02*
X174143000Y-107035000D01*
X174143000Y-107035000D02*
X171043000Y-107035000D01*
X171323000Y-109855000D02*
X173863000Y-109855000D01*
X171323000Y-109855000D02*
X171323000Y-122555000D01*
X171043000Y-107035000D02*
X171043000Y-108585000D01*
X171323000Y-122555000D02*
X173863000Y-122555000D01*
D12*
X143610064Y-80745000D02*
X143155936Y-80745000D01*
X143610064Y-79275000D02*
X143155936Y-79275000D01*
X176089000Y-59249000D02*
X177419000Y-59249000D01*
X176089000Y-61849000D02*
X178749000Y-61849000D01*
X176089000Y-60579000D02*
X176089000Y-59249000D01*
X176089000Y-61909000D02*
X178749000Y-61909000D01*
X178749000Y-61849000D02*
X178749000Y-61909000D01*
X176089000Y-61849000D02*
X176089000Y-61909000D01*
X194123000Y-122241000D02*
X195453000Y-122241000D01*
X196783000Y-124841000D02*
X196783000Y-124901000D01*
X194123000Y-123571000D02*
X194123000Y-122241000D01*
X194123000Y-124841000D02*
X196783000Y-124841000D01*
X194123000Y-124841000D02*
X194123000Y-124901000D01*
X194123000Y-124901000D02*
X196783000Y-124901000D01*
X186503000Y-125730000D02*
X186503000Y-125790000D01*
X186503000Y-125790000D02*
X189163000Y-125790000D01*
X189163000Y-125730000D02*
X189163000Y-125790000D01*
X186503000Y-124460000D02*
X186503000Y-123130000D01*
X186503000Y-123130000D02*
X187833000Y-123130000D01*
X186503000Y-125730000D02*
X189163000Y-125730000D01*
X181763936Y-102643000D02*
X182218064Y-102643000D01*
X181763936Y-104113000D02*
X182218064Y-104113000D01*
D11*
X219583000Y-100711000D02*
X222123000Y-100711000D01*
X219583000Y-77851000D02*
X219583000Y-100711000D01*
X222403000Y-75031000D02*
X219303000Y-75031000D01*
X222403000Y-76581000D02*
X222403000Y-75031000D01*
X222123000Y-100711000D02*
X222123000Y-77851000D01*
X219303000Y-75031000D02*
X219303000Y-76581000D01*
X219583000Y-77851000D02*
X222123000Y-77851000D01*
D12*
X183709000Y-58360000D02*
X185039000Y-58360000D01*
X186369000Y-60960000D02*
X186369000Y-61020000D01*
X183709000Y-60960000D02*
X186369000Y-60960000D01*
X183709000Y-60960000D02*
X183709000Y-61020000D01*
X183709000Y-59690000D02*
X183709000Y-58360000D01*
X183709000Y-61020000D02*
X186369000Y-61020000D01*
X185487000Y-104708000D02*
X188147000Y-104708000D01*
X188147000Y-104648000D02*
X188147000Y-104708000D01*
X185487000Y-102048000D02*
X186817000Y-102048000D01*
X185487000Y-103378000D02*
X185487000Y-102048000D01*
X185487000Y-104648000D02*
X188147000Y-104648000D01*
X185487000Y-104648000D02*
X185487000Y-104708000D01*
X137406748Y-90524000D02*
X137929252Y-90524000D01*
X137406748Y-89054000D02*
X137929252Y-89054000D01*
X198949000Y-61020000D02*
X201609000Y-61020000D01*
X198949000Y-58360000D02*
X200279000Y-58360000D01*
X198949000Y-60960000D02*
X198949000Y-61020000D01*
X201609000Y-60960000D02*
X201609000Y-61020000D01*
X198949000Y-59690000D02*
X198949000Y-58360000D01*
X198949000Y-60960000D02*
X201609000Y-60960000D01*
X181423000Y-125790000D02*
X184083000Y-125790000D01*
X184083000Y-125730000D02*
X184083000Y-125790000D01*
X181423000Y-125730000D02*
X181423000Y-125790000D01*
X181423000Y-125730000D02*
X184083000Y-125730000D01*
X181423000Y-123130000D02*
X182753000Y-123130000D01*
X181423000Y-124460000D02*
X181423000Y-123130000D01*
X191583000Y-125790000D02*
X194243000Y-125790000D01*
X191583000Y-124460000D02*
X191583000Y-123130000D01*
X191583000Y-125730000D02*
X194243000Y-125730000D01*
X194243000Y-125730000D02*
X194243000Y-125790000D01*
X191583000Y-125730000D02*
X191583000Y-125790000D01*
X191583000Y-123130000D02*
X192913000Y-123130000D01*
X137406748Y-83847000D02*
X137929252Y-83847000D01*
X137406748Y-85317000D02*
X137929252Y-85317000D01*
X188789000Y-58360000D02*
X190119000Y-58360000D01*
X188789000Y-59690000D02*
X188789000Y-58360000D01*
X188789000Y-61020000D02*
X191449000Y-61020000D01*
X188789000Y-60960000D02*
X191449000Y-60960000D01*
X191449000Y-60960000D02*
X191449000Y-61020000D01*
X188789000Y-60960000D02*
X188789000Y-61020000D01*
X196663000Y-123130000D02*
X197993000Y-123130000D01*
X196663000Y-124460000D02*
X196663000Y-123130000D01*
X196663000Y-125730000D02*
X196663000Y-125790000D01*
X196663000Y-125790000D02*
X199323000Y-125790000D01*
X196663000Y-125730000D02*
X199323000Y-125730000D01*
X199323000Y-125730000D02*
X199323000Y-125790000D01*
X178629000Y-60960000D02*
X181289000Y-60960000D01*
X181289000Y-60960000D02*
X181289000Y-61020000D01*
X178629000Y-61020000D02*
X181289000Y-61020000D01*
X178629000Y-58360000D02*
X179959000Y-58360000D01*
X178629000Y-60960000D02*
X178629000Y-61020000D01*
X178629000Y-59690000D02*
X178629000Y-58360000D01*
X132087252Y-95477000D02*
X131564748Y-95477000D01*
X132087252Y-94007000D02*
X131564748Y-94007000D01*
X181169000Y-61849000D02*
X183829000Y-61849000D01*
X183829000Y-61849000D02*
X183829000Y-61909000D01*
X181169000Y-60579000D02*
X181169000Y-59249000D01*
X181169000Y-61909000D02*
X183829000Y-61909000D01*
X181169000Y-61849000D02*
X181169000Y-61909000D01*
X181169000Y-59249000D02*
X182499000Y-59249000D01*
X139546064Y-80745000D02*
X139091936Y-80745000D01*
X139546064Y-79275000D02*
X139091936Y-79275000D01*
D11*
X171323000Y-86995000D02*
X171323000Y-104775000D01*
X173863000Y-104775000D02*
X173863000Y-86995000D01*
X174143000Y-85725000D02*
X174143000Y-84175000D01*
X171043000Y-84175000D02*
X171043000Y-85725000D01*
X171323000Y-104775000D02*
X173863000Y-104775000D01*
X174143000Y-84175000D02*
X171043000Y-84175000D01*
X171323000Y-86995000D02*
X173863000Y-86995000D01*
D12*
X183963000Y-122241000D02*
X185293000Y-122241000D01*
X186623000Y-124841000D02*
X186623000Y-124901000D01*
X183963000Y-124901000D02*
X186623000Y-124901000D01*
X183963000Y-123571000D02*
X183963000Y-122241000D01*
X183963000Y-124841000D02*
X183963000Y-124901000D01*
X183963000Y-124841000D02*
X186623000Y-124841000D01*
X189043000Y-124901000D02*
X191703000Y-124901000D01*
X189043000Y-122241000D02*
X190373000Y-122241000D01*
X189043000Y-124841000D02*
X191703000Y-124841000D01*
X191703000Y-124841000D02*
X191703000Y-124901000D01*
X189043000Y-124841000D02*
X189043000Y-124901000D01*
X189043000Y-123571000D02*
X189043000Y-122241000D01*
X186249000Y-61909000D02*
X188909000Y-61909000D01*
X186249000Y-59249000D02*
X187579000Y-59249000D01*
X188909000Y-61849000D02*
X188909000Y-61909000D01*
X186249000Y-60579000D02*
X186249000Y-59249000D01*
X186249000Y-61849000D02*
X188909000Y-61849000D01*
X186249000Y-61849000D02*
X186249000Y-61909000D01*
D13*
X113538000Y-85725000D03*
X113538000Y-88265000D03*
X113538000Y-90805000D03*
X113538000Y-93345000D03*
X113538000Y-95885000D03*
X113538000Y-98425000D03*
X113538000Y-100965000D03*
X113538000Y-103505000D03*
X113538000Y-108585000D03*
X113538000Y-111125000D03*
X113538000Y-113665000D03*
X113538000Y-116205000D03*
X113538000Y-118745000D03*
X113538000Y-121285000D03*
X161798000Y-76581000D03*
X161798000Y-79121000D03*
X161798000Y-81661000D03*
X161798000Y-84201000D03*
X161798000Y-86741000D03*
X161798000Y-89281000D03*
X161798000Y-91821000D03*
X161798000Y-94361000D03*
X161798000Y-96901000D03*
X161798000Y-99441000D03*
X161798000Y-103505000D03*
X161798000Y-106045000D03*
X161798000Y-108585000D03*
X161798000Y-111125000D03*
X161798000Y-113665000D03*
X161798000Y-116205000D03*
X161798000Y-118745000D03*
X161798000Y-121285000D03*
D14*
X113538000Y-71755000D03*
X118618000Y-123825000D03*
X161798000Y-73025000D03*
X146558000Y-123825000D03*
D13*
X220853000Y-103505000D03*
X220853000Y-106045000D03*
X220853000Y-108585000D03*
X220853000Y-111125000D03*
X220853000Y-113665000D03*
X220853000Y-116205000D03*
X220853000Y-118745000D03*
X220853000Y-121285000D03*
X172593000Y-108585000D03*
X172593000Y-111125000D03*
X172593000Y-113665000D03*
X172593000Y-116205000D03*
X172593000Y-118745000D03*
X172593000Y-121285000D03*
X220853000Y-76581000D03*
X220853000Y-79121000D03*
X220853000Y-81661000D03*
X220853000Y-84201000D03*
X220853000Y-86741000D03*
X220853000Y-89281000D03*
X220853000Y-91821000D03*
X220853000Y-94361000D03*
X220853000Y-96901000D03*
X220853000Y-99441000D03*
X172593000Y-85725000D03*
X172593000Y-88265000D03*
X172593000Y-90805000D03*
X172593000Y-93345000D03*
X172593000Y-95885000D03*
X172593000Y-98425000D03*
X172593000Y-100965000D03*
X172593000Y-103505000D03*
M02*
