M48
INCH,TZ
T1C0.0120
T2C0.0394
T3C0.0400
T4C0.1200
T5C0.1260
%
G90
G05
T1
X50550Y-37300
X50850Y-37300
X54574Y-33950
X54574Y-34300
X54574Y-34650
X56750Y-35400
X56800Y-30900
X57200Y-35850
X59250Y-38900
X59250Y-48900
X59700Y-38900
X59700Y-48900
T2
X67850Y-23850
X68850Y-23500
X69850Y-23850
X70850Y-23500
X71850Y-23850
X71950Y-49000
X72850Y-23500
X72950Y-48650
X73550Y-40700
X73850Y-23850
X73950Y-49000
X74850Y-23500
X74950Y-48650
X75950Y-49000
X76950Y-48650
X77950Y-49000
X78850Y-23500
X78950Y-48650
T3
X44700Y-33750
X44700Y-34750
X44700Y-35750
X44700Y-36750
X44700Y-37750
X44700Y-38750
X44700Y-39750
X44700Y-40750
X44700Y-42750
X44700Y-43750
X44700Y-44750
X44700Y-45750
X44700Y-46750
X44700Y-47750
X63700Y-30150
X63700Y-31150
X63700Y-32150
X63700Y-33150
X63700Y-34150
X63700Y-35150
X63700Y-36150
X63700Y-37150
X63700Y-38150
X63700Y-39150
X63700Y-40750
X63700Y-41750
X63700Y-42750
X63700Y-43750
X63700Y-44750
X63700Y-45750
X63700Y-46750
X63700Y-47750
X67950Y-33750
X67950Y-34750
X67950Y-35750
X67950Y-36750
X67950Y-37750
X67950Y-38750
X67950Y-39750
X67950Y-40750
X67950Y-42750
X67950Y-43750
X67950Y-44750
X67950Y-45750
X67950Y-46750
X67950Y-47750
X86950Y-30150
X86950Y-31150
X86950Y-32150
X86950Y-33150
X86950Y-34150
X86950Y-35150
X86950Y-36150
X86950Y-37150
X86950Y-38150
X86950Y-39150
X86950Y-40750
X86950Y-41750
X86950Y-42750
X86950Y-43750
X86950Y-44750
X86950Y-45750
X86950Y-46750
X86950Y-47750
T4
X44700Y-28250
X46700Y-48750
X57700Y-48750
X63700Y-28750
T5
X90150Y-24450
X90150Y-48050
T0
M30
