G04 #@! TF.GenerationSoftware,KiCad,Pcbnew,6.0.2+dfsg-1*
G04 #@! TF.CreationDate,2024-05-29T15:52:29-06:00*
G04 #@! TF.ProjectId,ard-ltc2499,6172642d-6c74-4633-9234-39392e6b6963,rev?*
G04 #@! TF.SameCoordinates,Original*
G04 #@! TF.FileFunction,AssemblyDrawing,Top*
%FSLAX46Y46*%
G04 Gerber Fmt 4.6, Leading zero omitted, Abs format (unit mm)*
G04 Created by KiCad (PCBNEW 6.0.2+dfsg-1) date 2024-05-29 15:52:29*
%MOMM*%
%LPD*%
G01*
G04 APERTURE LIST*
%ADD10C,0.150000*%
%ADD11C,0.080000*%
%ADD12C,0.060000*%
%ADD13C,0.050000*%
%ADD14C,0.120000*%
%ADD15C,0.025400*%
%ADD16C,0.100000*%
G04 APERTURE END LIST*
D10*
X126690380Y-102941190D02*
X125690380Y-102941190D01*
X125690380Y-102560238D01*
X125738000Y-102465000D01*
X125785619Y-102417380D01*
X125880857Y-102369761D01*
X126023714Y-102369761D01*
X126118952Y-102417380D01*
X126166571Y-102465000D01*
X126214190Y-102560238D01*
X126214190Y-102941190D01*
X126690380Y-101798333D02*
X126642761Y-101893571D01*
X126595142Y-101941190D01*
X126499904Y-101988809D01*
X126214190Y-101988809D01*
X126118952Y-101941190D01*
X126071333Y-101893571D01*
X126023714Y-101798333D01*
X126023714Y-101655476D01*
X126071333Y-101560238D01*
X126118952Y-101512619D01*
X126214190Y-101465000D01*
X126499904Y-101465000D01*
X126595142Y-101512619D01*
X126642761Y-101560238D01*
X126690380Y-101655476D01*
X126690380Y-101798333D01*
X126023714Y-101131666D02*
X126690380Y-100941190D01*
X126214190Y-100750714D01*
X126690380Y-100560238D01*
X126023714Y-100369761D01*
X126642761Y-99607857D02*
X126690380Y-99703095D01*
X126690380Y-99893571D01*
X126642761Y-99988809D01*
X126547523Y-100036428D01*
X126166571Y-100036428D01*
X126071333Y-99988809D01*
X126023714Y-99893571D01*
X126023714Y-99703095D01*
X126071333Y-99607857D01*
X126166571Y-99560238D01*
X126261809Y-99560238D01*
X126357047Y-100036428D01*
X126690380Y-99131666D02*
X126023714Y-99131666D01*
X126214190Y-99131666D02*
X126118952Y-99084047D01*
X126071333Y-99036428D01*
X126023714Y-98941190D01*
X126023714Y-98845952D01*
X126404666Y-123848523D02*
X126404666Y-123372333D01*
X126690380Y-123943761D02*
X125690380Y-123610428D01*
X126690380Y-123277095D01*
X126023714Y-122943761D02*
X126690380Y-122943761D01*
X126118952Y-122943761D02*
X126071333Y-122896142D01*
X126023714Y-122800904D01*
X126023714Y-122658047D01*
X126071333Y-122562809D01*
X126166571Y-122515190D01*
X126690380Y-122515190D01*
X126690380Y-121610428D02*
X126166571Y-121610428D01*
X126071333Y-121658047D01*
X126023714Y-121753285D01*
X126023714Y-121943761D01*
X126071333Y-122039000D01*
X126642761Y-121610428D02*
X126690380Y-121705666D01*
X126690380Y-121943761D01*
X126642761Y-122039000D01*
X126547523Y-122086619D01*
X126452285Y-122086619D01*
X126357047Y-122039000D01*
X126309428Y-121943761D01*
X126309428Y-121705666D01*
X126261809Y-121610428D01*
X126690380Y-120991380D02*
X126642761Y-121086619D01*
X126547523Y-121134238D01*
X125690380Y-121134238D01*
X126690380Y-120467571D02*
X126642761Y-120562809D01*
X126595142Y-120610428D01*
X126499904Y-120658047D01*
X126214190Y-120658047D01*
X126118952Y-120610428D01*
X126071333Y-120562809D01*
X126023714Y-120467571D01*
X126023714Y-120324714D01*
X126071333Y-120229476D01*
X126118952Y-120181857D01*
X126214190Y-120134238D01*
X126499904Y-120134238D01*
X126595142Y-120181857D01*
X126642761Y-120229476D01*
X126690380Y-120324714D01*
X126690380Y-120467571D01*
X126023714Y-119277095D02*
X126833238Y-119277095D01*
X126928476Y-119324714D01*
X126976095Y-119372333D01*
X127023714Y-119467571D01*
X127023714Y-119610428D01*
X126976095Y-119705666D01*
X126642761Y-119277095D02*
X126690380Y-119372333D01*
X126690380Y-119562809D01*
X126642761Y-119658047D01*
X126595142Y-119705666D01*
X126499904Y-119753285D01*
X126214190Y-119753285D01*
X126118952Y-119705666D01*
X126071333Y-119658047D01*
X126023714Y-119562809D01*
X126023714Y-119372333D01*
X126071333Y-119277095D01*
X166568380Y-96551476D02*
X165568380Y-96551476D01*
X165568380Y-96313380D01*
X165616000Y-96170523D01*
X165711238Y-96075285D01*
X165806476Y-96027666D01*
X165996952Y-95980047D01*
X166139809Y-95980047D01*
X166330285Y-96027666D01*
X166425523Y-96075285D01*
X166520761Y-96170523D01*
X166568380Y-96313380D01*
X166568380Y-96551476D01*
X166568380Y-95551476D02*
X165901714Y-95551476D01*
X165568380Y-95551476D02*
X165616000Y-95599095D01*
X165663619Y-95551476D01*
X165616000Y-95503857D01*
X165568380Y-95551476D01*
X165663619Y-95551476D01*
X165901714Y-94646714D02*
X166711238Y-94646714D01*
X166806476Y-94694333D01*
X166854095Y-94741952D01*
X166901714Y-94837190D01*
X166901714Y-94980047D01*
X166854095Y-95075285D01*
X166520761Y-94646714D02*
X166568380Y-94741952D01*
X166568380Y-94932428D01*
X166520761Y-95027666D01*
X166473142Y-95075285D01*
X166377904Y-95122904D01*
X166092190Y-95122904D01*
X165996952Y-95075285D01*
X165949333Y-95027666D01*
X165901714Y-94932428D01*
X165901714Y-94741952D01*
X165949333Y-94646714D01*
X166568380Y-94170523D02*
X165901714Y-94170523D01*
X165568380Y-94170523D02*
X165616000Y-94218142D01*
X165663619Y-94170523D01*
X165616000Y-94122904D01*
X165568380Y-94170523D01*
X165663619Y-94170523D01*
X165901714Y-93837190D02*
X165901714Y-93456238D01*
X165568380Y-93694333D02*
X166425523Y-93694333D01*
X166520761Y-93646714D01*
X166568380Y-93551476D01*
X166568380Y-93456238D01*
X166568380Y-92694333D02*
X166044571Y-92694333D01*
X165949333Y-92741952D01*
X165901714Y-92837190D01*
X165901714Y-93027666D01*
X165949333Y-93122904D01*
X166520761Y-92694333D02*
X166568380Y-92789571D01*
X166568380Y-93027666D01*
X166520761Y-93122904D01*
X166425523Y-93170523D01*
X166330285Y-93170523D01*
X166235047Y-93122904D01*
X166187428Y-93027666D01*
X166187428Y-92789571D01*
X166139809Y-92694333D01*
X166568380Y-92075285D02*
X166520761Y-92170523D01*
X166425523Y-92218142D01*
X165568380Y-92218142D01*
X166568380Y-120935476D02*
X165568380Y-120935476D01*
X165568380Y-120697380D01*
X165616000Y-120554523D01*
X165711238Y-120459285D01*
X165806476Y-120411666D01*
X165996952Y-120364047D01*
X166139809Y-120364047D01*
X166330285Y-120411666D01*
X166425523Y-120459285D01*
X166520761Y-120554523D01*
X166568380Y-120697380D01*
X166568380Y-120935476D01*
X166568380Y-119935476D02*
X165901714Y-119935476D01*
X165568380Y-119935476D02*
X165616000Y-119983095D01*
X165663619Y-119935476D01*
X165616000Y-119887857D01*
X165568380Y-119935476D01*
X165663619Y-119935476D01*
X165901714Y-119030714D02*
X166711238Y-119030714D01*
X166806476Y-119078333D01*
X166854095Y-119125952D01*
X166901714Y-119221190D01*
X166901714Y-119364047D01*
X166854095Y-119459285D01*
X166520761Y-119030714D02*
X166568380Y-119125952D01*
X166568380Y-119316428D01*
X166520761Y-119411666D01*
X166473142Y-119459285D01*
X166377904Y-119506904D01*
X166092190Y-119506904D01*
X165996952Y-119459285D01*
X165949333Y-119411666D01*
X165901714Y-119316428D01*
X165901714Y-119125952D01*
X165949333Y-119030714D01*
X166568380Y-118554523D02*
X165901714Y-118554523D01*
X165568380Y-118554523D02*
X165616000Y-118602142D01*
X165663619Y-118554523D01*
X165616000Y-118506904D01*
X165568380Y-118554523D01*
X165663619Y-118554523D01*
X165901714Y-118221190D02*
X165901714Y-117840238D01*
X165568380Y-118078333D02*
X166425523Y-118078333D01*
X166520761Y-118030714D01*
X166568380Y-117935476D01*
X166568380Y-117840238D01*
X166568380Y-117078333D02*
X166044571Y-117078333D01*
X165949333Y-117125952D01*
X165901714Y-117221190D01*
X165901714Y-117411666D01*
X165949333Y-117506904D01*
X166520761Y-117078333D02*
X166568380Y-117173571D01*
X166568380Y-117411666D01*
X166520761Y-117506904D01*
X166425523Y-117554523D01*
X166330285Y-117554523D01*
X166235047Y-117506904D01*
X166187428Y-117411666D01*
X166187428Y-117173571D01*
X166139809Y-117078333D01*
X166568380Y-116459285D02*
X166520761Y-116554523D01*
X166425523Y-116602142D01*
X165568380Y-116602142D01*
X132929380Y-103004285D02*
X133643666Y-103004285D01*
X133786523Y-103051904D01*
X133881761Y-103147142D01*
X133929380Y-103290000D01*
X133929380Y-103385238D01*
X133881761Y-102575714D02*
X133929380Y-102432857D01*
X133929380Y-102194761D01*
X133881761Y-102099523D01*
X133834142Y-102051904D01*
X133738904Y-102004285D01*
X133643666Y-102004285D01*
X133548428Y-102051904D01*
X133500809Y-102099523D01*
X133453190Y-102194761D01*
X133405571Y-102385238D01*
X133357952Y-102480476D01*
X133310333Y-102528095D01*
X133215095Y-102575714D01*
X133119857Y-102575714D01*
X133024619Y-102528095D01*
X132977000Y-102480476D01*
X132929380Y-102385238D01*
X132929380Y-102147142D01*
X132977000Y-102004285D01*
X133024619Y-101623333D02*
X132977000Y-101575714D01*
X132929380Y-101480476D01*
X132929380Y-101242380D01*
X132977000Y-101147142D01*
X133024619Y-101099523D01*
X133119857Y-101051904D01*
X133215095Y-101051904D01*
X133357952Y-101099523D01*
X133929380Y-101670952D01*
X133929380Y-101051904D01*
X132929380Y-100432857D02*
X132929380Y-100337619D01*
X132977000Y-100242380D01*
X133024619Y-100194761D01*
X133119857Y-100147142D01*
X133310333Y-100099523D01*
X133548428Y-100099523D01*
X133738904Y-100147142D01*
X133834142Y-100194761D01*
X133881761Y-100242380D01*
X133929380Y-100337619D01*
X133929380Y-100432857D01*
X133881761Y-100528095D01*
X133834142Y-100575714D01*
X133738904Y-100623333D01*
X133548428Y-100670952D01*
X133310333Y-100670952D01*
X133119857Y-100623333D01*
X133024619Y-100575714D01*
X132977000Y-100528095D01*
X132929380Y-100432857D01*
X133024619Y-99718571D02*
X132977000Y-99670952D01*
X132929380Y-99575714D01*
X132929380Y-99337619D01*
X132977000Y-99242380D01*
X133024619Y-99194761D01*
X133119857Y-99147142D01*
X133215095Y-99147142D01*
X133357952Y-99194761D01*
X133929380Y-99766190D01*
X133929380Y-99147142D01*
X132929380Y-98528095D02*
X132929380Y-98432857D01*
X132977000Y-98337619D01*
X133024619Y-98290000D01*
X133119857Y-98242380D01*
X133310333Y-98194761D01*
X133548428Y-98194761D01*
X133738904Y-98242380D01*
X133834142Y-98290000D01*
X133881761Y-98337619D01*
X133929380Y-98432857D01*
X133929380Y-98528095D01*
X133881761Y-98623333D01*
X133834142Y-98670952D01*
X133738904Y-98718571D01*
X133548428Y-98766190D01*
X133310333Y-98766190D01*
X133119857Y-98718571D01*
X133024619Y-98670952D01*
X132977000Y-98623333D01*
X132929380Y-98528095D01*
X133929380Y-97242380D02*
X133929380Y-97813809D01*
X133929380Y-97528095D02*
X132929380Y-97528095D01*
X133072238Y-97623333D01*
X133167476Y-97718571D01*
X133215095Y-97813809D01*
X133929380Y-96290000D02*
X133929380Y-96861428D01*
X133929380Y-96575714D02*
X132929380Y-96575714D01*
X133072238Y-96670952D01*
X133167476Y-96766190D01*
X133215095Y-96861428D01*
X133881761Y-95909047D02*
X133929380Y-95766190D01*
X133929380Y-95528095D01*
X133881761Y-95432857D01*
X133834142Y-95385238D01*
X133738904Y-95337619D01*
X133643666Y-95337619D01*
X133548428Y-95385238D01*
X133500809Y-95432857D01*
X133453190Y-95528095D01*
X133405571Y-95718571D01*
X133357952Y-95813809D01*
X133310333Y-95861428D01*
X133215095Y-95909047D01*
X133119857Y-95909047D01*
X133024619Y-95861428D01*
X132977000Y-95813809D01*
X132929380Y-95718571D01*
X132929380Y-95480476D01*
X132977000Y-95337619D01*
X133834142Y-94337619D02*
X133881761Y-94385238D01*
X133929380Y-94528095D01*
X133929380Y-94623333D01*
X133881761Y-94766190D01*
X133786523Y-94861428D01*
X133691285Y-94909047D01*
X133500809Y-94956666D01*
X133357952Y-94956666D01*
X133167476Y-94909047D01*
X133072238Y-94861428D01*
X132977000Y-94766190D01*
X132929380Y-94623333D01*
X132929380Y-94528095D01*
X132977000Y-94385238D01*
X133024619Y-94337619D01*
X134024619Y-93242380D02*
X133977000Y-93337619D01*
X133881761Y-93432857D01*
X133738904Y-93575714D01*
X133691285Y-93670952D01*
X133691285Y-93766190D01*
X133929380Y-93718571D02*
X133881761Y-93813809D01*
X133786523Y-93909047D01*
X133596047Y-93956666D01*
X133262714Y-93956666D01*
X133072238Y-93909047D01*
X132977000Y-93813809D01*
X132929380Y-93718571D01*
X132929380Y-93528095D01*
X132977000Y-93432857D01*
X133072238Y-93337619D01*
X133262714Y-93290000D01*
X133596047Y-93290000D01*
X133786523Y-93337619D01*
X133881761Y-93432857D01*
X133929380Y-93528095D01*
X133929380Y-93718571D01*
X133929380Y-92861428D02*
X132929380Y-92861428D01*
X133929380Y-92290000D01*
X132929380Y-92290000D01*
X133881761Y-99123333D02*
X133929380Y-98980476D01*
X133929380Y-98742380D01*
X133881761Y-98647142D01*
X133834142Y-98599523D01*
X133738904Y-98551904D01*
X133643666Y-98551904D01*
X133548428Y-98599523D01*
X133500809Y-98647142D01*
X133453190Y-98742380D01*
X133405571Y-98932857D01*
X133357952Y-99028095D01*
X133310333Y-99075714D01*
X133215095Y-99123333D01*
X133119857Y-99123333D01*
X133024619Y-99075714D01*
X132977000Y-99028095D01*
X132929380Y-98932857D01*
X132929380Y-98694761D01*
X132977000Y-98551904D01*
X132929380Y-98218571D02*
X133929380Y-97980476D01*
X133215095Y-97790000D01*
X133929380Y-97599523D01*
X132929380Y-97361428D01*
X133024619Y-97028095D02*
X132977000Y-96980476D01*
X132929380Y-96885238D01*
X132929380Y-96647142D01*
X132977000Y-96551904D01*
X133024619Y-96504285D01*
X133119857Y-96456666D01*
X133215095Y-96456666D01*
X133357952Y-96504285D01*
X133929380Y-97075714D01*
X133929380Y-96456666D01*
X129565780Y-98907600D02*
X129803876Y-98907600D01*
X129708638Y-99145695D02*
X129803876Y-98907600D01*
X129708638Y-98669504D01*
X129994352Y-99050457D02*
X129803876Y-98907600D01*
X129994352Y-98764742D01*
X129565780Y-98907600D02*
X129803876Y-98907600D01*
X129708638Y-99145695D02*
X129803876Y-98907600D01*
X129708638Y-98669504D01*
X129994352Y-99050457D02*
X129803876Y-98907600D01*
X129994352Y-98764742D01*
X159424761Y-84138880D02*
X158853333Y-84138880D01*
X159139047Y-84138880D02*
X159139047Y-83138880D01*
X159043809Y-83281738D01*
X158948571Y-83376976D01*
X158853333Y-83424595D01*
X160043809Y-83138880D02*
X160139047Y-83138880D01*
X160234285Y-83186500D01*
X160281904Y-83234119D01*
X160329523Y-83329357D01*
X160377142Y-83519833D01*
X160377142Y-83757928D01*
X160329523Y-83948404D01*
X160281904Y-84043642D01*
X160234285Y-84091261D01*
X160139047Y-84138880D01*
X160043809Y-84138880D01*
X159948571Y-84091261D01*
X159900952Y-84043642D01*
X159853333Y-83948404D01*
X159805714Y-83757928D01*
X159805714Y-83519833D01*
X159853333Y-83329357D01*
X159900952Y-83234119D01*
X159948571Y-83186500D01*
X160043809Y-83138880D01*
X160805714Y-84138880D02*
X160805714Y-83138880D01*
X160900952Y-83757928D02*
X161186666Y-84138880D01*
X161186666Y-83472214D02*
X160805714Y-83853166D01*
D11*
X159936666Y-82262690D02*
X159770000Y-82024595D01*
X159650952Y-82262690D02*
X159650952Y-81762690D01*
X159841428Y-81762690D01*
X159889047Y-81786500D01*
X159912857Y-81810309D01*
X159936666Y-81857928D01*
X159936666Y-81929357D01*
X159912857Y-81976976D01*
X159889047Y-82000785D01*
X159841428Y-82024595D01*
X159650952Y-82024595D01*
X160412857Y-82262690D02*
X160127142Y-82262690D01*
X160270000Y-82262690D02*
X160270000Y-81762690D01*
X160222380Y-81834119D01*
X160174761Y-81881738D01*
X160127142Y-81905547D01*
D10*
X167964380Y-69683238D02*
X167964380Y-70254666D01*
X167964380Y-69968952D02*
X166964380Y-69968952D01*
X167107238Y-70064190D01*
X167202476Y-70159428D01*
X167250095Y-70254666D01*
X166964380Y-69064190D02*
X166964380Y-68968952D01*
X167012000Y-68873714D01*
X167059619Y-68826095D01*
X167154857Y-68778476D01*
X167345333Y-68730857D01*
X167583428Y-68730857D01*
X167773904Y-68778476D01*
X167869142Y-68826095D01*
X167916761Y-68873714D01*
X167964380Y-68968952D01*
X167964380Y-69064190D01*
X167916761Y-69159428D01*
X167869142Y-69207047D01*
X167773904Y-69254666D01*
X167583428Y-69302285D01*
X167345333Y-69302285D01*
X167154857Y-69254666D01*
X167059619Y-69207047D01*
X167012000Y-69159428D01*
X166964380Y-69064190D01*
X167964380Y-68302285D02*
X166964380Y-68302285D01*
X167583428Y-68207047D02*
X167964380Y-67921333D01*
X167297714Y-67921333D02*
X167678666Y-68302285D01*
D11*
X166088190Y-69171333D02*
X165850095Y-69338000D01*
X166088190Y-69457047D02*
X165588190Y-69457047D01*
X165588190Y-69266571D01*
X165612000Y-69218952D01*
X165635809Y-69195142D01*
X165683428Y-69171333D01*
X165754857Y-69171333D01*
X165802476Y-69195142D01*
X165826285Y-69218952D01*
X165850095Y-69266571D01*
X165850095Y-69457047D01*
X165588190Y-69004666D02*
X165588190Y-68671333D01*
X166088190Y-68885619D01*
D10*
X157167619Y-82424880D02*
X157120000Y-82377261D01*
X157072380Y-82282023D01*
X157072380Y-82043928D01*
X157120000Y-81948690D01*
X157167619Y-81901071D01*
X157262857Y-81853452D01*
X157358095Y-81853452D01*
X157500952Y-81901071D01*
X158072380Y-82472500D01*
X158072380Y-81853452D01*
X157405714Y-80996309D02*
X158072380Y-80996309D01*
X157024761Y-81234404D02*
X157739047Y-81472500D01*
X157739047Y-80853452D01*
X157786666Y-80520119D02*
X157786666Y-80043928D01*
X158072380Y-80615357D02*
X157072380Y-80282023D01*
X158072380Y-79948690D01*
X157786666Y-79662976D02*
X157786666Y-79186785D01*
X158072380Y-79758214D02*
X157072380Y-79424880D01*
X158072380Y-79091547D01*
X157072380Y-78567738D02*
X157072380Y-78472500D01*
X157120000Y-78377261D01*
X157167619Y-78329642D01*
X157262857Y-78282023D01*
X157453333Y-78234404D01*
X157691428Y-78234404D01*
X157881904Y-78282023D01*
X157977142Y-78329642D01*
X158024761Y-78377261D01*
X158072380Y-78472500D01*
X158072380Y-78567738D01*
X158024761Y-78662976D01*
X157977142Y-78710595D01*
X157881904Y-78758214D01*
X157691428Y-78805833D01*
X157453333Y-78805833D01*
X157262857Y-78758214D01*
X157167619Y-78710595D01*
X157120000Y-78662976D01*
X157072380Y-78567738D01*
X157167619Y-77853452D02*
X157120000Y-77805833D01*
X157072380Y-77710595D01*
X157072380Y-77472500D01*
X157120000Y-77377261D01*
X157167619Y-77329642D01*
X157262857Y-77282023D01*
X157358095Y-77282023D01*
X157500952Y-77329642D01*
X158072380Y-77901071D01*
X158072380Y-77282023D01*
X157072380Y-76377261D02*
X157072380Y-76853452D01*
X157548571Y-76901071D01*
X157500952Y-76853452D01*
X157453333Y-76758214D01*
X157453333Y-76520119D01*
X157500952Y-76424880D01*
X157548571Y-76377261D01*
X157643809Y-76329642D01*
X157881904Y-76329642D01*
X157977142Y-76377261D01*
X158024761Y-76424880D01*
X158072380Y-76520119D01*
X158072380Y-76758214D01*
X158024761Y-76853452D01*
X157977142Y-76901071D01*
X157548571Y-75901071D02*
X157548571Y-75567738D01*
X158072380Y-75424880D02*
X158072380Y-75901071D01*
X157072380Y-75901071D01*
X157072380Y-75424880D01*
X157072380Y-74567738D02*
X157072380Y-74758214D01*
X157120000Y-74853452D01*
X157167619Y-74901071D01*
X157310476Y-74996309D01*
X157500952Y-75043928D01*
X157881904Y-75043928D01*
X157977142Y-74996309D01*
X158024761Y-74948690D01*
X158072380Y-74853452D01*
X158072380Y-74662976D01*
X158024761Y-74567738D01*
X157977142Y-74520119D01*
X157881904Y-74472500D01*
X157643809Y-74472500D01*
X157548571Y-74520119D01*
X157500952Y-74567738D01*
X157453333Y-74662976D01*
X157453333Y-74853452D01*
X157500952Y-74948690D01*
X157548571Y-74996309D01*
X157643809Y-75043928D01*
X157405714Y-73615357D02*
X158072380Y-73615357D01*
X157024761Y-73853452D02*
X157739047Y-74091547D01*
X157739047Y-73472500D01*
D12*
X159800952Y-78277261D02*
X160124761Y-78277261D01*
X160162857Y-78258214D01*
X160181904Y-78239166D01*
X160200952Y-78201071D01*
X160200952Y-78124880D01*
X160181904Y-78086785D01*
X160162857Y-78067738D01*
X160124761Y-78048690D01*
X159800952Y-78048690D01*
X159934285Y-77686785D02*
X160200952Y-77686785D01*
X159781904Y-77782023D02*
X160067619Y-77877261D01*
X160067619Y-77629642D01*
D10*
X162599761Y-74746380D02*
X162028333Y-74746380D01*
X162314047Y-74746380D02*
X162314047Y-73746380D01*
X162218809Y-73889238D01*
X162123571Y-73984476D01*
X162028333Y-74032095D01*
X163218809Y-73746380D02*
X163314047Y-73746380D01*
X163409285Y-73794000D01*
X163456904Y-73841619D01*
X163504523Y-73936857D01*
X163552142Y-74127333D01*
X163552142Y-74365428D01*
X163504523Y-74555904D01*
X163456904Y-74651142D01*
X163409285Y-74698761D01*
X163314047Y-74746380D01*
X163218809Y-74746380D01*
X163123571Y-74698761D01*
X163075952Y-74651142D01*
X163028333Y-74555904D01*
X162980714Y-74365428D01*
X162980714Y-74127333D01*
X163028333Y-73936857D01*
X163075952Y-73841619D01*
X163123571Y-73794000D01*
X163218809Y-73746380D01*
X163980714Y-74746380D02*
X163980714Y-73746380D01*
X164075952Y-74365428D02*
X164361666Y-74746380D01*
X164361666Y-74079714D02*
X163980714Y-74460666D01*
D11*
X163111666Y-72870190D02*
X162945000Y-72632095D01*
X162825952Y-72870190D02*
X162825952Y-72370190D01*
X163016428Y-72370190D01*
X163064047Y-72394000D01*
X163087857Y-72417809D01*
X163111666Y-72465428D01*
X163111666Y-72536857D01*
X163087857Y-72584476D01*
X163064047Y-72608285D01*
X163016428Y-72632095D01*
X162825952Y-72632095D01*
X163564047Y-72370190D02*
X163325952Y-72370190D01*
X163302142Y-72608285D01*
X163325952Y-72584476D01*
X163373571Y-72560666D01*
X163492619Y-72560666D01*
X163540238Y-72584476D01*
X163564047Y-72608285D01*
X163587857Y-72655904D01*
X163587857Y-72774952D01*
X163564047Y-72822571D01*
X163540238Y-72846380D01*
X163492619Y-72870190D01*
X163373571Y-72870190D01*
X163325952Y-72846380D01*
X163302142Y-72822571D01*
D10*
X143565619Y-85575000D02*
X143565619Y-85098809D01*
X144565619Y-85098809D01*
X144565619Y-85765476D02*
X144565619Y-86336904D01*
X143565619Y-86051190D02*
X144565619Y-86051190D01*
X143660857Y-87241666D02*
X143613238Y-87194047D01*
X143565619Y-87051190D01*
X143565619Y-86955952D01*
X143613238Y-86813095D01*
X143708476Y-86717857D01*
X143803714Y-86670238D01*
X143994190Y-86622619D01*
X144137047Y-86622619D01*
X144327523Y-86670238D01*
X144422761Y-86717857D01*
X144518000Y-86813095D01*
X144565619Y-86955952D01*
X144565619Y-87051190D01*
X144518000Y-87194047D01*
X144470380Y-87241666D01*
X144470380Y-87622619D02*
X144518000Y-87670238D01*
X144565619Y-87765476D01*
X144565619Y-88003571D01*
X144518000Y-88098809D01*
X144470380Y-88146428D01*
X144375142Y-88194047D01*
X144279904Y-88194047D01*
X144137047Y-88146428D01*
X143565619Y-87575000D01*
X143565619Y-88194047D01*
X144232285Y-89051190D02*
X143565619Y-89051190D01*
X144613238Y-88813095D02*
X143898952Y-88575000D01*
X143898952Y-89194047D01*
X143565619Y-89622619D02*
X143565619Y-89813095D01*
X143613238Y-89908333D01*
X143660857Y-89955952D01*
X143803714Y-90051190D01*
X143994190Y-90098809D01*
X144375142Y-90098809D01*
X144470380Y-90051190D01*
X144518000Y-90003571D01*
X144565619Y-89908333D01*
X144565619Y-89717857D01*
X144518000Y-89622619D01*
X144470380Y-89575000D01*
X144375142Y-89527380D01*
X144137047Y-89527380D01*
X144041809Y-89575000D01*
X143994190Y-89622619D01*
X143946571Y-89717857D01*
X143946571Y-89908333D01*
X143994190Y-90003571D01*
X144041809Y-90051190D01*
X144137047Y-90098809D01*
X143565619Y-90575000D02*
X143565619Y-90765476D01*
X143613238Y-90860714D01*
X143660857Y-90908333D01*
X143803714Y-91003571D01*
X143994190Y-91051190D01*
X144375142Y-91051190D01*
X144470380Y-91003571D01*
X144518000Y-90955952D01*
X144565619Y-90860714D01*
X144565619Y-90670238D01*
X144518000Y-90575000D01*
X144470380Y-90527380D01*
X144375142Y-90479761D01*
X144137047Y-90479761D01*
X144041809Y-90527380D01*
X143994190Y-90575000D01*
X143946571Y-90670238D01*
X143946571Y-90860714D01*
X143994190Y-90955952D01*
X144041809Y-91003571D01*
X144137047Y-91051190D01*
X143660857Y-92051190D02*
X143613238Y-92003571D01*
X143565619Y-91860714D01*
X143565619Y-91765476D01*
X143613238Y-91622619D01*
X143708476Y-91527380D01*
X143803714Y-91479761D01*
X143994190Y-91432142D01*
X144137047Y-91432142D01*
X144327523Y-91479761D01*
X144422761Y-91527380D01*
X144518000Y-91622619D01*
X144565619Y-91765476D01*
X144565619Y-91860714D01*
X144518000Y-92003571D01*
X144470380Y-92051190D01*
X144565619Y-92479761D02*
X143756095Y-92479761D01*
X143660857Y-92527380D01*
X143613238Y-92575000D01*
X143565619Y-92670238D01*
X143565619Y-92860714D01*
X143613238Y-92955952D01*
X143660857Y-93003571D01*
X143756095Y-93051190D01*
X144565619Y-93051190D01*
X143565619Y-93527380D02*
X144565619Y-93527380D01*
X144089428Y-93527380D02*
X144089428Y-94098809D01*
X143565619Y-94098809D02*
X144565619Y-94098809D01*
X144089428Y-94908333D02*
X144089428Y-94575000D01*
X143565619Y-94575000D02*
X144565619Y-94575000D01*
X144565619Y-95051190D01*
X143946571Y-95432142D02*
X143946571Y-96194047D01*
X143565619Y-96670238D02*
X144565619Y-96670238D01*
X144565619Y-97051190D01*
X144518000Y-97146428D01*
X144470380Y-97194047D01*
X144375142Y-97241666D01*
X144232285Y-97241666D01*
X144137047Y-97194047D01*
X144089428Y-97146428D01*
X144041809Y-97051190D01*
X144041809Y-96670238D01*
X144089428Y-98003571D02*
X144041809Y-98146428D01*
X143994190Y-98194047D01*
X143898952Y-98241666D01*
X143756095Y-98241666D01*
X143660857Y-98194047D01*
X143613238Y-98146428D01*
X143565619Y-98051190D01*
X143565619Y-97670238D01*
X144565619Y-97670238D01*
X144565619Y-98003571D01*
X144518000Y-98098809D01*
X144470380Y-98146428D01*
X144375142Y-98194047D01*
X144279904Y-98194047D01*
X144184666Y-98146428D01*
X144137047Y-98098809D01*
X144089428Y-98003571D01*
X144089428Y-97670238D01*
X144089428Y-99003571D02*
X144089428Y-98670238D01*
X143565619Y-98670238D02*
X144565619Y-98670238D01*
X144565619Y-99146428D01*
X147565619Y-90025000D02*
X147327523Y-90025000D01*
X147422761Y-89786904D02*
X147327523Y-90025000D01*
X147422761Y-90263095D01*
X147137047Y-89882142D02*
X147327523Y-90025000D01*
X147137047Y-90167857D01*
X144565619Y-91313095D02*
X143756095Y-91313095D01*
X143660857Y-91360714D01*
X143613238Y-91408333D01*
X143565619Y-91503571D01*
X143565619Y-91694047D01*
X143613238Y-91789285D01*
X143660857Y-91836904D01*
X143756095Y-91884523D01*
X144565619Y-91884523D01*
X143565619Y-92884523D02*
X143565619Y-92313095D01*
X143565619Y-92598809D02*
X144565619Y-92598809D01*
X144422761Y-92503571D01*
X144327523Y-92408333D01*
X144279904Y-92313095D01*
X146470380Y-90025000D02*
X146708476Y-90025000D01*
X146613238Y-90263095D02*
X146708476Y-90025000D01*
X146613238Y-89786904D01*
X146898952Y-90167857D02*
X146708476Y-90025000D01*
X146898952Y-89882142D01*
X146978761Y-110209380D02*
X146407333Y-110209380D01*
X146693047Y-110209380D02*
X146693047Y-109209380D01*
X146597809Y-109352238D01*
X146502571Y-109447476D01*
X146407333Y-109495095D01*
X147835904Y-109542714D02*
X147835904Y-110209380D01*
X147407333Y-109542714D02*
X147407333Y-110066523D01*
X147454952Y-110161761D01*
X147550190Y-110209380D01*
X147693047Y-110209380D01*
X147788285Y-110161761D01*
X147835904Y-110114142D01*
X148645428Y-109685571D02*
X148312095Y-109685571D01*
X148312095Y-110209380D02*
X148312095Y-109209380D01*
X148788285Y-109209380D01*
D11*
X147490666Y-108255571D02*
X147466857Y-108279380D01*
X147395428Y-108303190D01*
X147347809Y-108303190D01*
X147276380Y-108279380D01*
X147228761Y-108231761D01*
X147204952Y-108184142D01*
X147181142Y-108088904D01*
X147181142Y-108017476D01*
X147204952Y-107922238D01*
X147228761Y-107874619D01*
X147276380Y-107827000D01*
X147347809Y-107803190D01*
X147395428Y-107803190D01*
X147466857Y-107827000D01*
X147490666Y-107850809D01*
X147681142Y-107850809D02*
X147704952Y-107827000D01*
X147752571Y-107803190D01*
X147871619Y-107803190D01*
X147919238Y-107827000D01*
X147943047Y-107850809D01*
X147966857Y-107898428D01*
X147966857Y-107946047D01*
X147943047Y-108017476D01*
X147657333Y-108303190D01*
X147966857Y-108303190D01*
D10*
X159107476Y-71416571D02*
X159250333Y-71464190D01*
X159297952Y-71511809D01*
X159345571Y-71607047D01*
X159345571Y-71749904D01*
X159297952Y-71845142D01*
X159250333Y-71892761D01*
X159155095Y-71940380D01*
X158774142Y-71940380D01*
X158774142Y-70940380D01*
X159107476Y-70940380D01*
X159202714Y-70988000D01*
X159250333Y-71035619D01*
X159297952Y-71130857D01*
X159297952Y-71226095D01*
X159250333Y-71321333D01*
X159202714Y-71368952D01*
X159107476Y-71416571D01*
X158774142Y-71416571D01*
X159726523Y-71892761D02*
X159869380Y-71940380D01*
X160107476Y-71940380D01*
X160202714Y-71892761D01*
X160250333Y-71845142D01*
X160297952Y-71749904D01*
X160297952Y-71654666D01*
X160250333Y-71559428D01*
X160202714Y-71511809D01*
X160107476Y-71464190D01*
X159917000Y-71416571D01*
X159821761Y-71368952D01*
X159774142Y-71321333D01*
X159726523Y-71226095D01*
X159726523Y-71130857D01*
X159774142Y-71035619D01*
X159821761Y-70988000D01*
X159917000Y-70940380D01*
X160155095Y-70940380D01*
X160297952Y-70988000D01*
X160678904Y-71892761D02*
X160821761Y-71940380D01*
X161059857Y-71940380D01*
X161155095Y-71892761D01*
X161202714Y-71845142D01*
X161250333Y-71749904D01*
X161250333Y-71654666D01*
X161202714Y-71559428D01*
X161155095Y-71511809D01*
X161059857Y-71464190D01*
X160869380Y-71416571D01*
X160774142Y-71368952D01*
X160726523Y-71321333D01*
X160678904Y-71226095D01*
X160678904Y-71130857D01*
X160726523Y-71035619D01*
X160774142Y-70988000D01*
X160869380Y-70940380D01*
X161107476Y-70940380D01*
X161250333Y-70988000D01*
X162202714Y-71940380D02*
X161631285Y-71940380D01*
X161917000Y-71940380D02*
X161917000Y-70940380D01*
X161821761Y-71083238D01*
X161726523Y-71178476D01*
X161631285Y-71226095D01*
X162536047Y-70940380D02*
X163155095Y-70940380D01*
X162821761Y-71321333D01*
X162964619Y-71321333D01*
X163059857Y-71368952D01*
X163107476Y-71416571D01*
X163155095Y-71511809D01*
X163155095Y-71749904D01*
X163107476Y-71845142D01*
X163059857Y-71892761D01*
X162964619Y-71940380D01*
X162678904Y-71940380D01*
X162583666Y-71892761D01*
X162536047Y-71845142D01*
X163726523Y-71368952D02*
X163631285Y-71321333D01*
X163583666Y-71273714D01*
X163536047Y-71178476D01*
X163536047Y-71130857D01*
X163583666Y-71035619D01*
X163631285Y-70988000D01*
X163726523Y-70940380D01*
X163917000Y-70940380D01*
X164012238Y-70988000D01*
X164059857Y-71035619D01*
X164107476Y-71130857D01*
X164107476Y-71178476D01*
X164059857Y-71273714D01*
X164012238Y-71321333D01*
X163917000Y-71368952D01*
X163726523Y-71368952D01*
X163631285Y-71416571D01*
X163583666Y-71464190D01*
X163536047Y-71559428D01*
X163536047Y-71749904D01*
X163583666Y-71845142D01*
X163631285Y-71892761D01*
X163726523Y-71940380D01*
X163917000Y-71940380D01*
X164012238Y-71892761D01*
X164059857Y-71845142D01*
X164107476Y-71749904D01*
X164107476Y-71559428D01*
X164059857Y-71464190D01*
X164012238Y-71416571D01*
X163917000Y-71368952D01*
D13*
X161386523Y-69263238D02*
X161356047Y-69248000D01*
X161325571Y-69217523D01*
X161279857Y-69171809D01*
X161249380Y-69156571D01*
X161218904Y-69156571D01*
X161234142Y-69232761D02*
X161203666Y-69217523D01*
X161173190Y-69187047D01*
X161157952Y-69126095D01*
X161157952Y-69019428D01*
X161173190Y-68958476D01*
X161203666Y-68928000D01*
X161234142Y-68912761D01*
X161295095Y-68912761D01*
X161325571Y-68928000D01*
X161356047Y-68958476D01*
X161371285Y-69019428D01*
X161371285Y-69126095D01*
X161356047Y-69187047D01*
X161325571Y-69217523D01*
X161295095Y-69232761D01*
X161234142Y-69232761D01*
X161493190Y-68943238D02*
X161508428Y-68928000D01*
X161538904Y-68912761D01*
X161615095Y-68912761D01*
X161645571Y-68928000D01*
X161660809Y-68943238D01*
X161676047Y-68973714D01*
X161676047Y-69004190D01*
X161660809Y-69049904D01*
X161477952Y-69232761D01*
X161676047Y-69232761D01*
D10*
X164708380Y-79615357D02*
X164708380Y-79520119D01*
X164756000Y-79424880D01*
X164803619Y-79377261D01*
X164898857Y-79329642D01*
X165089333Y-79282023D01*
X165327428Y-79282023D01*
X165517904Y-79329642D01*
X165613142Y-79377261D01*
X165660761Y-79424880D01*
X165708380Y-79520119D01*
X165708380Y-79615357D01*
X165660761Y-79710595D01*
X165613142Y-79758214D01*
X165517904Y-79805833D01*
X165327428Y-79853452D01*
X165089333Y-79853452D01*
X164898857Y-79805833D01*
X164803619Y-79758214D01*
X164756000Y-79710595D01*
X164708380Y-79615357D01*
X165613142Y-78853452D02*
X165660761Y-78805833D01*
X165708380Y-78853452D01*
X165660761Y-78901071D01*
X165613142Y-78853452D01*
X165708380Y-78853452D01*
X165708380Y-77853452D02*
X165708380Y-78424880D01*
X165708380Y-78139166D02*
X164708380Y-78139166D01*
X164851238Y-78234404D01*
X164946476Y-78329642D01*
X164994095Y-78424880D01*
X165041714Y-76996309D02*
X165708380Y-76996309D01*
X165041714Y-77424880D02*
X165565523Y-77424880D01*
X165660761Y-77377261D01*
X165708380Y-77282023D01*
X165708380Y-77139166D01*
X165660761Y-77043928D01*
X165613142Y-76996309D01*
X165184571Y-76186785D02*
X165184571Y-76520119D01*
X165708380Y-76520119D02*
X164708380Y-76520119D01*
X164708380Y-76043928D01*
D11*
X163754571Y-78055833D02*
X163778380Y-78079642D01*
X163802190Y-78151071D01*
X163802190Y-78198690D01*
X163778380Y-78270119D01*
X163730761Y-78317738D01*
X163683142Y-78341547D01*
X163587904Y-78365357D01*
X163516476Y-78365357D01*
X163421238Y-78341547D01*
X163373619Y-78317738D01*
X163326000Y-78270119D01*
X163302190Y-78198690D01*
X163302190Y-78151071D01*
X163326000Y-78079642D01*
X163349809Y-78055833D01*
X163802190Y-77579642D02*
X163802190Y-77865357D01*
X163802190Y-77722500D02*
X163302190Y-77722500D01*
X163373619Y-77770119D01*
X163421238Y-77817738D01*
X163445047Y-77865357D01*
D10*
X139081899Y-65948761D02*
X139224756Y-65996380D01*
X139462852Y-65996380D01*
X139558090Y-65948761D01*
X139605709Y-65901142D01*
X139653328Y-65805904D01*
X139653328Y-65710666D01*
X139605709Y-65615428D01*
X139558090Y-65567809D01*
X139462852Y-65520190D01*
X139272375Y-65472571D01*
X139177137Y-65424952D01*
X139129518Y-65377333D01*
X139081899Y-65282095D01*
X139081899Y-65186857D01*
X139129518Y-65091619D01*
X139177137Y-65044000D01*
X139272375Y-64996380D01*
X139510471Y-64996380D01*
X139653328Y-65044000D01*
X140510471Y-65948761D02*
X140415233Y-65996380D01*
X140224756Y-65996380D01*
X140129518Y-65948761D01*
X140081899Y-65901142D01*
X140034280Y-65805904D01*
X140034280Y-65520190D01*
X140081899Y-65424952D01*
X140129518Y-65377333D01*
X140224756Y-65329714D01*
X140415233Y-65329714D01*
X140510471Y-65377333D01*
X140939042Y-65996380D02*
X140939042Y-65329714D01*
X140939042Y-65520190D02*
X140986661Y-65424952D01*
X141034280Y-65377333D01*
X141129518Y-65329714D01*
X141224756Y-65329714D01*
X141939042Y-65948761D02*
X141843804Y-65996380D01*
X141653328Y-65996380D01*
X141558090Y-65948761D01*
X141510471Y-65853523D01*
X141510471Y-65472571D01*
X141558090Y-65377333D01*
X141653328Y-65329714D01*
X141843804Y-65329714D01*
X141939042Y-65377333D01*
X141986661Y-65472571D01*
X141986661Y-65567809D01*
X141510471Y-65663047D01*
X142319995Y-65329714D02*
X142510471Y-65996380D01*
X142700947Y-65520190D01*
X142891423Y-65996380D01*
X143081899Y-65329714D01*
X143224756Y-66091619D02*
X143986661Y-66091619D01*
X144081899Y-64996380D02*
X144653328Y-64996380D01*
X144367614Y-65996380D02*
X144367614Y-64996380D01*
X145367614Y-65948761D02*
X145272375Y-65996380D01*
X145081899Y-65996380D01*
X144986661Y-65948761D01*
X144939042Y-65853523D01*
X144939042Y-65472571D01*
X144986661Y-65377333D01*
X145081899Y-65329714D01*
X145272375Y-65329714D01*
X145367614Y-65377333D01*
X145415233Y-65472571D01*
X145415233Y-65567809D01*
X144939042Y-65663047D01*
X145843804Y-65996380D02*
X145843804Y-65329714D01*
X145843804Y-65520190D02*
X145891423Y-65424952D01*
X145939042Y-65377333D01*
X146034280Y-65329714D01*
X146129518Y-65329714D01*
X146462852Y-65996380D02*
X146462852Y-65329714D01*
X146462852Y-65424952D02*
X146510471Y-65377333D01*
X146605709Y-65329714D01*
X146748566Y-65329714D01*
X146843804Y-65377333D01*
X146891423Y-65472571D01*
X146891423Y-65996380D01*
X146891423Y-65472571D02*
X146939042Y-65377333D01*
X147034280Y-65329714D01*
X147177137Y-65329714D01*
X147272375Y-65377333D01*
X147319995Y-65472571D01*
X147319995Y-65996380D01*
X147796185Y-65996380D02*
X147796185Y-65329714D01*
X147796185Y-64996380D02*
X147748566Y-65044000D01*
X147796185Y-65091619D01*
X147843804Y-65044000D01*
X147796185Y-64996380D01*
X147796185Y-65091619D01*
X148272375Y-65329714D02*
X148272375Y-65996380D01*
X148272375Y-65424952D02*
X148319995Y-65377333D01*
X148415233Y-65329714D01*
X148558090Y-65329714D01*
X148653328Y-65377333D01*
X148700947Y-65472571D01*
X148700947Y-65996380D01*
X149605709Y-65996380D02*
X149605709Y-65472571D01*
X149558090Y-65377333D01*
X149462852Y-65329714D01*
X149272375Y-65329714D01*
X149177137Y-65377333D01*
X149605709Y-65948761D02*
X149510471Y-65996380D01*
X149272375Y-65996380D01*
X149177137Y-65948761D01*
X149129518Y-65853523D01*
X149129518Y-65758285D01*
X149177137Y-65663047D01*
X149272375Y-65615428D01*
X149510471Y-65615428D01*
X149605709Y-65567809D01*
X150224756Y-65996380D02*
X150129518Y-65948761D01*
X150081899Y-65853523D01*
X150081899Y-64996380D01*
X150367614Y-66091619D02*
X151129518Y-66091619D01*
X151558090Y-64996380D02*
X151653328Y-64996380D01*
X151748566Y-65044000D01*
X151796185Y-65091619D01*
X151843804Y-65186857D01*
X151891423Y-65377333D01*
X151891423Y-65615428D01*
X151843804Y-65805904D01*
X151796185Y-65901142D01*
X151748566Y-65948761D01*
X151653328Y-65996380D01*
X151558090Y-65996380D01*
X151462852Y-65948761D01*
X151415233Y-65901142D01*
X151367614Y-65805904D01*
X151319995Y-65615428D01*
X151319995Y-65377333D01*
X151367614Y-65186857D01*
X151415233Y-65091619D01*
X151462852Y-65044000D01*
X151558090Y-64996380D01*
X152843804Y-65996380D02*
X152272375Y-65996380D01*
X152558090Y-65996380D02*
X152558090Y-64996380D01*
X152462852Y-65139238D01*
X152367614Y-65234476D01*
X152272375Y-65282095D01*
X153177137Y-65996380D02*
X153700947Y-65329714D01*
X153177137Y-65329714D02*
X153700947Y-65996380D01*
X154272375Y-64996380D02*
X154367614Y-64996380D01*
X154462852Y-65044000D01*
X154510471Y-65091619D01*
X154558090Y-65186857D01*
X154605709Y-65377333D01*
X154605709Y-65615428D01*
X154558090Y-65805904D01*
X154510471Y-65901142D01*
X154462852Y-65948761D01*
X154367614Y-65996380D01*
X154272375Y-65996380D01*
X154177137Y-65948761D01*
X154129518Y-65901142D01*
X154081899Y-65805904D01*
X154034280Y-65615428D01*
X154034280Y-65377333D01*
X154081899Y-65186857D01*
X154129518Y-65091619D01*
X154177137Y-65044000D01*
X154272375Y-64996380D01*
X154986661Y-65091619D02*
X155034280Y-65044000D01*
X155129518Y-64996380D01*
X155367614Y-64996380D01*
X155462852Y-65044000D01*
X155510471Y-65091619D01*
X155558090Y-65186857D01*
X155558090Y-65282095D01*
X155510471Y-65424952D01*
X154939042Y-65996380D01*
X155558090Y-65996380D01*
X146986661Y-74716380D02*
X146986661Y-75430666D01*
X146939042Y-75573523D01*
X146843804Y-75668761D01*
X146700947Y-75716380D01*
X146605709Y-75716380D01*
X147986661Y-75716380D02*
X147415233Y-75716380D01*
X147700947Y-75716380D02*
X147700947Y-74716380D01*
X147605709Y-74859238D01*
X147510471Y-74954476D01*
X147415233Y-75002095D01*
X159424761Y-86932880D02*
X158853333Y-86932880D01*
X159139047Y-86932880D02*
X159139047Y-85932880D01*
X159043809Y-86075738D01*
X158948571Y-86170976D01*
X158853333Y-86218595D01*
X160043809Y-85932880D02*
X160139047Y-85932880D01*
X160234285Y-85980500D01*
X160281904Y-86028119D01*
X160329523Y-86123357D01*
X160377142Y-86313833D01*
X160377142Y-86551928D01*
X160329523Y-86742404D01*
X160281904Y-86837642D01*
X160234285Y-86885261D01*
X160139047Y-86932880D01*
X160043809Y-86932880D01*
X159948571Y-86885261D01*
X159900952Y-86837642D01*
X159853333Y-86742404D01*
X159805714Y-86551928D01*
X159805714Y-86313833D01*
X159853333Y-86123357D01*
X159900952Y-86028119D01*
X159948571Y-85980500D01*
X160043809Y-85932880D01*
X160805714Y-86932880D02*
X160805714Y-85932880D01*
X160900952Y-86551928D02*
X161186666Y-86932880D01*
X161186666Y-86266214D02*
X160805714Y-86647166D01*
D11*
X159936666Y-85056690D02*
X159770000Y-84818595D01*
X159650952Y-85056690D02*
X159650952Y-84556690D01*
X159841428Y-84556690D01*
X159889047Y-84580500D01*
X159912857Y-84604309D01*
X159936666Y-84651928D01*
X159936666Y-84723357D01*
X159912857Y-84770976D01*
X159889047Y-84794785D01*
X159841428Y-84818595D01*
X159650952Y-84818595D01*
X160127142Y-84604309D02*
X160150952Y-84580500D01*
X160198571Y-84556690D01*
X160317619Y-84556690D01*
X160365238Y-84580500D01*
X160389047Y-84604309D01*
X160412857Y-84651928D01*
X160412857Y-84699547D01*
X160389047Y-84770976D01*
X160103333Y-85056690D01*
X160412857Y-85056690D01*
D10*
X159709380Y-69683238D02*
X159709380Y-70254666D01*
X159709380Y-69968952D02*
X158709380Y-69968952D01*
X158852238Y-70064190D01*
X158947476Y-70159428D01*
X158995095Y-70254666D01*
X158709380Y-69064190D02*
X158709380Y-68968952D01*
X158757000Y-68873714D01*
X158804619Y-68826095D01*
X158899857Y-68778476D01*
X159090333Y-68730857D01*
X159328428Y-68730857D01*
X159518904Y-68778476D01*
X159614142Y-68826095D01*
X159661761Y-68873714D01*
X159709380Y-68968952D01*
X159709380Y-69064190D01*
X159661761Y-69159428D01*
X159614142Y-69207047D01*
X159518904Y-69254666D01*
X159328428Y-69302285D01*
X159090333Y-69302285D01*
X158899857Y-69254666D01*
X158804619Y-69207047D01*
X158757000Y-69159428D01*
X158709380Y-69064190D01*
X159709380Y-68302285D02*
X158709380Y-68302285D01*
X159328428Y-68207047D02*
X159709380Y-67921333D01*
X159042714Y-67921333D02*
X159423666Y-68302285D01*
D11*
X157833190Y-69171333D02*
X157595095Y-69338000D01*
X157833190Y-69457047D02*
X157333190Y-69457047D01*
X157333190Y-69266571D01*
X157357000Y-69218952D01*
X157380809Y-69195142D01*
X157428428Y-69171333D01*
X157499857Y-69171333D01*
X157547476Y-69195142D01*
X157571285Y-69218952D01*
X157595095Y-69266571D01*
X157595095Y-69457047D01*
X157333190Y-68742761D02*
X157333190Y-68838000D01*
X157357000Y-68885619D01*
X157380809Y-68909428D01*
X157452238Y-68957047D01*
X157547476Y-68980857D01*
X157737952Y-68980857D01*
X157785571Y-68957047D01*
X157809380Y-68933238D01*
X157833190Y-68885619D01*
X157833190Y-68790380D01*
X157809380Y-68742761D01*
X157785571Y-68718952D01*
X157737952Y-68695142D01*
X157618904Y-68695142D01*
X157571285Y-68718952D01*
X157547476Y-68742761D01*
X157523666Y-68790380D01*
X157523666Y-68885619D01*
X157547476Y-68933238D01*
X157571285Y-68957047D01*
X157618904Y-68980857D01*
D10*
X130656380Y-109656428D02*
X130656380Y-110227857D01*
X130656380Y-109942142D02*
X129656380Y-109942142D01*
X129799238Y-110037380D01*
X129894476Y-110132619D01*
X129942095Y-110227857D01*
X129656380Y-109037380D02*
X129656380Y-108942142D01*
X129704000Y-108846904D01*
X129751619Y-108799285D01*
X129846857Y-108751666D01*
X130037333Y-108704047D01*
X130275428Y-108704047D01*
X130465904Y-108751666D01*
X130561142Y-108799285D01*
X130608761Y-108846904D01*
X130656380Y-108942142D01*
X130656380Y-109037380D01*
X130608761Y-109132619D01*
X130561142Y-109180238D01*
X130465904Y-109227857D01*
X130275428Y-109275476D01*
X130037333Y-109275476D01*
X129846857Y-109227857D01*
X129751619Y-109180238D01*
X129704000Y-109132619D01*
X129656380Y-109037380D01*
X129989714Y-107846904D02*
X130656380Y-107846904D01*
X129989714Y-108275476D02*
X130513523Y-108275476D01*
X130608761Y-108227857D01*
X130656380Y-108132619D01*
X130656380Y-107989761D01*
X130608761Y-107894523D01*
X130561142Y-107846904D01*
X130132571Y-107037380D02*
X130132571Y-107370714D01*
X130656380Y-107370714D02*
X129656380Y-107370714D01*
X129656380Y-106894523D01*
D11*
X128702571Y-108668333D02*
X128726380Y-108692142D01*
X128750190Y-108763571D01*
X128750190Y-108811190D01*
X128726380Y-108882619D01*
X128678761Y-108930238D01*
X128631142Y-108954047D01*
X128535904Y-108977857D01*
X128464476Y-108977857D01*
X128369238Y-108954047D01*
X128321619Y-108930238D01*
X128274000Y-108882619D01*
X128250190Y-108811190D01*
X128250190Y-108763571D01*
X128274000Y-108692142D01*
X128297809Y-108668333D01*
X128250190Y-108239761D02*
X128250190Y-108335000D01*
X128274000Y-108382619D01*
X128297809Y-108406428D01*
X128369238Y-108454047D01*
X128464476Y-108477857D01*
X128654952Y-108477857D01*
X128702571Y-108454047D01*
X128726380Y-108430238D01*
X128750190Y-108382619D01*
X128750190Y-108287380D01*
X128726380Y-108239761D01*
X128702571Y-108215952D01*
X128654952Y-108192142D01*
X128535904Y-108192142D01*
X128488285Y-108215952D01*
X128464476Y-108239761D01*
X128440666Y-108287380D01*
X128440666Y-108382619D01*
X128464476Y-108430238D01*
X128488285Y-108454047D01*
X128535904Y-108477857D01*
D10*
X155932714Y-124418761D02*
X156075571Y-124466380D01*
X156313666Y-124466380D01*
X156408904Y-124418761D01*
X156456523Y-124371142D01*
X156504142Y-124275904D01*
X156504142Y-124180666D01*
X156456523Y-124085428D01*
X156408904Y-124037809D01*
X156313666Y-123990190D01*
X156123190Y-123942571D01*
X156027952Y-123894952D01*
X155980333Y-123847333D01*
X155932714Y-123752095D01*
X155932714Y-123656857D01*
X155980333Y-123561619D01*
X156027952Y-123514000D01*
X156123190Y-123466380D01*
X156361285Y-123466380D01*
X156504142Y-123514000D01*
X156837476Y-123466380D02*
X157075571Y-124466380D01*
X157266047Y-123752095D01*
X157456523Y-124466380D01*
X157694619Y-123466380D01*
X157837476Y-124561619D02*
X158599380Y-124561619D01*
X158837476Y-124466380D02*
X158837476Y-123466380D01*
X159075571Y-123466380D01*
X159218428Y-123514000D01*
X159313666Y-123609238D01*
X159361285Y-123704476D01*
X159408904Y-123894952D01*
X159408904Y-124037809D01*
X159361285Y-124228285D01*
X159313666Y-124323523D01*
X159218428Y-124418761D01*
X159075571Y-124466380D01*
X158837476Y-124466380D01*
X159837476Y-124466380D02*
X159837476Y-123466380D01*
X160313666Y-124466380D02*
X160313666Y-123466380D01*
X160694619Y-123466380D01*
X160789857Y-123514000D01*
X160837476Y-123561619D01*
X160885095Y-123656857D01*
X160885095Y-123799714D01*
X160837476Y-123894952D01*
X160789857Y-123942571D01*
X160694619Y-123990190D01*
X160313666Y-123990190D01*
X161075571Y-124561619D02*
X161837476Y-124561619D01*
X161980333Y-124466380D02*
X162504142Y-123799714D01*
X161980333Y-123799714D02*
X162504142Y-124466380D01*
X163075571Y-123466380D02*
X163170809Y-123466380D01*
X163266047Y-123514000D01*
X163313666Y-123561619D01*
X163361285Y-123656857D01*
X163408904Y-123847333D01*
X163408904Y-124085428D01*
X163361285Y-124275904D01*
X163313666Y-124371142D01*
X163266047Y-124418761D01*
X163170809Y-124466380D01*
X163075571Y-124466380D01*
X162980333Y-124418761D01*
X162932714Y-124371142D01*
X162885095Y-124275904D01*
X162837476Y-124085428D01*
X162837476Y-123847333D01*
X162885095Y-123656857D01*
X162932714Y-123561619D01*
X162980333Y-123514000D01*
X163075571Y-123466380D01*
X163980333Y-123894952D02*
X163885095Y-123847333D01*
X163837476Y-123799714D01*
X163789857Y-123704476D01*
X163789857Y-123656857D01*
X163837476Y-123561619D01*
X163885095Y-123514000D01*
X163980333Y-123466380D01*
X164170809Y-123466380D01*
X164266047Y-123514000D01*
X164313666Y-123561619D01*
X164361285Y-123656857D01*
X164361285Y-123704476D01*
X164313666Y-123799714D01*
X164266047Y-123847333D01*
X164170809Y-123894952D01*
X163980333Y-123894952D01*
X163885095Y-123942571D01*
X163837476Y-123990190D01*
X163789857Y-124085428D01*
X163789857Y-124275904D01*
X163837476Y-124371142D01*
X163885095Y-124418761D01*
X163980333Y-124466380D01*
X164170809Y-124466380D01*
X164266047Y-124418761D01*
X164313666Y-124371142D01*
X164361285Y-124275904D01*
X164361285Y-124085428D01*
X164313666Y-123990190D01*
X164266047Y-123942571D01*
X164170809Y-123894952D01*
D14*
X160155452Y-102143404D02*
X160079261Y-102105309D01*
X160041166Y-102067214D01*
X160003071Y-101991023D01*
X160003071Y-101762452D01*
X160041166Y-101686261D01*
X160079261Y-101648166D01*
X160155452Y-101610071D01*
X160269738Y-101610071D01*
X160345928Y-101648166D01*
X160384023Y-101686261D01*
X160422119Y-101762452D01*
X160422119Y-101991023D01*
X160384023Y-102067214D01*
X160345928Y-102105309D01*
X160269738Y-102143404D01*
X160155452Y-102143404D01*
X160764976Y-101610071D02*
X160764976Y-102143404D01*
X160764976Y-101686261D02*
X160803071Y-101648166D01*
X160879261Y-101610071D01*
X160993547Y-101610071D01*
X161069738Y-101648166D01*
X161107833Y-101724357D01*
X161107833Y-102143404D01*
X163050809Y-113080666D02*
X163088904Y-112966380D01*
X163088904Y-112775904D01*
X163050809Y-112699714D01*
X163012714Y-112661619D01*
X162936523Y-112623523D01*
X162860333Y-112623523D01*
X162784142Y-112661619D01*
X162746047Y-112699714D01*
X162707952Y-112775904D01*
X162669857Y-112928285D01*
X162631761Y-113004476D01*
X162593666Y-113042571D01*
X162517476Y-113080666D01*
X162441285Y-113080666D01*
X162365095Y-113042571D01*
X162327000Y-113004476D01*
X162288904Y-112928285D01*
X162288904Y-112737809D01*
X162327000Y-112623523D01*
X162288904Y-112356857D02*
X163088904Y-112166380D01*
X162517476Y-112014000D01*
X163088904Y-111861619D01*
X162288904Y-111671142D01*
X163088904Y-110947333D02*
X163088904Y-111404476D01*
X163088904Y-111175904D02*
X162288904Y-111175904D01*
X162403190Y-111252095D01*
X162479380Y-111328285D01*
X162517476Y-111404476D01*
D10*
X122571904Y-66011761D02*
X122714761Y-66059380D01*
X122952857Y-66059380D01*
X123048095Y-66011761D01*
X123095714Y-65964142D01*
X123143333Y-65868904D01*
X123143333Y-65773666D01*
X123095714Y-65678428D01*
X123048095Y-65630809D01*
X122952857Y-65583190D01*
X122762380Y-65535571D01*
X122667142Y-65487952D01*
X122619523Y-65440333D01*
X122571904Y-65345095D01*
X122571904Y-65249857D01*
X122619523Y-65154619D01*
X122667142Y-65107000D01*
X122762380Y-65059380D01*
X123000476Y-65059380D01*
X123143333Y-65107000D01*
X124000476Y-66011761D02*
X123905238Y-66059380D01*
X123714761Y-66059380D01*
X123619523Y-66011761D01*
X123571904Y-65964142D01*
X123524285Y-65868904D01*
X123524285Y-65583190D01*
X123571904Y-65487952D01*
X123619523Y-65440333D01*
X123714761Y-65392714D01*
X123905238Y-65392714D01*
X124000476Y-65440333D01*
X124429047Y-66059380D02*
X124429047Y-65392714D01*
X124429047Y-65583190D02*
X124476666Y-65487952D01*
X124524285Y-65440333D01*
X124619523Y-65392714D01*
X124714761Y-65392714D01*
X125429047Y-66011761D02*
X125333809Y-66059380D01*
X125143333Y-66059380D01*
X125048095Y-66011761D01*
X125000476Y-65916523D01*
X125000476Y-65535571D01*
X125048095Y-65440333D01*
X125143333Y-65392714D01*
X125333809Y-65392714D01*
X125429047Y-65440333D01*
X125476666Y-65535571D01*
X125476666Y-65630809D01*
X125000476Y-65726047D01*
X125810000Y-65392714D02*
X126000476Y-66059380D01*
X126190952Y-65583190D01*
X126381428Y-66059380D01*
X126571904Y-65392714D01*
X126714761Y-66154619D02*
X127476666Y-66154619D01*
X127571904Y-65059380D02*
X128143333Y-65059380D01*
X127857619Y-66059380D02*
X127857619Y-65059380D01*
X128857619Y-66011761D02*
X128762380Y-66059380D01*
X128571904Y-66059380D01*
X128476666Y-66011761D01*
X128429047Y-65916523D01*
X128429047Y-65535571D01*
X128476666Y-65440333D01*
X128571904Y-65392714D01*
X128762380Y-65392714D01*
X128857619Y-65440333D01*
X128905238Y-65535571D01*
X128905238Y-65630809D01*
X128429047Y-65726047D01*
X129333809Y-66059380D02*
X129333809Y-65392714D01*
X129333809Y-65583190D02*
X129381428Y-65487952D01*
X129429047Y-65440333D01*
X129524285Y-65392714D01*
X129619523Y-65392714D01*
X129952857Y-66059380D02*
X129952857Y-65392714D01*
X129952857Y-65487952D02*
X130000476Y-65440333D01*
X130095714Y-65392714D01*
X130238571Y-65392714D01*
X130333809Y-65440333D01*
X130381428Y-65535571D01*
X130381428Y-66059380D01*
X130381428Y-65535571D02*
X130429047Y-65440333D01*
X130524285Y-65392714D01*
X130667142Y-65392714D01*
X130762380Y-65440333D01*
X130810000Y-65535571D01*
X130810000Y-66059380D01*
X131286190Y-66059380D02*
X131286190Y-65392714D01*
X131286190Y-65059380D02*
X131238571Y-65107000D01*
X131286190Y-65154619D01*
X131333809Y-65107000D01*
X131286190Y-65059380D01*
X131286190Y-65154619D01*
X131762380Y-65392714D02*
X131762380Y-66059380D01*
X131762380Y-65487952D02*
X131810000Y-65440333D01*
X131905238Y-65392714D01*
X132048095Y-65392714D01*
X132143333Y-65440333D01*
X132190952Y-65535571D01*
X132190952Y-66059380D01*
X133095714Y-66059380D02*
X133095714Y-65535571D01*
X133048095Y-65440333D01*
X132952857Y-65392714D01*
X132762380Y-65392714D01*
X132667142Y-65440333D01*
X133095714Y-66011761D02*
X133000476Y-66059380D01*
X132762380Y-66059380D01*
X132667142Y-66011761D01*
X132619523Y-65916523D01*
X132619523Y-65821285D01*
X132667142Y-65726047D01*
X132762380Y-65678428D01*
X133000476Y-65678428D01*
X133095714Y-65630809D01*
X133714761Y-66059380D02*
X133619523Y-66011761D01*
X133571904Y-65916523D01*
X133571904Y-65059380D01*
X133857619Y-66154619D02*
X134619523Y-66154619D01*
X135048095Y-65059380D02*
X135143333Y-65059380D01*
X135238571Y-65107000D01*
X135286190Y-65154619D01*
X135333809Y-65249857D01*
X135381428Y-65440333D01*
X135381428Y-65678428D01*
X135333809Y-65868904D01*
X135286190Y-65964142D01*
X135238571Y-66011761D01*
X135143333Y-66059380D01*
X135048095Y-66059380D01*
X134952857Y-66011761D01*
X134905238Y-65964142D01*
X134857619Y-65868904D01*
X134810000Y-65678428D01*
X134810000Y-65440333D01*
X134857619Y-65249857D01*
X134905238Y-65154619D01*
X134952857Y-65107000D01*
X135048095Y-65059380D01*
X136333809Y-66059380D02*
X135762380Y-66059380D01*
X136048095Y-66059380D02*
X136048095Y-65059380D01*
X135952857Y-65202238D01*
X135857619Y-65297476D01*
X135762380Y-65345095D01*
X136667142Y-66059380D02*
X137190952Y-65392714D01*
X136667142Y-65392714D02*
X137190952Y-66059380D01*
X137762380Y-65059380D02*
X137857619Y-65059380D01*
X137952857Y-65107000D01*
X138000476Y-65154619D01*
X138048095Y-65249857D01*
X138095714Y-65440333D01*
X138095714Y-65678428D01*
X138048095Y-65868904D01*
X138000476Y-65964142D01*
X137952857Y-66011761D01*
X137857619Y-66059380D01*
X137762380Y-66059380D01*
X137667142Y-66011761D01*
X137619523Y-65964142D01*
X137571904Y-65868904D01*
X137524285Y-65678428D01*
X137524285Y-65440333D01*
X137571904Y-65249857D01*
X137619523Y-65154619D01*
X137667142Y-65107000D01*
X137762380Y-65059380D01*
X138667142Y-65487952D02*
X138571904Y-65440333D01*
X138524285Y-65392714D01*
X138476666Y-65297476D01*
X138476666Y-65249857D01*
X138524285Y-65154619D01*
X138571904Y-65107000D01*
X138667142Y-65059380D01*
X138857619Y-65059380D01*
X138952857Y-65107000D01*
X139000476Y-65154619D01*
X139048095Y-65249857D01*
X139048095Y-65297476D01*
X139000476Y-65392714D01*
X138952857Y-65440333D01*
X138857619Y-65487952D01*
X138667142Y-65487952D01*
X138571904Y-65535571D01*
X138524285Y-65583190D01*
X138476666Y-65678428D01*
X138476666Y-65868904D01*
X138524285Y-65964142D01*
X138571904Y-66011761D01*
X138667142Y-66059380D01*
X138857619Y-66059380D01*
X138952857Y-66011761D01*
X139000476Y-65964142D01*
X139048095Y-65868904D01*
X139048095Y-65678428D01*
X139000476Y-65583190D01*
X138952857Y-65535571D01*
X138857619Y-65487952D01*
X130476666Y-67429380D02*
X130476666Y-68143666D01*
X130429047Y-68286523D01*
X130333809Y-68381761D01*
X130190952Y-68429380D01*
X130095714Y-68429380D01*
X130905238Y-67524619D02*
X130952857Y-67477000D01*
X131048095Y-67429380D01*
X131286190Y-67429380D01*
X131381428Y-67477000D01*
X131429047Y-67524619D01*
X131476666Y-67619857D01*
X131476666Y-67715095D01*
X131429047Y-67857952D01*
X130857619Y-68429380D01*
X131476666Y-68429380D01*
X129254666Y-116360357D02*
X129254666Y-115884166D01*
X129540380Y-116455595D02*
X128540380Y-116122261D01*
X129540380Y-115788928D01*
X129540380Y-115455595D02*
X128540380Y-115455595D01*
X128540380Y-115074642D01*
X128588000Y-114979404D01*
X128635619Y-114931785D01*
X128730857Y-114884166D01*
X128873714Y-114884166D01*
X128968952Y-114931785D01*
X129016571Y-114979404D01*
X129064190Y-115074642D01*
X129064190Y-115455595D01*
X128540380Y-114550833D02*
X128540380Y-113884166D01*
X129540380Y-114312738D01*
X128540380Y-113598452D02*
X128540380Y-112979404D01*
X128921333Y-113312738D01*
X128921333Y-113169880D01*
X128968952Y-113074642D01*
X129016571Y-113027023D01*
X129111809Y-112979404D01*
X129349904Y-112979404D01*
X129445142Y-113027023D01*
X129492761Y-113074642D01*
X129540380Y-113169880D01*
X129540380Y-113455595D01*
X129492761Y-113550833D01*
X129445142Y-113598452D01*
X128968952Y-112407976D02*
X128921333Y-112503214D01*
X128873714Y-112550833D01*
X128778476Y-112598452D01*
X128730857Y-112598452D01*
X128635619Y-112550833D01*
X128588000Y-112503214D01*
X128540380Y-112407976D01*
X128540380Y-112217500D01*
X128588000Y-112122261D01*
X128635619Y-112074642D01*
X128730857Y-112027023D01*
X128778476Y-112027023D01*
X128873714Y-112074642D01*
X128921333Y-112122261D01*
X128968952Y-112217500D01*
X128968952Y-112407976D01*
X129016571Y-112503214D01*
X129064190Y-112550833D01*
X129159428Y-112598452D01*
X129349904Y-112598452D01*
X129445142Y-112550833D01*
X129492761Y-112503214D01*
X129540380Y-112407976D01*
X129540380Y-112217500D01*
X129492761Y-112122261D01*
X129445142Y-112074642D01*
X129349904Y-112027023D01*
X129159428Y-112027023D01*
X129064190Y-112074642D01*
X129016571Y-112122261D01*
X128968952Y-112217500D01*
X129540380Y-111074642D02*
X129540380Y-111646071D01*
X129540380Y-111360357D02*
X128540380Y-111360357D01*
X128683238Y-111455595D01*
X128778476Y-111550833D01*
X128826095Y-111646071D01*
X129159428Y-110646071D02*
X129159428Y-109884166D01*
X128540380Y-108931785D02*
X128540380Y-109407976D01*
X129016571Y-109455595D01*
X128968952Y-109407976D01*
X128921333Y-109312738D01*
X128921333Y-109074642D01*
X128968952Y-108979404D01*
X129016571Y-108931785D01*
X129111809Y-108884166D01*
X129349904Y-108884166D01*
X129445142Y-108931785D01*
X129492761Y-108979404D01*
X129540380Y-109074642D01*
X129540380Y-109312738D01*
X129492761Y-109407976D01*
X129445142Y-109455595D01*
X128540380Y-108265119D02*
X128540380Y-108169880D01*
X128588000Y-108074642D01*
X128635619Y-108027023D01*
X128730857Y-107979404D01*
X128921333Y-107931785D01*
X129159428Y-107931785D01*
X129349904Y-107979404D01*
X129445142Y-108027023D01*
X129492761Y-108074642D01*
X129540380Y-108169880D01*
X129540380Y-108265119D01*
X129492761Y-108360357D01*
X129445142Y-108407976D01*
X129349904Y-108455595D01*
X129159428Y-108503214D01*
X128921333Y-108503214D01*
X128730857Y-108455595D01*
X128635619Y-108407976D01*
X128588000Y-108360357D01*
X128540380Y-108265119D01*
X129064190Y-107312738D02*
X129540380Y-107312738D01*
X128540380Y-107646071D02*
X129064190Y-107312738D01*
X128540380Y-106979404D01*
X131826095Y-111369880D02*
X131826095Y-112179404D01*
X131873714Y-112274642D01*
X131921333Y-112322261D01*
X132016571Y-112369880D01*
X132207047Y-112369880D01*
X132302285Y-112322261D01*
X132349904Y-112274642D01*
X132397523Y-112179404D01*
X132397523Y-111369880D01*
X132778476Y-111369880D02*
X133397523Y-111369880D01*
X133064190Y-111750833D01*
X133207047Y-111750833D01*
X133302285Y-111798452D01*
X133349904Y-111846071D01*
X133397523Y-111941309D01*
X133397523Y-112179404D01*
X133349904Y-112274642D01*
X133302285Y-112322261D01*
X133207047Y-112369880D01*
X132921333Y-112369880D01*
X132826095Y-112322261D01*
X132778476Y-112274642D01*
X163329952Y-92018380D02*
X162758523Y-92018380D01*
X163044238Y-92018380D02*
X163044238Y-91018380D01*
X162949000Y-91161238D01*
X162853761Y-91256476D01*
X162758523Y-91304095D01*
X163758523Y-92018380D02*
X163758523Y-91018380D01*
X163853761Y-91637428D02*
X164139476Y-92018380D01*
X164139476Y-91351714D02*
X163758523Y-91732666D01*
D11*
X163127571Y-90142190D02*
X162960904Y-89904095D01*
X162841857Y-90142190D02*
X162841857Y-89642190D01*
X163032333Y-89642190D01*
X163079952Y-89666000D01*
X163103761Y-89689809D01*
X163127571Y-89737428D01*
X163127571Y-89808857D01*
X163103761Y-89856476D01*
X163079952Y-89880285D01*
X163032333Y-89904095D01*
X162841857Y-89904095D01*
X163603761Y-90142190D02*
X163318047Y-90142190D01*
X163460904Y-90142190D02*
X163460904Y-89642190D01*
X163413285Y-89713619D01*
X163365666Y-89761238D01*
X163318047Y-89785047D01*
X163913285Y-89642190D02*
X163960904Y-89642190D01*
X164008523Y-89666000D01*
X164032333Y-89689809D01*
X164056142Y-89737428D01*
X164079952Y-89832666D01*
X164079952Y-89951714D01*
X164056142Y-90046952D01*
X164032333Y-90094571D01*
X164008523Y-90118380D01*
X163960904Y-90142190D01*
X163913285Y-90142190D01*
X163865666Y-90118380D01*
X163841857Y-90094571D01*
X163818047Y-90046952D01*
X163794238Y-89951714D01*
X163794238Y-89832666D01*
X163818047Y-89737428D01*
X163841857Y-89689809D01*
X163865666Y-89666000D01*
X163913285Y-89642190D01*
D10*
X129183238Y-117230000D02*
X129088000Y-117182380D01*
X128945142Y-117182380D01*
X128802285Y-117230000D01*
X128707047Y-117325238D01*
X128659428Y-117420476D01*
X128611809Y-117610952D01*
X128611809Y-117753809D01*
X128659428Y-117944285D01*
X128707047Y-118039523D01*
X128802285Y-118134761D01*
X128945142Y-118182380D01*
X129040380Y-118182380D01*
X129183238Y-118134761D01*
X129230857Y-118087142D01*
X129230857Y-117753809D01*
X129040380Y-117753809D01*
X130230857Y-118182380D02*
X129897523Y-117706190D01*
X129659428Y-118182380D02*
X129659428Y-117182380D01*
X130040380Y-117182380D01*
X130135619Y-117230000D01*
X130183238Y-117277619D01*
X130230857Y-117372857D01*
X130230857Y-117515714D01*
X130183238Y-117610952D01*
X130135619Y-117658571D01*
X130040380Y-117706190D01*
X129659428Y-117706190D01*
X130659428Y-117658571D02*
X130992761Y-117658571D01*
X131135619Y-118182380D02*
X130659428Y-118182380D01*
X130659428Y-117182380D01*
X131135619Y-117182380D01*
X131564190Y-117658571D02*
X131897523Y-117658571D01*
X132040380Y-118182380D02*
X131564190Y-118182380D01*
X131564190Y-117182380D01*
X132040380Y-117182380D01*
X132468952Y-118182380D02*
X132468952Y-117182380D01*
X133040380Y-118182380D01*
X133040380Y-117182380D01*
X134754666Y-118182380D02*
X134278476Y-118182380D01*
X134278476Y-117182380D01*
X135088000Y-117658571D02*
X135421333Y-117658571D01*
X135564190Y-118182380D02*
X135088000Y-118182380D01*
X135088000Y-117182380D01*
X135564190Y-117182380D01*
X135992761Y-118182380D02*
X135992761Y-117182380D01*
X136230857Y-117182380D01*
X136373714Y-117230000D01*
X136468952Y-117325238D01*
X136516571Y-117420476D01*
X136564190Y-117610952D01*
X136564190Y-117753809D01*
X136516571Y-117944285D01*
X136468952Y-118039523D01*
X136373714Y-118134761D01*
X136230857Y-118182380D01*
X135992761Y-118182380D01*
D11*
X132218952Y-119606190D02*
X132218952Y-119106190D01*
X132338000Y-119106190D01*
X132409428Y-119130000D01*
X132457047Y-119177619D01*
X132480857Y-119225238D01*
X132504666Y-119320476D01*
X132504666Y-119391904D01*
X132480857Y-119487142D01*
X132457047Y-119534761D01*
X132409428Y-119582380D01*
X132338000Y-119606190D01*
X132218952Y-119606190D01*
X132980857Y-119606190D02*
X132695142Y-119606190D01*
X132838000Y-119606190D02*
X132838000Y-119106190D01*
X132790380Y-119177619D01*
X132742761Y-119225238D01*
X132695142Y-119249047D01*
D10*
X143835904Y-102700380D02*
X143359714Y-102700380D01*
X143359714Y-101700380D01*
X144026380Y-101700380D02*
X144597809Y-101700380D01*
X144312095Y-102700380D02*
X144312095Y-101700380D01*
X145359714Y-101700380D02*
X145169238Y-101700380D01*
X145074000Y-101748000D01*
X145026380Y-101795619D01*
X144931142Y-101938476D01*
X144883523Y-102128952D01*
X144883523Y-102509904D01*
X144931142Y-102605142D01*
X144978761Y-102652761D01*
X145074000Y-102700380D01*
X145264476Y-102700380D01*
X145359714Y-102652761D01*
X145407333Y-102605142D01*
X145454952Y-102509904D01*
X145454952Y-102271809D01*
X145407333Y-102176571D01*
X145359714Y-102128952D01*
X145264476Y-102081333D01*
X145074000Y-102081333D01*
X144978761Y-102128952D01*
X144931142Y-102176571D01*
X144883523Y-102271809D01*
X146312095Y-101700380D02*
X146121619Y-101700380D01*
X146026380Y-101748000D01*
X145978761Y-101795619D01*
X145883523Y-101938476D01*
X145835904Y-102128952D01*
X145835904Y-102509904D01*
X145883523Y-102605142D01*
X145931142Y-102652761D01*
X146026380Y-102700380D01*
X146216857Y-102700380D01*
X146312095Y-102652761D01*
X146359714Y-102605142D01*
X146407333Y-102509904D01*
X146407333Y-102271809D01*
X146359714Y-102176571D01*
X146312095Y-102128952D01*
X146216857Y-102081333D01*
X146026380Y-102081333D01*
X145931142Y-102128952D01*
X145883523Y-102176571D01*
X145835904Y-102271809D01*
X147312095Y-101700380D02*
X146835904Y-101700380D01*
X146788285Y-102176571D01*
X146835904Y-102128952D01*
X146931142Y-102081333D01*
X147169238Y-102081333D01*
X147264476Y-102128952D01*
X147312095Y-102176571D01*
X147359714Y-102271809D01*
X147359714Y-102509904D01*
X147312095Y-102605142D01*
X147264476Y-102652761D01*
X147169238Y-102700380D01*
X146931142Y-102700380D01*
X146835904Y-102652761D01*
X146788285Y-102605142D01*
X148216857Y-102033714D02*
X148216857Y-102700380D01*
X147978761Y-101652761D02*
X147740666Y-102367047D01*
X148359714Y-102367047D01*
X148645428Y-102700380D02*
X149169238Y-102033714D01*
X148645428Y-102033714D02*
X149169238Y-102700380D01*
X149454952Y-102700380D02*
X149978761Y-102033714D01*
X149454952Y-102033714D02*
X149978761Y-102700380D01*
X150312095Y-102652761D02*
X150454952Y-102700380D01*
X150693047Y-102700380D01*
X150788285Y-102652761D01*
X150835904Y-102605142D01*
X150883523Y-102509904D01*
X150883523Y-102414666D01*
X150835904Y-102319428D01*
X150788285Y-102271809D01*
X150693047Y-102224190D01*
X150502571Y-102176571D01*
X150407333Y-102128952D01*
X150359714Y-102081333D01*
X150312095Y-101986095D01*
X150312095Y-101890857D01*
X150359714Y-101795619D01*
X150407333Y-101748000D01*
X150502571Y-101700380D01*
X150740666Y-101700380D01*
X150883523Y-101748000D01*
X151740666Y-101700380D02*
X151550190Y-101700380D01*
X151454952Y-101748000D01*
X151407333Y-101795619D01*
X151312095Y-101938476D01*
X151264476Y-102128952D01*
X151264476Y-102509904D01*
X151312095Y-102605142D01*
X151359714Y-102652761D01*
X151454952Y-102700380D01*
X151645428Y-102700380D01*
X151740666Y-102652761D01*
X151788285Y-102605142D01*
X151835904Y-102509904D01*
X151835904Y-102271809D01*
X151788285Y-102176571D01*
X151740666Y-102128952D01*
X151645428Y-102081333D01*
X151454952Y-102081333D01*
X151359714Y-102128952D01*
X151312095Y-102176571D01*
X151264476Y-102271809D01*
D12*
X147269238Y-104428952D02*
X147269238Y-104752761D01*
X147288285Y-104790857D01*
X147307333Y-104809904D01*
X147345428Y-104828952D01*
X147421619Y-104828952D01*
X147459714Y-104809904D01*
X147478761Y-104790857D01*
X147497809Y-104752761D01*
X147497809Y-104428952D01*
X147669238Y-104467047D02*
X147688285Y-104448000D01*
X147726380Y-104428952D01*
X147821619Y-104428952D01*
X147859714Y-104448000D01*
X147878761Y-104467047D01*
X147897809Y-104505142D01*
X147897809Y-104543238D01*
X147878761Y-104600380D01*
X147650190Y-104828952D01*
X147897809Y-104828952D01*
D10*
X132468952Y-118688380D02*
X131897523Y-118688380D01*
X132183238Y-118688380D02*
X132183238Y-117688380D01*
X132088000Y-117831238D01*
X131992761Y-117926476D01*
X131897523Y-117974095D01*
X132897523Y-118688380D02*
X132897523Y-117688380D01*
X132992761Y-118307428D02*
X133278476Y-118688380D01*
X133278476Y-118021714D02*
X132897523Y-118402666D01*
D11*
X132504666Y-116812190D02*
X132338000Y-116574095D01*
X132218952Y-116812190D02*
X132218952Y-116312190D01*
X132409428Y-116312190D01*
X132457047Y-116336000D01*
X132480857Y-116359809D01*
X132504666Y-116407428D01*
X132504666Y-116478857D01*
X132480857Y-116526476D01*
X132457047Y-116550285D01*
X132409428Y-116574095D01*
X132218952Y-116574095D01*
X132790380Y-116526476D02*
X132742761Y-116502666D01*
X132718952Y-116478857D01*
X132695142Y-116431238D01*
X132695142Y-116407428D01*
X132718952Y-116359809D01*
X132742761Y-116336000D01*
X132790380Y-116312190D01*
X132885619Y-116312190D01*
X132933238Y-116336000D01*
X132957047Y-116359809D01*
X132980857Y-116407428D01*
X132980857Y-116431238D01*
X132957047Y-116478857D01*
X132933238Y-116502666D01*
X132885619Y-116526476D01*
X132790380Y-116526476D01*
X132742761Y-116550285D01*
X132718952Y-116574095D01*
X132695142Y-116621714D01*
X132695142Y-116716952D01*
X132718952Y-116764571D01*
X132742761Y-116788380D01*
X132790380Y-116812190D01*
X132885619Y-116812190D01*
X132933238Y-116788380D01*
X132957047Y-116764571D01*
X132980857Y-116716952D01*
X132980857Y-116621714D01*
X132957047Y-116574095D01*
X132933238Y-116550285D01*
X132885619Y-116526476D01*
D10*
X163329952Y-97606380D02*
X162758523Y-97606380D01*
X163044238Y-97606380D02*
X163044238Y-96606380D01*
X162949000Y-96749238D01*
X162853761Y-96844476D01*
X162758523Y-96892095D01*
X163758523Y-97606380D02*
X163758523Y-96606380D01*
X163853761Y-97225428D02*
X164139476Y-97606380D01*
X164139476Y-96939714D02*
X163758523Y-97320666D01*
D11*
X163365666Y-95730190D02*
X163199000Y-95492095D01*
X163079952Y-95730190D02*
X163079952Y-95230190D01*
X163270428Y-95230190D01*
X163318047Y-95254000D01*
X163341857Y-95277809D01*
X163365666Y-95325428D01*
X163365666Y-95396857D01*
X163341857Y-95444476D01*
X163318047Y-95468285D01*
X163270428Y-95492095D01*
X163079952Y-95492095D01*
X163532333Y-95230190D02*
X163841857Y-95230190D01*
X163675190Y-95420666D01*
X163746619Y-95420666D01*
X163794238Y-95444476D01*
X163818047Y-95468285D01*
X163841857Y-95515904D01*
X163841857Y-95634952D01*
X163818047Y-95682571D01*
X163794238Y-95706380D01*
X163746619Y-95730190D01*
X163603761Y-95730190D01*
X163556142Y-95706380D01*
X163532333Y-95682571D01*
D10*
X167362476Y-71416571D02*
X167505333Y-71464190D01*
X167552952Y-71511809D01*
X167600571Y-71607047D01*
X167600571Y-71749904D01*
X167552952Y-71845142D01*
X167505333Y-71892761D01*
X167410095Y-71940380D01*
X167029142Y-71940380D01*
X167029142Y-70940380D01*
X167362476Y-70940380D01*
X167457714Y-70988000D01*
X167505333Y-71035619D01*
X167552952Y-71130857D01*
X167552952Y-71226095D01*
X167505333Y-71321333D01*
X167457714Y-71368952D01*
X167362476Y-71416571D01*
X167029142Y-71416571D01*
X167981523Y-71892761D02*
X168124380Y-71940380D01*
X168362476Y-71940380D01*
X168457714Y-71892761D01*
X168505333Y-71845142D01*
X168552952Y-71749904D01*
X168552952Y-71654666D01*
X168505333Y-71559428D01*
X168457714Y-71511809D01*
X168362476Y-71464190D01*
X168172000Y-71416571D01*
X168076761Y-71368952D01*
X168029142Y-71321333D01*
X167981523Y-71226095D01*
X167981523Y-71130857D01*
X168029142Y-71035619D01*
X168076761Y-70988000D01*
X168172000Y-70940380D01*
X168410095Y-70940380D01*
X168552952Y-70988000D01*
X168933904Y-71892761D02*
X169076761Y-71940380D01*
X169314857Y-71940380D01*
X169410095Y-71892761D01*
X169457714Y-71845142D01*
X169505333Y-71749904D01*
X169505333Y-71654666D01*
X169457714Y-71559428D01*
X169410095Y-71511809D01*
X169314857Y-71464190D01*
X169124380Y-71416571D01*
X169029142Y-71368952D01*
X168981523Y-71321333D01*
X168933904Y-71226095D01*
X168933904Y-71130857D01*
X168981523Y-71035619D01*
X169029142Y-70988000D01*
X169124380Y-70940380D01*
X169362476Y-70940380D01*
X169505333Y-70988000D01*
X170457714Y-71940380D02*
X169886285Y-71940380D01*
X170172000Y-71940380D02*
X170172000Y-70940380D01*
X170076761Y-71083238D01*
X169981523Y-71178476D01*
X169886285Y-71226095D01*
X170791047Y-70940380D02*
X171410095Y-70940380D01*
X171076761Y-71321333D01*
X171219619Y-71321333D01*
X171314857Y-71368952D01*
X171362476Y-71416571D01*
X171410095Y-71511809D01*
X171410095Y-71749904D01*
X171362476Y-71845142D01*
X171314857Y-71892761D01*
X171219619Y-71940380D01*
X170933904Y-71940380D01*
X170838666Y-71892761D01*
X170791047Y-71845142D01*
X171981523Y-71368952D02*
X171886285Y-71321333D01*
X171838666Y-71273714D01*
X171791047Y-71178476D01*
X171791047Y-71130857D01*
X171838666Y-71035619D01*
X171886285Y-70988000D01*
X171981523Y-70940380D01*
X172172000Y-70940380D01*
X172267238Y-70988000D01*
X172314857Y-71035619D01*
X172362476Y-71130857D01*
X172362476Y-71178476D01*
X172314857Y-71273714D01*
X172267238Y-71321333D01*
X172172000Y-71368952D01*
X171981523Y-71368952D01*
X171886285Y-71416571D01*
X171838666Y-71464190D01*
X171791047Y-71559428D01*
X171791047Y-71749904D01*
X171838666Y-71845142D01*
X171886285Y-71892761D01*
X171981523Y-71940380D01*
X172172000Y-71940380D01*
X172267238Y-71892761D01*
X172314857Y-71845142D01*
X172362476Y-71749904D01*
X172362476Y-71559428D01*
X172314857Y-71464190D01*
X172267238Y-71416571D01*
X172172000Y-71368952D01*
D13*
X169641523Y-69263238D02*
X169611047Y-69248000D01*
X169580571Y-69217523D01*
X169534857Y-69171809D01*
X169504380Y-69156571D01*
X169473904Y-69156571D01*
X169489142Y-69232761D02*
X169458666Y-69217523D01*
X169428190Y-69187047D01*
X169412952Y-69126095D01*
X169412952Y-69019428D01*
X169428190Y-68958476D01*
X169458666Y-68928000D01*
X169489142Y-68912761D01*
X169550095Y-68912761D01*
X169580571Y-68928000D01*
X169611047Y-68958476D01*
X169626285Y-69019428D01*
X169626285Y-69126095D01*
X169611047Y-69187047D01*
X169580571Y-69217523D01*
X169550095Y-69232761D01*
X169489142Y-69232761D01*
X169931047Y-69232761D02*
X169748190Y-69232761D01*
X169839619Y-69232761D02*
X169839619Y-68912761D01*
X169809142Y-68958476D01*
X169778666Y-68988952D01*
X169748190Y-69004190D01*
D10*
X132985904Y-131647761D02*
X133128761Y-131695380D01*
X133366857Y-131695380D01*
X133462095Y-131647761D01*
X133509714Y-131600142D01*
X133557333Y-131504904D01*
X133557333Y-131409666D01*
X133509714Y-131314428D01*
X133462095Y-131266809D01*
X133366857Y-131219190D01*
X133176380Y-131171571D01*
X133081142Y-131123952D01*
X133033523Y-131076333D01*
X132985904Y-130981095D01*
X132985904Y-130885857D01*
X133033523Y-130790619D01*
X133081142Y-130743000D01*
X133176380Y-130695380D01*
X133414476Y-130695380D01*
X133557333Y-130743000D01*
X134414476Y-131647761D02*
X134319238Y-131695380D01*
X134128761Y-131695380D01*
X134033523Y-131647761D01*
X133985904Y-131600142D01*
X133938285Y-131504904D01*
X133938285Y-131219190D01*
X133985904Y-131123952D01*
X134033523Y-131076333D01*
X134128761Y-131028714D01*
X134319238Y-131028714D01*
X134414476Y-131076333D01*
X134843047Y-131695380D02*
X134843047Y-131028714D01*
X134843047Y-131219190D02*
X134890666Y-131123952D01*
X134938285Y-131076333D01*
X135033523Y-131028714D01*
X135128761Y-131028714D01*
X135843047Y-131647761D02*
X135747809Y-131695380D01*
X135557333Y-131695380D01*
X135462095Y-131647761D01*
X135414476Y-131552523D01*
X135414476Y-131171571D01*
X135462095Y-131076333D01*
X135557333Y-131028714D01*
X135747809Y-131028714D01*
X135843047Y-131076333D01*
X135890666Y-131171571D01*
X135890666Y-131266809D01*
X135414476Y-131362047D01*
X136224000Y-131028714D02*
X136414476Y-131695380D01*
X136604952Y-131219190D01*
X136795428Y-131695380D01*
X136985904Y-131028714D01*
X137128761Y-131790619D02*
X137890666Y-131790619D01*
X137985904Y-130695380D02*
X138557333Y-130695380D01*
X138271619Y-131695380D02*
X138271619Y-130695380D01*
X139271619Y-131647761D02*
X139176380Y-131695380D01*
X138985904Y-131695380D01*
X138890666Y-131647761D01*
X138843047Y-131552523D01*
X138843047Y-131171571D01*
X138890666Y-131076333D01*
X138985904Y-131028714D01*
X139176380Y-131028714D01*
X139271619Y-131076333D01*
X139319238Y-131171571D01*
X139319238Y-131266809D01*
X138843047Y-131362047D01*
X139747809Y-131695380D02*
X139747809Y-131028714D01*
X139747809Y-131219190D02*
X139795428Y-131123952D01*
X139843047Y-131076333D01*
X139938285Y-131028714D01*
X140033523Y-131028714D01*
X140366857Y-131695380D02*
X140366857Y-131028714D01*
X140366857Y-131123952D02*
X140414476Y-131076333D01*
X140509714Y-131028714D01*
X140652571Y-131028714D01*
X140747809Y-131076333D01*
X140795428Y-131171571D01*
X140795428Y-131695380D01*
X140795428Y-131171571D02*
X140843047Y-131076333D01*
X140938285Y-131028714D01*
X141081142Y-131028714D01*
X141176380Y-131076333D01*
X141224000Y-131171571D01*
X141224000Y-131695380D01*
X141700190Y-131695380D02*
X141700190Y-131028714D01*
X141700190Y-130695380D02*
X141652571Y-130743000D01*
X141700190Y-130790619D01*
X141747809Y-130743000D01*
X141700190Y-130695380D01*
X141700190Y-130790619D01*
X142176380Y-131028714D02*
X142176380Y-131695380D01*
X142176380Y-131123952D02*
X142224000Y-131076333D01*
X142319238Y-131028714D01*
X142462095Y-131028714D01*
X142557333Y-131076333D01*
X142604952Y-131171571D01*
X142604952Y-131695380D01*
X143509714Y-131695380D02*
X143509714Y-131171571D01*
X143462095Y-131076333D01*
X143366857Y-131028714D01*
X143176380Y-131028714D01*
X143081142Y-131076333D01*
X143509714Y-131647761D02*
X143414476Y-131695380D01*
X143176380Y-131695380D01*
X143081142Y-131647761D01*
X143033523Y-131552523D01*
X143033523Y-131457285D01*
X143081142Y-131362047D01*
X143176380Y-131314428D01*
X143414476Y-131314428D01*
X143509714Y-131266809D01*
X144128761Y-131695380D02*
X144033523Y-131647761D01*
X143985904Y-131552523D01*
X143985904Y-130695380D01*
X144271619Y-131790619D02*
X145033523Y-131790619D01*
X145462095Y-130695380D02*
X145557333Y-130695380D01*
X145652571Y-130743000D01*
X145700190Y-130790619D01*
X145747809Y-130885857D01*
X145795428Y-131076333D01*
X145795428Y-131314428D01*
X145747809Y-131504904D01*
X145700190Y-131600142D01*
X145652571Y-131647761D01*
X145557333Y-131695380D01*
X145462095Y-131695380D01*
X145366857Y-131647761D01*
X145319238Y-131600142D01*
X145271619Y-131504904D01*
X145224000Y-131314428D01*
X145224000Y-131076333D01*
X145271619Y-130885857D01*
X145319238Y-130790619D01*
X145366857Y-130743000D01*
X145462095Y-130695380D01*
X146747809Y-131695380D02*
X146176380Y-131695380D01*
X146462095Y-131695380D02*
X146462095Y-130695380D01*
X146366857Y-130838238D01*
X146271619Y-130933476D01*
X146176380Y-130981095D01*
X147081142Y-131695380D02*
X147604952Y-131028714D01*
X147081142Y-131028714D02*
X147604952Y-131695380D01*
X148176380Y-130695380D02*
X148271619Y-130695380D01*
X148366857Y-130743000D01*
X148414476Y-130790619D01*
X148462095Y-130885857D01*
X148509714Y-131076333D01*
X148509714Y-131314428D01*
X148462095Y-131504904D01*
X148414476Y-131600142D01*
X148366857Y-131647761D01*
X148271619Y-131695380D01*
X148176380Y-131695380D01*
X148081142Y-131647761D01*
X148033523Y-131600142D01*
X147985904Y-131504904D01*
X147938285Y-131314428D01*
X147938285Y-131076333D01*
X147985904Y-130885857D01*
X148033523Y-130790619D01*
X148081142Y-130743000D01*
X148176380Y-130695380D01*
X149081142Y-131123952D02*
X148985904Y-131076333D01*
X148938285Y-131028714D01*
X148890666Y-130933476D01*
X148890666Y-130885857D01*
X148938285Y-130790619D01*
X148985904Y-130743000D01*
X149081142Y-130695380D01*
X149271619Y-130695380D01*
X149366857Y-130743000D01*
X149414476Y-130790619D01*
X149462095Y-130885857D01*
X149462095Y-130933476D01*
X149414476Y-131028714D01*
X149366857Y-131076333D01*
X149271619Y-131123952D01*
X149081142Y-131123952D01*
X148985904Y-131171571D01*
X148938285Y-131219190D01*
X148890666Y-131314428D01*
X148890666Y-131504904D01*
X148938285Y-131600142D01*
X148985904Y-131647761D01*
X149081142Y-131695380D01*
X149271619Y-131695380D01*
X149366857Y-131647761D01*
X149414476Y-131600142D01*
X149462095Y-131504904D01*
X149462095Y-131314428D01*
X149414476Y-131219190D01*
X149366857Y-131171571D01*
X149271619Y-131123952D01*
X140890666Y-128325380D02*
X140890666Y-129039666D01*
X140843047Y-129182523D01*
X140747809Y-129277761D01*
X140604952Y-129325380D01*
X140509714Y-129325380D01*
X141271619Y-128325380D02*
X141890666Y-128325380D01*
X141557333Y-128706333D01*
X141700190Y-128706333D01*
X141795428Y-128753952D01*
X141843047Y-128801571D01*
X141890666Y-128896809D01*
X141890666Y-129134904D01*
X141843047Y-129230142D01*
X141795428Y-129277761D01*
X141700190Y-129325380D01*
X141414476Y-129325380D01*
X141319238Y-129277761D01*
X141271619Y-129230142D01*
X146058142Y-99595619D02*
X146105761Y-99548000D01*
X146201000Y-99500380D01*
X146439095Y-99500380D01*
X146534333Y-99548000D01*
X146581952Y-99595619D01*
X146629571Y-99690857D01*
X146629571Y-99786095D01*
X146581952Y-99928952D01*
X146010523Y-100500380D01*
X146629571Y-100500380D01*
X147010523Y-99595619D02*
X147058142Y-99548000D01*
X147153380Y-99500380D01*
X147391476Y-99500380D01*
X147486714Y-99548000D01*
X147534333Y-99595619D01*
X147581952Y-99690857D01*
X147581952Y-99786095D01*
X147534333Y-99928952D01*
X146962904Y-100500380D01*
X147581952Y-100500380D01*
X148439095Y-99833714D02*
X148439095Y-100500380D01*
X148010523Y-99833714D02*
X148010523Y-100357523D01*
X148058142Y-100452761D01*
X148153380Y-100500380D01*
X148296238Y-100500380D01*
X148391476Y-100452761D01*
X148439095Y-100405142D01*
X149248619Y-99976571D02*
X148915285Y-99976571D01*
X148915285Y-100500380D02*
X148915285Y-99500380D01*
X149391476Y-99500380D01*
D14*
X147567666Y-98583714D02*
X147529571Y-98621809D01*
X147415285Y-98659904D01*
X147339095Y-98659904D01*
X147224809Y-98621809D01*
X147148619Y-98545619D01*
X147110523Y-98469428D01*
X147072428Y-98317047D01*
X147072428Y-98202761D01*
X147110523Y-98050380D01*
X147148619Y-97974190D01*
X147224809Y-97898000D01*
X147339095Y-97859904D01*
X147415285Y-97859904D01*
X147529571Y-97898000D01*
X147567666Y-97936095D01*
X147834333Y-97859904D02*
X148329571Y-97859904D01*
X148062904Y-98164666D01*
X148177190Y-98164666D01*
X148253380Y-98202761D01*
X148291476Y-98240857D01*
X148329571Y-98317047D01*
X148329571Y-98507523D01*
X148291476Y-98583714D01*
X148253380Y-98621809D01*
X148177190Y-98659904D01*
X147948619Y-98659904D01*
X147872428Y-98621809D01*
X147834333Y-98583714D01*
D10*
X169076761Y-71446380D02*
X168505333Y-71446380D01*
X168791047Y-71446380D02*
X168791047Y-70446380D01*
X168695809Y-70589238D01*
X168600571Y-70684476D01*
X168505333Y-70732095D01*
X169695809Y-70446380D02*
X169791047Y-70446380D01*
X169886285Y-70494000D01*
X169933904Y-70541619D01*
X169981523Y-70636857D01*
X170029142Y-70827333D01*
X170029142Y-71065428D01*
X169981523Y-71255904D01*
X169933904Y-71351142D01*
X169886285Y-71398761D01*
X169791047Y-71446380D01*
X169695809Y-71446380D01*
X169600571Y-71398761D01*
X169552952Y-71351142D01*
X169505333Y-71255904D01*
X169457714Y-71065428D01*
X169457714Y-70827333D01*
X169505333Y-70636857D01*
X169552952Y-70541619D01*
X169600571Y-70494000D01*
X169695809Y-70446380D01*
X170457714Y-71446380D02*
X170457714Y-70446380D01*
X170552952Y-71065428D02*
X170838666Y-71446380D01*
X170838666Y-70779714D02*
X170457714Y-71160666D01*
D11*
X169588666Y-72870190D02*
X169422000Y-72632095D01*
X169302952Y-72870190D02*
X169302952Y-72370190D01*
X169493428Y-72370190D01*
X169541047Y-72394000D01*
X169564857Y-72417809D01*
X169588666Y-72465428D01*
X169588666Y-72536857D01*
X169564857Y-72584476D01*
X169541047Y-72608285D01*
X169493428Y-72632095D01*
X169302952Y-72632095D01*
X170017238Y-72536857D02*
X170017238Y-72870190D01*
X169898190Y-72346380D02*
X169779142Y-72703523D01*
X170088666Y-72703523D01*
D10*
X127296380Y-104576428D02*
X127296380Y-105147857D01*
X127296380Y-104862142D02*
X126296380Y-104862142D01*
X126439238Y-104957380D01*
X126534476Y-105052619D01*
X126582095Y-105147857D01*
X126296380Y-103957380D02*
X126296380Y-103862142D01*
X126344000Y-103766904D01*
X126391619Y-103719285D01*
X126486857Y-103671666D01*
X126677333Y-103624047D01*
X126915428Y-103624047D01*
X127105904Y-103671666D01*
X127201142Y-103719285D01*
X127248761Y-103766904D01*
X127296380Y-103862142D01*
X127296380Y-103957380D01*
X127248761Y-104052619D01*
X127201142Y-104100238D01*
X127105904Y-104147857D01*
X126915428Y-104195476D01*
X126677333Y-104195476D01*
X126486857Y-104147857D01*
X126391619Y-104100238D01*
X126344000Y-104052619D01*
X126296380Y-103957380D01*
X126629714Y-102766904D02*
X127296380Y-102766904D01*
X126629714Y-103195476D02*
X127153523Y-103195476D01*
X127248761Y-103147857D01*
X127296380Y-103052619D01*
X127296380Y-102909761D01*
X127248761Y-102814523D01*
X127201142Y-102766904D01*
X126772571Y-101957380D02*
X126772571Y-102290714D01*
X127296380Y-102290714D02*
X126296380Y-102290714D01*
X126296380Y-101814523D01*
D11*
X128702571Y-103588333D02*
X128726380Y-103612142D01*
X128750190Y-103683571D01*
X128750190Y-103731190D01*
X128726380Y-103802619D01*
X128678761Y-103850238D01*
X128631142Y-103874047D01*
X128535904Y-103897857D01*
X128464476Y-103897857D01*
X128369238Y-103874047D01*
X128321619Y-103850238D01*
X128274000Y-103802619D01*
X128250190Y-103731190D01*
X128250190Y-103683571D01*
X128274000Y-103612142D01*
X128297809Y-103588333D01*
X128250190Y-103135952D02*
X128250190Y-103374047D01*
X128488285Y-103397857D01*
X128464476Y-103374047D01*
X128440666Y-103326428D01*
X128440666Y-103207380D01*
X128464476Y-103159761D01*
X128488285Y-103135952D01*
X128535904Y-103112142D01*
X128654952Y-103112142D01*
X128702571Y-103135952D01*
X128726380Y-103159761D01*
X128750190Y-103207380D01*
X128750190Y-103326428D01*
X128726380Y-103374047D01*
X128702571Y-103397857D01*
D10*
X145931142Y-102478380D02*
X146026380Y-102478380D01*
X146121619Y-102526000D01*
X146169238Y-102573619D01*
X146216857Y-102668857D01*
X146264476Y-102859333D01*
X146264476Y-103097428D01*
X146216857Y-103287904D01*
X146169238Y-103383142D01*
X146121619Y-103430761D01*
X146026380Y-103478380D01*
X145931142Y-103478380D01*
X145835904Y-103430761D01*
X145788285Y-103383142D01*
X145740666Y-103287904D01*
X145693047Y-103097428D01*
X145693047Y-102859333D01*
X145740666Y-102668857D01*
X145788285Y-102573619D01*
X145835904Y-102526000D01*
X145931142Y-102478380D01*
X146693047Y-103383142D02*
X146740666Y-103430761D01*
X146693047Y-103478380D01*
X146645428Y-103430761D01*
X146693047Y-103383142D01*
X146693047Y-103478380D01*
X147693047Y-103478380D02*
X147121619Y-103478380D01*
X147407333Y-103478380D02*
X147407333Y-102478380D01*
X147312095Y-102621238D01*
X147216857Y-102716476D01*
X147121619Y-102764095D01*
X148550190Y-102811714D02*
X148550190Y-103478380D01*
X148121619Y-102811714D02*
X148121619Y-103335523D01*
X148169238Y-103430761D01*
X148264476Y-103478380D01*
X148407333Y-103478380D01*
X148502571Y-103430761D01*
X148550190Y-103383142D01*
X149359714Y-102954571D02*
X149026380Y-102954571D01*
X149026380Y-103478380D02*
X149026380Y-102478380D01*
X149502571Y-102478380D01*
D11*
X147490666Y-101524571D02*
X147466857Y-101548380D01*
X147395428Y-101572190D01*
X147347809Y-101572190D01*
X147276380Y-101548380D01*
X147228761Y-101500761D01*
X147204952Y-101453142D01*
X147181142Y-101357904D01*
X147181142Y-101286476D01*
X147204952Y-101191238D01*
X147228761Y-101143619D01*
X147276380Y-101096000D01*
X147347809Y-101072190D01*
X147395428Y-101072190D01*
X147466857Y-101096000D01*
X147490666Y-101119809D01*
X147919238Y-101238857D02*
X147919238Y-101572190D01*
X147800190Y-101048380D02*
X147681142Y-101405523D01*
X147990666Y-101405523D01*
D10*
X131469047Y-104674619D02*
X131516666Y-104627000D01*
X131611904Y-104579380D01*
X131850000Y-104579380D01*
X131945238Y-104627000D01*
X131992857Y-104674619D01*
X132040476Y-104769857D01*
X132040476Y-104865095D01*
X131992857Y-105007952D01*
X131421428Y-105579380D01*
X132040476Y-105579380D01*
X132469047Y-105484142D02*
X132516666Y-105531761D01*
X132469047Y-105579380D01*
X132421428Y-105531761D01*
X132469047Y-105484142D01*
X132469047Y-105579380D01*
X132897619Y-104674619D02*
X132945238Y-104627000D01*
X133040476Y-104579380D01*
X133278571Y-104579380D01*
X133373809Y-104627000D01*
X133421428Y-104674619D01*
X133469047Y-104769857D01*
X133469047Y-104865095D01*
X133421428Y-105007952D01*
X132850000Y-105579380D01*
X133469047Y-105579380D01*
X134326190Y-104912714D02*
X134326190Y-105579380D01*
X133897619Y-104912714D02*
X133897619Y-105436523D01*
X133945238Y-105531761D01*
X134040476Y-105579380D01*
X134183333Y-105579380D01*
X134278571Y-105531761D01*
X134326190Y-105484142D01*
X135135714Y-105055571D02*
X134802380Y-105055571D01*
X134802380Y-105579380D02*
X134802380Y-104579380D01*
X135278571Y-104579380D01*
D11*
X133266666Y-106985571D02*
X133242857Y-107009380D01*
X133171428Y-107033190D01*
X133123809Y-107033190D01*
X133052380Y-107009380D01*
X133004761Y-106961761D01*
X132980952Y-106914142D01*
X132957142Y-106818904D01*
X132957142Y-106747476D01*
X132980952Y-106652238D01*
X133004761Y-106604619D01*
X133052380Y-106557000D01*
X133123809Y-106533190D01*
X133171428Y-106533190D01*
X133242857Y-106557000D01*
X133266666Y-106580809D01*
X133433333Y-106533190D02*
X133766666Y-106533190D01*
X133552380Y-107033190D01*
D10*
X163329952Y-94812380D02*
X162758523Y-94812380D01*
X163044238Y-94812380D02*
X163044238Y-93812380D01*
X162949000Y-93955238D01*
X162853761Y-94050476D01*
X162758523Y-94098095D01*
X163758523Y-94812380D02*
X163758523Y-93812380D01*
X163853761Y-94431428D02*
X164139476Y-94812380D01*
X164139476Y-94145714D02*
X163758523Y-94526666D01*
D11*
X163365666Y-92936190D02*
X163199000Y-92698095D01*
X163079952Y-92936190D02*
X163079952Y-92436190D01*
X163270428Y-92436190D01*
X163318047Y-92460000D01*
X163341857Y-92483809D01*
X163365666Y-92531428D01*
X163365666Y-92602857D01*
X163341857Y-92650476D01*
X163318047Y-92674285D01*
X163270428Y-92698095D01*
X163079952Y-92698095D01*
X163603761Y-92936190D02*
X163699000Y-92936190D01*
X163746619Y-92912380D01*
X163770428Y-92888571D01*
X163818047Y-92817142D01*
X163841857Y-92721904D01*
X163841857Y-92531428D01*
X163818047Y-92483809D01*
X163794238Y-92460000D01*
X163746619Y-92436190D01*
X163651380Y-92436190D01*
X163603761Y-92460000D01*
X163579952Y-92483809D01*
X163556142Y-92531428D01*
X163556142Y-92650476D01*
X163579952Y-92698095D01*
X163603761Y-92721904D01*
X163651380Y-92745714D01*
X163746619Y-92745714D01*
X163794238Y-92721904D01*
X163818047Y-92698095D01*
X163841857Y-92650476D01*
D15*
X135380100Y-96291400D02*
X136573900Y-96291400D01*
X132880100Y-93789500D02*
X132880100Y-96291400D01*
X131573900Y-101790500D02*
X131573900Y-99288600D01*
X132880100Y-101790500D02*
X134073900Y-101790500D01*
X135380100Y-99288600D02*
X135380100Y-101790500D01*
X134073900Y-96291400D02*
X134073900Y-93789500D01*
X134073900Y-99288600D02*
X132880100Y-99288600D01*
X135229600Y-98539300D02*
X131724400Y-98539300D01*
X135380100Y-93789500D02*
X135380100Y-96291400D01*
X136573900Y-96291400D02*
X136573900Y-93789500D01*
X130380100Y-93789500D02*
X130380100Y-96291400D01*
X132880100Y-99288600D02*
X132880100Y-101790500D01*
X131573900Y-93789500D02*
X130380100Y-93789500D01*
X134073900Y-93789500D02*
X132880100Y-93789500D01*
X136573900Y-93789500D02*
X135380100Y-93789500D01*
X130380100Y-96291400D02*
X131573900Y-96291400D01*
X136573900Y-99288600D02*
X135380100Y-99288600D01*
X131724400Y-98539300D02*
X131724400Y-97040700D01*
X132880100Y-96291400D02*
X134073900Y-96291400D01*
X128981200Y-99288600D02*
X137972800Y-99288600D01*
X137972800Y-96291400D02*
X128981200Y-96291400D01*
X131573900Y-99288600D02*
X130380100Y-99288600D01*
X130380100Y-99288600D02*
X130380100Y-101790500D01*
X128981200Y-96291400D02*
X128981200Y-99288600D01*
X137972800Y-99288600D02*
X137972800Y-96291400D01*
X136573900Y-101790500D02*
X136573900Y-99288600D01*
X135380100Y-101790500D02*
X136573900Y-101790500D01*
X131724400Y-97040700D02*
X135229600Y-97040700D01*
X134073900Y-101790500D02*
X134073900Y-99288600D01*
X130380100Y-101790500D02*
X131573900Y-101790500D01*
X131573900Y-96291400D02*
X131573900Y-93789500D01*
X135229600Y-97040700D02*
X135229600Y-98539300D01*
X128981200Y-98094800D02*
G75*
G03*
X128981200Y-97485200I0J304800D01*
G01*
G36*
X135229600Y-98539300D02*
G01*
X133477000Y-98539300D01*
X133477000Y-97040700D01*
X135229600Y-97040700D01*
X135229600Y-98539300D01*
G37*
D16*
X161020000Y-82661500D02*
X159020000Y-82661500D01*
X159020000Y-82661500D02*
X159020000Y-81411500D01*
X159020000Y-81411500D02*
X161020000Y-81411500D01*
X161020000Y-81411500D02*
X161020000Y-82661500D01*
X165237000Y-68088000D02*
X166487000Y-68088000D01*
X166487000Y-68088000D02*
X166487000Y-70088000D01*
X166487000Y-70088000D02*
X165237000Y-70088000D01*
X165237000Y-70088000D02*
X165237000Y-68088000D01*
X161470000Y-78772500D02*
X158570000Y-78772500D01*
X161470000Y-77572500D02*
X161470000Y-78772500D01*
X158570000Y-77172500D02*
X161070000Y-77172500D01*
X158570000Y-78772500D02*
X158570000Y-77172500D01*
X161070000Y-77172500D02*
X161470000Y-77572500D01*
X164195000Y-72019000D02*
X164195000Y-73269000D01*
X162195000Y-73269000D02*
X162195000Y-72019000D01*
X162195000Y-72019000D02*
X164195000Y-72019000D01*
X164195000Y-73269000D02*
X162195000Y-73269000D01*
D15*
X147568000Y-91225000D02*
X147568000Y-91225000D01*
X144118000Y-94625000D02*
X144118000Y-94625000D01*
X140468000Y-92425000D02*
X140468000Y-92425000D01*
X147568000Y-89525000D02*
X147568000Y-89525000D01*
X141618000Y-89525000D02*
X141618000Y-89525000D01*
X147568000Y-91925000D02*
X147568000Y-91925000D01*
X141118000Y-94625000D02*
X141118000Y-94625000D01*
X144118000Y-89525000D02*
X144418000Y-89525000D01*
X147568000Y-90425000D02*
X147568000Y-90725000D01*
X147568000Y-89525000D02*
X140468000Y-89525000D01*
X144418000Y-94625000D02*
X144418000Y-94625000D01*
X141418000Y-89525000D02*
X141118000Y-89525000D01*
X140468000Y-92725000D02*
X140468000Y-92725000D01*
X146118000Y-94625000D02*
X146418000Y-94625000D01*
X147568000Y-90925000D02*
X147568000Y-91225000D01*
X143618000Y-94625000D02*
X143918000Y-94625000D01*
X146618000Y-89525000D02*
X146918000Y-89525000D01*
X146418000Y-89525000D02*
X146418000Y-89525000D01*
X147568000Y-93225000D02*
X147568000Y-92925000D01*
X147568000Y-90425000D02*
X147568000Y-90425000D01*
X144618000Y-94625000D02*
X144618000Y-94625000D01*
X140468000Y-92725000D02*
X140468000Y-92425000D01*
X147568000Y-93725000D02*
X147568000Y-93725000D01*
X145118000Y-94625000D02*
X145418000Y-94625000D01*
X140468000Y-91925000D02*
X140468000Y-91925000D01*
X145918000Y-94625000D02*
X145918000Y-94625000D01*
X142118000Y-89525000D02*
X142118000Y-89525000D01*
X140468000Y-93225000D02*
X140468000Y-93225000D01*
X142618000Y-94625000D02*
X142918000Y-94625000D01*
X141418000Y-94625000D02*
X141118000Y-94625000D01*
X146618000Y-89525000D02*
X146618000Y-89525000D01*
X142918000Y-89525000D02*
X142918000Y-89525000D01*
X147568000Y-92425000D02*
X147568000Y-92425000D01*
X142618000Y-89525000D02*
X142618000Y-89525000D01*
X147568000Y-91725000D02*
X147568000Y-91425000D01*
X141118000Y-89525000D02*
X141418000Y-89525000D01*
X147568000Y-92225000D02*
X147568000Y-92225000D01*
X147568000Y-94625000D02*
X147568000Y-89525000D01*
X141418000Y-94625000D02*
X141418000Y-94625000D01*
X143418000Y-94625000D02*
X143418000Y-94625000D01*
X145118000Y-94625000D02*
X145118000Y-94625000D01*
X140468000Y-90425000D02*
X140468000Y-90725000D01*
X140468000Y-92425000D02*
X140468000Y-92725000D01*
X143418000Y-89525000D02*
X143118000Y-89525000D01*
X141118000Y-89525000D02*
X141118000Y-89525000D01*
X140468000Y-93425000D02*
X140468000Y-93425000D01*
X140468000Y-93725000D02*
X140468000Y-93725000D01*
X142118000Y-89525000D02*
X142418000Y-89525000D01*
X141918000Y-94625000D02*
X141618000Y-94625000D01*
X144918000Y-94625000D02*
X144618000Y-94625000D01*
X140468000Y-92925000D02*
X140468000Y-93225000D01*
X147568000Y-92725000D02*
X147568000Y-92425000D01*
X140468000Y-92225000D02*
X140468000Y-92225000D01*
X144418000Y-94625000D02*
X144118000Y-94625000D01*
X146118000Y-89525000D02*
X146418000Y-89525000D01*
X144918000Y-89525000D02*
X144918000Y-89525000D01*
X146418000Y-89525000D02*
X146118000Y-89525000D01*
X147568000Y-92725000D02*
X147568000Y-92725000D01*
X140468000Y-91225000D02*
X140468000Y-91225000D01*
X144118000Y-94625000D02*
X144418000Y-94625000D01*
X145118000Y-89525000D02*
X145118000Y-89525000D01*
X143618000Y-89525000D02*
X143918000Y-89525000D01*
X140468000Y-92225000D02*
X140468000Y-91925000D01*
X142618000Y-94625000D02*
X142618000Y-94625000D01*
X145118000Y-89525000D02*
X145418000Y-89525000D01*
X147568000Y-90925000D02*
X147568000Y-90925000D01*
X140468000Y-90925000D02*
X140468000Y-90925000D01*
X147568000Y-92925000D02*
X147568000Y-92925000D01*
X143918000Y-94625000D02*
X143618000Y-94625000D01*
X143418000Y-89525000D02*
X143418000Y-89525000D01*
X144118000Y-89525000D02*
X144118000Y-89525000D01*
X147568000Y-90725000D02*
X147568000Y-90725000D01*
X146418000Y-94625000D02*
X146118000Y-94625000D01*
X145418000Y-94625000D02*
X145118000Y-94625000D01*
X140468000Y-91425000D02*
X140468000Y-91725000D01*
X147568000Y-91425000D02*
X147568000Y-91425000D01*
X140468000Y-94625000D02*
X147568000Y-94625000D01*
X147568000Y-90725000D02*
X147568000Y-90425000D01*
X145418000Y-89525000D02*
X145418000Y-89525000D01*
X142918000Y-94625000D02*
X142918000Y-94625000D01*
X147568000Y-92925000D02*
X147568000Y-93225000D01*
X145918000Y-94625000D02*
X145618000Y-94625000D01*
X140468000Y-94625000D02*
X140468000Y-94625000D01*
X144418000Y-89525000D02*
X144118000Y-89525000D01*
X146298001Y-89525000D02*
X147568000Y-90795000D01*
X145918000Y-89525000D02*
X145918000Y-89525000D01*
X143118000Y-94625000D02*
X143118000Y-94625000D01*
X144418000Y-89525000D02*
X144418000Y-89525000D01*
X145418000Y-94625000D02*
X145418000Y-94625000D01*
X140468000Y-91925000D02*
X140468000Y-92225000D01*
X146918000Y-94625000D02*
X146918000Y-94625000D01*
X142418000Y-89525000D02*
X142118000Y-89525000D01*
X147568000Y-94625000D02*
X147568000Y-94625000D01*
X145618000Y-89525000D02*
X145918000Y-89525000D01*
X147568000Y-93425000D02*
X147568000Y-93725000D01*
X140468000Y-89525000D02*
X140468000Y-89525000D01*
X143118000Y-89525000D02*
X143418000Y-89525000D01*
X140468000Y-91425000D02*
X140468000Y-91425000D01*
X140468000Y-90425000D02*
X140468000Y-90425000D01*
X144918000Y-89525000D02*
X144618000Y-89525000D01*
X140468000Y-90725000D02*
X140468000Y-90425000D01*
X140468000Y-90725000D02*
X140468000Y-90725000D01*
X142918000Y-89525000D02*
X142618000Y-89525000D01*
X144618000Y-94625000D02*
X144918000Y-94625000D01*
X142118000Y-94625000D02*
X142118000Y-94625000D01*
X141118000Y-94625000D02*
X141418000Y-94625000D01*
X143118000Y-89525000D02*
X143118000Y-89525000D01*
X147568000Y-91725000D02*
X147568000Y-91725000D01*
X142418000Y-89525000D02*
X142418000Y-89525000D01*
X144618000Y-89525000D02*
X144618000Y-89525000D01*
X146618000Y-94625000D02*
X146918000Y-94625000D01*
X140468000Y-91725000D02*
X140468000Y-91725000D01*
X141918000Y-89525000D02*
X141618000Y-89525000D01*
X141418000Y-89525000D02*
X141418000Y-89525000D01*
X146918000Y-94625000D02*
X146618000Y-94625000D01*
X142618000Y-89525000D02*
X142918000Y-89525000D01*
X147568000Y-93725000D02*
X147568000Y-93425000D01*
X140468000Y-92925000D02*
X140468000Y-92925000D01*
X142918000Y-94625000D02*
X142618000Y-94625000D01*
X143618000Y-94625000D02*
X143618000Y-94625000D01*
X143418000Y-94625000D02*
X143118000Y-94625000D01*
X143918000Y-94625000D02*
X143918000Y-94625000D01*
X145618000Y-89525000D02*
X145618000Y-89525000D01*
X146618000Y-94625000D02*
X146618000Y-94625000D01*
X146418000Y-94625000D02*
X146418000Y-94625000D01*
X144918000Y-94625000D02*
X144918000Y-94625000D01*
X145418000Y-89525000D02*
X145118000Y-89525000D01*
X147568000Y-92425000D02*
X147568000Y-92725000D01*
X144618000Y-89525000D02*
X144918000Y-89525000D01*
X143118000Y-94625000D02*
X143418000Y-94625000D01*
X140468000Y-90925000D02*
X140468000Y-91225000D01*
X143618000Y-89525000D02*
X143618000Y-89525000D01*
X147568000Y-93425000D02*
X147568000Y-93425000D01*
X142418000Y-94625000D02*
X142118000Y-94625000D01*
X143918000Y-89525000D02*
X143618000Y-89525000D01*
X145918000Y-89525000D02*
X145618000Y-89525000D01*
X143918000Y-89525000D02*
X143918000Y-89525000D01*
X141918000Y-94625000D02*
X141918000Y-94625000D01*
X145618000Y-94625000D02*
X145918000Y-94625000D01*
X140468000Y-91725000D02*
X140468000Y-91425000D01*
X140468000Y-91225000D02*
X140468000Y-90925000D01*
X141618000Y-94625000D02*
X141618000Y-94625000D01*
X147568000Y-93225000D02*
X147568000Y-93225000D01*
X146918000Y-89525000D02*
X146618000Y-89525000D01*
X147568000Y-91225000D02*
X147568000Y-90925000D01*
X147568000Y-92225000D02*
X147568000Y-91925000D01*
X140468000Y-93725000D02*
X140468000Y-93425000D01*
X140468000Y-93225000D02*
X140468000Y-92925000D01*
X146118000Y-94625000D02*
X146118000Y-94625000D01*
X145618000Y-94625000D02*
X145618000Y-94625000D01*
X140468000Y-93425000D02*
X140468000Y-93725000D01*
X140468000Y-89525000D02*
X140468000Y-94625000D01*
X141618000Y-89525000D02*
X141918000Y-89525000D01*
X141918000Y-89525000D02*
X141918000Y-89525000D01*
X141618000Y-94625000D02*
X141918000Y-94625000D01*
X146118000Y-89525000D02*
X146118000Y-89525000D01*
X146918000Y-89525000D02*
X146918000Y-89525000D01*
X142118000Y-94625000D02*
X142418000Y-94625000D01*
X142418000Y-94625000D02*
X142418000Y-94625000D01*
X147568000Y-91425000D02*
X147568000Y-91725000D01*
X147568000Y-91925000D02*
X147568000Y-92225000D01*
D16*
X146574000Y-108702000D02*
X146574000Y-107452000D01*
X148574000Y-107452000D02*
X148574000Y-108702000D01*
X148574000Y-108702000D02*
X146574000Y-108702000D01*
X146574000Y-107452000D02*
X148574000Y-107452000D01*
X162067000Y-70538000D02*
X160767000Y-70538000D01*
X160767000Y-70538000D02*
X160767000Y-67963000D01*
X160767000Y-67963000D02*
X161092000Y-67638000D01*
X162067000Y-67638000D02*
X162067000Y-70538000D01*
X161092000Y-67638000D02*
X162067000Y-67638000D01*
X164201000Y-78972500D02*
X162951000Y-78972500D01*
X164201000Y-76972500D02*
X164201000Y-78972500D01*
X162951000Y-78972500D02*
X162951000Y-76972500D01*
X162951000Y-76972500D02*
X164201000Y-76972500D01*
X148681995Y-71059000D02*
X150774995Y-68966000D01*
X143681995Y-71059000D02*
X145773995Y-68966000D01*
X151719995Y-66604000D02*
X152319995Y-67204000D01*
X152319995Y-74204000D02*
X142319995Y-74204000D01*
X152319995Y-67804000D02*
X142319995Y-67804000D01*
X142319995Y-74204000D02*
X142319995Y-66604000D01*
X152319995Y-72504000D02*
X142319995Y-72504000D01*
X148864995Y-71242000D02*
X150957995Y-69149000D01*
X142319995Y-66604000D02*
X151719995Y-66604000D01*
X152319995Y-67204000D02*
X142319995Y-67204000D01*
X143864995Y-71242000D02*
X145956995Y-69149000D01*
X152319995Y-67204000D02*
X152319995Y-74204000D01*
X146319995Y-70104000D02*
G75*
G03*
X146319995Y-70104000I-1500000J0D01*
G01*
X151319995Y-70104000D02*
G75*
G03*
X151319995Y-70104000I-1500000J0D01*
G01*
X145369995Y-73104000D02*
G75*
G03*
X145369995Y-73104000I-550000J0D01*
G01*
X150369995Y-73104000D02*
G75*
G03*
X150369995Y-73104000I-550000J0D01*
G01*
X161020000Y-84205500D02*
X161020000Y-85455500D01*
X161020000Y-85455500D02*
X159020000Y-85455500D01*
X159020000Y-84205500D02*
X161020000Y-84205500D01*
X159020000Y-85455500D02*
X159020000Y-84205500D01*
X158232000Y-70088000D02*
X156982000Y-70088000D01*
X158232000Y-68088000D02*
X158232000Y-70088000D01*
X156982000Y-68088000D02*
X158232000Y-68088000D01*
X156982000Y-70088000D02*
X156982000Y-68088000D01*
X129149000Y-107585000D02*
X129149000Y-109585000D01*
X129149000Y-109585000D02*
X127899000Y-109585000D01*
X127899000Y-107585000D02*
X129149000Y-107585000D01*
X127899000Y-109585000D02*
X127899000Y-107585000D01*
X158337000Y-118729000D02*
X159543667Y-118729000D01*
X158337000Y-116389000D02*
X159543667Y-116389000D01*
X158337000Y-115889000D02*
X159543667Y-115889000D01*
X161957000Y-107569000D02*
X158337000Y-107569000D01*
X158337000Y-108469000D02*
X159543667Y-108469000D01*
X158337000Y-115289000D02*
X159543667Y-115289000D01*
X158337000Y-108069000D02*
X159543667Y-108069000D01*
X158337000Y-110709000D02*
X159543667Y-110709000D01*
X158337000Y-110409000D02*
X159543667Y-110409000D01*
X158337000Y-120869000D02*
X159543667Y-120869000D01*
X158337000Y-118129000D02*
X159543667Y-118129000D01*
X157797000Y-101074000D02*
X163497000Y-101074000D01*
X156797000Y-122954000D02*
X156797000Y-102074000D01*
X158337000Y-103689000D02*
X159543667Y-103689000D01*
X158337000Y-105429000D02*
X159543667Y-105429000D01*
X158337000Y-118829000D02*
X159543667Y-118829000D01*
X158337000Y-112749000D02*
X159543667Y-112749000D01*
X158337000Y-111209000D02*
X159543667Y-111209000D01*
X158337000Y-113549000D02*
X159543667Y-113549000D01*
X158337000Y-116459000D02*
X161957000Y-116459000D01*
X158337000Y-116289000D02*
X159543667Y-116289000D01*
X158337000Y-115189000D02*
X158337000Y-116459000D01*
X158337000Y-105129000D02*
X159543667Y-105129000D01*
X158337000Y-110209000D02*
X159543667Y-110209000D01*
X158337000Y-113449000D02*
X159543667Y-113449000D01*
X158337000Y-112949000D02*
X159543667Y-112949000D01*
X158337000Y-108769000D02*
X159543667Y-108769000D01*
X158337000Y-118529000D02*
X159543667Y-118529000D01*
X158337000Y-105329000D02*
X159543667Y-105329000D01*
X161957000Y-113919000D02*
X161957000Y-112649000D01*
X159543667Y-110109000D02*
X159543667Y-111379000D01*
X158337000Y-121269000D02*
X159543667Y-121269000D01*
X158337000Y-106229000D02*
X159543667Y-106229000D01*
X158337000Y-121169000D02*
X159543667Y-121169000D01*
X158337000Y-121469000D02*
X159543667Y-121469000D01*
X158337000Y-113919000D02*
X161957000Y-113919000D01*
X158337000Y-120469000D02*
X159543667Y-120469000D01*
X161957000Y-105029000D02*
X158337000Y-105029000D01*
X163497000Y-101074000D02*
X163497000Y-122954000D01*
X158337000Y-118429000D02*
X159543667Y-118429000D01*
X158337000Y-113249000D02*
X159543667Y-113249000D01*
X158337000Y-102789000D02*
X159543667Y-102789000D01*
X158337000Y-105729000D02*
X159543667Y-105729000D01*
X158337000Y-116189000D02*
X159543667Y-116189000D01*
X158337000Y-110909000D02*
X159543667Y-110909000D01*
X158337000Y-120969000D02*
X159543667Y-120969000D01*
X158337000Y-108369000D02*
X159543667Y-108369000D01*
X158337000Y-106129000D02*
X159543667Y-106129000D01*
X158337000Y-115389000D02*
X159543667Y-115389000D01*
X161957000Y-121539000D02*
X161957000Y-120269000D01*
X161957000Y-102489000D02*
X158337000Y-102489000D01*
X158337000Y-110809000D02*
X159543667Y-110809000D01*
X158337000Y-105629000D02*
X159543667Y-105629000D01*
X158337000Y-111309000D02*
X159543667Y-111309000D01*
X158337000Y-121369000D02*
X159543667Y-121369000D01*
X158337000Y-113349000D02*
X159543667Y-113349000D01*
X159543667Y-102489000D02*
X159543667Y-103759000D01*
X158337000Y-105029000D02*
X158337000Y-106299000D01*
X158337000Y-113049000D02*
X159543667Y-113049000D01*
X158337000Y-102489000D02*
X158337000Y-103759000D01*
X158337000Y-121539000D02*
X161957000Y-121539000D01*
X161957000Y-108839000D02*
X161957000Y-107569000D01*
X158337000Y-115989000D02*
X159543667Y-115989000D01*
X158337000Y-121069000D02*
X159543667Y-121069000D01*
X159543667Y-120269000D02*
X159543667Y-121539000D01*
X158337000Y-103489000D02*
X159543667Y-103489000D01*
X158337000Y-110109000D02*
X158337000Y-111379000D01*
X158337000Y-111109000D02*
X159543667Y-111109000D01*
X158337000Y-118229000D02*
X159543667Y-118229000D01*
X159543667Y-115189000D02*
X159543667Y-116459000D01*
X161957000Y-118999000D02*
X161957000Y-117729000D01*
X158337000Y-118629000D02*
X159543667Y-118629000D01*
X158337000Y-105529000D02*
X159543667Y-105529000D01*
X159543667Y-112649000D02*
X159543667Y-113919000D01*
X158337000Y-117929000D02*
X159543667Y-117929000D01*
X158337000Y-110609000D02*
X159543667Y-110609000D01*
X161957000Y-106299000D02*
X161957000Y-105029000D01*
X158337000Y-110309000D02*
X159543667Y-110309000D01*
X156797000Y-102074000D02*
X157797000Y-101074000D01*
X158337000Y-102889000D02*
X159543667Y-102889000D01*
X159543667Y-105029000D02*
X159543667Y-106299000D01*
X161957000Y-116459000D02*
X161957000Y-115189000D01*
X158337000Y-102989000D02*
X159543667Y-102989000D01*
X158337000Y-112849000D02*
X159543667Y-112849000D01*
X159543667Y-117729000D02*
X159543667Y-118999000D01*
X158337000Y-112649000D02*
X158337000Y-113919000D01*
X158337000Y-108269000D02*
X159543667Y-108269000D01*
X161957000Y-115189000D02*
X158337000Y-115189000D01*
X158337000Y-115589000D02*
X159543667Y-115589000D01*
X158337000Y-103289000D02*
X159543667Y-103289000D01*
X158337000Y-103089000D02*
X159543667Y-103089000D01*
X158337000Y-111009000D02*
X159543667Y-111009000D01*
X158337000Y-103589000D02*
X159543667Y-103589000D01*
X158337000Y-118029000D02*
X159543667Y-118029000D01*
X163497000Y-122954000D02*
X156797000Y-122954000D01*
X158337000Y-107669000D02*
X159543667Y-107669000D01*
X158337000Y-113649000D02*
X159543667Y-113649000D01*
X158337000Y-108839000D02*
X161957000Y-108839000D01*
X158337000Y-108169000D02*
X159543667Y-108169000D01*
X158337000Y-115689000D02*
X159543667Y-115689000D01*
X158337000Y-115489000D02*
X159543667Y-115489000D01*
X158337000Y-113849000D02*
X159543667Y-113849000D01*
X161957000Y-110109000D02*
X158337000Y-110109000D01*
X158337000Y-120769000D02*
X159543667Y-120769000D01*
X158337000Y-103759000D02*
X161957000Y-103759000D01*
X158337000Y-110509000D02*
X159543667Y-110509000D01*
X159543667Y-107569000D02*
X159543667Y-108839000D01*
X158337000Y-115789000D02*
X159543667Y-115789000D01*
X158337000Y-118329000D02*
X159543667Y-118329000D01*
X158337000Y-117829000D02*
X159543667Y-117829000D01*
X158337000Y-103389000D02*
X159543667Y-103389000D01*
X161957000Y-111379000D02*
X161957000Y-110109000D01*
X158337000Y-108569000D02*
X159543667Y-108569000D01*
X158337000Y-113149000D02*
X159543667Y-113149000D01*
X161957000Y-120269000D02*
X158337000Y-120269000D01*
X158337000Y-107569000D02*
X158337000Y-108839000D01*
X161957000Y-117729000D02*
X158337000Y-117729000D01*
X158337000Y-120269000D02*
X158337000Y-121539000D01*
X158337000Y-120369000D02*
X159543667Y-120369000D01*
X158337000Y-105829000D02*
X159543667Y-105829000D01*
X158337000Y-106299000D02*
X161957000Y-106299000D01*
X158337000Y-111379000D02*
X161957000Y-111379000D01*
X158337000Y-107869000D02*
X159543667Y-107869000D01*
X158337000Y-108669000D02*
X159543667Y-108669000D01*
X158337000Y-113749000D02*
X159543667Y-113749000D01*
X158337000Y-120569000D02*
X159543667Y-120569000D01*
X158337000Y-107969000D02*
X159543667Y-107969000D01*
X158337000Y-118929000D02*
X159543667Y-118929000D01*
X158337000Y-118999000D02*
X161957000Y-118999000D01*
X158337000Y-106029000D02*
X159543667Y-106029000D01*
X158337000Y-105929000D02*
X159543667Y-105929000D01*
X161957000Y-112649000D02*
X158337000Y-112649000D01*
X161957000Y-103759000D02*
X161957000Y-102489000D01*
X158337000Y-107769000D02*
X159543667Y-107769000D01*
X158337000Y-102589000D02*
X159543667Y-102589000D01*
X158337000Y-120669000D02*
X159543667Y-120669000D01*
X158337000Y-116089000D02*
X159543667Y-116089000D01*
X158337000Y-102689000D02*
X159543667Y-102689000D01*
X158337000Y-103189000D02*
X159543667Y-103189000D01*
X158337000Y-105229000D02*
X159543667Y-105229000D01*
X158337000Y-117729000D02*
X158337000Y-118999000D01*
X126299000Y-70812000D02*
X127834000Y-69277000D01*
X128839000Y-70812000D02*
X130374000Y-69277000D01*
X136459000Y-70812000D02*
X137994000Y-69277000D01*
X136325000Y-70677000D02*
X137860000Y-69142000D01*
X141200000Y-67127000D02*
X141200000Y-73227000D01*
X138999000Y-70812000D02*
X140535000Y-69277000D01*
X131379000Y-70812000D02*
X132914000Y-69277000D01*
X123625000Y-70677000D02*
X125160000Y-69142000D01*
X128705000Y-70677000D02*
X130240000Y-69142000D01*
X121219000Y-70812000D02*
X122754000Y-69277000D01*
X138865000Y-70677000D02*
X140401000Y-69142000D01*
X141200000Y-72227000D02*
X120420000Y-72227000D01*
X140800000Y-66727000D02*
X141200000Y-67127000D01*
X126165000Y-70677000D02*
X127700000Y-69142000D01*
X131245000Y-70677000D02*
X132780000Y-69142000D01*
X141200000Y-73227000D02*
X120420000Y-73227000D01*
X141200000Y-67127000D02*
X120420000Y-67127000D01*
X123759000Y-70812000D02*
X125294000Y-69277000D01*
X120420000Y-66727000D02*
X140800000Y-66727000D01*
X133785000Y-70677000D02*
X135320000Y-69142000D01*
X120420000Y-73227000D02*
X120420000Y-66727000D01*
X121085000Y-70677000D02*
X122620000Y-69142000D01*
X133919000Y-70812000D02*
X135454000Y-69277000D01*
X128100000Y-69977000D02*
G75*
G03*
X128100000Y-69977000I-1100000J0D01*
G01*
X130640000Y-69977000D02*
G75*
G03*
X130640000Y-69977000I-1100000J0D01*
G01*
X140800000Y-69977000D02*
G75*
G03*
X140800000Y-69977000I-1100000J0D01*
G01*
X135720000Y-69977000D02*
G75*
G03*
X135720000Y-69977000I-1100000J0D01*
G01*
X125560000Y-69977000D02*
G75*
G03*
X125560000Y-69977000I-1100000J0D01*
G01*
X133180000Y-69977000D02*
G75*
G03*
X133180000Y-69977000I-1100000J0D01*
G01*
X138260000Y-69977000D02*
G75*
G03*
X138260000Y-69977000I-1100000J0D01*
G01*
X123020000Y-69977000D02*
G75*
G03*
X123020000Y-69977000I-1100000J0D01*
G01*
X134838000Y-112967500D02*
X130338000Y-112967500D01*
X130338000Y-110467500D02*
X133838000Y-110467500D01*
X130338000Y-112967500D02*
X130338000Y-110467500D01*
X134838000Y-111467500D02*
X134838000Y-112967500D01*
X133838000Y-110467500D02*
X134838000Y-111467500D01*
X164449000Y-90541000D02*
X162449000Y-90541000D01*
X162449000Y-90541000D02*
X162449000Y-89291000D01*
X164449000Y-89291000D02*
X164449000Y-90541000D01*
X162449000Y-89291000D02*
X164449000Y-89291000D01*
X131588000Y-118780000D02*
X131588000Y-119980000D01*
X133288000Y-119980000D02*
X133588000Y-119680000D01*
X133588000Y-118780000D02*
X131588000Y-118780000D01*
X131588000Y-119980000D02*
X133288000Y-119980000D01*
X133588000Y-119680000D02*
X133588000Y-118780000D01*
X148374000Y-105698000D02*
X147974000Y-106098000D01*
X146774000Y-103198000D02*
X148374000Y-103198000D01*
X147974000Y-106098000D02*
X146774000Y-106098000D01*
X148374000Y-103198000D02*
X148374000Y-105698000D01*
X146774000Y-106098000D02*
X146774000Y-103198000D01*
X131588000Y-117211000D02*
X131588000Y-115961000D01*
X133588000Y-117211000D02*
X131588000Y-117211000D01*
X133588000Y-115961000D02*
X133588000Y-117211000D01*
X131588000Y-115961000D02*
X133588000Y-115961000D01*
X164449000Y-94879000D02*
X164449000Y-96129000D01*
X162449000Y-96129000D02*
X162449000Y-94879000D01*
X162449000Y-94879000D02*
X164449000Y-94879000D01*
X164449000Y-96129000D02*
X162449000Y-96129000D01*
X169022000Y-70538000D02*
X169022000Y-67963000D01*
X169022000Y-67963000D02*
X169347000Y-67638000D01*
X170322000Y-70538000D02*
X169022000Y-70538000D01*
X169347000Y-67638000D02*
X170322000Y-67638000D01*
X170322000Y-67638000D02*
X170322000Y-70538000D01*
X130834000Y-124623000D02*
X151614000Y-124623000D01*
X143195000Y-126038000D02*
X141660000Y-127573000D01*
X135709000Y-126173000D02*
X134174000Y-127708000D01*
X140655000Y-126038000D02*
X139120000Y-127573000D01*
X143329000Y-126173000D02*
X141794000Y-127708000D01*
X133169000Y-126173000D02*
X131633000Y-127708000D01*
X130834000Y-129723000D02*
X130834000Y-123623000D01*
X140789000Y-126173000D02*
X139254000Y-127708000D01*
X135575000Y-126038000D02*
X134040000Y-127573000D01*
X138249000Y-126173000D02*
X136714000Y-127708000D01*
X150815000Y-126038000D02*
X149280000Y-127573000D01*
X148409000Y-126173000D02*
X146874000Y-127708000D01*
X145869000Y-126173000D02*
X144334000Y-127708000D01*
X130834000Y-123623000D02*
X151614000Y-123623000D01*
X150949000Y-126173000D02*
X149414000Y-127708000D01*
X151614000Y-123623000D02*
X151614000Y-130123000D01*
X151614000Y-130123000D02*
X131234000Y-130123000D01*
X145735000Y-126038000D02*
X144200000Y-127573000D01*
X138115000Y-126038000D02*
X136580000Y-127573000D01*
X130834000Y-129723000D02*
X151614000Y-129723000D01*
X131234000Y-130123000D02*
X130834000Y-129723000D01*
X133035000Y-126038000D02*
X131499000Y-127573000D01*
X148275000Y-126038000D02*
X146740000Y-127573000D01*
X138514000Y-126873000D02*
G75*
G03*
X138514000Y-126873000I-1100000J0D01*
G01*
X146134000Y-126873000D02*
G75*
G03*
X146134000Y-126873000I-1100000J0D01*
G01*
X141054000Y-126873000D02*
G75*
G03*
X141054000Y-126873000I-1100000J0D01*
G01*
X148674000Y-126873000D02*
G75*
G03*
X148674000Y-126873000I-1100000J0D01*
G01*
X135974000Y-126873000D02*
G75*
G03*
X135974000Y-126873000I-1100000J0D01*
G01*
X133434000Y-126873000D02*
G75*
G03*
X133434000Y-126873000I-1100000J0D01*
G01*
X151214000Y-126873000D02*
G75*
G03*
X151214000Y-126873000I-1100000J0D01*
G01*
X143594000Y-126873000D02*
G75*
G03*
X143594000Y-126873000I-1100000J0D01*
G01*
X146101000Y-99098000D02*
X149301000Y-99098000D01*
X146101000Y-97898000D02*
X146101000Y-99098000D01*
X149301000Y-99098000D02*
X149301000Y-97498000D01*
X149301000Y-97498000D02*
X146501000Y-97498000D01*
X146501000Y-97498000D02*
X146101000Y-97898000D01*
X170672000Y-72019000D02*
X170672000Y-73269000D01*
X168672000Y-73269000D02*
X168672000Y-72019000D01*
X168672000Y-72019000D02*
X170672000Y-72019000D01*
X170672000Y-73269000D02*
X168672000Y-73269000D01*
X129149000Y-102505000D02*
X129149000Y-104505000D01*
X127899000Y-104505000D02*
X127899000Y-102505000D01*
X127899000Y-102505000D02*
X129149000Y-102505000D01*
X129149000Y-104505000D02*
X127899000Y-104505000D01*
X148574000Y-101971000D02*
X146574000Y-101971000D01*
X146574000Y-100721000D02*
X148574000Y-100721000D01*
X148574000Y-100721000D02*
X148574000Y-101971000D01*
X146574000Y-101971000D02*
X146574000Y-100721000D01*
X132350000Y-106182000D02*
X134350000Y-106182000D01*
X134350000Y-106182000D02*
X134350000Y-107432000D01*
X132350000Y-107432000D02*
X132350000Y-106182000D01*
X134350000Y-107432000D02*
X132350000Y-107432000D01*
X162449000Y-92085000D02*
X164449000Y-92085000D01*
X164449000Y-93335000D02*
X162449000Y-93335000D01*
X164449000Y-92085000D02*
X164449000Y-93335000D01*
X162449000Y-93335000D02*
X162449000Y-92085000D01*
M02*
