G04 #@! TF.GenerationSoftware,KiCad,Pcbnew,6.0.2+dfsg-1*
G04 #@! TF.CreationDate,2024-05-29T15:52:29-06:00*
G04 #@! TF.ProjectId,ard-ltc2499,6172642d-6c74-4633-9234-39392e6b6963,rev?*
G04 #@! TF.SameCoordinates,Original*
G04 #@! TF.FileFunction,Soldermask,Bot*
G04 #@! TF.FilePolarity,Negative*
%FSLAX46Y46*%
G04 Gerber Fmt 4.6, Leading zero omitted, Abs format (unit mm)*
G04 Created by KiCad (PCBNEW 6.0.2+dfsg-1) date 2024-05-29 15:52:29*
%MOMM*%
%LPD*%
G01*
G04 APERTURE LIST*
%ADD10O,2.032000X1.727200*%
%ADD11C,4.064000*%
%ADD12R,2.500000X2.500000*%
%ADD13C,2.500000*%
%ADD14R,2.100000X2.100000*%
%ADD15C,2.100000*%
%ADD16C,1.500000*%
G04 APERTURE END LIST*
D10*
X122174000Y-92075000D03*
X122174000Y-94615000D03*
X122174000Y-97155000D03*
X122174000Y-99695000D03*
X122174000Y-102235000D03*
X122174000Y-104775000D03*
X122174000Y-107315000D03*
X122174000Y-109855000D03*
X122174000Y-114935000D03*
X122174000Y-117475000D03*
X122174000Y-120015000D03*
X122174000Y-122555000D03*
X122174000Y-125095000D03*
X122174000Y-127635000D03*
X170434000Y-82931000D03*
X170434000Y-85471000D03*
X170434000Y-88011000D03*
X170434000Y-90551000D03*
X170434000Y-93091000D03*
X170434000Y-95631000D03*
X170434000Y-98171000D03*
X170434000Y-100711000D03*
X170434000Y-103251000D03*
X170434000Y-105791000D03*
X170434000Y-109855000D03*
X170434000Y-112395000D03*
X170434000Y-114935000D03*
X170434000Y-117475000D03*
X170434000Y-120015000D03*
X170434000Y-122555000D03*
X170434000Y-125095000D03*
X170434000Y-127635000D03*
D11*
X122174000Y-78105000D03*
X127254000Y-130175000D03*
X170434000Y-79375000D03*
X155194000Y-130175000D03*
D12*
X149819995Y-70104000D03*
D13*
X144819995Y-70104000D03*
D14*
X139700000Y-69977000D03*
D15*
X137160000Y-69977000D03*
X134620000Y-69977000D03*
X132080000Y-69977000D03*
X129540000Y-69977000D03*
X127000000Y-69977000D03*
X124460000Y-69977000D03*
X121920000Y-69977000D03*
D14*
X132334000Y-126873000D03*
D15*
X134874000Y-126873000D03*
X137414000Y-126873000D03*
X139954000Y-126873000D03*
X142494000Y-126873000D03*
X145034000Y-126873000D03*
X147574000Y-126873000D03*
X150114000Y-126873000D03*
D16*
X139954000Y-129921000D03*
X129540000Y-66040000D03*
X147574000Y-130810000D03*
X137414000Y-130810000D03*
X150114000Y-129921000D03*
X121920000Y-66929000D03*
X124460000Y-66040000D03*
X142494000Y-130810000D03*
X136448800Y-109728000D03*
X137160000Y-66929000D03*
X145034000Y-129921000D03*
X127000000Y-66929000D03*
X132334000Y-130810000D03*
X149860000Y-66040000D03*
X134874000Y-129921000D03*
X139700000Y-66040000D03*
X132080000Y-66929000D03*
X134620000Y-66040000D03*
M02*
