G04 #@! TF.GenerationSoftware,KiCad,Pcbnew,6.0.2+dfsg-1*
G04 #@! TF.CreationDate,2024-05-29T15:52:29-06:00*
G04 #@! TF.ProjectId,ard-ltc2499,6172642d-6c74-4633-9234-39392e6b6963,rev?*
G04 #@! TF.SameCoordinates,Original*
G04 #@! TF.FileFunction,Copper,L1,Top*
G04 #@! TF.FilePolarity,Positive*
%FSLAX46Y46*%
G04 Gerber Fmt 4.6, Leading zero omitted, Abs format (unit mm)*
G04 Created by KiCad (PCBNEW 6.0.2+dfsg-1) date 2024-05-29 15:52:29*
%MOMM*%
%LPD*%
G01*
G04 APERTURE LIST*
G04 #@! TA.AperFunction,ComponentPad*
%ADD10O,2.032000X1.727200*%
G04 #@! TD*
G04 #@! TA.AperFunction,ComponentPad*
%ADD11C,4.064000*%
G04 #@! TD*
G04 #@! TA.AperFunction,SMDPad,CuDef*
%ADD12R,1.193800X2.489200*%
G04 #@! TD*
G04 #@! TA.AperFunction,SMDPad,CuDef*
%ADD13R,0.249200X0.804800*%
G04 #@! TD*
G04 #@! TA.AperFunction,SMDPad,CuDef*
%ADD14R,0.804800X0.249200*%
G04 #@! TD*
G04 #@! TA.AperFunction,SMDPad,CuDef*
%ADD15R,5.250000X3.250001*%
G04 #@! TD*
G04 #@! TA.AperFunction,ComponentPad*
%ADD16R,2.500000X2.500000*%
G04 #@! TD*
G04 #@! TA.AperFunction,ComponentPad*
%ADD17C,2.500000*%
G04 #@! TD*
G04 #@! TA.AperFunction,SMDPad,CuDef*
%ADD18R,2.440000X1.120000*%
G04 #@! TD*
G04 #@! TA.AperFunction,ComponentPad*
%ADD19R,2.100000X2.100000*%
G04 #@! TD*
G04 #@! TA.AperFunction,ComponentPad*
%ADD20C,2.100000*%
G04 #@! TD*
G04 #@! TA.AperFunction,SMDPad,CuDef*
%ADD21R,0.550000X1.300000*%
G04 #@! TD*
G04 #@! TA.AperFunction,ViaPad*
%ADD22C,0.600000*%
G04 #@! TD*
G04 #@! TA.AperFunction,Conductor*
%ADD23C,0.250000*%
G04 #@! TD*
G04 #@! TA.AperFunction,Conductor*
%ADD24C,0.889000*%
G04 #@! TD*
G04 #@! TA.AperFunction,Conductor*
%ADD25C,0.381000*%
G04 #@! TD*
G04 #@! TA.AperFunction,Conductor*
%ADD26C,0.762000*%
G04 #@! TD*
G04 #@! TA.AperFunction,Conductor*
%ADD27C,0.254000*%
G04 #@! TD*
G04 #@! TA.AperFunction,Conductor*
%ADD28C,0.508000*%
G04 #@! TD*
G04 APERTURE END LIST*
D10*
X122174000Y-92075000D03*
X122174000Y-94615000D03*
X122174000Y-97155000D03*
X122174000Y-99695000D03*
X122174000Y-102235000D03*
X122174000Y-104775000D03*
X122174000Y-107315000D03*
X122174000Y-109855000D03*
X122174000Y-114935000D03*
X122174000Y-117475000D03*
X122174000Y-120015000D03*
X122174000Y-122555000D03*
X122174000Y-125095000D03*
X122174000Y-127635000D03*
X170434000Y-82931000D03*
X170434000Y-85471000D03*
X170434000Y-88011000D03*
X170434000Y-90551000D03*
X170434000Y-93091000D03*
X170434000Y-95631000D03*
X170434000Y-98171000D03*
X170434000Y-100711000D03*
X170434000Y-103251000D03*
X170434000Y-105791000D03*
X170434000Y-109855000D03*
X170434000Y-112395000D03*
X170434000Y-114935000D03*
X170434000Y-117475000D03*
X170434000Y-120015000D03*
X170434000Y-122555000D03*
X170434000Y-125095000D03*
X170434000Y-127635000D03*
D11*
X122174000Y-78105000D03*
X127254000Y-130175000D03*
X170434000Y-79375000D03*
X155194000Y-130175000D03*
D12*
X130977000Y-100545900D03*
X133477000Y-100545900D03*
X135977000Y-100545900D03*
X130977000Y-95034100D03*
X133477000Y-95034100D03*
X135977000Y-95034100D03*
G04 #@! TA.AperFunction,SMDPad,CuDef*
G36*
G01*
X158595000Y-82486500D02*
X158595000Y-81586500D01*
G75*
G02*
X158845000Y-81336500I250000J0D01*
G01*
X159370000Y-81336500D01*
G75*
G02*
X159620000Y-81586500I0J-250000D01*
G01*
X159620000Y-82486500D01*
G75*
G02*
X159370000Y-82736500I-250000J0D01*
G01*
X158845000Y-82736500D01*
G75*
G02*
X158595000Y-82486500I0J250000D01*
G01*
G37*
G04 #@! TD.AperFunction*
G04 #@! TA.AperFunction,SMDPad,CuDef*
G36*
G01*
X160420000Y-82486500D02*
X160420000Y-81586500D01*
G75*
G02*
X160670000Y-81336500I250000J0D01*
G01*
X161195000Y-81336500D01*
G75*
G02*
X161445000Y-81586500I0J-250000D01*
G01*
X161445000Y-82486500D01*
G75*
G02*
X161195000Y-82736500I-250000J0D01*
G01*
X160670000Y-82736500D01*
G75*
G02*
X160420000Y-82486500I0J250000D01*
G01*
G37*
G04 #@! TD.AperFunction*
G04 #@! TA.AperFunction,SMDPad,CuDef*
G36*
G01*
X166312000Y-70513000D02*
X165412000Y-70513000D01*
G75*
G02*
X165162000Y-70263000I0J250000D01*
G01*
X165162000Y-69738000D01*
G75*
G02*
X165412000Y-69488000I250000J0D01*
G01*
X166312000Y-69488000D01*
G75*
G02*
X166562000Y-69738000I0J-250000D01*
G01*
X166562000Y-70263000D01*
G75*
G02*
X166312000Y-70513000I-250000J0D01*
G01*
G37*
G04 #@! TD.AperFunction*
G04 #@! TA.AperFunction,SMDPad,CuDef*
G36*
G01*
X166312000Y-68688000D02*
X165412000Y-68688000D01*
G75*
G02*
X165162000Y-68438000I0J250000D01*
G01*
X165162000Y-67913000D01*
G75*
G02*
X165412000Y-67663000I250000J0D01*
G01*
X166312000Y-67663000D01*
G75*
G02*
X166562000Y-67913000I0J-250000D01*
G01*
X166562000Y-68438000D01*
G75*
G02*
X166312000Y-68688000I-250000J0D01*
G01*
G37*
G04 #@! TD.AperFunction*
G04 #@! TA.AperFunction,SMDPad,CuDef*
G36*
G01*
X160820000Y-76172500D02*
X161120000Y-76172500D01*
G75*
G02*
X161270000Y-76322500I0J-150000D01*
G01*
X161270000Y-77347500D01*
G75*
G02*
X161120000Y-77497500I-150000J0D01*
G01*
X160820000Y-77497500D01*
G75*
G02*
X160670000Y-77347500I0J150000D01*
G01*
X160670000Y-76322500D01*
G75*
G02*
X160820000Y-76172500I150000J0D01*
G01*
G37*
G04 #@! TD.AperFunction*
G04 #@! TA.AperFunction,SMDPad,CuDef*
G36*
G01*
X159870000Y-76172500D02*
X160170000Y-76172500D01*
G75*
G02*
X160320000Y-76322500I0J-150000D01*
G01*
X160320000Y-77347500D01*
G75*
G02*
X160170000Y-77497500I-150000J0D01*
G01*
X159870000Y-77497500D01*
G75*
G02*
X159720000Y-77347500I0J150000D01*
G01*
X159720000Y-76322500D01*
G75*
G02*
X159870000Y-76172500I150000J0D01*
G01*
G37*
G04 #@! TD.AperFunction*
G04 #@! TA.AperFunction,SMDPad,CuDef*
G36*
G01*
X158920000Y-76172500D02*
X159220000Y-76172500D01*
G75*
G02*
X159370000Y-76322500I0J-150000D01*
G01*
X159370000Y-77347500D01*
G75*
G02*
X159220000Y-77497500I-150000J0D01*
G01*
X158920000Y-77497500D01*
G75*
G02*
X158770000Y-77347500I0J150000D01*
G01*
X158770000Y-76322500D01*
G75*
G02*
X158920000Y-76172500I150000J0D01*
G01*
G37*
G04 #@! TD.AperFunction*
G04 #@! TA.AperFunction,SMDPad,CuDef*
G36*
G01*
X158920000Y-78447500D02*
X159220000Y-78447500D01*
G75*
G02*
X159370000Y-78597500I0J-150000D01*
G01*
X159370000Y-79622500D01*
G75*
G02*
X159220000Y-79772500I-150000J0D01*
G01*
X158920000Y-79772500D01*
G75*
G02*
X158770000Y-79622500I0J150000D01*
G01*
X158770000Y-78597500D01*
G75*
G02*
X158920000Y-78447500I150000J0D01*
G01*
G37*
G04 #@! TD.AperFunction*
G04 #@! TA.AperFunction,SMDPad,CuDef*
G36*
G01*
X159870000Y-78447500D02*
X160170000Y-78447500D01*
G75*
G02*
X160320000Y-78597500I0J-150000D01*
G01*
X160320000Y-79622500D01*
G75*
G02*
X160170000Y-79772500I-150000J0D01*
G01*
X159870000Y-79772500D01*
G75*
G02*
X159720000Y-79622500I0J150000D01*
G01*
X159720000Y-78597500D01*
G75*
G02*
X159870000Y-78447500I150000J0D01*
G01*
G37*
G04 #@! TD.AperFunction*
G04 #@! TA.AperFunction,SMDPad,CuDef*
G36*
G01*
X160820000Y-78447500D02*
X161120000Y-78447500D01*
G75*
G02*
X161270000Y-78597500I0J-150000D01*
G01*
X161270000Y-79622500D01*
G75*
G02*
X161120000Y-79772500I-150000J0D01*
G01*
X160820000Y-79772500D01*
G75*
G02*
X160670000Y-79622500I0J150000D01*
G01*
X160670000Y-78597500D01*
G75*
G02*
X160820000Y-78447500I150000J0D01*
G01*
G37*
G04 #@! TD.AperFunction*
G04 #@! TA.AperFunction,SMDPad,CuDef*
G36*
G01*
X161770000Y-73094000D02*
X161770000Y-72194000D01*
G75*
G02*
X162020000Y-71944000I250000J0D01*
G01*
X162545000Y-71944000D01*
G75*
G02*
X162795000Y-72194000I0J-250000D01*
G01*
X162795000Y-73094000D01*
G75*
G02*
X162545000Y-73344000I-250000J0D01*
G01*
X162020000Y-73344000D01*
G75*
G02*
X161770000Y-73094000I0J250000D01*
G01*
G37*
G04 #@! TD.AperFunction*
G04 #@! TA.AperFunction,SMDPad,CuDef*
G36*
G01*
X163595000Y-73094000D02*
X163595000Y-72194000D01*
G75*
G02*
X163845000Y-71944000I250000J0D01*
G01*
X164370000Y-71944000D01*
G75*
G02*
X164620000Y-72194000I0J-250000D01*
G01*
X164620000Y-73094000D01*
G75*
G02*
X164370000Y-73344000I-250000J0D01*
G01*
X163845000Y-73344000D01*
G75*
G02*
X163595000Y-73094000I0J250000D01*
G01*
G37*
G04 #@! TD.AperFunction*
D13*
X146768000Y-89622600D03*
X146268001Y-89622600D03*
X145767999Y-89622600D03*
X145268000Y-89622600D03*
X144768001Y-89622600D03*
X144268000Y-89622600D03*
X143768000Y-89622600D03*
X143267999Y-89622600D03*
X142768000Y-89622600D03*
X142268001Y-89622600D03*
X141767999Y-89622600D03*
X141268000Y-89622600D03*
D14*
X140565599Y-90575000D03*
X140565599Y-91074999D03*
X140565599Y-91575001D03*
X140565599Y-92075000D03*
X140565599Y-92574999D03*
X140565599Y-93075001D03*
X140565599Y-93575000D03*
D13*
X141268000Y-94527400D03*
X141767999Y-94527400D03*
X142268001Y-94527400D03*
X142768000Y-94527400D03*
X143267999Y-94527400D03*
X143768000Y-94527400D03*
X144268000Y-94527400D03*
X144768001Y-94527400D03*
X145268000Y-94527400D03*
X145767999Y-94527400D03*
X146268001Y-94527400D03*
X146768000Y-94527400D03*
D14*
X147470401Y-93575000D03*
X147470401Y-93075001D03*
X147470401Y-92574999D03*
X147470401Y-92075000D03*
X147470401Y-91575001D03*
X147470401Y-91074999D03*
X147470401Y-90575000D03*
D15*
X144018000Y-92075000D03*
G04 #@! TA.AperFunction,SMDPad,CuDef*
G36*
G01*
X146124000Y-108552000D02*
X146124000Y-107602000D01*
G75*
G02*
X146374000Y-107352000I250000J0D01*
G01*
X146874000Y-107352000D01*
G75*
G02*
X147124000Y-107602000I0J-250000D01*
G01*
X147124000Y-108552000D01*
G75*
G02*
X146874000Y-108802000I-250000J0D01*
G01*
X146374000Y-108802000D01*
G75*
G02*
X146124000Y-108552000I0J250000D01*
G01*
G37*
G04 #@! TD.AperFunction*
G04 #@! TA.AperFunction,SMDPad,CuDef*
G36*
G01*
X148024000Y-108552000D02*
X148024000Y-107602000D01*
G75*
G02*
X148274000Y-107352000I250000J0D01*
G01*
X148774000Y-107352000D01*
G75*
G02*
X149024000Y-107602000I0J-250000D01*
G01*
X149024000Y-108552000D01*
G75*
G02*
X148774000Y-108802000I-250000J0D01*
G01*
X148274000Y-108802000D01*
G75*
G02*
X148024000Y-108552000I0J250000D01*
G01*
G37*
G04 #@! TD.AperFunction*
G04 #@! TA.AperFunction,SMDPad,CuDef*
G36*
G01*
X159742000Y-68288000D02*
X159742000Y-67988000D01*
G75*
G02*
X159892000Y-67838000I150000J0D01*
G01*
X161067000Y-67838000D01*
G75*
G02*
X161217000Y-67988000I0J-150000D01*
G01*
X161217000Y-68288000D01*
G75*
G02*
X161067000Y-68438000I-150000J0D01*
G01*
X159892000Y-68438000D01*
G75*
G02*
X159742000Y-68288000I0J150000D01*
G01*
G37*
G04 #@! TD.AperFunction*
G04 #@! TA.AperFunction,SMDPad,CuDef*
G36*
G01*
X159742000Y-70188000D02*
X159742000Y-69888000D01*
G75*
G02*
X159892000Y-69738000I150000J0D01*
G01*
X161067000Y-69738000D01*
G75*
G02*
X161217000Y-69888000I0J-150000D01*
G01*
X161217000Y-70188000D01*
G75*
G02*
X161067000Y-70338000I-150000J0D01*
G01*
X159892000Y-70338000D01*
G75*
G02*
X159742000Y-70188000I0J150000D01*
G01*
G37*
G04 #@! TD.AperFunction*
G04 #@! TA.AperFunction,SMDPad,CuDef*
G36*
G01*
X161617000Y-69238000D02*
X161617000Y-68938000D01*
G75*
G02*
X161767000Y-68788000I150000J0D01*
G01*
X162942000Y-68788000D01*
G75*
G02*
X163092000Y-68938000I0J-150000D01*
G01*
X163092000Y-69238000D01*
G75*
G02*
X162942000Y-69388000I-150000J0D01*
G01*
X161767000Y-69388000D01*
G75*
G02*
X161617000Y-69238000I0J150000D01*
G01*
G37*
G04 #@! TD.AperFunction*
G04 #@! TA.AperFunction,SMDPad,CuDef*
G36*
G01*
X164051000Y-79422500D02*
X163101000Y-79422500D01*
G75*
G02*
X162851000Y-79172500I0J250000D01*
G01*
X162851000Y-78672500D01*
G75*
G02*
X163101000Y-78422500I250000J0D01*
G01*
X164051000Y-78422500D01*
G75*
G02*
X164301000Y-78672500I0J-250000D01*
G01*
X164301000Y-79172500D01*
G75*
G02*
X164051000Y-79422500I-250000J0D01*
G01*
G37*
G04 #@! TD.AperFunction*
G04 #@! TA.AperFunction,SMDPad,CuDef*
G36*
G01*
X164051000Y-77522500D02*
X163101000Y-77522500D01*
G75*
G02*
X162851000Y-77272500I0J250000D01*
G01*
X162851000Y-76772500D01*
G75*
G02*
X163101000Y-76522500I250000J0D01*
G01*
X164051000Y-76522500D01*
G75*
G02*
X164301000Y-76772500I0J-250000D01*
G01*
X164301000Y-77272500D01*
G75*
G02*
X164051000Y-77522500I-250000J0D01*
G01*
G37*
G04 #@! TD.AperFunction*
D16*
X149819995Y-70104000D03*
D17*
X144819995Y-70104000D03*
G04 #@! TA.AperFunction,SMDPad,CuDef*
G36*
G01*
X158595000Y-85280500D02*
X158595000Y-84380500D01*
G75*
G02*
X158845000Y-84130500I250000J0D01*
G01*
X159370000Y-84130500D01*
G75*
G02*
X159620000Y-84380500I0J-250000D01*
G01*
X159620000Y-85280500D01*
G75*
G02*
X159370000Y-85530500I-250000J0D01*
G01*
X158845000Y-85530500D01*
G75*
G02*
X158595000Y-85280500I0J250000D01*
G01*
G37*
G04 #@! TD.AperFunction*
G04 #@! TA.AperFunction,SMDPad,CuDef*
G36*
G01*
X160420000Y-85280500D02*
X160420000Y-84380500D01*
G75*
G02*
X160670000Y-84130500I250000J0D01*
G01*
X161195000Y-84130500D01*
G75*
G02*
X161445000Y-84380500I0J-250000D01*
G01*
X161445000Y-85280500D01*
G75*
G02*
X161195000Y-85530500I-250000J0D01*
G01*
X160670000Y-85530500D01*
G75*
G02*
X160420000Y-85280500I0J250000D01*
G01*
G37*
G04 #@! TD.AperFunction*
G04 #@! TA.AperFunction,SMDPad,CuDef*
G36*
G01*
X158057000Y-70513000D02*
X157157000Y-70513000D01*
G75*
G02*
X156907000Y-70263000I0J250000D01*
G01*
X156907000Y-69738000D01*
G75*
G02*
X157157000Y-69488000I250000J0D01*
G01*
X158057000Y-69488000D01*
G75*
G02*
X158307000Y-69738000I0J-250000D01*
G01*
X158307000Y-70263000D01*
G75*
G02*
X158057000Y-70513000I-250000J0D01*
G01*
G37*
G04 #@! TD.AperFunction*
G04 #@! TA.AperFunction,SMDPad,CuDef*
G36*
G01*
X158057000Y-68688000D02*
X157157000Y-68688000D01*
G75*
G02*
X156907000Y-68438000I0J250000D01*
G01*
X156907000Y-67913000D01*
G75*
G02*
X157157000Y-67663000I250000J0D01*
G01*
X158057000Y-67663000D01*
G75*
G02*
X158307000Y-67913000I0J-250000D01*
G01*
X158307000Y-68438000D01*
G75*
G02*
X158057000Y-68688000I-250000J0D01*
G01*
G37*
G04 #@! TD.AperFunction*
G04 #@! TA.AperFunction,SMDPad,CuDef*
G36*
G01*
X128999000Y-110035000D02*
X128049000Y-110035000D01*
G75*
G02*
X127799000Y-109785000I0J250000D01*
G01*
X127799000Y-109285000D01*
G75*
G02*
X128049000Y-109035000I250000J0D01*
G01*
X128999000Y-109035000D01*
G75*
G02*
X129249000Y-109285000I0J-250000D01*
G01*
X129249000Y-109785000D01*
G75*
G02*
X128999000Y-110035000I-250000J0D01*
G01*
G37*
G04 #@! TD.AperFunction*
G04 #@! TA.AperFunction,SMDPad,CuDef*
G36*
G01*
X128999000Y-108135000D02*
X128049000Y-108135000D01*
G75*
G02*
X127799000Y-107885000I0J250000D01*
G01*
X127799000Y-107385000D01*
G75*
G02*
X128049000Y-107135000I250000J0D01*
G01*
X128999000Y-107135000D01*
G75*
G02*
X129249000Y-107385000I0J-250000D01*
G01*
X129249000Y-107885000D01*
G75*
G02*
X128999000Y-108135000I-250000J0D01*
G01*
G37*
G04 #@! TD.AperFunction*
D18*
X155842000Y-103124000D03*
X155842000Y-105664000D03*
X155842000Y-108204000D03*
X155842000Y-110744000D03*
X155842000Y-113284000D03*
X155842000Y-115824000D03*
X155842000Y-118364000D03*
X155842000Y-120904000D03*
X164452000Y-120904000D03*
X164452000Y-118364000D03*
X164452000Y-115824000D03*
X164452000Y-113284000D03*
X164452000Y-110744000D03*
X164452000Y-108204000D03*
X164452000Y-105664000D03*
X164452000Y-103124000D03*
D19*
X139700000Y-69977000D03*
D20*
X137160000Y-69977000D03*
X134620000Y-69977000D03*
X132080000Y-69977000D03*
X129540000Y-69977000D03*
X127000000Y-69977000D03*
X124460000Y-69977000D03*
X121920000Y-69977000D03*
D21*
X134088000Y-109767500D03*
G04 #@! TA.AperFunction,SMDPad,CuDef*
G36*
X131663000Y-113717500D02*
G01*
X131663000Y-111117500D01*
X132188000Y-110592500D01*
X132188000Y-109117500D01*
X132988000Y-109117500D01*
X132988000Y-110592500D01*
X133513000Y-111117500D01*
X133513000Y-113717500D01*
X131663000Y-113717500D01*
G37*
G04 #@! TD.AperFunction*
X131088000Y-109767500D03*
G04 #@! TA.AperFunction,SMDPad,CuDef*
G36*
G01*
X162024000Y-90366000D02*
X162024000Y-89466000D01*
G75*
G02*
X162274000Y-89216000I250000J0D01*
G01*
X162799000Y-89216000D01*
G75*
G02*
X163049000Y-89466000I0J-250000D01*
G01*
X163049000Y-90366000D01*
G75*
G02*
X162799000Y-90616000I-250000J0D01*
G01*
X162274000Y-90616000D01*
G75*
G02*
X162024000Y-90366000I0J250000D01*
G01*
G37*
G04 #@! TD.AperFunction*
G04 #@! TA.AperFunction,SMDPad,CuDef*
G36*
G01*
X163849000Y-90366000D02*
X163849000Y-89466000D01*
G75*
G02*
X164099000Y-89216000I250000J0D01*
G01*
X164624000Y-89216000D01*
G75*
G02*
X164874000Y-89466000I0J-250000D01*
G01*
X164874000Y-90366000D01*
G75*
G02*
X164624000Y-90616000I-250000J0D01*
G01*
X164099000Y-90616000D01*
G75*
G02*
X163849000Y-90366000I0J250000D01*
G01*
G37*
G04 #@! TD.AperFunction*
G04 #@! TA.AperFunction,SMDPad,CuDef*
G36*
G01*
X134013000Y-118923750D02*
X134013000Y-119836250D01*
G75*
G02*
X133769250Y-120080000I-243750J0D01*
G01*
X133281750Y-120080000D01*
G75*
G02*
X133038000Y-119836250I0J243750D01*
G01*
X133038000Y-118923750D01*
G75*
G02*
X133281750Y-118680000I243750J0D01*
G01*
X133769250Y-118680000D01*
G75*
G02*
X134013000Y-118923750I0J-243750D01*
G01*
G37*
G04 #@! TD.AperFunction*
G04 #@! TA.AperFunction,SMDPad,CuDef*
G36*
G01*
X132138000Y-118923750D02*
X132138000Y-119836250D01*
G75*
G02*
X131894250Y-120080000I-243750J0D01*
G01*
X131406750Y-120080000D01*
G75*
G02*
X131163000Y-119836250I0J243750D01*
G01*
X131163000Y-118923750D01*
G75*
G02*
X131406750Y-118680000I243750J0D01*
G01*
X131894250Y-118680000D01*
G75*
G02*
X132138000Y-118923750I0J-243750D01*
G01*
G37*
G04 #@! TD.AperFunction*
G04 #@! TA.AperFunction,SMDPad,CuDef*
G36*
G01*
X149374000Y-105448000D02*
X149374000Y-105748000D01*
G75*
G02*
X149224000Y-105898000I-150000J0D01*
G01*
X148199000Y-105898000D01*
G75*
G02*
X148049000Y-105748000I0J150000D01*
G01*
X148049000Y-105448000D01*
G75*
G02*
X148199000Y-105298000I150000J0D01*
G01*
X149224000Y-105298000D01*
G75*
G02*
X149374000Y-105448000I0J-150000D01*
G01*
G37*
G04 #@! TD.AperFunction*
G04 #@! TA.AperFunction,SMDPad,CuDef*
G36*
G01*
X149374000Y-104498000D02*
X149374000Y-104798000D01*
G75*
G02*
X149224000Y-104948000I-150000J0D01*
G01*
X148199000Y-104948000D01*
G75*
G02*
X148049000Y-104798000I0J150000D01*
G01*
X148049000Y-104498000D01*
G75*
G02*
X148199000Y-104348000I150000J0D01*
G01*
X149224000Y-104348000D01*
G75*
G02*
X149374000Y-104498000I0J-150000D01*
G01*
G37*
G04 #@! TD.AperFunction*
G04 #@! TA.AperFunction,SMDPad,CuDef*
G36*
G01*
X149374000Y-103548000D02*
X149374000Y-103848000D01*
G75*
G02*
X149224000Y-103998000I-150000J0D01*
G01*
X148199000Y-103998000D01*
G75*
G02*
X148049000Y-103848000I0J150000D01*
G01*
X148049000Y-103548000D01*
G75*
G02*
X148199000Y-103398000I150000J0D01*
G01*
X149224000Y-103398000D01*
G75*
G02*
X149374000Y-103548000I0J-150000D01*
G01*
G37*
G04 #@! TD.AperFunction*
G04 #@! TA.AperFunction,SMDPad,CuDef*
G36*
G01*
X147099000Y-103548000D02*
X147099000Y-103848000D01*
G75*
G02*
X146949000Y-103998000I-150000J0D01*
G01*
X145924000Y-103998000D01*
G75*
G02*
X145774000Y-103848000I0J150000D01*
G01*
X145774000Y-103548000D01*
G75*
G02*
X145924000Y-103398000I150000J0D01*
G01*
X146949000Y-103398000D01*
G75*
G02*
X147099000Y-103548000I0J-150000D01*
G01*
G37*
G04 #@! TD.AperFunction*
G04 #@! TA.AperFunction,SMDPad,CuDef*
G36*
G01*
X147099000Y-104498000D02*
X147099000Y-104798000D01*
G75*
G02*
X146949000Y-104948000I-150000J0D01*
G01*
X145924000Y-104948000D01*
G75*
G02*
X145774000Y-104798000I0J150000D01*
G01*
X145774000Y-104498000D01*
G75*
G02*
X145924000Y-104348000I150000J0D01*
G01*
X146949000Y-104348000D01*
G75*
G02*
X147099000Y-104498000I0J-150000D01*
G01*
G37*
G04 #@! TD.AperFunction*
G04 #@! TA.AperFunction,SMDPad,CuDef*
G36*
G01*
X147099000Y-105448000D02*
X147099000Y-105748000D01*
G75*
G02*
X146949000Y-105898000I-150000J0D01*
G01*
X145924000Y-105898000D01*
G75*
G02*
X145774000Y-105748000I0J150000D01*
G01*
X145774000Y-105448000D01*
G75*
G02*
X145924000Y-105298000I150000J0D01*
G01*
X146949000Y-105298000D01*
G75*
G02*
X147099000Y-105448000I0J-150000D01*
G01*
G37*
G04 #@! TD.AperFunction*
G04 #@! TA.AperFunction,SMDPad,CuDef*
G36*
G01*
X131163000Y-117036000D02*
X131163000Y-116136000D01*
G75*
G02*
X131413000Y-115886000I250000J0D01*
G01*
X131938000Y-115886000D01*
G75*
G02*
X132188000Y-116136000I0J-250000D01*
G01*
X132188000Y-117036000D01*
G75*
G02*
X131938000Y-117286000I-250000J0D01*
G01*
X131413000Y-117286000D01*
G75*
G02*
X131163000Y-117036000I0J250000D01*
G01*
G37*
G04 #@! TD.AperFunction*
G04 #@! TA.AperFunction,SMDPad,CuDef*
G36*
G01*
X132988000Y-117036000D02*
X132988000Y-116136000D01*
G75*
G02*
X133238000Y-115886000I250000J0D01*
G01*
X133763000Y-115886000D01*
G75*
G02*
X134013000Y-116136000I0J-250000D01*
G01*
X134013000Y-117036000D01*
G75*
G02*
X133763000Y-117286000I-250000J0D01*
G01*
X133238000Y-117286000D01*
G75*
G02*
X132988000Y-117036000I0J250000D01*
G01*
G37*
G04 #@! TD.AperFunction*
G04 #@! TA.AperFunction,SMDPad,CuDef*
G36*
G01*
X162024000Y-95954000D02*
X162024000Y-95054000D01*
G75*
G02*
X162274000Y-94804000I250000J0D01*
G01*
X162799000Y-94804000D01*
G75*
G02*
X163049000Y-95054000I0J-250000D01*
G01*
X163049000Y-95954000D01*
G75*
G02*
X162799000Y-96204000I-250000J0D01*
G01*
X162274000Y-96204000D01*
G75*
G02*
X162024000Y-95954000I0J250000D01*
G01*
G37*
G04 #@! TD.AperFunction*
G04 #@! TA.AperFunction,SMDPad,CuDef*
G36*
G01*
X163849000Y-95954000D02*
X163849000Y-95054000D01*
G75*
G02*
X164099000Y-94804000I250000J0D01*
G01*
X164624000Y-94804000D01*
G75*
G02*
X164874000Y-95054000I0J-250000D01*
G01*
X164874000Y-95954000D01*
G75*
G02*
X164624000Y-96204000I-250000J0D01*
G01*
X164099000Y-96204000D01*
G75*
G02*
X163849000Y-95954000I0J250000D01*
G01*
G37*
G04 #@! TD.AperFunction*
G04 #@! TA.AperFunction,SMDPad,CuDef*
G36*
G01*
X167997000Y-68288000D02*
X167997000Y-67988000D01*
G75*
G02*
X168147000Y-67838000I150000J0D01*
G01*
X169322000Y-67838000D01*
G75*
G02*
X169472000Y-67988000I0J-150000D01*
G01*
X169472000Y-68288000D01*
G75*
G02*
X169322000Y-68438000I-150000J0D01*
G01*
X168147000Y-68438000D01*
G75*
G02*
X167997000Y-68288000I0J150000D01*
G01*
G37*
G04 #@! TD.AperFunction*
G04 #@! TA.AperFunction,SMDPad,CuDef*
G36*
G01*
X167997000Y-70188000D02*
X167997000Y-69888000D01*
G75*
G02*
X168147000Y-69738000I150000J0D01*
G01*
X169322000Y-69738000D01*
G75*
G02*
X169472000Y-69888000I0J-150000D01*
G01*
X169472000Y-70188000D01*
G75*
G02*
X169322000Y-70338000I-150000J0D01*
G01*
X168147000Y-70338000D01*
G75*
G02*
X167997000Y-70188000I0J150000D01*
G01*
G37*
G04 #@! TD.AperFunction*
G04 #@! TA.AperFunction,SMDPad,CuDef*
G36*
G01*
X169872000Y-69238000D02*
X169872000Y-68938000D01*
G75*
G02*
X170022000Y-68788000I150000J0D01*
G01*
X171197000Y-68788000D01*
G75*
G02*
X171347000Y-68938000I0J-150000D01*
G01*
X171347000Y-69238000D01*
G75*
G02*
X171197000Y-69388000I-150000J0D01*
G01*
X170022000Y-69388000D01*
G75*
G02*
X169872000Y-69238000I0J150000D01*
G01*
G37*
G04 #@! TD.AperFunction*
D19*
X132334000Y-126873000D03*
D20*
X134874000Y-126873000D03*
X137414000Y-126873000D03*
X139954000Y-126873000D03*
X142494000Y-126873000D03*
X145034000Y-126873000D03*
X147574000Y-126873000D03*
X150114000Y-126873000D03*
G04 #@! TA.AperFunction,SMDPad,CuDef*
G36*
G01*
X145651000Y-98723000D02*
X145651000Y-97873000D01*
G75*
G02*
X145901000Y-97623000I250000J0D01*
G01*
X146801000Y-97623000D01*
G75*
G02*
X147051000Y-97873000I0J-250000D01*
G01*
X147051000Y-98723000D01*
G75*
G02*
X146801000Y-98973000I-250000J0D01*
G01*
X145901000Y-98973000D01*
G75*
G02*
X145651000Y-98723000I0J250000D01*
G01*
G37*
G04 #@! TD.AperFunction*
G04 #@! TA.AperFunction,SMDPad,CuDef*
G36*
G01*
X148351000Y-98723000D02*
X148351000Y-97873000D01*
G75*
G02*
X148601000Y-97623000I250000J0D01*
G01*
X149501000Y-97623000D01*
G75*
G02*
X149751000Y-97873000I0J-250000D01*
G01*
X149751000Y-98723000D01*
G75*
G02*
X149501000Y-98973000I-250000J0D01*
G01*
X148601000Y-98973000D01*
G75*
G02*
X148351000Y-98723000I0J250000D01*
G01*
G37*
G04 #@! TD.AperFunction*
G04 #@! TA.AperFunction,SMDPad,CuDef*
G36*
G01*
X171097000Y-72194000D02*
X171097000Y-73094000D01*
G75*
G02*
X170847000Y-73344000I-250000J0D01*
G01*
X170322000Y-73344000D01*
G75*
G02*
X170072000Y-73094000I0J250000D01*
G01*
X170072000Y-72194000D01*
G75*
G02*
X170322000Y-71944000I250000J0D01*
G01*
X170847000Y-71944000D01*
G75*
G02*
X171097000Y-72194000I0J-250000D01*
G01*
G37*
G04 #@! TD.AperFunction*
G04 #@! TA.AperFunction,SMDPad,CuDef*
G36*
G01*
X169272000Y-72194000D02*
X169272000Y-73094000D01*
G75*
G02*
X169022000Y-73344000I-250000J0D01*
G01*
X168497000Y-73344000D01*
G75*
G02*
X168247000Y-73094000I0J250000D01*
G01*
X168247000Y-72194000D01*
G75*
G02*
X168497000Y-71944000I250000J0D01*
G01*
X169022000Y-71944000D01*
G75*
G02*
X169272000Y-72194000I0J-250000D01*
G01*
G37*
G04 #@! TD.AperFunction*
G04 #@! TA.AperFunction,SMDPad,CuDef*
G36*
G01*
X128049000Y-102055000D02*
X128999000Y-102055000D01*
G75*
G02*
X129249000Y-102305000I0J-250000D01*
G01*
X129249000Y-102805000D01*
G75*
G02*
X128999000Y-103055000I-250000J0D01*
G01*
X128049000Y-103055000D01*
G75*
G02*
X127799000Y-102805000I0J250000D01*
G01*
X127799000Y-102305000D01*
G75*
G02*
X128049000Y-102055000I250000J0D01*
G01*
G37*
G04 #@! TD.AperFunction*
G04 #@! TA.AperFunction,SMDPad,CuDef*
G36*
G01*
X128049000Y-103955000D02*
X128999000Y-103955000D01*
G75*
G02*
X129249000Y-104205000I0J-250000D01*
G01*
X129249000Y-104705000D01*
G75*
G02*
X128999000Y-104955000I-250000J0D01*
G01*
X128049000Y-104955000D01*
G75*
G02*
X127799000Y-104705000I0J250000D01*
G01*
X127799000Y-104205000D01*
G75*
G02*
X128049000Y-103955000I250000J0D01*
G01*
G37*
G04 #@! TD.AperFunction*
G04 #@! TA.AperFunction,SMDPad,CuDef*
G36*
G01*
X146124000Y-101821000D02*
X146124000Y-100871000D01*
G75*
G02*
X146374000Y-100621000I250000J0D01*
G01*
X146874000Y-100621000D01*
G75*
G02*
X147124000Y-100871000I0J-250000D01*
G01*
X147124000Y-101821000D01*
G75*
G02*
X146874000Y-102071000I-250000J0D01*
G01*
X146374000Y-102071000D01*
G75*
G02*
X146124000Y-101821000I0J250000D01*
G01*
G37*
G04 #@! TD.AperFunction*
G04 #@! TA.AperFunction,SMDPad,CuDef*
G36*
G01*
X148024000Y-101821000D02*
X148024000Y-100871000D01*
G75*
G02*
X148274000Y-100621000I250000J0D01*
G01*
X148774000Y-100621000D01*
G75*
G02*
X149024000Y-100871000I0J-250000D01*
G01*
X149024000Y-101821000D01*
G75*
G02*
X148774000Y-102071000I-250000J0D01*
G01*
X148274000Y-102071000D01*
G75*
G02*
X148024000Y-101821000I0J250000D01*
G01*
G37*
G04 #@! TD.AperFunction*
G04 #@! TA.AperFunction,SMDPad,CuDef*
G36*
G01*
X134800000Y-106332000D02*
X134800000Y-107282000D01*
G75*
G02*
X134550000Y-107532000I-250000J0D01*
G01*
X134050000Y-107532000D01*
G75*
G02*
X133800000Y-107282000I0J250000D01*
G01*
X133800000Y-106332000D01*
G75*
G02*
X134050000Y-106082000I250000J0D01*
G01*
X134550000Y-106082000D01*
G75*
G02*
X134800000Y-106332000I0J-250000D01*
G01*
G37*
G04 #@! TD.AperFunction*
G04 #@! TA.AperFunction,SMDPad,CuDef*
G36*
G01*
X132900000Y-106332000D02*
X132900000Y-107282000D01*
G75*
G02*
X132650000Y-107532000I-250000J0D01*
G01*
X132150000Y-107532000D01*
G75*
G02*
X131900000Y-107282000I0J250000D01*
G01*
X131900000Y-106332000D01*
G75*
G02*
X132150000Y-106082000I250000J0D01*
G01*
X132650000Y-106082000D01*
G75*
G02*
X132900000Y-106332000I0J-250000D01*
G01*
G37*
G04 #@! TD.AperFunction*
G04 #@! TA.AperFunction,SMDPad,CuDef*
G36*
G01*
X162024000Y-93160000D02*
X162024000Y-92260000D01*
G75*
G02*
X162274000Y-92010000I250000J0D01*
G01*
X162799000Y-92010000D01*
G75*
G02*
X163049000Y-92260000I0J-250000D01*
G01*
X163049000Y-93160000D01*
G75*
G02*
X162799000Y-93410000I-250000J0D01*
G01*
X162274000Y-93410000D01*
G75*
G02*
X162024000Y-93160000I0J250000D01*
G01*
G37*
G04 #@! TD.AperFunction*
G04 #@! TA.AperFunction,SMDPad,CuDef*
G36*
G01*
X163849000Y-93160000D02*
X163849000Y-92260000D01*
G75*
G02*
X164099000Y-92010000I250000J0D01*
G01*
X164624000Y-92010000D01*
G75*
G02*
X164874000Y-92260000I0J-250000D01*
G01*
X164874000Y-93160000D01*
G75*
G02*
X164624000Y-93410000I-250000J0D01*
G01*
X164099000Y-93410000D01*
G75*
G02*
X163849000Y-93160000I0J250000D01*
G01*
G37*
G04 #@! TD.AperFunction*
D22*
X166878000Y-123825000D03*
X150114000Y-103251000D03*
X160020000Y-75311000D03*
X150114000Y-105918000D03*
X150114000Y-104140000D03*
X150114000Y-96901000D03*
X150114000Y-108585000D03*
X150114000Y-96012000D03*
X150114000Y-102362000D03*
X150114000Y-92456000D03*
X166878000Y-104394000D03*
X150114000Y-106807000D03*
X150114000Y-107696000D03*
X162179000Y-76962000D03*
X150114000Y-100203000D03*
X150114000Y-94234000D03*
X150114000Y-93345000D03*
X150114000Y-99314000D03*
X146431000Y-96139000D03*
X148717000Y-106553000D03*
X150114000Y-105029000D03*
X150114000Y-95123000D03*
X133477000Y-120904000D03*
X143764000Y-96139000D03*
X133985000Y-102743000D03*
X143764000Y-103251000D03*
X166116000Y-74422000D03*
X143764000Y-98806000D03*
X133477000Y-96901000D03*
X133477000Y-98679000D03*
X143764000Y-97028000D03*
X143764000Y-102362000D03*
X144526000Y-97917000D03*
X144526000Y-103251000D03*
X144526000Y-96139000D03*
X144526000Y-99695000D03*
X144526000Y-97028000D03*
X134747000Y-103505000D03*
X133223000Y-103505000D03*
X143764000Y-97917000D03*
X144526000Y-102362000D03*
X144526000Y-98806000D03*
X134747000Y-102743000D03*
X133477000Y-97790000D03*
X166116000Y-75946000D03*
X133985000Y-103505000D03*
X133223000Y-102743000D03*
X160909000Y-86995000D03*
X161798000Y-86995000D03*
X143764000Y-99695000D03*
X145796000Y-106553000D03*
X145542000Y-96139000D03*
X145542000Y-87630000D03*
X135026400Y-109728000D03*
X168275000Y-71120000D03*
X160528000Y-71628000D03*
D23*
X124968000Y-76835000D02*
X120269000Y-72136000D01*
X154305000Y-66929000D02*
X155490500Y-68114500D01*
X124968000Y-79375000D02*
X124968000Y-76835000D01*
X120269000Y-68072000D02*
X121412000Y-66929000D01*
X120523000Y-83820000D02*
X124968000Y-79375000D01*
X120269000Y-72136000D02*
X120269000Y-68072000D01*
X155490500Y-68114500D02*
X168734500Y-68114500D01*
X122174000Y-94615000D02*
X120523000Y-92964000D01*
X120523000Y-92964000D02*
X120523000Y-83820000D01*
X121412000Y-66929000D02*
X154305000Y-66929000D01*
D24*
X130977000Y-102068000D02*
X130977000Y-100545900D01*
X128524000Y-102555000D02*
X126558000Y-102555000D01*
X130490000Y-102555000D02*
X130977000Y-102068000D01*
X126558000Y-102555000D02*
X126238000Y-102235000D01*
X126238000Y-102235000D02*
X122174000Y-102235000D01*
X130977000Y-95034100D02*
X130977000Y-100545900D01*
X128524000Y-102555000D02*
X130490000Y-102555000D01*
D25*
X164452000Y-110744000D02*
X166878000Y-110744000D01*
D23*
X146268001Y-94527400D02*
X146268001Y-95595001D01*
D26*
X166878000Y-123825000D02*
X166878000Y-104394000D01*
D27*
X144972000Y-92075000D02*
X144018000Y-92075000D01*
X146768000Y-89622600D02*
X146768000Y-90279000D01*
D23*
X133525500Y-119380000D02*
X133525500Y-120855500D01*
D25*
X164452000Y-115824000D02*
X167005000Y-115824000D01*
D23*
X147470401Y-93575000D02*
X148693000Y-93575000D01*
X147470401Y-92075000D02*
X148717000Y-92075000D01*
D25*
X164452000Y-118364000D02*
X167005000Y-118364000D01*
D27*
X143768000Y-89622600D02*
X143768000Y-87880000D01*
D23*
X145518000Y-93575000D02*
X144018000Y-92075000D01*
D26*
X132588000Y-109855000D02*
X132588000Y-108331000D01*
D23*
X146768000Y-94527400D02*
X148629400Y-94527400D01*
X147470401Y-93075001D02*
X145018001Y-93075001D01*
X145018001Y-93075001D02*
X144018000Y-92075000D01*
X144517999Y-92574999D02*
X144018000Y-92075000D01*
D27*
X160020000Y-76835000D02*
X160020000Y-75311000D01*
D25*
X164452000Y-120904000D02*
X167005000Y-120904000D01*
D27*
X146768000Y-90279000D02*
X144972000Y-92075000D01*
D23*
X133525500Y-120855500D02*
X133477000Y-120904000D01*
X146268001Y-95595001D02*
X146431000Y-95758000D01*
X147470401Y-92574999D02*
X144517999Y-92574999D01*
X146431000Y-95758000D02*
X146431000Y-96139000D01*
D25*
X164452000Y-105664000D02*
X167005000Y-105664000D01*
D23*
X147470401Y-93575000D02*
X145518000Y-93575000D01*
X147470401Y-92574999D02*
X148708999Y-92574999D01*
D25*
X162179000Y-76962000D02*
X163515500Y-76962000D01*
D27*
X143768000Y-87880000D02*
X144819995Y-86828005D01*
D23*
X145268000Y-89622600D02*
X145268000Y-90825000D01*
X147470401Y-93075001D02*
X148701001Y-93075001D01*
D27*
X144819995Y-86828005D02*
X144819995Y-70104000D01*
D23*
X144268000Y-89622600D02*
X144268000Y-91825000D01*
D25*
X163515500Y-76962000D02*
X163576000Y-77022500D01*
D24*
X128524000Y-109535000D02*
X126685000Y-109535000D01*
X126365000Y-109855000D02*
X122174000Y-109855000D01*
X126685000Y-109535000D02*
X126365000Y-109855000D01*
D27*
X165298500Y-78922500D02*
X166116000Y-78105000D01*
D23*
X133477000Y-93345000D02*
X133477000Y-95034100D01*
D27*
X166116000Y-74422000D02*
X166116000Y-72644000D01*
D23*
X133500500Y-116586000D02*
X136017000Y-116586000D01*
D27*
X166116000Y-78105000D02*
X166116000Y-75946000D01*
X164361500Y-95504000D02*
X164361500Y-86637500D01*
D23*
X134112000Y-92710000D02*
X133477000Y-93345000D01*
X145268000Y-94527400D02*
X145268000Y-95270000D01*
X136271000Y-92710000D02*
X134112000Y-92710000D01*
D27*
X163576000Y-78922500D02*
X165298500Y-78922500D01*
D23*
X145268000Y-95270000D02*
X144780000Y-95758000D01*
X136017000Y-116586000D02*
X137033000Y-115570000D01*
D27*
X168759500Y-72644000D02*
X164107500Y-72644000D01*
D23*
X137033000Y-115570000D02*
X137033000Y-93472000D01*
D24*
X133477000Y-95034100D02*
X133477000Y-100545900D01*
D23*
X160970000Y-84793000D02*
X160932500Y-84830500D01*
X137033000Y-93472000D02*
X136271000Y-92710000D01*
D24*
X160909000Y-82060000D02*
X160932500Y-82036500D01*
D23*
X149820000Y-72430000D02*
X149820000Y-70104000D01*
X145767999Y-95532001D02*
X145542000Y-95758000D01*
X145542000Y-95758000D02*
X145542000Y-96139000D01*
X145542000Y-87630000D02*
X145542000Y-76708000D01*
X145767999Y-94527400D02*
X145767999Y-95532001D01*
X145542000Y-76708000D02*
X149820000Y-72430000D01*
D25*
X134127500Y-109728000D02*
X134088000Y-109767500D01*
D28*
X134088000Y-107019000D02*
X134300000Y-106807000D01*
D24*
X135977000Y-95034100D02*
X135977000Y-97703000D01*
X135977000Y-97703000D02*
X135977000Y-100545900D01*
D28*
X134088000Y-109767500D02*
X134088000Y-107019000D01*
D24*
X135977000Y-105130000D02*
X134300000Y-106807000D01*
D25*
X135026400Y-109728000D02*
X134127500Y-109728000D01*
D24*
X135977000Y-100545900D02*
X135977000Y-105130000D01*
D27*
X131675500Y-116586000D02*
X131675500Y-119355000D01*
X131675500Y-119355000D02*
X131650500Y-119380000D01*
X139700000Y-69977000D02*
X139700000Y-72136000D01*
X143267999Y-75703999D02*
X143267999Y-89622600D01*
X139700000Y-72136000D02*
X143267999Y-75703999D01*
X142768000Y-77744000D02*
X142768000Y-89622600D01*
X137160000Y-69977000D02*
X137160000Y-72136000D01*
X137160000Y-72136000D02*
X142768000Y-77744000D01*
X142268001Y-79784001D02*
X142268001Y-89622600D01*
X134620000Y-72136000D02*
X142268001Y-79784001D01*
X134620000Y-69977000D02*
X134620000Y-72136000D01*
X132080000Y-69977000D02*
X132080000Y-72136000D01*
X141767999Y-81823999D02*
X141767999Y-89622600D01*
X132080000Y-72136000D02*
X141767999Y-81823999D01*
X129540000Y-72136000D02*
X141268000Y-83864000D01*
X129540000Y-69977000D02*
X129540000Y-72136000D01*
X141268000Y-83864000D02*
X141268000Y-89622600D01*
X127000000Y-69977000D02*
X127000000Y-72136000D01*
X138938000Y-90043000D02*
X139470000Y-90575000D01*
X127000000Y-72136000D02*
X138938000Y-84074000D01*
X139470000Y-90575000D02*
X140565599Y-90575000D01*
X138938000Y-84074000D02*
X138938000Y-90043000D01*
X139207999Y-91074999D02*
X140565599Y-91074999D01*
X124460000Y-72136000D02*
X138430000Y-86106000D01*
X138430000Y-90297000D02*
X139207999Y-91074999D01*
X124460000Y-69977000D02*
X124460000Y-72136000D01*
X138430000Y-86106000D02*
X138430000Y-90297000D01*
X121920000Y-69977000D02*
X121920000Y-72136000D01*
X137922000Y-90551000D02*
X138946001Y-91575001D01*
X138946001Y-91575001D02*
X140565599Y-91575001D01*
X137922000Y-88138000D02*
X137922000Y-90551000D01*
X121920000Y-72136000D02*
X137922000Y-88138000D01*
D23*
X138938000Y-92075000D02*
X140565599Y-92075000D01*
X132334000Y-123571000D02*
X137922000Y-117983000D01*
X132334000Y-126873000D02*
X132334000Y-123571000D01*
X137922000Y-93091000D02*
X138938000Y-92075000D01*
X137922000Y-117983000D02*
X137922000Y-93091000D01*
X139200001Y-92574999D02*
X140565599Y-92574999D01*
X134874000Y-123571000D02*
X138430000Y-120015000D01*
X134874000Y-126873000D02*
X134874000Y-123571000D01*
X138430000Y-93345000D02*
X139200001Y-92574999D01*
X138430000Y-120015000D02*
X138430000Y-93345000D01*
X138938000Y-93599000D02*
X139461999Y-93075001D01*
X139461999Y-93075001D02*
X140565599Y-93075001D01*
X138938000Y-122047000D02*
X138938000Y-93599000D01*
X137414000Y-123571000D02*
X138938000Y-122047000D01*
X137414000Y-126873000D02*
X137414000Y-123571000D01*
X139954000Y-126873000D02*
X139954000Y-123571000D01*
X139446000Y-93853000D02*
X139724000Y-93575000D01*
X139954000Y-123571000D02*
X139446000Y-123063000D01*
X139446000Y-123063000D02*
X139446000Y-93853000D01*
X139724000Y-93575000D02*
X140565599Y-93575000D01*
X141268000Y-122345000D02*
X141268000Y-94527400D01*
X142494000Y-126873000D02*
X142494000Y-123571000D01*
X142494000Y-123571000D02*
X141268000Y-122345000D01*
X141767999Y-120304999D02*
X141767999Y-94527400D01*
X145034000Y-123571000D02*
X141767999Y-120304999D01*
X145034000Y-126873000D02*
X145034000Y-123571000D01*
X147574000Y-126873000D02*
X147574000Y-123571000D01*
X142268001Y-118265001D02*
X142268001Y-94527400D01*
X147574000Y-123571000D02*
X142268001Y-118265001D01*
X142768000Y-116225000D02*
X142768000Y-94527400D01*
X150114000Y-123571000D02*
X142768000Y-116225000D01*
X150114000Y-126873000D02*
X150114000Y-123571000D01*
X165899500Y-70038000D02*
X165862000Y-70000500D01*
X168734500Y-70660500D02*
X168275000Y-71120000D01*
X168734500Y-70038000D02*
X168734500Y-70660500D01*
X168734500Y-70038000D02*
X165899500Y-70038000D01*
X157644500Y-70038000D02*
X157607000Y-70000500D01*
X160479500Y-70038000D02*
X157644500Y-70038000D01*
X160479500Y-71579500D02*
X160479500Y-70038000D01*
X160528000Y-71628000D02*
X160479500Y-71579500D01*
X170584500Y-69113000D02*
X170609500Y-69088000D01*
X157236578Y-77978000D02*
X146268001Y-88946577D01*
X170584500Y-72644000D02*
X170584500Y-69113000D01*
X170584500Y-72644000D02*
X170584500Y-74271500D01*
X169672000Y-75184000D02*
X161544000Y-75184000D01*
X160655000Y-77978000D02*
X157236578Y-77978000D01*
X170584500Y-74271500D02*
X169672000Y-75184000D01*
X146268001Y-88946577D02*
X146268001Y-89622600D01*
X160970000Y-77663000D02*
X160655000Y-77978000D01*
X160970000Y-75758000D02*
X160970000Y-76835000D01*
X160970000Y-76835000D02*
X160970000Y-77663000D01*
X161544000Y-75184000D02*
X160970000Y-75758000D01*
X162329500Y-73890500D02*
X161671000Y-74549000D01*
X145767999Y-88674001D02*
X157607000Y-76835000D01*
X159766000Y-74549000D02*
X159070000Y-75245000D01*
X161671000Y-74549000D02*
X159766000Y-74549000D01*
X145767999Y-89622600D02*
X145767999Y-88674001D01*
X162329500Y-72644000D02*
X162329500Y-69113000D01*
X162329500Y-72644000D02*
X162329500Y-73890500D01*
X157607000Y-76835000D02*
X159070000Y-76835000D01*
X162329500Y-69113000D02*
X162354500Y-69088000D01*
X159070000Y-75245000D02*
X159070000Y-76835000D01*
D27*
X162536500Y-97639500D02*
X164452000Y-99555000D01*
X164452000Y-99555000D02*
X164452000Y-103124000D01*
X162536500Y-95504000D02*
X162536500Y-97639500D01*
X150884001Y-91575001D02*
X151384000Y-92075000D01*
X151384000Y-111887000D02*
X152781000Y-113284000D01*
X147470401Y-91575001D02*
X150884001Y-91575001D01*
X155842000Y-115824000D02*
X155842000Y-113284000D01*
X151384000Y-92075000D02*
X151384000Y-111887000D01*
X152781000Y-113284000D02*
X155842000Y-113284000D01*
X152908000Y-108204000D02*
X151892000Y-107188000D01*
X155842000Y-108204000D02*
X152908000Y-108204000D01*
X155842000Y-108204000D02*
X155842000Y-110744000D01*
X151892000Y-91821000D02*
X151145999Y-91074999D01*
X151145999Y-91074999D02*
X147470401Y-91074999D01*
X151892000Y-107188000D02*
X151892000Y-91821000D01*
X147470401Y-90575000D02*
X151408000Y-90575000D01*
X152400000Y-91567000D02*
X152400000Y-102235000D01*
X153289000Y-103124000D02*
X155842000Y-103124000D01*
X151408000Y-90575000D02*
X152400000Y-91567000D01*
X152400000Y-102235000D02*
X153289000Y-103124000D01*
X155842000Y-105664000D02*
X155842000Y-103124000D01*
X161290000Y-93091000D02*
X161290000Y-106934000D01*
X162536500Y-92710000D02*
X161671000Y-92710000D01*
X161290000Y-106934000D02*
X162560000Y-108204000D01*
X161671000Y-92710000D02*
X161290000Y-93091000D01*
X162560000Y-108204000D02*
X164452000Y-108204000D01*
X160782000Y-90551000D02*
X160782000Y-111506000D01*
X160782000Y-111506000D02*
X162560000Y-113284000D01*
X161417000Y-89916000D02*
X160782000Y-90551000D01*
X162560000Y-113284000D02*
X164452000Y-113284000D01*
X162536500Y-89916000D02*
X161417000Y-89916000D01*
D23*
X143267999Y-94527400D02*
X143768000Y-94527400D01*
X144268000Y-94527400D02*
X144768001Y-94527400D01*
X160020000Y-79110000D02*
X160020000Y-80899000D01*
X160020000Y-83067000D02*
X160020000Y-119888000D01*
X160020000Y-80899000D02*
X159107500Y-81811500D01*
X159107500Y-82154500D02*
X160020000Y-83067000D01*
X159107500Y-82036500D02*
X159107500Y-82154500D01*
X160020000Y-119888000D02*
X159004000Y-120904000D01*
X159107500Y-81811500D02*
X159107500Y-82036500D01*
X159004000Y-120904000D02*
X155842000Y-120904000D01*
D27*
X159107500Y-117244500D02*
X159107500Y-84830500D01*
D23*
X159107500Y-84685500D02*
X159107500Y-84830500D01*
D27*
X155842000Y-118364000D02*
X157988000Y-118364000D01*
D23*
X158115000Y-81026000D02*
X158115000Y-83693000D01*
X159070000Y-80071000D02*
X158115000Y-81026000D01*
D27*
X157988000Y-118364000D02*
X159107500Y-117244500D01*
D23*
X159070000Y-79110000D02*
X159070000Y-80071000D01*
X158115000Y-83693000D02*
X159107500Y-84685500D01*
G04 #@! TA.AperFunction,Conductor*
G36*
X131333931Y-103525002D02*
G01*
X131354905Y-103541905D01*
X132932095Y-105119095D01*
X132966121Y-105181407D01*
X132969000Y-105208190D01*
X132969000Y-108459000D01*
X132948998Y-108527121D01*
X132895342Y-108573614D01*
X132843000Y-108585000D01*
X123296868Y-108585000D01*
X123228747Y-108564998D01*
X123182254Y-108511342D01*
X123172150Y-108441068D01*
X123201644Y-108376488D01*
X123209897Y-108367830D01*
X123353515Y-108230826D01*
X123360569Y-108222852D01*
X123493144Y-108044664D01*
X123498743Y-108035634D01*
X123599403Y-107837651D01*
X123603403Y-107827800D01*
X123638956Y-107713300D01*
X123639174Y-107699201D01*
X123632443Y-107696000D01*
X121919000Y-107696000D01*
X121850879Y-107675998D01*
X121804386Y-107622342D01*
X121793000Y-107570000D01*
X121793000Y-106915885D01*
X122555000Y-106915885D01*
X122559475Y-106931124D01*
X122560865Y-106932329D01*
X122568548Y-106934000D01*
X123629841Y-106934000D01*
X123643372Y-106930027D01*
X123644744Y-106920483D01*
X123642939Y-106914469D01*
X123561363Y-106707903D01*
X123556629Y-106698366D01*
X123441414Y-106508497D01*
X123435150Y-106499907D01*
X123289589Y-106332163D01*
X123281959Y-106324743D01*
X123110220Y-106183927D01*
X123101458Y-106177905D01*
X123059798Y-106154190D01*
X123010492Y-106103107D01*
X122996631Y-106033476D01*
X123022615Y-105967406D01*
X123051764Y-105940168D01*
X123184531Y-105850785D01*
X123192816Y-105844124D01*
X123353520Y-105690820D01*
X123360569Y-105682852D01*
X123493144Y-105504664D01*
X123498743Y-105495634D01*
X123599403Y-105297651D01*
X123603403Y-105287800D01*
X123638956Y-105173300D01*
X123639174Y-105159201D01*
X123632443Y-105156000D01*
X122573115Y-105156000D01*
X122557876Y-105160475D01*
X122556671Y-105161865D01*
X122555000Y-105169548D01*
X122555000Y-106915885D01*
X121793000Y-106915885D01*
X121793000Y-104520000D01*
X121813002Y-104451879D01*
X121866658Y-104405386D01*
X121919000Y-104394000D01*
X123629841Y-104394000D01*
X123643372Y-104390027D01*
X123644744Y-104380483D01*
X123642939Y-104374469D01*
X123561363Y-104167903D01*
X123556629Y-104158366D01*
X123441414Y-103968497D01*
X123435150Y-103959907D01*
X123289589Y-103792163D01*
X123281959Y-103784743D01*
X123213284Y-103728434D01*
X123173290Y-103669775D01*
X123171358Y-103598805D01*
X123208102Y-103538056D01*
X123271856Y-103506817D01*
X123293175Y-103505000D01*
X131265810Y-103505000D01*
X131333931Y-103525002D01*
G37*
G04 #@! TD.AperFunction*
G04 #@! TA.AperFunction,Conductor*
G36*
X134689121Y-99334002D02*
G01*
X134735614Y-99387658D01*
X134747000Y-99440000D01*
X134747000Y-102108000D01*
X134898000Y-102108000D01*
X134966121Y-102128002D01*
X135012614Y-102181658D01*
X135024000Y-102234000D01*
X135024000Y-103887000D01*
X135003998Y-103955121D01*
X134950342Y-104001614D01*
X134898000Y-104013000D01*
X132841000Y-104013000D01*
X132772879Y-103992998D01*
X132726386Y-103939342D01*
X132715000Y-103887000D01*
X132715000Y-99440000D01*
X132735002Y-99371879D01*
X132788658Y-99325386D01*
X132841000Y-99314000D01*
X134621000Y-99314000D01*
X134689121Y-99334002D01*
G37*
G04 #@! TD.AperFunction*
G04 #@! TA.AperFunction,Conductor*
G36*
X145762579Y-105169733D02*
G01*
X145774883Y-105176002D01*
X145797445Y-105187498D01*
X145892166Y-105202500D01*
X146980834Y-105202500D01*
X147075555Y-105187498D01*
X147098117Y-105176002D01*
X147110421Y-105169733D01*
X147167624Y-105156000D01*
X147194000Y-105156000D01*
X147262121Y-105176002D01*
X147308614Y-105229658D01*
X147320000Y-105282000D01*
X147320000Y-108967000D01*
X147299998Y-109035121D01*
X147246342Y-109081614D01*
X147194000Y-109093000D01*
X145160000Y-109093000D01*
X145091879Y-109072998D01*
X145045386Y-109019342D01*
X145034000Y-108967000D01*
X145034000Y-105282000D01*
X145054002Y-105213879D01*
X145107658Y-105167386D01*
X145160000Y-105156000D01*
X145705376Y-105156000D01*
X145762579Y-105169733D01*
G37*
G04 #@! TD.AperFunction*
G04 #@! TA.AperFunction,Conductor*
G36*
X150564121Y-91976503D02*
G01*
X150610614Y-92030159D01*
X150622000Y-92082501D01*
X150622000Y-108967000D01*
X150601998Y-109035121D01*
X150548342Y-109081614D01*
X150496000Y-109093000D01*
X147954000Y-109093000D01*
X147885879Y-109072998D01*
X147839386Y-109019342D01*
X147828000Y-108967000D01*
X147828000Y-104318560D01*
X147848002Y-104250439D01*
X147901658Y-104203946D01*
X147971932Y-104193842D01*
X148011205Y-104206294D01*
X148072445Y-104237498D01*
X148167166Y-104252500D01*
X149255834Y-104252500D01*
X149350555Y-104237498D01*
X149464723Y-104179326D01*
X149555326Y-104088723D01*
X149613498Y-103974555D01*
X149628500Y-103879834D01*
X149628500Y-103516166D01*
X149613498Y-103421445D01*
X149555326Y-103307277D01*
X149464723Y-103216674D01*
X149350555Y-103158502D01*
X149255834Y-103143500D01*
X148167166Y-103143500D01*
X148072445Y-103158502D01*
X148063610Y-103163004D01*
X148063609Y-103163004D01*
X148011204Y-103189706D01*
X147941427Y-103202811D01*
X147875642Y-103176111D01*
X147834735Y-103118084D01*
X147828000Y-103077440D01*
X147828000Y-94106000D01*
X147848002Y-94037879D01*
X147901658Y-93991386D01*
X147954000Y-93980000D01*
X148209000Y-93980000D01*
X148209000Y-92082501D01*
X148229002Y-92014380D01*
X148282658Y-91967887D01*
X148335000Y-91956501D01*
X150496000Y-91956501D01*
X150564121Y-91976503D01*
G37*
G04 #@! TD.AperFunction*
G04 #@! TA.AperFunction,Conductor*
G36*
X131387121Y-109113002D02*
G01*
X131433614Y-109166658D01*
X131445000Y-109219000D01*
X131445000Y-110364000D01*
X131424998Y-110432121D01*
X131371342Y-110478614D01*
X131319000Y-110490000D01*
X128142000Y-110490000D01*
X128073879Y-110469998D01*
X128027386Y-110416342D01*
X128016000Y-110364000D01*
X128016000Y-109219000D01*
X128036002Y-109150879D01*
X128089658Y-109104386D01*
X128142000Y-109093000D01*
X131319000Y-109093000D01*
X131387121Y-109113002D01*
G37*
G04 #@! TD.AperFunction*
G04 #@! TA.AperFunction,Conductor*
G36*
X164661121Y-77998002D02*
G01*
X164707614Y-78051658D01*
X164719000Y-78104000D01*
X164719000Y-87377000D01*
X164698998Y-87445121D01*
X164645342Y-87491614D01*
X164593000Y-87503000D01*
X160527000Y-87503000D01*
X160458879Y-87482998D01*
X160412386Y-87429342D01*
X160401000Y-87377000D01*
X160401000Y-83113953D01*
X160401877Y-83105718D01*
X160401637Y-83105707D01*
X160402128Y-83095306D01*
X160404320Y-83085124D01*
X160401873Y-83064450D01*
X160401000Y-83049640D01*
X160401000Y-80949606D01*
X160404093Y-80949606D01*
X160403717Y-80947143D01*
X160401713Y-80947222D01*
X160401097Y-80931543D01*
X160401000Y-80926597D01*
X160401000Y-80015739D01*
X160421002Y-79947618D01*
X160437905Y-79926644D01*
X160501326Y-79863223D01*
X160559498Y-79749055D01*
X160574500Y-79654334D01*
X160574500Y-78565666D01*
X160564575Y-78503002D01*
X160573675Y-78432593D01*
X160619396Y-78378279D01*
X160678648Y-78357721D01*
X160681322Y-78357500D01*
X160686524Y-78357500D01*
X160691654Y-78356646D01*
X160691655Y-78356646D01*
X160705565Y-78354331D01*
X160711443Y-78353494D01*
X160752001Y-78348694D01*
X160752002Y-78348694D01*
X160762341Y-78347470D01*
X160770593Y-78343507D01*
X160779626Y-78342004D01*
X160788795Y-78337057D01*
X160788797Y-78337056D01*
X160824732Y-78317666D01*
X160830025Y-78314969D01*
X160869082Y-78296215D01*
X160869086Y-78296212D01*
X160876232Y-78292781D01*
X160880508Y-78289186D01*
X160882431Y-78287263D01*
X160884363Y-78285491D01*
X160884442Y-78285448D01*
X160884555Y-78285572D01*
X160885095Y-78285096D01*
X160890814Y-78282010D01*
X160927417Y-78242413D01*
X160930846Y-78238848D01*
X161154789Y-78014905D01*
X161217101Y-77980879D01*
X161243884Y-77978000D01*
X164593000Y-77978000D01*
X164661121Y-77998002D01*
G37*
G04 #@! TD.AperFunction*
G04 #@! TA.AperFunction,Conductor*
G36*
X145169420Y-95397002D02*
G01*
X145215913Y-95450658D01*
X145226017Y-95520932D01*
X145211714Y-95563700D01*
X145211292Y-95564468D01*
X145204844Y-95572647D01*
X145201812Y-95581281D01*
X145196486Y-95588734D01*
X145185879Y-95624203D01*
X145181799Y-95637844D01*
X145179964Y-95643492D01*
X145165609Y-95684368D01*
X145165608Y-95684374D01*
X145162982Y-95691851D01*
X145162500Y-95697416D01*
X145162500Y-95698810D01*
X145161313Y-95704324D01*
X145138097Y-95754510D01*
X145062675Y-95852802D01*
X145062673Y-95852805D01*
X145057645Y-95859358D01*
X145001772Y-95994246D01*
X144982715Y-96139000D01*
X145001772Y-96283754D01*
X145057645Y-96418642D01*
X145146526Y-96534474D01*
X145153076Y-96539500D01*
X145153079Y-96539503D01*
X145255804Y-96618327D01*
X145262357Y-96623355D01*
X145397246Y-96679228D01*
X145542000Y-96698285D01*
X145550188Y-96697207D01*
X145678566Y-96680306D01*
X145686754Y-96679228D01*
X145821643Y-96623355D01*
X145909798Y-96555711D01*
X145976016Y-96530111D01*
X146045564Y-96544375D01*
X146063197Y-96555707D01*
X146151357Y-96623355D01*
X146286246Y-96679228D01*
X146431000Y-96698285D01*
X146439188Y-96697207D01*
X146567566Y-96680306D01*
X146575754Y-96679228D01*
X146710643Y-96623355D01*
X146717196Y-96618327D01*
X146819921Y-96539503D01*
X146819924Y-96539500D01*
X146826474Y-96534474D01*
X146915355Y-96418642D01*
X146971228Y-96283754D01*
X146990285Y-96139000D01*
X146971228Y-95994246D01*
X146915355Y-95859358D01*
X146910327Y-95852805D01*
X146910325Y-95852802D01*
X146829815Y-95747879D01*
X146804650Y-95685984D01*
X146801693Y-95660998D01*
X146801693Y-95660996D01*
X146800469Y-95650659D01*
X146796508Y-95642410D01*
X146795004Y-95633374D01*
X146790056Y-95624203D01*
X146770652Y-95588240D01*
X146767958Y-95582954D01*
X146765006Y-95576807D01*
X146755756Y-95557542D01*
X146744298Y-95487479D01*
X146772539Y-95422341D01*
X146831513Y-95382812D01*
X146869338Y-95377000D01*
X147194000Y-95377000D01*
X147262121Y-95397002D01*
X147308614Y-95450658D01*
X147320000Y-95503000D01*
X147320000Y-103887000D01*
X147299998Y-103955121D01*
X147246342Y-104001614D01*
X147194000Y-104013000D01*
X143382000Y-104013000D01*
X143313879Y-103992998D01*
X143267386Y-103939342D01*
X143256000Y-103887000D01*
X143256000Y-95503000D01*
X143276002Y-95434879D01*
X143329658Y-95388386D01*
X143382000Y-95377000D01*
X145101299Y-95377000D01*
X145169420Y-95397002D01*
G37*
G04 #@! TD.AperFunction*
M02*
