G04 #@! TF.GenerationSoftware,KiCad,Pcbnew,6.0.2+dfsg-1*
G04 #@! TF.CreationDate,2024-05-29T15:52:29-06:00*
G04 #@! TF.ProjectId,ard-ltc2499,6172642d-6c74-4633-9234-39392e6b6963,rev?*
G04 #@! TF.SameCoordinates,Original*
G04 #@! TF.FileFunction,Soldermask,Top*
G04 #@! TF.FilePolarity,Negative*
%FSLAX46Y46*%
G04 Gerber Fmt 4.6, Leading zero omitted, Abs format (unit mm)*
G04 Created by KiCad (PCBNEW 6.0.2+dfsg-1) date 2024-05-29 15:52:29*
%MOMM*%
%LPD*%
G01*
G04 APERTURE LIST*
%ADD10O,2.032000X1.727200*%
%ADD11C,4.064000*%
%ADD12R,1.193800X2.489200*%
%ADD13R,0.249200X0.804800*%
%ADD14R,0.804800X0.249200*%
%ADD15R,5.250000X3.250001*%
%ADD16R,2.500000X2.500000*%
%ADD17C,2.500000*%
%ADD18R,2.440000X1.120000*%
%ADD19R,2.100000X2.100000*%
%ADD20C,2.100000*%
%ADD21R,0.550000X1.300000*%
G04 APERTURE END LIST*
D10*
X122174000Y-92075000D03*
X122174000Y-94615000D03*
X122174000Y-97155000D03*
X122174000Y-99695000D03*
X122174000Y-102235000D03*
X122174000Y-104775000D03*
X122174000Y-107315000D03*
X122174000Y-109855000D03*
X122174000Y-114935000D03*
X122174000Y-117475000D03*
X122174000Y-120015000D03*
X122174000Y-122555000D03*
X122174000Y-125095000D03*
X122174000Y-127635000D03*
X170434000Y-82931000D03*
X170434000Y-85471000D03*
X170434000Y-88011000D03*
X170434000Y-90551000D03*
X170434000Y-93091000D03*
X170434000Y-95631000D03*
X170434000Y-98171000D03*
X170434000Y-100711000D03*
X170434000Y-103251000D03*
X170434000Y-105791000D03*
X170434000Y-109855000D03*
X170434000Y-112395000D03*
X170434000Y-114935000D03*
X170434000Y-117475000D03*
X170434000Y-120015000D03*
X170434000Y-122555000D03*
X170434000Y-125095000D03*
X170434000Y-127635000D03*
D11*
X122174000Y-78105000D03*
X127254000Y-130175000D03*
X170434000Y-79375000D03*
X155194000Y-130175000D03*
D12*
X130977000Y-100545900D03*
X133477000Y-100545900D03*
X135977000Y-100545900D03*
X130977000Y-95034100D03*
X133477000Y-95034100D03*
X135977000Y-95034100D03*
G36*
G01*
X158595000Y-82486500D02*
X158595000Y-81586500D01*
G75*
G02*
X158845000Y-81336500I250000J0D01*
G01*
X159370000Y-81336500D01*
G75*
G02*
X159620000Y-81586500I0J-250000D01*
G01*
X159620000Y-82486500D01*
G75*
G02*
X159370000Y-82736500I-250000J0D01*
G01*
X158845000Y-82736500D01*
G75*
G02*
X158595000Y-82486500I0J250000D01*
G01*
G37*
G36*
G01*
X160420000Y-82486500D02*
X160420000Y-81586500D01*
G75*
G02*
X160670000Y-81336500I250000J0D01*
G01*
X161195000Y-81336500D01*
G75*
G02*
X161445000Y-81586500I0J-250000D01*
G01*
X161445000Y-82486500D01*
G75*
G02*
X161195000Y-82736500I-250000J0D01*
G01*
X160670000Y-82736500D01*
G75*
G02*
X160420000Y-82486500I0J250000D01*
G01*
G37*
G36*
G01*
X166312000Y-70513000D02*
X165412000Y-70513000D01*
G75*
G02*
X165162000Y-70263000I0J250000D01*
G01*
X165162000Y-69738000D01*
G75*
G02*
X165412000Y-69488000I250000J0D01*
G01*
X166312000Y-69488000D01*
G75*
G02*
X166562000Y-69738000I0J-250000D01*
G01*
X166562000Y-70263000D01*
G75*
G02*
X166312000Y-70513000I-250000J0D01*
G01*
G37*
G36*
G01*
X166312000Y-68688000D02*
X165412000Y-68688000D01*
G75*
G02*
X165162000Y-68438000I0J250000D01*
G01*
X165162000Y-67913000D01*
G75*
G02*
X165412000Y-67663000I250000J0D01*
G01*
X166312000Y-67663000D01*
G75*
G02*
X166562000Y-67913000I0J-250000D01*
G01*
X166562000Y-68438000D01*
G75*
G02*
X166312000Y-68688000I-250000J0D01*
G01*
G37*
G36*
G01*
X160820000Y-76172500D02*
X161120000Y-76172500D01*
G75*
G02*
X161270000Y-76322500I0J-150000D01*
G01*
X161270000Y-77347500D01*
G75*
G02*
X161120000Y-77497500I-150000J0D01*
G01*
X160820000Y-77497500D01*
G75*
G02*
X160670000Y-77347500I0J150000D01*
G01*
X160670000Y-76322500D01*
G75*
G02*
X160820000Y-76172500I150000J0D01*
G01*
G37*
G36*
G01*
X159870000Y-76172500D02*
X160170000Y-76172500D01*
G75*
G02*
X160320000Y-76322500I0J-150000D01*
G01*
X160320000Y-77347500D01*
G75*
G02*
X160170000Y-77497500I-150000J0D01*
G01*
X159870000Y-77497500D01*
G75*
G02*
X159720000Y-77347500I0J150000D01*
G01*
X159720000Y-76322500D01*
G75*
G02*
X159870000Y-76172500I150000J0D01*
G01*
G37*
G36*
G01*
X158920000Y-76172500D02*
X159220000Y-76172500D01*
G75*
G02*
X159370000Y-76322500I0J-150000D01*
G01*
X159370000Y-77347500D01*
G75*
G02*
X159220000Y-77497500I-150000J0D01*
G01*
X158920000Y-77497500D01*
G75*
G02*
X158770000Y-77347500I0J150000D01*
G01*
X158770000Y-76322500D01*
G75*
G02*
X158920000Y-76172500I150000J0D01*
G01*
G37*
G36*
G01*
X158920000Y-78447500D02*
X159220000Y-78447500D01*
G75*
G02*
X159370000Y-78597500I0J-150000D01*
G01*
X159370000Y-79622500D01*
G75*
G02*
X159220000Y-79772500I-150000J0D01*
G01*
X158920000Y-79772500D01*
G75*
G02*
X158770000Y-79622500I0J150000D01*
G01*
X158770000Y-78597500D01*
G75*
G02*
X158920000Y-78447500I150000J0D01*
G01*
G37*
G36*
G01*
X159870000Y-78447500D02*
X160170000Y-78447500D01*
G75*
G02*
X160320000Y-78597500I0J-150000D01*
G01*
X160320000Y-79622500D01*
G75*
G02*
X160170000Y-79772500I-150000J0D01*
G01*
X159870000Y-79772500D01*
G75*
G02*
X159720000Y-79622500I0J150000D01*
G01*
X159720000Y-78597500D01*
G75*
G02*
X159870000Y-78447500I150000J0D01*
G01*
G37*
G36*
G01*
X160820000Y-78447500D02*
X161120000Y-78447500D01*
G75*
G02*
X161270000Y-78597500I0J-150000D01*
G01*
X161270000Y-79622500D01*
G75*
G02*
X161120000Y-79772500I-150000J0D01*
G01*
X160820000Y-79772500D01*
G75*
G02*
X160670000Y-79622500I0J150000D01*
G01*
X160670000Y-78597500D01*
G75*
G02*
X160820000Y-78447500I150000J0D01*
G01*
G37*
G36*
G01*
X161770000Y-73094000D02*
X161770000Y-72194000D01*
G75*
G02*
X162020000Y-71944000I250000J0D01*
G01*
X162545000Y-71944000D01*
G75*
G02*
X162795000Y-72194000I0J-250000D01*
G01*
X162795000Y-73094000D01*
G75*
G02*
X162545000Y-73344000I-250000J0D01*
G01*
X162020000Y-73344000D01*
G75*
G02*
X161770000Y-73094000I0J250000D01*
G01*
G37*
G36*
G01*
X163595000Y-73094000D02*
X163595000Y-72194000D01*
G75*
G02*
X163845000Y-71944000I250000J0D01*
G01*
X164370000Y-71944000D01*
G75*
G02*
X164620000Y-72194000I0J-250000D01*
G01*
X164620000Y-73094000D01*
G75*
G02*
X164370000Y-73344000I-250000J0D01*
G01*
X163845000Y-73344000D01*
G75*
G02*
X163595000Y-73094000I0J250000D01*
G01*
G37*
D13*
X146768000Y-89622600D03*
X146268001Y-89622600D03*
X145767999Y-89622600D03*
X145268000Y-89622600D03*
X144768001Y-89622600D03*
X144268000Y-89622600D03*
X143768000Y-89622600D03*
X143267999Y-89622600D03*
X142768000Y-89622600D03*
X142268001Y-89622600D03*
X141767999Y-89622600D03*
X141268000Y-89622600D03*
D14*
X140565599Y-90575000D03*
X140565599Y-91074999D03*
X140565599Y-91575001D03*
X140565599Y-92075000D03*
X140565599Y-92574999D03*
X140565599Y-93075001D03*
X140565599Y-93575000D03*
D13*
X141268000Y-94527400D03*
X141767999Y-94527400D03*
X142268001Y-94527400D03*
X142768000Y-94527400D03*
X143267999Y-94527400D03*
X143768000Y-94527400D03*
X144268000Y-94527400D03*
X144768001Y-94527400D03*
X145268000Y-94527400D03*
X145767999Y-94527400D03*
X146268001Y-94527400D03*
X146768000Y-94527400D03*
D14*
X147470401Y-93575000D03*
X147470401Y-93075001D03*
X147470401Y-92574999D03*
X147470401Y-92075000D03*
X147470401Y-91575001D03*
X147470401Y-91074999D03*
X147470401Y-90575000D03*
D15*
X144018000Y-92075000D03*
G36*
G01*
X146124000Y-108552000D02*
X146124000Y-107602000D01*
G75*
G02*
X146374000Y-107352000I250000J0D01*
G01*
X146874000Y-107352000D01*
G75*
G02*
X147124000Y-107602000I0J-250000D01*
G01*
X147124000Y-108552000D01*
G75*
G02*
X146874000Y-108802000I-250000J0D01*
G01*
X146374000Y-108802000D01*
G75*
G02*
X146124000Y-108552000I0J250000D01*
G01*
G37*
G36*
G01*
X148024000Y-108552000D02*
X148024000Y-107602000D01*
G75*
G02*
X148274000Y-107352000I250000J0D01*
G01*
X148774000Y-107352000D01*
G75*
G02*
X149024000Y-107602000I0J-250000D01*
G01*
X149024000Y-108552000D01*
G75*
G02*
X148774000Y-108802000I-250000J0D01*
G01*
X148274000Y-108802000D01*
G75*
G02*
X148024000Y-108552000I0J250000D01*
G01*
G37*
G36*
G01*
X159742000Y-68288000D02*
X159742000Y-67988000D01*
G75*
G02*
X159892000Y-67838000I150000J0D01*
G01*
X161067000Y-67838000D01*
G75*
G02*
X161217000Y-67988000I0J-150000D01*
G01*
X161217000Y-68288000D01*
G75*
G02*
X161067000Y-68438000I-150000J0D01*
G01*
X159892000Y-68438000D01*
G75*
G02*
X159742000Y-68288000I0J150000D01*
G01*
G37*
G36*
G01*
X159742000Y-70188000D02*
X159742000Y-69888000D01*
G75*
G02*
X159892000Y-69738000I150000J0D01*
G01*
X161067000Y-69738000D01*
G75*
G02*
X161217000Y-69888000I0J-150000D01*
G01*
X161217000Y-70188000D01*
G75*
G02*
X161067000Y-70338000I-150000J0D01*
G01*
X159892000Y-70338000D01*
G75*
G02*
X159742000Y-70188000I0J150000D01*
G01*
G37*
G36*
G01*
X161617000Y-69238000D02*
X161617000Y-68938000D01*
G75*
G02*
X161767000Y-68788000I150000J0D01*
G01*
X162942000Y-68788000D01*
G75*
G02*
X163092000Y-68938000I0J-150000D01*
G01*
X163092000Y-69238000D01*
G75*
G02*
X162942000Y-69388000I-150000J0D01*
G01*
X161767000Y-69388000D01*
G75*
G02*
X161617000Y-69238000I0J150000D01*
G01*
G37*
G36*
G01*
X164051000Y-79422500D02*
X163101000Y-79422500D01*
G75*
G02*
X162851000Y-79172500I0J250000D01*
G01*
X162851000Y-78672500D01*
G75*
G02*
X163101000Y-78422500I250000J0D01*
G01*
X164051000Y-78422500D01*
G75*
G02*
X164301000Y-78672500I0J-250000D01*
G01*
X164301000Y-79172500D01*
G75*
G02*
X164051000Y-79422500I-250000J0D01*
G01*
G37*
G36*
G01*
X164051000Y-77522500D02*
X163101000Y-77522500D01*
G75*
G02*
X162851000Y-77272500I0J250000D01*
G01*
X162851000Y-76772500D01*
G75*
G02*
X163101000Y-76522500I250000J0D01*
G01*
X164051000Y-76522500D01*
G75*
G02*
X164301000Y-76772500I0J-250000D01*
G01*
X164301000Y-77272500D01*
G75*
G02*
X164051000Y-77522500I-250000J0D01*
G01*
G37*
D16*
X149819995Y-70104000D03*
D17*
X144819995Y-70104000D03*
G36*
G01*
X158595000Y-85280500D02*
X158595000Y-84380500D01*
G75*
G02*
X158845000Y-84130500I250000J0D01*
G01*
X159370000Y-84130500D01*
G75*
G02*
X159620000Y-84380500I0J-250000D01*
G01*
X159620000Y-85280500D01*
G75*
G02*
X159370000Y-85530500I-250000J0D01*
G01*
X158845000Y-85530500D01*
G75*
G02*
X158595000Y-85280500I0J250000D01*
G01*
G37*
G36*
G01*
X160420000Y-85280500D02*
X160420000Y-84380500D01*
G75*
G02*
X160670000Y-84130500I250000J0D01*
G01*
X161195000Y-84130500D01*
G75*
G02*
X161445000Y-84380500I0J-250000D01*
G01*
X161445000Y-85280500D01*
G75*
G02*
X161195000Y-85530500I-250000J0D01*
G01*
X160670000Y-85530500D01*
G75*
G02*
X160420000Y-85280500I0J250000D01*
G01*
G37*
G36*
G01*
X158057000Y-70513000D02*
X157157000Y-70513000D01*
G75*
G02*
X156907000Y-70263000I0J250000D01*
G01*
X156907000Y-69738000D01*
G75*
G02*
X157157000Y-69488000I250000J0D01*
G01*
X158057000Y-69488000D01*
G75*
G02*
X158307000Y-69738000I0J-250000D01*
G01*
X158307000Y-70263000D01*
G75*
G02*
X158057000Y-70513000I-250000J0D01*
G01*
G37*
G36*
G01*
X158057000Y-68688000D02*
X157157000Y-68688000D01*
G75*
G02*
X156907000Y-68438000I0J250000D01*
G01*
X156907000Y-67913000D01*
G75*
G02*
X157157000Y-67663000I250000J0D01*
G01*
X158057000Y-67663000D01*
G75*
G02*
X158307000Y-67913000I0J-250000D01*
G01*
X158307000Y-68438000D01*
G75*
G02*
X158057000Y-68688000I-250000J0D01*
G01*
G37*
G36*
G01*
X128999000Y-110035000D02*
X128049000Y-110035000D01*
G75*
G02*
X127799000Y-109785000I0J250000D01*
G01*
X127799000Y-109285000D01*
G75*
G02*
X128049000Y-109035000I250000J0D01*
G01*
X128999000Y-109035000D01*
G75*
G02*
X129249000Y-109285000I0J-250000D01*
G01*
X129249000Y-109785000D01*
G75*
G02*
X128999000Y-110035000I-250000J0D01*
G01*
G37*
G36*
G01*
X128999000Y-108135000D02*
X128049000Y-108135000D01*
G75*
G02*
X127799000Y-107885000I0J250000D01*
G01*
X127799000Y-107385000D01*
G75*
G02*
X128049000Y-107135000I250000J0D01*
G01*
X128999000Y-107135000D01*
G75*
G02*
X129249000Y-107385000I0J-250000D01*
G01*
X129249000Y-107885000D01*
G75*
G02*
X128999000Y-108135000I-250000J0D01*
G01*
G37*
D18*
X155842000Y-103124000D03*
X155842000Y-105664000D03*
X155842000Y-108204000D03*
X155842000Y-110744000D03*
X155842000Y-113284000D03*
X155842000Y-115824000D03*
X155842000Y-118364000D03*
X155842000Y-120904000D03*
X164452000Y-120904000D03*
X164452000Y-118364000D03*
X164452000Y-115824000D03*
X164452000Y-113284000D03*
X164452000Y-110744000D03*
X164452000Y-108204000D03*
X164452000Y-105664000D03*
X164452000Y-103124000D03*
D19*
X139700000Y-69977000D03*
D20*
X137160000Y-69977000D03*
X134620000Y-69977000D03*
X132080000Y-69977000D03*
X129540000Y-69977000D03*
X127000000Y-69977000D03*
X124460000Y-69977000D03*
X121920000Y-69977000D03*
D21*
X134088000Y-109767500D03*
G36*
X131663000Y-113717500D02*
G01*
X131663000Y-111117500D01*
X132188000Y-110592500D01*
X132188000Y-109117500D01*
X132988000Y-109117500D01*
X132988000Y-110592500D01*
X133513000Y-111117500D01*
X133513000Y-113717500D01*
X131663000Y-113717500D01*
G37*
X131088000Y-109767500D03*
G36*
G01*
X162024000Y-90366000D02*
X162024000Y-89466000D01*
G75*
G02*
X162274000Y-89216000I250000J0D01*
G01*
X162799000Y-89216000D01*
G75*
G02*
X163049000Y-89466000I0J-250000D01*
G01*
X163049000Y-90366000D01*
G75*
G02*
X162799000Y-90616000I-250000J0D01*
G01*
X162274000Y-90616000D01*
G75*
G02*
X162024000Y-90366000I0J250000D01*
G01*
G37*
G36*
G01*
X163849000Y-90366000D02*
X163849000Y-89466000D01*
G75*
G02*
X164099000Y-89216000I250000J0D01*
G01*
X164624000Y-89216000D01*
G75*
G02*
X164874000Y-89466000I0J-250000D01*
G01*
X164874000Y-90366000D01*
G75*
G02*
X164624000Y-90616000I-250000J0D01*
G01*
X164099000Y-90616000D01*
G75*
G02*
X163849000Y-90366000I0J250000D01*
G01*
G37*
G36*
G01*
X134013000Y-118923750D02*
X134013000Y-119836250D01*
G75*
G02*
X133769250Y-120080000I-243750J0D01*
G01*
X133281750Y-120080000D01*
G75*
G02*
X133038000Y-119836250I0J243750D01*
G01*
X133038000Y-118923750D01*
G75*
G02*
X133281750Y-118680000I243750J0D01*
G01*
X133769250Y-118680000D01*
G75*
G02*
X134013000Y-118923750I0J-243750D01*
G01*
G37*
G36*
G01*
X132138000Y-118923750D02*
X132138000Y-119836250D01*
G75*
G02*
X131894250Y-120080000I-243750J0D01*
G01*
X131406750Y-120080000D01*
G75*
G02*
X131163000Y-119836250I0J243750D01*
G01*
X131163000Y-118923750D01*
G75*
G02*
X131406750Y-118680000I243750J0D01*
G01*
X131894250Y-118680000D01*
G75*
G02*
X132138000Y-118923750I0J-243750D01*
G01*
G37*
G36*
G01*
X149374000Y-105448000D02*
X149374000Y-105748000D01*
G75*
G02*
X149224000Y-105898000I-150000J0D01*
G01*
X148199000Y-105898000D01*
G75*
G02*
X148049000Y-105748000I0J150000D01*
G01*
X148049000Y-105448000D01*
G75*
G02*
X148199000Y-105298000I150000J0D01*
G01*
X149224000Y-105298000D01*
G75*
G02*
X149374000Y-105448000I0J-150000D01*
G01*
G37*
G36*
G01*
X149374000Y-104498000D02*
X149374000Y-104798000D01*
G75*
G02*
X149224000Y-104948000I-150000J0D01*
G01*
X148199000Y-104948000D01*
G75*
G02*
X148049000Y-104798000I0J150000D01*
G01*
X148049000Y-104498000D01*
G75*
G02*
X148199000Y-104348000I150000J0D01*
G01*
X149224000Y-104348000D01*
G75*
G02*
X149374000Y-104498000I0J-150000D01*
G01*
G37*
G36*
G01*
X149374000Y-103548000D02*
X149374000Y-103848000D01*
G75*
G02*
X149224000Y-103998000I-150000J0D01*
G01*
X148199000Y-103998000D01*
G75*
G02*
X148049000Y-103848000I0J150000D01*
G01*
X148049000Y-103548000D01*
G75*
G02*
X148199000Y-103398000I150000J0D01*
G01*
X149224000Y-103398000D01*
G75*
G02*
X149374000Y-103548000I0J-150000D01*
G01*
G37*
G36*
G01*
X147099000Y-103548000D02*
X147099000Y-103848000D01*
G75*
G02*
X146949000Y-103998000I-150000J0D01*
G01*
X145924000Y-103998000D01*
G75*
G02*
X145774000Y-103848000I0J150000D01*
G01*
X145774000Y-103548000D01*
G75*
G02*
X145924000Y-103398000I150000J0D01*
G01*
X146949000Y-103398000D01*
G75*
G02*
X147099000Y-103548000I0J-150000D01*
G01*
G37*
G36*
G01*
X147099000Y-104498000D02*
X147099000Y-104798000D01*
G75*
G02*
X146949000Y-104948000I-150000J0D01*
G01*
X145924000Y-104948000D01*
G75*
G02*
X145774000Y-104798000I0J150000D01*
G01*
X145774000Y-104498000D01*
G75*
G02*
X145924000Y-104348000I150000J0D01*
G01*
X146949000Y-104348000D01*
G75*
G02*
X147099000Y-104498000I0J-150000D01*
G01*
G37*
G36*
G01*
X147099000Y-105448000D02*
X147099000Y-105748000D01*
G75*
G02*
X146949000Y-105898000I-150000J0D01*
G01*
X145924000Y-105898000D01*
G75*
G02*
X145774000Y-105748000I0J150000D01*
G01*
X145774000Y-105448000D01*
G75*
G02*
X145924000Y-105298000I150000J0D01*
G01*
X146949000Y-105298000D01*
G75*
G02*
X147099000Y-105448000I0J-150000D01*
G01*
G37*
G36*
G01*
X131163000Y-117036000D02*
X131163000Y-116136000D01*
G75*
G02*
X131413000Y-115886000I250000J0D01*
G01*
X131938000Y-115886000D01*
G75*
G02*
X132188000Y-116136000I0J-250000D01*
G01*
X132188000Y-117036000D01*
G75*
G02*
X131938000Y-117286000I-250000J0D01*
G01*
X131413000Y-117286000D01*
G75*
G02*
X131163000Y-117036000I0J250000D01*
G01*
G37*
G36*
G01*
X132988000Y-117036000D02*
X132988000Y-116136000D01*
G75*
G02*
X133238000Y-115886000I250000J0D01*
G01*
X133763000Y-115886000D01*
G75*
G02*
X134013000Y-116136000I0J-250000D01*
G01*
X134013000Y-117036000D01*
G75*
G02*
X133763000Y-117286000I-250000J0D01*
G01*
X133238000Y-117286000D01*
G75*
G02*
X132988000Y-117036000I0J250000D01*
G01*
G37*
G36*
G01*
X162024000Y-95954000D02*
X162024000Y-95054000D01*
G75*
G02*
X162274000Y-94804000I250000J0D01*
G01*
X162799000Y-94804000D01*
G75*
G02*
X163049000Y-95054000I0J-250000D01*
G01*
X163049000Y-95954000D01*
G75*
G02*
X162799000Y-96204000I-250000J0D01*
G01*
X162274000Y-96204000D01*
G75*
G02*
X162024000Y-95954000I0J250000D01*
G01*
G37*
G36*
G01*
X163849000Y-95954000D02*
X163849000Y-95054000D01*
G75*
G02*
X164099000Y-94804000I250000J0D01*
G01*
X164624000Y-94804000D01*
G75*
G02*
X164874000Y-95054000I0J-250000D01*
G01*
X164874000Y-95954000D01*
G75*
G02*
X164624000Y-96204000I-250000J0D01*
G01*
X164099000Y-96204000D01*
G75*
G02*
X163849000Y-95954000I0J250000D01*
G01*
G37*
G36*
G01*
X167997000Y-68288000D02*
X167997000Y-67988000D01*
G75*
G02*
X168147000Y-67838000I150000J0D01*
G01*
X169322000Y-67838000D01*
G75*
G02*
X169472000Y-67988000I0J-150000D01*
G01*
X169472000Y-68288000D01*
G75*
G02*
X169322000Y-68438000I-150000J0D01*
G01*
X168147000Y-68438000D01*
G75*
G02*
X167997000Y-68288000I0J150000D01*
G01*
G37*
G36*
G01*
X167997000Y-70188000D02*
X167997000Y-69888000D01*
G75*
G02*
X168147000Y-69738000I150000J0D01*
G01*
X169322000Y-69738000D01*
G75*
G02*
X169472000Y-69888000I0J-150000D01*
G01*
X169472000Y-70188000D01*
G75*
G02*
X169322000Y-70338000I-150000J0D01*
G01*
X168147000Y-70338000D01*
G75*
G02*
X167997000Y-70188000I0J150000D01*
G01*
G37*
G36*
G01*
X169872000Y-69238000D02*
X169872000Y-68938000D01*
G75*
G02*
X170022000Y-68788000I150000J0D01*
G01*
X171197000Y-68788000D01*
G75*
G02*
X171347000Y-68938000I0J-150000D01*
G01*
X171347000Y-69238000D01*
G75*
G02*
X171197000Y-69388000I-150000J0D01*
G01*
X170022000Y-69388000D01*
G75*
G02*
X169872000Y-69238000I0J150000D01*
G01*
G37*
D19*
X132334000Y-126873000D03*
D20*
X134874000Y-126873000D03*
X137414000Y-126873000D03*
X139954000Y-126873000D03*
X142494000Y-126873000D03*
X145034000Y-126873000D03*
X147574000Y-126873000D03*
X150114000Y-126873000D03*
G36*
G01*
X145651000Y-98723000D02*
X145651000Y-97873000D01*
G75*
G02*
X145901000Y-97623000I250000J0D01*
G01*
X146801000Y-97623000D01*
G75*
G02*
X147051000Y-97873000I0J-250000D01*
G01*
X147051000Y-98723000D01*
G75*
G02*
X146801000Y-98973000I-250000J0D01*
G01*
X145901000Y-98973000D01*
G75*
G02*
X145651000Y-98723000I0J250000D01*
G01*
G37*
G36*
G01*
X148351000Y-98723000D02*
X148351000Y-97873000D01*
G75*
G02*
X148601000Y-97623000I250000J0D01*
G01*
X149501000Y-97623000D01*
G75*
G02*
X149751000Y-97873000I0J-250000D01*
G01*
X149751000Y-98723000D01*
G75*
G02*
X149501000Y-98973000I-250000J0D01*
G01*
X148601000Y-98973000D01*
G75*
G02*
X148351000Y-98723000I0J250000D01*
G01*
G37*
G36*
G01*
X171097000Y-72194000D02*
X171097000Y-73094000D01*
G75*
G02*
X170847000Y-73344000I-250000J0D01*
G01*
X170322000Y-73344000D01*
G75*
G02*
X170072000Y-73094000I0J250000D01*
G01*
X170072000Y-72194000D01*
G75*
G02*
X170322000Y-71944000I250000J0D01*
G01*
X170847000Y-71944000D01*
G75*
G02*
X171097000Y-72194000I0J-250000D01*
G01*
G37*
G36*
G01*
X169272000Y-72194000D02*
X169272000Y-73094000D01*
G75*
G02*
X169022000Y-73344000I-250000J0D01*
G01*
X168497000Y-73344000D01*
G75*
G02*
X168247000Y-73094000I0J250000D01*
G01*
X168247000Y-72194000D01*
G75*
G02*
X168497000Y-71944000I250000J0D01*
G01*
X169022000Y-71944000D01*
G75*
G02*
X169272000Y-72194000I0J-250000D01*
G01*
G37*
G36*
G01*
X128049000Y-102055000D02*
X128999000Y-102055000D01*
G75*
G02*
X129249000Y-102305000I0J-250000D01*
G01*
X129249000Y-102805000D01*
G75*
G02*
X128999000Y-103055000I-250000J0D01*
G01*
X128049000Y-103055000D01*
G75*
G02*
X127799000Y-102805000I0J250000D01*
G01*
X127799000Y-102305000D01*
G75*
G02*
X128049000Y-102055000I250000J0D01*
G01*
G37*
G36*
G01*
X128049000Y-103955000D02*
X128999000Y-103955000D01*
G75*
G02*
X129249000Y-104205000I0J-250000D01*
G01*
X129249000Y-104705000D01*
G75*
G02*
X128999000Y-104955000I-250000J0D01*
G01*
X128049000Y-104955000D01*
G75*
G02*
X127799000Y-104705000I0J250000D01*
G01*
X127799000Y-104205000D01*
G75*
G02*
X128049000Y-103955000I250000J0D01*
G01*
G37*
G36*
G01*
X146124000Y-101821000D02*
X146124000Y-100871000D01*
G75*
G02*
X146374000Y-100621000I250000J0D01*
G01*
X146874000Y-100621000D01*
G75*
G02*
X147124000Y-100871000I0J-250000D01*
G01*
X147124000Y-101821000D01*
G75*
G02*
X146874000Y-102071000I-250000J0D01*
G01*
X146374000Y-102071000D01*
G75*
G02*
X146124000Y-101821000I0J250000D01*
G01*
G37*
G36*
G01*
X148024000Y-101821000D02*
X148024000Y-100871000D01*
G75*
G02*
X148274000Y-100621000I250000J0D01*
G01*
X148774000Y-100621000D01*
G75*
G02*
X149024000Y-100871000I0J-250000D01*
G01*
X149024000Y-101821000D01*
G75*
G02*
X148774000Y-102071000I-250000J0D01*
G01*
X148274000Y-102071000D01*
G75*
G02*
X148024000Y-101821000I0J250000D01*
G01*
G37*
G36*
G01*
X134800000Y-106332000D02*
X134800000Y-107282000D01*
G75*
G02*
X134550000Y-107532000I-250000J0D01*
G01*
X134050000Y-107532000D01*
G75*
G02*
X133800000Y-107282000I0J250000D01*
G01*
X133800000Y-106332000D01*
G75*
G02*
X134050000Y-106082000I250000J0D01*
G01*
X134550000Y-106082000D01*
G75*
G02*
X134800000Y-106332000I0J-250000D01*
G01*
G37*
G36*
G01*
X132900000Y-106332000D02*
X132900000Y-107282000D01*
G75*
G02*
X132650000Y-107532000I-250000J0D01*
G01*
X132150000Y-107532000D01*
G75*
G02*
X131900000Y-107282000I0J250000D01*
G01*
X131900000Y-106332000D01*
G75*
G02*
X132150000Y-106082000I250000J0D01*
G01*
X132650000Y-106082000D01*
G75*
G02*
X132900000Y-106332000I0J-250000D01*
G01*
G37*
G36*
G01*
X162024000Y-93160000D02*
X162024000Y-92260000D01*
G75*
G02*
X162274000Y-92010000I250000J0D01*
G01*
X162799000Y-92010000D01*
G75*
G02*
X163049000Y-92260000I0J-250000D01*
G01*
X163049000Y-93160000D01*
G75*
G02*
X162799000Y-93410000I-250000J0D01*
G01*
X162274000Y-93410000D01*
G75*
G02*
X162024000Y-93160000I0J250000D01*
G01*
G37*
G36*
G01*
X163849000Y-93160000D02*
X163849000Y-92260000D01*
G75*
G02*
X164099000Y-92010000I250000J0D01*
G01*
X164624000Y-92010000D01*
G75*
G02*
X164874000Y-92260000I0J-250000D01*
G01*
X164874000Y-93160000D01*
G75*
G02*
X164624000Y-93410000I-250000J0D01*
G01*
X164099000Y-93410000D01*
G75*
G02*
X163849000Y-93160000I0J250000D01*
G01*
G37*
M02*
