M48
INCH,TZ
T1C0.0157
T2C0.0400
T3C0.0433
T4C0.0512
T5C0.1200
%
G90
G05
T1
X52450Y-40450
X52450Y-40750
X52550Y-38150
X52550Y-38500
X52550Y-38850
X52550Y-47600
X52750Y-40450
X52750Y-40750
X53050Y-40450
X53050Y-40750
X53160Y-43200
X56600Y-37850
X56600Y-38200
X56600Y-38550
X56600Y-38900
X56600Y-39250
X56600Y-40300
X56600Y-40650
X56900Y-37850
X56900Y-38200
X56900Y-38550
X56900Y-38900
X56900Y-39250
X56900Y-40300
X56900Y-40650
X57300Y-34500
X57300Y-37850
X57400Y-41950
X57650Y-37850
X58550Y-41950
X59100Y-36400
X59100Y-36750
X59100Y-37100
X59100Y-37450
X59100Y-37800
X59100Y-38150
X59100Y-39100
X59100Y-39450
X59100Y-40300
X59100Y-40650
X59100Y-41000
X59100Y-41350
X59100Y-41700
X59100Y-42050
X59100Y-42400
X59100Y-42750
X63000Y-29650
X63200Y-28200
X63350Y-34250
X63700Y-34250
X63850Y-30300
X65400Y-29300
X65400Y-29900
X65700Y-41100
X65700Y-48750
X66250Y-28000
T2
X48100Y-36250
X48100Y-37250
X48100Y-38250
X48100Y-39250
X48100Y-40250
X48100Y-41250
X48100Y-42250
X48100Y-43250
X48100Y-45250
X48100Y-46250
X48100Y-47250
X48100Y-48250
X48100Y-49250
X48100Y-50250
X67100Y-32650
X67100Y-33650
X67100Y-34650
X67100Y-35650
X67100Y-36650
X67100Y-37650
X67100Y-38650
X67100Y-39650
X67100Y-40650
X67100Y-41650
X67100Y-43250
X67100Y-44250
X67100Y-45250
X67100Y-46250
X67100Y-47250
X67100Y-48250
X67100Y-49250
X67100Y-50250
T3
X48000Y-27550
X49000Y-27550
X50000Y-27550
X51000Y-27550
X52000Y-27550
X52100Y-49950
X53000Y-27550
X53100Y-49950
X54000Y-27550
X54100Y-49950
X55000Y-27550
X55100Y-49950
X56100Y-49950
X57100Y-49950
X58100Y-49950
X59100Y-49950
T4
X57016Y-27600
X58984Y-27600
T5
X48100Y-30750
X50100Y-51250
X61100Y-51250
X67100Y-31250
T0
M30
