G04 start of page 8 for group -4062 idx -4062 *
G04 Title: (unknown), soldermask *
G04 Creator: pcb 20140316 *
G04 CreationDate: Mon 26 Dec 2016 03:50:00 AM GMT UTC *
G04 For: railfan *
G04 Format: Gerber/RS-274X *
G04 PCB-Dimensions (mil): 2100.00 2700.00 *
G04 PCB-Coordinate-Origin: lower left *
%MOIN*%
%FSLAX25Y25*%
%LNBOTTOMMASK*%
%ADD69C,0.0730*%
%ADD68C,0.1560*%
%ADD67C,0.0660*%
%ADD66C,0.0740*%
%ADD65C,0.0001*%
G54D65*G36*
X196300Y23700D02*Y16300D01*
X203700D01*
Y23700D01*
X196300D01*
G37*
G54D66*X200000Y30000D03*
Y40000D03*
Y70000D03*
X10000Y130000D03*
Y120000D03*
Y110000D03*
Y100000D03*
G54D67*X70000Y135000D03*
G54D65*G36*
X6300Y163700D02*Y156300D01*
X13700D01*
Y163700D01*
X6300D01*
G37*
G54D66*X10000Y150000D03*
Y140000D03*
Y90000D03*
X200000Y80000D03*
Y90000D03*
Y106000D03*
Y116000D03*
Y126000D03*
Y136000D03*
Y146000D03*
Y156000D03*
Y166000D03*
Y176000D03*
Y186000D03*
Y196000D03*
G54D68*Y210000D03*
G54D66*Y50000D03*
G54D67*X128500D03*
X148500D03*
X168500D03*
G54D66*X200000Y60000D03*
G54D67*X128500D03*
X148500D03*
X168500D03*
G54D68*X140000Y10000D03*
G54D67*X145000Y133500D03*
X155000D03*
X165000D03*
X175000D03*
G54D69*X132450Y29500D03*
X160550D03*
G54D67*X128500Y70000D03*
Y80000D03*
X148500Y70000D03*
Y80000D03*
X168500Y70000D03*
Y80000D03*
X120000Y23000D03*
X110000D03*
X100000D03*
X90000D03*
X80000D03*
G54D68*X10000Y215000D03*
G54D67*X117500Y247000D03*
X79000D03*
X69000D03*
X59000D03*
X49000D03*
X39000D03*
X29000D03*
X19000D03*
X9000D03*
G54D66*X10000Y70000D03*
Y60000D03*
Y50000D03*
Y40000D03*
Y30000D03*
Y20000D03*
G54D68*X30000Y10000D03*
G54D67*X70000Y23000D03*
X60000D03*
X50000D03*
M02*
