G04 start of page 3 for group 1 idx 1 *
G04 Title: (unknown), solder *
G04 Creator: pcb 20140316 *
G04 CreationDate: Mon 26 Dec 2016 03:50:00 AM GMT UTC *
G04 For: railfan *
G04 Format: Gerber/RS-274X *
G04 PCB-Dimensions (mil): 2100.00 2700.00 *
G04 PCB-Coordinate-Origin: lower left *
%MOIN*%
%FSLAX25Y25*%
%LNBOTTOM*%
%ADD44C,0.0630*%
%ADD43C,0.1285*%
%ADD42C,0.0420*%
%ADD41C,0.0380*%
%ADD40C,0.0200*%
%ADD39C,0.0400*%
%ADD38C,0.1500*%
%ADD37C,0.0600*%
%ADD36C,0.0680*%
%ADD35C,0.0100*%
%ADD34C,0.0300*%
%ADD33C,0.0001*%
G54D33*G36*
X200000Y201474D02*X201334Y201579D01*
X202635Y201891D01*
X203871Y202403D01*
X205012Y203102D01*
X206029Y203971D01*
X206898Y204988D01*
X207500Y205971D01*
Y12500D01*
X200000D01*
Y15107D01*
X203635Y15114D01*
X203865Y15169D01*
X204083Y15259D01*
X204284Y15383D01*
X204464Y15536D01*
X204617Y15716D01*
X204741Y15917D01*
X204831Y16135D01*
X204886Y16365D01*
X204900Y16600D01*
X204886Y23635D01*
X204831Y23865D01*
X204741Y24083D01*
X204617Y24284D01*
X204464Y24464D01*
X204284Y24617D01*
X204083Y24741D01*
X203865Y24831D01*
X203635Y24886D01*
X203400Y24900D01*
X200000Y24893D01*
Y25085D01*
X200769Y25145D01*
X201519Y25325D01*
X202231Y25621D01*
X202889Y26024D01*
X203476Y26524D01*
X203976Y27111D01*
X204379Y27769D01*
X204675Y28481D01*
X204855Y29231D01*
X204900Y30000D01*
X204855Y30769D01*
X204675Y31519D01*
X204379Y32231D01*
X203976Y32889D01*
X203476Y33476D01*
X202889Y33976D01*
X202231Y34379D01*
X201519Y34675D01*
X200769Y34855D01*
X200000Y34915D01*
Y35085D01*
X200769Y35145D01*
X201519Y35325D01*
X202231Y35621D01*
X202889Y36024D01*
X203476Y36524D01*
X203976Y37111D01*
X204379Y37769D01*
X204675Y38481D01*
X204855Y39231D01*
X204900Y40000D01*
X204855Y40769D01*
X204675Y41519D01*
X204379Y42231D01*
X203976Y42889D01*
X203476Y43476D01*
X202889Y43976D01*
X202231Y44379D01*
X201519Y44675D01*
X200769Y44855D01*
X200000Y44915D01*
Y45085D01*
X200769Y45145D01*
X201519Y45325D01*
X202231Y45621D01*
X202889Y46024D01*
X203476Y46524D01*
X203976Y47111D01*
X204379Y47769D01*
X204675Y48481D01*
X204855Y49231D01*
X204900Y50000D01*
X204855Y50769D01*
X204675Y51519D01*
X204379Y52231D01*
X203976Y52889D01*
X203476Y53476D01*
X202889Y53976D01*
X202231Y54379D01*
X201519Y54675D01*
X200769Y54855D01*
X200000Y54915D01*
Y55085D01*
X200769Y55145D01*
X201519Y55325D01*
X202231Y55621D01*
X202889Y56024D01*
X203476Y56524D01*
X203976Y57111D01*
X204379Y57769D01*
X204675Y58481D01*
X204855Y59231D01*
X204900Y60000D01*
X204855Y60769D01*
X204675Y61519D01*
X204379Y62231D01*
X203976Y62889D01*
X203476Y63476D01*
X202889Y63976D01*
X202231Y64379D01*
X201519Y64675D01*
X200769Y64855D01*
X200000Y64915D01*
Y65085D01*
X200769Y65145D01*
X201519Y65325D01*
X202231Y65621D01*
X202889Y66024D01*
X203476Y66524D01*
X203976Y67111D01*
X204379Y67769D01*
X204675Y68481D01*
X204855Y69231D01*
X204900Y70000D01*
X204855Y70769D01*
X204675Y71519D01*
X204379Y72231D01*
X203976Y72889D01*
X203476Y73476D01*
X202889Y73976D01*
X202231Y74379D01*
X201519Y74675D01*
X200769Y74855D01*
X200000Y74915D01*
Y75085D01*
X200769Y75145D01*
X201519Y75325D01*
X202231Y75621D01*
X202889Y76024D01*
X203476Y76524D01*
X203976Y77111D01*
X204379Y77769D01*
X204675Y78481D01*
X204855Y79231D01*
X204900Y80000D01*
X204855Y80769D01*
X204675Y81519D01*
X204379Y82231D01*
X203976Y82889D01*
X203476Y83476D01*
X202889Y83976D01*
X202231Y84379D01*
X201519Y84675D01*
X200769Y84855D01*
X200000Y84915D01*
Y85085D01*
X200769Y85145D01*
X201519Y85325D01*
X202231Y85621D01*
X202889Y86024D01*
X203476Y86524D01*
X203976Y87111D01*
X204379Y87769D01*
X204675Y88481D01*
X204855Y89231D01*
X204900Y90000D01*
X204855Y90769D01*
X204675Y91519D01*
X204379Y92231D01*
X203976Y92889D01*
X203476Y93476D01*
X202889Y93976D01*
X202231Y94379D01*
X201519Y94675D01*
X200769Y94855D01*
X200000Y94915D01*
Y101085D01*
X200769Y101145D01*
X201519Y101325D01*
X202231Y101621D01*
X202889Y102024D01*
X203476Y102524D01*
X203976Y103111D01*
X204379Y103769D01*
X204675Y104481D01*
X204855Y105231D01*
X204900Y106000D01*
X204855Y106769D01*
X204675Y107519D01*
X204379Y108231D01*
X203976Y108889D01*
X203476Y109476D01*
X202889Y109976D01*
X202231Y110379D01*
X201519Y110675D01*
X200769Y110855D01*
X200000Y110915D01*
Y111085D01*
X200769Y111145D01*
X201519Y111325D01*
X202231Y111621D01*
X202889Y112024D01*
X203476Y112524D01*
X203976Y113111D01*
X204379Y113769D01*
X204675Y114481D01*
X204855Y115231D01*
X204900Y116000D01*
X204855Y116769D01*
X204675Y117519D01*
X204379Y118231D01*
X203976Y118889D01*
X203476Y119476D01*
X202889Y119976D01*
X202231Y120379D01*
X201519Y120675D01*
X200769Y120855D01*
X200000Y120915D01*
Y121085D01*
X200769Y121145D01*
X201519Y121325D01*
X202231Y121621D01*
X202889Y122024D01*
X203476Y122524D01*
X203976Y123111D01*
X204379Y123769D01*
X204675Y124481D01*
X204855Y125231D01*
X204900Y126000D01*
X204855Y126769D01*
X204675Y127519D01*
X204379Y128231D01*
X203976Y128889D01*
X203476Y129476D01*
X202889Y129976D01*
X202231Y130379D01*
X201519Y130675D01*
X200769Y130855D01*
X200000Y130915D01*
Y131085D01*
X200769Y131145D01*
X201519Y131325D01*
X202231Y131621D01*
X202889Y132024D01*
X203476Y132524D01*
X203976Y133111D01*
X204379Y133769D01*
X204675Y134481D01*
X204855Y135231D01*
X204900Y136000D01*
X204855Y136769D01*
X204675Y137519D01*
X204379Y138231D01*
X203976Y138889D01*
X203476Y139476D01*
X202889Y139976D01*
X202231Y140379D01*
X201519Y140675D01*
X200769Y140855D01*
X200000Y140915D01*
Y141085D01*
X200769Y141145D01*
X201519Y141325D01*
X202231Y141621D01*
X202889Y142024D01*
X203476Y142524D01*
X203976Y143111D01*
X204379Y143769D01*
X204675Y144481D01*
X204855Y145231D01*
X204900Y146000D01*
X204855Y146769D01*
X204675Y147519D01*
X204379Y148231D01*
X203976Y148889D01*
X203476Y149476D01*
X202889Y149976D01*
X202231Y150379D01*
X201519Y150675D01*
X200769Y150855D01*
X200000Y150915D01*
Y151085D01*
X200769Y151145D01*
X201519Y151325D01*
X202231Y151621D01*
X202889Y152024D01*
X203476Y152524D01*
X203976Y153111D01*
X204379Y153769D01*
X204675Y154481D01*
X204855Y155231D01*
X204900Y156000D01*
X204855Y156769D01*
X204675Y157519D01*
X204379Y158231D01*
X203976Y158889D01*
X203476Y159476D01*
X202889Y159976D01*
X202231Y160379D01*
X201519Y160675D01*
X200769Y160855D01*
X200000Y160915D01*
Y161085D01*
X200769Y161145D01*
X201519Y161325D01*
X202231Y161621D01*
X202889Y162024D01*
X203476Y162524D01*
X203976Y163111D01*
X204379Y163769D01*
X204675Y164481D01*
X204855Y165231D01*
X204900Y166000D01*
X204855Y166769D01*
X204675Y167519D01*
X204379Y168231D01*
X203976Y168889D01*
X203476Y169476D01*
X202889Y169976D01*
X202231Y170379D01*
X201519Y170675D01*
X200769Y170855D01*
X200000Y170915D01*
Y171085D01*
X200769Y171145D01*
X201519Y171325D01*
X202231Y171621D01*
X202889Y172024D01*
X203476Y172524D01*
X203976Y173111D01*
X204379Y173769D01*
X204675Y174481D01*
X204855Y175231D01*
X204900Y176000D01*
X204855Y176769D01*
X204675Y177519D01*
X204379Y178231D01*
X203976Y178889D01*
X203476Y179476D01*
X202889Y179976D01*
X202231Y180379D01*
X201519Y180675D01*
X200769Y180855D01*
X200000Y180915D01*
Y181085D01*
X200769Y181145D01*
X201519Y181325D01*
X202231Y181621D01*
X202889Y182024D01*
X203476Y182524D01*
X203976Y183111D01*
X204379Y183769D01*
X204675Y184481D01*
X204855Y185231D01*
X204900Y186000D01*
X204855Y186769D01*
X204675Y187519D01*
X204379Y188231D01*
X203976Y188889D01*
X203476Y189476D01*
X202889Y189976D01*
X202231Y190379D01*
X201519Y190675D01*
X200769Y190855D01*
X200000Y190915D01*
Y191085D01*
X200769Y191145D01*
X201519Y191325D01*
X202231Y191621D01*
X202889Y192024D01*
X203476Y192524D01*
X203976Y193111D01*
X204379Y193769D01*
X204675Y194481D01*
X204855Y195231D01*
X204900Y196000D01*
X204855Y196769D01*
X204675Y197519D01*
X204379Y198231D01*
X203976Y198889D01*
X203476Y199476D01*
X202889Y199976D01*
X202231Y200379D01*
X201519Y200675D01*
X200769Y200855D01*
X200000Y200915D01*
Y201474D01*
G37*
G36*
Y267500D02*X207500D01*
Y214029D01*
X206898Y215012D01*
X206029Y216029D01*
X205012Y216898D01*
X203871Y217597D01*
X202635Y218109D01*
X201334Y218421D01*
X200000Y218526D01*
Y267500D01*
G37*
G36*
X174993D02*X200000D01*
Y218526D01*
X198666Y218421D01*
X197365Y218109D01*
X196129Y217597D01*
X194988Y216898D01*
X193971Y216029D01*
X193102Y215012D01*
X192403Y213871D01*
X191891Y212635D01*
X191579Y211334D01*
X191474Y210000D01*
X191579Y208666D01*
X191891Y207365D01*
X192403Y206129D01*
X193102Y204988D01*
X193971Y203971D01*
X194988Y203102D01*
X196129Y202403D01*
X197365Y201891D01*
X198666Y201579D01*
X200000Y201474D01*
Y200915D01*
X199231Y200855D01*
X198481Y200675D01*
X197769Y200379D01*
X197111Y199976D01*
X196524Y199476D01*
X196024Y198889D01*
X195621Y198231D01*
X195325Y197519D01*
X195145Y196769D01*
X195085Y196000D01*
X195145Y195231D01*
X195325Y194481D01*
X195621Y193769D01*
X196024Y193111D01*
X196524Y192524D01*
X197111Y192024D01*
X197769Y191621D01*
X198481Y191325D01*
X199231Y191145D01*
X200000Y191085D01*
Y190915D01*
X199231Y190855D01*
X198481Y190675D01*
X197769Y190379D01*
X197111Y189976D01*
X196524Y189476D01*
X196024Y188889D01*
X195621Y188231D01*
X195325Y187519D01*
X195145Y186769D01*
X195085Y186000D01*
X195145Y185231D01*
X195325Y184481D01*
X195621Y183769D01*
X196024Y183111D01*
X196524Y182524D01*
X197111Y182024D01*
X197769Y181621D01*
X198481Y181325D01*
X199231Y181145D01*
X200000Y181085D01*
Y180915D01*
X199231Y180855D01*
X198481Y180675D01*
X197769Y180379D01*
X197111Y179976D01*
X196524Y179476D01*
X196024Y178889D01*
X195621Y178231D01*
X195325Y177519D01*
X195145Y176769D01*
X195085Y176000D01*
X195145Y175231D01*
X195325Y174481D01*
X195621Y173769D01*
X196024Y173111D01*
X196524Y172524D01*
X197111Y172024D01*
X197769Y171621D01*
X198481Y171325D01*
X199231Y171145D01*
X200000Y171085D01*
Y170915D01*
X199231Y170855D01*
X198481Y170675D01*
X197769Y170379D01*
X197111Y169976D01*
X196524Y169476D01*
X196024Y168889D01*
X195621Y168231D01*
X195325Y167519D01*
X195145Y166769D01*
X195085Y166000D01*
X195145Y165231D01*
X195325Y164481D01*
X195621Y163769D01*
X196024Y163111D01*
X196524Y162524D01*
X197111Y162024D01*
X197769Y161621D01*
X198481Y161325D01*
X199231Y161145D01*
X200000Y161085D01*
Y160915D01*
X199231Y160855D01*
X198481Y160675D01*
X197769Y160379D01*
X197111Y159976D01*
X196524Y159476D01*
X196024Y158889D01*
X195621Y158231D01*
X195325Y157519D01*
X195145Y156769D01*
X195085Y156000D01*
X195145Y155231D01*
X195325Y154481D01*
X195621Y153769D01*
X196024Y153111D01*
X196524Y152524D01*
X197111Y152024D01*
X197769Y151621D01*
X198481Y151325D01*
X199231Y151145D01*
X200000Y151085D01*
Y150915D01*
X199231Y150855D01*
X198481Y150675D01*
X197769Y150379D01*
X197111Y149976D01*
X196524Y149476D01*
X196024Y148889D01*
X195621Y148231D01*
X195325Y147519D01*
X195145Y146769D01*
X195085Y146000D01*
X195145Y145231D01*
X195325Y144481D01*
X195621Y143769D01*
X196024Y143111D01*
X196524Y142524D01*
X197111Y142024D01*
X197769Y141621D01*
X198481Y141325D01*
X199231Y141145D01*
X200000Y141085D01*
Y140915D01*
X199231Y140855D01*
X198481Y140675D01*
X197769Y140379D01*
X197111Y139976D01*
X196524Y139476D01*
X196024Y138889D01*
X195621Y138231D01*
X195325Y137519D01*
X195145Y136769D01*
X195085Y136000D01*
X195145Y135231D01*
X195325Y134481D01*
X195621Y133769D01*
X196024Y133111D01*
X196524Y132524D01*
X197111Y132024D01*
X197769Y131621D01*
X198481Y131325D01*
X199231Y131145D01*
X200000Y131085D01*
Y130915D01*
X199231Y130855D01*
X198481Y130675D01*
X197769Y130379D01*
X197111Y129976D01*
X196524Y129476D01*
X196024Y128889D01*
X195621Y128231D01*
X195325Y127519D01*
X195145Y126769D01*
X195085Y126000D01*
X195145Y125231D01*
X195325Y124481D01*
X195621Y123769D01*
X196024Y123111D01*
X196524Y122524D01*
X197111Y122024D01*
X197769Y121621D01*
X198481Y121325D01*
X199231Y121145D01*
X200000Y121085D01*
Y120915D01*
X199231Y120855D01*
X198481Y120675D01*
X197769Y120379D01*
X197111Y119976D01*
X196524Y119476D01*
X196024Y118889D01*
X195621Y118231D01*
X195325Y117519D01*
X195145Y116769D01*
X195085Y116000D01*
X195145Y115231D01*
X195325Y114481D01*
X195621Y113769D01*
X196024Y113111D01*
X196524Y112524D01*
X197111Y112024D01*
X197769Y111621D01*
X198481Y111325D01*
X199231Y111145D01*
X200000Y111085D01*
Y110915D01*
X199231Y110855D01*
X198481Y110675D01*
X197769Y110379D01*
X197111Y109976D01*
X196524Y109476D01*
X196024Y108889D01*
X195621Y108231D01*
X195325Y107519D01*
X195145Y106769D01*
X195085Y106000D01*
X195145Y105231D01*
X195325Y104481D01*
X195621Y103769D01*
X196024Y103111D01*
X196524Y102524D01*
X197111Y102024D01*
X197769Y101621D01*
X198481Y101325D01*
X199231Y101145D01*
X200000Y101085D01*
Y94915D01*
X199231Y94855D01*
X198481Y94675D01*
X197769Y94379D01*
X197111Y93976D01*
X196524Y93476D01*
X196024Y92889D01*
X195621Y92231D01*
X195325Y91519D01*
X195145Y90769D01*
X195085Y90000D01*
X195145Y89231D01*
X195325Y88481D01*
X195621Y87769D01*
X196024Y87111D01*
X196524Y86524D01*
X197111Y86024D01*
X197769Y85621D01*
X198481Y85325D01*
X199231Y85145D01*
X200000Y85085D01*
Y84915D01*
X199231Y84855D01*
X198481Y84675D01*
X197769Y84379D01*
X197111Y83976D01*
X196524Y83476D01*
X196024Y82889D01*
X195621Y82231D01*
X195325Y81519D01*
X195145Y80769D01*
X195085Y80000D01*
X195145Y79231D01*
X195325Y78481D01*
X195621Y77769D01*
X196024Y77111D01*
X196524Y76524D01*
X197111Y76024D01*
X197769Y75621D01*
X198481Y75325D01*
X199231Y75145D01*
X200000Y75085D01*
Y74915D01*
X199231Y74855D01*
X198481Y74675D01*
X197769Y74379D01*
X197111Y73976D01*
X196524Y73476D01*
X196024Y72889D01*
X195621Y72231D01*
X195325Y71519D01*
X195145Y70769D01*
X195085Y70000D01*
X195145Y69231D01*
X195325Y68481D01*
X195621Y67769D01*
X196024Y67111D01*
X196524Y66524D01*
X197111Y66024D01*
X197769Y65621D01*
X198481Y65325D01*
X199231Y65145D01*
X200000Y65085D01*
Y64915D01*
X199231Y64855D01*
X198481Y64675D01*
X197769Y64379D01*
X197111Y63976D01*
X196524Y63476D01*
X196024Y62889D01*
X195621Y62231D01*
X195325Y61519D01*
X195145Y60769D01*
X195085Y60000D01*
X195145Y59231D01*
X195325Y58481D01*
X195621Y57769D01*
X196024Y57111D01*
X196524Y56524D01*
X197111Y56024D01*
X197769Y55621D01*
X198481Y55325D01*
X199231Y55145D01*
X200000Y55085D01*
Y54915D01*
X199231Y54855D01*
X198481Y54675D01*
X197769Y54379D01*
X197111Y53976D01*
X196524Y53476D01*
X196024Y52889D01*
X195621Y52231D01*
X195325Y51519D01*
X195145Y50769D01*
X195085Y50000D01*
X195145Y49231D01*
X195325Y48481D01*
X195621Y47769D01*
X196024Y47111D01*
X196524Y46524D01*
X197111Y46024D01*
X197769Y45621D01*
X198481Y45325D01*
X199231Y45145D01*
X200000Y45085D01*
Y44915D01*
X199231Y44855D01*
X198481Y44675D01*
X197769Y44379D01*
X197111Y43976D01*
X196524Y43476D01*
X196024Y42889D01*
X195621Y42231D01*
X195325Y41519D01*
X195145Y40769D01*
X195085Y40000D01*
X195145Y39231D01*
X195325Y38481D01*
X195621Y37769D01*
X196024Y37111D01*
X196524Y36524D01*
X197111Y36024D01*
X197769Y35621D01*
X198481Y35325D01*
X199231Y35145D01*
X200000Y35085D01*
Y34915D01*
X199231Y34855D01*
X198481Y34675D01*
X197769Y34379D01*
X197111Y33976D01*
X196524Y33476D01*
X196024Y32889D01*
X195621Y32231D01*
X195325Y31519D01*
X195145Y30769D01*
X195085Y30000D01*
X195145Y29231D01*
X195325Y28481D01*
X195621Y27769D01*
X196024Y27111D01*
X196524Y26524D01*
X197111Y26024D01*
X197769Y25621D01*
X198481Y25325D01*
X199231Y25145D01*
X200000Y25085D01*
Y24893D01*
X196365Y24886D01*
X196135Y24831D01*
X195917Y24741D01*
X195716Y24617D01*
X195536Y24464D01*
X195383Y24284D01*
X195259Y24083D01*
X195169Y23865D01*
X195114Y23635D01*
X195100Y23400D01*
X195114Y16365D01*
X195169Y16135D01*
X195259Y15917D01*
X195383Y15716D01*
X195536Y15536D01*
X195716Y15383D01*
X195917Y15259D01*
X196135Y15169D01*
X196365Y15114D01*
X196600Y15100D01*
X200000Y15107D01*
Y12500D01*
X174993D01*
Y128987D01*
X175000Y128986D01*
X175706Y129042D01*
X176395Y129207D01*
X177049Y129478D01*
X177653Y129848D01*
X178192Y130308D01*
X178652Y130847D01*
X179022Y131451D01*
X179293Y132105D01*
X179458Y132794D01*
X179500Y133500D01*
X179458Y134206D01*
X179293Y134895D01*
X179022Y135549D01*
X178652Y136153D01*
X178192Y136692D01*
X177653Y137152D01*
X177049Y137522D01*
X176395Y137793D01*
X175706Y137958D01*
X175000Y138014D01*
X174993Y138013D01*
Y267500D01*
G37*
G36*
X168493D02*X174993D01*
Y138013D01*
X174294Y137958D01*
X173605Y137793D01*
X172951Y137522D01*
X172347Y137152D01*
X171808Y136692D01*
X171348Y136153D01*
X170978Y135549D01*
X170707Y134895D01*
X170542Y134206D01*
X170486Y133500D01*
X170542Y132794D01*
X170707Y132105D01*
X170978Y131451D01*
X171348Y130847D01*
X171808Y130308D01*
X172347Y129848D01*
X172951Y129478D01*
X173605Y129207D01*
X174294Y129042D01*
X174993Y128987D01*
Y12500D01*
X168493D01*
Y45487D01*
X168500Y45486D01*
X169206Y45542D01*
X169895Y45707D01*
X170549Y45978D01*
X171153Y46348D01*
X171692Y46808D01*
X172152Y47347D01*
X172522Y47951D01*
X172793Y48605D01*
X172958Y49294D01*
X173000Y50000D01*
X172958Y50706D01*
X172793Y51395D01*
X172522Y52049D01*
X172152Y52653D01*
X171692Y53192D01*
X171153Y53652D01*
X170549Y54022D01*
X169895Y54293D01*
X169206Y54458D01*
X168500Y54514D01*
X168493Y54513D01*
Y55487D01*
X168500Y55486D01*
X169206Y55542D01*
X169895Y55707D01*
X170549Y55978D01*
X171153Y56348D01*
X171692Y56808D01*
X172152Y57347D01*
X172522Y57951D01*
X172793Y58605D01*
X172958Y59294D01*
X173000Y60000D01*
X172958Y60706D01*
X172793Y61395D01*
X172522Y62049D01*
X172152Y62653D01*
X171692Y63192D01*
X171153Y63652D01*
X170549Y64022D01*
X169895Y64293D01*
X169206Y64458D01*
X168500Y64514D01*
X168493Y64513D01*
Y65487D01*
X168500Y65486D01*
X169206Y65542D01*
X169895Y65707D01*
X170549Y65978D01*
X171153Y66348D01*
X171692Y66808D01*
X172152Y67347D01*
X172522Y67951D01*
X172793Y68605D01*
X172958Y69294D01*
X173000Y70000D01*
X172958Y70706D01*
X172793Y71395D01*
X172522Y72049D01*
X172152Y72653D01*
X171692Y73192D01*
X171153Y73652D01*
X170549Y74022D01*
X169895Y74293D01*
X169206Y74458D01*
X168500Y74514D01*
X168493Y74513D01*
Y75487D01*
X168500Y75486D01*
X169206Y75542D01*
X169895Y75707D01*
X170549Y75978D01*
X171153Y76348D01*
X171692Y76808D01*
X172152Y77347D01*
X172522Y77951D01*
X172793Y78605D01*
X172958Y79294D01*
X173000Y80000D01*
X172958Y80706D01*
X172793Y81395D01*
X172522Y82049D01*
X172152Y82653D01*
X171692Y83192D01*
X171153Y83652D01*
X170549Y84022D01*
X169895Y84293D01*
X169206Y84458D01*
X168500Y84514D01*
X168493Y84513D01*
Y130661D01*
X168652Y130847D01*
X169022Y131451D01*
X169293Y132105D01*
X169458Y132794D01*
X169500Y133500D01*
X169458Y134206D01*
X169293Y134895D01*
X169022Y135549D01*
X168652Y136153D01*
X168493Y136339D01*
Y267500D01*
G37*
G36*
X160544Y132786D02*X160707Y132105D01*
X160978Y131451D01*
X161348Y130847D01*
X161808Y130308D01*
X162347Y129848D01*
X162951Y129478D01*
X163605Y129207D01*
X164294Y129042D01*
X165000Y128986D01*
X165706Y129042D01*
X166395Y129207D01*
X167049Y129478D01*
X167653Y129848D01*
X168192Y130308D01*
X168493Y130661D01*
Y84513D01*
X167794Y84458D01*
X167105Y84293D01*
X166451Y84022D01*
X165847Y83652D01*
X165308Y83192D01*
X164848Y82653D01*
X164478Y82049D01*
X164207Y81395D01*
X164042Y80706D01*
X163986Y80000D01*
X164042Y79294D01*
X164207Y78605D01*
X164478Y77951D01*
X164848Y77347D01*
X165308Y76808D01*
X165847Y76348D01*
X166451Y75978D01*
X167105Y75707D01*
X167794Y75542D01*
X168493Y75487D01*
Y74513D01*
X167794Y74458D01*
X167105Y74293D01*
X166451Y74022D01*
X165847Y73652D01*
X165308Y73192D01*
X164848Y72653D01*
X164478Y72049D01*
X164207Y71395D01*
X164042Y70706D01*
X163986Y70000D01*
X164042Y69294D01*
X164207Y68605D01*
X164478Y67951D01*
X164848Y67347D01*
X165308Y66808D01*
X165847Y66348D01*
X166451Y65978D01*
X167105Y65707D01*
X167794Y65542D01*
X168493Y65487D01*
Y64513D01*
X167794Y64458D01*
X167105Y64293D01*
X166451Y64022D01*
X165847Y63652D01*
X165308Y63192D01*
X164848Y62653D01*
X164478Y62049D01*
X164207Y61395D01*
X164042Y60706D01*
X163986Y60000D01*
X164042Y59294D01*
X164207Y58605D01*
X164478Y57951D01*
X164848Y57347D01*
X165308Y56808D01*
X165847Y56348D01*
X166451Y55978D01*
X167105Y55707D01*
X167794Y55542D01*
X168493Y55487D01*
Y54513D01*
X167794Y54458D01*
X167105Y54293D01*
X166451Y54022D01*
X165847Y53652D01*
X165308Y53192D01*
X164848Y52653D01*
X164478Y52049D01*
X164207Y51395D01*
X164042Y50706D01*
X163986Y50000D01*
X164042Y49294D01*
X164207Y48605D01*
X164478Y47951D01*
X164848Y47347D01*
X165308Y46808D01*
X165847Y46348D01*
X166451Y45978D01*
X167105Y45707D01*
X167794Y45542D01*
X168493Y45487D01*
Y12500D01*
X160544D01*
Y25338D01*
X160550Y25337D01*
X161201Y25388D01*
X161836Y25541D01*
X162440Y25791D01*
X162997Y26132D01*
X163494Y26556D01*
X163918Y27053D01*
X164259Y27610D01*
X164509Y28214D01*
X164662Y28849D01*
X164700Y29500D01*
X164662Y30151D01*
X164509Y30786D01*
X164259Y31390D01*
X163918Y31947D01*
X163494Y32444D01*
X162997Y32868D01*
X162440Y33209D01*
X161836Y33459D01*
X161201Y33612D01*
X160550Y33663D01*
X160544Y33662D01*
Y132786D01*
G37*
G36*
Y267500D02*X168493D01*
Y136339D01*
X168192Y136692D01*
X167653Y137152D01*
X167049Y137522D01*
X166395Y137793D01*
X165706Y137958D01*
X165000Y138014D01*
X164294Y137958D01*
X163605Y137793D01*
X162951Y137522D01*
X162347Y137152D01*
X161808Y136692D01*
X161348Y136153D01*
X160978Y135549D01*
X160707Y134895D01*
X160544Y134214D01*
Y267500D01*
G37*
G36*
X154993D02*X160544D01*
Y134214D01*
X160542Y134206D01*
X160486Y133500D01*
X160542Y132794D01*
X160544Y132786D01*
Y33662D01*
X159899Y33612D01*
X159264Y33459D01*
X158660Y33209D01*
X158103Y32868D01*
X157606Y32444D01*
X157182Y31947D01*
X156841Y31390D01*
X156591Y30786D01*
X156438Y30151D01*
X156387Y29500D01*
X156438Y28849D01*
X156591Y28214D01*
X156841Y27610D01*
X157182Y27053D01*
X157606Y26556D01*
X158103Y26132D01*
X158660Y25791D01*
X159264Y25541D01*
X159899Y25388D01*
X160544Y25338D01*
Y12500D01*
X154993D01*
Y128987D01*
X155000Y128986D01*
X155706Y129042D01*
X156395Y129207D01*
X157049Y129478D01*
X157653Y129848D01*
X158192Y130308D01*
X158652Y130847D01*
X159022Y131451D01*
X159293Y132105D01*
X159458Y132794D01*
X159500Y133500D01*
X159458Y134206D01*
X159293Y134895D01*
X159022Y135549D01*
X158652Y136153D01*
X158192Y136692D01*
X157653Y137152D01*
X157049Y137522D01*
X156395Y137793D01*
X155706Y137958D01*
X155000Y138014D01*
X154993Y138013D01*
Y267500D01*
G37*
G36*
X148493D02*X154993D01*
Y138013D01*
X154294Y137958D01*
X153605Y137793D01*
X152951Y137522D01*
X152347Y137152D01*
X151808Y136692D01*
X151348Y136153D01*
X150978Y135549D01*
X150707Y134895D01*
X150542Y134206D01*
X150486Y133500D01*
X150542Y132794D01*
X150707Y132105D01*
X150978Y131451D01*
X151348Y130847D01*
X151808Y130308D01*
X152347Y129848D01*
X152951Y129478D01*
X153605Y129207D01*
X154294Y129042D01*
X154993Y128987D01*
Y12500D01*
X148493D01*
Y45487D01*
X148500Y45486D01*
X149206Y45542D01*
X149895Y45707D01*
X150549Y45978D01*
X151153Y46348D01*
X151692Y46808D01*
X152152Y47347D01*
X152522Y47951D01*
X152793Y48605D01*
X152958Y49294D01*
X153000Y50000D01*
X152958Y50706D01*
X152793Y51395D01*
X152522Y52049D01*
X152152Y52653D01*
X151692Y53192D01*
X151153Y53652D01*
X150549Y54022D01*
X149895Y54293D01*
X149206Y54458D01*
X148500Y54514D01*
X148493Y54513D01*
Y55487D01*
X148500Y55486D01*
X149206Y55542D01*
X149895Y55707D01*
X150549Y55978D01*
X151153Y56348D01*
X151692Y56808D01*
X152152Y57347D01*
X152522Y57951D01*
X152793Y58605D01*
X152958Y59294D01*
X153000Y60000D01*
X152958Y60706D01*
X152793Y61395D01*
X152522Y62049D01*
X152152Y62653D01*
X151692Y63192D01*
X151153Y63652D01*
X150549Y64022D01*
X149895Y64293D01*
X149206Y64458D01*
X148500Y64514D01*
X148493Y64513D01*
Y65487D01*
X148500Y65486D01*
X149206Y65542D01*
X149895Y65707D01*
X150549Y65978D01*
X151153Y66348D01*
X151692Y66808D01*
X152152Y67347D01*
X152522Y67951D01*
X152793Y68605D01*
X152958Y69294D01*
X153000Y70000D01*
X152958Y70706D01*
X152793Y71395D01*
X152522Y72049D01*
X152152Y72653D01*
X151692Y73192D01*
X151153Y73652D01*
X150549Y74022D01*
X149895Y74293D01*
X149206Y74458D01*
X148500Y74514D01*
X148493Y74513D01*
Y75487D01*
X148500Y75486D01*
X149206Y75542D01*
X149895Y75707D01*
X150549Y75978D01*
X151153Y76348D01*
X151692Y76808D01*
X152152Y77347D01*
X152522Y77951D01*
X152793Y78605D01*
X152958Y79294D01*
X153000Y80000D01*
X152958Y80706D01*
X152793Y81395D01*
X152522Y82049D01*
X152152Y82653D01*
X151692Y83192D01*
X151153Y83652D01*
X150549Y84022D01*
X149895Y84293D01*
X149206Y84458D01*
X148500Y84514D01*
X148493Y84513D01*
Y130661D01*
X148652Y130847D01*
X149022Y131451D01*
X149293Y132105D01*
X149458Y132794D01*
X149500Y133500D01*
X149458Y134206D01*
X149293Y134895D01*
X149022Y135549D01*
X148652Y136153D01*
X148493Y136339D01*
Y267500D01*
G37*
G36*
X128493D02*X148493D01*
Y136339D01*
X148192Y136692D01*
X147653Y137152D01*
X147049Y137522D01*
X146395Y137793D01*
X145706Y137958D01*
X145000Y138014D01*
X144294Y137958D01*
X143605Y137793D01*
X142951Y137522D01*
X142347Y137152D01*
X141808Y136692D01*
X141348Y136153D01*
X140978Y135549D01*
X140707Y134895D01*
X140542Y134206D01*
X140486Y133500D01*
X140542Y132794D01*
X140707Y132105D01*
X140978Y131451D01*
X141348Y130847D01*
X141808Y130308D01*
X142347Y129848D01*
X142951Y129478D01*
X143605Y129207D01*
X144294Y129042D01*
X145000Y128986D01*
X145706Y129042D01*
X146395Y129207D01*
X147049Y129478D01*
X147653Y129848D01*
X148192Y130308D01*
X148493Y130661D01*
Y84513D01*
X147794Y84458D01*
X147105Y84293D01*
X146451Y84022D01*
X145847Y83652D01*
X145308Y83192D01*
X144848Y82653D01*
X144478Y82049D01*
X144207Y81395D01*
X144042Y80706D01*
X143986Y80000D01*
X144042Y79294D01*
X144207Y78605D01*
X144478Y77951D01*
X144848Y77347D01*
X145308Y76808D01*
X145847Y76348D01*
X146451Y75978D01*
X147105Y75707D01*
X147794Y75542D01*
X148493Y75487D01*
Y74513D01*
X147794Y74458D01*
X147105Y74293D01*
X146451Y74022D01*
X145847Y73652D01*
X145308Y73192D01*
X144848Y72653D01*
X144478Y72049D01*
X144207Y71395D01*
X144042Y70706D01*
X143986Y70000D01*
X144042Y69294D01*
X144207Y68605D01*
X144478Y67951D01*
X144848Y67347D01*
X145308Y66808D01*
X145847Y66348D01*
X146451Y65978D01*
X147105Y65707D01*
X147794Y65542D01*
X148493Y65487D01*
Y64513D01*
X147794Y64458D01*
X147105Y64293D01*
X146451Y64022D01*
X145847Y63652D01*
X145308Y63192D01*
X144848Y62653D01*
X144478Y62049D01*
X144207Y61395D01*
X144042Y60706D01*
X143986Y60000D01*
X144042Y59294D01*
X144207Y58605D01*
X144478Y57951D01*
X144848Y57347D01*
X145308Y56808D01*
X145847Y56348D01*
X146451Y55978D01*
X147105Y55707D01*
X147794Y55542D01*
X148493Y55487D01*
Y54513D01*
X147794Y54458D01*
X147105Y54293D01*
X146451Y54022D01*
X145847Y53652D01*
X145308Y53192D01*
X144848Y52653D01*
X144478Y52049D01*
X144207Y51395D01*
X144042Y50706D01*
X143986Y50000D01*
X144042Y49294D01*
X144207Y48605D01*
X144478Y47951D01*
X144848Y47347D01*
X145308Y46808D01*
X145847Y46348D01*
X146451Y45978D01*
X147105Y45707D01*
X147794Y45542D01*
X148493Y45487D01*
Y12500D01*
X148141D01*
X148109Y12635D01*
X147597Y13871D01*
X146898Y15012D01*
X146029Y16029D01*
X145012Y16898D01*
X143871Y17597D01*
X142635Y18109D01*
X141334Y18421D01*
X140000Y18526D01*
X138666Y18421D01*
X137365Y18109D01*
X136129Y17597D01*
X134988Y16898D01*
X133971Y16029D01*
X133102Y15012D01*
X132403Y13871D01*
X131891Y12635D01*
X131859Y12500D01*
X128493D01*
Y28209D01*
X128741Y27610D01*
X129082Y27053D01*
X129506Y26556D01*
X130003Y26132D01*
X130560Y25791D01*
X131164Y25541D01*
X131799Y25388D01*
X132450Y25337D01*
X133101Y25388D01*
X133736Y25541D01*
X134340Y25791D01*
X134897Y26132D01*
X135394Y26556D01*
X135818Y27053D01*
X136159Y27610D01*
X136409Y28214D01*
X136562Y28849D01*
X136600Y29500D01*
X136562Y30151D01*
X136409Y30786D01*
X136159Y31390D01*
X135818Y31947D01*
X135394Y32444D01*
X134897Y32868D01*
X134340Y33209D01*
X133736Y33459D01*
X133101Y33612D01*
X132450Y33663D01*
X131799Y33612D01*
X131164Y33459D01*
X130560Y33209D01*
X130003Y32868D01*
X129506Y32444D01*
X129082Y31947D01*
X128741Y31390D01*
X128493Y30791D01*
Y45487D01*
X128500Y45486D01*
X129206Y45542D01*
X129895Y45707D01*
X130549Y45978D01*
X131153Y46348D01*
X131692Y46808D01*
X132152Y47347D01*
X132522Y47951D01*
X132793Y48605D01*
X132958Y49294D01*
X133000Y50000D01*
X132958Y50706D01*
X132793Y51395D01*
X132522Y52049D01*
X132152Y52653D01*
X131692Y53192D01*
X131153Y53652D01*
X130549Y54022D01*
X129895Y54293D01*
X129206Y54458D01*
X128500Y54514D01*
X128493Y54513D01*
Y55487D01*
X128500Y55486D01*
X129206Y55542D01*
X129895Y55707D01*
X130549Y55978D01*
X131153Y56348D01*
X131692Y56808D01*
X132152Y57347D01*
X132522Y57951D01*
X132793Y58605D01*
X132958Y59294D01*
X133000Y60000D01*
X132958Y60706D01*
X132793Y61395D01*
X132522Y62049D01*
X132152Y62653D01*
X131692Y63192D01*
X131153Y63652D01*
X130549Y64022D01*
X129895Y64293D01*
X129206Y64458D01*
X128500Y64514D01*
X128493Y64513D01*
Y65487D01*
X128500Y65486D01*
X129206Y65542D01*
X129895Y65707D01*
X130549Y65978D01*
X131153Y66348D01*
X131692Y66808D01*
X132152Y67347D01*
X132522Y67951D01*
X132793Y68605D01*
X132958Y69294D01*
X133000Y70000D01*
X132958Y70706D01*
X132793Y71395D01*
X132522Y72049D01*
X132152Y72653D01*
X131692Y73192D01*
X131153Y73652D01*
X130549Y74022D01*
X129895Y74293D01*
X129206Y74458D01*
X128500Y74514D01*
X128493Y74513D01*
Y75487D01*
X128500Y75486D01*
X129206Y75542D01*
X129895Y75707D01*
X130549Y75978D01*
X131153Y76348D01*
X131692Y76808D01*
X132152Y77347D01*
X132522Y77951D01*
X132793Y78605D01*
X132958Y79294D01*
X133000Y80000D01*
X132958Y80706D01*
X132793Y81395D01*
X132522Y82049D01*
X132152Y82653D01*
X131692Y83192D01*
X131153Y83652D01*
X130549Y84022D01*
X129895Y84293D01*
X129206Y84458D01*
X128500Y84514D01*
X128493Y84513D01*
Y267500D01*
G37*
G36*
X119993D02*X128493D01*
Y84513D01*
X127794Y84458D01*
X127105Y84293D01*
X126451Y84022D01*
X125847Y83652D01*
X125308Y83192D01*
X124848Y82653D01*
X124478Y82049D01*
X124207Y81395D01*
X124042Y80706D01*
X123986Y80000D01*
X124042Y79294D01*
X124207Y78605D01*
X124478Y77951D01*
X124848Y77347D01*
X125308Y76808D01*
X125847Y76348D01*
X126451Y75978D01*
X127105Y75707D01*
X127794Y75542D01*
X128493Y75487D01*
Y74513D01*
X127794Y74458D01*
X127105Y74293D01*
X126451Y74022D01*
X125847Y73652D01*
X125308Y73192D01*
X124848Y72653D01*
X124478Y72049D01*
X124207Y71395D01*
X124042Y70706D01*
X123986Y70000D01*
X124042Y69294D01*
X124207Y68605D01*
X124478Y67951D01*
X124848Y67347D01*
X125308Y66808D01*
X125847Y66348D01*
X126451Y65978D01*
X127105Y65707D01*
X127794Y65542D01*
X128493Y65487D01*
Y64513D01*
X127794Y64458D01*
X127105Y64293D01*
X126451Y64022D01*
X125847Y63652D01*
X125308Y63192D01*
X124848Y62653D01*
X124478Y62049D01*
X124207Y61395D01*
X124042Y60706D01*
X123986Y60000D01*
X124042Y59294D01*
X124207Y58605D01*
X124478Y57951D01*
X124848Y57347D01*
X125308Y56808D01*
X125847Y56348D01*
X126451Y55978D01*
X127105Y55707D01*
X127794Y55542D01*
X128493Y55487D01*
Y54513D01*
X127794Y54458D01*
X127105Y54293D01*
X126451Y54022D01*
X125847Y53652D01*
X125308Y53192D01*
X124848Y52653D01*
X124478Y52049D01*
X124207Y51395D01*
X124042Y50706D01*
X123986Y50000D01*
X124042Y49294D01*
X124207Y48605D01*
X124478Y47951D01*
X124848Y47347D01*
X125308Y46808D01*
X125847Y46348D01*
X126451Y45978D01*
X127105Y45707D01*
X127794Y45542D01*
X128493Y45487D01*
Y30791D01*
X128491Y30786D01*
X128338Y30151D01*
X128287Y29500D01*
X128338Y28849D01*
X128491Y28214D01*
X128493Y28209D01*
Y12500D01*
X119993D01*
Y18487D01*
X120000Y18486D01*
X120706Y18542D01*
X121395Y18707D01*
X122049Y18978D01*
X122653Y19348D01*
X123192Y19808D01*
X123652Y20347D01*
X124022Y20951D01*
X124293Y21605D01*
X124458Y22294D01*
X124500Y23000D01*
X124458Y23706D01*
X124293Y24395D01*
X124022Y25049D01*
X123652Y25653D01*
X123192Y26192D01*
X122653Y26652D01*
X122049Y27022D01*
X121395Y27293D01*
X120706Y27458D01*
X120000Y27514D01*
X119993Y27513D01*
Y201670D01*
X120070Y201638D01*
X120529Y201528D01*
X121000Y201491D01*
X121471Y201528D01*
X121930Y201638D01*
X122366Y201819D01*
X122769Y202065D01*
X123128Y202372D01*
X123435Y202731D01*
X123681Y203134D01*
X123862Y203570D01*
X123972Y204029D01*
X124000Y204500D01*
X123972Y204971D01*
X123862Y205430D01*
X123681Y205866D01*
X123435Y206269D01*
X123128Y206628D01*
X122769Y206935D01*
X122366Y207181D01*
X121930Y207362D01*
X121471Y207472D01*
X121000Y207509D01*
X120529Y207472D01*
X120070Y207362D01*
X119993Y207330D01*
Y243250D01*
X120153Y243348D01*
X120692Y243808D01*
X121152Y244347D01*
X121522Y244951D01*
X121793Y245605D01*
X121958Y246294D01*
X122000Y247000D01*
X121958Y247706D01*
X121793Y248395D01*
X121522Y249049D01*
X121152Y249653D01*
X120692Y250192D01*
X120153Y250652D01*
X119993Y250750D01*
Y267500D01*
G37*
G36*
Y12500D02*X109993D01*
Y18487D01*
X110000Y18486D01*
X110706Y18542D01*
X111395Y18707D01*
X112049Y18978D01*
X112653Y19348D01*
X113192Y19808D01*
X113652Y20347D01*
X114022Y20951D01*
X114293Y21605D01*
X114458Y22294D01*
X114500Y23000D01*
X114458Y23706D01*
X114293Y24395D01*
X114022Y25049D01*
X113652Y25653D01*
X113192Y26192D01*
X112653Y26652D01*
X112049Y27022D01*
X111395Y27293D01*
X110706Y27458D01*
X110000Y27514D01*
X109993Y27513D01*
Y124500D01*
X112838D01*
X113134Y124319D01*
X113570Y124138D01*
X114029Y124028D01*
X114500Y123991D01*
X114971Y124028D01*
X115430Y124138D01*
X115866Y124319D01*
X116269Y124565D01*
X116628Y124872D01*
X116935Y125231D01*
X117181Y125634D01*
X117362Y126070D01*
X117472Y126529D01*
X117500Y127000D01*
X117472Y127471D01*
X117362Y127930D01*
X117181Y128366D01*
X116935Y128769D01*
X116628Y129128D01*
X116269Y129435D01*
X115866Y129681D01*
X115430Y129862D01*
X114971Y129972D01*
X114500Y130009D01*
X114029Y129972D01*
X113570Y129862D01*
X113134Y129681D01*
X112838Y129500D01*
X109993D01*
Y131383D01*
X110000Y131500D01*
X109993Y131617D01*
Y202000D01*
X112000D01*
Y145662D01*
X111819Y145366D01*
X111638Y144930D01*
X111528Y144471D01*
X111491Y144000D01*
X111528Y143529D01*
X111638Y143070D01*
X111819Y142634D01*
X112065Y142231D01*
X112372Y141872D01*
X112731Y141565D01*
X113134Y141319D01*
X113570Y141138D01*
X114029Y141028D01*
X114500Y140991D01*
X114971Y141028D01*
X115430Y141138D01*
X115866Y141319D01*
X116269Y141565D01*
X116628Y141872D01*
X116935Y142231D01*
X117181Y142634D01*
X117362Y143070D01*
X117472Y143529D01*
X117500Y144000D01*
X117472Y144471D01*
X117362Y144930D01*
X117181Y145366D01*
X117000Y145662D01*
Y202000D01*
X119338D01*
X119634Y201819D01*
X119993Y201670D01*
Y27513D01*
X119294Y27458D01*
X118605Y27293D01*
X117951Y27022D01*
X117347Y26652D01*
X116808Y26192D01*
X116348Y25653D01*
X115978Y25049D01*
X115707Y24395D01*
X115542Y23706D01*
X115486Y23000D01*
X115542Y22294D01*
X115707Y21605D01*
X115978Y20951D01*
X116348Y20347D01*
X116808Y19808D01*
X117347Y19348D01*
X117951Y18978D01*
X118605Y18707D01*
X119294Y18542D01*
X119993Y18487D01*
Y12500D01*
G37*
G36*
X109993Y131617D02*X109972Y131971D01*
X109862Y132430D01*
X109681Y132866D01*
X109435Y133269D01*
X109128Y133628D01*
X108769Y133935D01*
X108366Y134181D01*
X107930Y134362D01*
X107471Y134472D01*
X107000Y134509D01*
X106529Y134472D01*
X106070Y134362D01*
X105634Y134181D01*
X105231Y133935D01*
X104872Y133628D01*
X104565Y133269D01*
X104401Y133000D01*
X102995D01*
Y202000D01*
X109993D01*
Y131617D01*
G37*
G36*
Y129500D02*X109237D01*
X109435Y129731D01*
X109681Y130134D01*
X109862Y130570D01*
X109972Y131029D01*
X109993Y131383D01*
Y129500D01*
G37*
G36*
Y12500D02*X102995D01*
Y19640D01*
X103192Y19808D01*
X103652Y20347D01*
X104022Y20951D01*
X104293Y21605D01*
X104458Y22294D01*
X104500Y23000D01*
X104458Y23706D01*
X104293Y24395D01*
X104022Y25049D01*
X103652Y25653D01*
X103192Y26192D01*
X102995Y26360D01*
Y124500D01*
X109993D01*
Y27513D01*
X109294Y27458D01*
X108605Y27293D01*
X107951Y27022D01*
X107347Y26652D01*
X106808Y26192D01*
X106348Y25653D01*
X105978Y25049D01*
X105707Y24395D01*
X105542Y23706D01*
X105486Y23000D01*
X105542Y22294D01*
X105707Y21605D01*
X105978Y20951D01*
X106348Y20347D01*
X106808Y19808D01*
X107347Y19348D01*
X107951Y18978D01*
X108605Y18707D01*
X109294Y18542D01*
X109993Y18487D01*
Y12500D01*
G37*
G36*
X102995Y267500D02*X119993D01*
Y250750D01*
X119549Y251022D01*
X118895Y251293D01*
X118206Y251458D01*
X117500Y251514D01*
X116794Y251458D01*
X116105Y251293D01*
X115451Y251022D01*
X114847Y250652D01*
X114308Y250192D01*
X113848Y249653D01*
X113478Y249049D01*
X113207Y248395D01*
X113042Y247706D01*
X112986Y247000D01*
X113042Y246294D01*
X113207Y245605D01*
X113478Y244951D01*
X113848Y244347D01*
X114308Y243808D01*
X114847Y243348D01*
X115451Y242978D01*
X116105Y242707D01*
X116794Y242542D01*
X117500Y242486D01*
X118206Y242542D01*
X118895Y242707D01*
X119549Y242978D01*
X119993Y243250D01*
Y207330D01*
X119634Y207181D01*
X119338Y207000D01*
X114598D01*
X114500Y207008D01*
X114402Y207000D01*
X102995D01*
Y267500D01*
G37*
G36*
X86495Y201898D02*X86662Y202000D01*
X102995D01*
Y133000D01*
X101599D01*
X101435Y133269D01*
X101128Y133628D01*
X100769Y133935D01*
X100366Y134181D01*
X99930Y134362D01*
X99471Y134472D01*
X99000Y134509D01*
X98529Y134472D01*
X98070Y134362D01*
X97634Y134181D01*
X97231Y133935D01*
X96872Y133628D01*
X96565Y133269D01*
X96319Y132866D01*
X96138Y132430D01*
X96028Y131971D01*
X95991Y131500D01*
X96028Y131029D01*
X96138Y130570D01*
X96319Y130134D01*
X96565Y129731D01*
X96763Y129500D01*
X94162D01*
X93866Y129681D01*
X93430Y129862D01*
X92971Y129972D01*
X92500Y130009D01*
X92029Y129972D01*
X91570Y129862D01*
X91134Y129681D01*
X90731Y129435D01*
X90372Y129128D01*
X90065Y128769D01*
X89819Y128366D01*
X89638Y127930D01*
X89528Y127471D01*
X89491Y127000D01*
X89528Y126529D01*
X89638Y126070D01*
X89819Y125634D01*
X90065Y125231D01*
X90372Y124872D01*
X90731Y124565D01*
X91134Y124319D01*
X91570Y124138D01*
X92029Y124028D01*
X92500Y123991D01*
X92971Y124028D01*
X93430Y124138D01*
X93866Y124319D01*
X94162Y124500D01*
X102995D01*
Y26360D01*
X102653Y26652D01*
X102049Y27022D01*
X101395Y27293D01*
X100706Y27458D01*
X100000Y27514D01*
X99294Y27458D01*
X98605Y27293D01*
X97951Y27022D01*
X97347Y26652D01*
X96808Y26192D01*
X96348Y25653D01*
X95978Y25049D01*
X95707Y24395D01*
X95542Y23706D01*
X95486Y23000D01*
X95542Y22294D01*
X95707Y21605D01*
X95978Y20951D01*
X96348Y20347D01*
X96808Y19808D01*
X97347Y19348D01*
X97951Y18978D01*
X98605Y18707D01*
X99294Y18542D01*
X100000Y18486D01*
X100706Y18542D01*
X101395Y18707D01*
X102049Y18978D01*
X102653Y19348D01*
X102995Y19640D01*
Y12500D01*
X86495D01*
Y20174D01*
X86808Y19808D01*
X87347Y19348D01*
X87951Y18978D01*
X88605Y18707D01*
X89294Y18542D01*
X90000Y18486D01*
X90706Y18542D01*
X91395Y18707D01*
X92049Y18978D01*
X92653Y19348D01*
X93192Y19808D01*
X93652Y20347D01*
X94022Y20951D01*
X94293Y21605D01*
X94458Y22294D01*
X94500Y23000D01*
X94458Y23706D01*
X94293Y24395D01*
X94022Y25049D01*
X93652Y25653D01*
X93192Y26192D01*
X92653Y26652D01*
X92049Y27022D01*
X91395Y27293D01*
X90706Y27458D01*
X90000Y27514D01*
X89294Y27458D01*
X88605Y27293D01*
X87951Y27022D01*
X87347Y26652D01*
X86808Y26192D01*
X86495Y25826D01*
Y191800D01*
X94901D01*
X95065Y191531D01*
X95372Y191172D01*
X95731Y190865D01*
X96134Y190619D01*
X96570Y190438D01*
X97029Y190328D01*
X97500Y190291D01*
X97971Y190328D01*
X98430Y190438D01*
X98866Y190619D01*
X99269Y190865D01*
X99628Y191172D01*
X99935Y191531D01*
X100181Y191934D01*
X100362Y192370D01*
X100472Y192829D01*
X100500Y193300D01*
X100472Y193771D01*
X100362Y194230D01*
X100181Y194666D01*
X99935Y195069D01*
X99628Y195428D01*
X99269Y195735D01*
X98866Y195981D01*
X98430Y196162D01*
X97971Y196272D01*
X97500Y196309D01*
X97029Y196272D01*
X96570Y196162D01*
X96134Y195981D01*
X95731Y195735D01*
X95372Y195428D01*
X95065Y195069D01*
X94901Y194800D01*
X86495D01*
Y201898D01*
G37*
G36*
Y267500D02*X102995D01*
Y207000D01*
X86662D01*
X86495Y207102D01*
Y267500D01*
G37*
G36*
X79993Y191800D02*X86495D01*
Y25826D01*
X86348Y25653D01*
X85978Y25049D01*
X85707Y24395D01*
X85542Y23706D01*
X85486Y23000D01*
X85542Y22294D01*
X85707Y21605D01*
X85978Y20951D01*
X86348Y20347D01*
X86495Y20174D01*
Y12500D01*
X79993D01*
Y18487D01*
X80000Y18486D01*
X80706Y18542D01*
X81395Y18707D01*
X82049Y18978D01*
X82653Y19348D01*
X83192Y19808D01*
X83652Y20347D01*
X84022Y20951D01*
X84293Y21605D01*
X84458Y22294D01*
X84500Y23000D01*
X84458Y23706D01*
X84293Y24395D01*
X84022Y25049D01*
X83652Y25653D01*
X83192Y26192D01*
X82653Y26652D01*
X82049Y27022D01*
X81395Y27293D01*
X80706Y27458D01*
X80000Y27514D01*
X79993Y27513D01*
Y191800D01*
G37*
G36*
Y267500D02*X86495D01*
Y207102D01*
X86366Y207181D01*
X85930Y207362D01*
X85471Y207472D01*
X85000Y207509D01*
X84529Y207472D01*
X84070Y207362D01*
X83634Y207181D01*
X83231Y206935D01*
X82872Y206628D01*
X82565Y206269D01*
X82319Y205866D01*
X82138Y205430D01*
X82028Y204971D01*
X81991Y204500D01*
X82028Y204029D01*
X82138Y203570D01*
X82319Y203134D01*
X82565Y202731D01*
X82872Y202372D01*
X83231Y202065D01*
X83634Y201819D01*
X84070Y201638D01*
X84529Y201528D01*
X85000Y201491D01*
X85471Y201528D01*
X85930Y201638D01*
X86366Y201819D01*
X86495Y201898D01*
Y194800D01*
X79993D01*
Y242611D01*
X80395Y242707D01*
X81049Y242978D01*
X81653Y243348D01*
X82192Y243808D01*
X82652Y244347D01*
X83022Y244951D01*
X83293Y245605D01*
X83458Y246294D01*
X83500Y247000D01*
X83458Y247706D01*
X83293Y248395D01*
X83022Y249049D01*
X82652Y249653D01*
X82192Y250192D01*
X81653Y250652D01*
X81049Y251022D01*
X80395Y251293D01*
X79993Y251389D01*
Y267500D01*
G37*
G36*
X69993D02*X79993D01*
Y251389D01*
X79706Y251458D01*
X79000Y251514D01*
X78294Y251458D01*
X77605Y251293D01*
X76951Y251022D01*
X76347Y250652D01*
X75808Y250192D01*
X75348Y249653D01*
X74978Y249049D01*
X74707Y248395D01*
X74542Y247706D01*
X74486Y247000D01*
X74542Y246294D01*
X74707Y245605D01*
X74978Y244951D01*
X75348Y244347D01*
X75808Y243808D01*
X76347Y243348D01*
X76951Y242978D01*
X77605Y242707D01*
X78294Y242542D01*
X79000Y242486D01*
X79706Y242542D01*
X79993Y242611D01*
Y194800D01*
X78099D01*
X77935Y195069D01*
X77628Y195428D01*
X77269Y195735D01*
X76866Y195981D01*
X76430Y196162D01*
X75971Y196272D01*
X75500Y196309D01*
X75029Y196272D01*
X74570Y196162D01*
X74134Y195981D01*
X73731Y195735D01*
X73372Y195428D01*
X73065Y195069D01*
X72819Y194666D01*
X72638Y194230D01*
X72528Y193771D01*
X72491Y193300D01*
X72528Y192829D01*
X72638Y192370D01*
X72819Y191934D01*
X73065Y191531D01*
X73372Y191172D01*
X73731Y190865D01*
X74134Y190619D01*
X74570Y190438D01*
X75029Y190328D01*
X75500Y190291D01*
X75971Y190328D01*
X76430Y190438D01*
X76866Y190619D01*
X77269Y190865D01*
X77628Y191172D01*
X77935Y191531D01*
X78099Y191800D01*
X79993D01*
Y27513D01*
X79294Y27458D01*
X78605Y27293D01*
X77951Y27022D01*
X77347Y26652D01*
X76808Y26192D01*
X76348Y25653D01*
X75978Y25049D01*
X75707Y24395D01*
X75542Y23706D01*
X75486Y23000D01*
X75542Y22294D01*
X75707Y21605D01*
X75978Y20951D01*
X76348Y20347D01*
X76808Y19808D01*
X77347Y19348D01*
X77951Y18978D01*
X78605Y18707D01*
X79294Y18542D01*
X79993Y18487D01*
Y12500D01*
X69993D01*
Y18487D01*
X70000Y18486D01*
X70706Y18542D01*
X71395Y18707D01*
X72049Y18978D01*
X72653Y19348D01*
X73192Y19808D01*
X73652Y20347D01*
X74022Y20951D01*
X74293Y21605D01*
X74458Y22294D01*
X74500Y23000D01*
X74458Y23706D01*
X74293Y24395D01*
X74022Y25049D01*
X73652Y25653D01*
X73192Y26192D01*
X72653Y26652D01*
X72049Y27022D01*
X71395Y27293D01*
X70706Y27458D01*
X70000Y27514D01*
X69993Y27513D01*
Y106033D01*
X70430Y106138D01*
X70866Y106319D01*
X71269Y106565D01*
X71628Y106872D01*
X71935Y107231D01*
X72181Y107634D01*
X72362Y108070D01*
X72472Y108529D01*
X72500Y109000D01*
X72472Y109471D01*
X72362Y109930D01*
X72181Y110366D01*
X71996Y110669D01*
X72070Y110638D01*
X72529Y110528D01*
X73000Y110491D01*
X73471Y110528D01*
X73930Y110638D01*
X74366Y110819D01*
X74769Y111065D01*
X75128Y111372D01*
X75435Y111731D01*
X75681Y112134D01*
X75862Y112570D01*
X75972Y113029D01*
X76000Y113500D01*
X75972Y113971D01*
X75862Y114430D01*
X75681Y114866D01*
X75435Y115269D01*
X75128Y115628D01*
X74769Y115935D01*
X74366Y116181D01*
X73930Y116362D01*
X73471Y116472D01*
X73000Y116509D01*
X72529Y116472D01*
X72070Y116362D01*
X71634Y116181D01*
X71231Y115935D01*
X70872Y115628D01*
X70565Y115269D01*
X70401Y115000D01*
X69993D01*
Y117036D01*
X70029Y117028D01*
X70500Y116991D01*
X70971Y117028D01*
X71430Y117138D01*
X71866Y117319D01*
X72269Y117565D01*
X72628Y117872D01*
X72935Y118231D01*
X73181Y118634D01*
X73362Y119070D01*
X73472Y119529D01*
X73500Y120000D01*
X73472Y120471D01*
X73362Y120930D01*
X73181Y121366D01*
X72935Y121769D01*
X72628Y122128D01*
X72269Y122435D01*
X71866Y122681D01*
X71430Y122862D01*
X70971Y122972D01*
X70500Y123009D01*
X70029Y122972D01*
X69993Y122964D01*
Y130487D01*
X70000Y130486D01*
X70706Y130542D01*
X71395Y130707D01*
X72049Y130978D01*
X72653Y131348D01*
X73192Y131808D01*
X73652Y132347D01*
X74022Y132951D01*
X74293Y133605D01*
X74458Y134294D01*
X74500Y135000D01*
X74458Y135706D01*
X74293Y136395D01*
X74022Y137049D01*
X73652Y137653D01*
X73192Y138192D01*
X72653Y138652D01*
X72049Y139022D01*
X71395Y139293D01*
X70706Y139458D01*
X70000Y139514D01*
X69993Y139513D01*
Y242611D01*
X70395Y242707D01*
X71049Y242978D01*
X71653Y243348D01*
X72192Y243808D01*
X72652Y244347D01*
X73022Y244951D01*
X73293Y245605D01*
X73458Y246294D01*
X73500Y247000D01*
X73458Y247706D01*
X73293Y248395D01*
X73022Y249049D01*
X72652Y249653D01*
X72192Y250192D01*
X71653Y250652D01*
X71049Y251022D01*
X70395Y251293D01*
X69993Y251389D01*
Y267500D01*
G37*
G36*
Y115000D02*X59745D01*
Y117500D01*
X68838D01*
X69134Y117319D01*
X69570Y117138D01*
X69993Y117036D01*
Y115000D01*
G37*
G36*
Y12500D02*X59745D01*
Y18506D01*
X60000Y18486D01*
X60706Y18542D01*
X61395Y18707D01*
X62049Y18978D01*
X62653Y19348D01*
X63192Y19808D01*
X63652Y20347D01*
X64022Y20951D01*
X64293Y21605D01*
X64458Y22294D01*
X64500Y23000D01*
X64458Y23706D01*
X64293Y24395D01*
X64022Y25049D01*
X63652Y25653D01*
X63192Y26192D01*
X62653Y26652D01*
X62049Y27022D01*
X61395Y27293D01*
X60706Y27458D01*
X60000Y27514D01*
X59745Y27494D01*
Y107500D01*
X66901D01*
X67065Y107231D01*
X67372Y106872D01*
X67731Y106565D01*
X68134Y106319D01*
X68570Y106138D01*
X69029Y106028D01*
X69500Y105991D01*
X69971Y106028D01*
X69993Y106033D01*
Y27513D01*
X69294Y27458D01*
X68605Y27293D01*
X67951Y27022D01*
X67347Y26652D01*
X66808Y26192D01*
X66348Y25653D01*
X65978Y25049D01*
X65707Y24395D01*
X65542Y23706D01*
X65486Y23000D01*
X65542Y22294D01*
X65707Y21605D01*
X65978Y20951D01*
X66348Y20347D01*
X66808Y19808D01*
X67347Y19348D01*
X67951Y18978D01*
X68605Y18707D01*
X69294Y18542D01*
X69993Y18487D01*
Y12500D01*
G37*
G36*
X59745Y267500D02*X69993D01*
Y251389D01*
X69706Y251458D01*
X69000Y251514D01*
X68294Y251458D01*
X67605Y251293D01*
X66951Y251022D01*
X66347Y250652D01*
X65808Y250192D01*
X65348Y249653D01*
X64978Y249049D01*
X64707Y248395D01*
X64542Y247706D01*
X64486Y247000D01*
X64542Y246294D01*
X64707Y245605D01*
X64978Y244951D01*
X65348Y244347D01*
X65808Y243808D01*
X66347Y243348D01*
X66951Y242978D01*
X67605Y242707D01*
X68294Y242542D01*
X69000Y242486D01*
X69706Y242542D01*
X69993Y242611D01*
Y139513D01*
X69294Y139458D01*
X68605Y139293D01*
X67951Y139022D01*
X67347Y138652D01*
X66808Y138192D01*
X66348Y137653D01*
X65978Y137049D01*
X65707Y136395D01*
X65542Y135706D01*
X65486Y135000D01*
X65542Y134294D01*
X65707Y133605D01*
X65978Y132951D01*
X66348Y132347D01*
X66808Y131808D01*
X67347Y131348D01*
X67951Y130978D01*
X68605Y130707D01*
X69294Y130542D01*
X69993Y130487D01*
Y122964D01*
X69570Y122862D01*
X69134Y122681D01*
X68838Y122500D01*
X59745D01*
Y242551D01*
X60395Y242707D01*
X61049Y242978D01*
X61653Y243348D01*
X62192Y243808D01*
X62652Y244347D01*
X63022Y244951D01*
X63293Y245605D01*
X63458Y246294D01*
X63500Y247000D01*
X63458Y247706D01*
X63293Y248395D01*
X63022Y249049D01*
X62652Y249653D01*
X62192Y250192D01*
X61653Y250652D01*
X61049Y251022D01*
X60395Y251293D01*
X59745Y251449D01*
Y267500D01*
G37*
G36*
Y115000D02*X56621D01*
X54599Y117022D01*
X55000Y116991D01*
X55471Y117028D01*
X55930Y117138D01*
X56366Y117319D01*
X56662Y117500D01*
X59745D01*
Y115000D01*
G37*
G36*
X48993Y114386D02*X55398Y107981D01*
X55436Y107936D01*
X55615Y107783D01*
X55616Y107783D01*
X55817Y107659D01*
X56035Y107569D01*
X56265Y107514D01*
X56500Y107495D01*
X56559Y107500D01*
X59745D01*
Y27494D01*
X59294Y27458D01*
X58605Y27293D01*
X57951Y27022D01*
X57347Y26652D01*
X56808Y26192D01*
X56348Y25653D01*
X55978Y25049D01*
X55707Y24395D01*
X55542Y23706D01*
X55486Y23000D01*
X55542Y22294D01*
X55707Y21605D01*
X55978Y20951D01*
X56348Y20347D01*
X56808Y19808D01*
X57347Y19348D01*
X57951Y18978D01*
X58605Y18707D01*
X59294Y18542D01*
X59745Y18506D01*
Y12500D01*
X48993D01*
Y18614D01*
X49294Y18542D01*
X50000Y18486D01*
X50706Y18542D01*
X51395Y18707D01*
X52049Y18978D01*
X52653Y19348D01*
X53192Y19808D01*
X53652Y20347D01*
X54022Y20951D01*
X54293Y21605D01*
X54458Y22294D01*
X54500Y23000D01*
X54458Y23706D01*
X54293Y24395D01*
X54022Y25049D01*
X53652Y25653D01*
X53192Y26192D01*
X52653Y26652D01*
X52049Y27022D01*
X51395Y27293D01*
X50706Y27458D01*
X50000Y27514D01*
X49294Y27458D01*
X48993Y27386D01*
Y114386D01*
G37*
G36*
Y267500D02*X59745D01*
Y251449D01*
X59706Y251458D01*
X59000Y251514D01*
X58294Y251458D01*
X57605Y251293D01*
X56951Y251022D01*
X56347Y250652D01*
X55808Y250192D01*
X55348Y249653D01*
X54978Y249049D01*
X54707Y248395D01*
X54542Y247706D01*
X54486Y247000D01*
X54542Y246294D01*
X54707Y245605D01*
X54978Y244951D01*
X55348Y244347D01*
X55808Y243808D01*
X56347Y243348D01*
X56951Y242978D01*
X57605Y242707D01*
X58294Y242542D01*
X59000Y242486D01*
X59706Y242542D01*
X59745Y242551D01*
Y122500D01*
X56662D01*
X56366Y122681D01*
X55930Y122862D01*
X55471Y122972D01*
X55000Y123009D01*
X54529Y122972D01*
X54070Y122862D01*
X53634Y122681D01*
X53231Y122435D01*
X52872Y122128D01*
X52565Y121769D01*
X52500Y121662D01*
Y123535D01*
X52529Y123528D01*
X53000Y123491D01*
X53471Y123528D01*
X53930Y123638D01*
X54366Y123819D01*
X54769Y124065D01*
X55128Y124372D01*
X55435Y124731D01*
X55681Y125134D01*
X55862Y125570D01*
X55972Y126029D01*
X56000Y126500D01*
X55972Y126971D01*
X55862Y127430D01*
X55681Y127866D01*
X55435Y128269D01*
X55128Y128628D01*
X54769Y128935D01*
X54366Y129181D01*
X53930Y129362D01*
X53471Y129472D01*
X53000Y129509D01*
X52529Y129472D01*
X52070Y129362D01*
X51634Y129181D01*
X51231Y128935D01*
X50872Y128628D01*
X50565Y128269D01*
X50319Y127866D01*
X50138Y127430D01*
X50028Y126971D01*
X49991Y126500D01*
X50028Y126029D01*
X50101Y125723D01*
X49981Y125602D01*
X49936Y125564D01*
X49783Y125384D01*
X49750Y125331D01*
X49717Y125384D01*
X49564Y125564D01*
X49519Y125602D01*
X49399Y125723D01*
X49472Y126029D01*
X49500Y126500D01*
X49472Y126971D01*
X49362Y127430D01*
X49181Y127866D01*
X48993Y128173D01*
Y242487D01*
X49000Y242486D01*
X49706Y242542D01*
X50395Y242707D01*
X51049Y242978D01*
X51653Y243348D01*
X52192Y243808D01*
X52652Y244347D01*
X53022Y244951D01*
X53293Y245605D01*
X53458Y246294D01*
X53500Y247000D01*
X53458Y247706D01*
X53293Y248395D01*
X53022Y249049D01*
X52652Y249653D01*
X52192Y250192D01*
X51653Y250652D01*
X51049Y251022D01*
X50395Y251293D01*
X49706Y251458D01*
X49000Y251514D01*
X48993Y251513D01*
Y267500D01*
G37*
G36*
X38993D02*X48993D01*
Y251513D01*
X48294Y251458D01*
X47605Y251293D01*
X46951Y251022D01*
X46347Y250652D01*
X45808Y250192D01*
X45348Y249653D01*
X44978Y249049D01*
X44707Y248395D01*
X44542Y247706D01*
X44486Y247000D01*
X44542Y246294D01*
X44707Y245605D01*
X44978Y244951D01*
X45348Y244347D01*
X45808Y243808D01*
X46347Y243348D01*
X46951Y242978D01*
X47605Y242707D01*
X48294Y242542D01*
X48993Y242487D01*
Y128173D01*
X48935Y128269D01*
X48628Y128628D01*
X48269Y128935D01*
X47866Y129181D01*
X47430Y129362D01*
X46971Y129472D01*
X46500Y129509D01*
X46029Y129472D01*
X45570Y129362D01*
X45134Y129181D01*
X44731Y128935D01*
X44372Y128628D01*
X44065Y128269D01*
X43819Y127866D01*
X43638Y127430D01*
X43528Y126971D01*
X43491Y126500D01*
X43528Y126029D01*
X43638Y125570D01*
X43819Y125134D01*
X44065Y124731D01*
X44372Y124372D01*
X44731Y124065D01*
X45134Y123819D01*
X45570Y123638D01*
X46029Y123528D01*
X46500Y123491D01*
X46971Y123528D01*
X47000Y123535D01*
Y117059D01*
X46995Y117000D01*
X47014Y116765D01*
X47069Y116535D01*
X47159Y116317D01*
X47283Y116116D01*
X47283Y116115D01*
X47436Y115936D01*
X47481Y115898D01*
X48993Y114386D01*
Y27386D01*
X48605Y27293D01*
X47951Y27022D01*
X47347Y26652D01*
X46808Y26192D01*
X46348Y25653D01*
X45978Y25049D01*
X45707Y24395D01*
X45542Y23706D01*
X45486Y23000D01*
X45542Y22294D01*
X45707Y21605D01*
X45978Y20951D01*
X46348Y20347D01*
X46808Y19808D01*
X47347Y19348D01*
X47951Y18978D01*
X48605Y18707D01*
X48993Y18614D01*
Y12500D01*
X38993D01*
Y242487D01*
X39000Y242486D01*
X39706Y242542D01*
X40395Y242707D01*
X41049Y242978D01*
X41653Y243348D01*
X42192Y243808D01*
X42652Y244347D01*
X43022Y244951D01*
X43293Y245605D01*
X43458Y246294D01*
X43500Y247000D01*
X43458Y247706D01*
X43293Y248395D01*
X43022Y249049D01*
X42652Y249653D01*
X42192Y250192D01*
X41653Y250652D01*
X41049Y251022D01*
X40395Y251293D01*
X39706Y251458D01*
X39000Y251514D01*
X38993Y251513D01*
Y267500D01*
G37*
G36*
X28993D02*X38993D01*
Y251513D01*
X38294Y251458D01*
X37605Y251293D01*
X36951Y251022D01*
X36347Y250652D01*
X35808Y250192D01*
X35348Y249653D01*
X34978Y249049D01*
X34707Y248395D01*
X34542Y247706D01*
X34486Y247000D01*
X34542Y246294D01*
X34707Y245605D01*
X34978Y244951D01*
X35348Y244347D01*
X35808Y243808D01*
X36347Y243348D01*
X36951Y242978D01*
X37605Y242707D01*
X38294Y242542D01*
X38993Y242487D01*
Y12500D01*
X38141D01*
X38109Y12635D01*
X37597Y13871D01*
X36898Y15012D01*
X36029Y16029D01*
X35012Y16898D01*
X33871Y17597D01*
X32635Y18109D01*
X31334Y18421D01*
X30000Y18526D01*
X28993Y18447D01*
Y242487D01*
X29000Y242486D01*
X29706Y242542D01*
X30395Y242707D01*
X31049Y242978D01*
X31653Y243348D01*
X32192Y243808D01*
X32652Y244347D01*
X33022Y244951D01*
X33293Y245605D01*
X33458Y246294D01*
X33500Y247000D01*
X33458Y247706D01*
X33293Y248395D01*
X33022Y249049D01*
X32652Y249653D01*
X32192Y250192D01*
X31653Y250652D01*
X31049Y251022D01*
X30395Y251293D01*
X29706Y251458D01*
X29000Y251514D01*
X28993Y251513D01*
Y267500D01*
G37*
G36*
X18993D02*X28993D01*
Y251513D01*
X28294Y251458D01*
X27605Y251293D01*
X26951Y251022D01*
X26347Y250652D01*
X25808Y250192D01*
X25348Y249653D01*
X24978Y249049D01*
X24707Y248395D01*
X24542Y247706D01*
X24486Y247000D01*
X24542Y246294D01*
X24707Y245605D01*
X24978Y244951D01*
X25348Y244347D01*
X25808Y243808D01*
X26347Y243348D01*
X26951Y242978D01*
X27605Y242707D01*
X28294Y242542D01*
X28993Y242487D01*
Y18447D01*
X28666Y18421D01*
X27365Y18109D01*
X26129Y17597D01*
X24988Y16898D01*
X23971Y16029D01*
X23102Y15012D01*
X22403Y13871D01*
X21891Y12635D01*
X21859Y12500D01*
X18993D01*
Y233491D01*
X19000Y233491D01*
X19471Y233528D01*
X19930Y233638D01*
X20366Y233819D01*
X20769Y234065D01*
X21128Y234372D01*
X21435Y234731D01*
X21681Y235134D01*
X21862Y235570D01*
X21972Y236029D01*
X22000Y236500D01*
X21972Y236971D01*
X21862Y237430D01*
X21681Y237866D01*
X21435Y238269D01*
X21128Y238628D01*
X20769Y238935D01*
X20500Y239099D01*
Y242751D01*
X21049Y242978D01*
X21653Y243348D01*
X22192Y243808D01*
X22652Y244347D01*
X23022Y244951D01*
X23293Y245605D01*
X23458Y246294D01*
X23500Y247000D01*
X23458Y247706D01*
X23293Y248395D01*
X23022Y249049D01*
X22652Y249653D01*
X22192Y250192D01*
X21653Y250652D01*
X21049Y251022D01*
X20395Y251293D01*
X19706Y251458D01*
X19000Y251514D01*
X18993Y251513D01*
Y267500D01*
G37*
G36*
X13964D02*X18993D01*
Y251513D01*
X18294Y251458D01*
X17605Y251293D01*
X16951Y251022D01*
X16347Y250652D01*
X15808Y250192D01*
X15348Y249653D01*
X14978Y249049D01*
X14707Y248395D01*
X14542Y247706D01*
X14486Y247000D01*
X14542Y246294D01*
X14707Y245605D01*
X14978Y244951D01*
X15348Y244347D01*
X15808Y243808D01*
X16347Y243348D01*
X16951Y242978D01*
X17500Y242751D01*
Y239099D01*
X17231Y238935D01*
X16872Y238628D01*
X16565Y238269D01*
X16319Y237866D01*
X16138Y237430D01*
X16028Y236971D01*
X15991Y236500D01*
X16028Y236029D01*
X16138Y235570D01*
X16319Y235134D01*
X16565Y234731D01*
X16872Y234372D01*
X17231Y234065D01*
X17634Y233819D01*
X18070Y233638D01*
X18529Y233528D01*
X18993Y233491D01*
Y12500D01*
X13964D01*
Y17096D01*
X13976Y17111D01*
X14379Y17769D01*
X14675Y18481D01*
X14855Y19231D01*
X14900Y20000D01*
X14855Y20769D01*
X14675Y21519D01*
X14379Y22231D01*
X13976Y22889D01*
X13964Y22904D01*
Y27096D01*
X13976Y27111D01*
X14379Y27769D01*
X14675Y28481D01*
X14855Y29231D01*
X14900Y30000D01*
X14855Y30769D01*
X14675Y31519D01*
X14379Y32231D01*
X13976Y32889D01*
X13964Y32904D01*
Y37096D01*
X13976Y37111D01*
X14379Y37769D01*
X14675Y38481D01*
X14855Y39231D01*
X14900Y40000D01*
X14855Y40769D01*
X14675Y41519D01*
X14379Y42231D01*
X13976Y42889D01*
X13964Y42904D01*
Y47096D01*
X13976Y47111D01*
X14379Y47769D01*
X14675Y48481D01*
X14855Y49231D01*
X14900Y50000D01*
X14855Y50769D01*
X14675Y51519D01*
X14379Y52231D01*
X13976Y52889D01*
X13964Y52904D01*
Y57564D01*
X14049Y57589D01*
X14155Y57639D01*
X14253Y57706D01*
X14339Y57787D01*
X14411Y57880D01*
X14466Y57984D01*
X14641Y58412D01*
X14770Y58855D01*
X14857Y59309D01*
X14900Y59769D01*
Y60231D01*
X14857Y60691D01*
X14770Y61145D01*
X14641Y61588D01*
X14471Y62018D01*
X14415Y62122D01*
X14342Y62216D01*
X14255Y62297D01*
X14157Y62364D01*
X14050Y62414D01*
X13964Y62440D01*
Y67096D01*
X13976Y67111D01*
X14379Y67769D01*
X14675Y68481D01*
X14855Y69231D01*
X14900Y70000D01*
X14855Y70769D01*
X14675Y71519D01*
X14379Y72231D01*
X13976Y72889D01*
X13964Y72904D01*
Y87096D01*
X13976Y87111D01*
X14379Y87769D01*
X14675Y88481D01*
X14855Y89231D01*
X14900Y90000D01*
X14855Y90769D01*
X14675Y91519D01*
X14379Y92231D01*
X13976Y92889D01*
X13964Y92904D01*
Y97564D01*
X14049Y97589D01*
X14155Y97639D01*
X14253Y97706D01*
X14339Y97787D01*
X14411Y97880D01*
X14466Y97984D01*
X14641Y98412D01*
X14770Y98855D01*
X14857Y99309D01*
X14900Y99769D01*
Y100231D01*
X14857Y100691D01*
X14770Y101145D01*
X14641Y101588D01*
X14471Y102018D01*
X14415Y102122D01*
X14342Y102216D01*
X14255Y102297D01*
X14157Y102364D01*
X14050Y102414D01*
X13964Y102440D01*
Y107564D01*
X14049Y107589D01*
X14155Y107639D01*
X14253Y107706D01*
X14339Y107787D01*
X14411Y107880D01*
X14466Y107984D01*
X14641Y108412D01*
X14770Y108855D01*
X14857Y109309D01*
X14900Y109769D01*
Y110231D01*
X14857Y110691D01*
X14770Y111145D01*
X14641Y111588D01*
X14471Y112018D01*
X14415Y112122D01*
X14342Y112216D01*
X14255Y112297D01*
X14157Y112364D01*
X14050Y112414D01*
X13964Y112440D01*
Y117096D01*
X13976Y117111D01*
X14379Y117769D01*
X14675Y118481D01*
X14855Y119231D01*
X14900Y120000D01*
X14855Y120769D01*
X14675Y121519D01*
X14379Y122231D01*
X13976Y122889D01*
X13964Y122904D01*
Y127096D01*
X13976Y127111D01*
X14379Y127769D01*
X14675Y128481D01*
X14855Y129231D01*
X14900Y130000D01*
X14855Y130769D01*
X14675Y131519D01*
X14379Y132231D01*
X13976Y132889D01*
X13964Y132904D01*
Y137096D01*
X13976Y137111D01*
X14379Y137769D01*
X14675Y138481D01*
X14855Y139231D01*
X14900Y140000D01*
X14855Y140769D01*
X14675Y141519D01*
X14379Y142231D01*
X13976Y142889D01*
X13964Y142904D01*
Y147096D01*
X13976Y147111D01*
X14379Y147769D01*
X14675Y148481D01*
X14855Y149231D01*
X14900Y150000D01*
X14855Y150769D01*
X14675Y151519D01*
X14379Y152231D01*
X13976Y152889D01*
X13964Y152904D01*
Y155210D01*
X14083Y155259D01*
X14284Y155383D01*
X14464Y155536D01*
X14617Y155716D01*
X14741Y155917D01*
X14831Y156135D01*
X14886Y156365D01*
X14900Y156600D01*
X14886Y163635D01*
X14831Y163865D01*
X14741Y164083D01*
X14617Y164284D01*
X14464Y164464D01*
X14284Y164617D01*
X14083Y164741D01*
X13964Y164790D01*
Y207460D01*
X15012Y208102D01*
X16029Y208971D01*
X16898Y209988D01*
X17597Y211129D01*
X18109Y212365D01*
X18421Y213666D01*
X18500Y215000D01*
X18421Y216334D01*
X18109Y217635D01*
X17597Y218871D01*
X16898Y220012D01*
X16029Y221029D01*
X15012Y221898D01*
X13964Y222540D01*
Y267500D01*
G37*
G36*
Y164790D02*X13865Y164831D01*
X13635Y164886D01*
X13400Y164900D01*
X9992Y164893D01*
Y206474D01*
X10000Y206474D01*
X11334Y206579D01*
X12635Y206891D01*
X13871Y207403D01*
X13964Y207460D01*
Y164790D01*
G37*
G36*
Y152904D02*X13476Y153476D01*
X12889Y153976D01*
X12231Y154379D01*
X11519Y154675D01*
X10769Y154855D01*
X10000Y154915D01*
X9992Y154915D01*
Y155107D01*
X13635Y155114D01*
X13865Y155169D01*
X13964Y155210D01*
Y152904D01*
G37*
G36*
Y142904D02*X13476Y143476D01*
X12889Y143976D01*
X12231Y144379D01*
X11519Y144675D01*
X10769Y144855D01*
X10000Y144915D01*
X9992Y144915D01*
Y145085D01*
X10000Y145085D01*
X10769Y145145D01*
X11519Y145325D01*
X12231Y145621D01*
X12889Y146024D01*
X13476Y146524D01*
X13964Y147096D01*
Y142904D01*
G37*
G36*
Y132904D02*X13476Y133476D01*
X12889Y133976D01*
X12231Y134379D01*
X11519Y134675D01*
X10769Y134855D01*
X10000Y134915D01*
X9992Y134915D01*
Y135085D01*
X10000Y135085D01*
X10769Y135145D01*
X11519Y135325D01*
X12231Y135621D01*
X12889Y136024D01*
X13476Y136524D01*
X13964Y137096D01*
Y132904D01*
G37*
G36*
Y122904D02*X13476Y123476D01*
X12889Y123976D01*
X12231Y124379D01*
X11519Y124675D01*
X10769Y124855D01*
X10000Y124915D01*
X9992Y124915D01*
Y125085D01*
X10000Y125085D01*
X10769Y125145D01*
X11519Y125325D01*
X12231Y125621D01*
X12889Y126024D01*
X13476Y126524D01*
X13964Y127096D01*
Y122904D01*
G37*
G36*
Y92904D02*X13476Y93476D01*
X12889Y93976D01*
X12231Y94379D01*
X11519Y94675D01*
X10769Y94855D01*
X10000Y94915D01*
X9992Y94915D01*
Y95100D01*
X10231D01*
X10691Y95143D01*
X11145Y95230D01*
X11588Y95359D01*
X12018Y95529D01*
X12122Y95585D01*
X12216Y95658D01*
X12297Y95745D01*
X12364Y95843D01*
X12414Y95950D01*
X12448Y96064D01*
X12462Y96182D01*
X12459Y96300D01*
X12436Y96417D01*
X12396Y96528D01*
X12339Y96632D01*
X12266Y96726D01*
X12180Y96807D01*
X12082Y96874D01*
X11975Y96925D01*
X11861Y96958D01*
X11743Y96973D01*
X11624Y96969D01*
X11508Y96947D01*
X11397Y96904D01*
X11101Y96783D01*
X10793Y96694D01*
X10479Y96634D01*
X10160Y96604D01*
X9992D01*
Y103396D01*
X10160D01*
X10479Y103366D01*
X10793Y103306D01*
X11101Y103217D01*
X11399Y103099D01*
X11509Y103057D01*
X11625Y103035D01*
X11743Y103031D01*
X11860Y103046D01*
X11973Y103079D01*
X12080Y103129D01*
X12178Y103196D01*
X12264Y103276D01*
X12336Y103370D01*
X12393Y103473D01*
X12433Y103584D01*
X12455Y103700D01*
X12459Y103818D01*
X12444Y103935D01*
X12411Y104049D01*
X12361Y104155D01*
X12294Y104253D01*
X12213Y104339D01*
X12120Y104411D01*
X12016Y104466D01*
X11588Y104641D01*
X11145Y104770D01*
X10691Y104857D01*
X10231Y104900D01*
X9992D01*
Y105100D01*
X10231D01*
X10691Y105143D01*
X11145Y105230D01*
X11588Y105359D01*
X12018Y105529D01*
X12122Y105585D01*
X12216Y105658D01*
X12297Y105745D01*
X12364Y105843D01*
X12414Y105950D01*
X12448Y106064D01*
X12462Y106182D01*
X12459Y106300D01*
X12436Y106417D01*
X12396Y106528D01*
X12339Y106632D01*
X12266Y106726D01*
X12180Y106807D01*
X12082Y106874D01*
X11975Y106925D01*
X11861Y106958D01*
X11743Y106973D01*
X11624Y106969D01*
X11508Y106947D01*
X11397Y106904D01*
X11101Y106783D01*
X10793Y106694D01*
X10479Y106634D01*
X10160Y106604D01*
X9992D01*
Y113396D01*
X10160D01*
X10479Y113366D01*
X10793Y113306D01*
X11101Y113217D01*
X11399Y113099D01*
X11509Y113057D01*
X11625Y113035D01*
X11743Y113031D01*
X11860Y113046D01*
X11973Y113079D01*
X12080Y113129D01*
X12178Y113196D01*
X12264Y113276D01*
X12336Y113370D01*
X12393Y113473D01*
X12433Y113584D01*
X12455Y113700D01*
X12459Y113818D01*
X12444Y113935D01*
X12411Y114049D01*
X12361Y114155D01*
X12294Y114253D01*
X12213Y114339D01*
X12120Y114411D01*
X12016Y114466D01*
X11588Y114641D01*
X11145Y114770D01*
X10691Y114857D01*
X10231Y114900D01*
X9992D01*
Y115085D01*
X10000Y115085D01*
X10769Y115145D01*
X11519Y115325D01*
X12231Y115621D01*
X12889Y116024D01*
X13476Y116524D01*
X13964Y117096D01*
Y112440D01*
X13936Y112448D01*
X13818Y112462D01*
X13700Y112459D01*
X13583Y112437D01*
X13472Y112396D01*
X13368Y112339D01*
X13274Y112266D01*
X13193Y112180D01*
X13126Y112082D01*
X13075Y111975D01*
X13042Y111861D01*
X13027Y111743D01*
X13031Y111624D01*
X13053Y111508D01*
X13096Y111397D01*
X13217Y111101D01*
X13306Y110793D01*
X13366Y110479D01*
X13396Y110160D01*
Y109840D01*
X13366Y109521D01*
X13306Y109207D01*
X13217Y108899D01*
X13099Y108601D01*
X13057Y108491D01*
X13035Y108375D01*
X13031Y108257D01*
X13046Y108140D01*
X13079Y108027D01*
X13129Y107920D01*
X13196Y107822D01*
X13276Y107736D01*
X13370Y107664D01*
X13473Y107607D01*
X13584Y107567D01*
X13700Y107545D01*
X13818Y107541D01*
X13935Y107556D01*
X13964Y107564D01*
Y102440D01*
X13936Y102448D01*
X13818Y102462D01*
X13700Y102459D01*
X13583Y102437D01*
X13472Y102396D01*
X13368Y102339D01*
X13274Y102266D01*
X13193Y102180D01*
X13126Y102082D01*
X13075Y101975D01*
X13042Y101861D01*
X13027Y101743D01*
X13031Y101624D01*
X13053Y101508D01*
X13096Y101397D01*
X13217Y101101D01*
X13306Y100793D01*
X13366Y100479D01*
X13396Y100160D01*
Y99840D01*
X13366Y99521D01*
X13306Y99207D01*
X13217Y98899D01*
X13099Y98601D01*
X13057Y98491D01*
X13035Y98375D01*
X13031Y98257D01*
X13046Y98140D01*
X13079Y98027D01*
X13129Y97920D01*
X13196Y97822D01*
X13276Y97736D01*
X13370Y97664D01*
X13473Y97607D01*
X13584Y97567D01*
X13700Y97545D01*
X13818Y97541D01*
X13935Y97556D01*
X13964Y97564D01*
Y92904D01*
G37*
G36*
Y72904D02*X13476Y73476D01*
X12889Y73976D01*
X12231Y74379D01*
X11519Y74675D01*
X10769Y74855D01*
X10000Y74915D01*
X9992Y74915D01*
Y85085D01*
X10000Y85085D01*
X10769Y85145D01*
X11519Y85325D01*
X12231Y85621D01*
X12889Y86024D01*
X13476Y86524D01*
X13964Y87096D01*
Y72904D01*
G37*
G36*
Y52904D02*X13476Y53476D01*
X12889Y53976D01*
X12231Y54379D01*
X11519Y54675D01*
X10769Y54855D01*
X10000Y54915D01*
X9992Y54915D01*
Y55100D01*
X10231D01*
X10691Y55143D01*
X11145Y55230D01*
X11588Y55359D01*
X12018Y55529D01*
X12122Y55585D01*
X12216Y55658D01*
X12297Y55745D01*
X12364Y55843D01*
X12414Y55950D01*
X12448Y56064D01*
X12462Y56182D01*
X12459Y56300D01*
X12436Y56417D01*
X12396Y56528D01*
X12339Y56632D01*
X12266Y56726D01*
X12180Y56807D01*
X12082Y56874D01*
X11975Y56925D01*
X11861Y56958D01*
X11743Y56973D01*
X11624Y56969D01*
X11508Y56947D01*
X11397Y56904D01*
X11101Y56783D01*
X10793Y56694D01*
X10479Y56634D01*
X10160Y56604D01*
X9992D01*
Y63396D01*
X10160D01*
X10479Y63366D01*
X10793Y63306D01*
X11101Y63217D01*
X11399Y63099D01*
X11509Y63057D01*
X11625Y63035D01*
X11743Y63031D01*
X11860Y63046D01*
X11973Y63079D01*
X12080Y63129D01*
X12178Y63196D01*
X12264Y63276D01*
X12336Y63370D01*
X12393Y63473D01*
X12433Y63584D01*
X12455Y63700D01*
X12459Y63818D01*
X12444Y63935D01*
X12411Y64049D01*
X12361Y64155D01*
X12294Y64253D01*
X12213Y64339D01*
X12120Y64411D01*
X12016Y64466D01*
X11588Y64641D01*
X11145Y64770D01*
X10691Y64857D01*
X10231Y64900D01*
X9992D01*
Y65085D01*
X10000Y65085D01*
X10769Y65145D01*
X11519Y65325D01*
X12231Y65621D01*
X12889Y66024D01*
X13476Y66524D01*
X13964Y67096D01*
Y62440D01*
X13936Y62448D01*
X13818Y62462D01*
X13700Y62459D01*
X13583Y62437D01*
X13472Y62396D01*
X13368Y62339D01*
X13274Y62266D01*
X13193Y62180D01*
X13126Y62082D01*
X13075Y61975D01*
X13042Y61861D01*
X13027Y61743D01*
X13031Y61624D01*
X13053Y61508D01*
X13096Y61397D01*
X13217Y61101D01*
X13306Y60793D01*
X13366Y60479D01*
X13396Y60160D01*
Y59840D01*
X13366Y59521D01*
X13306Y59207D01*
X13217Y58899D01*
X13099Y58601D01*
X13057Y58491D01*
X13035Y58375D01*
X13031Y58257D01*
X13046Y58140D01*
X13079Y58027D01*
X13129Y57920D01*
X13196Y57822D01*
X13276Y57736D01*
X13370Y57664D01*
X13473Y57607D01*
X13584Y57567D01*
X13700Y57545D01*
X13818Y57541D01*
X13935Y57556D01*
X13964Y57564D01*
Y52904D01*
G37*
G36*
Y42904D02*X13476Y43476D01*
X12889Y43976D01*
X12231Y44379D01*
X11519Y44675D01*
X10769Y44855D01*
X10000Y44915D01*
X9992Y44915D01*
Y45085D01*
X10000Y45085D01*
X10769Y45145D01*
X11519Y45325D01*
X12231Y45621D01*
X12889Y46024D01*
X13476Y46524D01*
X13964Y47096D01*
Y42904D01*
G37*
G36*
Y32904D02*X13476Y33476D01*
X12889Y33976D01*
X12231Y34379D01*
X11519Y34675D01*
X10769Y34855D01*
X10000Y34915D01*
X9992Y34915D01*
Y35085D01*
X10000Y35085D01*
X10769Y35145D01*
X11519Y35325D01*
X12231Y35621D01*
X12889Y36024D01*
X13476Y36524D01*
X13964Y37096D01*
Y32904D01*
G37*
G36*
Y22904D02*X13476Y23476D01*
X12889Y23976D01*
X12231Y24379D01*
X11519Y24675D01*
X10769Y24855D01*
X10000Y24915D01*
X9992Y24915D01*
Y25085D01*
X10000Y25085D01*
X10769Y25145D01*
X11519Y25325D01*
X12231Y25621D01*
X12889Y26024D01*
X13476Y26524D01*
X13964Y27096D01*
Y22904D01*
G37*
G36*
Y12500D02*X9992D01*
Y15085D01*
X10000Y15085D01*
X10769Y15145D01*
X11519Y15325D01*
X12231Y15621D01*
X12889Y16024D01*
X13476Y16524D01*
X13964Y17096D01*
Y12500D01*
G37*
G36*
X9992Y267500D02*X13964D01*
Y222540D01*
X13871Y222597D01*
X12635Y223109D01*
X11334Y223421D01*
X10000Y223526D01*
X9992Y223526D01*
Y242610D01*
X10395Y242707D01*
X11049Y242978D01*
X11653Y243348D01*
X12192Y243808D01*
X12652Y244347D01*
X13022Y244951D01*
X13293Y245605D01*
X13458Y246294D01*
X13500Y247000D01*
X13458Y247706D01*
X13293Y248395D01*
X13022Y249049D01*
X12652Y249653D01*
X12192Y250192D01*
X11653Y250652D01*
X11049Y251022D01*
X10395Y251293D01*
X9992Y251390D01*
Y267500D01*
G37*
G36*
X6036Y27096D02*X6524Y26524D01*
X7111Y26024D01*
X7769Y25621D01*
X8481Y25325D01*
X9231Y25145D01*
X9992Y25085D01*
Y24915D01*
X9231Y24855D01*
X8481Y24675D01*
X7769Y24379D01*
X7111Y23976D01*
X6524Y23476D01*
X6036Y22904D01*
Y27096D01*
G37*
G36*
Y37096D02*X6524Y36524D01*
X7111Y36024D01*
X7769Y35621D01*
X8481Y35325D01*
X9231Y35145D01*
X9992Y35085D01*
Y34915D01*
X9231Y34855D01*
X8481Y34675D01*
X7769Y34379D01*
X7111Y33976D01*
X6524Y33476D01*
X6036Y32904D01*
Y37096D01*
G37*
G36*
Y47096D02*X6524Y46524D01*
X7111Y46024D01*
X7769Y45621D01*
X8481Y45325D01*
X9231Y45145D01*
X9992Y45085D01*
Y44915D01*
X9231Y44855D01*
X8481Y44675D01*
X7769Y44379D01*
X7111Y43976D01*
X6524Y43476D01*
X6036Y42904D01*
Y47096D01*
G37*
G36*
Y67096D02*X6524Y66524D01*
X7111Y66024D01*
X7769Y65621D01*
X8481Y65325D01*
X9231Y65145D01*
X9992Y65085D01*
Y64900D01*
X9769D01*
X9309Y64857D01*
X8855Y64770D01*
X8412Y64641D01*
X7982Y64471D01*
X7878Y64415D01*
X7784Y64342D01*
X7703Y64255D01*
X7636Y64157D01*
X7586Y64050D01*
X7552Y63936D01*
X7538Y63818D01*
X7541Y63700D01*
X7563Y63583D01*
X7604Y63472D01*
X7661Y63368D01*
X7734Y63274D01*
X7820Y63193D01*
X7918Y63126D01*
X8025Y63075D01*
X8139Y63042D01*
X8257Y63027D01*
X8376Y63031D01*
X8492Y63053D01*
X8603Y63096D01*
X8899Y63217D01*
X9207Y63306D01*
X9521Y63366D01*
X9840Y63396D01*
X9992D01*
Y56604D01*
X9840D01*
X9521Y56634D01*
X9207Y56694D01*
X8899Y56783D01*
X8601Y56901D01*
X8491Y56943D01*
X8375Y56965D01*
X8257Y56969D01*
X8140Y56954D01*
X8027Y56921D01*
X7920Y56871D01*
X7822Y56804D01*
X7736Y56724D01*
X7664Y56630D01*
X7607Y56527D01*
X7567Y56416D01*
X7545Y56300D01*
X7541Y56182D01*
X7556Y56065D01*
X7589Y55951D01*
X7639Y55845D01*
X7706Y55747D01*
X7787Y55661D01*
X7880Y55589D01*
X7984Y55534D01*
X8412Y55359D01*
X8855Y55230D01*
X9309Y55143D01*
X9769Y55100D01*
X9992D01*
Y54915D01*
X9231Y54855D01*
X8481Y54675D01*
X7769Y54379D01*
X7111Y53976D01*
X6524Y53476D01*
X6036Y52904D01*
Y57560D01*
X6064Y57552D01*
X6182Y57538D01*
X6300Y57541D01*
X6417Y57564D01*
X6528Y57604D01*
X6632Y57661D01*
X6726Y57734D01*
X6807Y57820D01*
X6874Y57918D01*
X6925Y58025D01*
X6958Y58139D01*
X6973Y58257D01*
X6969Y58376D01*
X6947Y58492D01*
X6904Y58603D01*
X6783Y58899D01*
X6694Y59207D01*
X6634Y59521D01*
X6604Y59840D01*
Y60160D01*
X6634Y60479D01*
X6694Y60793D01*
X6783Y61101D01*
X6901Y61399D01*
X6943Y61509D01*
X6965Y61625D01*
X6969Y61743D01*
X6954Y61860D01*
X6921Y61973D01*
X6871Y62080D01*
X6804Y62178D01*
X6724Y62264D01*
X6630Y62336D01*
X6527Y62393D01*
X6416Y62433D01*
X6300Y62455D01*
X6182Y62459D01*
X6065Y62444D01*
X6036Y62436D01*
Y67096D01*
G37*
G36*
Y87096D02*X6524Y86524D01*
X7111Y86024D01*
X7769Y85621D01*
X8481Y85325D01*
X9231Y85145D01*
X9992Y85085D01*
Y74915D01*
X9231Y74855D01*
X8481Y74675D01*
X7769Y74379D01*
X7111Y73976D01*
X6524Y73476D01*
X6036Y72904D01*
Y87096D01*
G37*
G36*
Y117096D02*X6524Y116524D01*
X7111Y116024D01*
X7769Y115621D01*
X8481Y115325D01*
X9231Y115145D01*
X9992Y115085D01*
Y114900D01*
X9769D01*
X9309Y114857D01*
X8855Y114770D01*
X8412Y114641D01*
X7982Y114471D01*
X7878Y114415D01*
X7784Y114342D01*
X7703Y114255D01*
X7636Y114157D01*
X7586Y114050D01*
X7552Y113936D01*
X7538Y113818D01*
X7541Y113700D01*
X7563Y113583D01*
X7604Y113472D01*
X7661Y113368D01*
X7734Y113274D01*
X7820Y113193D01*
X7918Y113126D01*
X8025Y113075D01*
X8139Y113042D01*
X8257Y113027D01*
X8376Y113031D01*
X8492Y113053D01*
X8603Y113096D01*
X8899Y113217D01*
X9207Y113306D01*
X9521Y113366D01*
X9840Y113396D01*
X9992D01*
Y106604D01*
X9840D01*
X9521Y106634D01*
X9207Y106694D01*
X8899Y106783D01*
X8601Y106901D01*
X8491Y106943D01*
X8375Y106965D01*
X8257Y106969D01*
X8140Y106954D01*
X8027Y106921D01*
X7920Y106871D01*
X7822Y106804D01*
X7736Y106724D01*
X7664Y106630D01*
X7607Y106527D01*
X7567Y106416D01*
X7545Y106300D01*
X7541Y106182D01*
X7556Y106065D01*
X7589Y105951D01*
X7639Y105845D01*
X7706Y105747D01*
X7787Y105661D01*
X7880Y105589D01*
X7984Y105534D01*
X8412Y105359D01*
X8855Y105230D01*
X9309Y105143D01*
X9769Y105100D01*
X9992D01*
Y104900D01*
X9769D01*
X9309Y104857D01*
X8855Y104770D01*
X8412Y104641D01*
X7982Y104471D01*
X7878Y104415D01*
X7784Y104342D01*
X7703Y104255D01*
X7636Y104157D01*
X7586Y104050D01*
X7552Y103936D01*
X7538Y103818D01*
X7541Y103700D01*
X7563Y103583D01*
X7604Y103472D01*
X7661Y103368D01*
X7734Y103274D01*
X7820Y103193D01*
X7918Y103126D01*
X8025Y103075D01*
X8139Y103042D01*
X8257Y103027D01*
X8376Y103031D01*
X8492Y103053D01*
X8603Y103096D01*
X8899Y103217D01*
X9207Y103306D01*
X9521Y103366D01*
X9840Y103396D01*
X9992D01*
Y96604D01*
X9840D01*
X9521Y96634D01*
X9207Y96694D01*
X8899Y96783D01*
X8601Y96901D01*
X8491Y96943D01*
X8375Y96965D01*
X8257Y96969D01*
X8140Y96954D01*
X8027Y96921D01*
X7920Y96871D01*
X7822Y96804D01*
X7736Y96724D01*
X7664Y96630D01*
X7607Y96527D01*
X7567Y96416D01*
X7545Y96300D01*
X7541Y96182D01*
X7556Y96065D01*
X7589Y95951D01*
X7639Y95845D01*
X7706Y95747D01*
X7787Y95661D01*
X7880Y95589D01*
X7984Y95534D01*
X8412Y95359D01*
X8855Y95230D01*
X9309Y95143D01*
X9769Y95100D01*
X9992D01*
Y94915D01*
X9231Y94855D01*
X8481Y94675D01*
X7769Y94379D01*
X7111Y93976D01*
X6524Y93476D01*
X6036Y92904D01*
Y97560D01*
X6064Y97552D01*
X6182Y97538D01*
X6300Y97541D01*
X6417Y97564D01*
X6528Y97604D01*
X6632Y97661D01*
X6726Y97734D01*
X6807Y97820D01*
X6874Y97918D01*
X6925Y98025D01*
X6958Y98139D01*
X6973Y98257D01*
X6969Y98376D01*
X6947Y98492D01*
X6904Y98603D01*
X6783Y98899D01*
X6694Y99207D01*
X6634Y99521D01*
X6604Y99840D01*
Y100160D01*
X6634Y100479D01*
X6694Y100793D01*
X6783Y101101D01*
X6901Y101399D01*
X6943Y101509D01*
X6965Y101625D01*
X6969Y101743D01*
X6954Y101860D01*
X6921Y101973D01*
X6871Y102080D01*
X6804Y102178D01*
X6724Y102264D01*
X6630Y102336D01*
X6527Y102393D01*
X6416Y102433D01*
X6300Y102455D01*
X6182Y102459D01*
X6065Y102444D01*
X6036Y102436D01*
Y107560D01*
X6064Y107552D01*
X6182Y107538D01*
X6300Y107541D01*
X6417Y107564D01*
X6528Y107604D01*
X6632Y107661D01*
X6726Y107734D01*
X6807Y107820D01*
X6874Y107918D01*
X6925Y108025D01*
X6958Y108139D01*
X6973Y108257D01*
X6969Y108376D01*
X6947Y108492D01*
X6904Y108603D01*
X6783Y108899D01*
X6694Y109207D01*
X6634Y109521D01*
X6604Y109840D01*
Y110160D01*
X6634Y110479D01*
X6694Y110793D01*
X6783Y111101D01*
X6901Y111399D01*
X6943Y111509D01*
X6965Y111625D01*
X6969Y111743D01*
X6954Y111860D01*
X6921Y111973D01*
X6871Y112080D01*
X6804Y112178D01*
X6724Y112264D01*
X6630Y112336D01*
X6527Y112393D01*
X6416Y112433D01*
X6300Y112455D01*
X6182Y112459D01*
X6065Y112444D01*
X6036Y112436D01*
Y117096D01*
G37*
G36*
Y127096D02*X6524Y126524D01*
X7111Y126024D01*
X7769Y125621D01*
X8481Y125325D01*
X9231Y125145D01*
X9992Y125085D01*
Y124915D01*
X9231Y124855D01*
X8481Y124675D01*
X7769Y124379D01*
X7111Y123976D01*
X6524Y123476D01*
X6036Y122904D01*
Y127096D01*
G37*
G36*
Y137096D02*X6524Y136524D01*
X7111Y136024D01*
X7769Y135621D01*
X8481Y135325D01*
X9231Y135145D01*
X9992Y135085D01*
Y134915D01*
X9231Y134855D01*
X8481Y134675D01*
X7769Y134379D01*
X7111Y133976D01*
X6524Y133476D01*
X6036Y132904D01*
Y137096D01*
G37*
G36*
Y147096D02*X6524Y146524D01*
X7111Y146024D01*
X7769Y145621D01*
X8481Y145325D01*
X9231Y145145D01*
X9992Y145085D01*
Y144915D01*
X9231Y144855D01*
X8481Y144675D01*
X7769Y144379D01*
X7111Y143976D01*
X6524Y143476D01*
X6036Y142904D01*
Y147096D01*
G37*
G36*
Y155210D02*X6135Y155169D01*
X6365Y155114D01*
X6600Y155100D01*
X9992Y155107D01*
Y154915D01*
X9231Y154855D01*
X8481Y154675D01*
X7769Y154379D01*
X7111Y153976D01*
X6524Y153476D01*
X6036Y152904D01*
Y155210D01*
G37*
G36*
Y207460D02*X6129Y207403D01*
X7365Y206891D01*
X8666Y206579D01*
X9992Y206474D01*
Y164893D01*
X6365Y164886D01*
X6135Y164831D01*
X6036Y164790D01*
Y207460D01*
G37*
G36*
X9992Y12500D02*X6036D01*
Y17096D01*
X6524Y16524D01*
X7111Y16024D01*
X7769Y15621D01*
X8481Y15325D01*
X9231Y15145D01*
X9992Y15085D01*
Y12500D01*
G37*
G36*
X6036D02*X2500D01*
Y210971D01*
X3102Y209988D01*
X3971Y208971D01*
X4988Y208102D01*
X6036Y207460D01*
Y164790D01*
X5917Y164741D01*
X5716Y164617D01*
X5536Y164464D01*
X5383Y164284D01*
X5259Y164083D01*
X5169Y163865D01*
X5114Y163635D01*
X5100Y163400D01*
X5114Y156365D01*
X5169Y156135D01*
X5259Y155917D01*
X5383Y155716D01*
X5536Y155536D01*
X5716Y155383D01*
X5917Y155259D01*
X6036Y155210D01*
Y152904D01*
X6024Y152889D01*
X5621Y152231D01*
X5325Y151519D01*
X5145Y150769D01*
X5085Y150000D01*
X5145Y149231D01*
X5325Y148481D01*
X5621Y147769D01*
X6024Y147111D01*
X6036Y147096D01*
Y142904D01*
X6024Y142889D01*
X5621Y142231D01*
X5325Y141519D01*
X5145Y140769D01*
X5085Y140000D01*
X5145Y139231D01*
X5325Y138481D01*
X5621Y137769D01*
X6024Y137111D01*
X6036Y137096D01*
Y132904D01*
X6024Y132889D01*
X5621Y132231D01*
X5325Y131519D01*
X5145Y130769D01*
X5085Y130000D01*
X5145Y129231D01*
X5325Y128481D01*
X5621Y127769D01*
X6024Y127111D01*
X6036Y127096D01*
Y122904D01*
X6024Y122889D01*
X5621Y122231D01*
X5325Y121519D01*
X5145Y120769D01*
X5085Y120000D01*
X5145Y119231D01*
X5325Y118481D01*
X5621Y117769D01*
X6024Y117111D01*
X6036Y117096D01*
Y112436D01*
X5951Y112411D01*
X5845Y112361D01*
X5747Y112294D01*
X5661Y112213D01*
X5589Y112120D01*
X5534Y112016D01*
X5359Y111588D01*
X5230Y111145D01*
X5143Y110691D01*
X5100Y110231D01*
Y109769D01*
X5143Y109309D01*
X5230Y108855D01*
X5359Y108412D01*
X5529Y107982D01*
X5585Y107878D01*
X5658Y107784D01*
X5745Y107703D01*
X5843Y107636D01*
X5950Y107586D01*
X6036Y107560D01*
Y102436D01*
X5951Y102411D01*
X5845Y102361D01*
X5747Y102294D01*
X5661Y102213D01*
X5589Y102120D01*
X5534Y102016D01*
X5359Y101588D01*
X5230Y101145D01*
X5143Y100691D01*
X5100Y100231D01*
Y99769D01*
X5143Y99309D01*
X5230Y98855D01*
X5359Y98412D01*
X5529Y97982D01*
X5585Y97878D01*
X5658Y97784D01*
X5745Y97703D01*
X5843Y97636D01*
X5950Y97586D01*
X6036Y97560D01*
Y92904D01*
X6024Y92889D01*
X5621Y92231D01*
X5325Y91519D01*
X5145Y90769D01*
X5085Y90000D01*
X5145Y89231D01*
X5325Y88481D01*
X5621Y87769D01*
X6024Y87111D01*
X6036Y87096D01*
Y72904D01*
X6024Y72889D01*
X5621Y72231D01*
X5325Y71519D01*
X5145Y70769D01*
X5085Y70000D01*
X5145Y69231D01*
X5325Y68481D01*
X5621Y67769D01*
X6024Y67111D01*
X6036Y67096D01*
Y62436D01*
X5951Y62411D01*
X5845Y62361D01*
X5747Y62294D01*
X5661Y62213D01*
X5589Y62120D01*
X5534Y62016D01*
X5359Y61588D01*
X5230Y61145D01*
X5143Y60691D01*
X5100Y60231D01*
Y59769D01*
X5143Y59309D01*
X5230Y58855D01*
X5359Y58412D01*
X5529Y57982D01*
X5585Y57878D01*
X5658Y57784D01*
X5745Y57703D01*
X5843Y57636D01*
X5950Y57586D01*
X6036Y57560D01*
Y52904D01*
X6024Y52889D01*
X5621Y52231D01*
X5325Y51519D01*
X5145Y50769D01*
X5085Y50000D01*
X5145Y49231D01*
X5325Y48481D01*
X5621Y47769D01*
X6024Y47111D01*
X6036Y47096D01*
Y42904D01*
X6024Y42889D01*
X5621Y42231D01*
X5325Y41519D01*
X5145Y40769D01*
X5085Y40000D01*
X5145Y39231D01*
X5325Y38481D01*
X5621Y37769D01*
X6024Y37111D01*
X6036Y37096D01*
Y32904D01*
X6024Y32889D01*
X5621Y32231D01*
X5325Y31519D01*
X5145Y30769D01*
X5085Y30000D01*
X5145Y29231D01*
X5325Y28481D01*
X5621Y27769D01*
X6024Y27111D01*
X6036Y27096D01*
Y22904D01*
X6024Y22889D01*
X5621Y22231D01*
X5325Y21519D01*
X5145Y20769D01*
X5085Y20000D01*
X5145Y19231D01*
X5325Y18481D01*
X5621Y17769D01*
X6024Y17111D01*
X6036Y17096D01*
Y12500D01*
G37*
G36*
X2500Y267500D02*X9992D01*
Y251390D01*
X9706Y251458D01*
X9000Y251514D01*
X8294Y251458D01*
X7605Y251293D01*
X6951Y251022D01*
X6347Y250652D01*
X5808Y250192D01*
X5348Y249653D01*
X4978Y249049D01*
X4707Y248395D01*
X4542Y247706D01*
X4486Y247000D01*
X4542Y246294D01*
X4707Y245605D01*
X4978Y244951D01*
X5348Y244347D01*
X5808Y243808D01*
X6347Y243348D01*
X6951Y242978D01*
X7605Y242707D01*
X8294Y242542D01*
X9000Y242486D01*
X9706Y242542D01*
X9992Y242610D01*
Y223526D01*
X8666Y223421D01*
X7365Y223109D01*
X6129Y222597D01*
X4988Y221898D01*
X3971Y221029D01*
X3102Y220012D01*
X2500Y219029D01*
Y267500D01*
G37*
G54D34*X85000Y204500D02*X121000D01*
G54D35*X75500Y193300D02*X97500D01*
X19000Y236500D02*Y247000D01*
X107000Y131500D02*X99000D01*
G54D34*X114500Y127000D02*X92500D01*
X70500Y120000D02*X55000D01*
X114500Y144000D02*Y204500D01*
G54D35*X73000Y113500D02*X56000D01*
X51000Y118500D01*
Y124500D02*X53000Y126500D01*
X48500Y124500D02*X46500Y126500D01*
X51000Y118500D02*Y124500D01*
X48500D02*Y117000D01*
X69500Y109000D02*X56500D01*
X48500Y117000D01*
G54D33*G36*
X196600Y23400D02*Y16600D01*
X203400D01*
Y23400D01*
X196600D01*
G37*
G54D36*X200000Y30000D03*
Y40000D03*
Y70000D03*
X10000Y130000D03*
Y120000D03*
Y110000D03*
Y100000D03*
G54D37*X70000Y135000D03*
G54D33*G36*
X6600Y163400D02*Y156600D01*
X13400D01*
Y163400D01*
X6600D01*
G37*
G54D36*X10000Y150000D03*
Y140000D03*
Y90000D03*
X200000Y80000D03*
Y90000D03*
Y106000D03*
Y116000D03*
Y126000D03*
Y136000D03*
Y146000D03*
Y156000D03*
Y166000D03*
Y176000D03*
Y186000D03*
Y196000D03*
G54D38*Y210000D03*
G54D36*Y50000D03*
G54D37*X128500D03*
X148500D03*
X168500D03*
G54D36*X200000Y60000D03*
G54D37*X128500D03*
X148500D03*
X168500D03*
G54D38*X140000Y10000D03*
G54D37*X145000Y133500D03*
X155000D03*
X165000D03*
X175000D03*
X128500Y70000D03*
Y80000D03*
X148500Y70000D03*
Y80000D03*
X168500Y70000D03*
Y80000D03*
X120000Y23000D03*
X110000D03*
X100000D03*
X90000D03*
X80000D03*
G54D38*X10000Y215000D03*
G54D37*X117500Y247000D03*
X79000D03*
X69000D03*
X59000D03*
X49000D03*
X39000D03*
X29000D03*
X19000D03*
X9000D03*
G54D36*X10000Y70000D03*
Y60000D03*
Y50000D03*
Y40000D03*
Y30000D03*
Y20000D03*
G54D38*X30000Y10000D03*
G54D37*X70000Y23000D03*
X60000D03*
X50000D03*
G54D39*X107000Y131500D03*
X112000Y119500D03*
X117000D03*
X114500Y127000D03*
X121500Y141500D03*
X114500Y144000D03*
X121000Y204500D03*
X92000Y222957D03*
X104000D03*
X128000D03*
X140000D03*
X37000Y224839D03*
X19000Y236500D03*
X99000Y131500D03*
X80000Y167546D03*
X92500Y127000D03*
X85000Y204500D03*
X75500Y193300D03*
X97500D03*
X70500Y120000D03*
X69500Y109000D03*
X73000Y113500D03*
X55000Y120000D03*
X53000Y126500D03*
X46500D03*
X160000Y155000D03*
Y167000D03*
X132000Y132500D03*
X142000Y142000D03*
X156546Y242280D03*
X138000Y38500D03*
X143000D03*
G54D40*G54D41*G54D42*G54D41*G54D43*G54D41*G54D42*G54D41*G54D42*G54D43*G54D42*G54D44*G54D42*G54D43*G54D42*G54D41*G54D43*G54D42*M02*
