G04 start of page 9 for group -4079 idx -4079 *
G04 Title: (unknown), topsilk *
G04 Creator: pcb 20140316 *
G04 CreationDate: Mon 26 Dec 2016 03:50:00 AM GMT UTC *
G04 For: railfan *
G04 Format: Gerber/RS-274X *
G04 PCB-Dimensions (mil): 2100.00 2700.00 *
G04 PCB-Coordinate-Origin: lower left *
%MOIN*%
%FSLAX25Y25*%
%LNTOPSILK*%
%ADD71C,0.0080*%
%ADD70C,0.0100*%
G54D70*X500Y269500D02*X209500D01*
Y10500D01*
X159500D02*X149500Y500D01*
X209500Y10500D02*X159500D01*
X149500Y500D02*X20500D01*
X500Y10500D02*X10500D01*
X20500Y500D02*X10500Y10500D01*
X500D02*Y269500D01*
G54D71*X185500Y52000D02*Y48000D01*
X187000Y52000D02*X187500Y51500D01*
Y48500D01*
X187000Y48000D02*X187500Y48500D01*
X185000Y48000D02*X187000D01*
X185000Y52000D02*X187000D01*
X188700Y51500D02*X189200Y52000D01*
X190200D01*
X190700Y51500D01*
Y48500D01*
X190200Y48000D02*X190700Y48500D01*
X189200Y48000D02*X190200D01*
X188700Y48500D02*X189200Y48000D01*
Y50000D02*X190700D01*
X185500Y62000D02*Y58000D01*
X187000Y62000D02*X187500Y61500D01*
Y58500D01*
X187000Y58000D02*X187500Y58500D01*
X185000Y58000D02*X187000D01*
X185000Y62000D02*X187000D01*
X188700Y60000D02*X190700Y62000D01*
X188700Y60000D02*X191200D01*
X190700Y62000D02*Y58000D01*
X185500Y42000D02*Y38000D01*
X187000Y42000D02*X187500Y41500D01*
Y38500D01*
X187000Y38000D02*X187500Y38500D01*
X185000Y38000D02*X187000D01*
X185000Y42000D02*X187000D01*
X188700Y41500D02*X189200Y42000D01*
X190700D01*
X191200Y41500D01*
Y40500D01*
X188700Y38000D02*X191200Y40500D01*
X188700Y38000D02*X191200D01*
X185500Y108000D02*Y104000D01*
X187000Y108000D02*X187500Y107500D01*
Y104500D01*
X187000Y104000D02*X187500Y104500D01*
X185000Y104000D02*X187000D01*
X185000Y108000D02*X187000D01*
X188700Y104500D02*X189200Y104000D01*
X188700Y105500D02*Y104500D01*
Y105500D02*X189200Y106000D01*
X190200D01*
X190700Y105500D01*
Y104500D01*
X190200Y104000D02*X190700Y104500D01*
X189200Y104000D02*X190200D01*
X188700Y106500D02*X189200Y106000D01*
X188700Y107500D02*Y106500D01*
Y107500D02*X189200Y108000D01*
X190200D01*
X190700Y107500D01*
Y106500D01*
X190200Y106000D02*X190700Y106500D01*
X183500Y138000D02*Y134000D01*
X185000Y138000D02*X185500Y137500D01*
Y134500D01*
X185000Y134000D02*X185500Y134500D01*
X183000Y134000D02*X185000D01*
X183000Y138000D02*X185000D01*
X187200Y134000D02*X188200D01*
X187700Y138000D02*Y134000D01*
X186700Y137000D02*X187700Y138000D01*
X189900Y134000D02*X190900D01*
X190400Y138000D02*Y134000D01*
X189400Y137000D02*X190400Y138000D01*
X183500Y128000D02*Y124000D01*
X185000Y128000D02*X185500Y127500D01*
Y124500D01*
X185000Y124000D02*X185500Y124500D01*
X183000Y124000D02*X185000D01*
X183000Y128000D02*X185000D01*
X187200Y124000D02*X188200D01*
X187700Y128000D02*Y124000D01*
X186700Y127000D02*X187700Y128000D01*
X189400Y124500D02*X189900Y124000D01*
X189400Y127500D02*Y124500D01*
Y127500D02*X189900Y128000D01*
X190900D01*
X191400Y127500D01*
Y124500D01*
X190900Y124000D02*X191400Y124500D01*
X189900Y124000D02*X190900D01*
X189400Y125000D02*X191400Y127000D01*
X185500Y118000D02*Y114000D01*
X187000Y118000D02*X187500Y117500D01*
Y114500D01*
X187000Y114000D02*X187500Y114500D01*
X185000Y114000D02*X187000D01*
X185000Y118000D02*X187000D01*
X188700Y114000D02*X190700Y116000D01*
Y117500D02*Y116000D01*
X190200Y118000D02*X190700Y117500D01*
X189200Y118000D02*X190200D01*
X188700Y117500D02*X189200Y118000D01*
X188700Y117500D02*Y116500D01*
X189200Y116000D01*
X190700D01*
X184000Y168000D02*X184500Y167500D01*
X182500Y168000D02*X184000D01*
X182000Y167500D02*X182500Y168000D01*
X182000Y167500D02*Y164500D01*
X182500Y164000D01*
X184000D01*
X184500Y164500D01*
Y165500D02*Y164500D01*
X184000Y166000D02*X184500Y165500D01*
X183000Y166000D02*X184000D01*
X185700Y168000D02*Y164000D01*
Y168000D02*Y167500D01*
X188200Y165000D01*
Y168000D02*Y164000D01*
X189900Y168000D02*Y164000D01*
X191400Y168000D02*X191900Y167500D01*
Y164500D01*
X191400Y164000D02*X191900Y164500D01*
X189400Y164000D02*X191400D01*
X189400Y168000D02*X191400D01*
X183500Y158000D02*Y154000D01*
X185000Y158000D02*X185500Y157500D01*
Y154500D01*
X185000Y154000D02*X185500Y154500D01*
X183000Y154000D02*X185000D01*
X183000Y158000D02*X185000D01*
X187200Y154000D02*X188200D01*
X187700Y158000D02*Y154000D01*
X186700Y157000D02*X187700Y158000D01*
X189400Y157500D02*X189900Y158000D01*
X190900D01*
X191400Y157500D01*
Y154500D01*
X190900Y154000D02*X191400Y154500D01*
X189900Y154000D02*X190900D01*
X189400Y154500D02*X189900Y154000D01*
Y156000D02*X191400D01*
X183500Y148000D02*Y144000D01*
X185000Y148000D02*X185500Y147500D01*
Y144500D01*
X185000Y144000D02*X185500Y144500D01*
X183000Y144000D02*X185000D01*
X183000Y148000D02*X185000D01*
X187200Y144000D02*X188200D01*
X187700Y148000D02*Y144000D01*
X186700Y147000D02*X187700Y148000D01*
X189400Y147500D02*X189900Y148000D01*
X191400D01*
X191900Y147500D01*
Y146500D01*
X189400Y144000D02*X191900Y146500D01*
X189400Y144000D02*X191900D01*
X184000Y188000D02*X184500Y187500D01*
X182500Y188000D02*X184000D01*
X182000Y187500D02*X182500Y188000D01*
X182000Y187500D02*Y186500D01*
X182500Y186000D01*
X184000D01*
X184500Y185500D01*
Y184500D01*
X184000Y184000D02*X184500Y184500D01*
X182500Y184000D02*X184000D01*
X182000Y184500D02*X182500Y184000D01*
X186200Y188000D02*Y184000D01*
X187700Y188000D02*X188200Y187500D01*
Y184500D01*
X187700Y184000D02*X188200Y184500D01*
X185700Y184000D02*X187700D01*
X185700Y188000D02*X187700D01*
X189400Y187500D02*Y184000D01*
Y187500D02*X189900Y188000D01*
X191400D01*
X191900Y187500D01*
Y184000D01*
X189400Y186000D02*X191900D01*
X185000Y198000D02*X185500Y197500D01*
X183500Y198000D02*X185000D01*
X183000Y197500D02*X183500Y198000D01*
X183000Y197500D02*Y196500D01*
X183500Y196000D01*
X185000D01*
X185500Y195500D01*
Y194500D01*
X185000Y194000D02*X185500Y194500D01*
X183500Y194000D02*X185000D01*
X183000Y194500D02*X183500Y194000D01*
X187200D02*X188700D01*
X186700Y194500D02*X187200Y194000D01*
X186700Y197500D02*Y194500D01*
Y197500D02*X187200Y198000D01*
X188700D01*
X189900D02*Y194000D01*
X191900D01*
X180000Y177500D02*Y174000D01*
Y177500D02*X180500Y178000D01*
X182000D01*
X182500Y177500D01*
Y174000D01*
X180000Y176000D02*X182500D01*
X183700Y178000D02*X185700D01*
X186200Y177500D01*
Y176500D01*
X185700Y176000D02*X186200Y176500D01*
X184200Y176000D02*X185700D01*
X184200Y178000D02*Y174000D01*
Y176000D02*X186200Y174000D01*
X187400Y176000D02*X188900D01*
X187400Y174000D02*X189400D01*
X187400Y178000D02*Y174000D01*
Y178000D02*X189400D01*
X190600D02*Y174000D01*
Y178000D02*X192600D01*
X190600Y176000D02*X192100D01*
X117500Y173660D02*X119060Y175220D01*
X117500Y173660D02*X119450D01*
X119060Y175220D02*Y172100D01*
X120386D02*X120776D01*
X121712Y172490D02*X122102Y172100D01*
X121712Y174830D02*Y172490D01*
Y174830D02*X122102Y175220D01*
X122882D01*
X123272Y174830D01*
Y172490D01*
X122882Y172100D02*X123272Y172490D01*
X122102Y172100D02*X122882D01*
X121712Y172880D02*X123272Y174440D01*
X124208Y172100D02*X125768Y173660D01*
Y174830D02*Y173660D01*
X125378Y175220D02*X125768Y174830D01*
X124598Y175220D02*X125378D01*
X124208Y174830D02*X124598Y175220D01*
X124208Y174830D02*Y174050D01*
X124598Y173660D01*
X125768D01*
X127874Y175220D02*X128264Y174830D01*
X127094Y175220D02*X127874D01*
X126704Y174830D02*X127094Y175220D01*
X126704Y174830D02*Y172490D01*
X127094Y172100D01*
X127874Y173660D02*X128264Y173270D01*
X126704Y173660D02*X127874D01*
X127094Y172100D02*X127874D01*
X128264Y172490D01*
Y173270D02*Y172490D01*
X129200Y175220D02*Y172880D01*
X129980Y172100D01*
X130760Y172880D01*
Y175220D02*Y172880D01*
X117890Y191700D02*X118670D01*
X118280Y194820D02*Y191700D01*
X117500Y194040D02*X118280Y194820D01*
X119606Y191700D02*X119996D01*
X120932Y194430D02*X121322Y194820D01*
X122492D01*
X122882Y194430D01*
Y193650D01*
X120932Y191700D02*X122882Y193650D01*
X120932Y191700D02*X122882D01*
X123818Y194820D02*X125378D01*
X123818D02*Y193260D01*
X124208Y193650D01*
X124988D01*
X125378Y193260D01*
Y192090D01*
X124988Y191700D02*X125378Y192090D01*
X124208Y191700D02*X124988D01*
X123818Y192090D02*X124208Y191700D01*
X126314Y194820D02*Y192480D01*
X127094Y191700D01*
X127874Y192480D01*
Y194820D02*Y192480D01*
X185500Y92000D02*Y88000D01*
X187000Y92000D02*X187500Y91500D01*
Y88500D01*
X187000Y88000D02*X187500Y88500D01*
X185000Y88000D02*X187000D01*
X185000Y92000D02*X187000D01*
X188700Y88000D02*X191200Y90500D01*
Y92000D02*Y90500D01*
X188700Y92000D02*X191200D01*
X18000D02*Y89000D01*
X19000Y88000D01*
X20000Y89000D01*
Y92000D02*Y89000D01*
X21200Y92000D02*X22200D01*
X21700D02*Y88000D01*
X21200D02*X22200D01*
X23400Y92000D02*Y88000D01*
Y92000D02*Y91500D01*
X25900Y89000D01*
Y92000D02*Y88000D01*
X185500Y72000D02*Y68000D01*
X187000Y72000D02*X187500Y71500D01*
Y68500D01*
X187000Y68000D02*X187500Y68500D01*
X185000Y68000D02*X187000D01*
X185000Y72000D02*X187000D01*
X188700D02*X190700D01*
X188700D02*Y70000D01*
X189200Y70500D01*
X190200D01*
X190700Y70000D01*
Y68500D01*
X190200Y68000D02*X190700Y68500D01*
X189200Y68000D02*X190200D01*
X188700Y68500D02*X189200Y68000D01*
X18000Y71500D02*Y68000D01*
Y71500D02*X18500Y72000D01*
X20000D01*
X20500Y71500D01*
Y68000D01*
X18000Y70000D02*X20500D01*
X21700Y68500D02*X22200Y68000D01*
X21700Y71500D02*Y68500D01*
Y71500D02*X22200Y72000D01*
X23200D01*
X23700Y71500D01*
Y68500D01*
X23200Y68000D02*X23700Y68500D01*
X22200Y68000D02*X23200D01*
X21700Y69000D02*X23700Y71000D01*
X126000Y91000D02*Y87500D01*
Y91000D02*X126500Y91500D01*
X128000D01*
X128500Y91000D01*
Y87500D01*
X126000Y89500D02*X128500D01*
X129700Y88000D02*X130200Y87500D01*
X129700Y91000D02*Y88000D01*
Y91000D02*X130200Y91500D01*
X131200D01*
X131700Y91000D01*
Y88000D01*
X131200Y87500D02*X131700Y88000D01*
X130200Y87500D02*X131200D01*
X129700Y88500D02*X131700Y90500D01*
X146000Y91000D02*Y87500D01*
Y91000D02*X146500Y91500D01*
X148000D01*
X148500Y91000D01*
Y87500D01*
X146000Y89500D02*X148500D01*
X150200Y87500D02*X151200D01*
X150700Y91500D02*Y87500D01*
X149700Y90500D02*X150700Y91500D01*
X165000Y91000D02*Y87500D01*
Y91000D02*X165500Y91500D01*
X167000D01*
X167500Y91000D01*
Y87500D01*
X165000Y89500D02*X167500D01*
X168700Y91000D02*X169200Y91500D01*
X170700D01*
X171200Y91000D01*
Y90000D01*
X168700Y87500D02*X171200Y90000D01*
X168700Y87500D02*X171200D01*
X185500Y82000D02*Y78000D01*
X187000Y82000D02*X187500Y81500D01*
Y78500D01*
X187000Y78000D02*X187500Y78500D01*
X185000Y78000D02*X187000D01*
X185000Y82000D02*X187000D01*
X190200D02*X190700Y81500D01*
X189200Y82000D02*X190200D01*
X188700Y81500D02*X189200Y82000D01*
X188700Y81500D02*Y78500D01*
X189200Y78000D01*
X190200Y80000D02*X190700Y79500D01*
X188700Y80000D02*X190200D01*
X189200Y78000D02*X190200D01*
X190700Y78500D01*
Y79500D02*Y78500D01*
X18000Y22500D02*Y19000D01*
Y22500D02*X18500Y23000D01*
X20000D01*
X20500Y22500D01*
Y19000D01*
X18000Y21000D02*X20500D01*
X21700Y23000D02*X23700D01*
X21700D02*Y21000D01*
X22200Y21500D01*
X23200D01*
X23700Y21000D01*
Y19500D01*
X23200Y19000D02*X23700Y19500D01*
X22200Y19000D02*X23200D01*
X21700Y19500D02*X22200Y19000D01*
X24900Y19500D02*X27900Y22500D01*
X31100Y23000D02*X31600Y22500D01*
X29600Y23000D02*X31100D01*
X29100Y22500D02*X29600Y23000D01*
X29100Y22500D02*Y21500D01*
X29600Y21000D01*
X31100D01*
X31600Y20500D01*
Y19500D01*
X31100Y19000D02*X31600Y19500D01*
X29600Y19000D02*X31100D01*
X29100Y19500D02*X29600Y19000D01*
X33300D02*X34800D01*
X32800Y19500D02*X33300Y19000D01*
X32800Y22500D02*Y19500D01*
Y22500D02*X33300Y23000D01*
X34800D01*
X36000D02*Y19000D01*
X38000D01*
X18000Y31500D02*Y28000D01*
Y31500D02*X18500Y32000D01*
X20000D01*
X20500Y31500D01*
Y28000D01*
X18000Y30000D02*X20500D01*
X21700D02*X23700Y32000D01*
X21700Y30000D02*X24200D01*
X23700Y32000D02*Y28000D01*
X25400Y28500D02*X28400Y31500D01*
X31600Y32000D02*X32100Y31500D01*
X30100Y32000D02*X31600D01*
X29600Y31500D02*X30100Y32000D01*
X29600Y31500D02*Y30500D01*
X30100Y30000D01*
X31600D01*
X32100Y29500D01*
Y28500D01*
X31600Y28000D02*X32100Y28500D01*
X30100Y28000D02*X31600D01*
X29600Y28500D02*X30100Y28000D01*
X33800Y32000D02*Y28000D01*
X35300Y32000D02*X35800Y31500D01*
Y28500D01*
X35300Y28000D02*X35800Y28500D01*
X33300Y28000D02*X35300D01*
X33300Y32000D02*X35300D01*
X37000Y31500D02*Y28000D01*
Y31500D02*X37500Y32000D01*
X39000D01*
X39500Y31500D01*
Y28000D01*
X37000Y30000D02*X39500D01*
X18000Y41500D02*Y38000D01*
Y41500D02*X18500Y42000D01*
X20000D01*
X20500Y41500D01*
Y38000D01*
X18000Y40000D02*X20500D01*
X21700Y41500D02*X22200Y42000D01*
X23200D01*
X23700Y41500D01*
Y38500D01*
X23200Y38000D02*X23700Y38500D01*
X22200Y38000D02*X23200D01*
X21700Y38500D02*X22200Y38000D01*
Y40000D02*X23700D01*
X18000Y51500D02*Y48000D01*
Y51500D02*X18500Y52000D01*
X20000D01*
X20500Y51500D01*
Y48000D01*
X18000Y50000D02*X20500D01*
X21700Y51500D02*X22200Y52000D01*
X23700D01*
X24200Y51500D01*
Y50500D01*
X21700Y48000D02*X24200Y50500D01*
X21700Y48000D02*X24200D01*
X18000Y61500D02*Y58000D01*
Y61500D02*X18500Y62000D01*
X20000D01*
X20500Y61500D01*
Y58000D01*
X18000Y60000D02*X20500D01*
X22200Y58000D02*X23200D01*
X22700Y62000D02*Y58000D01*
X21700Y61000D02*X22700Y62000D01*
X49000Y4000D02*X49500Y3500D01*
X49000Y5000D02*Y4000D01*
Y5000D02*X49500Y5500D01*
X50500D01*
X51000Y5000D01*
Y4000D01*
X50500Y3500D02*X51000Y4000D01*
X49500Y3500D02*X50500D01*
X49000Y6000D02*X49500Y5500D01*
X49000Y7000D02*Y6000D01*
Y7000D02*X49500Y7500D01*
X50500D01*
X51000Y7000D01*
Y6000D01*
X50500Y5500D02*X51000Y6000D01*
X59000Y3500D02*X61000Y5500D01*
Y7000D02*Y5500D01*
X60500Y7500D02*X61000Y7000D01*
X59500Y7500D02*X60500D01*
X59000Y7000D02*X59500Y7500D01*
X59000Y7000D02*Y6000D01*
X59500Y5500D01*
X61000D01*
X68000Y3500D02*X69000D01*
X68500Y7500D02*Y3500D01*
X67500Y6500D02*X68500Y7500D01*
X70200Y4000D02*X70700Y3500D01*
X70200Y7000D02*Y4000D01*
Y7000D02*X70700Y7500D01*
X71700D01*
X72200Y7000D01*
Y4000D01*
X71700Y3500D02*X72200Y4000D01*
X70700Y3500D02*X71700D01*
X70200Y4500D02*X72200Y6500D01*
X78500Y3500D02*X79500D01*
X79000Y7500D02*Y3500D01*
X78000Y6500D02*X79000Y7500D01*
X81200Y3500D02*X82200D01*
X81700Y7500D02*Y3500D01*
X80700Y6500D02*X81700Y7500D01*
X87500Y3500D02*X88500D01*
X88000Y7500D02*Y3500D01*
X87000Y6500D02*X88000Y7500D01*
X89700Y7000D02*X90200Y7500D01*
X91700D01*
X92200Y7000D01*
Y6000D01*
X89700Y3500D02*X92200Y6000D01*
X89700Y3500D02*X92200D01*
X98000D02*X99000D01*
X98500Y7500D02*Y3500D01*
X97500Y6500D02*X98500Y7500D01*
X100200Y7000D02*X100700Y7500D01*
X101700D01*
X102200Y7000D01*
Y4000D01*
X101700Y3500D02*X102200Y4000D01*
X100700Y3500D02*X101700D01*
X100200Y4000D02*X100700Y3500D01*
Y5500D02*X102200D01*
X108000Y3500D02*X109000D01*
X108500Y7500D02*Y3500D01*
X107500Y6500D02*X108500Y7500D01*
X110200Y5500D02*X112200Y7500D01*
X110200Y5500D02*X112700D01*
X112200Y7500D02*Y3500D01*
X118000D02*X119000D01*
X118500Y7500D02*Y3500D01*
X117500Y6500D02*X118500Y7500D01*
X120200D02*X122200D01*
X120200D02*Y5500D01*
X120700Y6000D01*
X121700D01*
X122200Y5500D01*
Y4000D01*
X121700Y3500D02*X122200Y4000D01*
X120700Y3500D02*X121700D01*
X120200Y4000D02*X120700Y3500D01*
X18000Y122000D02*X20000D01*
X18000D02*Y120000D01*
X18500Y120500D01*
X19500D01*
X20000Y120000D01*
Y118500D01*
X19500Y118000D02*X20000Y118500D01*
X18500Y118000D02*X19500D01*
X18000Y118500D02*X18500Y118000D01*
X21200Y122000D02*Y119000D01*
X22200Y118000D01*
X23200Y119000D01*
Y122000D02*Y119000D01*
X18000Y131500D02*X18500Y132000D01*
X19500D01*
X20000Y131500D01*
Y128500D01*
X19500Y128000D02*X20000Y128500D01*
X18500Y128000D02*X19500D01*
X18000Y128500D02*X18500Y128000D01*
Y130000D02*X20000D01*
X21200Y128000D02*X21700D01*
X22900Y131500D02*X23400Y132000D01*
X24400D01*
X24900Y131500D01*
Y128500D01*
X24400Y128000D02*X24900Y128500D01*
X23400Y128000D02*X24400D01*
X22900Y128500D02*X23400Y128000D01*
Y130000D02*X24900D01*
X26100Y132000D02*Y129000D01*
X27100Y128000D01*
X28100Y129000D01*
Y132000D02*Y129000D01*
X20000Y102000D02*X20500Y101500D01*
X18500Y102000D02*X20000D01*
X18000Y101500D02*X18500Y102000D01*
X18000Y101500D02*Y98500D01*
X18500Y98000D01*
X20000D01*
X20500Y98500D01*
Y99500D02*Y98500D01*
X20000Y100000D02*X20500Y99500D01*
X19000Y100000D02*X20000D01*
X21700Y102000D02*Y98000D01*
Y102000D02*Y101500D01*
X24200Y99000D01*
Y102000D02*Y98000D01*
X25900Y102000D02*Y98000D01*
X27400Y102000D02*X27900Y101500D01*
Y98500D01*
X27400Y98000D02*X27900Y98500D01*
X25400Y98000D02*X27400D01*
X25400Y102000D02*X27400D01*
X20000Y112000D02*X20500Y111500D01*
X18500Y112000D02*X20000D01*
X18000Y111500D02*X18500Y112000D01*
X18000Y111500D02*Y108500D01*
X18500Y108000D01*
X20000D01*
X20500Y108500D01*
Y109500D02*Y108500D01*
X20000Y110000D02*X20500Y109500D01*
X19000Y110000D02*X20000D01*
X21700Y112000D02*Y108000D01*
Y112000D02*Y111500D01*
X24200Y109000D01*
Y112000D02*Y108000D01*
X25900Y112000D02*Y108000D01*
X27400Y112000D02*X27900Y111500D01*
Y108500D01*
X27400Y108000D02*X27900Y108500D01*
X25400Y108000D02*X27400D01*
X25400Y112000D02*X27400D01*
X18000Y152000D02*X19000D01*
X18500D02*Y148000D01*
X18000D02*X19000D01*
X20200Y151500D02*Y148500D01*
Y151500D02*X20700Y152000D01*
X21700D01*
X22200Y151500D01*
Y148500D01*
X21700Y148000D02*X22200Y148500D01*
X20700Y148000D02*X21700D01*
X20200Y148500D02*X20700Y148000D01*
X23400Y152000D02*X25400D01*
X25900Y151500D01*
Y150500D01*
X25400Y150000D02*X25900Y150500D01*
X23900Y150000D02*X25400D01*
X23900Y152000D02*Y148000D01*
Y150000D02*X25900Y148000D01*
X27100Y150000D02*X28600D01*
X27100Y148000D02*X29100D01*
X27100Y152000D02*Y148000D01*
Y152000D02*X29100D01*
X30300D02*Y148000D01*
Y152000D02*X32300D01*
X30300Y150000D02*X31800D01*
X18000Y142000D02*X20000D01*
X20500Y141500D01*
Y140500D01*
X20000Y140000D02*X20500Y140500D01*
X18500Y140000D02*X20000D01*
X18500Y142000D02*Y138000D01*
Y140000D02*X20500Y138000D01*
X21700Y140000D02*X23200D01*
X21700Y138000D02*X23700D01*
X21700Y142000D02*Y138000D01*
Y142000D02*X23700D01*
X26900D02*X27400Y141500D01*
X25400Y142000D02*X26900D01*
X24900Y141500D02*X25400Y142000D01*
X24900Y141500D02*Y140500D01*
X25400Y140000D01*
X26900D01*
X27400Y139500D01*
Y138500D01*
X26900Y138000D02*X27400Y138500D01*
X25400Y138000D02*X26900D01*
X24900Y138500D02*X25400Y138000D01*
X28600Y140000D02*X30100D01*
X28600Y138000D02*X30600D01*
X28600Y142000D02*Y138000D01*
Y142000D02*X30600D01*
X31800D02*X33800D01*
X32800D02*Y138000D01*
X18000Y162000D02*Y158000D01*
Y162000D02*Y161500D01*
X20500Y159000D01*
Y162000D02*Y158000D01*
X21700Y158500D02*X24700Y161500D01*
X26400Y158000D02*X27900D01*
X25900Y158500D02*X26400Y158000D01*
X25900Y161500D02*Y158500D01*
Y161500D02*X26400Y162000D01*
X27900D01*
X80000Y266000D02*X79500Y266500D01*
X80000Y266000D02*Y263000D01*
X79500Y262500D01*
X78500D02*X79500D01*
X78500D02*X78000Y263000D01*
Y266000D02*Y263000D01*
X78500Y266500D02*X78000Y266000D01*
X78500Y266500D02*X79500D01*
X80000Y265500D02*X78000Y263500D01*
X68500Y266500D02*X69500D01*
X69000D02*Y262500D01*
X70000Y263500D02*X69000Y262500D01*
X60500Y263000D02*X60000Y262500D01*
X58500D02*X60000D01*
X58500D02*X58000Y263000D01*
Y264000D02*Y263000D01*
X60500Y266500D02*X58000Y264000D01*
Y266500D02*X60500D01*
X50000Y263000D02*X49500Y262500D01*
X48500D02*X49500D01*
X48500D02*X48000Y263000D01*
Y266000D02*Y263000D01*
X48500Y266500D02*X48000Y266000D01*
X48500Y266500D02*X49500D01*
X50000Y266000D02*X49500Y266500D01*
X48000Y264500D02*X49500D01*
X40500D02*X38500Y262500D01*
X38000Y264500D02*X40500D01*
X38500Y266500D02*Y262500D01*
X28000D02*X30000D01*
Y264500D02*Y262500D01*
Y264500D02*X29500Y264000D01*
X28500D02*X29500D01*
X28500D02*X28000Y264500D01*
Y266000D02*Y264500D01*
X28500Y266500D02*X28000Y266000D01*
X28500Y266500D02*X29500D01*
X30000Y266000D02*X29500Y266500D01*
X18500Y262500D02*X18000Y263000D01*
X18500Y262500D02*X19500D01*
X20000Y263000D02*X19500Y262500D01*
X20000Y266000D02*Y263000D01*
Y266000D02*X19500Y266500D01*
X18500Y264500D02*X18000Y265000D01*
X18500Y264500D02*X20000D01*
X18500Y266500D02*X19500D01*
X18500D02*X18000Y266000D01*
Y265000D01*
X10000Y266500D02*X7500Y264000D01*
Y262500D01*
X10000D01*
X6500Y200500D02*X8500D01*
X7500D02*Y196500D01*
X9700Y198500D02*X11200D01*
X9700Y196500D02*X11700D01*
X9700Y200500D02*Y196500D01*
Y200500D02*X11700D01*
X14900D02*X15400Y200000D01*
X13400Y200500D02*X14900D01*
X12900Y200000D02*X13400Y200500D01*
X12900Y200000D02*Y199000D01*
X13400Y198500D01*
X14900D01*
X15400Y198000D01*
Y197000D01*
X14900Y196500D02*X15400Y197000D01*
X13400Y196500D02*X14900D01*
X12900Y197000D02*X13400Y196500D01*
X16600Y200500D02*X18600D01*
X17600D02*Y196500D01*
X19800Y198500D02*X21800D01*
X23000Y200000D02*Y196500D01*
Y200000D02*X23500Y200500D01*
X25000D01*
X25500Y200000D01*
Y196500D01*
X23000Y198500D02*X25500D01*
X26700Y200500D02*X28700D01*
X29200Y200000D01*
Y199000D01*
X28700Y198500D02*X29200Y199000D01*
X27200Y198500D02*X28700D01*
X27200Y200500D02*Y196500D01*
Y198500D02*X29200Y196500D01*
X30900Y200500D02*Y196500D01*
X32400Y200500D02*X32900Y200000D01*
Y197000D01*
X32400Y196500D02*X32900Y197000D01*
X30400Y196500D02*X32400D01*
X30400Y200500D02*X32400D01*
X34100Y198500D02*X36100D01*
X37300Y200500D02*Y196500D01*
X39300D01*
X40500Y200500D02*X42500D01*
X41500D02*Y196500D01*
X44200D02*X45700D01*
X43700Y197000D02*X44200Y196500D01*
X43700Y200000D02*Y197000D01*
Y200000D02*X44200Y200500D01*
X45700D01*
X46900Y200000D02*X47400Y200500D01*
X48900D01*
X49400Y200000D01*
Y199000D01*
X46900Y196500D02*X49400Y199000D01*
X46900Y196500D02*X49400D01*
X50600Y198500D02*X52600Y200500D01*
X50600Y198500D02*X53100D01*
X52600Y200500D02*Y196500D01*
X54300D02*X56300Y198500D01*
Y200000D02*Y198500D01*
X55800Y200500D02*X56300Y200000D01*
X54800Y200500D02*X55800D01*
X54300Y200000D02*X54800Y200500D01*
X54300Y200000D02*Y199000D01*
X54800Y198500D01*
X56300D01*
X57500Y196500D02*X59500Y198500D01*
Y200000D02*Y198500D01*
X59000Y200500D02*X59500Y200000D01*
X58000Y200500D02*X59000D01*
X57500Y200000D02*X58000Y200500D01*
X57500Y200000D02*Y199000D01*
X58000Y198500D01*
X59500D01*
X62500D02*Y197500D01*
X63500Y196500D01*
X64500Y197500D01*
Y198500D02*Y197500D01*
X66200Y196500D02*X67200D01*
X66700Y200500D02*Y196500D01*
X65700Y199500D02*X66700Y200500D01*
X68400Y196500D02*X68900D01*
X70100Y197000D02*X70600Y196500D01*
X70100Y200000D02*Y197000D01*
Y200000D02*X70600Y200500D01*
X71600D01*
X72100Y200000D01*
Y197000D01*
X71600Y196500D02*X72100Y197000D01*
X70600Y196500D02*X71600D01*
X70100Y197500D02*X72100Y199500D01*
X6500Y193000D02*X7500D01*
X7000D02*Y189000D01*
X6500D02*X7500D01*
X8700Y190500D02*Y189500D01*
Y190500D02*X9200Y191000D01*
X10200D01*
X10700Y190500D01*
Y189500D01*
X10200Y189000D02*X10700Y189500D01*
X9200Y189000D02*X10200D01*
X8700Y189500D02*X9200Y189000D01*
X11900Y191000D02*Y189500D01*
X12400Y189000D01*
X12900D01*
X13400Y189500D01*
Y191000D02*Y189500D01*
X13900Y189000D01*
X14400D01*
X14900Y189500D01*
Y191000D02*Y189500D01*
X17600Y191000D02*X18100Y190500D01*
X16600Y191000D02*X17600D01*
X16100Y190500D02*X16600Y191000D01*
X16100Y190500D02*Y189500D01*
X16600Y189000D01*
X18100Y191000D02*Y189500D01*
X18600Y189000D01*
X16600D02*X17600D01*
X18100Y189500D01*
X23600Y193000D02*X24100Y192500D01*
X22100Y193000D02*X23600D01*
X21600Y192500D02*X22100Y193000D01*
X21600Y192500D02*Y191500D01*
X22100Y191000D01*
X23600D01*
X24100Y190500D01*
Y189500D01*
X23600Y189000D02*X24100Y189500D01*
X22100Y189000D02*X23600D01*
X21600Y189500D02*X22100Y189000D01*
X25800Y191000D02*X27300D01*
X25300Y190500D02*X25800Y191000D01*
X25300Y190500D02*Y189500D01*
X25800Y189000D01*
X27300D01*
X30000Y191000D02*X30500Y190500D01*
X29000Y191000D02*X30000D01*
X28500Y190500D02*X29000Y191000D01*
X28500Y190500D02*Y189500D01*
X29000Y189000D01*
X30500Y191000D02*Y189500D01*
X31000Y189000D01*
X29000D02*X30000D01*
X30500Y189500D01*
X32200Y193000D02*Y189500D01*
X32700Y189000D01*
X34200D02*X35700D01*
X33700Y189500D02*X34200Y189000D01*
X33700Y190500D02*Y189500D01*
Y190500D02*X34200Y191000D01*
X35200D01*
X35700Y190500D01*
X33700Y190000D02*X35700D01*
Y190500D02*Y190000D01*
X38900Y193000D02*Y189000D01*
X38400D02*X38900Y189500D01*
X37400Y189000D02*X38400D01*
X36900Y189500D02*X37400Y189000D01*
X36900Y190500D02*Y189500D01*
Y190500D02*X37400Y191000D01*
X38400D01*
X38900Y190500D01*
X41900Y191000D02*X43400D01*
X41900Y189000D02*X43900D01*
X41900Y193000D02*Y189000D01*
Y193000D02*X43900D01*
X45600Y190500D02*Y189000D01*
Y190500D02*X46100Y191000D01*
X46600D01*
X47100Y190500D01*
Y189000D01*
X45100Y191000D02*X45600Y190500D01*
X49800Y191000D02*X50300Y190500D01*
X48800Y191000D02*X49800D01*
X48300Y190500D02*X48800Y191000D01*
X48300Y190500D02*Y189500D01*
X48800Y189000D01*
X49800D01*
X50300Y189500D01*
X48300Y188000D02*X48800Y187500D01*
X49800D01*
X50300Y188000D01*
Y191000D02*Y188000D01*
X51500Y192000D02*Y191500D01*
Y190500D02*Y189000D01*
X53000Y190500D02*Y189000D01*
Y190500D02*X53500Y191000D01*
X54000D01*
X54500Y190500D01*
Y189000D01*
X52500Y191000D02*X53000Y190500D01*
X56200Y189000D02*X57700D01*
X55700Y189500D02*X56200Y189000D01*
X55700Y190500D02*Y189500D01*
Y190500D02*X56200Y191000D01*
X57200D01*
X57700Y190500D01*
X55700Y190000D02*X57700D01*
Y190500D02*Y190000D01*
X59400Y189000D02*X60900D01*
X58900Y189500D02*X59400Y189000D01*
X58900Y190500D02*Y189500D01*
Y190500D02*X59400Y191000D01*
X60400D01*
X60900Y190500D01*
X58900Y190000D02*X60900D01*
Y190500D02*Y190000D01*
X62600Y190500D02*Y189000D01*
Y190500D02*X63100Y191000D01*
X64100D01*
X62100D02*X62600Y190500D01*
X65300Y192000D02*Y191500D01*
Y190500D02*Y189000D01*
X66800Y190500D02*Y189000D01*
Y190500D02*X67300Y191000D01*
X67800D01*
X68300Y190500D01*
Y189000D01*
X66300Y191000D02*X66800Y190500D01*
X71000Y191000D02*X71500Y190500D01*
X70000Y191000D02*X71000D01*
X69500Y190500D02*X70000Y191000D01*
X69500Y190500D02*Y189500D01*
X70000Y189000D01*
X71000D01*
X71500Y189500D01*
X69500Y188000D02*X70000Y187500D01*
X71000D01*
X71500Y188000D01*
Y191000D02*Y188000D01*
X6500Y185500D02*Y181500D01*
Y183000D02*X7000Y183500D01*
X8000D01*
X8500Y183000D01*
Y181500D01*
X10200Y185500D02*Y182000D01*
X10700Y181500D01*
X9700Y184000D02*X10700D01*
X12200Y185500D02*Y182000D01*
X12700Y181500D01*
X11700Y184000D02*X12700D01*
X14200Y183000D02*Y180000D01*
X13700Y183500D02*X14200Y183000D01*
X14700Y183500D01*
X15700D01*
X16200Y183000D01*
Y182000D01*
X15700Y181500D02*X16200Y182000D01*
X14700Y181500D02*X15700D01*
X14200Y182000D02*X14700Y181500D01*
X17400Y184000D02*X17900D01*
X17400Y183000D02*X17900D01*
X19100Y182000D02*X22100Y185000D01*
X23300Y182000D02*X26300Y185000D01*
X27500Y183500D02*Y182000D01*
X28000Y181500D01*
X28500D01*
X29000Y182000D01*
Y183500D02*Y182000D01*
X29500Y181500D01*
X30000D01*
X30500Y182000D01*
Y183500D02*Y182000D01*
X31700Y183500D02*Y182000D01*
X32200Y181500D01*
X32700D01*
X33200Y182000D01*
Y183500D02*Y182000D01*
X33700Y181500D01*
X34200D01*
X34700Y182000D01*
Y183500D02*Y182000D01*
X35900Y183500D02*Y182000D01*
X36400Y181500D01*
X36900D01*
X37400Y182000D01*
Y183500D02*Y182000D01*
X37900Y181500D01*
X38400D01*
X38900Y182000D01*
Y183500D02*Y182000D01*
X40100Y181500D02*X40600D01*
X41800Y184500D02*Y184000D01*
Y183000D02*Y181500D01*
X44300Y183500D02*X44800Y183000D01*
X43300Y183500D02*X44300D01*
X42800Y183000D02*X43300Y183500D01*
X42800Y183000D02*Y182000D01*
X43300Y181500D01*
X44800Y183500D02*Y182000D01*
X45300Y181500D01*
X43300D02*X44300D01*
X44800Y182000D01*
X47000Y181500D02*X48500D01*
X49000Y182000D01*
X48500Y182500D02*X49000Y182000D01*
X47000Y182500D02*X48500D01*
X46500Y183000D02*X47000Y182500D01*
X46500Y183000D02*X47000Y183500D01*
X48500D01*
X49000Y183000D01*
X46500Y182000D02*X47000Y181500D01*
X50700Y183500D02*X52200D01*
X50200Y183000D02*X50700Y183500D01*
X50200Y183000D02*Y182000D01*
X50700Y181500D01*
X52200D01*
X54900Y183500D02*X55400Y183000D01*
X53900Y183500D02*X54900D01*
X53400Y183000D02*X53900Y183500D01*
X53400Y183000D02*Y182000D01*
X53900Y181500D01*
X55400Y183500D02*Y182000D01*
X55900Y181500D01*
X53900D02*X54900D01*
X55400Y182000D01*
X57100Y185500D02*Y182000D01*
X57600Y181500D01*
X59100D02*X60600D01*
X58600Y182000D02*X59100Y181500D01*
X58600Y183000D02*Y182000D01*
Y183000D02*X59100Y183500D01*
X60100D01*
X60600Y183000D01*
X58600Y182500D02*X60600D01*
Y183000D02*Y182500D01*
X63800Y185500D02*Y181500D01*
X63300D02*X63800Y182000D01*
X62300Y181500D02*X63300D01*
X61800Y182000D02*X62300Y181500D01*
X61800Y183000D02*Y182000D01*
Y183000D02*X62300Y183500D01*
X63300D01*
X63800Y183000D01*
X65000Y181500D02*X65500D01*
X67200Y183500D02*X68700D01*
X66700Y183000D02*X67200Y183500D01*
X66700Y183000D02*Y182000D01*
X67200Y181500D01*
X68700D01*
X69900Y183000D02*Y182000D01*
Y183000D02*X70400Y183500D01*
X71400D01*
X71900Y183000D01*
Y182000D01*
X71400Y181500D02*X71900Y182000D01*
X70400Y181500D02*X71400D01*
X69900Y182000D02*X70400Y181500D01*
X73600Y183000D02*Y181500D01*
Y183000D02*X74100Y183500D01*
X74600D01*
X75100Y183000D01*
Y181500D01*
Y183000D02*X75600Y183500D01*
X76100D01*
X76600Y183000D01*
Y181500D01*
X73100Y183500D02*X73600Y183000D01*
X7000Y174000D02*X8500D01*
X6500Y174500D02*X7000Y174000D01*
X6500Y177500D02*Y174500D01*
Y177500D02*X7000Y178000D01*
X8500D01*
X10200Y174000D02*X11700D01*
X9700Y174500D02*X10200Y174000D01*
X9700Y177500D02*Y174500D01*
Y177500D02*X10200Y178000D01*
X11700D01*
X14700Y174000D02*X16700D01*
X17200Y174500D01*
Y175500D02*Y174500D01*
X16700Y176000D02*X17200Y175500D01*
X15200Y176000D02*X16700D01*
X15200Y178000D02*Y174000D01*
X14700Y178000D02*X16700D01*
X17200Y177500D01*
Y176500D01*
X16700Y176000D02*X17200Y176500D01*
X18400Y178000D02*Y177500D01*
X19400Y176500D01*
X20400Y177500D01*
Y178000D02*Y177500D01*
X19400Y176500D02*Y174000D01*
X21600Y176000D02*X23600D01*
X26800Y178000D02*X27300Y177500D01*
X25300Y178000D02*X26800D01*
X24800Y177500D02*X25300Y178000D01*
X24800Y177500D02*Y176500D01*
X25300Y176000D01*
X26800D01*
X27300Y175500D01*
Y174500D01*
X26800Y174000D02*X27300Y174500D01*
X25300Y174000D02*X26800D01*
X24800Y174500D02*X25300Y174000D01*
X28500Y177500D02*Y174000D01*
Y177500D02*X29000Y178000D01*
X30500D01*
X31000Y177500D01*
Y174000D01*
X28500Y176000D02*X31000D01*
X34000Y174500D02*X34500Y174000D01*
X34000Y177500D02*X34500Y178000D01*
X34000Y177500D02*Y174500D01*
X36200Y174000D02*X37700D01*
X35700Y174500D02*X36200Y174000D01*
X35700Y177500D02*Y174500D01*
Y177500D02*X36200Y178000D01*
X37700D01*
X38900D02*X39400Y177500D01*
Y174500D01*
X38900Y174000D02*X39400Y174500D01*
X40600Y177500D02*X41100Y178000D01*
X42600D01*
X43100Y177500D01*
Y176500D01*
X40600Y174000D02*X43100Y176500D01*
X40600Y174000D02*X43100D01*
X44300Y174500D02*X44800Y174000D01*
X44300Y177500D02*Y174500D01*
Y177500D02*X44800Y178000D01*
X45800D01*
X46300Y177500D01*
Y174500D01*
X45800Y174000D02*X46300Y174500D01*
X44800Y174000D02*X45800D01*
X44300Y175000D02*X46300Y177000D01*
X48000Y174000D02*X49000D01*
X48500Y178000D02*Y174000D01*
X47500Y177000D02*X48500Y178000D01*
X51700D02*X52200Y177500D01*
X50700Y178000D02*X51700D01*
X50200Y177500D02*X50700Y178000D01*
X50200Y177500D02*Y174500D01*
X50700Y174000D01*
X51700Y176000D02*X52200Y175500D01*
X50200Y176000D02*X51700D01*
X50700Y174000D02*X51700D01*
X52200Y174500D01*
Y175500D02*Y174500D01*
G54D70*X5000Y165000D02*Y85000D01*
X15000D01*
Y165000D01*
X5000D01*
Y155000D02*X15000D01*
Y165000D01*
X5000Y75000D02*Y15000D01*
X15000D01*
Y75000D01*
X5000D01*
Y65000D02*X15000D01*
Y75000D01*
X65000Y135000D02*G75*G03X65000Y135000I5000J0D01*G01*
X65374Y170857D02*Y147235D01*
Y170857D02*X77186D01*
Y147235D01*
X65374D02*X77186D01*
X63874Y145235D02*G75*G03X63874Y145235I0J500D01*G01*
X40189Y215094D02*X63811D01*
X40189Y226906D02*Y215094D01*
Y226906D02*X63811D01*
Y215094D01*
X65811Y213594D02*G75*G03X65811Y213594I-500J0D01*G01*
X205000Y95000D02*Y15000D01*
X195000Y95000D02*X205000D01*
X195000D02*Y15000D01*
X205000D01*
X195000Y25000D02*X205000D01*
X195000D02*Y15000D01*
X205000Y201000D02*Y101000D01*
X195000Y201000D02*X205000D01*
X195000D02*Y101000D01*
X205000D01*
X195000Y111000D02*X205000D01*
X195000D02*Y101000D01*
X170000Y133500D02*G75*G03X170000Y133500I5000J0D01*G01*
X175107Y26255D02*X175893D01*
X175107Y20745D02*X175893D01*
X175107Y36255D02*X175893D01*
X175107Y30745D02*X175893D01*
X163500Y70000D02*G75*G03X163500Y70000I5000J0D01*G01*
Y80000D02*G75*G03X163500Y80000I5000J0D01*G01*
X98934Y128724D02*Y97276D01*
X130066D01*
Y128724D01*
X98934D02*X112000D01*
X130066D02*X117000D01*
X112000D02*G75*G03X117000Y128724I2500J0D01*G01*
X163500Y60000D02*G75*G03X163500Y60000I5000J0D01*G01*
Y50000D02*G75*G03X163500Y50000I5000J0D01*G01*
X112201Y146759D02*X124799D01*
X112201Y154241D02*Y146759D01*
Y154241D02*X124799D01*
Y146759D01*
X117607Y138755D02*X118393D01*
X117607Y133245D02*X118393D01*
X79000Y242000D02*G75*G03X79000Y242000I0J5000D01*G01*
X69000D02*G75*G03X69000Y242000I0J5000D01*G01*
X59000D02*G75*G03X59000Y242000I0J5000D01*G01*
X49000D02*G75*G03X49000Y242000I0J5000D01*G01*
X39000D02*G75*G03X39000Y242000I0J5000D01*G01*
X29000D02*G75*G03X29000Y242000I0J5000D01*G01*
X19000D02*G75*G03X19000Y242000I0J5000D01*G01*
X9000D02*G75*G03X9000Y242000I0J5000D01*G01*
X123500Y70000D02*G75*G03X123500Y70000I5000J0D01*G01*
Y60000D02*G75*G03X123500Y60000I5000J0D01*G01*
Y50000D02*G75*G03X123500Y50000I5000J0D01*G01*
Y80000D02*G75*G03X123500Y80000I5000J0D01*G01*
X132000Y20500D02*X161000D01*
X132000Y38500D02*X161000D01*
Y34000D01*
Y20500D02*Y25000D01*
X132000Y38500D02*Y34000D01*
Y20500D02*Y25000D01*
X136500Y38500D02*X132000Y34000D01*
X143500Y70000D02*G75*G03X143500Y70000I5000J0D01*G01*
Y60000D02*G75*G03X143500Y60000I5000J0D01*G01*
Y80000D02*G75*G03X143500Y80000I5000J0D01*G01*
Y50000D02*G75*G03X143500Y50000I5000J0D01*G01*
X120000Y18000D02*G75*G03X120000Y18000I0J5000D01*G01*
X110000D02*G75*G03X110000Y18000I0J5000D01*G01*
X100000D02*G75*G03X100000Y18000I0J5000D01*G01*
X90000D02*G75*G03X90000Y18000I0J5000D01*G01*
X80000D02*G75*G03X80000Y18000I0J5000D01*G01*
X70000D02*G75*G03X70000Y18000I0J5000D01*G01*
X60000D02*G75*G03X60000Y18000I0J5000D01*G01*
X50000D02*G75*G03X50000Y18000I0J5000D01*G01*
X112500Y247000D02*G75*G03X112500Y247000I5000J0D01*G01*
X136189Y256906D02*X159811D01*
Y245094D01*
X136189D02*X159811D01*
X136189Y256906D02*Y245094D01*
X134189Y258406D02*G75*G03X134189Y258406I500J0D01*G01*
X140000Y133500D02*G75*G03X140000Y133500I5000J0D01*G01*
X150000D02*G75*G03X150000Y133500I5000J0D01*G01*
X160000D02*G75*G03X160000Y133500I5000J0D01*G01*
X159607Y171245D02*X160393D01*
X159607Y176755D02*X160393D01*
X151339Y167102D02*X168661D01*
Y154898D01*
X151339D01*
Y167102D01*
X149339Y168602D02*G75*G03X149339Y168602I500J0D01*G01*
X163107Y145245D02*X163893D01*
X163107Y150755D02*X163893D01*
X108245Y223350D02*Y222564D01*
X113755Y223350D02*Y222564D01*
X144245Y223350D02*Y222564D01*
X149755Y223350D02*Y222564D01*
X140102Y231618D02*Y214296D01*
X127898D02*X140102D01*
X127898Y231618D02*Y214296D01*
Y231618D02*X140102D01*
X141602Y233618D02*G75*G03X141602Y233618I0J-500D01*G01*
X118245Y219850D02*Y219064D01*
X123755Y219850D02*Y219064D01*
X104102Y231618D02*Y214296D01*
X91898D02*X104102D01*
X91898Y231618D02*Y214296D01*
Y231618D02*X104102D01*
X105602Y233618D02*G75*G03X105602Y233618I0J-500D01*G01*
X82245Y219850D02*Y219064D01*
X87755Y219850D02*Y219064D01*
X90400Y165800D02*X104600D01*
X90400Y169800D02*Y165800D01*
X104600Y169800D02*Y165800D01*
X90400Y201200D02*X104600D01*
X90400D02*Y197200D01*
X104600Y201200D02*Y197200D01*
G54D71*X112500Y94500D02*Y91000D01*
X113000Y90500D01*
X114000D01*
X114500Y91000D01*
Y94500D02*Y91000D01*
X116200Y90500D02*X117200D01*
X116700Y94500D02*Y90500D01*
X115700Y93500D02*X116700Y94500D01*
X172350Y18650D02*X174350D01*
X174850Y18150D01*
Y17150D01*
X174350Y16650D02*X174850Y17150D01*
X172850Y16650D02*X174350D01*
X172850Y18650D02*Y14650D01*
Y16650D02*X174850Y14650D01*
X176050Y18150D02*X176550Y18650D01*
X178050D01*
X178550Y18150D01*
Y17150D01*
X176050Y14650D02*X178550Y17150D01*
X176050Y14650D02*X178550D01*
X172850Y42150D02*X174850D01*
X175350Y41650D01*
Y40650D01*
X174850Y40150D02*X175350Y40650D01*
X173350Y40150D02*X174850D01*
X173350Y42150D02*Y38150D01*
Y40150D02*X175350Y38150D01*
X177050D02*X178050D01*
X177550Y42150D02*Y38150D01*
X176550Y41150D02*X177550Y42150D01*
X124500Y39500D02*Y35500D01*
X126000Y39500D02*X126500Y39000D01*
Y36000D01*
X126000Y35500D02*X126500Y36000D01*
X124000Y35500D02*X126000D01*
X124000Y39500D02*X126000D01*
X128200Y35500D02*X129200D01*
X128700Y39500D02*Y35500D01*
X127700Y38500D02*X128700Y39500D01*
X48500Y233000D02*X50500D01*
X51000Y232500D01*
Y231500D01*
X50500Y231000D02*X51000Y231500D01*
X49000Y231000D02*X50500D01*
X49000Y233000D02*Y229000D01*
Y231000D02*X51000Y229000D01*
X53700Y233000D02*X54200Y232500D01*
X52700Y233000D02*X53700D01*
X52200Y232500D02*X52700Y233000D01*
X52200Y232500D02*Y229500D01*
X52700Y229000D01*
X53700Y231000D02*X54200Y230500D01*
X52200Y231000D02*X53700D01*
X52700Y229000D02*X53700D01*
X54200Y229500D01*
Y230500D02*Y229500D01*
X145000Y243000D02*X147000D01*
X147500Y242500D01*
Y241500D01*
X147000Y241000D02*X147500Y241500D01*
X145500Y241000D02*X147000D01*
X145500Y243000D02*Y239000D01*
Y241000D02*X147500Y239000D01*
X148700Y241000D02*X150700Y243000D01*
X148700Y241000D02*X151200D01*
X150700Y243000D02*Y239000D01*
X105850Y135150D02*X107350D01*
X105350Y135650D02*X105850Y135150D01*
X105350Y138650D02*Y135650D01*
Y138650D02*X105850Y139150D01*
X107350D01*
X109050Y135150D02*X110050D01*
X109550Y139150D02*Y135150D01*
X108550Y138150D02*X109550Y139150D01*
X130000Y151100D02*Y149600D01*
Y151100D02*X133500D01*
X134000Y150600D02*X133500Y151100D01*
X134000Y150600D02*Y150100D01*
X133500Y149600D02*X134000Y150100D01*
X130000Y152800D02*X134000D01*
X130000Y154300D02*Y152300D01*
Y154300D02*X130500Y154800D01*
X131500D01*
X132000Y154300D02*X131500Y154800D01*
X132000Y154300D02*Y152800D01*
X130500Y156000D02*X130000Y156500D01*
Y158000D02*Y156500D01*
Y158000D02*X130500Y158500D01*
X131500D01*
X134000Y156000D02*X131500Y158500D01*
X134000D02*Y156000D01*
X140000Y160600D02*Y159100D01*
Y160600D02*X143500D01*
X144000Y160100D02*X143500Y160600D01*
X144000Y160100D02*Y159600D01*
X143500Y159100D02*X144000Y159600D01*
X140000Y162300D02*X144000D01*
X140000Y163800D02*Y161800D01*
Y163800D02*X140500Y164300D01*
X141500D01*
X142000Y163800D02*X141500Y164300D01*
X142000Y163800D02*Y162300D01*
X144000Y167000D02*Y166000D01*
X140000Y166500D02*X144000D01*
X141000Y165500D02*X140000Y166500D01*
X79546Y161221D02*X81546D01*
X82046Y160721D01*
Y159721D01*
X81546Y159221D02*X82046Y159721D01*
X80046Y159221D02*X81546D01*
X80046Y161221D02*Y157221D01*
Y159221D02*X82046Y157221D01*
X83246Y160721D02*X83746Y161221D01*
X84746D01*
X85246Y160721D01*
Y157721D01*
X84746Y157221D02*X85246Y157721D01*
X83746Y157221D02*X84746D01*
X83246Y157721D02*X83746Y157221D01*
Y159221D02*X85246D01*
X115500Y160000D02*X117500D01*
X118000Y159500D01*
Y158500D01*
X117500Y158000D02*X118000Y158500D01*
X116000Y158000D02*X117500D01*
X116000Y160000D02*Y156000D01*
Y158000D02*X118000Y156000D01*
X119200Y160000D02*X121200D01*
X119200D02*Y158000D01*
X119700Y158500D01*
X120700D01*
X121200Y158000D01*
Y156500D01*
X120700Y156000D02*X121200Y156500D01*
X119700Y156000D02*X120700D01*
X119200Y156500D02*X119700Y156000D01*
X97000Y163500D02*X97500Y163000D01*
X95500Y163500D02*X97000D01*
X95000Y163000D02*X95500Y163500D01*
X95000Y163000D02*Y162000D01*
X95500Y161500D01*
X97000D01*
X97500Y161000D01*
Y160000D01*
X97000Y159500D02*X97500Y160000D01*
X95500Y159500D02*X97000D01*
X95000Y160000D02*X95500Y159500D01*
X99200D02*X100200D01*
X99700Y163500D02*Y159500D01*
X98700Y162500D02*X99700Y163500D01*
X170500D02*Y160000D01*
X171000Y159500D01*
X172000D01*
X172500Y160000D01*
Y163500D02*Y160000D01*
X173700Y161500D02*X175700Y163500D01*
X173700Y161500D02*X176200D01*
X175700Y163500D02*Y159500D01*
X171893Y146150D02*X173393D01*
X171393Y146650D02*X171893Y146150D01*
X171393Y149650D02*Y146650D01*
Y149650D02*X171893Y150150D01*
X173393D01*
X174593Y146150D02*X177093Y148650D01*
Y150150D02*Y148650D01*
X174593Y150150D02*X177093D01*
X168350Y172150D02*X169850D01*
X167850Y172650D02*X168350Y172150D01*
X167850Y175650D02*Y172650D01*
Y175650D02*X168350Y176150D01*
X169850D01*
X172550D02*X173050Y175650D01*
X171550Y176150D02*X172550D01*
X171050Y175650D02*X171550Y176150D01*
X171050Y175650D02*Y172650D01*
X171550Y172150D01*
X172550Y174150D02*X173050Y173650D01*
X171050Y174150D02*X172550D01*
X171550Y172150D02*X172550D01*
X173050Y172650D01*
Y173650D02*Y172650D01*
X108893Y211150D02*X110393D01*
X108393Y211650D02*X108893Y211150D01*
X108393Y214650D02*Y211650D01*
Y214650D02*X108893Y215150D01*
X110393D01*
X111593D02*X113593D01*
X111593D02*Y213150D01*
X112093Y213650D01*
X113093D01*
X113593Y213150D01*
Y211650D01*
X113093Y211150D02*X113593Y211650D01*
X112093Y211150D02*X113093D01*
X111593Y211650D02*X112093Y211150D01*
X95543Y212500D02*Y209000D01*
X96043Y208500D01*
X97043D01*
X97543Y209000D01*
Y212500D02*Y209000D01*
X98743Y212000D02*X99243Y212500D01*
X100243D01*
X100743Y212000D01*
Y209000D01*
X100243Y208500D02*X100743Y209000D01*
X99243Y208500D02*X100243D01*
X98743Y209000D02*X99243Y208500D01*
Y210500D02*X100743D01*
X82436Y207650D02*X83936D01*
X81936Y208150D02*X82436Y207650D01*
X81936Y211150D02*Y208150D01*
Y211150D02*X82436Y211650D01*
X83936D01*
X85136Y209650D02*X87136Y211650D01*
X85136Y209650D02*X87636D01*
X87136Y211650D02*Y207650D01*
X144893Y211150D02*X146393D01*
X144393Y211650D02*X144893Y211150D01*
X144393Y214650D02*Y211650D01*
Y214650D02*X144893Y215150D01*
X146393D01*
X147593Y214650D02*X148093Y215150D01*
X149093D01*
X149593Y214650D01*
Y211650D01*
X149093Y211150D02*X149593Y211650D01*
X148093Y211150D02*X149093D01*
X147593Y211650D02*X148093Y211150D01*
Y213150D02*X149593D01*
X131543Y212500D02*Y209000D01*
X132043Y208500D01*
X133043D01*
X133543Y209000D01*
Y212500D02*Y209000D01*
X134743Y212000D02*X135243Y212500D01*
X136743D01*
X137243Y212000D01*
Y211000D01*
X134743Y208500D02*X137243Y211000D01*
X134743Y208500D02*X137243D01*
X118936Y207650D02*X120436D01*
X118436Y208150D02*X118936Y207650D01*
X118436Y211150D02*Y208150D01*
Y211150D02*X118936Y211650D01*
X120436D01*
X121636Y211150D02*X122136Y211650D01*
X123636D01*
X124136Y211150D01*
Y210150D01*
X121636Y207650D02*X124136Y210150D01*
X121636Y207650D02*X124136D01*
M02*
