G04 start of page 13 for group -3984 idx -3984 *
G04 Title: (unknown), fab *
G04 Creator: pcb 20140316 *
G04 CreationDate: Mon 26 Dec 2016 03:50:00 AM GMT UTC *
G04 For: railfan *
G04 Format: Gerber/RS-274X *
G04 PCB-Dimensions (mil): 2100.00 2700.00 *
G04 PCB-Coordinate-Origin: lower left *
%MOIN*%
%FSLAX25Y25*%
%LNFAB*%
%ADD85C,0.0100*%
%ADD84C,0.0060*%
%ADD83R,0.0080X0.0080*%
G54D83*X138400Y11600D02*X141600D01*
X138400D02*Y8400D01*
X141600D01*
Y11600D02*Y8400D01*
X198400Y211600D02*X201600D01*
X198400D02*Y208400D01*
X201600D01*
Y211600D02*Y208400D01*
X8400Y216600D02*X11600D01*
X8400D02*Y213400D01*
X11600D01*
Y216600D02*Y213400D01*
X28400Y11600D02*X31600D01*
X28400D02*Y8400D01*
X31600D01*
Y11600D02*Y8400D01*
X13400Y282850D02*X16600D01*
X13400D02*Y279650D01*
X16600D01*
Y282850D02*Y279650D01*
G54D84*X135000Y283500D02*Y282750D01*
X136500Y281250D01*
X138000Y282750D01*
Y283500D02*Y282750D01*
X136500Y281250D02*Y277500D01*
X139800Y280500D02*X142050D01*
X139800Y277500D02*X142800D01*
X139800Y283500D02*Y277500D01*
Y283500D02*X142800D01*
X147600D02*X148350Y282750D01*
X145350Y283500D02*X147600D01*
X144600Y282750D02*X145350Y283500D01*
X144600Y282750D02*Y281250D01*
X145350Y280500D01*
X147600D01*
X148350Y279750D01*
Y278250D01*
X147600Y277500D02*X148350Y278250D01*
X145350Y277500D02*X147600D01*
X144600Y278250D02*X145350Y277500D01*
X98000Y280500D02*X101000Y283500D01*
X98000Y280500D02*X101750D01*
X101000Y283500D02*Y277500D01*
X45000Y278250D02*X45750Y277500D01*
X45000Y282750D02*Y278250D01*
Y282750D02*X45750Y283500D01*
X47250D01*
X48000Y282750D01*
Y278250D01*
X47250Y277500D02*X48000Y278250D01*
X45750Y277500D02*X47250D01*
X45000Y279000D02*X48000Y282000D01*
X49800Y277500D02*X50550D01*
X53100D02*X54600D01*
X53850Y283500D02*Y277500D01*
X52350Y282000D02*X53850Y283500D01*
X56400Y282750D02*X57150Y283500D01*
X59400D01*
X60150Y282750D01*
Y281250D01*
X56400Y277500D02*X60150Y281250D01*
X56400Y277500D02*X60150D01*
X61950D02*X64950Y280500D01*
Y282750D02*Y280500D01*
X64200Y283500D02*X64950Y282750D01*
X62700Y283500D02*X64200D01*
X61950Y282750D02*X62700Y283500D01*
X61950Y282750D02*Y281250D01*
X62700Y280500D01*
X64950D01*
X131650Y29500D02*G75*G03X133250Y29500I800J0D01*G01*
G75*G03X131650Y29500I-800J0D01*G01*
X159750D02*G75*G03X161350Y29500I800J0D01*G01*
G75*G03X159750Y29500I-800J0D01*G01*
X14200Y296250D02*G75*G03X15800Y296250I800J0D01*G01*
G75*G03X14200Y296250I-800J0D01*G01*
X140000Y298500D02*Y292500D01*
Y298500D02*Y297750D01*
X143750Y294000D01*
Y298500D02*Y292500D01*
X145550Y297750D02*Y293250D01*
Y297750D02*X146300Y298500D01*
X147800D01*
X148550Y297750D01*
Y293250D01*
X147800Y292500D02*X148550Y293250D01*
X146300Y292500D02*X147800D01*
X145550Y293250D02*X146300Y292500D01*
X98000Y297750D02*X98750Y298500D01*
X101000D01*
X101750Y297750D01*
Y296250D01*
X98000Y292500D02*X101750Y296250D01*
X98000Y292500D02*X101750D01*
X45000Y293250D02*X45750Y292500D01*
X45000Y297750D02*Y293250D01*
Y297750D02*X45750Y298500D01*
X47250D01*
X48000Y297750D01*
Y293250D01*
X47250Y292500D02*X48000Y293250D01*
X45750Y292500D02*X47250D01*
X45000Y294000D02*X48000Y297000D01*
X49800Y292500D02*X50550D01*
X52350Y293250D02*X53100Y292500D01*
X52350Y297750D02*Y293250D01*
Y297750D02*X53100Y298500D01*
X54600D01*
X55350Y297750D01*
Y293250D01*
X54600Y292500D02*X55350Y293250D01*
X53100Y292500D02*X54600D01*
X52350Y294000D02*X55350Y297000D01*
X59400Y298500D02*X60150Y297750D01*
X57900Y298500D02*X59400D01*
X57150Y297750D02*X57900Y298500D01*
X57150Y297750D02*Y293250D01*
X57900Y292500D01*
X59400Y295500D02*X60150Y294750D01*
X57150Y295500D02*X59400D01*
X57900Y292500D02*X59400D01*
X60150Y293250D01*
Y294750D02*Y293250D01*
X61950Y297750D02*X62700Y298500D01*
X64200D01*
X64950Y297750D01*
Y293250D01*
X64200Y292500D02*X64950Y293250D01*
X62700Y292500D02*X64200D01*
X61950Y293250D02*X62700Y292500D01*
Y295500D02*X64950D01*
X68800Y136200D02*X71200Y133800D01*
X68800D02*X71200Y136200D01*
X116300Y248200D02*X118700Y245800D01*
X116300D02*X118700Y248200D01*
X143800Y134700D02*X146200Y132300D01*
X143800D02*X146200Y134700D01*
X153800D02*X156200Y132300D01*
X153800D02*X156200Y134700D01*
X163800D02*X166200Y132300D01*
X163800D02*X166200Y134700D01*
X173800D02*X176200Y132300D01*
X173800D02*X176200Y134700D01*
X127300Y71200D02*X129700Y68800D01*
X127300D02*X129700Y71200D01*
X127300Y61200D02*X129700Y58800D01*
X127300D02*X129700Y61200D01*
X127300Y51200D02*X129700Y48800D01*
X127300D02*X129700Y51200D01*
X127300Y81200D02*X129700Y78800D01*
X127300D02*X129700Y81200D01*
X147300Y71200D02*X149700Y68800D01*
X147300D02*X149700Y71200D01*
X147300Y61200D02*X149700Y58800D01*
X147300D02*X149700Y61200D01*
X147300Y81200D02*X149700Y78800D01*
X147300D02*X149700Y81200D01*
X147300Y51200D02*X149700Y48800D01*
X147300D02*X149700Y51200D01*
X167300Y71200D02*X169700Y68800D01*
X167300D02*X169700Y71200D01*
X167300Y61200D02*X169700Y58800D01*
X167300D02*X169700Y61200D01*
X167300Y51200D02*X169700Y48800D01*
X167300D02*X169700Y51200D01*
X167300Y81200D02*X169700Y78800D01*
X167300D02*X169700Y81200D01*
X77800Y248200D02*X80200Y245800D01*
X77800D02*X80200Y248200D01*
X67800D02*X70200Y245800D01*
X67800D02*X70200Y248200D01*
X57800D02*X60200Y245800D01*
X57800D02*X60200Y248200D01*
X47800D02*X50200Y245800D01*
X47800D02*X50200Y248200D01*
X37800D02*X40200Y245800D01*
X37800D02*X40200Y248200D01*
X27800D02*X30200Y245800D01*
X27800D02*X30200Y248200D01*
X17800D02*X20200Y245800D01*
X17800D02*X20200Y248200D01*
X7800D02*X10200Y245800D01*
X7800D02*X10200Y248200D01*
X118800Y24200D02*X121200Y21800D01*
X118800D02*X121200Y24200D01*
X108800D02*X111200Y21800D01*
X108800D02*X111200Y24200D01*
X98800D02*X101200Y21800D01*
X98800D02*X101200Y24200D01*
X88800D02*X91200Y21800D01*
X88800D02*X91200Y24200D01*
X78800D02*X81200Y21800D01*
X78800D02*X81200Y24200D01*
X68800D02*X71200Y21800D01*
X68800D02*X71200Y24200D01*
X58800D02*X61200Y21800D01*
X58800D02*X61200Y24200D01*
X48800D02*X51200Y21800D01*
X48800D02*X51200Y24200D01*
X13800Y312450D02*X16200Y310050D01*
X13800D02*X16200Y312450D01*
X135000Y313500D02*Y312750D01*
X136500Y311250D01*
X138000Y312750D01*
Y313500D02*Y312750D01*
X136500Y311250D02*Y307500D01*
X139800Y310500D02*X142050D01*
X139800Y307500D02*X142800D01*
X139800Y313500D02*Y307500D01*
Y313500D02*X142800D01*
X147600D02*X148350Y312750D01*
X145350Y313500D02*X147600D01*
X144600Y312750D02*X145350Y313500D01*
X144600Y312750D02*Y311250D01*
X145350Y310500D01*
X147600D01*
X148350Y309750D01*
Y308250D01*
X147600Y307500D02*X148350Y308250D01*
X145350Y307500D02*X147600D01*
X144600Y308250D02*X145350Y307500D01*
X98000Y312750D02*X98750Y313500D01*
X100250D01*
X101000Y312750D01*
Y308250D01*
X100250Y307500D02*X101000Y308250D01*
X98750Y307500D02*X100250D01*
X98000Y308250D02*X98750Y307500D01*
Y310500D02*X101000D01*
X102800D02*X105800Y313500D01*
X102800Y310500D02*X106550D01*
X105800Y313500D02*Y307500D01*
X45000Y308250D02*X45750Y307500D01*
X45000Y312750D02*Y308250D01*
Y312750D02*X45750Y313500D01*
X47250D01*
X48000Y312750D01*
Y308250D01*
X47250Y307500D02*X48000Y308250D01*
X45750Y307500D02*X47250D01*
X45000Y309000D02*X48000Y312000D01*
X49800Y307500D02*X50550D01*
X52350Y308250D02*X53100Y307500D01*
X52350Y312750D02*Y308250D01*
Y312750D02*X53100Y313500D01*
X54600D01*
X55350Y312750D01*
Y308250D01*
X54600Y307500D02*X55350Y308250D01*
X53100Y307500D02*X54600D01*
X52350Y309000D02*X55350Y312000D01*
X57150Y310500D02*X60150Y313500D01*
X57150Y310500D02*X60900D01*
X60150Y313500D02*Y307500D01*
X62700Y312750D02*X63450Y313500D01*
X65700D01*
X66450Y312750D01*
Y311250D01*
X62700Y307500D02*X66450Y311250D01*
X62700Y307500D02*X66450D01*
X10000Y161600D02*Y158400D01*
X8400Y160000D02*X11600D01*
X10000Y151600D02*Y148400D01*
X8400Y150000D02*X11600D01*
X10000Y141600D02*Y138400D01*
X8400Y140000D02*X11600D01*
X10000Y131600D02*Y128400D01*
X8400Y130000D02*X11600D01*
X10000Y121600D02*Y118400D01*
X8400Y120000D02*X11600D01*
X10000Y111600D02*Y108400D01*
X8400Y110000D02*X11600D01*
X10000Y101600D02*Y98400D01*
X8400Y100000D02*X11600D01*
X10000Y91600D02*Y88400D01*
X8400Y90000D02*X11600D01*
X10000Y71600D02*Y68400D01*
X8400Y70000D02*X11600D01*
X10000Y61600D02*Y58400D01*
X8400Y60000D02*X11600D01*
X10000Y51600D02*Y48400D01*
X8400Y50000D02*X11600D01*
X10000Y41600D02*Y38400D01*
X8400Y40000D02*X11600D01*
X10000Y31600D02*Y28400D01*
X8400Y30000D02*X11600D01*
X10000Y21600D02*Y18400D01*
X8400Y20000D02*X11600D01*
X200000Y21600D02*Y18400D01*
X198400Y20000D02*X201600D01*
X200000Y31600D02*Y28400D01*
X198400Y30000D02*X201600D01*
X200000Y41600D02*Y38400D01*
X198400Y40000D02*X201600D01*
X200000Y51600D02*Y48400D01*
X198400Y50000D02*X201600D01*
X200000Y61600D02*Y58400D01*
X198400Y60000D02*X201600D01*
X200000Y71600D02*Y68400D01*
X198400Y70000D02*X201600D01*
X200000Y81600D02*Y78400D01*
X198400Y80000D02*X201600D01*
X200000Y91600D02*Y88400D01*
X198400Y90000D02*X201600D01*
X200000Y107600D02*Y104400D01*
X198400Y106000D02*X201600D01*
X200000Y117600D02*Y114400D01*
X198400Y116000D02*X201600D01*
X200000Y127600D02*Y124400D01*
X198400Y126000D02*X201600D01*
X200000Y137600D02*Y134400D01*
X198400Y136000D02*X201600D01*
X200000Y147600D02*Y144400D01*
X198400Y146000D02*X201600D01*
X200000Y157600D02*Y154400D01*
X198400Y156000D02*X201600D01*
X200000Y167600D02*Y164400D01*
X198400Y166000D02*X201600D01*
X200000Y177600D02*Y174400D01*
X198400Y176000D02*X201600D01*
X200000Y187600D02*Y184400D01*
X198400Y186000D02*X201600D01*
X200000Y197600D02*Y194400D01*
X198400Y196000D02*X201600D01*
X15000Y327850D02*Y324650D01*
X13400Y326250D02*X16600D01*
X135000Y328500D02*Y327750D01*
X136500Y326250D01*
X138000Y327750D01*
Y328500D02*Y327750D01*
X136500Y326250D02*Y322500D01*
X139800Y325500D02*X142050D01*
X139800Y322500D02*X142800D01*
X139800Y328500D02*Y322500D01*
Y328500D02*X142800D01*
X147600D02*X148350Y327750D01*
X145350Y328500D02*X147600D01*
X144600Y327750D02*X145350Y328500D01*
X144600Y327750D02*Y326250D01*
X145350Y325500D01*
X147600D01*
X148350Y324750D01*
Y323250D01*
X147600Y322500D02*X148350Y323250D01*
X145350Y322500D02*X147600D01*
X144600Y323250D02*X145350Y322500D01*
X98000Y327750D02*X98750Y328500D01*
X100250D01*
X101000Y327750D01*
Y323250D01*
X100250Y322500D02*X101000Y323250D01*
X98750Y322500D02*X100250D01*
X98000Y323250D02*X98750Y322500D01*
Y325500D02*X101000D01*
X102800Y327750D02*X103550Y328500D01*
X105800D01*
X106550Y327750D01*
Y326250D01*
X102800Y322500D02*X106550Y326250D01*
X102800Y322500D02*X106550D01*
X45000Y323250D02*X45750Y322500D01*
X45000Y327750D02*Y323250D01*
Y327750D02*X45750Y328500D01*
X47250D01*
X48000Y327750D01*
Y323250D01*
X47250Y322500D02*X48000Y323250D01*
X45750Y322500D02*X47250D01*
X45000Y324000D02*X48000Y327000D01*
X49800Y322500D02*X50550D01*
X52350Y323250D02*X53100Y322500D01*
X52350Y327750D02*Y323250D01*
Y327750D02*X53100Y328500D01*
X54600D01*
X55350Y327750D01*
Y323250D01*
X54600Y322500D02*X55350Y323250D01*
X53100Y322500D02*X54600D01*
X52350Y324000D02*X55350Y327000D01*
X57150Y327750D02*X57900Y328500D01*
X59400D01*
X60150Y327750D01*
Y323250D01*
X59400Y322500D02*X60150Y323250D01*
X57900Y322500D02*X59400D01*
X57150Y323250D02*X57900Y322500D01*
Y325500D02*X60150D01*
X61950Y323250D02*X62700Y322500D01*
X61950Y324750D02*Y323250D01*
Y324750D02*X62700Y325500D01*
X64200D01*
X64950Y324750D01*
Y323250D01*
X64200Y322500D02*X64950Y323250D01*
X62700Y322500D02*X64200D01*
X61950Y326250D02*X62700Y325500D01*
X61950Y327750D02*Y326250D01*
Y327750D02*X62700Y328500D01*
X64200D01*
X64950Y327750D01*
Y326250D01*
X64200Y325500D02*X64950Y326250D01*
X107000Y131500D02*Y129900D01*
Y131500D02*X108387Y132300D01*
X107000Y131500D02*X105613Y132300D01*
X99000Y131500D02*Y129900D01*
Y131500D02*X100387Y132300D01*
X99000Y131500D02*X97613Y132300D01*
X112000Y119500D02*Y117900D01*
Y119500D02*X113387Y120300D01*
X112000Y119500D02*X110613Y120300D01*
X117000Y119500D02*Y117900D01*
Y119500D02*X118387Y120300D01*
X117000Y119500D02*X115613Y120300D01*
X80000Y167546D02*Y165946D01*
Y167546D02*X81387Y168346D01*
X80000Y167546D02*X78613Y168346D01*
X160000Y155000D02*Y153400D01*
Y155000D02*X161387Y155800D01*
X160000Y155000D02*X158613Y155800D01*
X160000Y167000D02*Y165400D01*
Y167000D02*X161387Y167800D01*
X160000Y167000D02*X158613Y167800D01*
X121500Y141500D02*Y139900D01*
Y141500D02*X122887Y142300D01*
X121500Y141500D02*X120113Y142300D01*
X132000Y132500D02*Y130900D01*
Y132500D02*X133387Y133300D01*
X132000Y132500D02*X130613Y133300D01*
X142000Y142000D02*Y140400D01*
Y142000D02*X143387Y142800D01*
X142000Y142000D02*X140613Y142800D01*
X92000Y222957D02*Y221357D01*
Y222957D02*X93387Y223757D01*
X92000Y222957D02*X90613Y223757D01*
X104000Y222957D02*Y221357D01*
Y222957D02*X105387Y223757D01*
X104000Y222957D02*X102613Y223757D01*
X128000Y222957D02*Y221357D01*
Y222957D02*X129387Y223757D01*
X128000Y222957D02*X126613Y223757D01*
X140000Y222957D02*Y221357D01*
Y222957D02*X141387Y223757D01*
X140000Y222957D02*X138613Y223757D01*
X114500Y127000D02*Y125400D01*
Y127000D02*X115887Y127800D01*
X114500Y127000D02*X113113Y127800D01*
X92500Y127000D02*Y125400D01*
Y127000D02*X93887Y127800D01*
X92500Y127000D02*X91113Y127800D01*
X70500Y120000D02*Y118400D01*
Y120000D02*X71887Y120800D01*
X70500Y120000D02*X69113Y120800D01*
X55000Y120000D02*Y118400D01*
Y120000D02*X56387Y120800D01*
X55000Y120000D02*X53613Y120800D01*
X156546Y242280D02*Y240680D01*
Y242280D02*X157932Y243080D01*
X156546Y242280D02*X155159Y243080D01*
X114500Y144000D02*Y142400D01*
Y144000D02*X115887Y144800D01*
X114500Y144000D02*X113113Y144800D01*
X85000Y204500D02*Y202900D01*
Y204500D02*X86387Y205300D01*
X85000Y204500D02*X83613Y205300D01*
X121000Y204500D02*Y202900D01*
Y204500D02*X122387Y205300D01*
X121000Y204500D02*X119613Y205300D01*
X75500Y193300D02*Y191700D01*
Y193300D02*X76887Y194100D01*
X75500Y193300D02*X74113Y194100D01*
X97500Y193300D02*Y191700D01*
Y193300D02*X98887Y194100D01*
X97500Y193300D02*X96113Y194100D01*
X37000Y224839D02*Y223239D01*
Y224839D02*X38387Y225639D01*
X37000Y224839D02*X35613Y225639D01*
X19000Y236500D02*Y234900D01*
Y236500D02*X20387Y237300D01*
X19000Y236500D02*X17613Y237300D01*
X69500Y109000D02*Y107400D01*
Y109000D02*X70887Y109800D01*
X69500Y109000D02*X68113Y109800D01*
X73000Y113500D02*Y111900D01*
Y113500D02*X74387Y114300D01*
X73000Y113500D02*X71613Y114300D01*
X53000Y126500D02*Y124900D01*
Y126500D02*X54387Y127300D01*
X53000Y126500D02*X51613Y127300D01*
X46500Y126500D02*Y124900D01*
Y126500D02*X47887Y127300D01*
X46500Y126500D02*X45113Y127300D01*
X138000Y38500D02*Y36900D01*
Y38500D02*X139387Y39300D01*
X138000Y38500D02*X136613Y39300D01*
X143000Y38500D02*Y36900D01*
Y38500D02*X144387Y39300D01*
X143000Y38500D02*X141613Y39300D01*
X15000Y341250D02*Y339650D01*
Y341250D02*X16387Y342050D01*
X15000Y341250D02*X13613Y342050D01*
X135000Y343500D02*Y342750D01*
X136500Y341250D01*
X138000Y342750D01*
Y343500D02*Y342750D01*
X136500Y341250D02*Y337500D01*
X139800Y340500D02*X142050D01*
X139800Y337500D02*X142800D01*
X139800Y343500D02*Y337500D01*
Y343500D02*X142800D01*
X147600D02*X148350Y342750D01*
X145350Y343500D02*X147600D01*
X144600Y342750D02*X145350Y343500D01*
X144600Y342750D02*Y341250D01*
X145350Y340500D01*
X147600D01*
X148350Y339750D01*
Y338250D01*
X147600Y337500D02*X148350Y338250D01*
X145350Y337500D02*X147600D01*
X144600Y338250D02*X145350Y337500D01*
X98000Y342750D02*X98750Y343500D01*
X100250D01*
X101000Y342750D01*
Y338250D01*
X100250Y337500D02*X101000Y338250D01*
X98750Y337500D02*X100250D01*
X98000Y338250D02*X98750Y337500D01*
Y340500D02*X101000D01*
X102800Y342750D02*X103550Y343500D01*
X105800D01*
X106550Y342750D01*
Y341250D01*
X102800Y337500D02*X106550Y341250D01*
X102800Y337500D02*X106550D01*
X45000Y338250D02*X45750Y337500D01*
X45000Y342750D02*Y338250D01*
Y342750D02*X45750Y343500D01*
X47250D01*
X48000Y342750D01*
Y338250D01*
X47250Y337500D02*X48000Y338250D01*
X45750Y337500D02*X47250D01*
X45000Y339000D02*X48000Y342000D01*
X49800Y337500D02*X50550D01*
X52350Y338250D02*X53100Y337500D01*
X52350Y342750D02*Y338250D01*
Y342750D02*X53100Y343500D01*
X54600D01*
X55350Y342750D01*
Y338250D01*
X54600Y337500D02*X55350Y338250D01*
X53100Y337500D02*X54600D01*
X52350Y339000D02*X55350Y342000D01*
X57150Y342750D02*X57900Y343500D01*
X60150D01*
X60900Y342750D01*
Y341250D01*
X57150Y337500D02*X60900Y341250D01*
X57150Y337500D02*X60900D01*
X62700Y338250D02*X63450Y337500D01*
X62700Y342750D02*Y338250D01*
Y342750D02*X63450Y343500D01*
X64950D01*
X65700Y342750D01*
Y338250D01*
X64950Y337500D02*X65700Y338250D01*
X63450Y337500D02*X64950D01*
X62700Y339000D02*X65700Y342000D01*
X3000Y358500D02*X3750Y357750D01*
X750Y358500D02*X3000D01*
X0Y357750D02*X750Y358500D01*
X0Y357750D02*Y356250D01*
X750Y355500D01*
X3000D01*
X3750Y354750D01*
Y353250D01*
X3000Y352500D02*X3750Y353250D01*
X750Y352500D02*X3000D01*
X0Y353250D02*X750Y352500D01*
X5550Y355500D02*Y353250D01*
X6300Y352500D01*
X8550Y355500D02*Y351000D01*
X7800Y350250D02*X8550Y351000D01*
X6300Y350250D02*X7800D01*
X5550Y351000D02*X6300Y350250D01*
Y352500D02*X7800D01*
X8550Y353250D01*
X11100Y354750D02*Y352500D01*
Y354750D02*X11850Y355500D01*
X12600D01*
X13350Y354750D01*
Y352500D01*
Y354750D02*X14100Y355500D01*
X14850D01*
X15600Y354750D01*
Y352500D01*
X10350Y355500D02*X11100Y354750D01*
X17400Y358500D02*Y352500D01*
Y353250D02*X18150Y352500D01*
X19650D01*
X20400Y353250D01*
Y354750D02*Y353250D01*
X19650Y355500D02*X20400Y354750D01*
X18150Y355500D02*X19650D01*
X17400Y354750D02*X18150Y355500D01*
X22200Y354750D02*Y353250D01*
Y354750D02*X22950Y355500D01*
X24450D01*
X25200Y354750D01*
Y353250D01*
X24450Y352500D02*X25200Y353250D01*
X22950Y352500D02*X24450D01*
X22200Y353250D02*X22950Y352500D01*
X27000Y358500D02*Y353250D01*
X27750Y352500D01*
X0Y349250D02*X29250D01*
X41750Y358500D02*Y352500D01*
X44000Y358500D02*X44750Y357750D01*
Y353250D01*
X44000Y352500D02*X44750Y353250D01*
X41000Y352500D02*X44000D01*
X41000Y358500D02*X44000D01*
X46550Y357000D02*Y356250D01*
Y354750D02*Y352500D01*
X50300Y355500D02*X51050Y354750D01*
X48800Y355500D02*X50300D01*
X48050Y354750D02*X48800Y355500D01*
X48050Y354750D02*Y353250D01*
X48800Y352500D01*
X51050Y355500D02*Y353250D01*
X51800Y352500D01*
X48800D02*X50300D01*
X51050Y353250D01*
X54350Y354750D02*Y352500D01*
Y354750D02*X55100Y355500D01*
X55850D01*
X56600Y354750D01*
Y352500D01*
Y354750D02*X57350Y355500D01*
X58100D01*
X58850Y354750D01*
Y352500D01*
X53600Y355500D02*X54350Y354750D01*
X60650Y352500D02*X61400D01*
X65900Y353250D02*X66650Y352500D01*
X65900Y357750D02*X66650Y358500D01*
X65900Y357750D02*Y353250D01*
X68450Y358500D02*X69950D01*
X69200D02*Y352500D01*
X68450D02*X69950D01*
X72500Y354750D02*Y352500D01*
Y354750D02*X73250Y355500D01*
X74000D01*
X74750Y354750D01*
Y352500D01*
X71750Y355500D02*X72500Y354750D01*
X77300Y355500D02*X79550D01*
X76550Y354750D02*X77300Y355500D01*
X76550Y354750D02*Y353250D01*
X77300Y352500D01*
X79550D01*
X81350Y358500D02*Y352500D01*
Y354750D02*X82100Y355500D01*
X83600D01*
X84350Y354750D01*
Y352500D01*
X86150Y358500D02*X86900Y357750D01*
Y353250D01*
X86150Y352500D02*X86900Y353250D01*
X41000Y349250D02*X88700D01*
X95750Y352500D02*X98000D01*
X95000Y353250D02*X95750Y352500D01*
X95000Y357750D02*Y353250D01*
Y357750D02*X95750Y358500D01*
X98000D01*
X99800Y354750D02*Y353250D01*
Y354750D02*X100550Y355500D01*
X102050D01*
X102800Y354750D01*
Y353250D01*
X102050Y352500D02*X102800Y353250D01*
X100550Y352500D02*X102050D01*
X99800Y353250D02*X100550Y352500D01*
X104600Y355500D02*Y353250D01*
X105350Y352500D01*
X106850D01*
X107600Y353250D01*
Y355500D02*Y353250D01*
X110150Y354750D02*Y352500D01*
Y354750D02*X110900Y355500D01*
X111650D01*
X112400Y354750D01*
Y352500D01*
X109400Y355500D02*X110150Y354750D01*
X114950Y358500D02*Y353250D01*
X115700Y352500D01*
X114200Y356250D02*X115700D01*
X95000Y349250D02*X117200D01*
X130750Y358500D02*Y352500D01*
X130000Y358500D02*X133000D01*
X133750Y357750D01*
Y356250D01*
X133000Y355500D02*X133750Y356250D01*
X130750Y355500D02*X133000D01*
X135550Y358500D02*Y353250D01*
X136300Y352500D01*
X140050Y355500D02*X140800Y354750D01*
X138550Y355500D02*X140050D01*
X137800Y354750D02*X138550Y355500D01*
X137800Y354750D02*Y353250D01*
X138550Y352500D01*
X140800Y355500D02*Y353250D01*
X141550Y352500D01*
X138550D02*X140050D01*
X140800Y353250D01*
X144100Y358500D02*Y353250D01*
X144850Y352500D01*
X143350Y356250D02*X144850D01*
X147100Y352500D02*X149350D01*
X146350Y353250D02*X147100Y352500D01*
X146350Y354750D02*Y353250D01*
Y354750D02*X147100Y355500D01*
X148600D01*
X149350Y354750D01*
X146350Y354000D02*X149350D01*
Y354750D02*Y354000D01*
X154150Y358500D02*Y352500D01*
X153400D02*X154150Y353250D01*
X151900Y352500D02*X153400D01*
X151150Y353250D02*X151900Y352500D01*
X151150Y354750D02*Y353250D01*
Y354750D02*X151900Y355500D01*
X153400D01*
X154150Y354750D01*
X157450Y355500D02*Y354750D01*
Y353250D02*Y352500D01*
X155950Y357750D02*Y357000D01*
Y357750D02*X156700Y358500D01*
X158200D01*
X158950Y357750D01*
Y357000D01*
X157450Y355500D02*X158950Y357000D01*
X130000Y349250D02*X160750D01*
X0Y373500D02*X3000D01*
X1500D02*Y367500D01*
X4800Y373500D02*Y367500D01*
Y369750D02*X5550Y370500D01*
X7050D01*
X7800Y369750D01*
Y367500D01*
X10350D02*X12600D01*
X9600Y368250D02*X10350Y367500D01*
X9600Y369750D02*Y368250D01*
Y369750D02*X10350Y370500D01*
X11850D01*
X12600Y369750D01*
X9600Y369000D02*X12600D01*
Y369750D02*Y369000D01*
X15150Y369750D02*Y367500D01*
Y369750D02*X15900Y370500D01*
X17400D01*
X14400D02*X15150Y369750D01*
X19950Y367500D02*X22200D01*
X19200Y368250D02*X19950Y367500D01*
X19200Y369750D02*Y368250D01*
Y369750D02*X19950Y370500D01*
X21450D01*
X22200Y369750D01*
X19200Y369000D02*X22200D01*
Y369750D02*Y369000D01*
X28950Y370500D02*X29700Y369750D01*
X27450Y370500D02*X28950D01*
X26700Y369750D02*X27450Y370500D01*
X26700Y369750D02*Y368250D01*
X27450Y367500D01*
X29700Y370500D02*Y368250D01*
X30450Y367500D01*
X27450D02*X28950D01*
X29700Y368250D01*
X33000Y369750D02*Y367500D01*
Y369750D02*X33750Y370500D01*
X35250D01*
X32250D02*X33000Y369750D01*
X37800Y367500D02*X40050D01*
X37050Y368250D02*X37800Y367500D01*
X37050Y369750D02*Y368250D01*
Y369750D02*X37800Y370500D01*
X39300D01*
X40050Y369750D01*
X37050Y369000D02*X40050D01*
Y369750D02*Y369000D01*
X44550Y373500D02*X47550D01*
X44550D02*Y370500D01*
X45300Y371250D01*
X46800D01*
X47550Y370500D01*
Y368250D01*
X46800Y367500D02*X47550Y368250D01*
X45300Y367500D02*X46800D01*
X44550Y368250D02*X45300Y367500D01*
X55050Y373500D02*Y367500D01*
X54300D02*X55050Y368250D01*
X52800Y367500D02*X54300D01*
X52050Y368250D02*X52800Y367500D01*
X52050Y369750D02*Y368250D01*
Y369750D02*X52800Y370500D01*
X54300D01*
X55050Y369750D01*
X56850Y372000D02*Y371250D01*
Y369750D02*Y367500D01*
X59100Y372750D02*Y367500D01*
Y372750D02*X59850Y373500D01*
X60600D01*
X58350Y370500D02*X59850D01*
X62850Y372750D02*Y367500D01*
Y372750D02*X63600Y373500D01*
X64350D01*
X62100Y370500D02*X63600D01*
X66600Y367500D02*X68850D01*
X65850Y368250D02*X66600Y367500D01*
X65850Y369750D02*Y368250D01*
Y369750D02*X66600Y370500D01*
X68100D01*
X68850Y369750D01*
X65850Y369000D02*X68850D01*
Y369750D02*Y369000D01*
X71400Y369750D02*Y367500D01*
Y369750D02*X72150Y370500D01*
X73650D01*
X70650D02*X71400Y369750D01*
X76200Y367500D02*X78450D01*
X75450Y368250D02*X76200Y367500D01*
X75450Y369750D02*Y368250D01*
Y369750D02*X76200Y370500D01*
X77700D01*
X78450Y369750D01*
X75450Y369000D02*X78450D01*
Y369750D02*Y369000D01*
X81000Y369750D02*Y367500D01*
Y369750D02*X81750Y370500D01*
X82500D01*
X83250Y369750D01*
Y367500D01*
X80250Y370500D02*X81000Y369750D01*
X85800Y373500D02*Y368250D01*
X86550Y367500D01*
X85050Y371250D02*X86550D01*
X93750Y373500D02*Y367500D01*
X93000D02*X93750Y368250D01*
X91500Y367500D02*X93000D01*
X90750Y368250D02*X91500Y367500D01*
X90750Y369750D02*Y368250D01*
Y369750D02*X91500Y370500D01*
X93000D01*
X93750Y369750D01*
X96300D02*Y367500D01*
Y369750D02*X97050Y370500D01*
X98550D01*
X95550D02*X96300Y369750D01*
X100350Y372000D02*Y371250D01*
Y369750D02*Y367500D01*
X101850Y373500D02*Y368250D01*
X102600Y367500D01*
X104100Y373500D02*Y368250D01*
X104850Y367500D01*
X109800D02*X112050D01*
X112800Y368250D01*
X112050Y369000D02*X112800Y368250D01*
X109800Y369000D02*X112050D01*
X109050Y369750D02*X109800Y369000D01*
X109050Y369750D02*X109800Y370500D01*
X112050D01*
X112800Y369750D01*
X109050Y368250D02*X109800Y367500D01*
X114600Y372000D02*Y371250D01*
Y369750D02*Y367500D01*
X116100Y370500D02*X119100D01*
X116100Y367500D02*X119100Y370500D01*
X116100Y367500D02*X119100D01*
X121650D02*X123900D01*
X120900Y368250D02*X121650Y367500D01*
X120900Y369750D02*Y368250D01*
Y369750D02*X121650Y370500D01*
X123150D01*
X123900Y369750D01*
X120900Y369000D02*X123900D01*
Y369750D02*Y369000D01*
X126450Y367500D02*X128700D01*
X129450Y368250D01*
X128700Y369000D02*X129450Y368250D01*
X126450Y369000D02*X128700D01*
X125700Y369750D02*X126450Y369000D01*
X125700Y369750D02*X126450Y370500D01*
X128700D01*
X129450Y369750D01*
X125700Y368250D02*X126450Y367500D01*
X133950Y370500D02*Y368250D01*
X134700Y367500D01*
X136200D01*
X136950Y368250D01*
Y370500D02*Y368250D01*
X139500Y367500D02*X141750D01*
X142500Y368250D01*
X141750Y369000D02*X142500Y368250D01*
X139500Y369000D02*X141750D01*
X138750Y369750D02*X139500Y369000D01*
X138750Y369750D02*X139500Y370500D01*
X141750D01*
X142500Y369750D01*
X138750Y368250D02*X139500Y367500D01*
X145050D02*X147300D01*
X144300Y368250D02*X145050Y367500D01*
X144300Y369750D02*Y368250D01*
Y369750D02*X145050Y370500D01*
X146550D01*
X147300Y369750D01*
X144300Y369000D02*X147300D01*
Y369750D02*Y369000D01*
X152100Y373500D02*Y367500D01*
X151350D02*X152100Y368250D01*
X149850Y367500D02*X151350D01*
X149100Y368250D02*X149850Y367500D01*
X149100Y369750D02*Y368250D01*
Y369750D02*X149850Y370500D01*
X151350D01*
X152100Y369750D01*
X156600Y372000D02*Y371250D01*
Y369750D02*Y367500D01*
X158850Y369750D02*Y367500D01*
Y369750D02*X159600Y370500D01*
X160350D01*
X161100Y369750D01*
Y367500D01*
X158100Y370500D02*X158850Y369750D01*
X166350Y373500D02*Y368250D01*
X167100Y367500D01*
X165600Y371250D02*X167100D01*
X168600Y373500D02*Y367500D01*
Y369750D02*X169350Y370500D01*
X170850D01*
X171600Y369750D01*
Y367500D01*
X173400Y372000D02*Y371250D01*
Y369750D02*Y367500D01*
X175650D02*X177900D01*
X178650Y368250D01*
X177900Y369000D02*X178650Y368250D01*
X175650Y369000D02*X177900D01*
X174900Y369750D02*X175650Y369000D01*
X174900Y369750D02*X175650Y370500D01*
X177900D01*
X178650Y369750D01*
X174900Y368250D02*X175650Y367500D01*
X183150Y373500D02*Y368250D01*
X183900Y367500D01*
X187650Y370500D02*X188400Y369750D01*
X186150Y370500D02*X187650D01*
X185400Y369750D02*X186150Y370500D01*
X185400Y369750D02*Y368250D01*
X186150Y367500D01*
X188400Y370500D02*Y368250D01*
X189150Y367500D01*
X186150D02*X187650D01*
X188400Y368250D01*
X190950Y370500D02*Y368250D01*
X191700Y367500D01*
X193950Y370500D02*Y366000D01*
X193200Y365250D02*X193950Y366000D01*
X191700Y365250D02*X193200D01*
X190950Y366000D02*X191700Y365250D01*
Y367500D02*X193200D01*
X193950Y368250D01*
X195750Y369750D02*Y368250D01*
Y369750D02*X196500Y370500D01*
X198000D01*
X198750Y369750D01*
Y368250D01*
X198000Y367500D02*X198750Y368250D01*
X196500Y367500D02*X198000D01*
X195750Y368250D02*X196500Y367500D01*
X200550Y370500D02*Y368250D01*
X201300Y367500D01*
X202800D01*
X203550Y368250D01*
Y370500D02*Y368250D01*
X206100Y373500D02*Y368250D01*
X206850Y367500D01*
X205350Y371250D02*X206850D01*
X208350Y366000D02*X209850Y367500D01*
X215100D02*X216600D01*
X215850Y373500D02*Y367500D01*
X214350Y372000D02*X215850Y373500D01*
X218400Y368250D02*X219150Y367500D01*
X218400Y372750D02*Y368250D01*
Y372750D02*X219150Y373500D01*
X220650D01*
X221400Y372750D01*
Y368250D01*
X220650Y367500D02*X221400Y368250D01*
X219150Y367500D02*X220650D01*
X218400Y369000D02*X221400Y372000D01*
X223200Y370500D02*X226200Y373500D01*
X223200Y370500D02*X226950D01*
X226200Y373500D02*Y367500D01*
X231450Y373500D02*Y367500D01*
Y369750D02*X232200Y370500D01*
X233700D01*
X234450Y369750D01*
Y367500D01*
X236250Y369750D02*Y368250D01*
Y369750D02*X237000Y370500D01*
X238500D01*
X239250Y369750D01*
Y368250D01*
X238500Y367500D02*X239250Y368250D01*
X237000Y367500D02*X238500D01*
X236250Y368250D02*X237000Y367500D01*
X241050Y373500D02*Y368250D01*
X241800Y367500D01*
X244050D02*X246300D01*
X243300Y368250D02*X244050Y367500D01*
X243300Y369750D02*Y368250D01*
Y369750D02*X244050Y370500D01*
X245550D01*
X246300Y369750D01*
X243300Y369000D02*X246300D01*
Y369750D02*Y369000D01*
X248850Y367500D02*X251100D01*
X251850Y368250D01*
X251100Y369000D02*X251850Y368250D01*
X248850Y369000D02*X251100D01*
X248100Y369750D02*X248850Y369000D01*
X248100Y369750D02*X248850Y370500D01*
X251100D01*
X251850Y369750D01*
X248100Y368250D02*X248850Y367500D01*
X257100Y373500D02*Y368250D01*
X257850Y367500D01*
X256350Y371250D02*X257850D01*
X259350Y369750D02*Y368250D01*
Y369750D02*X260100Y370500D01*
X261600D01*
X262350Y369750D01*
Y368250D01*
X261600Y367500D02*X262350Y368250D01*
X260100Y367500D02*X261600D01*
X259350Y368250D02*X260100Y367500D01*
X264900Y373500D02*Y368250D01*
X265650Y367500D01*
X264150Y371250D02*X265650D01*
X269400Y370500D02*X270150Y369750D01*
X267900Y370500D02*X269400D01*
X267150Y369750D02*X267900Y370500D01*
X267150Y369750D02*Y368250D01*
X267900Y367500D01*
X270150Y370500D02*Y368250D01*
X270900Y367500D01*
X267900D02*X269400D01*
X270150Y368250D01*
X272700Y373500D02*Y368250D01*
X273450Y367500D01*
G54D85*X0Y270000D02*Y10000D01*
X210000D02*Y270000D01*
X0D01*
Y10000D02*X10300D01*
X20300Y0D01*
X149700D01*
X159700Y10000D01*
X210000D01*
G54D84*X18675Y-9500D02*X21675D01*
X22425Y-8750D01*
Y-7250D02*Y-8750D01*
X21675Y-6500D02*X22425Y-7250D01*
X19425Y-6500D02*X21675D01*
X19425Y-3500D02*Y-9500D01*
X18675Y-3500D02*X21675D01*
X22425Y-4250D01*
Y-5750D01*
X21675Y-6500D02*X22425Y-5750D01*
X24225Y-7250D02*Y-8750D01*
Y-7250D02*X24975Y-6500D01*
X26475D01*
X27225Y-7250D01*
Y-8750D01*
X26475Y-9500D02*X27225Y-8750D01*
X24975Y-9500D02*X26475D01*
X24225Y-8750D02*X24975Y-9500D01*
X31275Y-6500D02*X32025Y-7250D01*
X29775Y-6500D02*X31275D01*
X29025Y-7250D02*X29775Y-6500D01*
X29025Y-7250D02*Y-8750D01*
X29775Y-9500D01*
X32025Y-6500D02*Y-8750D01*
X32775Y-9500D01*
X29775D02*X31275D01*
X32025Y-8750D01*
X35325Y-7250D02*Y-9500D01*
Y-7250D02*X36075Y-6500D01*
X37575D01*
X34575D02*X35325Y-7250D01*
X42375Y-3500D02*Y-9500D01*
X41625D02*X42375Y-8750D01*
X40125Y-9500D02*X41625D01*
X39375Y-8750D02*X40125Y-9500D01*
X39375Y-7250D02*Y-8750D01*
Y-7250D02*X40125Y-6500D01*
X41625D01*
X42375Y-7250D01*
X46875D02*Y-8750D01*
Y-7250D02*X47625Y-6500D01*
X49125D01*
X49875Y-7250D01*
Y-8750D01*
X49125Y-9500D02*X49875Y-8750D01*
X47625Y-9500D02*X49125D01*
X46875Y-8750D02*X47625Y-9500D01*
X51675Y-6500D02*Y-8750D01*
X52425Y-9500D01*
X53925D01*
X54675Y-8750D01*
Y-6500D02*Y-8750D01*
X57225Y-3500D02*Y-8750D01*
X57975Y-9500D01*
X56475Y-5750D02*X57975D01*
X59475Y-3500D02*Y-8750D01*
X60225Y-9500D01*
X61725Y-5000D02*Y-5750D01*
Y-7250D02*Y-9500D01*
X63975Y-7250D02*Y-9500D01*
Y-7250D02*X64725Y-6500D01*
X65475D01*
X66225Y-7250D01*
Y-9500D01*
X63225Y-6500D02*X63975Y-7250D01*
X68775Y-9500D02*X71025D01*
X68025Y-8750D02*X68775Y-9500D01*
X68025Y-7250D02*Y-8750D01*
Y-7250D02*X68775Y-6500D01*
X70275D01*
X71025Y-7250D01*
X68025Y-8000D02*X71025D01*
Y-7250D02*Y-8000D01*
X75525Y-5000D02*Y-5750D01*
Y-7250D02*Y-9500D01*
X77775D02*X80025D01*
X80775Y-8750D01*
X80025Y-8000D02*X80775Y-8750D01*
X77775Y-8000D02*X80025D01*
X77025Y-7250D02*X77775Y-8000D01*
X77025Y-7250D02*X77775Y-6500D01*
X80025D01*
X80775Y-7250D01*
X77025Y-8750D02*X77775Y-9500D01*
X86025Y-3500D02*Y-8750D01*
X86775Y-9500D01*
X85275Y-5750D02*X86775D01*
X88275Y-3500D02*Y-9500D01*
Y-7250D02*X89025Y-6500D01*
X90525D01*
X91275Y-7250D01*
Y-9500D01*
X93825D02*X96075D01*
X93075Y-8750D02*X93825Y-9500D01*
X93075Y-7250D02*Y-8750D01*
Y-7250D02*X93825Y-6500D01*
X95325D01*
X96075Y-7250D01*
X93075Y-8000D02*X96075D01*
Y-7250D02*Y-8000D01*
X101325Y-6500D02*X103575D01*
X100575Y-7250D02*X101325Y-6500D01*
X100575Y-7250D02*Y-8750D01*
X101325Y-9500D01*
X103575D01*
X106125D02*X108375D01*
X105375Y-8750D02*X106125Y-9500D01*
X105375Y-7250D02*Y-8750D01*
Y-7250D02*X106125Y-6500D01*
X107625D01*
X108375Y-7250D01*
X105375Y-8000D02*X108375D01*
Y-7250D02*Y-8000D01*
X110925Y-7250D02*Y-9500D01*
Y-7250D02*X111675Y-6500D01*
X112425D01*
X113175Y-7250D01*
Y-9500D01*
X110175Y-6500D02*X110925Y-7250D01*
X115725Y-3500D02*Y-8750D01*
X116475Y-9500D01*
X114975Y-5750D02*X116475D01*
X118725Y-9500D02*X120975D01*
X117975Y-8750D02*X118725Y-9500D01*
X117975Y-7250D02*Y-8750D01*
Y-7250D02*X118725Y-6500D01*
X120225D01*
X120975Y-7250D01*
X117975Y-8000D02*X120975D01*
Y-7250D02*Y-8000D01*
X123525Y-7250D02*Y-9500D01*
Y-7250D02*X124275Y-6500D01*
X125775D01*
X122775D02*X123525Y-7250D01*
X127575Y-3500D02*Y-8750D01*
X128325Y-9500D01*
X129825Y-5000D02*Y-5750D01*
Y-7250D02*Y-9500D01*
X132075Y-7250D02*Y-9500D01*
Y-7250D02*X132825Y-6500D01*
X133575D01*
X134325Y-7250D01*
Y-9500D01*
X131325Y-6500D02*X132075Y-7250D01*
X136875Y-9500D02*X139125D01*
X136125Y-8750D02*X136875Y-9500D01*
X136125Y-7250D02*Y-8750D01*
Y-7250D02*X136875Y-6500D01*
X138375D01*
X139125Y-7250D01*
X136125Y-8000D02*X139125D01*
Y-7250D02*Y-8000D01*
X143625Y-7250D02*Y-8750D01*
Y-7250D02*X144375Y-6500D01*
X145875D01*
X146625Y-7250D01*
Y-8750D01*
X145875Y-9500D02*X146625Y-8750D01*
X144375Y-9500D02*X145875D01*
X143625Y-8750D02*X144375Y-9500D01*
X149175Y-4250D02*Y-9500D01*
Y-4250D02*X149925Y-3500D01*
X150675D01*
X148425Y-6500D02*X149925D01*
X155625Y-3500D02*Y-8750D01*
X156375Y-9500D01*
X154875Y-5750D02*X156375D01*
X157875Y-3500D02*Y-9500D01*
Y-7250D02*X158625Y-6500D01*
X160125D01*
X160875Y-7250D01*
Y-9500D01*
X162675Y-5000D02*Y-5750D01*
Y-7250D02*Y-9500D01*
X164925D02*X167175D01*
X167925Y-8750D01*
X167175Y-8000D02*X167925Y-8750D01*
X164925Y-8000D02*X167175D01*
X164175Y-7250D02*X164925Y-8000D01*
X164175Y-7250D02*X164925Y-6500D01*
X167175D01*
X167925Y-7250D01*
X164175Y-8750D02*X164925Y-9500D01*
X173175Y-7250D02*Y-11750D01*
X172425Y-6500D02*X173175Y-7250D01*
X173925Y-6500D01*
X175425D01*
X176175Y-7250D01*
Y-8750D01*
X175425Y-9500D02*X176175Y-8750D01*
X173925Y-9500D02*X175425D01*
X173175Y-8750D02*X173925Y-9500D01*
X180225Y-6500D02*X180975Y-7250D01*
X178725Y-6500D02*X180225D01*
X177975Y-7250D02*X178725Y-6500D01*
X177975Y-7250D02*Y-8750D01*
X178725Y-9500D01*
X180975Y-6500D02*Y-8750D01*
X181725Y-9500D01*
X178725D02*X180225D01*
X180975Y-8750D01*
X184275Y-3500D02*Y-8750D01*
X185025Y-9500D01*
X183525Y-5750D02*X185025D01*
X186525Y-3500D02*Y-9500D01*
Y-7250D02*X187275Y-6500D01*
X188775D01*
X189525Y-7250D01*
Y-9500D01*
X200750Y298500D02*Y292500D01*
X203000Y298500D02*X203750Y297750D01*
Y293250D01*
X203000Y292500D02*X203750Y293250D01*
X200000Y292500D02*X203000D01*
X200000Y298500D02*X203000D01*
X207800Y295500D02*X208550Y294750D01*
X206300Y295500D02*X207800D01*
X205550Y294750D02*X206300Y295500D01*
X205550Y294750D02*Y293250D01*
X206300Y292500D01*
X208550Y295500D02*Y293250D01*
X209300Y292500D01*
X206300D02*X207800D01*
X208550Y293250D01*
X211850Y298500D02*Y293250D01*
X212600Y292500D01*
X211100Y296250D02*X212600D01*
X214850Y292500D02*X217100D01*
X214100Y293250D02*X214850Y292500D01*
X214100Y294750D02*Y293250D01*
Y294750D02*X214850Y295500D01*
X216350D01*
X217100Y294750D01*
X214100Y294000D02*X217100D01*
Y294750D02*Y294000D01*
X218900Y296250D02*X219650D01*
X218900Y294750D02*X219650D01*
X224150Y298500D02*Y292500D01*
Y298500D02*X226400Y296250D01*
X228650Y298500D01*
Y292500D01*
X230450Y294750D02*Y293250D01*
Y294750D02*X231200Y295500D01*
X232700D01*
X233450Y294750D01*
Y293250D01*
X232700Y292500D02*X233450Y293250D01*
X231200Y292500D02*X232700D01*
X230450Y293250D02*X231200Y292500D01*
X236000Y294750D02*Y292500D01*
Y294750D02*X236750Y295500D01*
X237500D01*
X238250Y294750D01*
Y292500D01*
X235250Y295500D02*X236000Y294750D01*
X242750Y297750D02*X243500Y298500D01*
X245750D01*
X246500Y297750D01*
Y296250D01*
X242750Y292500D02*X246500Y296250D01*
X242750Y292500D02*X246500D01*
X250550Y298500D02*X251300Y297750D01*
X249050Y298500D02*X250550D01*
X248300Y297750D02*X249050Y298500D01*
X248300Y297750D02*Y293250D01*
X249050Y292500D01*
X250550Y295500D02*X251300Y294750D01*
X248300Y295500D02*X250550D01*
X249050Y292500D02*X250550D01*
X251300Y293250D01*
Y294750D02*Y293250D01*
X256550Y298500D02*Y292500D01*
X258800Y298500D02*X259550Y297750D01*
Y293250D01*
X258800Y292500D02*X259550Y293250D01*
X255800Y292500D02*X258800D01*
X255800Y298500D02*X258800D01*
X262100Y292500D02*X264350D01*
X261350Y293250D02*X262100Y292500D01*
X261350Y294750D02*Y293250D01*
Y294750D02*X262100Y295500D01*
X263600D01*
X264350Y294750D01*
X261350Y294000D02*X264350D01*
Y294750D02*Y294000D01*
X266900Y295500D02*X269150D01*
X266150Y294750D02*X266900Y295500D01*
X266150Y294750D02*Y293250D01*
X266900Y292500D01*
X269150D01*
X273650Y297750D02*X274400Y298500D01*
X276650D01*
X277400Y297750D01*
Y296250D01*
X273650Y292500D02*X277400Y296250D01*
X273650Y292500D02*X277400D01*
X279200Y293250D02*X279950Y292500D01*
X279200Y297750D02*Y293250D01*
Y297750D02*X279950Y298500D01*
X281450D01*
X282200Y297750D01*
Y293250D01*
X281450Y292500D02*X282200Y293250D01*
X279950Y292500D02*X281450D01*
X279200Y294000D02*X282200Y297000D01*
X284750Y292500D02*X286250D01*
X285500Y298500D02*Y292500D01*
X284000Y297000D02*X285500Y298500D01*
X290300D02*X291050Y297750D01*
X288800Y298500D02*X290300D01*
X288050Y297750D02*X288800Y298500D01*
X288050Y297750D02*Y293250D01*
X288800Y292500D01*
X290300Y295500D02*X291050Y294750D01*
X288050Y295500D02*X290300D01*
X288800Y292500D02*X290300D01*
X291050Y293250D01*
Y294750D02*Y293250D01*
X295550D02*X296300Y292500D01*
X295550Y297750D02*Y293250D01*
Y297750D02*X296300Y298500D01*
X297800D01*
X298550Y297750D01*
Y293250D01*
X297800Y292500D02*X298550Y293250D01*
X296300Y292500D02*X297800D01*
X295550Y294000D02*X298550Y297000D01*
X300350Y297750D02*X301100Y298500D01*
X302600D01*
X303350Y297750D01*
Y293250D01*
X302600Y292500D02*X303350Y293250D01*
X301100Y292500D02*X302600D01*
X300350Y293250D02*X301100Y292500D01*
Y295500D02*X303350D01*
X305150Y296250D02*X305900D01*
X305150Y294750D02*X305900D01*
X307700Y298500D02*X310700D01*
X307700D02*Y295500D01*
X308450Y296250D01*
X309950D01*
X310700Y295500D01*
Y293250D01*
X309950Y292500D02*X310700Y293250D01*
X308450Y292500D02*X309950D01*
X307700Y293250D02*X308450Y292500D01*
X312500Y293250D02*X313250Y292500D01*
X312500Y297750D02*Y293250D01*
Y297750D02*X313250Y298500D01*
X314750D01*
X315500Y297750D01*
Y293250D01*
X314750Y292500D02*X315500Y293250D01*
X313250Y292500D02*X314750D01*
X312500Y294000D02*X315500Y297000D01*
X317300Y296250D02*X318050D01*
X317300Y294750D02*X318050D01*
X319850Y293250D02*X320600Y292500D01*
X319850Y297750D02*Y293250D01*
Y297750D02*X320600Y298500D01*
X322100D01*
X322850Y297750D01*
Y293250D01*
X322100Y292500D02*X322850Y293250D01*
X320600Y292500D02*X322100D01*
X319850Y294000D02*X322850Y297000D01*
X324650Y293250D02*X325400Y292500D01*
X324650Y297750D02*Y293250D01*
Y297750D02*X325400Y298500D01*
X326900D01*
X327650Y297750D01*
Y293250D01*
X326900Y292500D02*X327650Y293250D01*
X325400Y292500D02*X326900D01*
X324650Y294000D02*X327650Y297000D01*
X332150Y297750D02*Y292500D01*
Y297750D02*X332900Y298500D01*
X335150D01*
X335900Y297750D01*
Y292500D01*
X332150Y295500D02*X335900D01*
X337700Y298500D02*Y292500D01*
Y298500D02*X339950Y296250D01*
X342200Y298500D01*
Y292500D01*
X349700Y298500D02*X350450Y297750D01*
X347450Y298500D02*X349700D01*
X346700Y297750D02*X347450Y298500D01*
X346700Y297750D02*Y293250D01*
X347450Y292500D01*
X349700D01*
X350450Y293250D01*
Y294750D02*Y293250D01*
X349700Y295500D02*X350450Y294750D01*
X348200Y295500D02*X349700D01*
X352250Y298500D02*Y292500D01*
Y298500D02*X354500Y296250D01*
X356750Y298500D01*
Y292500D01*
X358550Y298500D02*X361550D01*
X360050D02*Y292500D01*
X366050Y298500D02*Y293250D01*
X366800Y292500D01*
X368300D01*
X369050Y293250D01*
Y298500D02*Y293250D01*
X370850Y298500D02*X373850D01*
X372350D02*Y292500D01*
X376400D02*X378650D01*
X375650Y293250D02*X376400Y292500D01*
X375650Y297750D02*Y293250D01*
Y297750D02*X376400Y298500D01*
X378650D01*
X200000Y312750D02*Y307500D01*
Y312750D02*X200750Y313500D01*
X203000D01*
X203750Y312750D01*
Y307500D01*
X200000Y310500D02*X203750D01*
X205550D02*Y308250D01*
X206300Y307500D01*
X207800D01*
X208550Y308250D01*
Y310500D02*Y308250D01*
X211100Y313500D02*Y308250D01*
X211850Y307500D01*
X210350Y311250D02*X211850D01*
X213350Y313500D02*Y307500D01*
Y309750D02*X214100Y310500D01*
X215600D01*
X216350Y309750D01*
Y307500D01*
X218150Y309750D02*Y308250D01*
Y309750D02*X218900Y310500D01*
X220400D01*
X221150Y309750D01*
Y308250D01*
X220400Y307500D02*X221150Y308250D01*
X218900Y307500D02*X220400D01*
X218150Y308250D02*X218900Y307500D01*
X223700Y309750D02*Y307500D01*
Y309750D02*X224450Y310500D01*
X225950D01*
X222950D02*X223700Y309750D01*
X227750Y311250D02*X228500D01*
X227750Y309750D02*X228500D01*
X233000Y313500D02*Y307500D01*
Y313500D02*X235250Y311250D01*
X237500Y313500D01*
Y307500D01*
X239300Y312000D02*Y311250D01*
Y309750D02*Y307500D01*
X241550Y310500D02*X243800D01*
X240800Y309750D02*X241550Y310500D01*
X240800Y309750D02*Y308250D01*
X241550Y307500D01*
X243800D01*
X245600Y313500D02*Y307500D01*
Y309750D02*X246350Y310500D01*
X247850D01*
X248600Y309750D01*
Y307500D01*
X252650Y310500D02*X253400Y309750D01*
X251150Y310500D02*X252650D01*
X250400Y309750D02*X251150Y310500D01*
X250400Y309750D02*Y308250D01*
X251150Y307500D01*
X253400Y310500D02*Y308250D01*
X254150Y307500D01*
X251150D02*X252650D01*
X253400Y308250D01*
X256700Y307500D02*X258950D01*
X255950Y308250D02*X256700Y307500D01*
X255950Y309750D02*Y308250D01*
Y309750D02*X256700Y310500D01*
X258200D01*
X258950Y309750D01*
X255950Y309000D02*X258950D01*
Y309750D02*Y309000D01*
X260750Y313500D02*Y308250D01*
X261500Y307500D01*
X266450Y313500D02*Y307500D01*
X265700Y313500D02*X268700D01*
X269450Y312750D01*
Y311250D01*
X268700Y310500D02*X269450Y311250D01*
X266450Y310500D02*X268700D01*
X272000Y307500D02*X274250D01*
X271250Y308250D02*X272000Y307500D01*
X271250Y309750D02*Y308250D01*
Y309750D02*X272000Y310500D01*
X273500D01*
X274250Y309750D01*
X271250Y309000D02*X274250D01*
Y309750D02*Y309000D01*
X276800Y313500D02*Y308250D01*
X277550Y307500D01*
X276050Y311250D02*X277550D01*
X279800Y307500D02*X282050D01*
X279050Y308250D02*X279800Y307500D01*
X279050Y309750D02*Y308250D01*
Y309750D02*X279800Y310500D01*
X281300D01*
X282050Y309750D01*
X279050Y309000D02*X282050D01*
Y309750D02*Y309000D01*
X284600Y309750D02*Y307500D01*
Y309750D02*X285350Y310500D01*
X286850D01*
X283850D02*X284600Y309750D01*
X289400Y307500D02*X291650D01*
X292400Y308250D01*
X291650Y309000D02*X292400Y308250D01*
X289400Y309000D02*X291650D01*
X288650Y309750D02*X289400Y309000D01*
X288650Y309750D02*X289400Y310500D01*
X291650D01*
X292400Y309750D01*
X288650Y308250D02*X289400Y307500D01*
X294950D02*X297200D01*
X294200Y308250D02*X294950Y307500D01*
X294200Y309750D02*Y308250D01*
Y309750D02*X294950Y310500D01*
X296450D01*
X297200Y309750D01*
X294200Y309000D02*X297200D01*
Y309750D02*Y309000D01*
X299750Y309750D02*Y307500D01*
Y309750D02*X300500Y310500D01*
X301250D01*
X302000Y309750D01*
Y307500D01*
X299000Y310500D02*X299750Y309750D01*
X200000Y328500D02*X203000D01*
X201500D02*Y322500D01*
X204800Y327000D02*Y326250D01*
Y324750D02*Y322500D01*
X207050Y328500D02*Y323250D01*
X207800Y322500D01*
X206300Y326250D02*X207800D01*
X209300Y328500D02*Y323250D01*
X210050Y322500D01*
X212300D02*X214550D01*
X211550Y323250D02*X212300Y322500D01*
X211550Y324750D02*Y323250D01*
Y324750D02*X212300Y325500D01*
X213800D01*
X214550Y324750D01*
X211550Y324000D02*X214550D01*
Y324750D02*Y324000D01*
X216350Y326250D02*X217100D01*
X216350Y324750D02*X217100D01*
X221600Y323250D02*X222350Y322500D01*
X221600Y327750D02*X222350Y328500D01*
X221600Y327750D02*Y323250D01*
X224150Y325500D02*Y323250D01*
X224900Y322500D01*
X226400D01*
X227150Y323250D01*
Y325500D02*Y323250D01*
X229700Y324750D02*Y322500D01*
Y324750D02*X230450Y325500D01*
X231200D01*
X231950Y324750D01*
Y322500D01*
X228950Y325500D02*X229700Y324750D01*
X233750Y328500D02*Y322500D01*
Y324750D02*X236000Y322500D01*
X233750Y324750D02*X235250Y326250D01*
X238550Y324750D02*Y322500D01*
Y324750D02*X239300Y325500D01*
X240050D01*
X240800Y324750D01*
Y322500D01*
X237800Y325500D02*X238550Y324750D01*
X242600D02*Y323250D01*
Y324750D02*X243350Y325500D01*
X244850D01*
X245600Y324750D01*
Y323250D01*
X244850Y322500D02*X245600Y323250D01*
X243350Y322500D02*X244850D01*
X242600Y323250D02*X243350Y322500D01*
X247400Y325500D02*Y323250D01*
X248150Y322500D01*
X248900D01*
X249650Y323250D01*
Y325500D02*Y323250D01*
X250400Y322500D01*
X251150D01*
X251900Y323250D01*
Y325500D02*Y323250D01*
X254450Y324750D02*Y322500D01*
Y324750D02*X255200Y325500D01*
X255950D01*
X256700Y324750D01*
Y322500D01*
X253700Y325500D02*X254450Y324750D01*
X258500Y328500D02*X259250Y327750D01*
Y323250D01*
X258500Y322500D02*X259250Y323250D01*
X263750Y325500D02*X266750D01*
X271250Y328500D02*Y322500D01*
Y328500D02*X274250D01*
X271250Y325500D02*X273500D01*
X278300D02*X279050Y324750D01*
X276800Y325500D02*X278300D01*
X276050Y324750D02*X276800Y325500D01*
X276050Y324750D02*Y323250D01*
X276800Y322500D01*
X279050Y325500D02*Y323250D01*
X279800Y322500D01*
X276800D02*X278300D01*
X279050Y323250D01*
X281600Y328500D02*Y322500D01*
Y323250D02*X282350Y322500D01*
X283850D01*
X284600Y323250D01*
Y324750D02*Y323250D01*
X283850Y325500D02*X284600Y324750D01*
X282350Y325500D02*X283850D01*
X281600Y324750D02*X282350Y325500D01*
X287150Y324750D02*Y322500D01*
Y324750D02*X287900Y325500D01*
X289400D01*
X286400D02*X287150Y324750D01*
X291200Y327000D02*Y326250D01*
Y324750D02*Y322500D01*
X293450Y325500D02*X295700D01*
X292700Y324750D02*X293450Y325500D01*
X292700Y324750D02*Y323250D01*
X293450Y322500D01*
X295700D01*
X299750Y325500D02*X300500Y324750D01*
X298250Y325500D02*X299750D01*
X297500Y324750D02*X298250Y325500D01*
X297500Y324750D02*Y323250D01*
X298250Y322500D01*
X300500Y325500D02*Y323250D01*
X301250Y322500D01*
X298250D02*X299750D01*
X300500Y323250D01*
X303800Y328500D02*Y323250D01*
X304550Y322500D01*
X303050Y326250D02*X304550D01*
X306050Y327000D02*Y326250D01*
Y324750D02*Y322500D01*
X307550Y324750D02*Y323250D01*
Y324750D02*X308300Y325500D01*
X309800D01*
X310550Y324750D01*
Y323250D01*
X309800Y322500D02*X310550Y323250D01*
X308300Y322500D02*X309800D01*
X307550Y323250D02*X308300Y322500D01*
X313100Y324750D02*Y322500D01*
Y324750D02*X313850Y325500D01*
X314600D01*
X315350Y324750D01*
Y322500D01*
X312350Y325500D02*X313100Y324750D01*
X320600Y328500D02*Y322500D01*
X322850Y328500D02*X323600Y327750D01*
Y323250D01*
X322850Y322500D02*X323600Y323250D01*
X319850Y322500D02*X322850D01*
X319850Y328500D02*X322850D01*
X326150Y324750D02*Y322500D01*
Y324750D02*X326900Y325500D01*
X328400D01*
X325400D02*X326150Y324750D01*
X332450Y325500D02*X333200Y324750D01*
X330950Y325500D02*X332450D01*
X330200Y324750D02*X330950Y325500D01*
X330200Y324750D02*Y323250D01*
X330950Y322500D01*
X333200Y325500D02*Y323250D01*
X333950Y322500D01*
X330950D02*X332450D01*
X333200Y323250D01*
X335750Y325500D02*Y323250D01*
X336500Y322500D01*
X337250D01*
X338000Y323250D01*
Y325500D02*Y323250D01*
X338750Y322500D01*
X339500D01*
X340250Y323250D01*
Y325500D02*Y323250D01*
X342050Y327000D02*Y326250D01*
Y324750D02*Y322500D01*
X344300Y324750D02*Y322500D01*
Y324750D02*X345050Y325500D01*
X345800D01*
X346550Y324750D01*
Y322500D01*
X343550Y325500D02*X344300Y324750D01*
X350600Y325500D02*X351350Y324750D01*
X349100Y325500D02*X350600D01*
X348350Y324750D02*X349100Y325500D01*
X348350Y324750D02*Y323250D01*
X349100Y322500D01*
X350600D01*
X351350Y323250D01*
X348350Y321000D02*X349100Y320250D01*
X350600D01*
X351350Y321000D01*
Y325500D02*Y321000D01*
M02*
