M48
INCH
T49C0.020
T48C0.129
T47C0.042
T46C0.038
%
T49
X001900Y023650
X003700Y022484
X004650Y012650
X005300Y012650
X005500Y012000
X006950Y010900
X007050Y012000
X007300Y011350
X007550Y019330
X008000Y016755
X008500Y020450
X009200Y022296
X009250Y012700
X009750Y019330
X009900Y013150
X010400Y022296
X010700Y013150
X011200Y011950
X011450Y014400
X011450Y012700
X011700Y011950
X012100Y020450
X012150Y014150
X012800Y022296
X013200Y013250
X013800Y003850
X014000Y022296
X014200Y014200
X014300Y003850
X015655Y024228
X016000Y016700
X016000Y015500
T46
X001000Y016000
X001000Y015000
X001000Y014000
X001000Y013000
X001000Y012000
X001000Y011000
X001000Y010000
X001000Y009000
X001000Y007000
X001000Y006000
X001000Y005000
X001000Y004000
X001000Y003000
X001000Y002000
X020000Y019600
X020000Y018600
X020000Y017600
X020000Y016600
X020000Y015600
X020000Y014600
X020000Y013600
X020000Y012600
X020000Y011600
X020000Y010600
X020000Y009000
X020000Y008000
X020000Y007000
X020000Y006000
X020000Y005000
X020000Y004000
X020000Y003000
X020000Y002000
T47
X000900Y024700
X001900Y024700
X002900Y024700
X003900Y024700
X004900Y024700
X005000Y002300
X005900Y024700
X006000Y002300
X006900Y024700
X007000Y013500
X007000Y002300
X007900Y024700
X008000Y002300
X009000Y002300
X010000Y002300
X011000Y002300
X011750Y024700
X012000Y002300
X012850Y008000
X012850Y007000
X012850Y006000
X012850Y005000
X014500Y013350
X014850Y008000
X014850Y007000
X014850Y006000
X014850Y005000
X015500Y013350
X016500Y013350
X016850Y008000
X016850Y007000
X016850Y006000
X016850Y005000
X017500Y013350
T48
X001000Y021500
X003000Y001000
X014000Y001000
X020000Y021000
M30
