G04 start of page 11 for group -4015 idx -4015 *
G04 Title: (unknown), toppaste *
G04 Creator: pcb 20140316 *
G04 CreationDate: Mon 26 Dec 2016 03:50:00 AM GMT UTC *
G04 For: railfan *
G04 Format: Gerber/RS-274X *
G04 PCB-Dimensions (mil): 2100.00 2700.00 *
G04 PCB-Coordinate-Origin: lower left *
%MOIN*%
%FSLAX25Y25*%
%LNTOPPASTE*%
%ADD82R,0.0470X0.0470*%
%ADD81R,0.0167X0.0167*%
%ADD80R,0.0300X0.0300*%
%ADD79C,0.0600*%
%ADD78R,0.0244X0.0244*%
%ADD77R,0.0512X0.0512*%
%ADD76R,0.0130X0.0130*%
%ADD75C,0.0001*%
%ADD74R,0.0120X0.0120*%
%ADD73R,0.0430X0.0430*%
G54D73*X139800Y32450D02*X141400D01*
X139800Y26550D02*X141400D01*
X151600Y32450D02*X153200D01*
X151600Y26550D02*X153200D01*
G54D74*X67441Y151046D02*Y150046D01*
X70000Y151046D02*Y150046D01*
X72560Y151046D02*Y150046D01*
X75119Y151046D02*Y150046D01*
Y168046D02*Y167046D01*
X72560Y168046D02*Y167046D01*
X70000Y168046D02*Y167046D01*
X67441Y168046D02*Y167046D01*
G54D75*G36*
X69312Y161014D02*Y157077D01*
X73248D01*
Y161014D01*
X69312D01*
G37*
G54D76*X100583Y127074D02*X105189D01*
X100583Y124515D02*X105189D01*
X100583Y121956D02*X105189D01*
X100583Y119397D02*X105189D01*
X100583Y116838D02*X105189D01*
X100583Y114279D02*X105189D01*
X100583Y111721D02*X105189D01*
X100583Y109162D02*X105189D01*
X100583Y106603D02*X105189D01*
X100583Y104044D02*X105189D01*
X100583Y101485D02*X105189D01*
X100583Y98926D02*X105189D01*
X123811D02*X128417D01*
X123811Y101485D02*X128417D01*
X123811Y104044D02*X128417D01*
X123811Y106603D02*X128417D01*
X123811Y109162D02*X128417D01*
X123811Y111721D02*X128417D01*
X123811Y114279D02*X128417D01*
X123811Y116838D02*X128417D01*
X123811Y119397D02*X128417D01*
X123811Y121956D02*X128417D01*
X123811Y124515D02*X128417D01*
X123811Y127074D02*X128417D01*
G54D77*X163543Y174393D02*Y173607D01*
X156457Y174393D02*Y173607D01*
G54D78*X153642Y164740D02*X156004D01*
X153642Y161000D02*X156004D01*
X153642Y157260D02*X156004D01*
X163996D02*X166358D01*
X163996Y161000D02*X166358D01*
X163996Y164740D02*X166358D01*
G54D77*X167043Y148393D02*Y147607D01*
X159957Y148393D02*Y147607D01*
G54D79*X132000Y138100D03*
G54D80*X130500Y139600D02*X133500D01*
G54D79*X132000Y144900D03*
G54D80*X130500Y143400D02*X133500D01*
G54D81*X120913Y148925D02*X122783D01*
X120913Y152075D02*X122783D01*
X114217D02*X116087D01*
X114217Y148925D02*X116087D01*
G54D77*X114457Y136393D02*Y135607D01*
X121543Y136393D02*Y135607D01*
G54D79*X142000Y147600D03*
G54D80*X140500Y149100D02*X143500D01*
G54D79*X142000Y154400D03*
G54D80*X140500Y152900D02*X143500D01*
G54D77*X110607Y219414D02*X111393D01*
X110607Y226500D02*X111393D01*
G54D78*X101740Y229315D02*Y226953D01*
X98000Y229315D02*Y226953D01*
X94260Y229315D02*Y226953D01*
Y218961D02*Y216599D01*
X98000Y218961D02*Y216599D01*
X101740Y218961D02*Y216599D01*
G54D77*X84607Y215914D02*X85393D01*
X84607Y223000D02*X85393D01*
X146607Y219414D02*X147393D01*
X146607Y226500D02*X147393D01*
G54D78*X137740Y229315D02*Y226953D01*
X134000Y229315D02*Y226953D01*
X130260Y229315D02*Y226953D01*
Y218961D02*Y216599D01*
X134000Y218961D02*Y216599D01*
X137740Y218961D02*Y216599D01*
G54D77*X120607Y215914D02*X121393D01*
X120607Y223000D02*X121393D01*
G54D82*X84100Y173700D02*X89250D01*
X84100Y183500D02*X89250D01*
X84100Y193300D02*X89250D01*
X105750Y173700D02*X110900D01*
X105750Y183500D02*X110900D01*
X105750Y193300D02*X110900D01*
G54D74*X60000Y217161D02*X61000D01*
X60000Y219720D02*X61000D01*
X60000Y222280D02*X61000D01*
X60000Y224839D02*X61000D01*
X43000D02*X44000D01*
X43000Y222280D02*X44000D01*
X43000Y219720D02*X44000D01*
X43000Y217161D02*X44000D01*
G54D75*G36*
X50032Y222968D02*Y219032D01*
X53968D01*
Y222968D01*
X50032D01*
G37*
G54D77*X171957Y23893D02*Y23107D01*
X179043Y23893D02*Y23107D01*
X171957Y33893D02*Y33107D01*
X179043Y33893D02*Y33107D01*
G54D74*X139000Y254839D02*X140000D01*
X139000Y252280D02*X140000D01*
X139000Y249720D02*X140000D01*
X139000Y247161D02*X140000D01*
X156000D02*X157000D01*
X156000Y249720D02*X157000D01*
X156000Y252280D02*X157000D01*
X156000Y254839D02*X157000D01*
G54D75*G36*
X146032Y252968D02*Y249032D01*
X149968D01*
Y252968D01*
X146032D01*
G37*
M02*
