G04 start of page 12 for group -3984 idx -3984 *
G04 Title: (unknown), fab *
G04 Creator: pcb 20110918 *
G04 CreationDate: Wed 23 Apr 2014 02:57:30 AM GMT UTC *
G04 For: railfan *
G04 Format: Gerber/RS-274X *
G04 PCB-Dimensions: 210000 270000 *
G04 PCB-Coordinate-Origin: lower left *
%MOIN*%
%FSLAX25Y25*%
%LNFAB*%
%ADD77C,0.0100*%
%ADD76C,0.0060*%
%ADD75R,0.0080X0.0080*%
G54D75*X139200Y10000D02*G75*G03X140800Y10000I800J0D01*G01*
G75*G03X139200Y10000I-800J0D01*G01*
X199200Y210000D02*G75*G03X200800Y210000I800J0D01*G01*
G75*G03X199200Y210000I-800J0D01*G01*
X9200Y215000D02*G75*G03X10800Y215000I800J0D01*G01*
G75*G03X9200Y215000I-800J0D01*G01*
X29200Y10000D02*G75*G03X30800Y10000I800J0D01*G01*
G75*G03X29200Y10000I-800J0D01*G01*
X14200Y281250D02*G75*G03X15800Y281250I800J0D01*G01*
G75*G03X14200Y281250I-800J0D01*G01*
G54D76*X135000Y283500D02*Y282750D01*
X136500Y281250D01*
X138000Y282750D01*
Y283500D02*Y282750D01*
X136500Y281250D02*Y277500D01*
X139800Y280500D02*X142050D01*
X139800Y277500D02*X142800D01*
X139800Y283500D02*Y277500D01*
Y283500D02*X142800D01*
X147600D02*X148350Y282750D01*
X145350Y283500D02*X147600D01*
X144600Y282750D02*X145350Y283500D01*
X144600Y282750D02*Y281250D01*
X145350Y280500D01*
X147600D01*
X148350Y279750D01*
Y278250D01*
X147600Y277500D02*X148350Y278250D01*
X145350Y277500D02*X147600D01*
X144600Y278250D02*X145350Y277500D01*
X98000Y280500D02*X101000Y283500D01*
X98000Y280500D02*X101750D01*
X101000Y283500D02*Y277500D01*
X45000Y278250D02*X45750Y277500D01*
X45000Y282750D02*Y278250D01*
Y282750D02*X45750Y283500D01*
X47250D01*
X48000Y282750D01*
Y278250D01*
X47250Y277500D02*X48000Y278250D01*
X45750Y277500D02*X47250D01*
X45000Y279000D02*X48000Y282000D01*
X49800Y277500D02*X50550D01*
X53100D02*X54600D01*
X53850Y283500D02*Y277500D01*
X52350Y282000D02*X53850Y283500D01*
X56400Y282750D02*X57150Y283500D01*
X59400D01*
X60150Y282750D01*
Y281250D01*
X56400Y277500D02*X60150Y281250D01*
X56400Y277500D02*X60150D01*
X61950D02*X64950Y280500D01*
Y282750D02*Y280500D01*
X64200Y283500D02*X64950Y282750D01*
X62700Y283500D02*X64200D01*
X61950Y282750D02*X62700Y283500D01*
X61950Y282750D02*Y281250D01*
X62700Y280500D01*
X64950D01*
X48800Y24200D02*X51200Y21800D01*
X48800D02*X51200Y24200D01*
X58800D02*X61200Y21800D01*
X58800D02*X61200Y24200D01*
X68800D02*X71200Y21800D01*
X68800D02*X71200Y24200D01*
X78800D02*X81200Y21800D01*
X78800D02*X81200Y24200D01*
X88800D02*X91200Y21800D01*
X88800D02*X91200Y24200D01*
X98800D02*X101200Y21800D01*
X98800D02*X101200Y24200D01*
X108800D02*X111200Y21800D01*
X108800D02*X111200Y24200D01*
X118800D02*X121200Y21800D01*
X118800D02*X121200Y24200D01*
X77800Y248200D02*X80200Y245800D01*
X77800D02*X80200Y248200D01*
X67800D02*X70200Y245800D01*
X67800D02*X70200Y248200D01*
X57800D02*X60200Y245800D01*
X57800D02*X60200Y248200D01*
X47800D02*X50200Y245800D01*
X47800D02*X50200Y248200D01*
X37800D02*X40200Y245800D01*
X37800D02*X40200Y248200D01*
X27800D02*X30200Y245800D01*
X27800D02*X30200Y248200D01*
X17800D02*X20200Y245800D01*
X17800D02*X20200Y248200D01*
X7800D02*X10200Y245800D01*
X7800D02*X10200Y248200D01*
X116300D02*X118700Y245800D01*
X116300D02*X118700Y248200D01*
X96300D02*X98700Y245800D01*
X96300D02*X98700Y248200D01*
X13800Y297450D02*X16200Y295050D01*
X13800D02*X16200Y297450D01*
X135000Y298500D02*Y297750D01*
X136500Y296250D01*
X138000Y297750D01*
Y298500D02*Y297750D01*
X136500Y296250D02*Y292500D01*
X139800Y295500D02*X142050D01*
X139800Y292500D02*X142800D01*
X139800Y298500D02*Y292500D01*
Y298500D02*X142800D01*
X147600D02*X148350Y297750D01*
X145350Y298500D02*X147600D01*
X144600Y297750D02*X145350Y298500D01*
X144600Y297750D02*Y296250D01*
X145350Y295500D01*
X147600D01*
X148350Y294750D01*
Y293250D01*
X147600Y292500D02*X148350Y293250D01*
X145350Y292500D02*X147600D01*
X144600Y293250D02*X145350Y292500D01*
X98750D02*X100250D01*
X99500Y298500D02*Y292500D01*
X98000Y297000D02*X99500Y298500D01*
X102050Y293250D02*X102800Y292500D01*
X102050Y294750D02*Y293250D01*
Y294750D02*X102800Y295500D01*
X104300D01*
X105050Y294750D01*
Y293250D01*
X104300Y292500D02*X105050Y293250D01*
X102800Y292500D02*X104300D01*
X102050Y296250D02*X102800Y295500D01*
X102050Y297750D02*Y296250D01*
Y297750D02*X102800Y298500D01*
X104300D01*
X105050Y297750D01*
Y296250D01*
X104300Y295500D02*X105050Y296250D01*
X45000Y293250D02*X45750Y292500D01*
X45000Y297750D02*Y293250D01*
Y297750D02*X45750Y298500D01*
X47250D01*
X48000Y297750D01*
Y293250D01*
X47250Y292500D02*X48000Y293250D01*
X45750Y292500D02*X47250D01*
X45000Y294000D02*X48000Y297000D01*
X49800Y292500D02*X50550D01*
X52350Y293250D02*X53100Y292500D01*
X52350Y297750D02*Y293250D01*
Y297750D02*X53100Y298500D01*
X54600D01*
X55350Y297750D01*
Y293250D01*
X54600Y292500D02*X55350Y293250D01*
X53100Y292500D02*X54600D01*
X52350Y294000D02*X55350Y297000D01*
X57150Y295500D02*X60150Y298500D01*
X57150Y295500D02*X60900D01*
X60150Y298500D02*Y292500D01*
X62700Y293250D02*X63450Y292500D01*
X62700Y294750D02*Y293250D01*
Y294750D02*X63450Y295500D01*
X64950D01*
X65700Y294750D01*
Y293250D01*
X64950Y292500D02*X65700Y293250D01*
X63450Y292500D02*X64950D01*
X62700Y296250D02*X63450Y295500D01*
X62700Y297750D02*Y296250D01*
Y297750D02*X63450Y298500D01*
X64950D01*
X65700Y297750D01*
Y296250D01*
X64950Y295500D02*X65700Y296250D01*
X10000Y161600D02*Y158400D01*
X8400Y160000D02*X11600D01*
X10000Y151600D02*Y148400D01*
X8400Y150000D02*X11600D01*
X10000Y141600D02*Y138400D01*
X8400Y140000D02*X11600D01*
X10000Y131600D02*Y128400D01*
X8400Y130000D02*X11600D01*
X10000Y121600D02*Y118400D01*
X8400Y120000D02*X11600D01*
X10000Y111600D02*Y108400D01*
X8400Y110000D02*X11600D01*
X10000Y101600D02*Y98400D01*
X8400Y100000D02*X11600D01*
X10000Y91600D02*Y88400D01*
X8400Y90000D02*X11600D01*
X10000Y71600D02*Y68400D01*
X8400Y70000D02*X11600D01*
X10000Y61600D02*Y58400D01*
X8400Y60000D02*X11600D01*
X10000Y51600D02*Y48400D01*
X8400Y50000D02*X11600D01*
X10000Y41600D02*Y38400D01*
X8400Y40000D02*X11600D01*
X10000Y31600D02*Y28400D01*
X8400Y30000D02*X11600D01*
X10000Y21600D02*Y18400D01*
X8400Y20000D02*X11600D01*
X200000Y21600D02*Y18400D01*
X198400Y20000D02*X201600D01*
X200000Y31600D02*Y28400D01*
X198400Y30000D02*X201600D01*
X200000Y41600D02*Y38400D01*
X198400Y40000D02*X201600D01*
X200000Y51600D02*Y48400D01*
X198400Y50000D02*X201600D01*
X200000Y61600D02*Y58400D01*
X198400Y60000D02*X201600D01*
X200000Y71600D02*Y68400D01*
X198400Y70000D02*X201600D01*
X200000Y81600D02*Y78400D01*
X198400Y80000D02*X201600D01*
X200000Y91600D02*Y88400D01*
X198400Y90000D02*X201600D01*
X200000Y107600D02*Y104400D01*
X198400Y106000D02*X201600D01*
X200000Y117600D02*Y114400D01*
X198400Y116000D02*X201600D01*
X200000Y127600D02*Y124400D01*
X198400Y126000D02*X201600D01*
X200000Y137600D02*Y134400D01*
X198400Y136000D02*X201600D01*
X200000Y147600D02*Y144400D01*
X198400Y146000D02*X201600D01*
X200000Y157600D02*Y154400D01*
X198400Y156000D02*X201600D01*
X200000Y167600D02*Y164400D01*
X198400Y166000D02*X201600D01*
X200000Y177600D02*Y174400D01*
X198400Y176000D02*X201600D01*
X200000Y187600D02*Y184400D01*
X198400Y186000D02*X201600D01*
X200000Y197600D02*Y194400D01*
X198400Y196000D02*X201600D01*
X47000Y120100D02*Y116900D01*
X45400Y118500D02*X48600D01*
X57000Y120100D02*Y116900D01*
X55400Y118500D02*X58600D01*
X67000Y120100D02*Y116900D01*
X65400Y118500D02*X68600D01*
X151500Y187600D02*Y184400D01*
X149900Y186000D02*X153100D01*
X161500Y187600D02*Y184400D01*
X159900Y186000D02*X163100D01*
X171500Y187600D02*Y184400D01*
X169900Y186000D02*X173100D01*
X151500Y197600D02*Y194400D01*
X149900Y196000D02*X153100D01*
X161500Y197600D02*Y194400D01*
X159900Y196000D02*X163100D01*
X171500Y197600D02*Y194400D01*
X169900Y196000D02*X173100D01*
X171500Y222600D02*Y219400D01*
X169900Y221000D02*X173100D01*
X171500Y212600D02*Y209400D01*
X169900Y211000D02*X173100D01*
X151500Y222600D02*Y219400D01*
X149900Y221000D02*X153100D01*
X151500Y212600D02*Y209400D01*
X149900Y211000D02*X153100D01*
X162500Y145600D02*Y142400D01*
X160900Y144000D02*X164100D01*
X162500Y135600D02*Y132400D01*
X160900Y134000D02*X164100D01*
X147500Y145600D02*Y142400D01*
X145900Y144000D02*X149100D01*
X147500Y135600D02*Y132400D01*
X145900Y134000D02*X149100D01*
X140000Y99600D02*Y96400D01*
X138400Y98000D02*X141600D01*
X140000Y89600D02*Y86400D01*
X138400Y88000D02*X141600D01*
X140000Y79600D02*Y76400D01*
X138400Y78000D02*X141600D01*
X155000Y99600D02*Y96400D01*
X153400Y98000D02*X156600D01*
X155000Y89600D02*Y86400D01*
X153400Y88000D02*X156600D01*
X155000Y79600D02*Y76400D01*
X153400Y78000D02*X156600D01*
X170000Y99600D02*Y96400D01*
X168400Y98000D02*X171600D01*
X170000Y89600D02*Y86400D01*
X168400Y88000D02*X171600D01*
X170000Y79600D02*Y76400D01*
X168400Y78000D02*X171600D01*
X15000Y312850D02*Y309650D01*
X13400Y311250D02*X16600D01*
X135000Y313500D02*Y312750D01*
X136500Y311250D01*
X138000Y312750D01*
Y313500D02*Y312750D01*
X136500Y311250D02*Y307500D01*
X139800Y310500D02*X142050D01*
X139800Y307500D02*X142800D01*
X139800Y313500D02*Y307500D01*
Y313500D02*X142800D01*
X147600D02*X148350Y312750D01*
X145350Y313500D02*X147600D01*
X144600Y312750D02*X145350Y313500D01*
X144600Y312750D02*Y311250D01*
X145350Y310500D01*
X147600D01*
X148350Y309750D01*
Y308250D01*
X147600Y307500D02*X148350Y308250D01*
X145350Y307500D02*X147600D01*
X144600Y308250D02*X145350Y307500D01*
X98000Y313500D02*X101000D01*
X98000D02*Y310500D01*
X98750Y311250D01*
X100250D01*
X101000Y310500D01*
Y308250D01*
X100250Y307500D02*X101000Y308250D01*
X98750Y307500D02*X100250D01*
X98000Y308250D02*X98750Y307500D01*
X102800Y308250D02*X103550Y307500D01*
X102800Y309750D02*Y308250D01*
Y309750D02*X103550Y310500D01*
X105050D01*
X105800Y309750D01*
Y308250D01*
X105050Y307500D02*X105800Y308250D01*
X103550Y307500D02*X105050D01*
X102800Y311250D02*X103550Y310500D01*
X102800Y312750D02*Y311250D01*
Y312750D02*X103550Y313500D01*
X105050D01*
X105800Y312750D01*
Y311250D01*
X105050Y310500D02*X105800Y311250D01*
X45000Y308250D02*X45750Y307500D01*
X45000Y312750D02*Y308250D01*
Y312750D02*X45750Y313500D01*
X47250D01*
X48000Y312750D01*
Y308250D01*
X47250Y307500D02*X48000Y308250D01*
X45750Y307500D02*X47250D01*
X45000Y309000D02*X48000Y312000D01*
X49800Y307500D02*X50550D01*
X52350Y308250D02*X53100Y307500D01*
X52350Y312750D02*Y308250D01*
Y312750D02*X53100Y313500D01*
X54600D01*
X55350Y312750D01*
Y308250D01*
X54600Y307500D02*X55350Y308250D01*
X53100Y307500D02*X54600D01*
X52350Y309000D02*X55350Y312000D01*
X57150Y312750D02*X57900Y313500D01*
X59400D01*
X60150Y312750D01*
Y308250D01*
X59400Y307500D02*X60150Y308250D01*
X57900Y307500D02*X59400D01*
X57150Y308250D02*X57900Y307500D01*
Y310500D02*X60150D01*
X61950Y308250D02*X62700Y307500D01*
X61950Y309750D02*Y308250D01*
Y309750D02*X62700Y310500D01*
X64200D01*
X64950Y309750D01*
Y308250D01*
X64200Y307500D02*X64950Y308250D01*
X62700Y307500D02*X64200D01*
X61950Y311250D02*X62700Y310500D01*
X61950Y312750D02*Y311250D01*
Y312750D02*X62700Y313500D01*
X64200D01*
X64950Y312750D01*
Y311250D01*
X64200Y310500D02*X64950Y311250D01*
X169500Y165000D02*Y163400D01*
Y165000D02*X170887Y165800D01*
X169500Y165000D02*X168113Y165800D01*
X153000Y165000D02*Y163400D01*
Y165000D02*X154387Y165800D01*
X153000Y165000D02*X151613Y165800D01*
X178000Y134000D02*Y132400D01*
Y134000D02*X179387Y134800D01*
X178000Y134000D02*X176613Y134800D01*
X132000Y103000D02*Y101400D01*
Y103000D02*X133387Y103800D01*
X132000Y103000D02*X130613Y103800D01*
X132000Y111000D02*Y109400D01*
Y111000D02*X133387Y111800D01*
X132000Y111000D02*X130613Y111800D01*
X132000Y116000D02*Y114400D01*
Y116000D02*X133387Y116800D01*
X132000Y116000D02*X130613Y116800D01*
X132000Y126000D02*Y124400D01*
Y126000D02*X133387Y126800D01*
X132000Y126000D02*X130613Y126800D01*
X132000Y131000D02*Y129400D01*
Y131000D02*X133387Y131800D01*
X132000Y131000D02*X130613Y131800D01*
X132000Y136000D02*Y134400D01*
Y136000D02*X133387Y136800D01*
X132000Y136000D02*X130613Y136800D01*
X132000Y141000D02*Y139400D01*
Y141000D02*X133387Y141800D01*
X132000Y141000D02*X130613Y141800D01*
X132000Y146000D02*Y144400D01*
Y146000D02*X133387Y146800D01*
X132000Y146000D02*X130613Y146800D01*
X132000Y151000D02*Y149400D01*
Y151000D02*X133387Y151800D01*
X132000Y151000D02*X130613Y151800D01*
X132000Y156000D02*Y154400D01*
Y156000D02*X133387Y156800D01*
X132000Y156000D02*X130613Y156800D01*
X105500Y143500D02*Y141900D01*
Y143500D02*X106887Y144300D01*
X105500Y143500D02*X104113Y144300D01*
X110500Y143500D02*Y141900D01*
Y143500D02*X111887Y144300D01*
X110500Y143500D02*X109113Y144300D01*
X107000Y105500D02*Y103900D01*
Y105500D02*X108387Y106300D01*
X107000Y105500D02*X105613Y106300D01*
X99500Y142500D02*Y140900D01*
Y142500D02*X100887Y143300D01*
X99500Y142500D02*X98113Y143300D01*
X99500Y137500D02*Y135900D01*
Y137500D02*X100887Y138300D01*
X99500Y137500D02*X98113Y138300D01*
X99500Y132500D02*Y130900D01*
Y132500D02*X100887Y133300D01*
X99500Y132500D02*X98113Y133300D01*
X99500Y127500D02*Y125900D01*
Y127500D02*X100887Y128300D01*
X99500Y127500D02*X98113Y128300D01*
X99500Y122500D02*Y120900D01*
Y122500D02*X100887Y123300D01*
X99500Y122500D02*X98113Y123300D01*
X99500Y117500D02*Y115900D01*
Y117500D02*X100887Y118300D01*
X99500Y117500D02*X98113Y118300D01*
X132000Y121000D02*Y119400D01*
Y121000D02*X133387Y121800D01*
X132000Y121000D02*X130613Y121800D01*
X157500Y172000D02*Y170400D01*
Y172000D02*X158887Y172800D01*
X157500Y172000D02*X156113Y172800D01*
X144000Y172000D02*Y170400D01*
Y172000D02*X145387Y172800D01*
X144000Y172000D02*X142613Y172800D01*
X144000Y165000D02*Y163400D01*
Y165000D02*X145387Y165800D01*
X144000Y165000D02*X142613Y165800D01*
X105500Y177000D02*Y175400D01*
Y177000D02*X106887Y177800D01*
X105500Y177000D02*X104113Y177800D01*
X155000Y113500D02*Y111900D01*
Y113500D02*X156387Y114300D01*
X155000Y113500D02*X153613Y114300D01*
X42000Y111000D02*Y109400D01*
Y111000D02*X43387Y111800D01*
X42000Y111000D02*X40613Y111800D01*
X42000Y105000D02*Y103400D01*
Y105000D02*X43387Y105800D01*
X42000Y105000D02*X40613Y105800D01*
X42000Y99000D02*Y97400D01*
Y99000D02*X43387Y99800D01*
X42000Y99000D02*X40613Y99800D01*
X18000Y105000D02*Y103400D01*
Y105000D02*X19387Y105800D01*
X18000Y105000D02*X16613Y105800D01*
X23500Y105000D02*Y103400D01*
Y105000D02*X24887Y105800D01*
X23500Y105000D02*X22113Y105800D01*
X29000Y105000D02*Y103400D01*
Y105000D02*X30387Y105800D01*
X29000Y105000D02*X27613Y105800D01*
X15000Y326250D02*Y324650D01*
Y326250D02*X16387Y327050D01*
X15000Y326250D02*X13613Y327050D01*
X135000Y328500D02*Y327750D01*
X136500Y326250D01*
X138000Y327750D01*
Y328500D02*Y327750D01*
X136500Y326250D02*Y322500D01*
X139800Y325500D02*X142050D01*
X139800Y322500D02*X142800D01*
X139800Y328500D02*Y322500D01*
Y328500D02*X142800D01*
X147600D02*X148350Y327750D01*
X145350Y328500D02*X147600D01*
X144600Y327750D02*X145350Y328500D01*
X144600Y327750D02*Y326250D01*
X145350Y325500D01*
X147600D01*
X148350Y324750D01*
Y323250D01*
X147600Y322500D02*X148350Y323250D01*
X145350Y322500D02*X147600D01*
X144600Y323250D02*X145350Y322500D01*
X98000Y327750D02*X98750Y328500D01*
X100250D01*
X101000Y327750D01*
Y323250D01*
X100250Y322500D02*X101000Y323250D01*
X98750Y322500D02*X100250D01*
X98000Y323250D02*X98750Y322500D01*
Y325500D02*X101000D01*
X102800D02*X105800Y328500D01*
X102800Y325500D02*X106550D01*
X105800Y328500D02*Y322500D01*
X45000Y323250D02*X45750Y322500D01*
X45000Y327750D02*Y323250D01*
Y327750D02*X45750Y328500D01*
X47250D01*
X48000Y327750D01*
Y323250D01*
X47250Y322500D02*X48000Y323250D01*
X45750Y322500D02*X47250D01*
X45000Y324000D02*X48000Y327000D01*
X49800Y322500D02*X50550D01*
X52350Y323250D02*X53100Y322500D01*
X52350Y327750D02*Y323250D01*
Y327750D02*X53100Y328500D01*
X54600D01*
X55350Y327750D01*
Y323250D01*
X54600Y322500D02*X55350Y323250D01*
X53100Y322500D02*X54600D01*
X52350Y324000D02*X55350Y327000D01*
X57150Y327750D02*X57900Y328500D01*
X60150D01*
X60900Y327750D01*
Y326250D01*
X57150Y322500D02*X60900Y326250D01*
X57150Y322500D02*X60900D01*
X62700Y323250D02*X63450Y322500D01*
X62700Y327750D02*Y323250D01*
Y327750D02*X63450Y328500D01*
X64950D01*
X65700Y327750D01*
Y323250D01*
X64950Y322500D02*X65700Y323250D01*
X63450Y322500D02*X64950D01*
X62700Y324000D02*X65700Y327000D01*
X3000Y343500D02*X3750Y342750D01*
X750Y343500D02*X3000D01*
X0Y342750D02*X750Y343500D01*
X0Y342750D02*Y341250D01*
X750Y340500D01*
X3000D01*
X3750Y339750D01*
Y338250D01*
X3000Y337500D02*X3750Y338250D01*
X750Y337500D02*X3000D01*
X0Y338250D02*X750Y337500D01*
X5550Y340500D02*Y338250D01*
X6300Y337500D01*
X8550Y340500D02*Y336000D01*
X7800Y335250D02*X8550Y336000D01*
X6300Y335250D02*X7800D01*
X5550Y336000D02*X6300Y335250D01*
Y337500D02*X7800D01*
X8550Y338250D01*
X11100Y339750D02*Y337500D01*
Y339750D02*X11850Y340500D01*
X12600D01*
X13350Y339750D01*
Y337500D01*
Y339750D02*X14100Y340500D01*
X14850D01*
X15600Y339750D01*
Y337500D01*
X10350Y340500D02*X11100Y339750D01*
X17400Y343500D02*Y337500D01*
Y338250D02*X18150Y337500D01*
X19650D01*
X20400Y338250D01*
Y339750D02*Y338250D01*
X19650Y340500D02*X20400Y339750D01*
X18150Y340500D02*X19650D01*
X17400Y339750D02*X18150Y340500D01*
X22200Y339750D02*Y338250D01*
Y339750D02*X22950Y340500D01*
X24450D01*
X25200Y339750D01*
Y338250D01*
X24450Y337500D02*X25200Y338250D01*
X22950Y337500D02*X24450D01*
X22200Y338250D02*X22950Y337500D01*
X27000Y343500D02*Y338250D01*
X27750Y337500D01*
X0Y334250D02*X29250D01*
X41750Y343500D02*Y337500D01*
X44000Y343500D02*X44750Y342750D01*
Y338250D01*
X44000Y337500D02*X44750Y338250D01*
X41000Y337500D02*X44000D01*
X41000Y343500D02*X44000D01*
X46550Y342000D02*Y341250D01*
Y339750D02*Y337500D01*
X50300Y340500D02*X51050Y339750D01*
X48800Y340500D02*X50300D01*
X48050Y339750D02*X48800Y340500D01*
X48050Y339750D02*Y338250D01*
X48800Y337500D01*
X51050Y340500D02*Y338250D01*
X51800Y337500D01*
X48800D02*X50300D01*
X51050Y338250D01*
X54350Y339750D02*Y337500D01*
Y339750D02*X55100Y340500D01*
X55850D01*
X56600Y339750D01*
Y337500D01*
Y339750D02*X57350Y340500D01*
X58100D01*
X58850Y339750D01*
Y337500D01*
X53600Y340500D02*X54350Y339750D01*
X60650Y337500D02*X61400D01*
X65900Y338250D02*X66650Y337500D01*
X65900Y342750D02*X66650Y343500D01*
X65900Y342750D02*Y338250D01*
X68450Y343500D02*X69950D01*
X69200D02*Y337500D01*
X68450D02*X69950D01*
X72500Y339750D02*Y337500D01*
Y339750D02*X73250Y340500D01*
X74000D01*
X74750Y339750D01*
Y337500D01*
X71750Y340500D02*X72500Y339750D01*
X77300Y340500D02*X79550D01*
X76550Y339750D02*X77300Y340500D01*
X76550Y339750D02*Y338250D01*
X77300Y337500D01*
X79550D01*
X81350Y343500D02*Y337500D01*
Y339750D02*X82100Y340500D01*
X83600D01*
X84350Y339750D01*
Y337500D01*
X86150Y343500D02*X86900Y342750D01*
Y338250D01*
X86150Y337500D02*X86900Y338250D01*
X41000Y334250D02*X88700D01*
X95750Y337500D02*X98000D01*
X95000Y338250D02*X95750Y337500D01*
X95000Y342750D02*Y338250D01*
Y342750D02*X95750Y343500D01*
X98000D01*
X99800Y339750D02*Y338250D01*
Y339750D02*X100550Y340500D01*
X102050D01*
X102800Y339750D01*
Y338250D01*
X102050Y337500D02*X102800Y338250D01*
X100550Y337500D02*X102050D01*
X99800Y338250D02*X100550Y337500D01*
X104600Y340500D02*Y338250D01*
X105350Y337500D01*
X106850D01*
X107600Y338250D01*
Y340500D02*Y338250D01*
X110150Y339750D02*Y337500D01*
Y339750D02*X110900Y340500D01*
X111650D01*
X112400Y339750D01*
Y337500D01*
X109400Y340500D02*X110150Y339750D01*
X114950Y343500D02*Y338250D01*
X115700Y337500D01*
X114200Y341250D02*X115700D01*
X95000Y334250D02*X117200D01*
X130750Y343500D02*Y337500D01*
X130000Y343500D02*X133000D01*
X133750Y342750D01*
Y341250D01*
X133000Y340500D02*X133750Y341250D01*
X130750Y340500D02*X133000D01*
X135550Y343500D02*Y338250D01*
X136300Y337500D01*
X140050Y340500D02*X140800Y339750D01*
X138550Y340500D02*X140050D01*
X137800Y339750D02*X138550Y340500D01*
X137800Y339750D02*Y338250D01*
X138550Y337500D01*
X140800Y340500D02*Y338250D01*
X141550Y337500D01*
X138550D02*X140050D01*
X140800Y338250D01*
X144100Y343500D02*Y338250D01*
X144850Y337500D01*
X143350Y341250D02*X144850D01*
X147100Y337500D02*X149350D01*
X146350Y338250D02*X147100Y337500D01*
X146350Y339750D02*Y338250D01*
Y339750D02*X147100Y340500D01*
X148600D01*
X149350Y339750D01*
X146350Y339000D02*X149350D01*
Y339750D02*Y339000D01*
X154150Y343500D02*Y337500D01*
X153400D02*X154150Y338250D01*
X151900Y337500D02*X153400D01*
X151150Y338250D02*X151900Y337500D01*
X151150Y339750D02*Y338250D01*
Y339750D02*X151900Y340500D01*
X153400D01*
X154150Y339750D01*
X157450Y340500D02*Y339750D01*
Y338250D02*Y337500D01*
X155950Y342750D02*Y342000D01*
Y342750D02*X156700Y343500D01*
X158200D01*
X158950Y342750D01*
Y342000D01*
X157450Y340500D02*X158950Y342000D01*
X130000Y334250D02*X160750D01*
X0Y358500D02*X3000D01*
X1500D02*Y352500D01*
X4800Y358500D02*Y352500D01*
Y354750D02*X5550Y355500D01*
X7050D01*
X7800Y354750D01*
Y352500D01*
X10350D02*X12600D01*
X9600Y353250D02*X10350Y352500D01*
X9600Y354750D02*Y353250D01*
Y354750D02*X10350Y355500D01*
X11850D01*
X12600Y354750D01*
X9600Y354000D02*X12600D01*
Y354750D02*Y354000D01*
X15150Y354750D02*Y352500D01*
Y354750D02*X15900Y355500D01*
X17400D01*
X14400D02*X15150Y354750D01*
X19950Y352500D02*X22200D01*
X19200Y353250D02*X19950Y352500D01*
X19200Y354750D02*Y353250D01*
Y354750D02*X19950Y355500D01*
X21450D01*
X22200Y354750D01*
X19200Y354000D02*X22200D01*
Y354750D02*Y354000D01*
X28950Y355500D02*X29700Y354750D01*
X27450Y355500D02*X28950D01*
X26700Y354750D02*X27450Y355500D01*
X26700Y354750D02*Y353250D01*
X27450Y352500D01*
X29700Y355500D02*Y353250D01*
X30450Y352500D01*
X27450D02*X28950D01*
X29700Y353250D01*
X33000Y354750D02*Y352500D01*
Y354750D02*X33750Y355500D01*
X35250D01*
X32250D02*X33000Y354750D01*
X37800Y352500D02*X40050D01*
X37050Y353250D02*X37800Y352500D01*
X37050Y354750D02*Y353250D01*
Y354750D02*X37800Y355500D01*
X39300D01*
X40050Y354750D01*
X37050Y354000D02*X40050D01*
Y354750D02*Y354000D01*
X44550Y355500D02*X47550Y358500D01*
X44550Y355500D02*X48300D01*
X47550Y358500D02*Y352500D01*
X55800Y358500D02*Y352500D01*
X55050D02*X55800Y353250D01*
X53550Y352500D02*X55050D01*
X52800Y353250D02*X53550Y352500D01*
X52800Y354750D02*Y353250D01*
Y354750D02*X53550Y355500D01*
X55050D01*
X55800Y354750D01*
X57600Y357000D02*Y356250D01*
Y354750D02*Y352500D01*
X59850Y357750D02*Y352500D01*
Y357750D02*X60600Y358500D01*
X61350D01*
X59100Y355500D02*X60600D01*
X63600Y357750D02*Y352500D01*
Y357750D02*X64350Y358500D01*
X65100D01*
X62850Y355500D02*X64350D01*
X67350Y352500D02*X69600D01*
X66600Y353250D02*X67350Y352500D01*
X66600Y354750D02*Y353250D01*
Y354750D02*X67350Y355500D01*
X68850D01*
X69600Y354750D01*
X66600Y354000D02*X69600D01*
Y354750D02*Y354000D01*
X72150Y354750D02*Y352500D01*
Y354750D02*X72900Y355500D01*
X74400D01*
X71400D02*X72150Y354750D01*
X76950Y352500D02*X79200D01*
X76200Y353250D02*X76950Y352500D01*
X76200Y354750D02*Y353250D01*
Y354750D02*X76950Y355500D01*
X78450D01*
X79200Y354750D01*
X76200Y354000D02*X79200D01*
Y354750D02*Y354000D01*
X81750Y354750D02*Y352500D01*
Y354750D02*X82500Y355500D01*
X83250D01*
X84000Y354750D01*
Y352500D01*
X81000Y355500D02*X81750Y354750D01*
X86550Y358500D02*Y353250D01*
X87300Y352500D01*
X85800Y356250D02*X87300D01*
X94500Y358500D02*Y352500D01*
X93750D02*X94500Y353250D01*
X92250Y352500D02*X93750D01*
X91500Y353250D02*X92250Y352500D01*
X91500Y354750D02*Y353250D01*
Y354750D02*X92250Y355500D01*
X93750D01*
X94500Y354750D01*
X97050D02*Y352500D01*
Y354750D02*X97800Y355500D01*
X99300D01*
X96300D02*X97050Y354750D01*
X101100Y357000D02*Y356250D01*
Y354750D02*Y352500D01*
X102600Y358500D02*Y353250D01*
X103350Y352500D01*
X104850Y358500D02*Y353250D01*
X105600Y352500D01*
X110550D02*X112800D01*
X113550Y353250D01*
X112800Y354000D02*X113550Y353250D01*
X110550Y354000D02*X112800D01*
X109800Y354750D02*X110550Y354000D01*
X109800Y354750D02*X110550Y355500D01*
X112800D01*
X113550Y354750D01*
X109800Y353250D02*X110550Y352500D01*
X115350Y357000D02*Y356250D01*
Y354750D02*Y352500D01*
X116850Y355500D02*X119850D01*
X116850Y352500D02*X119850Y355500D01*
X116850Y352500D02*X119850D01*
X122400D02*X124650D01*
X121650Y353250D02*X122400Y352500D01*
X121650Y354750D02*Y353250D01*
Y354750D02*X122400Y355500D01*
X123900D01*
X124650Y354750D01*
X121650Y354000D02*X124650D01*
Y354750D02*Y354000D01*
X127200Y352500D02*X129450D01*
X130200Y353250D01*
X129450Y354000D02*X130200Y353250D01*
X127200Y354000D02*X129450D01*
X126450Y354750D02*X127200Y354000D01*
X126450Y354750D02*X127200Y355500D01*
X129450D01*
X130200Y354750D01*
X126450Y353250D02*X127200Y352500D01*
X134700Y355500D02*Y353250D01*
X135450Y352500D01*
X136950D01*
X137700Y353250D01*
Y355500D02*Y353250D01*
X140250Y352500D02*X142500D01*
X143250Y353250D01*
X142500Y354000D02*X143250Y353250D01*
X140250Y354000D02*X142500D01*
X139500Y354750D02*X140250Y354000D01*
X139500Y354750D02*X140250Y355500D01*
X142500D01*
X143250Y354750D01*
X139500Y353250D02*X140250Y352500D01*
X145800D02*X148050D01*
X145050Y353250D02*X145800Y352500D01*
X145050Y354750D02*Y353250D01*
Y354750D02*X145800Y355500D01*
X147300D01*
X148050Y354750D01*
X145050Y354000D02*X148050D01*
Y354750D02*Y354000D01*
X152850Y358500D02*Y352500D01*
X152100D02*X152850Y353250D01*
X150600Y352500D02*X152100D01*
X149850Y353250D02*X150600Y352500D01*
X149850Y354750D02*Y353250D01*
Y354750D02*X150600Y355500D01*
X152100D01*
X152850Y354750D01*
X157350Y357000D02*Y356250D01*
Y354750D02*Y352500D01*
X159600Y354750D02*Y352500D01*
Y354750D02*X160350Y355500D01*
X161100D01*
X161850Y354750D01*
Y352500D01*
X158850Y355500D02*X159600Y354750D01*
X167100Y358500D02*Y353250D01*
X167850Y352500D01*
X166350Y356250D02*X167850D01*
X169350Y358500D02*Y352500D01*
Y354750D02*X170100Y355500D01*
X171600D01*
X172350Y354750D01*
Y352500D01*
X174150Y357000D02*Y356250D01*
Y354750D02*Y352500D01*
X176400D02*X178650D01*
X179400Y353250D01*
X178650Y354000D02*X179400Y353250D01*
X176400Y354000D02*X178650D01*
X175650Y354750D02*X176400Y354000D01*
X175650Y354750D02*X176400Y355500D01*
X178650D01*
X179400Y354750D01*
X175650Y353250D02*X176400Y352500D01*
X183900Y358500D02*Y353250D01*
X184650Y352500D01*
X188400Y355500D02*X189150Y354750D01*
X186900Y355500D02*X188400D01*
X186150Y354750D02*X186900Y355500D01*
X186150Y354750D02*Y353250D01*
X186900Y352500D01*
X189150Y355500D02*Y353250D01*
X189900Y352500D01*
X186900D02*X188400D01*
X189150Y353250D01*
X191700Y355500D02*Y353250D01*
X192450Y352500D01*
X194700Y355500D02*Y351000D01*
X193950Y350250D02*X194700Y351000D01*
X192450Y350250D02*X193950D01*
X191700Y351000D02*X192450Y350250D01*
Y352500D02*X193950D01*
X194700Y353250D01*
X196500Y354750D02*Y353250D01*
Y354750D02*X197250Y355500D01*
X198750D01*
X199500Y354750D01*
Y353250D01*
X198750Y352500D02*X199500Y353250D01*
X197250Y352500D02*X198750D01*
X196500Y353250D02*X197250Y352500D01*
X201300Y355500D02*Y353250D01*
X202050Y352500D01*
X203550D01*
X204300Y353250D01*
Y355500D02*Y353250D01*
X206850Y358500D02*Y353250D01*
X207600Y352500D01*
X206100Y356250D02*X207600D01*
X209100Y351000D02*X210600Y352500D01*
X215850D02*X217350D01*
X216600Y358500D02*Y352500D01*
X215100Y357000D02*X216600Y358500D01*
X219900Y352500D02*X221400D01*
X220650Y358500D02*Y352500D01*
X219150Y357000D02*X220650Y358500D01*
X223200Y355500D02*X226200Y358500D01*
X223200Y355500D02*X226950D01*
X226200Y358500D02*Y352500D01*
X231450Y358500D02*Y352500D01*
Y354750D02*X232200Y355500D01*
X233700D01*
X234450Y354750D01*
Y352500D01*
X236250Y354750D02*Y353250D01*
Y354750D02*X237000Y355500D01*
X238500D01*
X239250Y354750D01*
Y353250D01*
X238500Y352500D02*X239250Y353250D01*
X237000Y352500D02*X238500D01*
X236250Y353250D02*X237000Y352500D01*
X241050Y358500D02*Y353250D01*
X241800Y352500D01*
X244050D02*X246300D01*
X243300Y353250D02*X244050Y352500D01*
X243300Y354750D02*Y353250D01*
Y354750D02*X244050Y355500D01*
X245550D01*
X246300Y354750D01*
X243300Y354000D02*X246300D01*
Y354750D02*Y354000D01*
X248850Y352500D02*X251100D01*
X251850Y353250D01*
X251100Y354000D02*X251850Y353250D01*
X248850Y354000D02*X251100D01*
X248100Y354750D02*X248850Y354000D01*
X248100Y354750D02*X248850Y355500D01*
X251100D01*
X251850Y354750D01*
X248100Y353250D02*X248850Y352500D01*
X257100Y358500D02*Y353250D01*
X257850Y352500D01*
X256350Y356250D02*X257850D01*
X259350Y354750D02*Y353250D01*
Y354750D02*X260100Y355500D01*
X261600D01*
X262350Y354750D01*
Y353250D01*
X261600Y352500D02*X262350Y353250D01*
X260100Y352500D02*X261600D01*
X259350Y353250D02*X260100Y352500D01*
X264900Y358500D02*Y353250D01*
X265650Y352500D01*
X264150Y356250D02*X265650D01*
X269400Y355500D02*X270150Y354750D01*
X267900Y355500D02*X269400D01*
X267150Y354750D02*X267900Y355500D01*
X267150Y354750D02*Y353250D01*
X267900Y352500D01*
X270150Y355500D02*Y353250D01*
X270900Y352500D01*
X267900D02*X269400D01*
X270150Y353250D01*
X272700Y358500D02*Y353250D01*
X273450Y352500D01*
G54D77*X0Y270000D02*Y10000D01*
X210000D02*Y270000D01*
X0D01*
Y10000D02*X10300D01*
X20300Y0D01*
X149700D01*
X159700Y10000D01*
X210000D01*
G54D76*X18675Y-9500D02*X21675D01*
X22425Y-8750D01*
Y-7250D02*Y-8750D01*
X21675Y-6500D02*X22425Y-7250D01*
X19425Y-6500D02*X21675D01*
X19425Y-3500D02*Y-9500D01*
X18675Y-3500D02*X21675D01*
X22425Y-4250D01*
Y-5750D01*
X21675Y-6500D02*X22425Y-5750D01*
X24225Y-7250D02*Y-8750D01*
Y-7250D02*X24975Y-6500D01*
X26475D01*
X27225Y-7250D01*
Y-8750D01*
X26475Y-9500D02*X27225Y-8750D01*
X24975Y-9500D02*X26475D01*
X24225Y-8750D02*X24975Y-9500D01*
X31275Y-6500D02*X32025Y-7250D01*
X29775Y-6500D02*X31275D01*
X29025Y-7250D02*X29775Y-6500D01*
X29025Y-7250D02*Y-8750D01*
X29775Y-9500D01*
X32025Y-6500D02*Y-8750D01*
X32775Y-9500D01*
X29775D02*X31275D01*
X32025Y-8750D01*
X35325Y-7250D02*Y-9500D01*
Y-7250D02*X36075Y-6500D01*
X37575D01*
X34575D02*X35325Y-7250D01*
X42375Y-3500D02*Y-9500D01*
X41625D02*X42375Y-8750D01*
X40125Y-9500D02*X41625D01*
X39375Y-8750D02*X40125Y-9500D01*
X39375Y-7250D02*Y-8750D01*
Y-7250D02*X40125Y-6500D01*
X41625D01*
X42375Y-7250D01*
X46875D02*Y-8750D01*
Y-7250D02*X47625Y-6500D01*
X49125D01*
X49875Y-7250D01*
Y-8750D01*
X49125Y-9500D02*X49875Y-8750D01*
X47625Y-9500D02*X49125D01*
X46875Y-8750D02*X47625Y-9500D01*
X51675Y-6500D02*Y-8750D01*
X52425Y-9500D01*
X53925D01*
X54675Y-8750D01*
Y-6500D02*Y-8750D01*
X57225Y-3500D02*Y-8750D01*
X57975Y-9500D01*
X56475Y-5750D02*X57975D01*
X59475Y-3500D02*Y-8750D01*
X60225Y-9500D01*
X61725Y-5000D02*Y-5750D01*
Y-7250D02*Y-9500D01*
X63975Y-7250D02*Y-9500D01*
Y-7250D02*X64725Y-6500D01*
X65475D01*
X66225Y-7250D01*
Y-9500D01*
X63225Y-6500D02*X63975Y-7250D01*
X68775Y-9500D02*X71025D01*
X68025Y-8750D02*X68775Y-9500D01*
X68025Y-7250D02*Y-8750D01*
Y-7250D02*X68775Y-6500D01*
X70275D01*
X71025Y-7250D01*
X68025Y-8000D02*X71025D01*
Y-7250D02*Y-8000D01*
X75525Y-5000D02*Y-5750D01*
Y-7250D02*Y-9500D01*
X77775D02*X80025D01*
X80775Y-8750D01*
X80025Y-8000D02*X80775Y-8750D01*
X77775Y-8000D02*X80025D01*
X77025Y-7250D02*X77775Y-8000D01*
X77025Y-7250D02*X77775Y-6500D01*
X80025D01*
X80775Y-7250D01*
X77025Y-8750D02*X77775Y-9500D01*
X86025Y-3500D02*Y-8750D01*
X86775Y-9500D01*
X85275Y-5750D02*X86775D01*
X88275Y-3500D02*Y-9500D01*
Y-7250D02*X89025Y-6500D01*
X90525D01*
X91275Y-7250D01*
Y-9500D01*
X93825D02*X96075D01*
X93075Y-8750D02*X93825Y-9500D01*
X93075Y-7250D02*Y-8750D01*
Y-7250D02*X93825Y-6500D01*
X95325D01*
X96075Y-7250D01*
X93075Y-8000D02*X96075D01*
Y-7250D02*Y-8000D01*
X101325Y-6500D02*X103575D01*
X100575Y-7250D02*X101325Y-6500D01*
X100575Y-7250D02*Y-8750D01*
X101325Y-9500D01*
X103575D01*
X106125D02*X108375D01*
X105375Y-8750D02*X106125Y-9500D01*
X105375Y-7250D02*Y-8750D01*
Y-7250D02*X106125Y-6500D01*
X107625D01*
X108375Y-7250D01*
X105375Y-8000D02*X108375D01*
Y-7250D02*Y-8000D01*
X110925Y-7250D02*Y-9500D01*
Y-7250D02*X111675Y-6500D01*
X112425D01*
X113175Y-7250D01*
Y-9500D01*
X110175Y-6500D02*X110925Y-7250D01*
X115725Y-3500D02*Y-8750D01*
X116475Y-9500D01*
X114975Y-5750D02*X116475D01*
X118725Y-9500D02*X120975D01*
X117975Y-8750D02*X118725Y-9500D01*
X117975Y-7250D02*Y-8750D01*
Y-7250D02*X118725Y-6500D01*
X120225D01*
X120975Y-7250D01*
X117975Y-8000D02*X120975D01*
Y-7250D02*Y-8000D01*
X123525Y-7250D02*Y-9500D01*
Y-7250D02*X124275Y-6500D01*
X125775D01*
X122775D02*X123525Y-7250D01*
X127575Y-3500D02*Y-8750D01*
X128325Y-9500D01*
X129825Y-5000D02*Y-5750D01*
Y-7250D02*Y-9500D01*
X132075Y-7250D02*Y-9500D01*
Y-7250D02*X132825Y-6500D01*
X133575D01*
X134325Y-7250D01*
Y-9500D01*
X131325Y-6500D02*X132075Y-7250D01*
X136875Y-9500D02*X139125D01*
X136125Y-8750D02*X136875Y-9500D01*
X136125Y-7250D02*Y-8750D01*
Y-7250D02*X136875Y-6500D01*
X138375D01*
X139125Y-7250D01*
X136125Y-8000D02*X139125D01*
Y-7250D02*Y-8000D01*
X143625Y-7250D02*Y-8750D01*
Y-7250D02*X144375Y-6500D01*
X145875D01*
X146625Y-7250D01*
Y-8750D01*
X145875Y-9500D02*X146625Y-8750D01*
X144375Y-9500D02*X145875D01*
X143625Y-8750D02*X144375Y-9500D01*
X149175Y-4250D02*Y-9500D01*
Y-4250D02*X149925Y-3500D01*
X150675D01*
X148425Y-6500D02*X149925D01*
X155625Y-3500D02*Y-8750D01*
X156375Y-9500D01*
X154875Y-5750D02*X156375D01*
X157875Y-3500D02*Y-9500D01*
Y-7250D02*X158625Y-6500D01*
X160125D01*
X160875Y-7250D01*
Y-9500D01*
X162675Y-5000D02*Y-5750D01*
Y-7250D02*Y-9500D01*
X164925D02*X167175D01*
X167925Y-8750D01*
X167175Y-8000D02*X167925Y-8750D01*
X164925Y-8000D02*X167175D01*
X164175Y-7250D02*X164925Y-8000D01*
X164175Y-7250D02*X164925Y-6500D01*
X167175D01*
X167925Y-7250D01*
X164175Y-8750D02*X164925Y-9500D01*
X173175Y-7250D02*Y-11750D01*
X172425Y-6500D02*X173175Y-7250D01*
X173925Y-6500D01*
X175425D01*
X176175Y-7250D01*
Y-8750D01*
X175425Y-9500D02*X176175Y-8750D01*
X173925Y-9500D02*X175425D01*
X173175Y-8750D02*X173925Y-9500D01*
X180225Y-6500D02*X180975Y-7250D01*
X178725Y-6500D02*X180225D01*
X177975Y-7250D02*X178725Y-6500D01*
X177975Y-7250D02*Y-8750D01*
X178725Y-9500D01*
X180975Y-6500D02*Y-8750D01*
X181725Y-9500D01*
X178725D02*X180225D01*
X180975Y-8750D01*
X184275Y-3500D02*Y-8750D01*
X185025Y-9500D01*
X183525Y-5750D02*X185025D01*
X186525Y-3500D02*Y-9500D01*
Y-7250D02*X187275Y-6500D01*
X188775D01*
X189525Y-7250D01*
Y-9500D01*
X200750Y298500D02*Y292500D01*
X203000Y298500D02*X203750Y297750D01*
Y293250D01*
X203000Y292500D02*X203750Y293250D01*
X200000Y292500D02*X203000D01*
X200000Y298500D02*X203000D01*
X207800Y295500D02*X208550Y294750D01*
X206300Y295500D02*X207800D01*
X205550Y294750D02*X206300Y295500D01*
X205550Y294750D02*Y293250D01*
X206300Y292500D01*
X208550Y295500D02*Y293250D01*
X209300Y292500D01*
X206300D02*X207800D01*
X208550Y293250D01*
X211850Y298500D02*Y293250D01*
X212600Y292500D01*
X211100Y296250D02*X212600D01*
X214850Y292500D02*X217100D01*
X214100Y293250D02*X214850Y292500D01*
X214100Y294750D02*Y293250D01*
Y294750D02*X214850Y295500D01*
X216350D01*
X217100Y294750D01*
X214100Y294000D02*X217100D01*
Y294750D02*Y294000D01*
X218900Y296250D02*X219650D01*
X218900Y294750D02*X219650D01*
X224150Y298500D02*Y292500D01*
X226400Y294750D01*
X228650Y292500D01*
Y298500D02*Y292500D01*
X231200D02*X233450D01*
X230450Y293250D02*X231200Y292500D01*
X230450Y294750D02*Y293250D01*
Y294750D02*X231200Y295500D01*
X232700D01*
X233450Y294750D01*
X230450Y294000D02*X233450D01*
Y294750D02*Y294000D01*
X238250Y298500D02*Y292500D01*
X237500D02*X238250Y293250D01*
X236000Y292500D02*X237500D01*
X235250Y293250D02*X236000Y292500D01*
X235250Y294750D02*Y293250D01*
Y294750D02*X236000Y295500D01*
X237500D01*
X238250Y294750D01*
X242750Y297750D02*X243500Y298500D01*
X245750D01*
X246500Y297750D01*
Y296250D01*
X242750Y292500D02*X246500Y296250D01*
X242750Y292500D02*X246500D01*
X248300Y297750D02*X249050Y298500D01*
X250550D01*
X251300Y297750D01*
Y293250D01*
X250550Y292500D02*X251300Y293250D01*
X249050Y292500D02*X250550D01*
X248300Y293250D02*X249050Y292500D01*
Y295500D02*X251300D01*
X255800Y297750D02*Y292500D01*
Y297750D02*X256550Y298500D01*
X258800D01*
X259550Y297750D01*
Y292500D01*
X255800Y295500D02*X259550D01*
X262100Y294750D02*Y290250D01*
X261350Y295500D02*X262100Y294750D01*
X262850Y295500D01*
X264350D01*
X265100Y294750D01*
Y293250D01*
X264350Y292500D02*X265100Y293250D01*
X262850Y292500D02*X264350D01*
X262100Y293250D02*X262850Y292500D01*
X267650Y294750D02*Y292500D01*
Y294750D02*X268400Y295500D01*
X269900D01*
X266900D02*X267650Y294750D01*
X274400Y297750D02*X275150Y298500D01*
X277400D01*
X278150Y297750D01*
Y296250D01*
X274400Y292500D02*X278150Y296250D01*
X274400Y292500D02*X278150D01*
X279950Y293250D02*X280700Y292500D01*
X279950Y297750D02*Y293250D01*
Y297750D02*X280700Y298500D01*
X282200D01*
X282950Y297750D01*
Y293250D01*
X282200Y292500D02*X282950Y293250D01*
X280700Y292500D02*X282200D01*
X279950Y294000D02*X282950Y297000D01*
X285500Y292500D02*X287000D01*
X286250Y298500D02*Y292500D01*
X284750Y297000D02*X286250Y298500D01*
X288800Y295500D02*X291800Y298500D01*
X288800Y295500D02*X292550D01*
X291800Y298500D02*Y292500D01*
X297050Y293250D02*X297800Y292500D01*
X297050Y297750D02*Y293250D01*
Y297750D02*X297800Y298500D01*
X299300D01*
X300050Y297750D01*
Y293250D01*
X299300Y292500D02*X300050Y293250D01*
X297800Y292500D02*X299300D01*
X297050Y294000D02*X300050Y297000D01*
X301850Y297750D02*X302600Y298500D01*
X304850D01*
X305600Y297750D01*
Y296250D01*
X301850Y292500D02*X305600Y296250D01*
X301850Y292500D02*X305600D01*
X307400Y296250D02*X308150D01*
X307400Y294750D02*X308150D01*
X309950Y298500D02*X312950D01*
X309950D02*Y295500D01*
X310700Y296250D01*
X312200D01*
X312950Y295500D01*
Y293250D01*
X312200Y292500D02*X312950Y293250D01*
X310700Y292500D02*X312200D01*
X309950Y293250D02*X310700Y292500D01*
X314750D02*X318500Y296250D01*
Y298500D02*Y296250D01*
X314750Y298500D02*X318500D01*
X320300Y296250D02*X321050D01*
X320300Y294750D02*X321050D01*
X322850Y297750D02*X323600Y298500D01*
X325100D01*
X325850Y297750D01*
Y293250D01*
X325100Y292500D02*X325850Y293250D01*
X323600Y292500D02*X325100D01*
X322850Y293250D02*X323600Y292500D01*
Y295500D02*X325850D01*
X327650Y293250D02*X328400Y292500D01*
X327650Y297750D02*Y293250D01*
Y297750D02*X328400Y298500D01*
X329900D01*
X330650Y297750D01*
Y293250D01*
X329900Y292500D02*X330650Y293250D01*
X328400Y292500D02*X329900D01*
X327650Y294000D02*X330650Y297000D01*
X335150Y297750D02*Y292500D01*
Y297750D02*X335900Y298500D01*
X338150D01*
X338900Y297750D01*
Y292500D01*
X335150Y295500D02*X338900D01*
X340700Y298500D02*Y292500D01*
Y298500D02*X342950Y296250D01*
X345200Y298500D01*
Y292500D01*
X352700Y298500D02*X353450Y297750D01*
X350450Y298500D02*X352700D01*
X349700Y297750D02*X350450Y298500D01*
X349700Y297750D02*Y293250D01*
X350450Y292500D01*
X352700D01*
X353450Y293250D01*
Y294750D02*Y293250D01*
X352700Y295500D02*X353450Y294750D01*
X351200Y295500D02*X352700D01*
X355250Y298500D02*Y292500D01*
Y298500D02*X357500Y296250D01*
X359750Y298500D01*
Y292500D01*
X361550Y298500D02*X364550D01*
X363050D02*Y292500D01*
X369050Y298500D02*Y293250D01*
X369800Y292500D01*
X371300D01*
X372050Y293250D01*
Y298500D02*Y293250D01*
X373850Y298500D02*X376850D01*
X375350D02*Y292500D01*
X379400D02*X381650D01*
X378650Y293250D02*X379400Y292500D01*
X378650Y297750D02*Y293250D01*
Y297750D02*X379400Y298500D01*
X381650D01*
X200000Y312750D02*Y307500D01*
Y312750D02*X200750Y313500D01*
X203000D01*
X203750Y312750D01*
Y307500D01*
X200000Y310500D02*X203750D01*
X205550D02*Y308250D01*
X206300Y307500D01*
X207800D01*
X208550Y308250D01*
Y310500D02*Y308250D01*
X211100Y313500D02*Y308250D01*
X211850Y307500D01*
X210350Y311250D02*X211850D01*
X213350Y313500D02*Y307500D01*
Y309750D02*X214100Y310500D01*
X215600D01*
X216350Y309750D01*
Y307500D01*
X218150Y309750D02*Y308250D01*
Y309750D02*X218900Y310500D01*
X220400D01*
X221150Y309750D01*
Y308250D01*
X220400Y307500D02*X221150Y308250D01*
X218900Y307500D02*X220400D01*
X218150Y308250D02*X218900Y307500D01*
X223700Y309750D02*Y307500D01*
Y309750D02*X224450Y310500D01*
X225950D01*
X222950D02*X223700Y309750D01*
X227750Y311250D02*X228500D01*
X227750Y309750D02*X228500D01*
X233000Y313500D02*Y307500D01*
Y313500D02*X235250Y311250D01*
X237500Y313500D01*
Y307500D01*
X239300Y312000D02*Y311250D01*
Y309750D02*Y307500D01*
X241550Y310500D02*X243800D01*
X240800Y309750D02*X241550Y310500D01*
X240800Y309750D02*Y308250D01*
X241550Y307500D01*
X243800D01*
X245600Y313500D02*Y307500D01*
Y309750D02*X246350Y310500D01*
X247850D01*
X248600Y309750D01*
Y307500D01*
X252650Y310500D02*X253400Y309750D01*
X251150Y310500D02*X252650D01*
X250400Y309750D02*X251150Y310500D01*
X250400Y309750D02*Y308250D01*
X251150Y307500D01*
X253400Y310500D02*Y308250D01*
X254150Y307500D01*
X251150D02*X252650D01*
X253400Y308250D01*
X256700Y307500D02*X258950D01*
X255950Y308250D02*X256700Y307500D01*
X255950Y309750D02*Y308250D01*
Y309750D02*X256700Y310500D01*
X258200D01*
X258950Y309750D01*
X255950Y309000D02*X258950D01*
Y309750D02*Y309000D01*
X260750Y313500D02*Y308250D01*
X261500Y307500D01*
X266450Y313500D02*Y307500D01*
X265700Y313500D02*X268700D01*
X269450Y312750D01*
Y311250D01*
X268700Y310500D02*X269450Y311250D01*
X266450Y310500D02*X268700D01*
X272000Y307500D02*X274250D01*
X271250Y308250D02*X272000Y307500D01*
X271250Y309750D02*Y308250D01*
Y309750D02*X272000Y310500D01*
X273500D01*
X274250Y309750D01*
X271250Y309000D02*X274250D01*
Y309750D02*Y309000D01*
X276800Y313500D02*Y308250D01*
X277550Y307500D01*
X276050Y311250D02*X277550D01*
X279800Y307500D02*X282050D01*
X279050Y308250D02*X279800Y307500D01*
X279050Y309750D02*Y308250D01*
Y309750D02*X279800Y310500D01*
X281300D01*
X282050Y309750D01*
X279050Y309000D02*X282050D01*
Y309750D02*Y309000D01*
X284600Y309750D02*Y307500D01*
Y309750D02*X285350Y310500D01*
X286850D01*
X283850D02*X284600Y309750D01*
X289400Y307500D02*X291650D01*
X292400Y308250D01*
X291650Y309000D02*X292400Y308250D01*
X289400Y309000D02*X291650D01*
X288650Y309750D02*X289400Y309000D01*
X288650Y309750D02*X289400Y310500D01*
X291650D01*
X292400Y309750D01*
X288650Y308250D02*X289400Y307500D01*
X294950D02*X297200D01*
X294200Y308250D02*X294950Y307500D01*
X294200Y309750D02*Y308250D01*
Y309750D02*X294950Y310500D01*
X296450D01*
X297200Y309750D01*
X294200Y309000D02*X297200D01*
Y309750D02*Y309000D01*
X299750Y309750D02*Y307500D01*
Y309750D02*X300500Y310500D01*
X301250D01*
X302000Y309750D01*
Y307500D01*
X299000Y310500D02*X299750Y309750D01*
X200000Y328500D02*X203000D01*
X201500D02*Y322500D01*
X204800Y327000D02*Y326250D01*
Y324750D02*Y322500D01*
X207050Y328500D02*Y323250D01*
X207800Y322500D01*
X206300Y326250D02*X207800D01*
X209300Y328500D02*Y323250D01*
X210050Y322500D01*
X212300D02*X214550D01*
X211550Y323250D02*X212300Y322500D01*
X211550Y324750D02*Y323250D01*
Y324750D02*X212300Y325500D01*
X213800D01*
X214550Y324750D01*
X211550Y324000D02*X214550D01*
Y324750D02*Y324000D01*
X216350Y326250D02*X217100D01*
X216350Y324750D02*X217100D01*
X221600Y323250D02*X222350Y322500D01*
X221600Y327750D02*X222350Y328500D01*
X221600Y327750D02*Y323250D01*
X224150Y325500D02*Y323250D01*
X224900Y322500D01*
X226400D01*
X227150Y323250D01*
Y325500D02*Y323250D01*
X229700Y324750D02*Y322500D01*
Y324750D02*X230450Y325500D01*
X231200D01*
X231950Y324750D01*
Y322500D01*
X228950Y325500D02*X229700Y324750D01*
X233750Y328500D02*Y322500D01*
Y324750D02*X236000Y322500D01*
X233750Y324750D02*X235250Y326250D01*
X238550Y324750D02*Y322500D01*
Y324750D02*X239300Y325500D01*
X240050D01*
X240800Y324750D01*
Y322500D01*
X237800Y325500D02*X238550Y324750D01*
X242600D02*Y323250D01*
Y324750D02*X243350Y325500D01*
X244850D01*
X245600Y324750D01*
Y323250D01*
X244850Y322500D02*X245600Y323250D01*
X243350Y322500D02*X244850D01*
X242600Y323250D02*X243350Y322500D01*
X247400Y325500D02*Y323250D01*
X248150Y322500D01*
X248900D01*
X249650Y323250D01*
Y325500D02*Y323250D01*
X250400Y322500D01*
X251150D01*
X251900Y323250D01*
Y325500D02*Y323250D01*
X254450Y324750D02*Y322500D01*
Y324750D02*X255200Y325500D01*
X255950D01*
X256700Y324750D01*
Y322500D01*
X253700Y325500D02*X254450Y324750D01*
X258500Y328500D02*X259250Y327750D01*
Y323250D01*
X258500Y322500D02*X259250Y323250D01*
X263750Y325500D02*X266750D01*
X271250Y328500D02*Y322500D01*
Y328500D02*X274250D01*
X271250Y325500D02*X273500D01*
X278300D02*X279050Y324750D01*
X276800Y325500D02*X278300D01*
X276050Y324750D02*X276800Y325500D01*
X276050Y324750D02*Y323250D01*
X276800Y322500D01*
X279050Y325500D02*Y323250D01*
X279800Y322500D01*
X276800D02*X278300D01*
X279050Y323250D01*
X281600Y328500D02*Y322500D01*
Y323250D02*X282350Y322500D01*
X283850D01*
X284600Y323250D01*
Y324750D02*Y323250D01*
X283850Y325500D02*X284600Y324750D01*
X282350Y325500D02*X283850D01*
X281600Y324750D02*X282350Y325500D01*
X287150Y324750D02*Y322500D01*
Y324750D02*X287900Y325500D01*
X289400D01*
X286400D02*X287150Y324750D01*
X291200Y327000D02*Y326250D01*
Y324750D02*Y322500D01*
X293450Y325500D02*X295700D01*
X292700Y324750D02*X293450Y325500D01*
X292700Y324750D02*Y323250D01*
X293450Y322500D01*
X295700D01*
X299750Y325500D02*X300500Y324750D01*
X298250Y325500D02*X299750D01*
X297500Y324750D02*X298250Y325500D01*
X297500Y324750D02*Y323250D01*
X298250Y322500D01*
X300500Y325500D02*Y323250D01*
X301250Y322500D01*
X298250D02*X299750D01*
X300500Y323250D01*
X303800Y328500D02*Y323250D01*
X304550Y322500D01*
X303050Y326250D02*X304550D01*
X306050Y327000D02*Y326250D01*
Y324750D02*Y322500D01*
X307550Y324750D02*Y323250D01*
Y324750D02*X308300Y325500D01*
X309800D01*
X310550Y324750D01*
Y323250D01*
X309800Y322500D02*X310550Y323250D01*
X308300Y322500D02*X309800D01*
X307550Y323250D02*X308300Y322500D01*
X313100Y324750D02*Y322500D01*
Y324750D02*X313850Y325500D01*
X314600D01*
X315350Y324750D01*
Y322500D01*
X312350Y325500D02*X313100Y324750D01*
X320600Y328500D02*Y322500D01*
X322850Y328500D02*X323600Y327750D01*
Y323250D01*
X322850Y322500D02*X323600Y323250D01*
X319850Y322500D02*X322850D01*
X319850Y328500D02*X322850D01*
X326150Y324750D02*Y322500D01*
Y324750D02*X326900Y325500D01*
X328400D01*
X325400D02*X326150Y324750D01*
X332450Y325500D02*X333200Y324750D01*
X330950Y325500D02*X332450D01*
X330200Y324750D02*X330950Y325500D01*
X330200Y324750D02*Y323250D01*
X330950Y322500D01*
X333200Y325500D02*Y323250D01*
X333950Y322500D01*
X330950D02*X332450D01*
X333200Y323250D01*
X335750Y325500D02*Y323250D01*
X336500Y322500D01*
X337250D01*
X338000Y323250D01*
Y325500D02*Y323250D01*
X338750Y322500D01*
X339500D01*
X340250Y323250D01*
Y325500D02*Y323250D01*
X342050Y327000D02*Y326250D01*
Y324750D02*Y322500D01*
X344300Y324750D02*Y322500D01*
Y324750D02*X345050Y325500D01*
X345800D01*
X346550Y324750D01*
Y322500D01*
X343550Y325500D02*X344300Y324750D01*
X350600Y325500D02*X351350Y324750D01*
X349100Y325500D02*X350600D01*
X348350Y324750D02*X349100Y325500D01*
X348350Y324750D02*Y323250D01*
X349100Y322500D01*
X350600D01*
X351350Y323250D01*
X348350Y321000D02*X349100Y320250D01*
X350600D01*
X351350Y321000D01*
Y325500D02*Y321000D01*
M02*
