M48
INCH
T46C0.020
T45C0.048
T44C0.129
T43C0.038
%
T46
X016950Y016500
X015300Y016500
X017800Y013400
X013200Y014600
X013200Y015100
X013200Y015600
X015750Y017200
X014400Y017200
X014400Y016500
X015500Y011350
X013200Y010300
X013200Y011100
X013200Y011600
X013200Y012600
X010700Y010550
X013200Y012100
X013200Y013100
X013200Y013600
X013200Y014100
X010550Y014350
X011050Y014350
X009950Y014250
X009950Y013750
X009950Y013250
X009950Y012750
X009950Y012250
X009950Y011750
X010550Y017700
X004200Y011100
X004200Y010500
X004200Y009900
X001800Y010500
X002350Y010500
X002900Y010500
T43
X001000Y013000
X001000Y012000
X001000Y011000
X001000Y010000
X001000Y016000
X001000Y015000
X001000Y014000
X004700Y011850
X005700Y011850
X006700Y011850
X020000Y012600
X020000Y013600
X020000Y014600
X020000Y015600
X020000Y016600
X020000Y017600
X016250Y014400
X016250Y013400
X014750Y014400
X014750Y013400
X020000Y018600
X020000Y019600
X015150Y018600
X016150Y018600
X017150Y018600
X015150Y019600
X016150Y019600
X017150Y019600
X017150Y022100
X017150Y021100
X015150Y022100
X015150Y021100
X020000Y002000
X020000Y003000
X020000Y004000
X020000Y005000
X020000Y008000
X020000Y009000
X020000Y010600
X020000Y011600
X001000Y009000
X001000Y007000
X001000Y006000
X001000Y005000
X001000Y004000
X001000Y003000
X001000Y002000
X020000Y006000
X020000Y007000
X014000Y009800
X014000Y008800
X014000Y007800
X015500Y009800
X015500Y008800
X015500Y007800
X017000Y009800
X017000Y008800
X017000Y007800
T45
X007900Y024700
X011750Y024700
X009750Y024700
X006900Y024700
X005900Y024700
X004900Y024700
X003900Y024700
X002900Y024700
X001900Y024700
X000900Y024700
X005000Y002300
X006000Y002300
X007000Y002300
X008000Y002300
X009000Y002300
X010000Y002300
X011000Y002300
X012000Y002300
T44
X001000Y021500
X020000Y021000
X014000Y001000
X003000Y001000
M30
