G04 start of page 6 for group -4063 idx -4063 *
G04 Title: (unknown), componentmask *
G04 Creator: pcb 20110918 *
G04 CreationDate: Sat 02 Feb 2013 08:58:03 PM GMT UTC *
G04 For: petersen *
G04 Format: Gerber/RS-274X *
G04 PCB-Dimensions: 210000 270000 *
G04 PCB-Coordinate-Origin: lower left *
%MOIN*%
%FSLAX25Y25*%
%LNTOPMASK*%
%ADD58R,0.0300X0.0300*%
%ADD57R,0.1300X0.1300*%
%ADD56R,0.0304X0.0304*%
%ADD55R,0.0550X0.0550*%
%ADD54R,0.0158X0.0158*%
%ADD53R,0.1005X0.1005*%
%ADD52R,0.0438X0.0438*%
%ADD51R,0.0572X0.0572*%
%ADD50C,0.0860*%
%ADD49C,0.1560*%
%ADD48C,0.0001*%
%ADD47C,0.0660*%
G54D47*X10000Y130000D03*
Y120000D03*
Y110000D03*
Y100000D03*
G54D48*G36*
X6700Y163300D02*Y156700D01*
X13300D01*
Y163300D01*
X6700D01*
G37*
G54D47*X10000Y150000D03*
Y140000D03*
G54D49*Y215000D03*
G54D48*G36*
X43700Y121800D02*Y115200D01*
X50300D01*
Y121800D01*
X43700D01*
G37*
G54D47*X57000Y118500D03*
X67000D03*
G54D48*G36*
X74700Y251300D02*Y242700D01*
X83300D01*
Y251300D01*
X74700D01*
G37*
G36*
X113200D02*Y242700D01*
X121800D01*
Y251300D01*
X113200D01*
G37*
G54D50*X97500Y247000D03*
X69000D03*
X59000D03*
X49000D03*
X39000D03*
X29000D03*
X19000D03*
X9000D03*
G54D47*X200000Y126000D03*
Y136000D03*
Y146000D03*
Y156000D03*
Y166000D03*
Y176000D03*
G54D48*G36*
X159200Y147300D02*Y140700D01*
X165800D01*
Y147300D01*
X159200D01*
G37*
G54D47*X162500Y134000D03*
G54D48*G36*
X144200Y147300D02*Y140700D01*
X150800D01*
Y147300D01*
X144200D01*
G37*
G54D47*X147500Y134000D03*
X200000Y186000D03*
Y196000D03*
G54D49*Y210000D03*
G54D48*G36*
X148200Y189300D02*Y182700D01*
X154800D01*
Y189300D01*
X148200D01*
G37*
G54D47*X161500Y186000D03*
X171500D03*
X151500Y196000D03*
X161500D03*
X171500D03*
G54D48*G36*
X168200Y224300D02*Y217700D01*
X174800D01*
Y224300D01*
X168200D01*
G37*
G54D47*X171500Y211000D03*
G54D48*G36*
X148200Y224300D02*Y217700D01*
X154800D01*
Y224300D01*
X148200D01*
G37*
G54D47*X151500Y211000D03*
G54D48*G36*
X196700Y23300D02*Y16700D01*
X203300D01*
Y23300D01*
X196700D01*
G37*
G54D47*X200000Y30000D03*
Y40000D03*
Y50000D03*
G54D49*X140000Y10000D03*
G54D47*X200000Y80000D03*
Y90000D03*
Y106000D03*
Y116000D03*
X10000Y90000D03*
Y70000D03*
Y60000D03*
Y50000D03*
Y40000D03*
Y30000D03*
Y20000D03*
G54D49*X30000Y10000D03*
G54D48*G36*
X45700Y27300D02*Y18700D01*
X54300D01*
Y27300D01*
X45700D01*
G37*
G54D50*X60000Y23000D03*
X70000D03*
X80000D03*
X90000D03*
X100000D03*
X110000D03*
X120000D03*
G54D47*X200000Y60000D03*
Y70000D03*
G54D48*G36*
X136700Y101300D02*Y94700D01*
X143300D01*
Y101300D01*
X136700D01*
G37*
G54D47*X140000Y88000D03*
Y78000D03*
G54D48*G36*
X151700Y101300D02*Y94700D01*
X158300D01*
Y101300D01*
X151700D01*
G37*
G54D47*X155000Y88000D03*
Y78000D03*
G54D48*G36*
X166700Y101300D02*Y94700D01*
X173300D01*
Y101300D01*
X166700D01*
G37*
G54D47*X170000Y88000D03*
Y78000D03*
G54D51*X57543Y102393D02*Y101607D01*
X50457Y102393D02*Y101607D01*
G54D52*X51000Y91989D02*Y80179D01*
G54D53*Y78445D02*Y76555D01*
G54D48*G36*
X52885Y86434D02*X56149Y83170D01*
X54305Y81326D01*
X51041Y84590D01*
X52885Y86434D01*
G37*
G36*
X45851Y83170D02*X49115Y86434D01*
X50959Y84590D01*
X47695Y81326D01*
X45851Y83170D01*
G37*
G54D52*X45094Y91989D02*Y87895D01*
G54D51*X34607Y98543D02*X35393D01*
X34607Y91457D02*X35393D01*
G54D52*X56906Y91989D02*Y87895D01*
G54D51*X34607Y111414D02*X35393D01*
X34607Y118500D02*X35393D01*
G54D54*X85728Y161969D02*X87500D01*
X85728Y160000D02*X87500D01*
X85728Y158031D02*X87500D01*
X85728Y156063D02*X87500D01*
X85728Y154094D02*X87500D01*
G54D55*X116500Y137300D02*Y133700D01*
X126500Y137300D02*Y133700D01*
G54D51*X117457Y123893D02*Y123107D01*
X124543Y123893D02*Y123107D01*
G54D56*X124976Y106760D02*X127339D01*
X124976Y110500D02*X127339D01*
X124976Y114240D02*X127339D01*
X114661D02*X117024D01*
X114661Y110500D02*X117024D01*
X114661Y106760D02*X117024D01*
G54D51*X117457Y97393D02*Y96607D01*
X124543Y97393D02*Y96607D01*
X138457Y221893D02*Y221107D01*
X131371Y221893D02*Y221107D01*
X138500Y210893D02*Y210107D01*
X131414Y210893D02*Y210107D01*
G54D54*X110827Y170335D02*Y168563D01*
X108858Y170335D02*Y168563D01*
X106890Y170335D02*Y168563D01*
X104921Y170335D02*Y168563D01*
X112500Y165906D02*X114272D01*
X102953Y170335D02*Y168563D01*
X100984Y170335D02*Y168563D01*
X99016Y170335D02*Y168563D01*
X97047Y170335D02*Y168563D01*
X95079Y170335D02*Y168563D01*
X93110Y170335D02*Y168563D01*
X91142Y170335D02*Y168563D01*
X89173Y170335D02*Y168563D01*
X85728Y165906D02*X87500D01*
X85728Y163937D02*X87500D01*
X89173Y151437D02*Y149665D01*
X91142Y151437D02*Y149665D01*
X93110Y151437D02*Y149665D01*
X95079Y151437D02*Y149665D01*
X97047Y151437D02*Y149665D01*
X99016Y151437D02*Y149665D01*
X100984Y151437D02*Y149665D01*
X102953Y151437D02*Y149665D01*
X104921Y151437D02*Y149665D01*
X106890Y151437D02*Y149665D01*
X108858Y151437D02*Y149665D01*
X110827Y151437D02*Y149665D01*
X112500Y154094D02*X114272D01*
X112500Y156063D02*X114272D01*
X112500Y158031D02*X114272D01*
X112500Y160000D02*X114272D01*
X112500Y161969D02*X114272D01*
X112500Y163937D02*X114272D01*
G54D57*X96062Y160000D02*X103938D01*
G54D58*X165500Y165800D02*Y164200D01*
X161600Y165800D02*Y164200D01*
X157700Y165800D02*Y164200D01*
Y157600D02*Y156000D01*
X161600Y157600D02*Y156000D01*
G54D51*X166086Y120893D02*Y120107D01*
X159000Y120893D02*Y120107D01*
X143957Y120893D02*Y120107D01*
X151043Y120893D02*Y120107D01*
G54D58*X165500Y157600D02*Y156000D01*
G54D51*X175107Y157457D02*X175893D01*
X175107Y164543D02*X175893D01*
M02*
