G04 start of page 8 for group -4079 idx -4079 *
G04 Title: (unknown), topsilk *
G04 Creator: pcb 20110918 *
G04 CreationDate: Sat 02 Feb 2013 08:58:03 PM GMT UTC *
G04 For: petersen *
G04 Format: Gerber/RS-274X *
G04 PCB-Dimensions: 210000 270000 *
G04 PCB-Coordinate-Origin: lower left *
%MOIN*%
%FSLAX25Y25*%
%LNTOPSILK*%
%ADD64C,0.0200*%
%ADD63C,0.0100*%
G54D63*X209500Y269500D02*Y10500D01*
X159500D02*X149500Y500D01*
X209500Y10500D02*X159500D01*
X160500Y240100D02*X167500D01*
X160500Y235100D02*X167500D01*
X149500Y500D02*X20500D01*
X500Y10500D02*X10500D01*
X20500Y500D02*X10500Y10500D01*
X500D02*Y269500D01*
X209500D01*
X154000Y246100D02*X169000D01*
Y251100D02*X154000D01*
Y256100D02*X169000D01*
Y246100D01*
X164000Y256100D02*Y246100D01*
X159000Y256100D02*Y246100D01*
X154000Y256100D02*Y246100D01*
Y232600D02*X169000D01*
Y237600D02*X154000D01*
Y242600D02*X169000D01*
Y232600D01*
X164000Y242600D02*Y232600D01*
X159000Y242600D02*Y232600D01*
X154000Y242600D02*Y232600D01*
X155500Y253600D02*X162500D01*
X155500Y248600D02*X162500D01*
X18000Y22500D02*Y19000D01*
Y22500D02*X18500Y23000D01*
X20000D01*
X20500Y22500D01*
Y19000D01*
X18000Y21000D02*X20500D01*
X21700Y23000D02*X23700D01*
X21700D02*Y21000D01*
X22200Y21500D01*
X23200D01*
X23700Y21000D01*
Y19500D01*
X23200Y19000D02*X23700Y19500D01*
X22200Y19000D02*X23200D01*
X21700Y19500D02*X22200Y19000D01*
X24900Y19500D02*X27900Y22500D01*
X31100Y23000D02*X31600Y22500D01*
X29600Y23000D02*X31100D01*
X29100Y22500D02*X29600Y23000D01*
X29100Y22500D02*Y21500D01*
X29600Y21000D01*
X31100D01*
X31600Y20500D01*
Y19500D01*
X31100Y19000D02*X31600Y19500D01*
X29600Y19000D02*X31100D01*
X29100Y19500D02*X29600Y19000D01*
X33300D02*X34800D01*
X32800Y19500D02*X33300Y19000D01*
X32800Y22500D02*Y19500D01*
Y22500D02*X33300Y23000D01*
X34800D01*
X36000D02*Y19000D01*
X38000D01*
X18000Y31500D02*Y28000D01*
Y31500D02*X18500Y32000D01*
X20000D01*
X20500Y31500D01*
Y28000D01*
X18000Y30000D02*X20500D01*
X21700D02*X23700Y32000D01*
X21700Y30000D02*X24200D01*
X23700Y32000D02*Y28000D01*
X25400Y28500D02*X28400Y31500D01*
X31600Y32000D02*X32100Y31500D01*
X30100Y32000D02*X31600D01*
X29600Y31500D02*X30100Y32000D01*
X29600Y31500D02*Y30500D01*
X30100Y30000D01*
X31600D01*
X32100Y29500D01*
Y28500D01*
X31600Y28000D02*X32100Y28500D01*
X30100Y28000D02*X31600D01*
X29600Y28500D02*X30100Y28000D01*
X33800Y32000D02*Y28000D01*
X35300Y32000D02*X35800Y31500D01*
Y28500D01*
X35300Y28000D02*X35800Y28500D01*
X33300Y28000D02*X35300D01*
X33300Y32000D02*X35300D01*
X37000Y31500D02*Y28000D01*
Y31500D02*X37500Y32000D01*
X39000D01*
X39500Y31500D01*
Y28000D01*
X37000Y30000D02*X39500D01*
X18000Y41500D02*Y38000D01*
Y41500D02*X18500Y42000D01*
X20000D01*
X20500Y41500D01*
Y38000D01*
X18000Y40000D02*X20500D01*
X21700Y41500D02*X22200Y42000D01*
X23200D01*
X23700Y41500D01*
Y38500D01*
X23200Y38000D02*X23700Y38500D01*
X22200Y38000D02*X23200D01*
X21700Y38500D02*X22200Y38000D01*
Y40000D02*X23700D01*
X18000Y51500D02*Y48000D01*
Y51500D02*X18500Y52000D01*
X20000D01*
X20500Y51500D01*
Y48000D01*
X18000Y50000D02*X20500D01*
X21700Y51500D02*X22200Y52000D01*
X23700D01*
X24200Y51500D01*
Y50500D01*
X21700Y48000D02*X24200Y50500D01*
X21700Y48000D02*X24200D01*
X18000Y61500D02*Y58000D01*
Y61500D02*X18500Y62000D01*
X20000D01*
X20500Y61500D01*
Y58000D01*
X18000Y60000D02*X20500D01*
X22200Y58000D02*X23200D01*
X22700Y62000D02*Y58000D01*
X21700Y61000D02*X22700Y62000D01*
X73500Y64000D02*X74500D01*
X74000D02*Y60000D01*
X73500D02*X74500D01*
X75700Y61500D02*Y60500D01*
Y61500D02*X76200Y62000D01*
X77200D01*
X77700Y61500D01*
Y60500D01*
X77200Y60000D02*X77700Y60500D01*
X76200Y60000D02*X77200D01*
X75700Y60500D02*X76200Y60000D01*
X78900Y62000D02*Y60500D01*
X79400Y60000D01*
X79900D01*
X80400Y60500D01*
Y62000D02*Y60500D01*
X80900Y60000D01*
X81400D01*
X81900Y60500D01*
Y62000D02*Y60500D01*
X84600Y62000D02*X85100Y61500D01*
X83600Y62000D02*X84600D01*
X83100Y61500D02*X83600Y62000D01*
X83100Y61500D02*Y60500D01*
X83600Y60000D01*
X85100Y62000D02*Y60500D01*
X85600Y60000D01*
X83600D02*X84600D01*
X85100Y60500D01*
X90600Y64000D02*X91100Y63500D01*
X89100Y64000D02*X90600D01*
X88600Y63500D02*X89100Y64000D01*
X88600Y63500D02*Y62500D01*
X89100Y62000D01*
X90600D01*
X91100Y61500D01*
Y60500D01*
X90600Y60000D02*X91100Y60500D01*
X89100Y60000D02*X90600D01*
X88600Y60500D02*X89100Y60000D01*
X92800Y62000D02*X94300D01*
X92300Y61500D02*X92800Y62000D01*
X92300Y61500D02*Y60500D01*
X92800Y60000D01*
X94300D01*
X97000Y62000D02*X97500Y61500D01*
X96000Y62000D02*X97000D01*
X95500Y61500D02*X96000Y62000D01*
X95500Y61500D02*Y60500D01*
X96000Y60000D01*
X97500Y62000D02*Y60500D01*
X98000Y60000D01*
X96000D02*X97000D01*
X97500Y60500D01*
X99200Y64000D02*Y60500D01*
X99700Y60000D01*
X101200D02*X102700D01*
X100700Y60500D02*X101200Y60000D01*
X100700Y61500D02*Y60500D01*
Y61500D02*X101200Y62000D01*
X102200D01*
X102700Y61500D01*
X100700Y61000D02*X102700D01*
Y61500D02*Y61000D01*
X105900Y64000D02*Y60000D01*
X105400D02*X105900Y60500D01*
X104400Y60000D02*X105400D01*
X103900Y60500D02*X104400Y60000D01*
X103900Y61500D02*Y60500D01*
Y61500D02*X104400Y62000D01*
X105400D01*
X105900Y61500D01*
X108900Y62000D02*X110400D01*
X108900Y60000D02*X110900D01*
X108900Y64000D02*Y60000D01*
Y64000D02*X110900D01*
X112600Y61500D02*Y60000D01*
Y61500D02*X113100Y62000D01*
X113600D01*
X114100Y61500D01*
Y60000D01*
X112100Y62000D02*X112600Y61500D01*
X116800Y62000D02*X117300Y61500D01*
X115800Y62000D02*X116800D01*
X115300Y61500D02*X115800Y62000D01*
X115300Y61500D02*Y60500D01*
X115800Y60000D01*
X116800D01*
X117300Y60500D01*
X115300Y59000D02*X115800Y58500D01*
X116800D01*
X117300Y59000D01*
Y62000D02*Y59000D01*
X118500Y63000D02*Y62500D01*
Y61500D02*Y60000D01*
X120000Y61500D02*Y60000D01*
Y61500D02*X120500Y62000D01*
X121000D01*
X121500Y61500D01*
Y60000D01*
X119500Y62000D02*X120000Y61500D01*
X123200Y60000D02*X124700D01*
X122700Y60500D02*X123200Y60000D01*
X122700Y61500D02*Y60500D01*
Y61500D02*X123200Y62000D01*
X124200D01*
X124700Y61500D01*
X122700Y61000D02*X124700D01*
Y61500D02*Y61000D01*
X126400Y60000D02*X127900D01*
X125900Y60500D02*X126400Y60000D01*
X125900Y61500D02*Y60500D01*
Y61500D02*X126400Y62000D01*
X127400D01*
X127900Y61500D01*
X125900Y61000D02*X127900D01*
Y61500D02*Y61000D01*
X129600Y61500D02*Y60000D01*
Y61500D02*X130100Y62000D01*
X131100D01*
X129100D02*X129600Y61500D01*
X132300Y63000D02*Y62500D01*
Y61500D02*Y60000D01*
X133800Y61500D02*Y60000D01*
Y61500D02*X134300Y62000D01*
X134800D01*
X135300Y61500D01*
Y60000D01*
X133300Y62000D02*X133800Y61500D01*
X138000Y62000D02*X138500Y61500D01*
X137000Y62000D02*X138000D01*
X136500Y61500D02*X137000Y62000D01*
X136500Y61500D02*Y60500D01*
X137000Y60000D01*
X138000D01*
X138500Y60500D01*
X136500Y59000D02*X137000Y58500D01*
X138000D01*
X138500Y59000D01*
Y62000D02*Y59000D01*
X73500Y56500D02*Y52500D01*
Y54000D02*X74000Y54500D01*
X75000D01*
X75500Y54000D01*
Y52500D01*
X77200Y56500D02*Y53000D01*
X77700Y52500D01*
X76700Y55000D02*X77700D01*
X79200Y56500D02*Y53000D01*
X79700Y52500D01*
X78700Y55000D02*X79700D01*
X81200Y54000D02*Y51000D01*
X80700Y54500D02*X81200Y54000D01*
X81700Y54500D01*
X82700D01*
X83200Y54000D01*
Y53000D01*
X82700Y52500D02*X83200Y53000D01*
X81700Y52500D02*X82700D01*
X81200Y53000D02*X81700Y52500D01*
X84400Y55000D02*X84900D01*
X84400Y54000D02*X84900D01*
X86100Y53000D02*X89100Y56000D01*
X90300Y53000D02*X93300Y56000D01*
X94500Y54500D02*Y53000D01*
X95000Y52500D01*
X95500D01*
X96000Y53000D01*
Y54500D02*Y53000D01*
X96500Y52500D01*
X97000D01*
X97500Y53000D01*
Y54500D02*Y53000D01*
X98700Y54500D02*Y53000D01*
X99200Y52500D01*
X99700D01*
X100200Y53000D01*
Y54500D02*Y53000D01*
X100700Y52500D01*
X101200D01*
X101700Y53000D01*
Y54500D02*Y53000D01*
X102900Y54500D02*Y53000D01*
X103400Y52500D01*
X103900D01*
X104400Y53000D01*
Y54500D02*Y53000D01*
X104900Y52500D01*
X105400D01*
X105900Y53000D01*
Y54500D02*Y53000D01*
X107100Y52500D02*X107600D01*
X108800Y55500D02*Y55000D01*
Y54000D02*Y52500D01*
X111300Y54500D02*X111800Y54000D01*
X110300Y54500D02*X111300D01*
X109800Y54000D02*X110300Y54500D01*
X109800Y54000D02*Y53000D01*
X110300Y52500D01*
X111800Y54500D02*Y53000D01*
X112300Y52500D01*
X110300D02*X111300D01*
X111800Y53000D01*
X114000Y52500D02*X115500D01*
X116000Y53000D01*
X115500Y53500D02*X116000Y53000D01*
X114000Y53500D02*X115500D01*
X113500Y54000D02*X114000Y53500D01*
X113500Y54000D02*X114000Y54500D01*
X115500D01*
X116000Y54000D01*
X113500Y53000D02*X114000Y52500D01*
X117700Y54500D02*X119200D01*
X117200Y54000D02*X117700Y54500D01*
X117200Y54000D02*Y53000D01*
X117700Y52500D01*
X119200D01*
X121900Y54500D02*X122400Y54000D01*
X120900Y54500D02*X121900D01*
X120400Y54000D02*X120900Y54500D01*
X120400Y54000D02*Y53000D01*
X120900Y52500D01*
X122400Y54500D02*Y53000D01*
X122900Y52500D01*
X120900D02*X121900D01*
X122400Y53000D01*
X124100Y56500D02*Y53000D01*
X124600Y52500D01*
X126100D02*X127600D01*
X125600Y53000D02*X126100Y52500D01*
X125600Y54000D02*Y53000D01*
Y54000D02*X126100Y54500D01*
X127100D01*
X127600Y54000D01*
X125600Y53500D02*X127600D01*
Y54000D02*Y53500D01*
X130800Y56500D02*Y52500D01*
X130300D02*X130800Y53000D01*
X129300Y52500D02*X130300D01*
X128800Y53000D02*X129300Y52500D01*
X128800Y54000D02*Y53000D01*
Y54000D02*X129300Y54500D01*
X130300D01*
X130800Y54000D01*
X132000Y52500D02*X132500D01*
X134200Y54500D02*X135700D01*
X133700Y54000D02*X134200Y54500D01*
X133700Y54000D02*Y53000D01*
X134200Y52500D01*
X135700D01*
X136900Y54000D02*Y53000D01*
Y54000D02*X137400Y54500D01*
X138400D01*
X138900Y54000D01*
Y53000D01*
X138400Y52500D02*X138900Y53000D01*
X137400Y52500D02*X138400D01*
X136900Y53000D02*X137400Y52500D01*
X140600Y54000D02*Y52500D01*
Y54000D02*X141100Y54500D01*
X141600D01*
X142100Y54000D01*
Y52500D01*
Y54000D02*X142600Y54500D01*
X143100D01*
X143600Y54000D01*
Y52500D01*
X140100Y54500D02*X140600Y54000D01*
X74000Y45000D02*X75500D01*
X73500Y45500D02*X74000Y45000D01*
X73500Y48500D02*Y45500D01*
Y48500D02*X74000Y49000D01*
X75500D01*
X77200Y45000D02*X78700D01*
X76700Y45500D02*X77200Y45000D01*
X76700Y48500D02*Y45500D01*
Y48500D02*X77200Y49000D01*
X78700D01*
X81700Y45000D02*X83700D01*
X84200Y45500D01*
Y46500D02*Y45500D01*
X83700Y47000D02*X84200Y46500D01*
X82200Y47000D02*X83700D01*
X82200Y49000D02*Y45000D01*
X81700Y49000D02*X83700D01*
X84200Y48500D01*
Y47500D01*
X83700Y47000D02*X84200Y47500D01*
X85400Y49000D02*Y48500D01*
X86400Y47500D01*
X87400Y48500D01*
Y49000D02*Y48500D01*
X86400Y47500D02*Y45000D01*
X88600Y47000D02*X90600D01*
X93800Y49000D02*X94300Y48500D01*
X92300Y49000D02*X93800D01*
X91800Y48500D02*X92300Y49000D01*
X91800Y48500D02*Y47500D01*
X92300Y47000D01*
X93800D01*
X94300Y46500D01*
Y45500D01*
X93800Y45000D02*X94300Y45500D01*
X92300Y45000D02*X93800D01*
X91800Y45500D02*X92300Y45000D01*
X95500Y48500D02*Y45000D01*
Y48500D02*X96000Y49000D01*
X97500D01*
X98000Y48500D01*
Y45000D01*
X95500Y47000D02*X98000D01*
X101000Y45500D02*X101500Y45000D01*
X101000Y48500D02*X101500Y49000D01*
X101000Y48500D02*Y45500D01*
X103200Y45000D02*X104700D01*
X102700Y45500D02*X103200Y45000D01*
X102700Y48500D02*Y45500D01*
Y48500D02*X103200Y49000D01*
X104700D01*
X105900D02*X106400Y48500D01*
Y45500D01*
X105900Y45000D02*X106400Y45500D01*
X107600Y48500D02*X108100Y49000D01*
X109600D01*
X110100Y48500D01*
Y47500D01*
X107600Y45000D02*X110100Y47500D01*
X107600Y45000D02*X110100D01*
X111300Y45500D02*X111800Y45000D01*
X111300Y48500D02*Y45500D01*
Y48500D02*X111800Y49000D01*
X112800D01*
X113300Y48500D01*
Y45500D01*
X112800Y45000D02*X113300Y45500D01*
X111800Y45000D02*X112800D01*
X111300Y46000D02*X113300Y48000D01*
X115000Y45000D02*X116000D01*
X115500Y49000D02*Y45000D01*
X114500Y48000D02*X115500Y49000D01*
X117200Y48500D02*X117700Y49000D01*
X118700D01*
X119200Y48500D01*
Y45500D01*
X118700Y45000D02*X119200Y45500D01*
X117700Y45000D02*X118700D01*
X117200Y45500D02*X117700Y45000D01*
Y47000D02*X119200D01*
X18000Y71500D02*Y68000D01*
Y71500D02*X18500Y72000D01*
X20000D01*
X20500Y71500D01*
Y68000D01*
X18000Y70000D02*X20500D01*
X21700Y68500D02*X22200Y68000D01*
X21700Y71500D02*Y68500D01*
Y71500D02*X22200Y72000D01*
X23200D01*
X23700Y71500D01*
Y68500D01*
X23200Y68000D02*X23700Y68500D01*
X22200Y68000D02*X23200D01*
X21700Y69000D02*X23700Y71000D01*
X73500D02*Y67500D01*
Y71000D02*X74000Y71500D01*
X75500D01*
X76000Y71000D01*
Y67500D01*
X73500Y69500D02*X76000D01*
X77200Y71500D02*X79200D01*
X79700Y71000D01*
Y70000D01*
X79200Y69500D02*X79700Y70000D01*
X77700Y69500D02*X79200D01*
X77700Y71500D02*Y67500D01*
Y69500D02*X79700Y67500D01*
X81400Y71500D02*Y67500D01*
X82900Y71500D02*X83400Y71000D01*
Y68000D01*
X82900Y67500D02*X83400Y68000D01*
X80900Y67500D02*X82900D01*
X80900Y71500D02*X82900D01*
X84600Y69500D02*X86600D01*
X87800Y71500D02*Y67500D01*
X89800D01*
X91000Y71500D02*X93000D01*
X92000D02*Y67500D01*
X94700D02*X96200D01*
X94200Y68000D02*X94700Y67500D01*
X94200Y71000D02*Y68000D01*
Y71000D02*X94700Y71500D01*
X96200D01*
X97400Y71000D02*X97900Y71500D01*
X99400D01*
X99900Y71000D01*
Y70000D01*
X97400Y67500D02*X99900Y70000D01*
X97400Y67500D02*X99900D01*
X101100Y69500D02*X103100Y71500D01*
X101100Y69500D02*X103600D01*
X103100Y71500D02*Y67500D01*
X104800D02*X106800Y69500D01*
Y71000D02*Y69500D01*
X106300Y71500D02*X106800Y71000D01*
X105300Y71500D02*X106300D01*
X104800Y71000D02*X105300Y71500D01*
X104800Y71000D02*Y70000D01*
X105300Y69500D01*
X106800D01*
X108000Y67500D02*X110000Y69500D01*
Y71000D02*Y69500D01*
X109500Y71500D02*X110000Y71000D01*
X108500Y71500D02*X109500D01*
X108000Y71000D02*X108500Y71500D01*
X108000Y71000D02*Y70000D01*
X108500Y69500D01*
X110000D01*
X113000D02*Y68500D01*
X114000Y67500D01*
X115000Y68500D01*
Y69500D02*Y68500D01*
X116700Y67500D02*X117700D01*
X117200Y71500D02*Y67500D01*
X116200Y70500D02*X117200Y71500D01*
X118900Y67500D02*X119400D01*
X120600Y68000D02*X121100Y67500D01*
X120600Y71000D02*Y68000D01*
Y71000D02*X121100Y71500D01*
X122100D01*
X122600Y71000D01*
Y68000D01*
X122100Y67500D02*X122600Y68000D01*
X121100Y67500D02*X122100D01*
X120600Y68500D02*X122600Y70500D01*
X49000Y4000D02*X49500Y3500D01*
X49000Y5000D02*Y4000D01*
Y5000D02*X49500Y5500D01*
X50500D01*
X51000Y5000D01*
Y4000D01*
X50500Y3500D02*X51000Y4000D01*
X49500Y3500D02*X50500D01*
X49000Y6000D02*X49500Y5500D01*
X49000Y7000D02*Y6000D01*
Y7000D02*X49500Y7500D01*
X50500D01*
X51000Y7000D01*
Y6000D01*
X50500Y5500D02*X51000Y6000D01*
X59000Y3500D02*X61000Y5500D01*
Y7000D02*Y5500D01*
X60500Y7500D02*X61000Y7000D01*
X59500Y7500D02*X60500D01*
X59000Y7000D02*X59500Y7500D01*
X59000Y7000D02*Y6000D01*
X59500Y5500D01*
X61000D01*
X68000Y3500D02*X69000D01*
X68500Y7500D02*Y3500D01*
X67500Y6500D02*X68500Y7500D01*
X70200Y4000D02*X70700Y3500D01*
X70200Y7000D02*Y4000D01*
Y7000D02*X70700Y7500D01*
X71700D01*
X72200Y7000D01*
Y4000D01*
X71700Y3500D02*X72200Y4000D01*
X70700Y3500D02*X71700D01*
X70200Y4500D02*X72200Y6500D01*
X78500Y3500D02*X79500D01*
X79000Y7500D02*Y3500D01*
X78000Y6500D02*X79000Y7500D01*
X81200Y3500D02*X82200D01*
X81700Y7500D02*Y3500D01*
X80700Y6500D02*X81700Y7500D01*
X87500Y3500D02*X88500D01*
X88000Y7500D02*Y3500D01*
X87000Y6500D02*X88000Y7500D01*
X89700Y7000D02*X90200Y7500D01*
X91700D01*
X92200Y7000D01*
Y6000D01*
X89700Y3500D02*X92200Y6000D01*
X89700Y3500D02*X92200D01*
X98000D02*X99000D01*
X98500Y7500D02*Y3500D01*
X97500Y6500D02*X98500Y7500D01*
X100200Y7000D02*X100700Y7500D01*
X101700D01*
X102200Y7000D01*
Y4000D01*
X101700Y3500D02*X102200Y4000D01*
X100700Y3500D02*X101700D01*
X100200Y4000D02*X100700Y3500D01*
Y5500D02*X102200D01*
X108000Y3500D02*X109000D01*
X108500Y7500D02*Y3500D01*
X107500Y6500D02*X108500Y7500D01*
X110200Y5500D02*X112200Y7500D01*
X110200Y5500D02*X112700D01*
X112200Y7500D02*Y3500D01*
X118000D02*X119000D01*
X118500Y7500D02*Y3500D01*
X117500Y6500D02*X118500Y7500D01*
X120200D02*X122200D01*
X120200D02*Y5500D01*
X120700Y6000D01*
X121700D01*
X122200Y5500D01*
Y4000D01*
X121700Y3500D02*X122200Y4000D01*
X120700Y3500D02*X121700D01*
X120200Y4000D02*X120700Y3500D01*
X185500Y108000D02*Y104000D01*
X187000Y108000D02*X187500Y107500D01*
Y104500D01*
X187000Y104000D02*X187500Y104500D01*
X185000Y104000D02*X187000D01*
X185000Y108000D02*X187000D01*
X188700Y104500D02*X189200Y104000D01*
X188700Y105500D02*Y104500D01*
Y105500D02*X189200Y106000D01*
X190200D01*
X190700Y105500D01*
Y104500D01*
X190200Y104000D02*X190700Y104500D01*
X189200Y104000D02*X190200D01*
X188700Y106500D02*X189200Y106000D01*
X188700Y107500D02*Y106500D01*
Y107500D02*X189200Y108000D01*
X190200D01*
X190700Y107500D01*
Y106500D01*
X190200Y106000D02*X190700Y106500D01*
X183500Y158000D02*Y154000D01*
X185000Y158000D02*X185500Y157500D01*
Y154500D01*
X185000Y154000D02*X185500Y154500D01*
X183000Y154000D02*X185000D01*
X183000Y158000D02*X185000D01*
X187200Y154000D02*X188200D01*
X187700Y158000D02*Y154000D01*
X186700Y157000D02*X187700Y158000D01*
X189400Y157500D02*X189900Y158000D01*
X190900D01*
X191400Y157500D01*
Y154500D01*
X190900Y154000D02*X191400Y154500D01*
X189900Y154000D02*X190900D01*
X189400Y154500D02*X189900Y154000D01*
Y156000D02*X191400D01*
X183500Y148000D02*Y144000D01*
X185000Y148000D02*X185500Y147500D01*
Y144500D01*
X185000Y144000D02*X185500Y144500D01*
X183000Y144000D02*X185000D01*
X183000Y148000D02*X185000D01*
X187200Y144000D02*X188200D01*
X187700Y148000D02*Y144000D01*
X186700Y147000D02*X187700Y148000D01*
X189400Y147500D02*X189900Y148000D01*
X191400D01*
X191900Y147500D01*
Y146500D01*
X189400Y144000D02*X191900Y146500D01*
X189400Y144000D02*X191900D01*
X183500Y138000D02*Y134000D01*
X185000Y138000D02*X185500Y137500D01*
Y134500D01*
X185000Y134000D02*X185500Y134500D01*
X183000Y134000D02*X185000D01*
X183000Y138000D02*X185000D01*
X187200Y134000D02*X188200D01*
X187700Y138000D02*Y134000D01*
X186700Y137000D02*X187700Y138000D01*
X189900Y134000D02*X190900D01*
X190400Y138000D02*Y134000D01*
X189400Y137000D02*X190400Y138000D01*
X183500Y128000D02*Y124000D01*
X185000Y128000D02*X185500Y127500D01*
Y124500D01*
X185000Y124000D02*X185500Y124500D01*
X183000Y124000D02*X185000D01*
X183000Y128000D02*X185000D01*
X187200Y124000D02*X188200D01*
X187700Y128000D02*Y124000D01*
X186700Y127000D02*X187700Y128000D01*
X189400Y124500D02*X189900Y124000D01*
X189400Y127500D02*Y124500D01*
Y127500D02*X189900Y128000D01*
X190900D01*
X191400Y127500D01*
Y124500D01*
X190900Y124000D02*X191400Y124500D01*
X189900Y124000D02*X190900D01*
X189400Y125000D02*X191400Y127000D01*
X185500Y118000D02*Y114000D01*
X187000Y118000D02*X187500Y117500D01*
Y114500D01*
X187000Y114000D02*X187500Y114500D01*
X185000Y114000D02*X187000D01*
X185000Y118000D02*X187000D01*
X188700Y114000D02*X190700Y116000D01*
Y117500D02*Y116000D01*
X190200Y118000D02*X190700Y117500D01*
X189200Y118000D02*X190200D01*
X188700Y117500D02*X189200Y118000D01*
X188700Y117500D02*Y116500D01*
X189200Y116000D01*
X190700D01*
X185500Y52000D02*Y48000D01*
X187000Y52000D02*X187500Y51500D01*
Y48500D01*
X187000Y48000D02*X187500Y48500D01*
X185000Y48000D02*X187000D01*
X185000Y52000D02*X187000D01*
X188700Y51500D02*X189200Y52000D01*
X190200D01*
X190700Y51500D01*
Y48500D01*
X190200Y48000D02*X190700Y48500D01*
X189200Y48000D02*X190200D01*
X188700Y48500D02*X189200Y48000D01*
Y50000D02*X190700D01*
X185500Y62000D02*Y58000D01*
X187000Y62000D02*X187500Y61500D01*
Y58500D01*
X187000Y58000D02*X187500Y58500D01*
X185000Y58000D02*X187000D01*
X185000Y62000D02*X187000D01*
X188700Y60000D02*X190700Y62000D01*
X188700Y60000D02*X191200D01*
X190700Y62000D02*Y58000D01*
X185500Y42000D02*Y38000D01*
X187000Y42000D02*X187500Y41500D01*
Y38500D01*
X187000Y38000D02*X187500Y38500D01*
X185000Y38000D02*X187000D01*
X185000Y42000D02*X187000D01*
X188700Y41500D02*X189200Y42000D01*
X190700D01*
X191200Y41500D01*
Y40500D01*
X188700Y38000D02*X191200Y40500D01*
X188700Y38000D02*X191200D01*
X174000Y22000D02*X176000D01*
X176500Y21500D01*
Y20500D01*
X176000Y20000D02*X176500Y20500D01*
X174500Y20000D02*X176000D01*
X174500Y22000D02*Y18000D01*
Y20000D02*X176500Y18000D01*
X177700Y22000D02*Y21500D01*
X180200Y19000D01*
Y18000D01*
X177700Y19000D02*Y18000D01*
Y19000D02*X180200Y21500D01*
Y22000D02*Y21500D01*
X181400Y18500D02*X184400Y21500D01*
X186100Y22000D02*Y18000D01*
X187600Y22000D02*X188100Y21500D01*
Y18500D01*
X187600Y18000D02*X188100Y18500D01*
X185600Y18000D02*X187600D01*
X185600Y22000D02*X187600D01*
X189300Y18500D02*X189800Y18000D01*
X189300Y21500D02*Y18500D01*
Y21500D02*X189800Y22000D01*
X190800D01*
X191300Y21500D01*
Y18500D01*
X190800Y18000D02*X191300Y18500D01*
X189800Y18000D02*X190800D01*
X189300Y19000D02*X191300Y21000D01*
X175000Y32000D02*X177000D01*
X176000D02*Y28000D01*
X178200Y32000D02*Y31500D01*
X180700Y29000D01*
Y28000D01*
X178200Y29000D02*Y28000D01*
Y29000D02*X180700Y31500D01*
Y32000D02*Y31500D01*
X181900Y28500D02*X184900Y31500D01*
X186600Y32000D02*Y28000D01*
X188100Y32000D02*X188600Y31500D01*
Y28500D01*
X188100Y28000D02*X188600Y28500D01*
X186100Y28000D02*X188100D01*
X186100Y32000D02*X188100D01*
X190300Y28000D02*X191300D01*
X190800Y32000D02*Y28000D01*
X189800Y31000D02*X190800Y32000D01*
X185500Y92000D02*Y88000D01*
X187000Y92000D02*X187500Y91500D01*
Y88500D01*
X187000Y88000D02*X187500Y88500D01*
X185000Y88000D02*X187000D01*
X185000Y92000D02*X187000D01*
X188700Y88000D02*X191200Y90500D01*
Y92000D02*Y90500D01*
X188700Y92000D02*X191200D01*
X185500Y82000D02*Y78000D01*
X187000Y82000D02*X187500Y81500D01*
Y78500D01*
X187000Y78000D02*X187500Y78500D01*
X185000Y78000D02*X187000D01*
X185000Y82000D02*X187000D01*
X190200D02*X190700Y81500D01*
X189200Y82000D02*X190200D01*
X188700Y81500D02*X189200Y82000D01*
X188700Y81500D02*Y78500D01*
X189200Y78000D01*
X190200Y80000D02*X190700Y79500D01*
X188700Y80000D02*X190200D01*
X189200Y78000D02*X190200D01*
X190700Y78500D01*
Y79500D02*Y78500D01*
X185500Y72000D02*Y68000D01*
X187000Y72000D02*X187500Y71500D01*
Y68500D01*
X187000Y68000D02*X187500Y68500D01*
X185000Y68000D02*X187000D01*
X185000Y72000D02*X187000D01*
X188700D02*X190700D01*
X188700D02*Y70000D01*
X189200Y70500D01*
X190200D01*
X190700Y70000D01*
Y68500D01*
X190200Y68000D02*X190700Y68500D01*
X189200Y68000D02*X190200D01*
X188700Y68500D02*X189200Y68000D01*
X180000Y177500D02*Y174000D01*
Y177500D02*X180500Y178000D01*
X182000D01*
X182500Y177500D01*
Y174000D01*
X180000Y176000D02*X182500D01*
X183700Y178000D02*X185700D01*
X186200Y177500D01*
Y176500D01*
X185700Y176000D02*X186200Y176500D01*
X184200Y176000D02*X185700D01*
X184200Y178000D02*Y174000D01*
Y176000D02*X186200Y174000D01*
X187400Y176000D02*X188900D01*
X187400Y174000D02*X189400D01*
X187400Y178000D02*Y174000D01*
Y178000D02*X189400D01*
X190600D02*Y174000D01*
Y178000D02*X192600D01*
X190600Y176000D02*X192100D01*
X184000Y188000D02*X184500Y187500D01*
X182500Y188000D02*X184000D01*
X182000Y187500D02*X182500Y188000D01*
X182000Y187500D02*Y186500D01*
X182500Y186000D01*
X184000D01*
X184500Y185500D01*
Y184500D01*
X184000Y184000D02*X184500Y184500D01*
X182500Y184000D02*X184000D01*
X182000Y184500D02*X182500Y184000D01*
X186200Y188000D02*Y184000D01*
X187700Y188000D02*X188200Y187500D01*
Y184500D01*
X187700Y184000D02*X188200Y184500D01*
X185700Y184000D02*X187700D01*
X185700Y188000D02*X187700D01*
X189400Y187500D02*Y184000D01*
Y187500D02*X189900Y188000D01*
X191400D01*
X191900Y187500D01*
Y184000D01*
X189400Y186000D02*X191900D01*
X185000Y198000D02*X185500Y197500D01*
X183500Y198000D02*X185000D01*
X183000Y197500D02*X183500Y198000D01*
X183000Y197500D02*Y196500D01*
X183500Y196000D01*
X185000D01*
X185500Y195500D01*
Y194500D01*
X185000Y194000D02*X185500Y194500D01*
X183500Y194000D02*X185000D01*
X183000Y194500D02*X183500Y194000D01*
X187200D02*X188700D01*
X186700Y194500D02*X187200Y194000D01*
X186700Y197500D02*Y194500D01*
Y197500D02*X187200Y198000D01*
X188700D01*
X189900D02*Y194000D01*
X191900D01*
X184000Y168000D02*X184500Y167500D01*
X182500Y168000D02*X184000D01*
X182000Y167500D02*X182500Y168000D01*
X182000Y167500D02*Y164500D01*
X182500Y164000D01*
X184000D01*
X184500Y164500D01*
Y165500D02*Y164500D01*
X184000Y166000D02*X184500Y165500D01*
X183000Y166000D02*X184000D01*
X185700Y168000D02*Y164000D01*
Y168000D02*Y167500D01*
X188200Y165000D01*
Y168000D02*Y164000D01*
X189900Y168000D02*Y164000D01*
X191400Y168000D02*X191900Y167500D01*
Y164500D01*
X191400Y164000D02*X191900Y164500D01*
X189400Y164000D02*X191400D01*
X189400Y168000D02*X191400D01*
X115000Y195000D02*X116000D01*
X115500D02*Y191000D01*
X115000D02*X116000D01*
X117200Y194500D02*X117700Y195000D01*
X119200D01*
X119700Y194500D01*
Y193500D01*
X117200Y191000D02*X119700Y193500D01*
X117200Y191000D02*X119700D01*
X121400D02*X122900D01*
X120900Y191500D02*X121400Y191000D01*
X120900Y194500D02*Y191500D01*
Y194500D02*X121400Y195000D01*
X122900D01*
X126400D02*Y191000D01*
X125900Y195000D02*X127900D01*
X128400Y194500D01*
Y193500D01*
X127900Y193000D02*X128400Y193500D01*
X126400Y193000D02*X127900D01*
X129600D02*Y191500D01*
X130100Y191000D01*
X131100D01*
X131600Y191500D01*
Y193000D02*Y191500D01*
X132800Y195000D02*Y191500D01*
X133300Y191000D01*
X134300Y195000D02*Y191500D01*
X134800Y191000D01*
X135800Y193000D02*Y191500D01*
X136300Y191000D01*
X137300D01*
X137800Y191500D01*
Y193000D02*Y191500D01*
X139500Y192500D02*Y189500D01*
X139000Y193000D02*X139500Y192500D01*
X140000Y193000D01*
X141000D01*
X141500Y192500D01*
Y191500D01*
X141000Y191000D02*X141500Y191500D01*
X140000Y191000D02*X141000D01*
X139500Y191500D02*X140000Y191000D01*
X102500Y202000D02*X104000D01*
Y198500D01*
X103500Y198000D02*X104000Y198500D01*
X103000Y198000D02*X103500D01*
X102500Y198500D02*X103000Y198000D01*
X105700Y202000D02*Y198000D01*
X105200Y202000D02*X107200D01*
X107700Y201500D01*
Y200500D01*
X107200Y200000D02*X107700Y200500D01*
X105700Y200000D02*X107200D01*
X109400Y198000D02*X110400D01*
X109900Y202000D02*Y198000D01*
X108900Y201000D02*X109900Y202000D01*
X111600Y201500D02*Y198000D01*
Y201500D02*X112100Y202000D01*
X113600D01*
X114100Y201500D01*
Y198000D01*
X111600Y200000D02*X114100D01*
X115300Y198500D02*X118300Y201500D01*
X119500Y198000D02*X121500D01*
X122000Y198500D01*
Y199500D02*Y198500D01*
X121500Y200000D02*X122000Y199500D01*
X120000Y200000D02*X121500D01*
X120000Y202000D02*Y198000D01*
X119500Y202000D02*X121500D01*
X122000Y201500D01*
Y200500D01*
X121500Y200000D02*X122000Y200500D01*
X125000Y200000D02*X126500D01*
X125000Y198000D02*X127000D01*
X125000Y202000D02*Y198000D01*
Y202000D02*X127000D01*
X128700Y199500D02*Y198000D01*
Y199500D02*X129200Y200000D01*
X129700D01*
X130200Y199500D01*
Y198000D01*
X128200Y200000D02*X128700Y199500D01*
X132900Y200000D02*X133400Y199500D01*
X131900Y200000D02*X132900D01*
X131400Y199500D02*X131900Y200000D01*
X131400Y199500D02*Y198500D01*
X131900Y198000D01*
X133400Y200000D02*Y198500D01*
X133900Y198000D01*
X131900D02*X132900D01*
X133400Y198500D01*
X135100Y202000D02*Y198000D01*
Y198500D02*X135600Y198000D01*
X136600D01*
X137100Y198500D01*
Y199500D02*Y198500D01*
X136600Y200000D02*X137100Y199500D01*
X135600Y200000D02*X136600D01*
X135100Y199500D02*X135600Y200000D01*
X138300Y202000D02*Y198500D01*
X138800Y198000D01*
X140300D02*X141800D01*
X139800Y198500D02*X140300Y198000D01*
X139800Y199500D02*Y198500D01*
Y199500D02*X140300Y200000D01*
X141300D01*
X141800Y199500D01*
X139800Y199000D02*X141800D01*
Y199500D02*Y199000D01*
X142500Y264500D02*X140500Y262500D01*
X140000Y264500D02*X142500D01*
X140500Y266500D02*Y262500D01*
X138300Y266500D02*X138800D01*
X137100Y266000D02*X136600Y266500D01*
X137100Y266000D02*Y263000D01*
X136600Y262500D01*
X135600D02*X136600D01*
X135600D02*X135100Y263000D01*
Y266000D02*Y263000D01*
X135600Y266500D02*X135100Y266000D01*
X135600Y266500D02*X136600D01*
X137100Y265500D02*X135100Y263500D01*
X133900Y266500D02*X131900Y264500D01*
Y263000D01*
X132400Y262500D02*X131900Y263000D01*
X132400Y262500D02*X133400D01*
X133900Y263000D02*X133400Y262500D01*
X133900Y264000D02*Y263000D01*
Y264000D02*X133400Y264500D01*
X131900D02*X133400D01*
X129200Y262500D02*X128700Y263000D01*
X129200Y262500D02*X130200D01*
X130700Y263000D02*X130200Y262500D01*
X130700Y266000D02*Y263000D01*
Y266000D02*X130200Y266500D01*
X129200Y264500D02*X128700Y265000D01*
X129200Y264500D02*X130700D01*
X129200Y266500D02*X130200D01*
X129200D02*X128700Y266000D01*
Y265000D01*
X127500Y265500D02*Y262500D01*
Y265500D02*X126500Y266500D01*
X125500Y265500D01*
Y262500D01*
X120500D02*X122500D01*
X120500D02*X120000Y263000D01*
Y264000D02*Y263000D01*
X120500Y264500D02*X120000Y264000D01*
X120500Y264500D02*X122000D01*
Y266500D02*Y262500D01*
Y264500D02*X120000Y266500D01*
X117300Y264500D02*X118800D01*
X116800Y266500D02*X118800D01*
Y262500D01*
X116800D02*X118800D01*
X115600Y266500D02*Y262500D01*
X113600D02*X115600D01*
X114100Y264500D02*X115600D01*
X100000Y266500D02*X101500D01*
X102000Y266000D02*X101500Y266500D01*
X102000Y266000D02*Y263000D01*
X101500Y262500D01*
X100000D02*X101500D01*
X98800Y266000D02*Y263000D01*
X98300Y262500D01*
X97300D02*X98300D01*
X97300D02*X96800Y263000D01*
Y266000D02*Y263000D01*
X97300Y266500D02*X96800Y266000D01*
X97300Y266500D02*X98300D01*
X98800Y266000D02*X98300Y266500D01*
X95600D02*Y262500D01*
X94100Y264000D01*
X92600Y262500D01*
Y266500D02*Y262500D01*
X171000Y256600D02*X172000D01*
X171500D02*Y252600D01*
X171000D02*X172000D01*
X173200Y256100D02*X173700Y256600D01*
X175200D01*
X175700Y256100D01*
Y255100D01*
X173200Y252600D02*X175700Y255100D01*
X173200Y252600D02*X175700D01*
X177400D02*X178900D01*
X176900Y253100D02*X177400Y252600D01*
X176900Y256100D02*Y253100D01*
Y256100D02*X177400Y256600D01*
X178900D01*
X181900Y254100D02*Y253100D01*
Y254100D02*X182400Y254600D01*
X183400D01*
X183900Y254100D01*
Y253100D01*
X183400Y252600D02*X183900Y253100D01*
X182400Y252600D02*X183400D01*
X181900Y253100D02*X182400Y252600D01*
X185600Y254100D02*Y252600D01*
Y254100D02*X186100Y254600D01*
X186600D01*
X187100Y254100D01*
Y252600D01*
X185100Y254600D02*X185600Y254100D01*
X171000Y250100D02*Y246600D01*
Y250100D02*X171500Y250600D01*
X173000D01*
X173500Y250100D01*
Y246600D01*
X171000Y248600D02*X173500D01*
X174700D02*X176700Y250600D01*
X174700Y248600D02*X177200D01*
X176700Y250600D02*Y246600D01*
X178400Y247100D02*X181400Y250100D01*
X182600D02*Y246600D01*
Y250100D02*X183100Y250600D01*
X184600D01*
X185100Y250100D01*
Y246600D01*
X182600Y248600D02*X185100D01*
X186300Y250600D02*X188300D01*
X186300D02*Y248600D01*
X186800Y249100D01*
X187800D01*
X188300Y248600D01*
Y247100D01*
X187800Y246600D02*X188300Y247100D01*
X186800Y246600D02*X187800D01*
X186300Y247100D02*X186800Y246600D01*
X171000Y242600D02*X172000D01*
X171500D02*Y238600D01*
X171000D02*X172000D01*
X173200Y242100D02*X173700Y242600D01*
X175200D01*
X175700Y242100D01*
Y241100D01*
X173200Y238600D02*X175700Y241100D01*
X173200Y238600D02*X175700D01*
X177400D02*X178900D01*
X176900Y239100D02*X177400Y238600D01*
X176900Y242100D02*Y239100D01*
Y242100D02*X177400Y242600D01*
X178900D01*
X181900Y240100D02*Y239100D01*
Y240100D02*X182400Y240600D01*
X183400D01*
X183900Y240100D01*
Y239100D01*
X183400Y238600D02*X183900Y239100D01*
X182400Y238600D02*X183400D01*
X181900Y239100D02*X182400Y238600D01*
X185600Y240100D02*Y238600D01*
Y240100D02*X186100Y240600D01*
X186600D01*
X187100Y240100D01*
Y238600D01*
X185100Y240600D02*X185600Y240100D01*
X173000Y236600D02*X173500Y236100D01*
X171500Y236600D02*X173000D01*
X171000Y236100D02*X171500Y236600D01*
X171000Y236100D02*Y235100D01*
X171500Y234600D01*
X173000D01*
X173500Y234100D01*
Y233100D01*
X173000Y232600D02*X173500Y233100D01*
X171500Y232600D02*X173000D01*
X171000Y233100D02*X171500Y232600D01*
X175200Y236600D02*Y232600D01*
X176700Y236600D02*X177200Y236100D01*
Y233100D01*
X176700Y232600D02*X177200Y233100D01*
X174700Y232600D02*X176700D01*
X174700Y236600D02*X176700D01*
X178400Y236100D02*Y232600D01*
Y236100D02*X178900Y236600D01*
X180400D01*
X180900Y236100D01*
Y232600D01*
X178400Y234600D02*X180900D01*
X182100Y233100D02*X185100Y236100D01*
X188300Y236600D02*X188800Y236100D01*
X186800Y236600D02*X188300D01*
X186300Y236100D02*X186800Y236600D01*
X186300Y236100D02*Y235100D01*
X186800Y234600D01*
X188300D01*
X188800Y234100D01*
Y233100D01*
X188300Y232600D02*X188800Y233100D01*
X186800Y232600D02*X188300D01*
X186300Y233100D02*X186800Y232600D01*
X190500D02*X192000D01*
X190000Y233100D02*X190500Y232600D01*
X190000Y236100D02*Y233100D01*
Y236100D02*X190500Y236600D01*
X192000D01*
X193200D02*Y232600D01*
X195200D01*
X156000Y263600D02*X157500D01*
Y260100D01*
X157000Y259600D02*X157500Y260100D01*
X156500Y259600D02*X157000D01*
X156000Y260100D02*X156500Y259600D01*
X159200Y263600D02*Y259600D01*
X158700Y263600D02*X160700D01*
X161200Y263100D01*
Y262100D01*
X160700Y261600D02*X161200Y262100D01*
X159200Y261600D02*X160700D01*
X162400Y263100D02*X162900Y263600D01*
X164400D01*
X164900Y263100D01*
Y262100D01*
X162400Y259600D02*X164900Y262100D01*
X162400Y259600D02*X164900D01*
X167900Y263600D02*Y260100D01*
X168400Y259600D01*
X169400D01*
X169900Y260100D01*
Y263600D02*Y260100D01*
X171600Y259600D02*X173100D01*
X173600Y260100D01*
X173100Y260600D02*X173600Y260100D01*
X171600Y260600D02*X173100D01*
X171100Y261100D02*X171600Y260600D01*
X171100Y261100D02*X171600Y261600D01*
X173100D01*
X173600Y261100D01*
X171100Y260100D02*X171600Y259600D01*
X176300Y261600D02*X176800Y261100D01*
X175300Y261600D02*X176300D01*
X174800Y261100D02*X175300Y261600D01*
X174800Y261100D02*Y260100D01*
X175300Y259600D01*
X176800Y261600D02*Y260100D01*
X177300Y259600D01*
X175300D02*X176300D01*
X176800Y260100D01*
X180000Y261600D02*X180500Y261100D01*
X179000Y261600D02*X180000D01*
X178500Y261100D02*X179000Y261600D01*
X178500Y261100D02*Y260100D01*
X179000Y259600D01*
X180000D01*
X180500Y260100D01*
X178500Y258600D02*X179000Y258100D01*
X180000D01*
X180500Y258600D01*
Y261600D02*Y258600D01*
X182200Y259600D02*X183700D01*
X181700Y260100D02*X182200Y259600D01*
X181700Y261100D02*Y260100D01*
Y261100D02*X182200Y261600D01*
X183200D01*
X183700Y261100D01*
X181700Y260600D02*X183700D01*
Y261100D02*Y260600D01*
X184900Y262100D02*X185400D01*
X184900Y261100D02*X185400D01*
X80000Y266000D02*X79500Y266500D01*
X80000Y266000D02*Y263000D01*
X79500Y262500D01*
X78500D02*X79500D01*
X78500D02*X78000Y263000D01*
Y266000D02*Y263000D01*
X78500Y266500D02*X78000Y266000D01*
X78500Y266500D02*X79500D01*
X80000Y265500D02*X78000Y263500D01*
X68500Y266500D02*X69500D01*
X69000D02*Y262500D01*
X70000Y263500D02*X69000Y262500D01*
X60500Y263000D02*X60000Y262500D01*
X58500D02*X60000D01*
X58500D02*X58000Y263000D01*
Y264000D02*Y263000D01*
X60500Y266500D02*X58000Y264000D01*
Y266500D02*X60500D01*
X50000Y263000D02*X49500Y262500D01*
X48500D02*X49500D01*
X48500D02*X48000Y263000D01*
Y266000D02*Y263000D01*
X48500Y266500D02*X48000Y266000D01*
X48500Y266500D02*X49500D01*
X50000Y266000D02*X49500Y266500D01*
X48000Y264500D02*X49500D01*
X40500D02*X38500Y262500D01*
X38000Y264500D02*X40500D01*
X38500Y266500D02*Y262500D01*
X28000D02*X30000D01*
Y264500D02*Y262500D01*
Y264500D02*X29500Y264000D01*
X28500D02*X29500D01*
X28500D02*X28000Y264500D01*
Y266000D02*Y264500D01*
X28500Y266500D02*X28000Y266000D01*
X28500Y266500D02*X29500D01*
X30000Y266000D02*X29500Y266500D01*
X18500Y262500D02*X18000Y263000D01*
X18500Y262500D02*X19500D01*
X20000Y263000D02*X19500Y262500D01*
X20000Y266000D02*Y263000D01*
Y266000D02*X19500Y266500D01*
X18500Y264500D02*X18000Y265000D01*
X18500Y264500D02*X20000D01*
X18500Y266500D02*X19500D01*
X18500D02*X18000Y266000D01*
Y265000D01*
X10000Y266500D02*X7500Y264000D01*
Y262500D01*
X10000D01*
X18000Y122000D02*X20000D01*
X18000D02*Y120000D01*
X18500Y120500D01*
X19500D01*
X20000Y120000D01*
Y118500D01*
X19500Y118000D02*X20000Y118500D01*
X18500Y118000D02*X19500D01*
X18000Y118500D02*X18500Y118000D01*
X21200Y122000D02*Y119000D01*
X22200Y118000D01*
X23200Y119000D01*
Y122000D02*Y119000D01*
X45000Y128000D02*Y126000D01*
X47000D01*
X46500Y126500D01*
Y127500D02*Y126500D01*
Y127500D02*X47000Y128000D01*
X48500D01*
X49000Y127500D02*X48500Y128000D01*
X49000Y127500D02*Y126500D01*
X48500Y126000D02*X49000Y126500D01*
X45000Y129200D02*X48000D01*
X49000Y130200D01*
X48000Y131200D01*
X45000D02*X48000D01*
X65000Y128000D02*Y126000D01*
Y128000D02*X65500Y128500D01*
X66500D01*
X67000Y128000D02*X66500Y128500D01*
X67000Y128000D02*Y126500D01*
X65000D02*X69000D01*
X67000D02*X69000Y128500D01*
X67000Y131200D02*Y129700D01*
X69000Y131700D02*Y129700D01*
X65000D02*X69000D01*
X65000Y131700D02*Y129700D01*
Y134900D02*X65500Y135400D01*
X65000Y134900D02*Y133400D01*
X65500Y132900D02*X65000Y133400D01*
X65500Y132900D02*X68500D01*
X69000Y133400D01*
Y134900D02*Y133400D01*
Y134900D02*X68500Y135400D01*
X67500D02*X68500D01*
X67000Y134900D02*X67500Y135400D01*
X67000Y134900D02*Y133900D01*
X18000Y131500D02*X18500Y132000D01*
X19500D01*
X20000Y131500D01*
Y128500D01*
X19500Y128000D02*X20000Y128500D01*
X18500Y128000D02*X19500D01*
X18000Y128500D02*X18500Y128000D01*
Y130000D02*X20000D01*
X21200Y128000D02*X21700D01*
X22900Y131500D02*X23400Y132000D01*
X24400D01*
X24900Y131500D01*
Y128500D01*
X24400Y128000D02*X24900Y128500D01*
X23400Y128000D02*X24400D01*
X22900Y128500D02*X23400Y128000D01*
Y130000D02*X24900D01*
X26100Y132000D02*Y129000D01*
X27100Y128000D01*
X28100Y129000D01*
Y132000D02*Y129000D01*
X18000Y152000D02*X19000D01*
X18500D02*Y148000D01*
X18000D02*X19000D01*
X20200Y151500D02*Y148500D01*
Y151500D02*X20700Y152000D01*
X21700D01*
X22200Y151500D01*
Y148500D01*
X21700Y148000D02*X22200Y148500D01*
X20700Y148000D02*X21700D01*
X20200Y148500D02*X20700Y148000D01*
X23400Y152000D02*X25400D01*
X25900Y151500D01*
Y150500D01*
X25400Y150000D02*X25900Y150500D01*
X23900Y150000D02*X25400D01*
X23900Y152000D02*Y148000D01*
Y150000D02*X25900Y148000D01*
X27100Y150000D02*X28600D01*
X27100Y148000D02*X29100D01*
X27100Y152000D02*Y148000D01*
Y152000D02*X29100D01*
X30300D02*Y148000D01*
Y152000D02*X32300D01*
X30300Y150000D02*X31800D01*
X18000Y142000D02*X20000D01*
X20500Y141500D01*
Y140500D01*
X20000Y140000D02*X20500Y140500D01*
X18500Y140000D02*X20000D01*
X18500Y142000D02*Y138000D01*
Y140000D02*X20500Y138000D01*
X21700Y140000D02*X23200D01*
X21700Y138000D02*X23700D01*
X21700Y142000D02*Y138000D01*
Y142000D02*X23700D01*
X26900D02*X27400Y141500D01*
X25400Y142000D02*X26900D01*
X24900Y141500D02*X25400Y142000D01*
X24900Y141500D02*Y140500D01*
X25400Y140000D01*
X26900D01*
X27400Y139500D01*
Y138500D01*
X26900Y138000D02*X27400Y138500D01*
X25400Y138000D02*X26900D01*
X24900Y138500D02*X25400Y138000D01*
X28600Y140000D02*X30100D01*
X28600Y138000D02*X30600D01*
X28600Y142000D02*Y138000D01*
Y142000D02*X30600D01*
X31800D02*X33800D01*
X32800D02*Y138000D01*
X18000Y162000D02*Y158000D01*
Y162000D02*Y161500D01*
X20500Y159000D01*
Y162000D02*Y158000D01*
X21700Y158500D02*X24700Y161500D01*
X26400Y158000D02*X27900D01*
X25900Y158500D02*X26400Y158000D01*
X25900Y161500D02*Y158500D01*
Y161500D02*X26400Y162000D01*
X27900D01*
X18000Y92000D02*Y89000D01*
X19000Y88000D01*
X20000Y89000D01*
Y92000D02*Y89000D01*
X21200Y92000D02*X22200D01*
X21700D02*Y88000D01*
X21200D02*X22200D01*
X23400Y92000D02*Y88000D01*
Y92000D02*Y91500D01*
X25900Y89000D01*
Y92000D02*Y88000D01*
X20000Y102000D02*X20500Y101500D01*
X18500Y102000D02*X20000D01*
X18000Y101500D02*X18500Y102000D01*
X18000Y101500D02*Y98500D01*
X18500Y98000D01*
X20000D01*
X20500Y98500D01*
Y99500D02*Y98500D01*
X20000Y100000D02*X20500Y99500D01*
X19000Y100000D02*X20000D01*
X21700Y102000D02*Y98000D01*
Y102000D02*Y101500D01*
X24200Y99000D01*
Y102000D02*Y98000D01*
X25900Y102000D02*Y98000D01*
X27400Y102000D02*X27900Y101500D01*
Y98500D01*
X27400Y98000D02*X27900Y98500D01*
X25400Y98000D02*X27400D01*
X25400Y102000D02*X27400D01*
X20000Y112000D02*X20500Y111500D01*
X18500Y112000D02*X20000D01*
X18000Y111500D02*X18500Y112000D01*
X18000Y111500D02*Y108500D01*
X18500Y108000D01*
X20000D01*
X20500Y108500D01*
Y109500D02*Y108500D01*
X20000Y110000D02*X20500Y109500D01*
X19000Y110000D02*X20000D01*
X21700Y112000D02*Y108000D01*
Y112000D02*Y111500D01*
X24200Y109000D01*
Y112000D02*Y108000D01*
X25900Y112000D02*Y108000D01*
X27400Y112000D02*X27900Y111500D01*
Y108500D01*
X27400Y108000D02*X27900Y108500D01*
X25400Y108000D02*X27400D01*
X25400Y112000D02*X27400D01*
X42000Y113500D02*X72000D01*
Y123500D02*Y113500D01*
X42000Y123500D02*X72000D01*
X42000D02*Y113500D01*
X52000Y123500D02*Y113500D01*
X42000Y123500D02*X52000D01*
X86220Y169843D02*Y167843D01*
Y169843D02*X87420D01*
X86220Y152157D02*Y150157D01*
X87420D01*
X113780Y152157D02*Y150157D01*
X112580D02*X113780D01*
X113264Y169327D02*X114264D01*
X113264Y170327D02*Y169327D01*
Y170327D02*X114264D01*
Y169327D01*
X167500Y167900D02*Y154000D01*
X155700Y167900D02*X167500D01*
X155700D02*Y154000D01*
X167500D01*
X146500Y181000D02*X176500D01*
Y201000D02*Y181000D01*
X146500Y201000D02*X176500D01*
X146500D02*Y181000D01*
X156500Y191000D02*Y181000D01*
X146500Y191000D02*X156500D01*
X166500Y226000D02*Y206000D01*
X176500D01*
Y226000D02*Y206000D01*
X166500Y226000D02*X176500D01*
X166500Y216000D02*X176500D01*
Y226000D02*Y216000D01*
X146500Y226000D02*Y206000D01*
X156500D01*
Y226000D02*Y206000D01*
X146500Y226000D02*X156500D01*
X146500Y216000D02*X156500D01*
Y226000D02*Y216000D01*
X172745Y161393D02*Y160607D01*
X178255Y161393D02*Y160607D01*
X134521Y218745D02*X135307D01*
X134521Y224255D02*X135307D01*
X134564Y207745D02*X135350D01*
X134564Y213255D02*X135350D01*
X162150Y117745D02*X162936D01*
X162150Y123255D02*X162936D01*
X147107D02*X147893D01*
X147107Y117745D02*X147893D01*
X120607Y126255D02*X121393D01*
X120607Y120745D02*X121393D01*
X157500Y149000D02*Y129000D01*
X167500D01*
Y149000D01*
X157500D01*
Y139000D02*X167500D01*
Y149000D01*
X142500D02*Y129000D01*
X152500D01*
Y149000D01*
X142500D01*
Y139000D02*X152500D01*
Y149000D01*
G54D64*X111900Y139800D02*Y131200D01*
G54D63*X114300Y130000D01*
X130100D01*
Y141000D01*
X114300D01*
X111900Y139800D01*
X205000Y95000D02*Y15000D01*
X195000Y95000D02*X205000D01*
X195000D02*Y15000D01*
X205000D01*
X195000Y25000D02*X205000D01*
X195000D02*Y15000D01*
X205000Y201000D02*Y101000D01*
X195000Y201000D02*X205000D01*
X195000D02*Y101000D01*
X205000D01*
X195000Y111000D02*X205000D01*
X195000D02*Y101000D01*
X135000Y103000D02*Y73000D01*
X145000D01*
Y103000D02*Y73000D01*
X135000Y103000D02*X145000D01*
X135000Y93000D02*X145000D01*
Y103000D02*Y93000D01*
X150000Y103000D02*Y73000D01*
X160000D01*
Y103000D02*Y73000D01*
X150000Y103000D02*X160000D01*
X150000Y93000D02*X160000D01*
Y103000D02*Y93000D01*
X165000Y103000D02*Y73000D01*
X175000D01*
Y103000D02*Y73000D01*
X165000Y103000D02*X175000D01*
X165000Y93000D02*X175000D01*
Y103000D02*Y93000D01*
X5000Y165000D02*Y85000D01*
X15000D01*
Y165000D01*
X5000D01*
Y155000D02*X15000D01*
Y165000D01*
X5000Y75000D02*Y15000D01*
X15000D01*
Y75000D01*
X5000D01*
Y65000D02*X15000D01*
Y75000D01*
X53607Y99245D02*X54393D01*
X53607Y104755D02*X54393D01*
X85000Y259500D02*Y234000D01*
X3000Y259500D02*Y234000D01*
X85000D01*
X3000Y236000D02*X85000D01*
X3000Y259500D02*X85000D01*
X87500Y259800D02*X127500D01*
X87500Y229800D02*X127500D01*
X87500Y234200D02*X127500D01*
Y259800D02*Y229800D01*
X87500Y259800D02*Y229800D01*
X32245Y115350D02*Y114564D01*
X37755Y115350D02*Y114564D01*
X112400Y116500D02*X129600D01*
Y104500D01*
X112400D02*X129600D01*
X112400Y116500D02*Y104500D01*
X120607Y99755D02*X121393D01*
X120607Y94245D02*X121393D01*
X37755Y95393D02*Y94607D01*
X32245Y95393D02*Y94607D01*
X60250Y88485D02*Y77855D01*
X41750Y88485D02*Y77855D01*
X57000D02*X60250D01*
X41750D02*X45000D01*
X60071Y88485D02*X60250D01*
X41750D02*X41929D01*
X44000Y36000D02*Y10500D01*
X126000Y36000D02*Y10500D01*
X44000Y36000D02*X126000D01*
X44000Y34000D02*X126000D01*
X44000Y10500D02*X126000D01*
X8000Y172000D02*X9500D01*
Y168500D01*
X9000Y168000D02*X9500Y168500D01*
X8500Y168000D02*X9000D01*
X8000Y168500D02*X8500Y168000D01*
X11200D02*X12200D01*
X11700Y172000D02*Y168000D01*
X10700Y171000D02*X11700Y172000D01*
X62807Y100150D02*X64307D01*
X62307Y100650D02*X62807Y100150D01*
X62307Y103650D02*Y100650D01*
Y103650D02*X62807Y104150D01*
X64307D01*
X67007D02*X67507Y103650D01*
X66007Y104150D02*X67007D01*
X65507Y103650D02*X66007Y104150D01*
X65507Y103650D02*Y100650D01*
X66007Y100150D01*
X67007Y102150D02*X67507Y101650D01*
X65507Y102150D02*X67007D01*
X66007Y100150D02*X67007D01*
X67507Y100650D01*
Y101650D02*Y100650D01*
X32893Y102650D02*X34393D01*
X32393Y103150D02*X32893Y102650D01*
X32393Y106150D02*Y103150D01*
Y106150D02*X32893Y106650D01*
X34393D01*
X35593D02*X37593D01*
X35593D02*Y104650D01*
X36093Y105150D01*
X37093D01*
X37593Y104650D01*
Y103150D01*
X37093Y102650D02*X37593Y103150D01*
X36093Y102650D02*X37093D01*
X35593Y103150D02*X36093Y102650D01*
X33307Y122650D02*X34807D01*
X32807Y123150D02*X33307Y122650D01*
X32807Y126150D02*Y123150D01*
Y126150D02*X33307Y126650D01*
X34807D01*
X36507Y122650D02*X37507D01*
X37007Y126650D02*Y122650D01*
X36007Y125650D02*X37007Y126650D01*
X53000Y130000D02*X54500D01*
Y126500D01*
X54000Y126000D02*X54500Y126500D01*
X53500Y126000D02*X54000D01*
X53000Y126500D02*X53500Y126000D01*
X56200Y130000D02*Y126000D01*
X55700Y130000D02*X57700D01*
X58200Y129500D01*
Y128500D01*
X57700Y128000D02*X58200Y128500D01*
X56200Y128000D02*X57700D01*
X59400Y129500D02*X59900Y130000D01*
X60900D01*
X61400Y129500D01*
Y126500D01*
X60900Y126000D02*X61400Y126500D01*
X59900Y126000D02*X60900D01*
X59400Y126500D02*X59900Y126000D01*
Y128000D02*X61400D01*
X78000Y162000D02*Y158500D01*
X78500Y158000D01*
X79500D01*
X80000Y158500D01*
Y162000D02*Y158500D01*
X81700Y158000D02*X82700D01*
X82200Y162000D02*Y158000D01*
X81200Y161000D02*X82200Y162000D01*
X38505Y75500D02*Y72000D01*
X39005Y71500D01*
X40005D01*
X40505Y72000D01*
Y75500D02*Y72000D01*
X41705Y75000D02*X42205Y75500D01*
X43205D01*
X43705Y75000D01*
Y72000D01*
X43205Y71500D02*X43705Y72000D01*
X42205Y71500D02*X43205D01*
X41705Y72000D02*X42205Y71500D01*
Y73500D02*X43705D01*
X104000Y133600D02*X105500D01*
X103500Y134100D02*X104000Y133600D01*
X103500Y137100D02*Y134100D01*
Y137100D02*X104000Y137600D01*
X105500D01*
X106700Y137100D02*X107200Y137600D01*
X108700D01*
X109200Y137100D01*
Y136100D01*
X106700Y133600D02*X109200Y136100D01*
X106700Y133600D02*X109200D01*
X108000Y121500D02*X109500D01*
X107500Y122000D02*X108000Y121500D01*
X107500Y125000D02*Y122000D01*
Y125000D02*X108000Y125500D01*
X109500D01*
X110700Y125000D02*X111200Y125500D01*
X112200D01*
X112700Y125000D01*
Y122000D01*
X112200Y121500D02*X112700Y122000D01*
X111200Y121500D02*X112200D01*
X110700Y122000D02*X111200Y121500D01*
Y123500D02*X112700D01*
X104602Y112582D02*Y109082D01*
X105102Y108582D01*
X106102D01*
X106602Y109082D01*
Y112582D02*Y109082D01*
X107802Y112082D02*X108302Y112582D01*
X109802D01*
X110302Y112082D01*
Y111082D01*
X107802Y108582D02*X110302Y111082D01*
X107802Y108582D02*X110302D01*
X108000Y95000D02*X109500D01*
X107500Y95500D02*X108000Y95000D01*
X107500Y98500D02*Y95500D01*
Y98500D02*X108000Y99000D01*
X109500D01*
X110700Y97000D02*X112700Y99000D01*
X110700Y97000D02*X113200D01*
X112700Y99000D02*Y95000D01*
X185500Y206500D02*X187000D01*
Y203000D01*
X186500Y202500D02*X187000Y203000D01*
X186000Y202500D02*X186500D01*
X185500Y203000D02*X186000Y202500D01*
X188200Y206000D02*X188700Y206500D01*
X190200D01*
X190700Y206000D01*
Y205000D01*
X188200Y202500D02*X190700Y205000D01*
X188200Y202500D02*X190700D01*
X178500Y211500D02*Y210000D01*
Y211500D02*X182000D01*
X182500Y211000D02*X182000Y211500D01*
X182500Y211000D02*Y210500D01*
X182000Y210000D02*X182500Y210500D01*
X178500Y213200D02*X182500D01*
X178500Y214700D02*Y212700D01*
Y214700D02*X179000Y215200D01*
X180000D01*
X180500Y214700D02*X180000Y215200D01*
X180500Y214700D02*Y213200D01*
X182500Y217900D02*Y216900D01*
X178500Y217400D02*X182500D01*
X179500Y216400D02*X178500Y217400D01*
X179000Y219100D02*X182500D01*
X179000D02*X178500Y219600D01*
Y221100D02*Y219600D01*
Y221100D02*X179000Y221600D01*
X182500D01*
X180500D02*Y219100D01*
X158500Y211500D02*Y210000D01*
Y211500D02*X162000D01*
X162500Y211000D02*X162000Y211500D01*
X162500Y211000D02*Y210500D01*
X162000Y210000D02*X162500Y210500D01*
X158500Y213200D02*X162500D01*
X158500Y214700D02*Y212700D01*
Y214700D02*X159000Y215200D01*
X160000D01*
X160500Y214700D02*X160000Y215200D01*
X160500Y214700D02*Y213200D01*
X162500Y217900D02*Y216900D01*
X158500Y217400D02*X162500D01*
X159500Y216400D02*X158500Y217400D01*
X162500Y221100D02*Y219100D01*
Y221100D02*X162000Y221600D01*
X161000D02*X162000D01*
X160500Y221100D02*X161000Y221600D01*
X160500Y221100D02*Y219600D01*
X158500D02*X162500D01*
X158500Y221100D02*Y219100D01*
Y221100D02*X159000Y221600D01*
X160000D01*
X160500Y221100D02*X160000Y221600D01*
X121721Y223650D02*X123721D01*
X124221Y223150D01*
Y222150D01*
X123721Y221650D02*X124221Y222150D01*
X122221Y221650D02*X123721D01*
X122221Y223650D02*Y219650D01*
Y221650D02*X124221Y219650D01*
X125921D02*X126921D01*
X126421Y223650D02*Y219650D01*
X125421Y222650D02*X126421Y223650D01*
X120721Y212650D02*X122721D01*
X123221Y212150D01*
Y211150D01*
X122721Y210650D02*X123221Y211150D01*
X121221Y210650D02*X122721D01*
X121221Y212650D02*Y208650D01*
Y210650D02*X123221Y208650D01*
X124421Y212150D02*X124921Y212650D01*
X126421D01*
X126921Y212150D01*
Y211150D01*
X124421Y208650D02*X126921Y211150D01*
X124421Y208650D02*X126921D01*
X170764Y122650D02*X172764D01*
X173264Y122150D01*
Y121150D01*
X172764Y120650D02*X173264Y121150D01*
X171264Y120650D02*X172764D01*
X171264Y122650D02*Y118650D01*
Y120650D02*X173264Y118650D01*
X174464Y122150D02*X174964Y122650D01*
X175964D01*
X176464Y122150D01*
Y119150D01*
X175964Y118650D02*X176464Y119150D01*
X174964Y118650D02*X175964D01*
X174464Y119150D02*X174964Y118650D01*
Y120650D02*X176464D01*
X133307Y122650D02*X135307D01*
X135807Y122150D01*
Y121150D01*
X135307Y120650D02*X135807Y121150D01*
X133807Y120650D02*X135307D01*
X133807Y122650D02*Y118650D01*
Y120650D02*X135807Y118650D01*
X137007Y120650D02*X139007Y122650D01*
X137007Y120650D02*X139507D01*
X139007Y122650D02*Y118650D01*
X135500Y109000D02*X137000D01*
Y105500D01*
X136500Y105000D02*X137000Y105500D01*
X136000Y105000D02*X136500D01*
X135500Y105500D02*X136000Y105000D01*
X138700Y109000D02*Y105000D01*
X138200Y109000D02*X140200D01*
X140700Y108500D01*
Y107500D01*
X140200Y107000D02*X140700Y107500D01*
X138700Y107000D02*X140200D01*
X141900D02*X143900Y109000D01*
X141900Y107000D02*X144400D01*
X143900Y109000D02*Y105000D01*
X151000Y109000D02*X152500D01*
Y105500D01*
X152000Y105000D02*X152500Y105500D01*
X151500Y105000D02*X152000D01*
X151000Y105500D02*X151500Y105000D01*
X154200Y109000D02*Y105000D01*
X153700Y109000D02*X155700D01*
X156200Y108500D01*
Y107500D01*
X155700Y107000D02*X156200Y107500D01*
X154200Y107000D02*X155700D01*
X157400Y109000D02*X159400D01*
X157400D02*Y107000D01*
X157900Y107500D01*
X158900D01*
X159400Y107000D01*
Y105500D01*
X158900Y105000D02*X159400Y105500D01*
X157900Y105000D02*X158900D01*
X157400Y105500D02*X157900Y105000D01*
X166000Y109000D02*X167500D01*
Y105500D01*
X167000Y105000D02*X167500Y105500D01*
X166500Y105000D02*X167000D01*
X166000Y105500D02*X166500Y105000D01*
X169200Y109000D02*Y105000D01*
X168700Y109000D02*X170700D01*
X171200Y108500D01*
Y107500D01*
X170700Y107000D02*X171200Y107500D01*
X169200Y107000D02*X170700D01*
X173900Y109000D02*X174400Y108500D01*
X172900Y109000D02*X173900D01*
X172400Y108500D02*X172900Y109000D01*
X172400Y108500D02*Y105500D01*
X172900Y105000D01*
X173900Y107000D02*X174400Y106500D01*
X172400Y107000D02*X173900D01*
X172900Y105000D02*X173900D01*
X174400Y105500D01*
Y106500D02*Y105500D01*
X170000Y136500D02*Y135000D01*
Y136500D02*X173500D01*
X174000Y136000D02*X173500Y136500D01*
X174000Y136000D02*Y135500D01*
X173500Y135000D02*X174000Y135500D01*
X170000Y138200D02*X174000D01*
X170000Y139700D02*Y137700D01*
Y139700D02*X170500Y140200D01*
X171500D01*
X172000Y139700D02*X171500Y140200D01*
X172000Y139700D02*Y138200D01*
X174000Y141400D02*X171500Y143900D01*
X170000D02*X171500D01*
X170000D02*Y141400D01*
X136000Y136500D02*Y135000D01*
Y136500D02*X139500D01*
X140000Y136000D02*X139500Y136500D01*
X140000Y136000D02*Y135500D01*
X139500Y135000D02*X140000Y135500D01*
X136000Y138200D02*X140000D01*
X136000Y139700D02*Y137700D01*
Y139700D02*X136500Y140200D01*
X137500D01*
X138000Y139700D02*X137500Y140200D01*
X138000Y139700D02*Y138200D01*
X139500Y141400D02*X140000Y141900D01*
X138500Y141400D02*X139500D01*
X138500D02*X138000Y141900D01*
Y142900D02*Y141900D01*
Y142900D02*X138500Y143400D01*
X139500D01*
X140000Y142900D02*X139500Y143400D01*
X140000Y142900D02*Y141900D01*
X137500Y141400D02*X138000Y141900D01*
X136500Y141400D02*X137500D01*
X136500D02*X136000Y141900D01*
Y142900D02*Y141900D01*
Y142900D02*X136500Y143400D01*
X137500D01*
X138000Y142900D02*X137500Y143400D01*
X148000Y159800D02*Y156300D01*
X148500Y155800D01*
X149500D01*
X150000Y156300D01*
Y159800D02*Y156300D01*
X151200Y157800D02*X153200Y159800D01*
X151200Y157800D02*X153700D01*
X153200Y159800D02*Y155800D01*
X157500Y178500D02*X159000D01*
Y175000D01*
X158500Y174500D02*X159000Y175000D01*
X158000Y174500D02*X158500D01*
X157500Y175000D02*X158000Y174500D01*
X160700Y178500D02*Y174500D01*
X160200Y178500D02*X162200D01*
X162700Y178000D01*
Y177000D01*
X162200Y176500D02*X162700Y177000D01*
X160700Y176500D02*X162200D01*
X163900Y178000D02*X164400Y178500D01*
X165900D01*
X166400Y178000D01*
Y177000D01*
X163900Y174500D02*X166400Y177000D01*
X163900Y174500D02*X166400D01*
X173000Y149000D02*X174500D01*
X172500Y149500D02*X173000Y149000D01*
X172500Y152500D02*Y149500D01*
Y152500D02*X173000Y153000D01*
X174500D01*
X175700Y149000D02*X178200Y151500D01*
Y153000D02*Y151500D01*
X175700Y153000D02*X178200D01*
M02*
