G04 start of page 3 for group 1 idx 1 *
G04 Title: (unknown), solder *
G04 Creator: pcb 20110918 *
G04 CreationDate: Sat 02 Feb 2013 08:58:03 PM GMT UTC *
G04 For: petersen *
G04 Format: Gerber/RS-274X *
G04 PCB-Dimensions: 210000 270000 *
G04 PCB-Coordinate-Origin: lower left *
%MOIN*%
%FSLAX25Y25*%
%LNBOTTOM*%
%ADD41C,0.0480*%
%ADD40C,0.1285*%
%ADD39C,0.0380*%
%ADD38C,0.0400*%
%ADD37C,0.0800*%
%ADD36C,0.1500*%
%ADD35C,0.0600*%
%ADD34C,0.0200*%
%ADD33C,0.0100*%
%ADD32C,0.0001*%
G54D32*G36*
X13613Y115000D02*X22500D01*
Y95000D01*
X13613D01*
Y97853D01*
X13656Y97860D01*
X13768Y97897D01*
X13873Y97952D01*
X13968Y98022D01*
X14051Y98106D01*
X14119Y98202D01*
X14170Y98308D01*
X14318Y98716D01*
X14422Y99137D01*
X14484Y99567D01*
X14505Y100000D01*
X14484Y100433D01*
X14422Y100863D01*
X14318Y101284D01*
X14175Y101694D01*
X14122Y101800D01*
X14053Y101896D01*
X13970Y101981D01*
X13875Y102051D01*
X13769Y102106D01*
X13657Y102143D01*
X13613Y102151D01*
Y107853D01*
X13656Y107860D01*
X13768Y107897D01*
X13873Y107952D01*
X13968Y108022D01*
X14051Y108106D01*
X14119Y108202D01*
X14170Y108308D01*
X14318Y108716D01*
X14422Y109137D01*
X14484Y109567D01*
X14505Y110000D01*
X14484Y110433D01*
X14422Y110863D01*
X14318Y111284D01*
X14175Y111694D01*
X14122Y111800D01*
X14053Y111896D01*
X13970Y111981D01*
X13875Y112051D01*
X13769Y112106D01*
X13657Y112143D01*
X13613Y112151D01*
Y115000D01*
G37*
G36*
X10002D02*X13613D01*
Y112151D01*
X13540Y112163D01*
X13421Y112164D01*
X13304Y112146D01*
X13191Y112110D01*
X13085Y112057D01*
X12988Y111988D01*
X12904Y111905D01*
X12833Y111809D01*
X12779Y111704D01*
X12741Y111592D01*
X12722Y111475D01*
X12721Y111356D01*
X12739Y111239D01*
X12777Y111126D01*
X12876Y110855D01*
X12944Y110575D01*
X12986Y110289D01*
X13000Y110000D01*
X12986Y109711D01*
X12944Y109425D01*
X12876Y109145D01*
X12780Y108872D01*
X12742Y108761D01*
X12725Y108644D01*
X12725Y108526D01*
X12745Y108409D01*
X12782Y108297D01*
X12836Y108193D01*
X12906Y108098D01*
X12991Y108015D01*
X13087Y107946D01*
X13192Y107893D01*
X13305Y107857D01*
X13421Y107840D01*
X13539Y107841D01*
X13613Y107853D01*
Y102151D01*
X13540Y102163D01*
X13421Y102164D01*
X13304Y102146D01*
X13191Y102110D01*
X13085Y102057D01*
X12988Y101988D01*
X12904Y101905D01*
X12833Y101809D01*
X12779Y101704D01*
X12741Y101592D01*
X12722Y101475D01*
X12721Y101356D01*
X12739Y101239D01*
X12777Y101126D01*
X12876Y100855D01*
X12944Y100575D01*
X12986Y100289D01*
X13000Y100000D01*
X12986Y99711D01*
X12944Y99425D01*
X12876Y99145D01*
X12780Y98872D01*
X12742Y98761D01*
X12725Y98644D01*
X12725Y98526D01*
X12745Y98409D01*
X12782Y98297D01*
X12836Y98193D01*
X12906Y98098D01*
X12991Y98015D01*
X13087Y97946D01*
X13192Y97893D01*
X13305Y97857D01*
X13421Y97840D01*
X13539Y97841D01*
X13613Y97853D01*
Y95000D01*
X10002D01*
Y95495D01*
X10433Y95516D01*
X10863Y95578D01*
X11284Y95682D01*
X11694Y95825D01*
X11800Y95878D01*
X11896Y95947D01*
X11981Y96030D01*
X12051Y96125D01*
X12106Y96231D01*
X12143Y96343D01*
X12163Y96460D01*
X12164Y96579D01*
X12146Y96696D01*
X12110Y96809D01*
X12057Y96915D01*
X11988Y97012D01*
X11905Y97096D01*
X11809Y97167D01*
X11704Y97221D01*
X11592Y97259D01*
X11475Y97278D01*
X11356Y97279D01*
X11239Y97261D01*
X11126Y97223D01*
X10855Y97124D01*
X10575Y97056D01*
X10289Y97014D01*
X10002Y97000D01*
Y103000D01*
X10289Y102986D01*
X10575Y102944D01*
X10855Y102876D01*
X11128Y102780D01*
X11239Y102742D01*
X11356Y102725D01*
X11474Y102725D01*
X11591Y102745D01*
X11703Y102782D01*
X11807Y102836D01*
X11902Y102906D01*
X11985Y102991D01*
X12054Y103087D01*
X12107Y103192D01*
X12143Y103305D01*
X12160Y103421D01*
X12159Y103539D01*
X12140Y103656D01*
X12103Y103768D01*
X12048Y103873D01*
X11978Y103968D01*
X11894Y104051D01*
X11798Y104119D01*
X11692Y104170D01*
X11284Y104318D01*
X10863Y104422D01*
X10433Y104484D01*
X10002Y104505D01*
Y105495D01*
X10433Y105516D01*
X10863Y105578D01*
X11284Y105682D01*
X11694Y105825D01*
X11800Y105878D01*
X11896Y105947D01*
X11981Y106030D01*
X12051Y106125D01*
X12106Y106231D01*
X12143Y106343D01*
X12163Y106460D01*
X12164Y106579D01*
X12146Y106696D01*
X12110Y106809D01*
X12057Y106915D01*
X11988Y107012D01*
X11905Y107096D01*
X11809Y107167D01*
X11704Y107221D01*
X11592Y107259D01*
X11475Y107278D01*
X11356Y107279D01*
X11239Y107261D01*
X11126Y107223D01*
X10855Y107124D01*
X10575Y107056D01*
X10289Y107014D01*
X10002Y107000D01*
Y113000D01*
X10289Y112986D01*
X10575Y112944D01*
X10855Y112876D01*
X11128Y112780D01*
X11239Y112742D01*
X11356Y112725D01*
X11474Y112725D01*
X11591Y112745D01*
X11703Y112782D01*
X11807Y112836D01*
X11902Y112906D01*
X11985Y112991D01*
X12054Y113087D01*
X12107Y113192D01*
X12143Y113305D01*
X12160Y113421D01*
X12159Y113539D01*
X12140Y113656D01*
X12103Y113768D01*
X12048Y113873D01*
X11978Y113968D01*
X11894Y114051D01*
X11798Y114119D01*
X11692Y114170D01*
X11284Y114318D01*
X10863Y114422D01*
X10433Y114484D01*
X10002Y114505D01*
Y115000D01*
G37*
G36*
X6387D02*X10002D01*
Y114505D01*
X10000Y114505D01*
X9567Y114484D01*
X9137Y114422D01*
X8716Y114318D01*
X8306Y114175D01*
X8200Y114122D01*
X8104Y114053D01*
X8019Y113970D01*
X7949Y113875D01*
X7894Y113769D01*
X7857Y113657D01*
X7837Y113540D01*
X7836Y113421D01*
X7854Y113304D01*
X7890Y113191D01*
X7943Y113085D01*
X8012Y112988D01*
X8095Y112904D01*
X8191Y112833D01*
X8296Y112779D01*
X8408Y112741D01*
X8525Y112722D01*
X8644Y112721D01*
X8761Y112739D01*
X8874Y112777D01*
X9145Y112876D01*
X9425Y112944D01*
X9711Y112986D01*
X10000Y113000D01*
X10002Y113000D01*
Y107000D01*
X10000Y107000D01*
X9711Y107014D01*
X9425Y107056D01*
X9145Y107124D01*
X8872Y107220D01*
X8761Y107258D01*
X8644Y107275D01*
X8526Y107275D01*
X8409Y107255D01*
X8297Y107218D01*
X8193Y107164D01*
X8098Y107094D01*
X8015Y107009D01*
X7946Y106913D01*
X7893Y106808D01*
X7857Y106695D01*
X7840Y106579D01*
X7841Y106461D01*
X7860Y106344D01*
X7897Y106232D01*
X7952Y106127D01*
X8022Y106032D01*
X8106Y105949D01*
X8202Y105881D01*
X8308Y105830D01*
X8716Y105682D01*
X9137Y105578D01*
X9567Y105516D01*
X10000Y105495D01*
X10002Y105495D01*
Y104505D01*
X10000Y104505D01*
X9567Y104484D01*
X9137Y104422D01*
X8716Y104318D01*
X8306Y104175D01*
X8200Y104122D01*
X8104Y104053D01*
X8019Y103970D01*
X7949Y103875D01*
X7894Y103769D01*
X7857Y103657D01*
X7837Y103540D01*
X7836Y103421D01*
X7854Y103304D01*
X7890Y103191D01*
X7943Y103085D01*
X8012Y102988D01*
X8095Y102904D01*
X8191Y102833D01*
X8296Y102779D01*
X8408Y102741D01*
X8525Y102722D01*
X8644Y102721D01*
X8761Y102739D01*
X8874Y102777D01*
X9145Y102876D01*
X9425Y102944D01*
X9711Y102986D01*
X10000Y103000D01*
X10002Y103000D01*
Y97000D01*
X10000Y97000D01*
X9711Y97014D01*
X9425Y97056D01*
X9145Y97124D01*
X8872Y97220D01*
X8761Y97258D01*
X8644Y97275D01*
X8526Y97275D01*
X8409Y97255D01*
X8297Y97218D01*
X8193Y97164D01*
X8098Y97094D01*
X8015Y97009D01*
X7946Y96913D01*
X7893Y96808D01*
X7857Y96695D01*
X7840Y96579D01*
X7841Y96461D01*
X7860Y96344D01*
X7897Y96232D01*
X7952Y96127D01*
X8022Y96032D01*
X8106Y95949D01*
X8202Y95881D01*
X8308Y95830D01*
X8716Y95682D01*
X9137Y95578D01*
X9567Y95516D01*
X10000Y95495D01*
X10002Y95495D01*
Y95000D01*
X6387D01*
Y97849D01*
X6460Y97837D01*
X6579Y97836D01*
X6696Y97854D01*
X6809Y97890D01*
X6915Y97943D01*
X7012Y98012D01*
X7096Y98095D01*
X7167Y98191D01*
X7221Y98296D01*
X7259Y98408D01*
X7278Y98525D01*
X7279Y98644D01*
X7261Y98761D01*
X7223Y98874D01*
X7124Y99145D01*
X7056Y99425D01*
X7014Y99711D01*
X7000Y100000D01*
X7014Y100289D01*
X7056Y100575D01*
X7124Y100855D01*
X7220Y101128D01*
X7258Y101239D01*
X7275Y101356D01*
X7275Y101474D01*
X7255Y101591D01*
X7218Y101703D01*
X7164Y101807D01*
X7094Y101902D01*
X7009Y101985D01*
X6913Y102054D01*
X6808Y102107D01*
X6695Y102143D01*
X6579Y102160D01*
X6461Y102159D01*
X6387Y102147D01*
Y107849D01*
X6460Y107837D01*
X6579Y107836D01*
X6696Y107854D01*
X6809Y107890D01*
X6915Y107943D01*
X7012Y108012D01*
X7096Y108095D01*
X7167Y108191D01*
X7221Y108296D01*
X7259Y108408D01*
X7278Y108525D01*
X7279Y108644D01*
X7261Y108761D01*
X7223Y108874D01*
X7124Y109145D01*
X7056Y109425D01*
X7014Y109711D01*
X7000Y110000D01*
X7014Y110289D01*
X7056Y110575D01*
X7124Y110855D01*
X7220Y111128D01*
X7258Y111239D01*
X7275Y111356D01*
X7275Y111474D01*
X7255Y111591D01*
X7218Y111703D01*
X7164Y111807D01*
X7094Y111902D01*
X7009Y111985D01*
X6913Y112054D01*
X6808Y112107D01*
X6695Y112143D01*
X6579Y112160D01*
X6461Y112159D01*
X6387Y112147D01*
Y115000D01*
G37*
G36*
X4500D02*X6387D01*
Y112147D01*
X6344Y112140D01*
X6232Y112103D01*
X6127Y112048D01*
X6032Y111978D01*
X5949Y111894D01*
X5881Y111798D01*
X5830Y111692D01*
X5682Y111284D01*
X5578Y110863D01*
X5516Y110433D01*
X5495Y110000D01*
X5516Y109567D01*
X5578Y109137D01*
X5682Y108716D01*
X5825Y108306D01*
X5878Y108200D01*
X5947Y108104D01*
X6030Y108019D01*
X6125Y107949D01*
X6231Y107894D01*
X6343Y107857D01*
X6387Y107849D01*
Y102147D01*
X6344Y102140D01*
X6232Y102103D01*
X6127Y102048D01*
X6032Y101978D01*
X5949Y101894D01*
X5881Y101798D01*
X5830Y101692D01*
X5682Y101284D01*
X5578Y100863D01*
X5516Y100433D01*
X5495Y100000D01*
X5516Y99567D01*
X5578Y99137D01*
X5682Y98716D01*
X5825Y98306D01*
X5878Y98200D01*
X5947Y98104D01*
X6030Y98019D01*
X6125Y97949D01*
X6231Y97894D01*
X6343Y97857D01*
X6387Y97849D01*
Y95000D01*
X4500D01*
Y115000D01*
G37*
G36*
X102500Y147000D02*Y143618D01*
X102491Y143500D01*
X102500Y143382D01*
Y113000D01*
X101000D01*
Y117500D01*
X100986Y117735D01*
X100931Y117965D01*
X100841Y118183D01*
X100717Y118384D01*
X100564Y118564D01*
X100384Y118717D01*
X100183Y118841D01*
X99965Y118931D01*
X99735Y118986D01*
X99500Y119005D01*
X99265Y118986D01*
X99035Y118931D01*
X98817Y118841D01*
X98616Y118717D01*
X98436Y118564D01*
X98283Y118384D01*
X98159Y118183D01*
X98069Y117965D01*
X98014Y117735D01*
X98000Y117500D01*
Y113000D01*
X66993D01*
Y113987D01*
X67000Y113986D01*
X67706Y114042D01*
X68395Y114207D01*
X69049Y114478D01*
X69653Y114848D01*
X70192Y115308D01*
X70652Y115847D01*
X71022Y116451D01*
X71293Y117105D01*
X71458Y117794D01*
X71500Y118500D01*
X71458Y119206D01*
X71293Y119895D01*
X71022Y120549D01*
X70652Y121153D01*
X70192Y121692D01*
X69653Y122152D01*
X69049Y122522D01*
X68395Y122793D01*
X67706Y122958D01*
X67000Y123014D01*
X66993Y123013D01*
Y147000D01*
X102500D01*
G37*
G36*
X66993Y113000D02*X60613D01*
Y116353D01*
X60656Y116360D01*
X60768Y116397D01*
X60873Y116452D01*
X60968Y116522D01*
X61051Y116606D01*
X61119Y116702D01*
X61170Y116808D01*
X61318Y117216D01*
X61422Y117637D01*
X61484Y118067D01*
X61505Y118500D01*
X61484Y118933D01*
X61422Y119363D01*
X61318Y119784D01*
X61175Y120194D01*
X61122Y120300D01*
X61053Y120396D01*
X60970Y120481D01*
X60875Y120551D01*
X60769Y120606D01*
X60657Y120643D01*
X60613Y120651D01*
Y147000D01*
X66993D01*
Y123013D01*
X66294Y122958D01*
X65605Y122793D01*
X64951Y122522D01*
X64347Y122152D01*
X63808Y121692D01*
X63348Y121153D01*
X62978Y120549D01*
X62707Y119895D01*
X62542Y119206D01*
X62486Y118500D01*
X62542Y117794D01*
X62707Y117105D01*
X62978Y116451D01*
X63348Y115847D01*
X63808Y115308D01*
X64347Y114848D01*
X64951Y114478D01*
X65605Y114207D01*
X66294Y114042D01*
X66993Y113987D01*
Y113000D01*
G37*
G36*
X60613D02*X57002D01*
Y113995D01*
X57433Y114016D01*
X57863Y114078D01*
X58284Y114182D01*
X58694Y114325D01*
X58800Y114378D01*
X58896Y114447D01*
X58981Y114530D01*
X59051Y114625D01*
X59106Y114731D01*
X59143Y114843D01*
X59163Y114960D01*
X59164Y115079D01*
X59146Y115196D01*
X59110Y115309D01*
X59057Y115415D01*
X58988Y115512D01*
X58905Y115596D01*
X58809Y115667D01*
X58704Y115721D01*
X58592Y115759D01*
X58475Y115778D01*
X58356Y115779D01*
X58239Y115761D01*
X58126Y115723D01*
X57855Y115624D01*
X57575Y115556D01*
X57289Y115514D01*
X57002Y115500D01*
Y121500D01*
X57289Y121486D01*
X57575Y121444D01*
X57855Y121376D01*
X58128Y121280D01*
X58239Y121242D01*
X58356Y121225D01*
X58474Y121225D01*
X58591Y121245D01*
X58703Y121282D01*
X58807Y121336D01*
X58902Y121406D01*
X58985Y121491D01*
X59054Y121587D01*
X59107Y121692D01*
X59143Y121805D01*
X59160Y121921D01*
X59159Y122039D01*
X59140Y122156D01*
X59103Y122268D01*
X59048Y122373D01*
X58978Y122468D01*
X58894Y122551D01*
X58798Y122619D01*
X58692Y122670D01*
X58284Y122818D01*
X57863Y122922D01*
X57433Y122984D01*
X57002Y123005D01*
Y147000D01*
X60613D01*
Y120651D01*
X60540Y120663D01*
X60421Y120664D01*
X60304Y120646D01*
X60191Y120610D01*
X60085Y120557D01*
X59988Y120488D01*
X59904Y120405D01*
X59833Y120309D01*
X59779Y120204D01*
X59741Y120092D01*
X59722Y119975D01*
X59721Y119856D01*
X59739Y119739D01*
X59777Y119626D01*
X59876Y119355D01*
X59944Y119075D01*
X59986Y118789D01*
X60000Y118500D01*
X59986Y118211D01*
X59944Y117925D01*
X59876Y117645D01*
X59780Y117372D01*
X59742Y117261D01*
X59725Y117144D01*
X59725Y117026D01*
X59745Y116909D01*
X59782Y116797D01*
X59836Y116693D01*
X59906Y116598D01*
X59991Y116515D01*
X60087Y116446D01*
X60192Y116393D01*
X60305Y116357D01*
X60421Y116340D01*
X60539Y116341D01*
X60613Y116353D01*
Y113000D01*
G37*
G36*
X57002D02*X53387D01*
Y116349D01*
X53460Y116337D01*
X53579Y116336D01*
X53696Y116354D01*
X53809Y116390D01*
X53915Y116443D01*
X54012Y116512D01*
X54096Y116595D01*
X54167Y116691D01*
X54221Y116796D01*
X54259Y116908D01*
X54278Y117025D01*
X54279Y117144D01*
X54261Y117261D01*
X54223Y117374D01*
X54124Y117645D01*
X54056Y117925D01*
X54014Y118211D01*
X54000Y118500D01*
X54014Y118789D01*
X54056Y119075D01*
X54124Y119355D01*
X54220Y119628D01*
X54258Y119739D01*
X54275Y119856D01*
X54275Y119974D01*
X54255Y120091D01*
X54218Y120203D01*
X54164Y120307D01*
X54094Y120402D01*
X54009Y120485D01*
X53913Y120554D01*
X53808Y120607D01*
X53695Y120643D01*
X53579Y120660D01*
X53461Y120659D01*
X53387Y120647D01*
Y147000D01*
X57002D01*
Y123005D01*
X57000Y123005D01*
X56567Y122984D01*
X56137Y122922D01*
X55716Y122818D01*
X55306Y122675D01*
X55200Y122622D01*
X55104Y122553D01*
X55019Y122470D01*
X54949Y122375D01*
X54894Y122269D01*
X54857Y122157D01*
X54837Y122040D01*
X54836Y121921D01*
X54854Y121804D01*
X54890Y121691D01*
X54943Y121585D01*
X55012Y121488D01*
X55095Y121404D01*
X55191Y121333D01*
X55296Y121279D01*
X55408Y121241D01*
X55525Y121222D01*
X55644Y121221D01*
X55761Y121239D01*
X55874Y121277D01*
X56145Y121376D01*
X56425Y121444D01*
X56711Y121486D01*
X57000Y121500D01*
X57002Y121500D01*
Y115500D01*
X57000Y115500D01*
X56711Y115514D01*
X56425Y115556D01*
X56145Y115624D01*
X55872Y115720D01*
X55761Y115758D01*
X55644Y115775D01*
X55526Y115775D01*
X55409Y115755D01*
X55297Y115718D01*
X55193Y115664D01*
X55098Y115594D01*
X55015Y115509D01*
X54946Y115413D01*
X54893Y115308D01*
X54857Y115195D01*
X54840Y115079D01*
X54841Y114961D01*
X54860Y114844D01*
X54897Y114732D01*
X54952Y114627D01*
X55022Y114532D01*
X55106Y114449D01*
X55202Y114381D01*
X55308Y114330D01*
X55716Y114182D01*
X56137Y114078D01*
X56567Y114016D01*
X57000Y113995D01*
X57002Y113995D01*
Y113000D01*
G37*
G36*
X53387D02*X51500D01*
Y147000D01*
X53387D01*
Y120647D01*
X53344Y120640D01*
X53232Y120603D01*
X53127Y120548D01*
X53032Y120478D01*
X52949Y120394D01*
X52881Y120298D01*
X52830Y120192D01*
X52682Y119784D01*
X52578Y119363D01*
X52516Y118933D01*
X52495Y118500D01*
X52516Y118067D01*
X52578Y117637D01*
X52682Y117216D01*
X52825Y116806D01*
X52878Y116700D01*
X52947Y116604D01*
X53030Y116519D01*
X53125Y116449D01*
X53231Y116394D01*
X53343Y116357D01*
X53387Y116349D01*
Y113000D01*
G37*
G36*
X134500Y103000D02*X133505D01*
X133486Y103235D01*
X133431Y103465D01*
X133341Y103683D01*
X133217Y103884D01*
X133064Y104064D01*
X132884Y104217D01*
X132683Y104341D01*
X132465Y104431D01*
X132235Y104486D01*
X132000Y104500D01*
X114121D01*
X112000Y106621D01*
Y140901D01*
X112269Y141065D01*
X112628Y141372D01*
X112935Y141731D01*
X113181Y142134D01*
X113362Y142570D01*
X113472Y143029D01*
X113500Y143500D01*
X113472Y143971D01*
X113362Y144430D01*
X113181Y144866D01*
X112935Y145269D01*
X112628Y145628D01*
X112269Y145935D01*
X111866Y146181D01*
X111430Y146362D01*
X110971Y146472D01*
X110500Y146509D01*
X110029Y146472D01*
X109570Y146362D01*
X109134Y146181D01*
X108731Y145935D01*
X108372Y145628D01*
X108065Y145269D01*
X108000Y145162D01*
X107935Y145269D01*
X107628Y145628D01*
X107269Y145935D01*
X107000Y146099D01*
Y174401D01*
X107269Y174565D01*
X107628Y174872D01*
X107935Y175231D01*
X108181Y175634D01*
X108362Y176070D01*
X108472Y176529D01*
X108500Y177000D01*
X108472Y177471D01*
X108465Y177500D01*
X134500D01*
Y103000D01*
G37*
G36*
Y148500D02*X107000D01*
Y174401D01*
X107269Y174565D01*
X107628Y174872D01*
X107935Y175231D01*
X108181Y175634D01*
X108362Y176070D01*
X108472Y176529D01*
X108500Y177000D01*
X108472Y177471D01*
X108362Y177930D01*
X108181Y178366D01*
X107935Y178769D01*
X107628Y179128D01*
X107269Y179435D01*
X106866Y179681D01*
X106430Y179862D01*
X105971Y179972D01*
X105500Y180009D01*
X105029Y179972D01*
X104570Y179862D01*
X104134Y179681D01*
X103731Y179435D01*
X103372Y179128D01*
X103065Y178769D01*
X102819Y178366D01*
X102638Y177930D01*
X102528Y177471D01*
X102491Y177000D01*
X102528Y176529D01*
X102638Y176070D01*
X102819Y175634D01*
X103065Y175231D01*
X103372Y174872D01*
X103731Y174565D01*
X104000Y174401D01*
Y148500D01*
X15000D01*
Y208095D01*
X15012Y208102D01*
X16029Y208971D01*
X16898Y209988D01*
X17597Y211129D01*
X18109Y212365D01*
X18421Y213666D01*
X18500Y215000D01*
X18421Y216334D01*
X18109Y217635D01*
X17597Y218871D01*
X16898Y220012D01*
X16029Y221029D01*
X15012Y221898D01*
X15000Y221905D01*
Y236000D01*
X134500D01*
Y148500D01*
G37*
G36*
X15000Y159000D02*X50000D01*
Y123000D01*
X43765Y122986D01*
X43535Y122931D01*
X43317Y122841D01*
X43116Y122717D01*
X42936Y122564D01*
X42783Y122384D01*
X42659Y122183D01*
X42569Y121965D01*
X42514Y121735D01*
X42500Y121500D01*
X42514Y115265D01*
X42569Y115035D01*
X42659Y114817D01*
X42783Y114616D01*
X42936Y114436D01*
X43116Y114283D01*
X43317Y114159D01*
X43535Y114069D01*
X43765Y114014D01*
X44000Y114000D01*
X50000Y114013D01*
Y95000D01*
X15000D01*
Y159000D01*
G37*
G36*
Y111500D02*X98000D01*
Y103559D01*
X97995Y103500D01*
X98014Y103265D01*
X98069Y103035D01*
X98159Y102817D01*
X98283Y102616D01*
X98436Y102436D01*
X98481Y102398D01*
X103898Y96981D01*
X103936Y96936D01*
X104116Y96783D01*
X104317Y96659D01*
X104535Y96569D01*
X104765Y96514D01*
X105000Y96495D01*
X105059Y96500D01*
X134500D01*
Y34000D01*
X15000D01*
Y111500D01*
G37*
G54D33*X192000Y25000D02*Y198000D01*
X190000Y26000D02*Y174000D01*
X136000Y20000D02*X187000D01*
X192000Y25000D01*
X135000Y22000D02*X186000D01*
X190000Y26000D01*
X157500Y172000D02*X144000D01*
X153000Y165000D02*X144000D01*
G54D34*X140000Y98000D02*X170000D01*
G54D33*X155000D02*Y113500D01*
X136000Y20000D02*X130000Y14000D01*
Y6500D01*
X128000Y7500D02*Y15000D01*
X135000Y22000D01*
X10000Y20000D02*X34000D01*
X40000Y14000D01*
Y6500D01*
X10000Y30000D02*X27000D01*
X42000Y15000D01*
Y7500D01*
X40000Y6500D02*X42500Y4000D01*
X127500D01*
X43500Y6000D02*X126500D01*
X130000Y6500D02*X127500Y4000D01*
X126500Y6000D02*X128000Y7500D01*
X42000D02*X43500Y6000D01*
X192000Y198000D02*X187000Y203000D01*
X190000Y174000D02*X185000Y179000D01*
X187000Y203000D02*X158500D01*
X185000Y179000D02*X158500D01*
Y203000D02*X151500Y196000D01*
X158500Y179000D02*X151500Y186000D01*
X153000Y165000D02*X169500D01*
X110500Y143500D02*Y106000D01*
X113500Y103000D01*
X132000D01*
X107000Y105500D02*Y138000D01*
X99500Y103500D02*Y117500D01*
G54D34*X178000Y134000D02*X129000D01*
G54D33*X107000Y138000D02*X105500Y139500D01*
Y177000D01*
G54D34*X97500Y247000D02*Y232500D01*
G54D33*X140000Y98000D02*X105000D01*
X99500Y103500D01*
G54D35*X10000Y130000D03*
Y120000D03*
Y110000D03*
Y100000D03*
G54D32*G36*
X7000Y163000D02*Y157000D01*
X13000D01*
Y163000D01*
X7000D01*
G37*
G54D35*X10000Y150000D03*
Y140000D03*
G54D36*Y215000D03*
G54D32*G36*
X44000Y121500D02*Y115500D01*
X50000D01*
Y121500D01*
X44000D01*
G37*
G54D35*X57000Y118500D03*
X67000D03*
G54D32*G36*
X75000Y251000D02*Y243000D01*
X83000D01*
Y251000D01*
X75000D01*
G37*
G36*
X113500D02*Y243000D01*
X121500D01*
Y251000D01*
X113500D01*
G37*
G54D37*X97500Y247000D03*
X69000D03*
X59000D03*
X49000D03*
X39000D03*
X29000D03*
X19000D03*
X9000D03*
G54D35*X200000Y126000D03*
Y136000D03*
Y146000D03*
Y156000D03*
Y166000D03*
Y176000D03*
G54D32*G36*
X159500Y147000D02*Y141000D01*
X165500D01*
Y147000D01*
X159500D01*
G37*
G54D35*X162500Y134000D03*
G54D32*G36*
X144500Y147000D02*Y141000D01*
X150500D01*
Y147000D01*
X144500D01*
G37*
G54D35*X147500Y134000D03*
X200000Y186000D03*
Y196000D03*
G54D36*Y210000D03*
G54D32*G36*
X148500Y189000D02*Y183000D01*
X154500D01*
Y189000D01*
X148500D01*
G37*
G54D35*X161500Y186000D03*
X171500D03*
X151500Y196000D03*
X161500D03*
X171500D03*
G54D32*G36*
X168500Y224000D02*Y218000D01*
X174500D01*
Y224000D01*
X168500D01*
G37*
G54D35*X171500Y211000D03*
G54D32*G36*
X148500Y224000D02*Y218000D01*
X154500D01*
Y224000D01*
X148500D01*
G37*
G54D35*X151500Y211000D03*
G54D32*G36*
X197000Y23000D02*Y17000D01*
X203000D01*
Y23000D01*
X197000D01*
G37*
G54D35*X200000Y30000D03*
Y40000D03*
Y50000D03*
G54D36*X140000Y10000D03*
G54D35*X200000Y80000D03*
Y90000D03*
Y106000D03*
Y116000D03*
X10000Y90000D03*
Y70000D03*
Y60000D03*
Y50000D03*
Y40000D03*
Y30000D03*
Y20000D03*
G54D36*X30000Y10000D03*
G54D32*G36*
X46000Y27000D02*Y19000D01*
X54000D01*
Y27000D01*
X46000D01*
G37*
G54D37*X60000Y23000D03*
X70000D03*
X80000D03*
X90000D03*
X100000D03*
X110000D03*
X120000D03*
G54D35*X200000Y60000D03*
Y70000D03*
G54D32*G36*
X137000Y101000D02*Y95000D01*
X143000D01*
Y101000D01*
X137000D01*
G37*
G54D35*X140000Y88000D03*
Y78000D03*
G54D32*G36*
X152000Y101000D02*Y95000D01*
X158000D01*
Y101000D01*
X152000D01*
G37*
G54D35*X155000Y88000D03*
Y78000D03*
G54D32*G36*
X167000Y101000D02*Y95000D01*
X173000D01*
Y101000D01*
X167000D01*
G37*
G54D35*X170000Y88000D03*
Y78000D03*
G54D38*X169500Y165000D03*
X153000D03*
X178000Y134000D03*
X132000Y146000D03*
Y151000D03*
Y156000D03*
X157500Y172000D03*
X144000D03*
Y165000D03*
X155000Y113500D03*
X132000Y103000D03*
Y111000D03*
Y116000D03*
Y126000D03*
X107000Y105500D03*
X132000Y121000D03*
Y131000D03*
Y136000D03*
Y141000D03*
X105500Y143500D03*
X110500D03*
X99500Y142500D03*
Y137500D03*
Y132500D03*
Y127500D03*
Y122500D03*
Y117500D03*
X105500Y177000D03*
X42000Y111000D03*
Y105000D03*
Y99000D03*
X18000Y105000D03*
X23500D03*
X29000D03*
G54D34*G54D39*G54D40*G54D39*G54D41*G54D39*G54D40*G54D39*G54D40*G54D39*G54D40*G54D41*G54D39*M02*
