G04 start of page 9 for group -4015 idx -4015 *
G04 Title: (unknown), toppaste *
G04 Creator: pcb 20110918 *
G04 CreationDate: Sat 02 Feb 2013 08:58:03 PM GMT UTC *
G04 For: petersen *
G04 Format: Gerber/RS-274X *
G04 PCB-Dimensions: 210000 270000 *
G04 PCB-Coordinate-Origin: lower left *
%MOIN*%
%FSLAX25Y25*%
%LNTOPPASTE*%
%ADD73R,0.0244X0.0244*%
%ADD72R,0.0490X0.0490*%
%ADD71R,0.1240X0.1240*%
%ADD70R,0.0098X0.0098*%
%ADD69C,0.0001*%
%ADD68R,0.0945X0.0945*%
%ADD67R,0.0378X0.0378*%
%ADD66R,0.0512X0.0512*%
%ADD65R,0.0240X0.0240*%
G54D65*X165500Y165800D02*Y164200D01*
X161600Y165800D02*Y164200D01*
X157700Y165800D02*Y164200D01*
Y157600D02*Y156000D01*
X161600Y157600D02*Y156000D01*
X165500Y157600D02*Y156000D01*
G54D66*X57543Y102393D02*Y101607D01*
X50457Y102393D02*Y101607D01*
X34607Y98543D02*X35393D01*
X34607Y91457D02*X35393D01*
G54D67*X56906Y91989D02*Y87895D01*
X51000Y91989D02*Y80179D01*
G54D68*Y78445D02*Y76555D01*
G54D69*G36*
X52885Y86010D02*X55725Y83170D01*
X54305Y81750D01*
X51465Y84590D01*
X52885Y86010D01*
G37*
G36*
X46275Y83170D02*X49115Y86010D01*
X50535Y84590D01*
X47695Y81750D01*
X46275Y83170D01*
G37*
G54D67*X45094Y91989D02*Y87895D01*
G54D70*X110827Y170335D02*Y168563D01*
X108858Y170335D02*Y168563D01*
X106890Y170335D02*Y168563D01*
X104921Y170335D02*Y168563D01*
X102953Y170335D02*Y168563D01*
X100984Y170335D02*Y168563D01*
X99016Y170335D02*Y168563D01*
X97047Y170335D02*Y168563D01*
X95079Y170335D02*Y168563D01*
X93110Y170335D02*Y168563D01*
X91142Y170335D02*Y168563D01*
X89173Y170335D02*Y168563D01*
X85728Y165906D02*X87500D01*
X85728Y163937D02*X87500D01*
X85728Y161969D02*X87500D01*
X85728Y160000D02*X87500D01*
X85728Y158031D02*X87500D01*
X85728Y156063D02*X87500D01*
X85728Y154094D02*X87500D01*
X89173Y151437D02*Y149665D01*
X91142Y151437D02*Y149665D01*
X93110Y151437D02*Y149665D01*
X95079Y151437D02*Y149665D01*
X97047Y151437D02*Y149665D01*
X99016Y151437D02*Y149665D01*
X100984Y151437D02*Y149665D01*
X102953Y151437D02*Y149665D01*
X104921Y151437D02*Y149665D01*
X106890Y151437D02*Y149665D01*
X108858Y151437D02*Y149665D01*
X110827Y151437D02*Y149665D01*
X112500Y154094D02*X114272D01*
X112500Y156063D02*X114272D01*
X112500Y158031D02*X114272D01*
X112500Y160000D02*X114272D01*
X112500Y161969D02*X114272D01*
X112500Y163937D02*X114272D01*
X112500Y165906D02*X114272D01*
G54D71*X96062Y160000D02*X103938D01*
G54D66*X34607Y111414D02*X35393D01*
X34607Y118500D02*X35393D01*
X138457Y221893D02*Y221107D01*
X131371Y221893D02*Y221107D01*
X138500Y210893D02*Y210107D01*
X131414Y210893D02*Y210107D01*
X166086Y120893D02*Y120107D01*
X159000Y120893D02*Y120107D01*
X143957Y120893D02*Y120107D01*
X151043Y120893D02*Y120107D01*
G54D72*X116500Y137300D02*Y133700D01*
X126500Y137300D02*Y133700D01*
G54D66*X117457Y123893D02*Y123107D01*
X124543Y123893D02*Y123107D01*
G54D73*X124976Y106760D02*X127339D01*
X124976Y110500D02*X127339D01*
X124976Y114240D02*X127339D01*
X114661D02*X117024D01*
X114661Y110500D02*X117024D01*
X114661Y106760D02*X117024D01*
G54D66*X117457Y97393D02*Y96607D01*
X124543Y97393D02*Y96607D01*
X175107Y157457D02*X175893D01*
X175107Y164543D02*X175893D01*
M02*
