M48
INCH
T60C0.020
T59C0.038
T58C0.110
T57C0.125
T56C0.048
T55C0.028
T54C0.129
%
T60
X007750Y013250
X007750Y009450
X007750Y005250
X008250Y009450
X008600Y013000
X009607Y010356
X009607Y009356
X009696Y008300
X009696Y007300
X009696Y006300
X009700Y005300
X011600Y016450
X011600Y015950
X011850Y011050
X012750Y020700
X012750Y020200
X012750Y019700
X012750Y019200
X013250Y021200
X013250Y020700
X013250Y020200
X013250Y019700
X013250Y019200
T55
X004500Y018650
X004500Y017650
X004500Y016650
X004500Y015650
X004500Y014650
X004500Y013650
X004500Y012650
X004500Y011650
X004500Y010650
X004500Y009650
X004500Y008650
X004500Y007650
X004500Y006650
X004500Y005650
X004500Y004650
X010500Y018650
X010500Y017650
X010500Y016650
X010500Y015650
X010500Y014650
X010500Y013650
X010500Y012650
X010500Y011650
X010500Y010650
X010500Y009650
X010500Y008650
X010500Y007650
X010500Y006650
X010500Y005650
X010500Y004650
T59
X013200Y011250
T56
X002200Y023450
X002200Y021450
X002200Y019600
X002200Y018600
X002200Y017600
X002200Y016600
X002200Y015600
X002200Y014600
X002200Y013600
X002200Y012600
X002200Y011150
X002200Y010150
X002200Y009150
X002200Y008150
X002200Y007150
X002200Y006150
X002200Y005150
X002200Y004150
T58
X006100Y023750
X008000Y024950
T57
X008000Y022550
T54
X001700Y026300
X001700Y001700
X012250Y026250
X012300Y001700
M30
