G04 start of page 10 for group -4015 idx -4015 *
G04 Title: (unknown), toppaste *
G04 Creator: pcb 20140316 *
G04 CreationDate: Wed 01 Aug 2018 03:37:01 PM GMT UTC *
G04 For: railfan *
G04 Format: Gerber/RS-274X *
G04 PCB-Dimensions (mil): 1400.00 2800.00 *
G04 PCB-Coordinate-Origin: lower left *
%MOIN*%
%FSLAX25Y25*%
%LNTOPPASTE*%
%ADD98R,0.0490X0.0490*%
%ADD97R,0.0244X0.0244*%
%ADD96R,0.0700X0.0700*%
%ADD95R,0.0098X0.0098*%
%ADD94C,0.0001*%
%ADD93R,0.0945X0.0945*%
%ADD92R,0.0378X0.0378*%
%ADD91R,0.0512X0.0512*%
%ADD90R,0.0630X0.0630*%
%ADD89R,0.0300X0.0300*%
%ADD88C,0.0600*%
G54D88*X118100Y128500D03*
G54D89*X119600Y130000D02*Y127000D01*
G54D88*X124900Y128500D03*
G54D89*X123400Y130000D02*Y127000D01*
G54D90*X118500Y218807D02*Y212508D01*
Y238492D02*Y232193D01*
G54D91*X127543Y146893D02*Y146107D01*
X120457Y146893D02*Y146107D01*
X124043Y185893D02*Y185107D01*
X116957Y185893D02*Y185107D01*
G54D92*X129501Y175609D02*Y171515D01*
X123595Y175609D02*Y163799D01*
G54D93*Y162065D02*Y160175D01*
G54D94*G36*
X125480Y169630D02*X128320Y166790D01*
X126900Y165370D01*
X124060Y168210D01*
X125480Y169630D01*
G37*
G36*
X118870Y166790D02*X121710Y169630D01*
X123130Y168210D01*
X120290Y165370D01*
X118870Y166790D01*
G37*
G54D92*X117689Y175609D02*Y171515D01*
G54D95*X79941Y120898D02*Y119126D01*
X77972Y120898D02*Y119126D01*
X76004Y120898D02*Y119126D01*
X74035Y120898D02*Y119126D01*
X72067Y120898D02*Y119126D01*
X70098Y120898D02*Y119126D01*
X68130Y120898D02*Y119126D01*
X66161Y120898D02*Y119126D01*
X64193Y120898D02*Y119126D01*
X62224Y120898D02*Y119126D01*
X60256Y120898D02*Y119126D01*
X58287Y120898D02*Y119126D01*
X54842Y116469D02*X56614D01*
X54842Y114500D02*X56614D01*
X54842Y112532D02*X56614D01*
X54842Y110563D02*X56614D01*
X54842Y108594D02*X56614D01*
X54842Y106626D02*X56614D01*
X54842Y104657D02*X56614D01*
X58287Y102000D02*Y100228D01*
X60256Y102000D02*Y100228D01*
X62224Y102000D02*Y100228D01*
X64193Y102000D02*Y100228D01*
X66161Y102000D02*Y100228D01*
X68130Y102000D02*Y100228D01*
X70098Y102000D02*Y100228D01*
X72067Y102000D02*Y100228D01*
X74035Y102000D02*Y100228D01*
X76004Y102000D02*Y100228D01*
X77972Y102000D02*Y100228D01*
X79941Y102000D02*Y100228D01*
X81614Y104657D02*X83386D01*
X81614Y106626D02*X83386D01*
X81614Y108594D02*X83386D01*
X81614Y110563D02*X83386D01*
X81614Y112532D02*X83386D01*
X81614Y114500D02*X83386D01*
X81614Y116469D02*X83386D01*
G54D96*X66614Y110563D02*X71614D01*
G54D91*X82457Y47393D02*Y46607D01*
X89543Y47393D02*Y46607D01*
G54D97*X89976Y56760D02*X92339D01*
X89976Y60500D02*X92339D01*
X89976Y64240D02*X92339D01*
X79661D02*X82024D01*
X79661Y60500D02*X82024D01*
X79661Y56760D02*X82024D01*
G54D91*X82457Y73893D02*Y73107D01*
X89543Y73893D02*Y73107D01*
G54D98*X81500Y87300D02*Y83700D01*
X91500Y87300D02*Y83700D01*
G54D91*X118107Y99586D02*X118893D01*
X118107Y92500D02*X118893D01*
X118107Y82043D02*X118893D01*
X118107Y74957D02*X118893D01*
X85607Y135457D02*X86393D01*
X85607Y142543D02*X86393D01*
X94607Y135457D02*X95393D01*
X94607Y142543D02*X95393D01*
M02*
