G04 start of page 3 for group 1 idx 1 *
G04 Title: (unknown), solder *
G04 Creator: pcb 20140316 *
G04 CreationDate: Wed 01 Aug 2018 03:37:01 PM GMT UTC *
G04 For: railfan *
G04 Format: Gerber/RS-274X *
G04 PCB-Dimensions (mil): 1400.00 2800.00 *
G04 PCB-Coordinate-Origin: lower left *
%MOIN*%
%FSLAX25Y25*%
%LNBOTTOM*%
%ADD52C,0.0380*%
%ADD51C,0.1100*%
%ADD50C,0.1250*%
%ADD49C,0.0480*%
%ADD48C,0.0280*%
%ADD47C,0.1285*%
%ADD46C,0.0200*%
%ADD45C,0.0400*%
%ADD44C,0.1500*%
%ADD43C,0.1750*%
%ADD42C,0.0800*%
%ADD41C,0.0600*%
%ADD40C,0.2937*%
%ADD39C,0.0100*%
%ADD38C,0.0001*%
G54D38*G36*
X86497Y253232D02*X86638Y252992D01*
X86919Y252395D01*
X87147Y251775D01*
X87319Y251138D01*
X87435Y250488D01*
X87493Y249830D01*
Y249170D01*
X87435Y248512D01*
X87319Y247862D01*
X87147Y247225D01*
X86919Y246605D01*
X86638Y246008D01*
X86497Y245768D01*
Y253232D01*
G37*
G36*
X108613Y10749D02*X108982Y9858D01*
X110272Y7753D01*
X111876Y5876D01*
X113753Y4272D01*
X115858Y2982D01*
X117022Y2500D01*
X108613D01*
Y10749D01*
G37*
G36*
X132000Y249988D02*X133624Y251376D01*
X135228Y253253D01*
X136518Y255358D01*
X137462Y257638D01*
X137500Y257795D01*
Y22978D01*
X137018Y24142D01*
X135728Y26247D01*
X134124Y28124D01*
X132247Y29728D01*
X132000Y29879D01*
Y108007D01*
X135235Y108014D01*
X135465Y108069D01*
X135683Y108159D01*
X135884Y108283D01*
X136064Y108436D01*
X136217Y108616D01*
X136341Y108817D01*
X136431Y109035D01*
X136486Y109265D01*
X136500Y109500D01*
X136486Y115735D01*
X136431Y115965D01*
X136341Y116183D01*
X136217Y116384D01*
X136064Y116564D01*
X135884Y116717D01*
X135683Y116841D01*
X135465Y116931D01*
X135235Y116986D01*
X135000Y117000D01*
X132000Y116993D01*
Y249988D01*
G37*
G36*
X108613Y255144D02*X109772Y253253D01*
X111376Y251376D01*
X113253Y249772D01*
X115358Y248482D01*
X117638Y247538D01*
X120039Y246961D01*
X122500Y246768D01*
X124961Y246961D01*
X127362Y247538D01*
X129642Y248482D01*
X131747Y249772D01*
X132000Y249988D01*
Y116993D01*
X128765Y116986D01*
X128535Y116931D01*
X128317Y116841D01*
X128116Y116717D01*
X127936Y116564D01*
X127783Y116384D01*
X127659Y116183D01*
X127569Y115965D01*
X127514Y115735D01*
X127500Y115500D01*
X127514Y109265D01*
X127569Y109035D01*
X127659Y108817D01*
X127783Y108616D01*
X127936Y108436D01*
X128116Y108283D01*
X128317Y108159D01*
X128535Y108069D01*
X128765Y108014D01*
X129000Y108000D01*
X132000Y108007D01*
Y29879D01*
X130142Y31018D01*
X127862Y31962D01*
X125461Y32539D01*
X123000Y32732D01*
X120539Y32539D01*
X118138Y31962D01*
X115858Y31018D01*
X113753Y29728D01*
X111876Y28124D01*
X110272Y26247D01*
X108982Y24142D01*
X108613Y23251D01*
Y43802D01*
X108652Y43847D01*
X109022Y44451D01*
X109293Y45105D01*
X109458Y45794D01*
X109500Y46500D01*
X109458Y47206D01*
X109293Y47895D01*
X109022Y48549D01*
X108652Y49153D01*
X108613Y49198D01*
Y53802D01*
X108652Y53847D01*
X109022Y54451D01*
X109293Y55105D01*
X109458Y55794D01*
X109500Y56500D01*
X109458Y57206D01*
X109293Y57895D01*
X109022Y58549D01*
X108652Y59153D01*
X108613Y59198D01*
Y63802D01*
X108652Y63847D01*
X109022Y64451D01*
X109293Y65105D01*
X109458Y65794D01*
X109500Y66500D01*
X109458Y67206D01*
X109293Y67895D01*
X109022Y68549D01*
X108652Y69153D01*
X108613Y69198D01*
Y73802D01*
X108652Y73847D01*
X109022Y74451D01*
X109293Y75105D01*
X109458Y75794D01*
X109500Y76500D01*
X109458Y77206D01*
X109293Y77895D01*
X109022Y78549D01*
X108652Y79153D01*
X108613Y79198D01*
Y83802D01*
X108652Y83847D01*
X109022Y84451D01*
X109293Y85105D01*
X109458Y85794D01*
X109500Y86500D01*
X109458Y87206D01*
X109293Y87895D01*
X109022Y88549D01*
X108652Y89153D01*
X108613Y89198D01*
Y93802D01*
X108652Y93847D01*
X109022Y94451D01*
X109293Y95105D01*
X109458Y95794D01*
X109500Y96500D01*
X109458Y97206D01*
X109293Y97895D01*
X109022Y98549D01*
X108652Y99153D01*
X108613Y99198D01*
Y103802D01*
X108652Y103847D01*
X109022Y104451D01*
X109293Y105105D01*
X109458Y105794D01*
X109500Y106500D01*
X109458Y107206D01*
X109293Y107895D01*
X109022Y108549D01*
X108652Y109153D01*
X108613Y109198D01*
Y113802D01*
X108652Y113847D01*
X109022Y114451D01*
X109293Y115105D01*
X109458Y115794D01*
X109500Y116500D01*
X109458Y117206D01*
X109293Y117895D01*
X109022Y118549D01*
X108652Y119153D01*
X108613Y119198D01*
Y123802D01*
X108652Y123847D01*
X109022Y124451D01*
X109293Y125105D01*
X109458Y125794D01*
X109500Y126500D01*
X109458Y127206D01*
X109293Y127895D01*
X109022Y128549D01*
X108652Y129153D01*
X108613Y129198D01*
Y133802D01*
X108652Y133847D01*
X109022Y134451D01*
X109293Y135105D01*
X109458Y135794D01*
X109500Y136500D01*
X109458Y137206D01*
X109293Y137895D01*
X109022Y138549D01*
X108652Y139153D01*
X108613Y139198D01*
Y143802D01*
X108652Y143847D01*
X109022Y144451D01*
X109293Y145105D01*
X109458Y145794D01*
X109500Y146500D01*
X109458Y147206D01*
X109293Y147895D01*
X109022Y148549D01*
X108652Y149153D01*
X108613Y149198D01*
Y153802D01*
X108652Y153847D01*
X109022Y154451D01*
X109293Y155105D01*
X109458Y155794D01*
X109500Y156500D01*
X109458Y157206D01*
X109293Y157895D01*
X109022Y158549D01*
X108652Y159153D01*
X108613Y159198D01*
Y163802D01*
X108652Y163847D01*
X109022Y164451D01*
X109293Y165105D01*
X109458Y165794D01*
X109500Y166500D01*
X109458Y167206D01*
X109293Y167895D01*
X109022Y168549D01*
X108652Y169153D01*
X108613Y169198D01*
Y174353D01*
X108656Y174360D01*
X108768Y174397D01*
X108873Y174452D01*
X108968Y174522D01*
X109051Y174606D01*
X109119Y174702D01*
X109170Y174808D01*
X109318Y175216D01*
X109422Y175637D01*
X109484Y176067D01*
X109505Y176500D01*
X109484Y176933D01*
X109422Y177363D01*
X109318Y177784D01*
X109175Y178194D01*
X109122Y178300D01*
X109053Y178396D01*
X108970Y178481D01*
X108875Y178551D01*
X108769Y178606D01*
X108657Y178643D01*
X108613Y178651D01*
Y183802D01*
X108652Y183847D01*
X109022Y184451D01*
X109293Y185105D01*
X109458Y185794D01*
X109500Y186500D01*
X109458Y187206D01*
X109293Y187895D01*
X109022Y188549D01*
X108652Y189153D01*
X108613Y189198D01*
Y255144D01*
G37*
G36*
Y277500D02*X117795D01*
X117638Y277462D01*
X115358Y276518D01*
X113253Y275228D01*
X111376Y273624D01*
X109772Y271747D01*
X108613Y269856D01*
Y277500D01*
G37*
G36*
Y169198D02*X108192Y169692D01*
X107653Y170152D01*
X107049Y170522D01*
X106395Y170793D01*
X105706Y170958D01*
X105000Y171014D01*
X104993Y171013D01*
Y171995D01*
X105000Y171995D01*
X105433Y172016D01*
X105863Y172078D01*
X106284Y172182D01*
X106694Y172325D01*
X106800Y172378D01*
X106896Y172447D01*
X106981Y172530D01*
X107051Y172625D01*
X107106Y172731D01*
X107143Y172843D01*
X107163Y172960D01*
X107164Y173079D01*
X107146Y173196D01*
X107110Y173309D01*
X107057Y173415D01*
X106988Y173512D01*
X106905Y173596D01*
X106809Y173667D01*
X106704Y173721D01*
X106592Y173759D01*
X106475Y173778D01*
X106356Y173779D01*
X106239Y173761D01*
X106126Y173723D01*
X105855Y173624D01*
X105575Y173556D01*
X105289Y173514D01*
X105000Y173500D01*
X104993Y173500D01*
Y179500D01*
X105000Y179500D01*
X105289Y179486D01*
X105575Y179444D01*
X105855Y179376D01*
X106128Y179280D01*
X106239Y179242D01*
X106356Y179225D01*
X106474Y179225D01*
X106591Y179245D01*
X106703Y179282D01*
X106807Y179336D01*
X106902Y179406D01*
X106985Y179491D01*
X107054Y179587D01*
X107107Y179692D01*
X107143Y179805D01*
X107160Y179921D01*
X107159Y180039D01*
X107140Y180156D01*
X107103Y180268D01*
X107048Y180373D01*
X106978Y180468D01*
X106894Y180551D01*
X106798Y180619D01*
X106692Y180670D01*
X106284Y180818D01*
X105863Y180922D01*
X105433Y180984D01*
X105000Y181005D01*
X104993Y181005D01*
Y181987D01*
X105000Y181986D01*
X105706Y182042D01*
X106395Y182207D01*
X107049Y182478D01*
X107653Y182848D01*
X108192Y183308D01*
X108613Y183802D01*
Y178651D01*
X108540Y178663D01*
X108421Y178664D01*
X108304Y178646D01*
X108191Y178610D01*
X108085Y178557D01*
X107988Y178488D01*
X107904Y178405D01*
X107833Y178309D01*
X107779Y178204D01*
X107741Y178092D01*
X107722Y177975D01*
X107721Y177856D01*
X107739Y177739D01*
X107777Y177626D01*
X107876Y177355D01*
X107944Y177075D01*
X107986Y176789D01*
X108000Y176500D01*
X107986Y176211D01*
X107944Y175925D01*
X107876Y175645D01*
X107780Y175372D01*
X107742Y175261D01*
X107725Y175144D01*
X107725Y175026D01*
X107745Y174909D01*
X107782Y174797D01*
X107836Y174693D01*
X107906Y174598D01*
X107991Y174515D01*
X108087Y174446D01*
X108192Y174393D01*
X108305Y174357D01*
X108421Y174340D01*
X108539Y174341D01*
X108613Y174353D01*
Y169198D01*
G37*
G36*
Y159198D02*X108192Y159692D01*
X107653Y160152D01*
X107049Y160522D01*
X106395Y160793D01*
X105706Y160958D01*
X105000Y161014D01*
X104993Y161013D01*
Y161987D01*
X105000Y161986D01*
X105706Y162042D01*
X106395Y162207D01*
X107049Y162478D01*
X107653Y162848D01*
X108192Y163308D01*
X108613Y163802D01*
Y159198D01*
G37*
G36*
Y149198D02*X108192Y149692D01*
X107653Y150152D01*
X107049Y150522D01*
X106395Y150793D01*
X105706Y150958D01*
X105000Y151014D01*
X104993Y151013D01*
Y151987D01*
X105000Y151986D01*
X105706Y152042D01*
X106395Y152207D01*
X107049Y152478D01*
X107653Y152848D01*
X108192Y153308D01*
X108613Y153802D01*
Y149198D01*
G37*
G36*
Y139198D02*X108192Y139692D01*
X107653Y140152D01*
X107049Y140522D01*
X106395Y140793D01*
X105706Y140958D01*
X105000Y141014D01*
X104993Y141013D01*
Y141987D01*
X105000Y141986D01*
X105706Y142042D01*
X106395Y142207D01*
X107049Y142478D01*
X107653Y142848D01*
X108192Y143308D01*
X108613Y143802D01*
Y139198D01*
G37*
G36*
Y129198D02*X108192Y129692D01*
X107653Y130152D01*
X107049Y130522D01*
X106395Y130793D01*
X105706Y130958D01*
X105000Y131014D01*
X104993Y131013D01*
Y131987D01*
X105000Y131986D01*
X105706Y132042D01*
X106395Y132207D01*
X107049Y132478D01*
X107653Y132848D01*
X108192Y133308D01*
X108613Y133802D01*
Y129198D01*
G37*
G36*
Y119198D02*X108192Y119692D01*
X107653Y120152D01*
X107049Y120522D01*
X106395Y120793D01*
X105706Y120958D01*
X105000Y121014D01*
X104993Y121013D01*
Y121987D01*
X105000Y121986D01*
X105706Y122042D01*
X106395Y122207D01*
X107049Y122478D01*
X107653Y122848D01*
X108192Y123308D01*
X108613Y123802D01*
Y119198D01*
G37*
G36*
Y109198D02*X108192Y109692D01*
X107653Y110152D01*
X107049Y110522D01*
X106395Y110793D01*
X105706Y110958D01*
X105000Y111014D01*
X104993Y111013D01*
Y111987D01*
X105000Y111986D01*
X105706Y112042D01*
X106395Y112207D01*
X107049Y112478D01*
X107653Y112848D01*
X108192Y113308D01*
X108613Y113802D01*
Y109198D01*
G37*
G36*
Y99198D02*X108192Y99692D01*
X107653Y100152D01*
X107049Y100522D01*
X106395Y100793D01*
X105706Y100958D01*
X105000Y101014D01*
X104993Y101013D01*
Y101987D01*
X105000Y101986D01*
X105706Y102042D01*
X106395Y102207D01*
X107049Y102478D01*
X107653Y102848D01*
X108192Y103308D01*
X108613Y103802D01*
Y99198D01*
G37*
G36*
Y89198D02*X108192Y89692D01*
X107653Y90152D01*
X107049Y90522D01*
X106395Y90793D01*
X105706Y90958D01*
X105000Y91014D01*
X104993Y91013D01*
Y91987D01*
X105000Y91986D01*
X105706Y92042D01*
X106395Y92207D01*
X107049Y92478D01*
X107653Y92848D01*
X108192Y93308D01*
X108613Y93802D01*
Y89198D01*
G37*
G36*
Y79198D02*X108192Y79692D01*
X107653Y80152D01*
X107049Y80522D01*
X106395Y80793D01*
X105706Y80958D01*
X105000Y81014D01*
X104993Y81013D01*
Y81987D01*
X105000Y81986D01*
X105706Y82042D01*
X106395Y82207D01*
X107049Y82478D01*
X107653Y82848D01*
X108192Y83308D01*
X108613Y83802D01*
Y79198D01*
G37*
G36*
Y69198D02*X108192Y69692D01*
X107653Y70152D01*
X107049Y70522D01*
X106395Y70793D01*
X105706Y70958D01*
X105000Y71014D01*
X104993Y71013D01*
Y71987D01*
X105000Y71986D01*
X105706Y72042D01*
X106395Y72207D01*
X107049Y72478D01*
X107653Y72848D01*
X108192Y73308D01*
X108613Y73802D01*
Y69198D01*
G37*
G36*
Y59198D02*X108192Y59692D01*
X107653Y60152D01*
X107049Y60522D01*
X106395Y60793D01*
X105706Y60958D01*
X105000Y61014D01*
X104993Y61013D01*
Y61987D01*
X105000Y61986D01*
X105706Y62042D01*
X106395Y62207D01*
X107049Y62478D01*
X107653Y62848D01*
X108192Y63308D01*
X108613Y63802D01*
Y59198D01*
G37*
G36*
Y49198D02*X108192Y49692D01*
X107653Y50152D01*
X107049Y50522D01*
X106395Y50793D01*
X105706Y50958D01*
X105000Y51014D01*
X104993Y51013D01*
Y51987D01*
X105000Y51986D01*
X105706Y52042D01*
X106395Y52207D01*
X107049Y52478D01*
X107653Y52848D01*
X108192Y53308D01*
X108613Y53802D01*
Y49198D01*
G37*
G36*
Y23251D02*X108038Y21862D01*
X107461Y19461D01*
X107268Y17000D01*
X107461Y14539D01*
X108038Y12138D01*
X108613Y10749D01*
Y2500D01*
X104993D01*
Y41987D01*
X105000Y41986D01*
X105706Y42042D01*
X106395Y42207D01*
X107049Y42478D01*
X107653Y42848D01*
X108192Y43308D01*
X108613Y43802D01*
Y23251D01*
G37*
G36*
X104993Y277500D02*X108613D01*
Y269856D01*
X108482Y269642D01*
X107538Y267362D01*
X106961Y264961D01*
X106768Y262500D01*
X106961Y260039D01*
X107538Y257638D01*
X108482Y255358D01*
X108613Y255144D01*
Y189198D01*
X108192Y189692D01*
X107653Y190152D01*
X107049Y190522D01*
X106395Y190793D01*
X105706Y190958D01*
X105000Y191014D01*
X104993Y191013D01*
Y277500D01*
G37*
G36*
Y2500D02*X86497D01*
Y51500D01*
X97000D01*
X97235Y51514D01*
X97465Y51569D01*
X97683Y51659D01*
X97884Y51783D01*
X98064Y51936D01*
X98217Y52116D01*
X98340Y52317D01*
X98431Y52535D01*
X98486Y52765D01*
X98504Y53000D01*
X98486Y53235D01*
X98431Y53465D01*
X98340Y53683D01*
X98217Y53884D01*
X98064Y54064D01*
X97884Y54217D01*
X97683Y54341D01*
X97465Y54431D01*
X97235Y54486D01*
X97000Y54500D01*
X86497D01*
Y117381D01*
X88398Y115481D01*
X88436Y115436D01*
X88616Y115283D01*
X88817Y115159D01*
X89035Y115069D01*
X89265Y115014D01*
X89500Y114995D01*
X89559Y115000D01*
X100751D01*
X100978Y114451D01*
X101348Y113847D01*
X101808Y113308D01*
X102347Y112848D01*
X102951Y112478D01*
X103605Y112207D01*
X104294Y112042D01*
X104993Y111987D01*
Y111013D01*
X104294Y110958D01*
X103605Y110793D01*
X102951Y110522D01*
X102347Y110152D01*
X101808Y109692D01*
X101348Y109153D01*
X100978Y108549D01*
X100707Y107895D01*
X100542Y107206D01*
X100486Y106500D01*
X100542Y105794D01*
X100707Y105105D01*
X100978Y104451D01*
X101348Y103847D01*
X101808Y103308D01*
X102347Y102848D01*
X102951Y102478D01*
X103605Y102207D01*
X104294Y102042D01*
X104993Y101987D01*
Y101013D01*
X104294Y100958D01*
X103605Y100793D01*
X102951Y100522D01*
X102347Y100152D01*
X101808Y99692D01*
X101348Y99153D01*
X100978Y98549D01*
X100707Y97895D01*
X100542Y97206D01*
X100486Y96500D01*
X100542Y95794D01*
X100707Y95105D01*
X100978Y94451D01*
X101348Y93847D01*
X101808Y93308D01*
X102347Y92848D01*
X102951Y92478D01*
X103605Y92207D01*
X104294Y92042D01*
X104993Y91987D01*
Y91013D01*
X104294Y90958D01*
X103605Y90793D01*
X102951Y90522D01*
X102347Y90152D01*
X101808Y89692D01*
X101348Y89153D01*
X100978Y88549D01*
X100707Y87895D01*
X100542Y87206D01*
X100486Y86500D01*
X100542Y85794D01*
X100707Y85105D01*
X100978Y84451D01*
X101348Y83847D01*
X101808Y83308D01*
X102347Y82848D01*
X102951Y82478D01*
X103605Y82207D01*
X104294Y82042D01*
X104993Y81987D01*
Y81013D01*
X104294Y80958D01*
X103605Y80793D01*
X102951Y80522D01*
X102347Y80152D01*
X101808Y79692D01*
X101348Y79153D01*
X100978Y78549D01*
X100707Y77895D01*
X100542Y77206D01*
X100486Y76500D01*
X100542Y75794D01*
X100707Y75105D01*
X100978Y74451D01*
X101348Y73847D01*
X101808Y73308D01*
X102347Y72848D01*
X102951Y72478D01*
X103605Y72207D01*
X104294Y72042D01*
X104993Y71987D01*
Y71013D01*
X104294Y70958D01*
X103605Y70793D01*
X102951Y70522D01*
X102347Y70152D01*
X101808Y69692D01*
X101348Y69153D01*
X100978Y68549D01*
X100707Y67895D01*
X100542Y67206D01*
X100486Y66500D01*
X100542Y65794D01*
X100707Y65105D01*
X100978Y64451D01*
X101348Y63847D01*
X101808Y63308D01*
X102347Y62848D01*
X102951Y62478D01*
X103605Y62207D01*
X104294Y62042D01*
X104993Y61987D01*
Y61013D01*
X104294Y60958D01*
X103605Y60793D01*
X102951Y60522D01*
X102347Y60152D01*
X101808Y59692D01*
X101348Y59153D01*
X100978Y58549D01*
X100707Y57895D01*
X100542Y57206D01*
X100486Y56500D01*
X100542Y55794D01*
X100707Y55105D01*
X100978Y54451D01*
X101348Y53847D01*
X101808Y53308D01*
X102347Y52848D01*
X102951Y52478D01*
X103605Y52207D01*
X104294Y52042D01*
X104993Y51987D01*
Y51013D01*
X104294Y50958D01*
X103605Y50793D01*
X102951Y50522D01*
X102347Y50152D01*
X101808Y49692D01*
X101348Y49153D01*
X100978Y48549D01*
X100707Y47895D01*
X100542Y47206D01*
X100486Y46500D01*
X100542Y45794D01*
X100707Y45105D01*
X100978Y44451D01*
X101348Y43847D01*
X101808Y43308D01*
X102347Y42848D01*
X102951Y42478D01*
X103605Y42207D01*
X104294Y42042D01*
X104993Y41987D01*
Y2500D01*
G37*
G36*
X101387Y123802D02*X101808Y123308D01*
X102347Y122848D01*
X102951Y122478D01*
X103605Y122207D01*
X104294Y122042D01*
X104993Y121987D01*
Y121013D01*
X104294Y120958D01*
X103605Y120793D01*
X102951Y120522D01*
X102347Y120152D01*
X101808Y119692D01*
X101387Y119198D01*
Y123802D01*
G37*
G36*
Y133802D02*X101808Y133308D01*
X102347Y132848D01*
X102951Y132478D01*
X103605Y132207D01*
X104294Y132042D01*
X104993Y131987D01*
Y131013D01*
X104294Y130958D01*
X103605Y130793D01*
X102951Y130522D01*
X102347Y130152D01*
X101808Y129692D01*
X101387Y129198D01*
Y133802D01*
G37*
G36*
Y143802D02*X101808Y143308D01*
X102347Y142848D01*
X102951Y142478D01*
X103605Y142207D01*
X104294Y142042D01*
X104993Y141987D01*
Y141013D01*
X104294Y140958D01*
X103605Y140793D01*
X102951Y140522D01*
X102347Y140152D01*
X101808Y139692D01*
X101387Y139198D01*
Y143802D01*
G37*
G36*
Y153802D02*X101808Y153308D01*
X102347Y152848D01*
X102951Y152478D01*
X103605Y152207D01*
X104294Y152042D01*
X104993Y151987D01*
Y151013D01*
X104294Y150958D01*
X103605Y150793D01*
X102951Y150522D01*
X102347Y150152D01*
X101808Y149692D01*
X101387Y149198D01*
Y153802D01*
G37*
G36*
Y163802D02*X101808Y163308D01*
X102347Y162848D01*
X102951Y162478D01*
X103605Y162207D01*
X104294Y162042D01*
X104993Y161987D01*
Y161013D01*
X104294Y160958D01*
X103605Y160793D01*
X102951Y160522D01*
X102347Y160152D01*
X101808Y159692D01*
X101387Y159198D01*
Y163802D01*
G37*
G36*
Y183802D02*X101808Y183308D01*
X102347Y182848D01*
X102951Y182478D01*
X103605Y182207D01*
X104294Y182042D01*
X104993Y181987D01*
Y181005D01*
X104567Y180984D01*
X104137Y180922D01*
X103716Y180818D01*
X103306Y180675D01*
X103200Y180622D01*
X103104Y180553D01*
X103019Y180470D01*
X102949Y180375D01*
X102894Y180269D01*
X102857Y180157D01*
X102837Y180040D01*
X102836Y179921D01*
X102854Y179804D01*
X102890Y179691D01*
X102943Y179585D01*
X103012Y179488D01*
X103095Y179404D01*
X103191Y179333D01*
X103296Y179279D01*
X103408Y179241D01*
X103525Y179222D01*
X103644Y179221D01*
X103761Y179239D01*
X103874Y179277D01*
X104145Y179376D01*
X104425Y179444D01*
X104711Y179486D01*
X104993Y179500D01*
Y173500D01*
X104711Y173514D01*
X104425Y173556D01*
X104145Y173624D01*
X103872Y173720D01*
X103761Y173758D01*
X103644Y173775D01*
X103526Y173775D01*
X103409Y173755D01*
X103297Y173718D01*
X103193Y173664D01*
X103098Y173594D01*
X103015Y173509D01*
X102946Y173413D01*
X102893Y173308D01*
X102857Y173195D01*
X102840Y173079D01*
X102841Y172961D01*
X102860Y172844D01*
X102897Y172732D01*
X102952Y172627D01*
X103022Y172532D01*
X103106Y172449D01*
X103202Y172381D01*
X103308Y172330D01*
X103716Y172182D01*
X104137Y172078D01*
X104567Y172016D01*
X104993Y171995D01*
Y171013D01*
X104294Y170958D01*
X103605Y170793D01*
X102951Y170522D01*
X102347Y170152D01*
X101808Y169692D01*
X101387Y169198D01*
Y174349D01*
X101460Y174337D01*
X101579Y174336D01*
X101696Y174354D01*
X101809Y174390D01*
X101915Y174443D01*
X102012Y174512D01*
X102096Y174595D01*
X102167Y174691D01*
X102221Y174796D01*
X102259Y174908D01*
X102278Y175025D01*
X102279Y175144D01*
X102261Y175261D01*
X102223Y175374D01*
X102124Y175645D01*
X102056Y175925D01*
X102014Y176211D01*
X102000Y176500D01*
X102014Y176789D01*
X102056Y177075D01*
X102124Y177355D01*
X102220Y177628D01*
X102258Y177739D01*
X102275Y177856D01*
X102275Y177974D01*
X102255Y178091D01*
X102218Y178203D01*
X102164Y178307D01*
X102094Y178402D01*
X102009Y178485D01*
X101913Y178554D01*
X101808Y178607D01*
X101695Y178643D01*
X101579Y178660D01*
X101461Y178659D01*
X101387Y178647D01*
Y183802D01*
G37*
G36*
Y277500D02*X104993D01*
Y191013D01*
X104294Y190958D01*
X103605Y190793D01*
X102951Y190522D01*
X102347Y190152D01*
X101808Y189692D01*
X101387Y189198D01*
Y277500D01*
G37*
G36*
X86497D02*X101387D01*
Y189198D01*
X101348Y189153D01*
X100978Y188549D01*
X100707Y187895D01*
X100542Y187206D01*
X100486Y186500D01*
X100542Y185794D01*
X100707Y185105D01*
X100978Y184451D01*
X101348Y183847D01*
X101387Y183802D01*
Y178647D01*
X101344Y178640D01*
X101232Y178603D01*
X101127Y178548D01*
X101032Y178478D01*
X100949Y178394D01*
X100881Y178298D01*
X100830Y178192D01*
X100682Y177784D01*
X100578Y177363D01*
X100516Y176933D01*
X100495Y176500D01*
X100516Y176067D01*
X100578Y175637D01*
X100682Y175216D01*
X100825Y174806D01*
X100878Y174700D01*
X100947Y174604D01*
X101030Y174519D01*
X101125Y174449D01*
X101231Y174394D01*
X101343Y174357D01*
X101387Y174349D01*
Y169198D01*
X101348Y169153D01*
X100978Y168549D01*
X100707Y167895D01*
X100542Y167206D01*
X100486Y166500D01*
X100542Y165794D01*
X100707Y165105D01*
X100978Y164451D01*
X101348Y163847D01*
X101387Y163802D01*
Y159198D01*
X101348Y159153D01*
X100978Y158549D01*
X100707Y157895D01*
X100542Y157206D01*
X100486Y156500D01*
X100542Y155794D01*
X100707Y155105D01*
X100978Y154451D01*
X101348Y153847D01*
X101387Y153802D01*
Y149198D01*
X101348Y149153D01*
X100978Y148549D01*
X100707Y147895D01*
X100542Y147206D01*
X100486Y146500D01*
X100542Y145794D01*
X100707Y145105D01*
X100978Y144451D01*
X101348Y143847D01*
X101387Y143802D01*
Y139198D01*
X101348Y139153D01*
X100978Y138549D01*
X100707Y137895D01*
X100542Y137206D01*
X100486Y136500D01*
X100542Y135794D01*
X100707Y135105D01*
X100978Y134451D01*
X101348Y133847D01*
X101387Y133802D01*
Y129198D01*
X101348Y129153D01*
X100978Y128549D01*
X100707Y127895D01*
X100542Y127206D01*
X100486Y126500D01*
X100542Y125794D01*
X100707Y125105D01*
X100978Y124451D01*
X101348Y123847D01*
X101387Y123802D01*
Y119198D01*
X101348Y119153D01*
X100978Y118549D01*
X100751Y118000D01*
X90121D01*
X87500Y120621D01*
Y127401D01*
X87769Y127565D01*
X88128Y127872D01*
X88435Y128231D01*
X88681Y128634D01*
X88862Y129070D01*
X88972Y129529D01*
X89000Y130000D01*
X88972Y130471D01*
X88862Y130930D01*
X88681Y131366D01*
X88435Y131769D01*
X88128Y132128D01*
X87769Y132435D01*
X87366Y132681D01*
X86930Y132862D01*
X86497Y132966D01*
Y218227D01*
X86916Y218584D01*
X87912Y219751D01*
X88714Y221060D01*
X89301Y222478D01*
X89660Y223970D01*
X89750Y225500D01*
X89660Y227030D01*
X89301Y228522D01*
X88714Y229940D01*
X87912Y231249D01*
X86916Y232416D01*
X86497Y232773D01*
Y244126D01*
X86531Y244139D01*
X86600Y244178D01*
X86661Y244227D01*
X86713Y244286D01*
X87152Y244892D01*
X87530Y245539D01*
X87849Y246216D01*
X88107Y246919D01*
X88303Y247642D01*
X88434Y248380D01*
X88500Y249126D01*
Y249874D01*
X88434Y250621D01*
X88303Y251358D01*
X88107Y252081D01*
X87849Y252784D01*
X87530Y253461D01*
X87152Y254108D01*
X86719Y254719D01*
X86666Y254779D01*
X86604Y254828D01*
X86534Y254868D01*
X86497Y254882D01*
Y277500D01*
G37*
G36*
X80004Y50844D02*X80181Y51134D01*
X80362Y51570D01*
X80472Y52029D01*
X80500Y52500D01*
X80472Y52971D01*
X80362Y53430D01*
X80181Y53866D01*
X80004Y54156D01*
Y92832D01*
X80065Y92731D01*
X80372Y92372D01*
X80731Y92065D01*
X81000Y91901D01*
Y54559D01*
X80995Y54500D01*
X81014Y54265D01*
X81069Y54035D01*
X81159Y53817D01*
X81283Y53616D01*
X81436Y53436D01*
X81481Y53398D01*
X82898Y51981D01*
X82936Y51936D01*
X83115Y51783D01*
X83116Y51783D01*
X83317Y51659D01*
X83535Y51569D01*
X83765Y51514D01*
X84000Y51495D01*
X84059Y51500D01*
X86497D01*
Y2500D01*
X80004D01*
Y50844D01*
G37*
G36*
Y215720D02*X81530Y215840D01*
X83022Y216199D01*
X84440Y216786D01*
X85749Y217588D01*
X86497Y218227D01*
Y132966D01*
X86471Y132972D01*
X86000Y133009D01*
X85529Y132972D01*
X85070Y132862D01*
X84634Y132681D01*
X84231Y132435D01*
X83872Y132128D01*
X83565Y131769D01*
X83319Y131366D01*
X83138Y130930D01*
X83028Y130471D01*
X82991Y130000D01*
X83028Y129529D01*
X83138Y129070D01*
X83319Y128634D01*
X83565Y128231D01*
X83872Y127872D01*
X84231Y127565D01*
X84500Y127401D01*
Y120059D01*
X84495Y120000D01*
X84514Y119765D01*
X84569Y119535D01*
X84659Y119317D01*
X84783Y119116D01*
X84936Y118936D01*
X84981Y118898D01*
X86497Y117381D01*
Y54500D01*
X84621D01*
X84000Y55121D01*
Y91901D01*
X84269Y92065D01*
X84628Y92372D01*
X84935Y92731D01*
X85181Y93134D01*
X85362Y93570D01*
X85472Y94029D01*
X85500Y94500D01*
X85472Y94971D01*
X85362Y95430D01*
X85181Y95866D01*
X84935Y96269D01*
X84628Y96628D01*
X84269Y96935D01*
X83866Y97181D01*
X83430Y97362D01*
X82971Y97472D01*
X82500Y97509D01*
X82029Y97472D01*
X81570Y97362D01*
X81134Y97181D01*
X80731Y96935D01*
X80372Y96628D01*
X80065Y96269D01*
X80004Y96168D01*
Y130844D01*
X80181Y131134D01*
X80362Y131570D01*
X80472Y132029D01*
X80500Y132500D01*
X80472Y132971D01*
X80362Y133430D01*
X80181Y133866D01*
X80004Y134156D01*
Y215720D01*
G37*
G36*
Y277500D02*X86497D01*
Y254882D01*
X86460Y254896D01*
X86381Y254912D01*
X86302Y254916D01*
X86222Y254907D01*
X86145Y254886D01*
X86073Y254853D01*
X86006Y254809D01*
X85947Y254756D01*
X85897Y254693D01*
X85857Y254624D01*
X85829Y254549D01*
X85813Y254471D01*
X85809Y254391D01*
X85818Y254312D01*
X85839Y254235D01*
X85872Y254162D01*
X85917Y254096D01*
X86305Y253562D01*
X86497Y253232D01*
Y245768D01*
X86305Y245438D01*
X85923Y244899D01*
X85879Y244834D01*
X85846Y244763D01*
X85825Y244687D01*
X85817Y244609D01*
X85820Y244530D01*
X85836Y244453D01*
X85864Y244379D01*
X85903Y244311D01*
X85952Y244249D01*
X86010Y244196D01*
X86076Y244153D01*
X86148Y244121D01*
X86224Y244100D01*
X86302Y244091D01*
X86381Y244095D01*
X86458Y244111D01*
X86497Y244126D01*
Y232773D01*
X85749Y233412D01*
X84440Y234214D01*
X83022Y234801D01*
X81530Y235160D01*
X80004Y235280D01*
Y241000D01*
X80374D01*
X81120Y241066D01*
X81858Y241197D01*
X82581Y241393D01*
X83284Y241651D01*
X83961Y241970D01*
X84608Y242348D01*
X85219Y242781D01*
X85279Y242834D01*
X85328Y242896D01*
X85368Y242966D01*
X85396Y243040D01*
X85412Y243119D01*
X85416Y243198D01*
X85407Y243278D01*
X85386Y243355D01*
X85353Y243427D01*
X85309Y243494D01*
X85256Y243553D01*
X85193Y243603D01*
X85124Y243643D01*
X85049Y243671D01*
X84971Y243687D01*
X84891Y243691D01*
X84812Y243682D01*
X84735Y243661D01*
X84662Y243628D01*
X84596Y243583D01*
X84062Y243195D01*
X83492Y242862D01*
X82895Y242581D01*
X82275Y242353D01*
X81638Y242181D01*
X80988Y242065D01*
X80330Y242007D01*
X80004D01*
Y256993D01*
X80330D01*
X80988Y256935D01*
X81638Y256819D01*
X82275Y256647D01*
X82895Y256419D01*
X83492Y256138D01*
X84062Y255805D01*
X84601Y255423D01*
X84666Y255379D01*
X84737Y255346D01*
X84813Y255325D01*
X84891Y255317D01*
X84970Y255320D01*
X85047Y255336D01*
X85121Y255364D01*
X85189Y255403D01*
X85251Y255452D01*
X85304Y255510D01*
X85347Y255576D01*
X85379Y255648D01*
X85400Y255724D01*
X85409Y255802D01*
X85405Y255881D01*
X85389Y255958D01*
X85361Y256031D01*
X85322Y256100D01*
X85273Y256161D01*
X85214Y256213D01*
X84608Y256652D01*
X83961Y257030D01*
X83284Y257349D01*
X82581Y257607D01*
X81858Y257803D01*
X81120Y257934D01*
X80374Y258000D01*
X80004D01*
Y277500D01*
G37*
G36*
Y54156D02*X79935Y54269D01*
X79628Y54628D01*
X79269Y54935D01*
X79000Y55099D01*
Y91901D01*
X79269Y92065D01*
X79628Y92372D01*
X79935Y92731D01*
X80000Y92838D01*
X80004Y92832D01*
Y54156D01*
G37*
G36*
Y96168D02*X80000Y96162D01*
X79935Y96269D01*
X79628Y96628D01*
X79269Y96935D01*
X79000Y97099D01*
Y129901D01*
X79269Y130065D01*
X79628Y130372D01*
X79935Y130731D01*
X80004Y130844D01*
Y96168D01*
G37*
G36*
X72845Y218864D02*X73084Y218584D01*
X74251Y217588D01*
X75560Y216786D01*
X76978Y216199D01*
X78470Y215840D01*
X80000Y215720D01*
X80004Y215720D01*
Y134156D01*
X79935Y134269D01*
X79628Y134628D01*
X79269Y134935D01*
X78866Y135181D01*
X78430Y135362D01*
X77971Y135472D01*
X77500Y135509D01*
X77029Y135472D01*
X76570Y135362D01*
X76134Y135181D01*
X75731Y134935D01*
X75372Y134628D01*
X75065Y134269D01*
X74819Y133866D01*
X74638Y133430D01*
X74528Y132971D01*
X74491Y132500D01*
X74528Y132029D01*
X74638Y131570D01*
X74819Y131134D01*
X75065Y130731D01*
X75372Y130372D01*
X75731Y130065D01*
X76000Y129901D01*
Y97099D01*
X75731Y96935D01*
X75372Y96628D01*
X75065Y96269D01*
X74819Y95866D01*
X74638Y95430D01*
X74528Y94971D01*
X74491Y94500D01*
X74528Y94029D01*
X74638Y93570D01*
X74819Y93134D01*
X75065Y92731D01*
X75372Y92372D01*
X75731Y92065D01*
X76000Y91901D01*
Y55099D01*
X75731Y54935D01*
X75372Y54628D01*
X75065Y54269D01*
X74819Y53866D01*
X74638Y53430D01*
X74528Y52971D01*
X74491Y52500D01*
X74528Y52029D01*
X74638Y51570D01*
X74819Y51134D01*
X75065Y50731D01*
X75372Y50372D01*
X75731Y50065D01*
X76134Y49819D01*
X76570Y49638D01*
X77029Y49528D01*
X77500Y49491D01*
X77971Y49528D01*
X78430Y49638D01*
X78866Y49819D01*
X79269Y50065D01*
X79628Y50372D01*
X79935Y50731D01*
X80004Y50844D01*
Y2500D01*
X72845D01*
Y218864D01*
G37*
G36*
Y277500D02*X80004D01*
Y258000D01*
X79626D01*
X78879Y257934D01*
X78142Y257803D01*
X77419Y257607D01*
X76716Y257349D01*
X76039Y257030D01*
X75392Y256652D01*
X74781Y256219D01*
X74721Y256166D01*
X74672Y256104D01*
X74632Y256034D01*
X74604Y255960D01*
X74588Y255881D01*
X74584Y255802D01*
X74593Y255722D01*
X74614Y255645D01*
X74647Y255573D01*
X74691Y255506D01*
X74744Y255447D01*
X74807Y255397D01*
X74876Y255357D01*
X74951Y255329D01*
X75029Y255313D01*
X75109Y255309D01*
X75188Y255318D01*
X75265Y255339D01*
X75338Y255372D01*
X75404Y255417D01*
X75938Y255805D01*
X76508Y256138D01*
X77105Y256419D01*
X77725Y256647D01*
X78362Y256819D01*
X79012Y256935D01*
X79670Y256993D01*
X80004D01*
Y242007D01*
X79670D01*
X79012Y242065D01*
X78362Y242181D01*
X77725Y242353D01*
X77105Y242581D01*
X76508Y242862D01*
X75938Y243195D01*
X75399Y243577D01*
X75334Y243621D01*
X75263Y243654D01*
X75187Y243675D01*
X75109Y243683D01*
X75030Y243680D01*
X74953Y243664D01*
X74879Y243636D01*
X74811Y243597D01*
X74749Y243548D01*
X74696Y243490D01*
X74653Y243424D01*
X74621Y243352D01*
X74600Y243276D01*
X74591Y243198D01*
X74595Y243119D01*
X74611Y243042D01*
X74639Y242969D01*
X74678Y242900D01*
X74727Y242839D01*
X74786Y242787D01*
X75392Y242348D01*
X76039Y241970D01*
X76716Y241651D01*
X77419Y241393D01*
X78142Y241197D01*
X78879Y241066D01*
X79626Y241000D01*
X80004D01*
Y235280D01*
X80000Y235280D01*
X78470Y235160D01*
X76978Y234801D01*
X75560Y234214D01*
X74251Y233412D01*
X73084Y232416D01*
X72845Y232136D01*
Y244896D01*
X72848Y244892D01*
X73281Y244281D01*
X73334Y244221D01*
X73396Y244172D01*
X73466Y244132D01*
X73540Y244104D01*
X73619Y244088D01*
X73698Y244084D01*
X73778Y244093D01*
X73855Y244114D01*
X73927Y244147D01*
X73994Y244191D01*
X74053Y244244D01*
X74103Y244307D01*
X74143Y244376D01*
X74171Y244451D01*
X74187Y244529D01*
X74191Y244609D01*
X74182Y244688D01*
X74161Y244765D01*
X74128Y244838D01*
X74083Y244904D01*
X73695Y245438D01*
X73362Y246008D01*
X73081Y246605D01*
X72853Y247225D01*
X72845Y247255D01*
Y251745D01*
X72853Y251775D01*
X73081Y252395D01*
X73362Y252992D01*
X73695Y253562D01*
X74077Y254101D01*
X74121Y254166D01*
X74154Y254237D01*
X74175Y254313D01*
X74183Y254391D01*
X74180Y254470D01*
X74164Y254547D01*
X74136Y254621D01*
X74097Y254689D01*
X74048Y254751D01*
X73990Y254804D01*
X73924Y254847D01*
X73852Y254879D01*
X73776Y254900D01*
X73698Y254909D01*
X73619Y254905D01*
X73542Y254889D01*
X73469Y254861D01*
X73400Y254822D01*
X73339Y254773D01*
X73287Y254714D01*
X72848Y254108D01*
X72845Y254104D01*
Y277500D01*
G37*
G36*
Y247255D02*X72681Y247862D01*
X72565Y248512D01*
X72507Y249170D01*
Y249830D01*
X72565Y250488D01*
X72681Y251138D01*
X72845Y251745D01*
Y247255D01*
G37*
G36*
X68155Y239745D02*X68319Y239138D01*
X68435Y238488D01*
X68493Y237830D01*
Y237170D01*
X68435Y236512D01*
X68319Y235862D01*
X68155Y235255D01*
Y239745D01*
G37*
G36*
Y277500D02*X72845D01*
Y254104D01*
X72470Y253461D01*
X72151Y252784D01*
X71893Y252081D01*
X71697Y251358D01*
X71566Y250621D01*
X71500Y249874D01*
Y249126D01*
X71566Y248380D01*
X71697Y247642D01*
X71893Y246919D01*
X72151Y246216D01*
X72470Y245539D01*
X72845Y244896D01*
Y232136D01*
X72088Y231249D01*
X71286Y229940D01*
X70699Y228522D01*
X70340Y227030D01*
X70220Y225500D01*
X70340Y223970D01*
X70699Y222478D01*
X71286Y221060D01*
X72088Y219751D01*
X72845Y218864D01*
Y2500D01*
X68155D01*
Y232896D01*
X68530Y233539D01*
X68849Y234216D01*
X69107Y234919D01*
X69303Y235642D01*
X69434Y236380D01*
X69500Y237126D01*
Y237874D01*
X69434Y238621D01*
X69303Y239358D01*
X69107Y240081D01*
X68849Y240784D01*
X68530Y241461D01*
X68155Y242104D01*
Y277500D01*
G37*
G36*
X61004D02*X68155D01*
Y242104D01*
X68152Y242108D01*
X67719Y242719D01*
X67666Y242779D01*
X67604Y242828D01*
X67534Y242868D01*
X67460Y242896D01*
X67381Y242912D01*
X67302Y242916D01*
X67222Y242907D01*
X67145Y242886D01*
X67073Y242853D01*
X67006Y242809D01*
X66947Y242756D01*
X66897Y242693D01*
X66857Y242624D01*
X66829Y242549D01*
X66813Y242471D01*
X66809Y242391D01*
X66818Y242312D01*
X66839Y242235D01*
X66872Y242162D01*
X66917Y242096D01*
X67305Y241562D01*
X67638Y240992D01*
X67919Y240395D01*
X68147Y239775D01*
X68155Y239745D01*
Y235255D01*
X68147Y235225D01*
X67919Y234605D01*
X67638Y234008D01*
X67305Y233438D01*
X66923Y232899D01*
X66879Y232834D01*
X66846Y232763D01*
X66825Y232687D01*
X66817Y232609D01*
X66820Y232530D01*
X66836Y232453D01*
X66864Y232379D01*
X66903Y232311D01*
X66952Y232249D01*
X67010Y232196D01*
X67076Y232153D01*
X67148Y232121D01*
X67224Y232100D01*
X67302Y232091D01*
X67381Y232095D01*
X67458Y232111D01*
X67531Y232139D01*
X67600Y232178D01*
X67661Y232227D01*
X67713Y232286D01*
X68152Y232892D01*
X68155Y232896D01*
Y2500D01*
X61004D01*
Y229000D01*
X61374D01*
X62121Y229066D01*
X62858Y229197D01*
X63581Y229393D01*
X64284Y229651D01*
X64961Y229970D01*
X65608Y230348D01*
X66219Y230781D01*
X66279Y230834D01*
X66328Y230896D01*
X66368Y230966D01*
X66396Y231040D01*
X66412Y231119D01*
X66416Y231198D01*
X66407Y231278D01*
X66386Y231355D01*
X66353Y231427D01*
X66309Y231494D01*
X66256Y231553D01*
X66193Y231603D01*
X66124Y231643D01*
X66049Y231671D01*
X65971Y231687D01*
X65891Y231691D01*
X65812Y231682D01*
X65735Y231661D01*
X65662Y231628D01*
X65596Y231583D01*
X65062Y231195D01*
X64492Y230862D01*
X63895Y230581D01*
X63275Y230353D01*
X62638Y230181D01*
X61988Y230065D01*
X61330Y230007D01*
X61004D01*
Y244993D01*
X61330D01*
X61988Y244935D01*
X62638Y244819D01*
X63275Y244647D01*
X63895Y244419D01*
X64492Y244138D01*
X65062Y243805D01*
X65601Y243423D01*
X65666Y243379D01*
X65737Y243346D01*
X65813Y243325D01*
X65891Y243317D01*
X65970Y243320D01*
X66047Y243336D01*
X66121Y243364D01*
X66189Y243403D01*
X66251Y243452D01*
X66304Y243510D01*
X66347Y243576D01*
X66379Y243648D01*
X66400Y243724D01*
X66409Y243802D01*
X66405Y243881D01*
X66389Y243958D01*
X66361Y244031D01*
X66322Y244100D01*
X66273Y244161D01*
X66214Y244213D01*
X65608Y244652D01*
X64961Y245030D01*
X64284Y245349D01*
X63581Y245607D01*
X62858Y245803D01*
X62121Y245934D01*
X61374Y246000D01*
X61004D01*
Y277500D01*
G37*
G36*
X53845D02*X61004D01*
Y246000D01*
X60626D01*
X59879Y245934D01*
X59142Y245803D01*
X58419Y245607D01*
X57716Y245349D01*
X57039Y245030D01*
X56392Y244652D01*
X55781Y244219D01*
X55721Y244166D01*
X55672Y244104D01*
X55632Y244034D01*
X55604Y243960D01*
X55588Y243881D01*
X55584Y243802D01*
X55593Y243722D01*
X55614Y243645D01*
X55647Y243573D01*
X55691Y243506D01*
X55744Y243447D01*
X55807Y243397D01*
X55876Y243357D01*
X55951Y243329D01*
X56029Y243313D01*
X56109Y243309D01*
X56188Y243318D01*
X56265Y243339D01*
X56338Y243372D01*
X56404Y243417D01*
X56938Y243805D01*
X57508Y244138D01*
X58105Y244419D01*
X58725Y244647D01*
X59362Y244819D01*
X60012Y244935D01*
X60670Y244993D01*
X61004D01*
Y230007D01*
X60670D01*
X60012Y230065D01*
X59362Y230181D01*
X58725Y230353D01*
X58105Y230581D01*
X57508Y230862D01*
X56938Y231195D01*
X56399Y231577D01*
X56334Y231621D01*
X56263Y231654D01*
X56187Y231675D01*
X56109Y231683D01*
X56030Y231680D01*
X55953Y231664D01*
X55879Y231636D01*
X55811Y231597D01*
X55749Y231548D01*
X55696Y231490D01*
X55653Y231424D01*
X55621Y231352D01*
X55600Y231276D01*
X55591Y231198D01*
X55595Y231119D01*
X55611Y231042D01*
X55639Y230969D01*
X55678Y230900D01*
X55727Y230839D01*
X55786Y230787D01*
X56392Y230348D01*
X57039Y229970D01*
X57716Y229651D01*
X58419Y229393D01*
X59142Y229197D01*
X59879Y229066D01*
X60626Y229000D01*
X61004D01*
Y2500D01*
X53845D01*
Y232896D01*
X53848Y232892D01*
X54281Y232281D01*
X54334Y232221D01*
X54396Y232172D01*
X54466Y232132D01*
X54540Y232104D01*
X54619Y232088D01*
X54698Y232084D01*
X54778Y232093D01*
X54855Y232114D01*
X54927Y232147D01*
X54994Y232191D01*
X55053Y232244D01*
X55103Y232307D01*
X55143Y232376D01*
X55171Y232451D01*
X55187Y232529D01*
X55191Y232609D01*
X55182Y232688D01*
X55161Y232765D01*
X55128Y232838D01*
X55083Y232904D01*
X54695Y233438D01*
X54362Y234008D01*
X54081Y234605D01*
X53853Y235225D01*
X53845Y235255D01*
Y239745D01*
X53853Y239775D01*
X54081Y240395D01*
X54362Y240992D01*
X54695Y241562D01*
X55077Y242101D01*
X55121Y242166D01*
X55154Y242237D01*
X55175Y242313D01*
X55183Y242391D01*
X55180Y242470D01*
X55164Y242547D01*
X55136Y242621D01*
X55097Y242689D01*
X55048Y242751D01*
X54990Y242804D01*
X54924Y242847D01*
X54852Y242879D01*
X54776Y242900D01*
X54698Y242909D01*
X54619Y242905D01*
X54542Y242889D01*
X54469Y242861D01*
X54400Y242822D01*
X54339Y242773D01*
X54287Y242714D01*
X53848Y242108D01*
X53845Y242104D01*
Y277500D01*
G37*
G36*
Y235255D02*X53681Y235862D01*
X53565Y236512D01*
X53507Y237170D01*
Y237830D01*
X53565Y238488D01*
X53681Y239138D01*
X53845Y239745D01*
Y235255D01*
G37*
G36*
X48613Y277500D02*X53845D01*
Y242104D01*
X53470Y241461D01*
X53151Y240784D01*
X52893Y240081D01*
X52697Y239358D01*
X52566Y238621D01*
X52500Y237874D01*
Y237126D01*
X52566Y236380D01*
X52697Y235642D01*
X52893Y234919D01*
X53151Y234216D01*
X53470Y233539D01*
X53845Y232896D01*
Y2500D01*
X48613D01*
Y43802D01*
X48652Y43847D01*
X49022Y44451D01*
X49293Y45105D01*
X49458Y45794D01*
X49500Y46500D01*
X49458Y47206D01*
X49293Y47895D01*
X49022Y48549D01*
X48652Y49153D01*
X48613Y49198D01*
Y53802D01*
X48652Y53847D01*
X49022Y54451D01*
X49293Y55105D01*
X49458Y55794D01*
X49500Y56500D01*
X49458Y57206D01*
X49293Y57895D01*
X49022Y58549D01*
X48652Y59153D01*
X48613Y59198D01*
Y63802D01*
X48652Y63847D01*
X49022Y64451D01*
X49293Y65105D01*
X49458Y65794D01*
X49500Y66500D01*
X49458Y67206D01*
X49293Y67895D01*
X49022Y68549D01*
X48652Y69153D01*
X48613Y69198D01*
Y73802D01*
X48652Y73847D01*
X49022Y74451D01*
X49293Y75105D01*
X49458Y75794D01*
X49500Y76500D01*
X49458Y77206D01*
X49293Y77895D01*
X49022Y78549D01*
X48652Y79153D01*
X48613Y79198D01*
Y83802D01*
X48652Y83847D01*
X49022Y84451D01*
X49293Y85105D01*
X49458Y85794D01*
X49500Y86500D01*
X49458Y87206D01*
X49293Y87895D01*
X49022Y88549D01*
X48652Y89153D01*
X48613Y89198D01*
Y93802D01*
X48652Y93847D01*
X49022Y94451D01*
X49293Y95105D01*
X49458Y95794D01*
X49500Y96500D01*
X49458Y97206D01*
X49293Y97895D01*
X49022Y98549D01*
X48652Y99153D01*
X48613Y99198D01*
Y103802D01*
X48652Y103847D01*
X49022Y104451D01*
X49293Y105105D01*
X49458Y105794D01*
X49500Y106500D01*
X49458Y107206D01*
X49293Y107895D01*
X49022Y108549D01*
X48652Y109153D01*
X48613Y109198D01*
Y113802D01*
X48652Y113847D01*
X49022Y114451D01*
X49293Y115105D01*
X49458Y115794D01*
X49500Y116500D01*
X49458Y117206D01*
X49293Y117895D01*
X49022Y118549D01*
X48652Y119153D01*
X48613Y119198D01*
Y123802D01*
X48652Y123847D01*
X49022Y124451D01*
X49293Y125105D01*
X49458Y125794D01*
X49500Y126500D01*
X49458Y127206D01*
X49293Y127895D01*
X49022Y128549D01*
X48652Y129153D01*
X48613Y129198D01*
Y133802D01*
X48652Y133847D01*
X49022Y134451D01*
X49293Y135105D01*
X49458Y135794D01*
X49500Y136500D01*
X49458Y137206D01*
X49293Y137895D01*
X49022Y138549D01*
X48652Y139153D01*
X48613Y139198D01*
Y143802D01*
X48652Y143847D01*
X49022Y144451D01*
X49293Y145105D01*
X49458Y145794D01*
X49500Y146500D01*
X49458Y147206D01*
X49293Y147895D01*
X49022Y148549D01*
X48652Y149153D01*
X48613Y149198D01*
Y154353D01*
X48656Y154360D01*
X48768Y154397D01*
X48873Y154452D01*
X48968Y154522D01*
X49051Y154606D01*
X49119Y154702D01*
X49170Y154808D01*
X49318Y155216D01*
X49422Y155637D01*
X49484Y156067D01*
X49505Y156500D01*
X49484Y156933D01*
X49422Y157363D01*
X49318Y157784D01*
X49175Y158194D01*
X49122Y158300D01*
X49053Y158396D01*
X48970Y158481D01*
X48875Y158551D01*
X48769Y158606D01*
X48657Y158643D01*
X48613Y158651D01*
Y163802D01*
X48652Y163847D01*
X49022Y164451D01*
X49293Y165105D01*
X49458Y165794D01*
X49500Y166500D01*
X49458Y167206D01*
X49293Y167895D01*
X49022Y168549D01*
X48652Y169153D01*
X48613Y169198D01*
Y173802D01*
X48652Y173847D01*
X49022Y174451D01*
X49293Y175105D01*
X49458Y175794D01*
X49500Y176500D01*
X49458Y177206D01*
X49293Y177895D01*
X49022Y178549D01*
X48652Y179153D01*
X48613Y179198D01*
Y182130D01*
X48683Y182159D01*
X48884Y182283D01*
X49064Y182436D01*
X49217Y182616D01*
X49341Y182817D01*
X49431Y183035D01*
X49486Y183265D01*
X49500Y183500D01*
X49486Y189735D01*
X49431Y189965D01*
X49341Y190183D01*
X49217Y190384D01*
X49064Y190564D01*
X48884Y190717D01*
X48683Y190841D01*
X48613Y190870D01*
Y277500D01*
G37*
G36*
Y179198D02*X48192Y179692D01*
X47653Y180152D01*
X47049Y180522D01*
X46395Y180793D01*
X45706Y180958D01*
X45000Y181014D01*
X44993Y181013D01*
Y182007D01*
X48235Y182014D01*
X48465Y182069D01*
X48613Y182130D01*
Y179198D01*
G37*
G36*
Y169198D02*X48192Y169692D01*
X47653Y170152D01*
X47049Y170522D01*
X46395Y170793D01*
X45706Y170958D01*
X45000Y171014D01*
X44993Y171013D01*
Y171987D01*
X45000Y171986D01*
X45706Y172042D01*
X46395Y172207D01*
X47049Y172478D01*
X47653Y172848D01*
X48192Y173308D01*
X48613Y173802D01*
Y169198D01*
G37*
G36*
Y149198D02*X48192Y149692D01*
X47653Y150152D01*
X47049Y150522D01*
X46395Y150793D01*
X45706Y150958D01*
X45000Y151014D01*
X44993Y151013D01*
Y151995D01*
X45000Y151995D01*
X45433Y152016D01*
X45863Y152078D01*
X46284Y152182D01*
X46694Y152325D01*
X46800Y152378D01*
X46896Y152447D01*
X46981Y152530D01*
X47051Y152625D01*
X47106Y152731D01*
X47143Y152843D01*
X47163Y152960D01*
X47164Y153079D01*
X47146Y153196D01*
X47110Y153309D01*
X47057Y153415D01*
X46988Y153512D01*
X46905Y153596D01*
X46809Y153667D01*
X46704Y153721D01*
X46592Y153759D01*
X46475Y153778D01*
X46356Y153779D01*
X46239Y153761D01*
X46126Y153723D01*
X45855Y153624D01*
X45575Y153556D01*
X45289Y153514D01*
X45000Y153500D01*
X44993Y153500D01*
Y159500D01*
X45000Y159500D01*
X45289Y159486D01*
X45575Y159444D01*
X45855Y159376D01*
X46128Y159280D01*
X46239Y159242D01*
X46356Y159225D01*
X46474Y159225D01*
X46591Y159245D01*
X46703Y159282D01*
X46807Y159336D01*
X46902Y159406D01*
X46985Y159491D01*
X47054Y159587D01*
X47107Y159692D01*
X47143Y159805D01*
X47160Y159921D01*
X47159Y160039D01*
X47140Y160156D01*
X47103Y160268D01*
X47048Y160373D01*
X46978Y160468D01*
X46894Y160551D01*
X46798Y160619D01*
X46692Y160670D01*
X46284Y160818D01*
X45863Y160922D01*
X45433Y160984D01*
X45000Y161005D01*
X44993Y161005D01*
Y161987D01*
X45000Y161986D01*
X45706Y162042D01*
X46395Y162207D01*
X47049Y162478D01*
X47653Y162848D01*
X48192Y163308D01*
X48613Y163802D01*
Y158651D01*
X48540Y158663D01*
X48421Y158664D01*
X48304Y158646D01*
X48191Y158610D01*
X48085Y158557D01*
X47988Y158488D01*
X47904Y158405D01*
X47833Y158309D01*
X47779Y158204D01*
X47741Y158092D01*
X47722Y157975D01*
X47721Y157856D01*
X47739Y157739D01*
X47777Y157626D01*
X47876Y157355D01*
X47944Y157075D01*
X47986Y156789D01*
X48000Y156500D01*
X47986Y156211D01*
X47944Y155925D01*
X47876Y155645D01*
X47780Y155372D01*
X47742Y155261D01*
X47725Y155144D01*
X47725Y155026D01*
X47745Y154909D01*
X47782Y154797D01*
X47836Y154693D01*
X47906Y154598D01*
X47991Y154515D01*
X48087Y154446D01*
X48192Y154393D01*
X48305Y154357D01*
X48421Y154340D01*
X48539Y154341D01*
X48613Y154353D01*
Y149198D01*
G37*
G36*
Y139198D02*X48192Y139692D01*
X47653Y140152D01*
X47049Y140522D01*
X46395Y140793D01*
X45706Y140958D01*
X45000Y141014D01*
X44993Y141013D01*
Y141987D01*
X45000Y141986D01*
X45706Y142042D01*
X46395Y142207D01*
X47049Y142478D01*
X47653Y142848D01*
X48192Y143308D01*
X48613Y143802D01*
Y139198D01*
G37*
G36*
Y129198D02*X48192Y129692D01*
X47653Y130152D01*
X47049Y130522D01*
X46395Y130793D01*
X45706Y130958D01*
X45000Y131014D01*
X44993Y131013D01*
Y131987D01*
X45000Y131986D01*
X45706Y132042D01*
X46395Y132207D01*
X47049Y132478D01*
X47653Y132848D01*
X48192Y133308D01*
X48613Y133802D01*
Y129198D01*
G37*
G36*
Y119198D02*X48192Y119692D01*
X47653Y120152D01*
X47049Y120522D01*
X46395Y120793D01*
X45706Y120958D01*
X45000Y121014D01*
X44993Y121013D01*
Y121987D01*
X45000Y121986D01*
X45706Y122042D01*
X46395Y122207D01*
X47049Y122478D01*
X47653Y122848D01*
X48192Y123308D01*
X48613Y123802D01*
Y119198D01*
G37*
G36*
Y109198D02*X48192Y109692D01*
X47653Y110152D01*
X47049Y110522D01*
X46395Y110793D01*
X45706Y110958D01*
X45000Y111014D01*
X44993Y111013D01*
Y111987D01*
X45000Y111986D01*
X45706Y112042D01*
X46395Y112207D01*
X47049Y112478D01*
X47653Y112848D01*
X48192Y113308D01*
X48613Y113802D01*
Y109198D01*
G37*
G36*
Y99198D02*X48192Y99692D01*
X47653Y100152D01*
X47049Y100522D01*
X46395Y100793D01*
X45706Y100958D01*
X45000Y101014D01*
X44993Y101013D01*
Y101987D01*
X45000Y101986D01*
X45706Y102042D01*
X46395Y102207D01*
X47049Y102478D01*
X47653Y102848D01*
X48192Y103308D01*
X48613Y103802D01*
Y99198D01*
G37*
G36*
Y89198D02*X48192Y89692D01*
X47653Y90152D01*
X47049Y90522D01*
X46395Y90793D01*
X45706Y90958D01*
X45000Y91014D01*
X44993Y91013D01*
Y91987D01*
X45000Y91986D01*
X45706Y92042D01*
X46395Y92207D01*
X47049Y92478D01*
X47653Y92848D01*
X48192Y93308D01*
X48613Y93802D01*
Y89198D01*
G37*
G36*
Y79198D02*X48192Y79692D01*
X47653Y80152D01*
X47049Y80522D01*
X46395Y80793D01*
X45706Y80958D01*
X45000Y81014D01*
X44993Y81013D01*
Y81987D01*
X45000Y81986D01*
X45706Y82042D01*
X46395Y82207D01*
X47049Y82478D01*
X47653Y82848D01*
X48192Y83308D01*
X48613Y83802D01*
Y79198D01*
G37*
G36*
Y69198D02*X48192Y69692D01*
X47653Y70152D01*
X47049Y70522D01*
X46395Y70793D01*
X45706Y70958D01*
X45000Y71014D01*
X44993Y71013D01*
Y71987D01*
X45000Y71986D01*
X45706Y72042D01*
X46395Y72207D01*
X47049Y72478D01*
X47653Y72848D01*
X48192Y73308D01*
X48613Y73802D01*
Y69198D01*
G37*
G36*
Y59198D02*X48192Y59692D01*
X47653Y60152D01*
X47049Y60522D01*
X46395Y60793D01*
X45706Y60958D01*
X45000Y61014D01*
X44993Y61013D01*
Y61987D01*
X45000Y61986D01*
X45706Y62042D01*
X46395Y62207D01*
X47049Y62478D01*
X47653Y62848D01*
X48192Y63308D01*
X48613Y63802D01*
Y59198D01*
G37*
G36*
Y49198D02*X48192Y49692D01*
X47653Y50152D01*
X47049Y50522D01*
X46395Y50793D01*
X45706Y50958D01*
X45000Y51014D01*
X44993Y51013D01*
Y51987D01*
X45000Y51986D01*
X45706Y52042D01*
X46395Y52207D01*
X47049Y52478D01*
X47653Y52848D01*
X48192Y53308D01*
X48613Y53802D01*
Y49198D01*
G37*
G36*
Y2500D02*X44993D01*
Y41987D01*
X45000Y41986D01*
X45706Y42042D01*
X46395Y42207D01*
X47049Y42478D01*
X47653Y42848D01*
X48192Y43308D01*
X48613Y43802D01*
Y2500D01*
G37*
G36*
X44993Y277500D02*X48613D01*
Y190870D01*
X48465Y190931D01*
X48235Y190986D01*
X48000Y191000D01*
X44993Y190993D01*
Y277500D01*
G37*
G36*
X41387Y43802D02*X41808Y43308D01*
X42347Y42848D01*
X42951Y42478D01*
X43605Y42207D01*
X44294Y42042D01*
X44993Y41987D01*
Y2500D01*
X41387D01*
Y43802D01*
G37*
G36*
Y53802D02*X41808Y53308D01*
X42347Y52848D01*
X42951Y52478D01*
X43605Y52207D01*
X44294Y52042D01*
X44993Y51987D01*
Y51013D01*
X44294Y50958D01*
X43605Y50793D01*
X42951Y50522D01*
X42347Y50152D01*
X41808Y49692D01*
X41387Y49198D01*
Y53802D01*
G37*
G36*
Y63802D02*X41808Y63308D01*
X42347Y62848D01*
X42951Y62478D01*
X43605Y62207D01*
X44294Y62042D01*
X44993Y61987D01*
Y61013D01*
X44294Y60958D01*
X43605Y60793D01*
X42951Y60522D01*
X42347Y60152D01*
X41808Y59692D01*
X41387Y59198D01*
Y63802D01*
G37*
G36*
Y73802D02*X41808Y73308D01*
X42347Y72848D01*
X42951Y72478D01*
X43605Y72207D01*
X44294Y72042D01*
X44993Y71987D01*
Y71013D01*
X44294Y70958D01*
X43605Y70793D01*
X42951Y70522D01*
X42347Y70152D01*
X41808Y69692D01*
X41387Y69198D01*
Y73802D01*
G37*
G36*
Y83802D02*X41808Y83308D01*
X42347Y82848D01*
X42951Y82478D01*
X43605Y82207D01*
X44294Y82042D01*
X44993Y81987D01*
Y81013D01*
X44294Y80958D01*
X43605Y80793D01*
X42951Y80522D01*
X42347Y80152D01*
X41808Y79692D01*
X41387Y79198D01*
Y83802D01*
G37*
G36*
Y93802D02*X41808Y93308D01*
X42347Y92848D01*
X42951Y92478D01*
X43605Y92207D01*
X44294Y92042D01*
X44993Y91987D01*
Y91013D01*
X44294Y90958D01*
X43605Y90793D01*
X42951Y90522D01*
X42347Y90152D01*
X41808Y89692D01*
X41387Y89198D01*
Y93802D01*
G37*
G36*
Y103802D02*X41808Y103308D01*
X42347Y102848D01*
X42951Y102478D01*
X43605Y102207D01*
X44294Y102042D01*
X44993Y101987D01*
Y101013D01*
X44294Y100958D01*
X43605Y100793D01*
X42951Y100522D01*
X42347Y100152D01*
X41808Y99692D01*
X41387Y99198D01*
Y103802D01*
G37*
G36*
Y113802D02*X41808Y113308D01*
X42347Y112848D01*
X42951Y112478D01*
X43605Y112207D01*
X44294Y112042D01*
X44993Y111987D01*
Y111013D01*
X44294Y110958D01*
X43605Y110793D01*
X42951Y110522D01*
X42347Y110152D01*
X41808Y109692D01*
X41387Y109198D01*
Y113802D01*
G37*
G36*
Y123802D02*X41808Y123308D01*
X42347Y122848D01*
X42951Y122478D01*
X43605Y122207D01*
X44294Y122042D01*
X44993Y121987D01*
Y121013D01*
X44294Y120958D01*
X43605Y120793D01*
X42951Y120522D01*
X42347Y120152D01*
X41808Y119692D01*
X41387Y119198D01*
Y123802D01*
G37*
G36*
Y133802D02*X41808Y133308D01*
X42347Y132848D01*
X42951Y132478D01*
X43605Y132207D01*
X44294Y132042D01*
X44993Y131987D01*
Y131013D01*
X44294Y130958D01*
X43605Y130793D01*
X42951Y130522D01*
X42347Y130152D01*
X41808Y129692D01*
X41387Y129198D01*
Y133802D01*
G37*
G36*
Y143802D02*X41808Y143308D01*
X42347Y142848D01*
X42951Y142478D01*
X43605Y142207D01*
X44294Y142042D01*
X44993Y141987D01*
Y141013D01*
X44294Y140958D01*
X43605Y140793D01*
X42951Y140522D01*
X42347Y140152D01*
X41808Y139692D01*
X41387Y139198D01*
Y143802D01*
G37*
G36*
Y163802D02*X41808Y163308D01*
X42347Y162848D01*
X42951Y162478D01*
X43605Y162207D01*
X44294Y162042D01*
X44993Y161987D01*
Y161005D01*
X44567Y160984D01*
X44137Y160922D01*
X43716Y160818D01*
X43306Y160675D01*
X43200Y160622D01*
X43104Y160553D01*
X43019Y160470D01*
X42949Y160375D01*
X42894Y160269D01*
X42857Y160157D01*
X42837Y160040D01*
X42836Y159921D01*
X42854Y159804D01*
X42890Y159691D01*
X42943Y159585D01*
X43012Y159488D01*
X43095Y159404D01*
X43191Y159333D01*
X43296Y159279D01*
X43408Y159241D01*
X43525Y159222D01*
X43644Y159221D01*
X43761Y159239D01*
X43874Y159277D01*
X44145Y159376D01*
X44425Y159444D01*
X44711Y159486D01*
X44993Y159500D01*
Y153500D01*
X44711Y153514D01*
X44425Y153556D01*
X44145Y153624D01*
X43872Y153720D01*
X43761Y153758D01*
X43644Y153775D01*
X43526Y153775D01*
X43409Y153755D01*
X43297Y153718D01*
X43193Y153664D01*
X43098Y153594D01*
X43015Y153509D01*
X42946Y153413D01*
X42893Y153308D01*
X42857Y153195D01*
X42840Y153079D01*
X42841Y152961D01*
X42860Y152844D01*
X42897Y152732D01*
X42952Y152627D01*
X43022Y152532D01*
X43106Y152449D01*
X43202Y152381D01*
X43308Y152330D01*
X43716Y152182D01*
X44137Y152078D01*
X44567Y152016D01*
X44993Y151995D01*
Y151013D01*
X44294Y150958D01*
X43605Y150793D01*
X42951Y150522D01*
X42347Y150152D01*
X41808Y149692D01*
X41387Y149198D01*
Y154349D01*
X41460Y154337D01*
X41579Y154336D01*
X41696Y154354D01*
X41809Y154390D01*
X41915Y154443D01*
X42012Y154512D01*
X42096Y154595D01*
X42167Y154691D01*
X42221Y154796D01*
X42259Y154908D01*
X42278Y155025D01*
X42279Y155144D01*
X42261Y155261D01*
X42223Y155374D01*
X42124Y155645D01*
X42056Y155925D01*
X42014Y156211D01*
X42000Y156500D01*
X42014Y156789D01*
X42056Y157075D01*
X42124Y157355D01*
X42220Y157628D01*
X42258Y157739D01*
X42275Y157856D01*
X42275Y157974D01*
X42255Y158091D01*
X42218Y158203D01*
X42164Y158307D01*
X42094Y158402D01*
X42009Y158485D01*
X41913Y158554D01*
X41808Y158607D01*
X41695Y158643D01*
X41579Y158660D01*
X41461Y158659D01*
X41387Y158647D01*
Y163802D01*
G37*
G36*
Y173802D02*X41808Y173308D01*
X42347Y172848D01*
X42951Y172478D01*
X43605Y172207D01*
X44294Y172042D01*
X44993Y171987D01*
Y171013D01*
X44294Y170958D01*
X43605Y170793D01*
X42951Y170522D01*
X42347Y170152D01*
X41808Y169692D01*
X41387Y169198D01*
Y173802D01*
G37*
G36*
Y182130D02*X41535Y182069D01*
X41765Y182014D01*
X42000Y182000D01*
X44993Y182007D01*
Y181013D01*
X44294Y180958D01*
X43605Y180793D01*
X42951Y180522D01*
X42347Y180152D01*
X41808Y179692D01*
X41387Y179198D01*
Y182130D01*
G37*
G36*
Y277500D02*X44993D01*
Y190993D01*
X41765Y190986D01*
X41535Y190931D01*
X41387Y190870D01*
Y277500D01*
G37*
G36*
X26493D02*X41387D01*
Y190870D01*
X41317Y190841D01*
X41116Y190717D01*
X40936Y190564D01*
X40783Y190384D01*
X40659Y190183D01*
X40569Y189965D01*
X40514Y189735D01*
X40500Y189500D01*
X40514Y183265D01*
X40569Y183035D01*
X40659Y182817D01*
X40783Y182616D01*
X40936Y182436D01*
X41116Y182283D01*
X41317Y182159D01*
X41387Y182130D01*
Y179198D01*
X41348Y179153D01*
X40978Y178549D01*
X40707Y177895D01*
X40542Y177206D01*
X40486Y176500D01*
X40542Y175794D01*
X40707Y175105D01*
X40978Y174451D01*
X41348Y173847D01*
X41387Y173802D01*
Y169198D01*
X41348Y169153D01*
X40978Y168549D01*
X40707Y167895D01*
X40542Y167206D01*
X40486Y166500D01*
X40542Y165794D01*
X40707Y165105D01*
X40978Y164451D01*
X41348Y163847D01*
X41387Y163802D01*
Y158647D01*
X41344Y158640D01*
X41232Y158603D01*
X41127Y158548D01*
X41032Y158478D01*
X40949Y158394D01*
X40881Y158298D01*
X40830Y158192D01*
X40682Y157784D01*
X40578Y157363D01*
X40516Y156933D01*
X40495Y156500D01*
X40516Y156067D01*
X40578Y155637D01*
X40682Y155216D01*
X40825Y154806D01*
X40878Y154700D01*
X40947Y154604D01*
X41030Y154519D01*
X41125Y154449D01*
X41231Y154394D01*
X41343Y154357D01*
X41387Y154349D01*
Y149198D01*
X41348Y149153D01*
X40978Y148549D01*
X40707Y147895D01*
X40542Y147206D01*
X40486Y146500D01*
X40542Y145794D01*
X40707Y145105D01*
X40978Y144451D01*
X41348Y143847D01*
X41387Y143802D01*
Y139198D01*
X41348Y139153D01*
X40978Y138549D01*
X40707Y137895D01*
X40542Y137206D01*
X40486Y136500D01*
X40542Y135794D01*
X40707Y135105D01*
X40978Y134451D01*
X41348Y133847D01*
X41387Y133802D01*
Y129198D01*
X41348Y129153D01*
X40978Y128549D01*
X40707Y127895D01*
X40542Y127206D01*
X40486Y126500D01*
X40542Y125794D01*
X40707Y125105D01*
X40978Y124451D01*
X41348Y123847D01*
X41387Y123802D01*
Y119198D01*
X41348Y119153D01*
X40978Y118549D01*
X40707Y117895D01*
X40542Y117206D01*
X40486Y116500D01*
X40542Y115794D01*
X40707Y115105D01*
X40978Y114451D01*
X41348Y113847D01*
X41387Y113802D01*
Y109198D01*
X41348Y109153D01*
X40978Y108549D01*
X40707Y107895D01*
X40542Y107206D01*
X40486Y106500D01*
X40542Y105794D01*
X40707Y105105D01*
X40978Y104451D01*
X41348Y103847D01*
X41387Y103802D01*
Y99198D01*
X41348Y99153D01*
X40978Y98549D01*
X40707Y97895D01*
X40542Y97206D01*
X40486Y96500D01*
X40542Y95794D01*
X40707Y95105D01*
X40978Y94451D01*
X41348Y93847D01*
X41387Y93802D01*
Y89198D01*
X41348Y89153D01*
X40978Y88549D01*
X40707Y87895D01*
X40542Y87206D01*
X40486Y86500D01*
X40542Y85794D01*
X40707Y85105D01*
X40978Y84451D01*
X41348Y83847D01*
X41387Y83802D01*
Y79198D01*
X41348Y79153D01*
X40978Y78549D01*
X40707Y77895D01*
X40542Y77206D01*
X40486Y76500D01*
X40542Y75794D01*
X40707Y75105D01*
X40978Y74451D01*
X41348Y73847D01*
X41387Y73802D01*
Y69198D01*
X41348Y69153D01*
X40978Y68549D01*
X40707Y67895D01*
X40542Y67206D01*
X40486Y66500D01*
X40542Y65794D01*
X40707Y65105D01*
X40978Y64451D01*
X41348Y63847D01*
X41387Y63802D01*
Y59198D01*
X41348Y59153D01*
X40978Y58549D01*
X40707Y57895D01*
X40542Y57206D01*
X40486Y56500D01*
X40542Y55794D01*
X40707Y55105D01*
X40978Y54451D01*
X41348Y53847D01*
X41387Y53802D01*
Y49198D01*
X41348Y49153D01*
X40978Y48549D01*
X40707Y47895D01*
X40542Y47206D01*
X40486Y46500D01*
X40542Y45794D01*
X40707Y45105D01*
X40978Y44451D01*
X41348Y43847D01*
X41387Y43802D01*
Y2500D01*
X26493D01*
Y4482D01*
X28124Y5876D01*
X29728Y7753D01*
X31018Y9858D01*
X31962Y12138D01*
X32539Y14539D01*
X32684Y17000D01*
X32539Y19461D01*
X31962Y21862D01*
X31018Y24142D01*
X29728Y26247D01*
X28124Y28124D01*
X26493Y29518D01*
Y38305D01*
X26916Y38995D01*
X27247Y39795D01*
X27449Y40637D01*
X27500Y41500D01*
X27449Y42363D01*
X27247Y43205D01*
X26916Y44005D01*
X26493Y44695D01*
Y48305D01*
X26916Y48995D01*
X27247Y49795D01*
X27449Y50637D01*
X27500Y51500D01*
X27449Y52363D01*
X27247Y53205D01*
X26916Y54005D01*
X26493Y54695D01*
Y58305D01*
X26916Y58995D01*
X27247Y59795D01*
X27449Y60637D01*
X27500Y61500D01*
X27449Y62363D01*
X27247Y63205D01*
X26916Y64005D01*
X26493Y64695D01*
Y68305D01*
X26916Y68995D01*
X27247Y69795D01*
X27449Y70637D01*
X27500Y71500D01*
X27449Y72363D01*
X27247Y73205D01*
X26916Y74005D01*
X26493Y74695D01*
Y78305D01*
X26916Y78995D01*
X27247Y79795D01*
X27449Y80637D01*
X27500Y81500D01*
X27449Y82363D01*
X27247Y83205D01*
X26916Y84005D01*
X26493Y84695D01*
Y88305D01*
X26916Y88995D01*
X27247Y89795D01*
X27449Y90637D01*
X27500Y91500D01*
X27449Y92363D01*
X27247Y93205D01*
X26916Y94005D01*
X26493Y94695D01*
Y98305D01*
X26916Y98995D01*
X27247Y99795D01*
X27449Y100637D01*
X27500Y101500D01*
X27449Y102363D01*
X27247Y103205D01*
X26916Y104005D01*
X26493Y104695D01*
Y106080D01*
X26683Y106159D01*
X26884Y106283D01*
X27064Y106436D01*
X27217Y106616D01*
X27341Y106817D01*
X27431Y107035D01*
X27486Y107265D01*
X27500Y107500D01*
X27486Y115735D01*
X27431Y115965D01*
X27341Y116183D01*
X27217Y116384D01*
X27064Y116564D01*
X26884Y116717D01*
X26683Y116841D01*
X26493Y116920D01*
Y122805D01*
X26916Y123495D01*
X27247Y124295D01*
X27449Y125137D01*
X27500Y126000D01*
X27449Y126863D01*
X27247Y127705D01*
X26916Y128505D01*
X26493Y129195D01*
Y132805D01*
X26916Y133495D01*
X27247Y134295D01*
X27449Y135137D01*
X27500Y136000D01*
X27449Y136863D01*
X27247Y137705D01*
X26916Y138505D01*
X26493Y139195D01*
Y142805D01*
X26916Y143495D01*
X27247Y144295D01*
X27449Y145137D01*
X27500Y146000D01*
X27449Y146863D01*
X27247Y147705D01*
X26916Y148505D01*
X26493Y149195D01*
Y152805D01*
X26916Y153495D01*
X27247Y154295D01*
X27449Y155137D01*
X27500Y156000D01*
X27449Y156863D01*
X27247Y157705D01*
X26916Y158505D01*
X26493Y159195D01*
Y162805D01*
X26916Y163495D01*
X27247Y164295D01*
X27449Y165137D01*
X27500Y166000D01*
X27449Y166863D01*
X27247Y167705D01*
X26916Y168505D01*
X26493Y169195D01*
Y172805D01*
X26916Y173495D01*
X27247Y174295D01*
X27449Y175137D01*
X27500Y176000D01*
X27449Y176863D01*
X27247Y177705D01*
X26916Y178505D01*
X26493Y179195D01*
Y182805D01*
X26916Y183495D01*
X27247Y184295D01*
X27449Y185137D01*
X27500Y186000D01*
X27449Y186863D01*
X27247Y187705D01*
X26916Y188505D01*
X26493Y189195D01*
Y190580D01*
X26683Y190659D01*
X26884Y190783D01*
X27064Y190936D01*
X27217Y191116D01*
X27341Y191317D01*
X27431Y191535D01*
X27486Y191765D01*
X27500Y192000D01*
X27486Y200235D01*
X27431Y200465D01*
X27341Y200683D01*
X27217Y200884D01*
X27064Y201064D01*
X26884Y201217D01*
X26683Y201341D01*
X26493Y201420D01*
Y211645D01*
X26578Y211681D01*
X26679Y211743D01*
X26769Y211819D01*
X26845Y211909D01*
X26905Y212011D01*
X27122Y212480D01*
X27289Y212969D01*
X27409Y213472D01*
X27482Y213984D01*
X27506Y214500D01*
X27482Y215016D01*
X27409Y215528D01*
X27289Y216031D01*
X27122Y216520D01*
X26910Y216992D01*
X26849Y217093D01*
X26772Y217184D01*
X26682Y217261D01*
X26580Y217323D01*
X26493Y217360D01*
Y229080D01*
X26683Y229159D01*
X26884Y229283D01*
X27064Y229436D01*
X27217Y229616D01*
X27341Y229817D01*
X27431Y230035D01*
X27486Y230265D01*
X27500Y230500D01*
X27486Y238735D01*
X27431Y238965D01*
X27341Y239183D01*
X27217Y239384D01*
X27064Y239564D01*
X26884Y239717D01*
X26683Y239841D01*
X26493Y239920D01*
Y250482D01*
X28124Y251876D01*
X29728Y253753D01*
X31018Y255858D01*
X31962Y258138D01*
X32539Y260539D01*
X32684Y263000D01*
X32539Y265461D01*
X31962Y267862D01*
X31018Y270142D01*
X29728Y272247D01*
X28124Y274124D01*
X26493Y275518D01*
Y277500D01*
G37*
G36*
Y239920D02*X26465Y239931D01*
X26235Y239986D01*
X26000Y240000D01*
X22000Y239993D01*
Y248095D01*
X24142Y248982D01*
X26247Y250272D01*
X26493Y250482D01*
Y239920D01*
G37*
G36*
Y201420D02*X26465Y201431D01*
X26235Y201486D01*
X26000Y201500D01*
X22000Y201493D01*
Y208994D01*
X22516Y209018D01*
X23028Y209091D01*
X23531Y209211D01*
X24020Y209378D01*
X24492Y209590D01*
X24593Y209651D01*
X24684Y209728D01*
X24761Y209818D01*
X24823Y209920D01*
X24869Y210029D01*
X24897Y210145D01*
X24906Y210263D01*
X24897Y210381D01*
X24870Y210497D01*
X24824Y210607D01*
X24762Y210708D01*
X24686Y210798D01*
X24595Y210876D01*
X24494Y210938D01*
X24385Y210984D01*
X24269Y211011D01*
X24151Y211021D01*
X24032Y211012D01*
X23917Y210984D01*
X23808Y210937D01*
X23468Y210779D01*
X23112Y210658D01*
X22747Y210570D01*
X22375Y210518D01*
X22000Y210500D01*
Y218500D01*
X22375Y218482D01*
X22747Y218430D01*
X23112Y218342D01*
X23468Y218221D01*
X23810Y218067D01*
X23918Y218020D01*
X24033Y217993D01*
X24151Y217983D01*
X24268Y217993D01*
X24383Y218021D01*
X24492Y218066D01*
X24593Y218128D01*
X24682Y218205D01*
X24759Y218295D01*
X24820Y218395D01*
X24865Y218504D01*
X24893Y218619D01*
X24902Y218737D01*
X24892Y218855D01*
X24865Y218969D01*
X24819Y219078D01*
X24757Y219179D01*
X24681Y219269D01*
X24591Y219345D01*
X24489Y219405D01*
X24020Y219622D01*
X23531Y219789D01*
X23028Y219909D01*
X22516Y219982D01*
X22000Y220006D01*
Y229007D01*
X26235Y229014D01*
X26465Y229069D01*
X26493Y229080D01*
Y217360D01*
X26471Y217369D01*
X26355Y217397D01*
X26237Y217406D01*
X26119Y217397D01*
X26003Y217370D01*
X25893Y217324D01*
X25792Y217262D01*
X25702Y217186D01*
X25624Y217095D01*
X25562Y216994D01*
X25516Y216885D01*
X25489Y216769D01*
X25479Y216651D01*
X25488Y216532D01*
X25516Y216417D01*
X25563Y216308D01*
X25721Y215968D01*
X25842Y215612D01*
X25930Y215247D01*
X25982Y214875D01*
X26000Y214500D01*
X25982Y214125D01*
X25930Y213753D01*
X25842Y213388D01*
X25721Y213032D01*
X25567Y212690D01*
X25520Y212582D01*
X25493Y212467D01*
X25483Y212349D01*
X25493Y212232D01*
X25521Y212117D01*
X25566Y212008D01*
X25628Y211907D01*
X25705Y211818D01*
X25795Y211741D01*
X25895Y211680D01*
X26004Y211635D01*
X26119Y211607D01*
X26237Y211598D01*
X26355Y211608D01*
X26469Y211635D01*
X26493Y211645D01*
Y201420D01*
G37*
G36*
Y189195D02*X26463Y189243D01*
X25901Y189901D01*
X25243Y190463D01*
X25163Y190512D01*
X26235Y190514D01*
X26465Y190569D01*
X26493Y190580D01*
Y189195D01*
G37*
G36*
Y179195D02*X26463Y179243D01*
X25901Y179901D01*
X25243Y180463D01*
X24505Y180916D01*
X24301Y181000D01*
X24505Y181084D01*
X25243Y181537D01*
X25901Y182099D01*
X26463Y182757D01*
X26493Y182805D01*
Y179195D01*
G37*
G36*
Y169195D02*X26463Y169243D01*
X25901Y169901D01*
X25243Y170463D01*
X24505Y170916D01*
X24301Y171000D01*
X24505Y171084D01*
X25243Y171537D01*
X25901Y172099D01*
X26463Y172757D01*
X26493Y172805D01*
Y169195D01*
G37*
G36*
Y159195D02*X26463Y159243D01*
X25901Y159901D01*
X25243Y160463D01*
X24505Y160916D01*
X24301Y161000D01*
X24505Y161084D01*
X25243Y161537D01*
X25901Y162099D01*
X26463Y162757D01*
X26493Y162805D01*
Y159195D01*
G37*
G36*
Y149195D02*X26463Y149243D01*
X25901Y149901D01*
X25243Y150463D01*
X24505Y150916D01*
X24301Y151000D01*
X24505Y151084D01*
X25243Y151537D01*
X25901Y152099D01*
X26463Y152757D01*
X26493Y152805D01*
Y149195D01*
G37*
G36*
Y139195D02*X26463Y139243D01*
X25901Y139901D01*
X25243Y140463D01*
X24505Y140916D01*
X24301Y141000D01*
X24505Y141084D01*
X25243Y141537D01*
X25901Y142099D01*
X26463Y142757D01*
X26493Y142805D01*
Y139195D01*
G37*
G36*
Y129195D02*X26463Y129243D01*
X25901Y129901D01*
X25243Y130463D01*
X24505Y130916D01*
X24301Y131000D01*
X24505Y131084D01*
X25243Y131537D01*
X25901Y132099D01*
X26463Y132757D01*
X26493Y132805D01*
Y129195D01*
G37*
G36*
Y116920D02*X26465Y116931D01*
X26235Y116986D01*
X26000Y117000D01*
X22000Y116993D01*
Y120483D01*
X22863Y120551D01*
X23705Y120753D01*
X24505Y121084D01*
X25243Y121537D01*
X25901Y122099D01*
X26463Y122757D01*
X26493Y122805D01*
Y116920D01*
G37*
G36*
Y104695D02*X26463Y104743D01*
X25901Y105401D01*
X25243Y105963D01*
X25163Y106012D01*
X26235Y106014D01*
X26465Y106069D01*
X26493Y106080D01*
Y104695D01*
G37*
G36*
Y94695D02*X26463Y94743D01*
X25901Y95401D01*
X25243Y95963D01*
X24505Y96416D01*
X24301Y96500D01*
X24505Y96584D01*
X25243Y97037D01*
X25901Y97599D01*
X26463Y98257D01*
X26493Y98305D01*
Y94695D01*
G37*
G36*
Y84695D02*X26463Y84743D01*
X25901Y85401D01*
X25243Y85963D01*
X24505Y86416D01*
X24301Y86500D01*
X24505Y86584D01*
X25243Y87037D01*
X25901Y87599D01*
X26463Y88257D01*
X26493Y88305D01*
Y84695D01*
G37*
G36*
Y74695D02*X26463Y74743D01*
X25901Y75401D01*
X25243Y75963D01*
X24505Y76416D01*
X24301Y76500D01*
X24505Y76584D01*
X25243Y77037D01*
X25901Y77599D01*
X26463Y78257D01*
X26493Y78305D01*
Y74695D01*
G37*
G36*
Y64695D02*X26463Y64743D01*
X25901Y65401D01*
X25243Y65963D01*
X24505Y66416D01*
X24301Y66500D01*
X24505Y66584D01*
X25243Y67037D01*
X25901Y67599D01*
X26463Y68257D01*
X26493Y68305D01*
Y64695D01*
G37*
G36*
Y54695D02*X26463Y54743D01*
X25901Y55401D01*
X25243Y55963D01*
X24505Y56416D01*
X24301Y56500D01*
X24505Y56584D01*
X25243Y57037D01*
X25901Y57599D01*
X26463Y58257D01*
X26493Y58305D01*
Y54695D01*
G37*
G36*
Y44695D02*X26463Y44743D01*
X25901Y45401D01*
X25243Y45963D01*
X24505Y46416D01*
X24301Y46500D01*
X24505Y46584D01*
X25243Y47037D01*
X25901Y47599D01*
X26463Y48257D01*
X26493Y48305D01*
Y44695D01*
G37*
G36*
Y29518D02*X26247Y29728D01*
X24142Y31018D01*
X22000Y31905D01*
Y35983D01*
X22863Y36051D01*
X23705Y36253D01*
X24505Y36584D01*
X25243Y37037D01*
X25901Y37599D01*
X26463Y38257D01*
X26493Y38305D01*
Y29518D01*
G37*
G36*
Y2500D02*X22978D01*
X24142Y2982D01*
X26247Y4272D01*
X26493Y4482D01*
Y2500D01*
G37*
G36*
X22978Y277500D02*X26493D01*
Y275518D01*
X26247Y275728D01*
X24142Y277018D01*
X22978Y277500D01*
G37*
G36*
X17507Y48305D02*X17537Y48257D01*
X18099Y47599D01*
X18757Y47037D01*
X19495Y46584D01*
X19699Y46500D01*
X19495Y46416D01*
X18757Y45963D01*
X18099Y45401D01*
X17537Y44743D01*
X17507Y44695D01*
Y48305D01*
G37*
G36*
Y58305D02*X17537Y58257D01*
X18099Y57599D01*
X18757Y57037D01*
X19495Y56584D01*
X19699Y56500D01*
X19495Y56416D01*
X18757Y55963D01*
X18099Y55401D01*
X17537Y54743D01*
X17507Y54695D01*
Y58305D01*
G37*
G36*
Y68305D02*X17537Y68257D01*
X18099Y67599D01*
X18757Y67037D01*
X19495Y66584D01*
X19699Y66500D01*
X19495Y66416D01*
X18757Y65963D01*
X18099Y65401D01*
X17537Y64743D01*
X17507Y64695D01*
Y68305D01*
G37*
G36*
Y78305D02*X17537Y78257D01*
X18099Y77599D01*
X18757Y77037D01*
X19495Y76584D01*
X19699Y76500D01*
X19495Y76416D01*
X18757Y75963D01*
X18099Y75401D01*
X17537Y74743D01*
X17507Y74695D01*
Y78305D01*
G37*
G36*
Y88305D02*X17537Y88257D01*
X18099Y87599D01*
X18757Y87037D01*
X19495Y86584D01*
X19699Y86500D01*
X19495Y86416D01*
X18757Y85963D01*
X18099Y85401D01*
X17537Y84743D01*
X17507Y84695D01*
Y88305D01*
G37*
G36*
Y98305D02*X17537Y98257D01*
X18099Y97599D01*
X18757Y97037D01*
X19495Y96584D01*
X19699Y96500D01*
X19495Y96416D01*
X18757Y95963D01*
X18099Y95401D01*
X17537Y94743D01*
X17507Y94695D01*
Y98305D01*
G37*
G36*
Y106080D02*X17535Y106069D01*
X17765Y106014D01*
X18000Y106000D01*
X18819Y106001D01*
X18757Y105963D01*
X18099Y105401D01*
X17537Y104743D01*
X17507Y104695D01*
Y106080D01*
G37*
G36*
Y122805D02*X17537Y122757D01*
X18099Y122099D01*
X18757Y121537D01*
X19495Y121084D01*
X20295Y120753D01*
X21137Y120551D01*
X22000Y120483D01*
Y116993D01*
X17765Y116986D01*
X17535Y116931D01*
X17507Y116920D01*
Y122805D01*
G37*
G36*
Y132805D02*X17537Y132757D01*
X18099Y132099D01*
X18757Y131537D01*
X19495Y131084D01*
X19699Y131000D01*
X19495Y130916D01*
X18757Y130463D01*
X18099Y129901D01*
X17537Y129243D01*
X17507Y129195D01*
Y132805D01*
G37*
G36*
Y142805D02*X17537Y142757D01*
X18099Y142099D01*
X18757Y141537D01*
X19495Y141084D01*
X19699Y141000D01*
X19495Y140916D01*
X18757Y140463D01*
X18099Y139901D01*
X17537Y139243D01*
X17507Y139195D01*
Y142805D01*
G37*
G36*
Y152805D02*X17537Y152757D01*
X18099Y152099D01*
X18757Y151537D01*
X19495Y151084D01*
X19699Y151000D01*
X19495Y150916D01*
X18757Y150463D01*
X18099Y149901D01*
X17537Y149243D01*
X17507Y149195D01*
Y152805D01*
G37*
G36*
Y162805D02*X17537Y162757D01*
X18099Y162099D01*
X18757Y161537D01*
X19495Y161084D01*
X19699Y161000D01*
X19495Y160916D01*
X18757Y160463D01*
X18099Y159901D01*
X17537Y159243D01*
X17507Y159195D01*
Y162805D01*
G37*
G36*
Y172805D02*X17537Y172757D01*
X18099Y172099D01*
X18757Y171537D01*
X19495Y171084D01*
X19699Y171000D01*
X19495Y170916D01*
X18757Y170463D01*
X18099Y169901D01*
X17537Y169243D01*
X17507Y169195D01*
Y172805D01*
G37*
G36*
Y182805D02*X17537Y182757D01*
X18099Y182099D01*
X18757Y181537D01*
X19495Y181084D01*
X19699Y181000D01*
X19495Y180916D01*
X18757Y180463D01*
X18099Y179901D01*
X17537Y179243D01*
X17507Y179195D01*
Y182805D01*
G37*
G36*
Y190580D02*X17535Y190569D01*
X17765Y190514D01*
X18000Y190500D01*
X18819Y190501D01*
X18757Y190463D01*
X18099Y189901D01*
X17537Y189243D01*
X17507Y189195D01*
Y190580D01*
G37*
G36*
Y229080D02*X17535Y229069D01*
X17765Y229014D01*
X18000Y229000D01*
X22000Y229007D01*
Y220006D01*
X22000D01*
X21484Y219982D01*
X20972Y219909D01*
X20469Y219789D01*
X19980Y219622D01*
X19508Y219410D01*
X19407Y219349D01*
X19316Y219272D01*
X19239Y219182D01*
X19177Y219080D01*
X19131Y218971D01*
X19103Y218855D01*
X19094Y218737D01*
X19103Y218619D01*
X19130Y218503D01*
X19176Y218393D01*
X19238Y218292D01*
X19314Y218202D01*
X19405Y218124D01*
X19506Y218062D01*
X19615Y218016D01*
X19731Y217989D01*
X19849Y217979D01*
X19968Y217988D01*
X20083Y218016D01*
X20192Y218063D01*
X20532Y218221D01*
X20888Y218342D01*
X21253Y218430D01*
X21625Y218482D01*
X22000Y218500D01*
Y210500D01*
X21625Y210518D01*
X21253Y210570D01*
X20888Y210658D01*
X20532Y210779D01*
X20190Y210933D01*
X20082Y210980D01*
X19967Y211007D01*
X19849Y211017D01*
X19732Y211007D01*
X19617Y210979D01*
X19508Y210934D01*
X19407Y210872D01*
X19318Y210795D01*
X19241Y210705D01*
X19180Y210605D01*
X19135Y210496D01*
X19107Y210381D01*
X19098Y210263D01*
X19108Y210145D01*
X19135Y210031D01*
X19181Y209922D01*
X19243Y209821D01*
X19319Y209731D01*
X19409Y209655D01*
X19511Y209595D01*
X19980Y209378D01*
X20469Y209211D01*
X20972Y209091D01*
X21484Y209018D01*
X22000Y208994D01*
X22000D01*
Y201493D01*
X17765Y201486D01*
X17535Y201431D01*
X17507Y201420D01*
Y211640D01*
X17529Y211631D01*
X17645Y211603D01*
X17763Y211594D01*
X17881Y211603D01*
X17997Y211630D01*
X18107Y211676D01*
X18208Y211738D01*
X18298Y211814D01*
X18376Y211905D01*
X18438Y212006D01*
X18484Y212115D01*
X18511Y212231D01*
X18521Y212349D01*
X18512Y212468D01*
X18484Y212583D01*
X18437Y212692D01*
X18279Y213032D01*
X18158Y213388D01*
X18070Y213753D01*
X18018Y214125D01*
X18000Y214500D01*
X18018Y214875D01*
X18070Y215247D01*
X18158Y215612D01*
X18279Y215968D01*
X18433Y216310D01*
X18480Y216418D01*
X18507Y216533D01*
X18517Y216651D01*
X18507Y216768D01*
X18479Y216883D01*
X18434Y216992D01*
X18372Y217093D01*
X18295Y217182D01*
X18205Y217259D01*
X18105Y217320D01*
X17996Y217365D01*
X17881Y217393D01*
X17763Y217402D01*
X17645Y217392D01*
X17531Y217365D01*
X17507Y217355D01*
Y229080D01*
G37*
G36*
Y247308D02*X19461Y247461D01*
X21862Y248038D01*
X22000Y248095D01*
Y239993D01*
X17765Y239986D01*
X17535Y239931D01*
X17507Y239920D01*
Y247308D01*
G37*
G36*
X22000Y31905D02*X21862Y31962D01*
X19461Y32539D01*
X17507Y32692D01*
Y38305D01*
X17537Y38257D01*
X18099Y37599D01*
X18757Y37037D01*
X19495Y36584D01*
X20295Y36253D01*
X21137Y36051D01*
X22000Y35983D01*
Y31905D01*
G37*
G36*
X17507Y32692D02*X17000Y32732D01*
X14539Y32539D01*
X12138Y31962D01*
X9858Y31018D01*
X7753Y29728D01*
X5876Y28124D01*
X4272Y26247D01*
X2982Y24142D01*
X2500Y22978D01*
Y257022D01*
X2982Y255858D01*
X4272Y253753D01*
X5876Y251876D01*
X7753Y250272D01*
X9858Y248982D01*
X12138Y248038D01*
X14539Y247461D01*
X17000Y247268D01*
X17507Y247308D01*
Y239920D01*
X17317Y239841D01*
X17116Y239717D01*
X16936Y239564D01*
X16783Y239384D01*
X16659Y239183D01*
X16569Y238965D01*
X16514Y238735D01*
X16500Y238500D01*
X16514Y230265D01*
X16569Y230035D01*
X16659Y229817D01*
X16783Y229616D01*
X16936Y229436D01*
X17116Y229283D01*
X17317Y229159D01*
X17507Y229080D01*
Y217355D01*
X17422Y217319D01*
X17321Y217257D01*
X17231Y217181D01*
X17155Y217091D01*
X17095Y216989D01*
X16878Y216520D01*
X16711Y216031D01*
X16591Y215528D01*
X16518Y215016D01*
X16494Y214500D01*
X16518Y213984D01*
X16591Y213472D01*
X16711Y212969D01*
X16878Y212480D01*
X17090Y212008D01*
X17151Y211907D01*
X17228Y211816D01*
X17318Y211739D01*
X17420Y211677D01*
X17507Y211640D01*
Y201420D01*
X17317Y201341D01*
X17116Y201217D01*
X16936Y201064D01*
X16783Y200884D01*
X16659Y200683D01*
X16569Y200465D01*
X16514Y200235D01*
X16500Y200000D01*
X16514Y191765D01*
X16569Y191535D01*
X16659Y191317D01*
X16783Y191116D01*
X16936Y190936D01*
X17116Y190783D01*
X17317Y190659D01*
X17507Y190580D01*
Y189195D01*
X17084Y188505D01*
X16753Y187705D01*
X16551Y186863D01*
X16483Y186000D01*
X16551Y185137D01*
X16753Y184295D01*
X17084Y183495D01*
X17507Y182805D01*
Y179195D01*
X17084Y178505D01*
X16753Y177705D01*
X16551Y176863D01*
X16483Y176000D01*
X16551Y175137D01*
X16753Y174295D01*
X17084Y173495D01*
X17507Y172805D01*
Y169195D01*
X17084Y168505D01*
X16753Y167705D01*
X16551Y166863D01*
X16483Y166000D01*
X16551Y165137D01*
X16753Y164295D01*
X17084Y163495D01*
X17507Y162805D01*
Y159195D01*
X17084Y158505D01*
X16753Y157705D01*
X16551Y156863D01*
X16483Y156000D01*
X16551Y155137D01*
X16753Y154295D01*
X17084Y153495D01*
X17507Y152805D01*
Y149195D01*
X17084Y148505D01*
X16753Y147705D01*
X16551Y146863D01*
X16483Y146000D01*
X16551Y145137D01*
X16753Y144295D01*
X17084Y143495D01*
X17507Y142805D01*
Y139195D01*
X17084Y138505D01*
X16753Y137705D01*
X16551Y136863D01*
X16483Y136000D01*
X16551Y135137D01*
X16753Y134295D01*
X17084Y133495D01*
X17507Y132805D01*
Y129195D01*
X17084Y128505D01*
X16753Y127705D01*
X16551Y126863D01*
X16483Y126000D01*
X16551Y125137D01*
X16753Y124295D01*
X17084Y123495D01*
X17507Y122805D01*
Y116920D01*
X17317Y116841D01*
X17116Y116717D01*
X16936Y116564D01*
X16783Y116384D01*
X16659Y116183D01*
X16569Y115965D01*
X16514Y115735D01*
X16500Y115500D01*
X16514Y107265D01*
X16569Y107035D01*
X16659Y106817D01*
X16783Y106616D01*
X16936Y106436D01*
X17116Y106283D01*
X17317Y106159D01*
X17507Y106080D01*
Y104695D01*
X17084Y104005D01*
X16753Y103205D01*
X16551Y102363D01*
X16483Y101500D01*
X16551Y100637D01*
X16753Y99795D01*
X17084Y98995D01*
X17507Y98305D01*
Y94695D01*
X17084Y94005D01*
X16753Y93205D01*
X16551Y92363D01*
X16483Y91500D01*
X16551Y90637D01*
X16753Y89795D01*
X17084Y88995D01*
X17507Y88305D01*
Y84695D01*
X17084Y84005D01*
X16753Y83205D01*
X16551Y82363D01*
X16483Y81500D01*
X16551Y80637D01*
X16753Y79795D01*
X17084Y78995D01*
X17507Y78305D01*
Y74695D01*
X17084Y74005D01*
X16753Y73205D01*
X16551Y72363D01*
X16483Y71500D01*
X16551Y70637D01*
X16753Y69795D01*
X17084Y68995D01*
X17507Y68305D01*
Y64695D01*
X17084Y64005D01*
X16753Y63205D01*
X16551Y62363D01*
X16483Y61500D01*
X16551Y60637D01*
X16753Y59795D01*
X17084Y58995D01*
X17507Y58305D01*
Y54695D01*
X17084Y54005D01*
X16753Y53205D01*
X16551Y52363D01*
X16483Y51500D01*
X16551Y50637D01*
X16753Y49795D01*
X17084Y48995D01*
X17507Y48305D01*
Y44695D01*
X17084Y44005D01*
X16753Y43205D01*
X16551Y42363D01*
X16483Y41500D01*
X16551Y40637D01*
X16753Y39795D01*
X17084Y38995D01*
X17507Y38305D01*
Y32692D01*
G37*
G54D39*X86000Y130000D02*Y120000D01*
X89500Y116500D01*
X105000D01*
X82500Y94500D02*Y54500D01*
X84000Y53000D01*
X97000D01*
X77500Y52500D02*Y132500D01*
G54D40*X17000Y17000D03*
X123000D03*
G54D41*X45000Y66500D03*
Y56500D03*
Y46500D03*
X105000D03*
Y56500D03*
Y66500D03*
G54D42*X22000Y61500D03*
Y51500D03*
Y41500D03*
G54D40*X122500Y262500D03*
X17000Y263000D03*
G54D43*X80000Y225500D03*
G54D44*Y249500D03*
X61000Y237500D03*
G54D38*G36*
X18000Y238500D02*Y230500D01*
X26000D01*
Y238500D01*
X18000D01*
G37*
G54D41*X105000Y166500D03*
Y176500D03*
Y186500D03*
X45000Y156500D03*
Y146500D03*
Y136500D03*
Y126500D03*
Y116500D03*
Y106500D03*
Y96500D03*
Y86500D03*
G54D38*G36*
X42000Y189500D02*Y183500D01*
X48000D01*
Y189500D01*
X42000D01*
G37*
G36*
X18000Y200000D02*Y192000D01*
X26000D01*
Y200000D01*
X18000D01*
G37*
G54D42*X22000Y186000D03*
Y214500D03*
G54D41*X45000Y176500D03*
G54D42*X22000Y176000D03*
G54D41*X45000Y166500D03*
G54D42*X22000Y166000D03*
Y156000D03*
Y146000D03*
Y136000D03*
Y126000D03*
G54D38*G36*
X18000Y115500D02*Y107500D01*
X26000D01*
Y115500D01*
X18000D01*
G37*
G54D42*X22000Y101500D03*
Y91500D03*
Y81500D03*
Y71500D03*
G54D41*X45000Y76500D03*
X105000D03*
Y86500D03*
Y96500D03*
Y106500D03*
Y146500D03*
Y156500D03*
Y116500D03*
Y126500D03*
Y136500D03*
G54D38*G36*
X129000Y115500D02*Y109500D01*
X135000D01*
Y115500D01*
X129000D01*
G37*
G54D45*X96957Y83000D03*
Y73000D03*
Y63000D03*
X97000Y53000D03*
X96071Y103563D03*
Y93563D03*
X77500Y94500D03*
X82500D03*
X118500Y110500D03*
X77500Y52500D03*
Y132500D03*
X86000Y130000D03*
X127500Y192000D03*
X132500D03*
X116000Y164500D03*
Y159500D03*
X127500Y197000D03*
X132500D03*
Y202000D03*
Y207000D03*
Y212000D03*
X127500Y202000D03*
Y207000D03*
G54D46*G54D47*G54D48*G54D49*G54D47*G54D50*G54D51*G54D49*G54D48*G54D49*G54D48*G54D49*G54D48*G54D49*G54D48*G54D52*M02*
