G04 start of page 3 for group 1 idx 1 *
G04 Title: (unknown), solder *
G04 Creator: pcb 20140316 *
G04 CreationDate: Thu 22 Dec 2016 06:12:03 PM GMT UTC *
G04 For: ndholmes *
G04 Format: Gerber/RS-274X *
G04 PCB-Dimensions (mil): 2100.00 2700.00 *
G04 PCB-Coordinate-Origin: lower left *
%MOIN*%
%FSLAX25Y25*%
%LNBOTTOM*%
%ADD51C,0.0480*%
%ADD50C,0.1285*%
%ADD49C,0.0380*%
%ADD48R,0.0300X0.0300*%
%ADD47C,0.0600*%
%ADD46C,0.0800*%
%ADD45C,0.1500*%
%ADD44C,0.0680*%
%ADD43C,0.0200*%
%ADD42C,0.0150*%
%ADD41C,0.0400*%
%ADD40C,0.0100*%
%ADD39C,0.0001*%
G54D39*G36*
X102500Y147000D02*Y143618D01*
X102491Y143500D01*
X102500Y143382D01*
Y117500D01*
X102472Y117971D01*
X102362Y118430D01*
X102181Y118866D01*
X101935Y119269D01*
X101628Y119628D01*
X101269Y119935D01*
X100866Y120181D01*
X100430Y120362D01*
X99971Y120472D01*
X99500Y120509D01*
X99029Y120472D01*
X98570Y120362D01*
X98134Y120181D01*
X97731Y119935D01*
X97372Y119628D01*
X97065Y119269D01*
X96819Y118866D01*
X96638Y118430D01*
X96528Y117971D01*
X96500Y117500D01*
Y113000D01*
X51500D01*
Y147000D01*
X102500D01*
G37*
G36*
X134500Y103000D02*X133505D01*
X133486Y103235D01*
X133431Y103465D01*
X133341Y103683D01*
X133217Y103884D01*
X133064Y104064D01*
X132884Y104217D01*
X132683Y104341D01*
X132465Y104431D01*
X132235Y104486D01*
X132000Y104500D01*
X114121D01*
X112000Y106621D01*
Y140901D01*
X112269Y141065D01*
X112628Y141372D01*
X112935Y141731D01*
X113181Y142134D01*
X113362Y142570D01*
X113472Y143029D01*
X113500Y143500D01*
X113472Y143971D01*
X113362Y144430D01*
X113181Y144866D01*
X112935Y145269D01*
X112628Y145628D01*
X112269Y145935D01*
X111866Y146181D01*
X111430Y146362D01*
X110971Y146472D01*
X110500Y146509D01*
X110029Y146472D01*
X109570Y146362D01*
X109134Y146181D01*
X108731Y145935D01*
X108372Y145628D01*
X108065Y145269D01*
X108000Y145162D01*
X107935Y145269D01*
X107628Y145628D01*
X107269Y145935D01*
X107000Y146099D01*
Y174401D01*
X107269Y174565D01*
X107628Y174872D01*
X107935Y175231D01*
X108181Y175634D01*
X108362Y176070D01*
X108472Y176529D01*
X108500Y177000D01*
X108472Y177471D01*
X108465Y177500D01*
X134500D01*
Y103000D01*
G37*
G36*
Y148500D02*X107000D01*
Y174401D01*
X107269Y174565D01*
X107628Y174872D01*
X107935Y175231D01*
X108181Y175634D01*
X108362Y176070D01*
X108472Y176529D01*
X108500Y177000D01*
X108472Y177471D01*
X108362Y177930D01*
X108181Y178366D01*
X107935Y178769D01*
X107628Y179128D01*
X107269Y179435D01*
X106866Y179681D01*
X106430Y179862D01*
X105971Y179972D01*
X105500Y180009D01*
X105029Y179972D01*
X104570Y179862D01*
X104134Y179681D01*
X103731Y179435D01*
X103372Y179128D01*
X103065Y178769D01*
X102819Y178366D01*
X102638Y177930D01*
X102528Y177471D01*
X102491Y177000D01*
X102528Y176529D01*
X102638Y176070D01*
X102819Y175634D01*
X103065Y175231D01*
X103372Y174872D01*
X103731Y174565D01*
X104000Y174401D01*
Y148500D01*
X15000D01*
Y152525D01*
X20689Y158214D01*
X20741Y158259D01*
X20920Y158468D01*
X21064Y158703D01*
X21169Y158958D01*
X21234Y159225D01*
X21255Y159500D01*
X21250Y159569D01*
Y231775D01*
X25475Y236000D01*
X134500D01*
Y148500D01*
G37*
G36*
X13964Y115000D02*X22500D01*
Y95000D01*
X13964D01*
Y97564D01*
X14049Y97589D01*
X14155Y97639D01*
X14253Y97706D01*
X14339Y97787D01*
X14411Y97880D01*
X14466Y97984D01*
X14641Y98412D01*
X14770Y98855D01*
X14857Y99309D01*
X14900Y99769D01*
Y100231D01*
X14857Y100691D01*
X14770Y101145D01*
X14641Y101588D01*
X14471Y102018D01*
X14415Y102122D01*
X14342Y102216D01*
X14255Y102297D01*
X14157Y102364D01*
X14050Y102414D01*
X13964Y102440D01*
Y107564D01*
X14049Y107589D01*
X14155Y107639D01*
X14253Y107706D01*
X14339Y107787D01*
X14411Y107880D01*
X14466Y107984D01*
X14641Y108412D01*
X14770Y108855D01*
X14857Y109309D01*
X14900Y109769D01*
Y110231D01*
X14857Y110691D01*
X14770Y111145D01*
X14641Y111588D01*
X14471Y112018D01*
X14415Y112122D01*
X14342Y112216D01*
X14255Y112297D01*
X14157Y112364D01*
X14050Y112414D01*
X13964Y112440D01*
Y115000D01*
G37*
G36*
X10002D02*X13964D01*
Y112440D01*
X13936Y112448D01*
X13818Y112462D01*
X13700Y112459D01*
X13583Y112437D01*
X13472Y112396D01*
X13368Y112339D01*
X13274Y112266D01*
X13193Y112180D01*
X13126Y112082D01*
X13075Y111975D01*
X13042Y111861D01*
X13027Y111743D01*
X13031Y111624D01*
X13053Y111508D01*
X13096Y111397D01*
X13217Y111101D01*
X13306Y110793D01*
X13366Y110479D01*
X13396Y110160D01*
Y109840D01*
X13366Y109521D01*
X13306Y109207D01*
X13217Y108899D01*
X13099Y108601D01*
X13057Y108491D01*
X13035Y108375D01*
X13031Y108257D01*
X13046Y108140D01*
X13079Y108027D01*
X13129Y107920D01*
X13196Y107822D01*
X13276Y107736D01*
X13370Y107664D01*
X13473Y107607D01*
X13584Y107567D01*
X13700Y107545D01*
X13818Y107541D01*
X13935Y107556D01*
X13964Y107564D01*
Y102440D01*
X13936Y102448D01*
X13818Y102462D01*
X13700Y102459D01*
X13583Y102437D01*
X13472Y102396D01*
X13368Y102339D01*
X13274Y102266D01*
X13193Y102180D01*
X13126Y102082D01*
X13075Y101975D01*
X13042Y101861D01*
X13027Y101743D01*
X13031Y101624D01*
X13053Y101508D01*
X13096Y101397D01*
X13217Y101101D01*
X13306Y100793D01*
X13366Y100479D01*
X13396Y100160D01*
Y99840D01*
X13366Y99521D01*
X13306Y99207D01*
X13217Y98899D01*
X13099Y98601D01*
X13057Y98491D01*
X13035Y98375D01*
X13031Y98257D01*
X13046Y98140D01*
X13079Y98027D01*
X13129Y97920D01*
X13196Y97822D01*
X13276Y97736D01*
X13370Y97664D01*
X13473Y97607D01*
X13584Y97567D01*
X13700Y97545D01*
X13818Y97541D01*
X13935Y97556D01*
X13964Y97564D01*
Y95000D01*
X10002D01*
Y95100D01*
X10231D01*
X10691Y95143D01*
X11145Y95230D01*
X11588Y95359D01*
X12018Y95529D01*
X12122Y95585D01*
X12216Y95658D01*
X12297Y95745D01*
X12364Y95843D01*
X12414Y95950D01*
X12448Y96064D01*
X12462Y96182D01*
X12459Y96300D01*
X12436Y96417D01*
X12396Y96528D01*
X12339Y96632D01*
X12266Y96726D01*
X12180Y96807D01*
X12082Y96874D01*
X11975Y96925D01*
X11861Y96958D01*
X11743Y96973D01*
X11624Y96969D01*
X11508Y96947D01*
X11397Y96904D01*
X11101Y96783D01*
X10793Y96694D01*
X10479Y96634D01*
X10160Y96604D01*
X10002D01*
Y103396D01*
X10160D01*
X10479Y103366D01*
X10793Y103306D01*
X11101Y103217D01*
X11399Y103099D01*
X11509Y103057D01*
X11625Y103035D01*
X11743Y103031D01*
X11860Y103046D01*
X11973Y103079D01*
X12080Y103129D01*
X12178Y103196D01*
X12264Y103276D01*
X12336Y103370D01*
X12393Y103473D01*
X12433Y103584D01*
X12455Y103700D01*
X12459Y103818D01*
X12444Y103935D01*
X12411Y104049D01*
X12361Y104155D01*
X12294Y104253D01*
X12213Y104339D01*
X12120Y104411D01*
X12016Y104466D01*
X11588Y104641D01*
X11145Y104770D01*
X10691Y104857D01*
X10231Y104900D01*
X10002D01*
Y105100D01*
X10231D01*
X10691Y105143D01*
X11145Y105230D01*
X11588Y105359D01*
X12018Y105529D01*
X12122Y105585D01*
X12216Y105658D01*
X12297Y105745D01*
X12364Y105843D01*
X12414Y105950D01*
X12448Y106064D01*
X12462Y106182D01*
X12459Y106300D01*
X12436Y106417D01*
X12396Y106528D01*
X12339Y106632D01*
X12266Y106726D01*
X12180Y106807D01*
X12082Y106874D01*
X11975Y106925D01*
X11861Y106958D01*
X11743Y106973D01*
X11624Y106969D01*
X11508Y106947D01*
X11397Y106904D01*
X11101Y106783D01*
X10793Y106694D01*
X10479Y106634D01*
X10160Y106604D01*
X10002D01*
Y113396D01*
X10160D01*
X10479Y113366D01*
X10793Y113306D01*
X11101Y113217D01*
X11399Y113099D01*
X11509Y113057D01*
X11625Y113035D01*
X11743Y113031D01*
X11860Y113046D01*
X11973Y113079D01*
X12080Y113129D01*
X12178Y113196D01*
X12264Y113276D01*
X12336Y113370D01*
X12393Y113473D01*
X12433Y113584D01*
X12455Y113700D01*
X12459Y113818D01*
X12444Y113935D01*
X12411Y114049D01*
X12361Y114155D01*
X12294Y114253D01*
X12213Y114339D01*
X12120Y114411D01*
X12016Y114466D01*
X11588Y114641D01*
X11145Y114770D01*
X10691Y114857D01*
X10231Y114900D01*
X10002D01*
Y115000D01*
G37*
G36*
X6036D02*X10002D01*
Y114900D01*
X9769D01*
X9309Y114857D01*
X8855Y114770D01*
X8412Y114641D01*
X7982Y114471D01*
X7878Y114415D01*
X7784Y114342D01*
X7703Y114255D01*
X7636Y114157D01*
X7586Y114050D01*
X7552Y113936D01*
X7538Y113818D01*
X7541Y113700D01*
X7563Y113583D01*
X7604Y113472D01*
X7661Y113368D01*
X7734Y113274D01*
X7820Y113193D01*
X7918Y113126D01*
X8025Y113075D01*
X8139Y113042D01*
X8257Y113027D01*
X8376Y113031D01*
X8492Y113053D01*
X8603Y113096D01*
X8899Y113217D01*
X9207Y113306D01*
X9521Y113366D01*
X9840Y113396D01*
X10002D01*
Y106604D01*
X9840D01*
X9521Y106634D01*
X9207Y106694D01*
X8899Y106783D01*
X8601Y106901D01*
X8491Y106943D01*
X8375Y106965D01*
X8257Y106969D01*
X8140Y106954D01*
X8027Y106921D01*
X7920Y106871D01*
X7822Y106804D01*
X7736Y106724D01*
X7664Y106630D01*
X7607Y106527D01*
X7567Y106416D01*
X7545Y106300D01*
X7541Y106182D01*
X7556Y106065D01*
X7589Y105951D01*
X7639Y105845D01*
X7706Y105747D01*
X7787Y105661D01*
X7880Y105589D01*
X7984Y105534D01*
X8412Y105359D01*
X8855Y105230D01*
X9309Y105143D01*
X9769Y105100D01*
X10002D01*
Y104900D01*
X9769D01*
X9309Y104857D01*
X8855Y104770D01*
X8412Y104641D01*
X7982Y104471D01*
X7878Y104415D01*
X7784Y104342D01*
X7703Y104255D01*
X7636Y104157D01*
X7586Y104050D01*
X7552Y103936D01*
X7538Y103818D01*
X7541Y103700D01*
X7563Y103583D01*
X7604Y103472D01*
X7661Y103368D01*
X7734Y103274D01*
X7820Y103193D01*
X7918Y103126D01*
X8025Y103075D01*
X8139Y103042D01*
X8257Y103027D01*
X8376Y103031D01*
X8492Y103053D01*
X8603Y103096D01*
X8899Y103217D01*
X9207Y103306D01*
X9521Y103366D01*
X9840Y103396D01*
X10002D01*
Y96604D01*
X9840D01*
X9521Y96634D01*
X9207Y96694D01*
X8899Y96783D01*
X8601Y96901D01*
X8491Y96943D01*
X8375Y96965D01*
X8257Y96969D01*
X8140Y96954D01*
X8027Y96921D01*
X7920Y96871D01*
X7822Y96804D01*
X7736Y96724D01*
X7664Y96630D01*
X7607Y96527D01*
X7567Y96416D01*
X7545Y96300D01*
X7541Y96182D01*
X7556Y96065D01*
X7589Y95951D01*
X7639Y95845D01*
X7706Y95747D01*
X7787Y95661D01*
X7880Y95589D01*
X7984Y95534D01*
X8412Y95359D01*
X8855Y95230D01*
X9309Y95143D01*
X9769Y95100D01*
X10002D01*
Y95000D01*
X6036D01*
Y97560D01*
X6064Y97552D01*
X6182Y97538D01*
X6300Y97541D01*
X6417Y97564D01*
X6528Y97604D01*
X6632Y97661D01*
X6726Y97734D01*
X6807Y97820D01*
X6874Y97918D01*
X6925Y98025D01*
X6958Y98139D01*
X6973Y98257D01*
X6969Y98376D01*
X6947Y98492D01*
X6904Y98603D01*
X6783Y98899D01*
X6694Y99207D01*
X6634Y99521D01*
X6604Y99840D01*
Y100160D01*
X6634Y100479D01*
X6694Y100793D01*
X6783Y101101D01*
X6901Y101399D01*
X6943Y101509D01*
X6965Y101625D01*
X6969Y101743D01*
X6954Y101860D01*
X6921Y101973D01*
X6871Y102080D01*
X6804Y102178D01*
X6724Y102264D01*
X6630Y102336D01*
X6527Y102393D01*
X6416Y102433D01*
X6300Y102455D01*
X6182Y102459D01*
X6065Y102444D01*
X6036Y102436D01*
Y107560D01*
X6064Y107552D01*
X6182Y107538D01*
X6300Y107541D01*
X6417Y107564D01*
X6528Y107604D01*
X6632Y107661D01*
X6726Y107734D01*
X6807Y107820D01*
X6874Y107918D01*
X6925Y108025D01*
X6958Y108139D01*
X6973Y108257D01*
X6969Y108376D01*
X6947Y108492D01*
X6904Y108603D01*
X6783Y108899D01*
X6694Y109207D01*
X6634Y109521D01*
X6604Y109840D01*
Y110160D01*
X6634Y110479D01*
X6694Y110793D01*
X6783Y111101D01*
X6901Y111399D01*
X6943Y111509D01*
X6965Y111625D01*
X6969Y111743D01*
X6954Y111860D01*
X6921Y111973D01*
X6871Y112080D01*
X6804Y112178D01*
X6724Y112264D01*
X6630Y112336D01*
X6527Y112393D01*
X6416Y112433D01*
X6300Y112455D01*
X6182Y112459D01*
X6065Y112444D01*
X6036Y112436D01*
Y115000D01*
G37*
G36*
X4500D02*X6036D01*
Y112436D01*
X5951Y112411D01*
X5845Y112361D01*
X5747Y112294D01*
X5661Y112213D01*
X5589Y112120D01*
X5534Y112016D01*
X5359Y111588D01*
X5230Y111145D01*
X5143Y110691D01*
X5100Y110231D01*
Y109769D01*
X5143Y109309D01*
X5230Y108855D01*
X5359Y108412D01*
X5529Y107982D01*
X5585Y107878D01*
X5658Y107784D01*
X5745Y107703D01*
X5843Y107636D01*
X5950Y107586D01*
X6036Y107560D01*
Y102436D01*
X5951Y102411D01*
X5845Y102361D01*
X5747Y102294D01*
X5661Y102213D01*
X5589Y102120D01*
X5534Y102016D01*
X5359Y101588D01*
X5230Y101145D01*
X5143Y100691D01*
X5100Y100231D01*
Y99769D01*
X5143Y99309D01*
X5230Y98855D01*
X5359Y98412D01*
X5529Y97982D01*
X5585Y97878D01*
X5658Y97784D01*
X5745Y97703D01*
X5843Y97636D01*
X5950Y97586D01*
X6036Y97560D01*
Y95000D01*
X4500D01*
Y115000D01*
G37*
G36*
X21180Y159000D02*X50000D01*
Y95000D01*
X15000D01*
Y152525D01*
X20689Y158214D01*
X20741Y158259D01*
X20920Y158468D01*
X21064Y158703D01*
X21169Y158958D01*
X21180Y159000D01*
G37*
G36*
X15000Y111500D02*X96500D01*
Y101118D01*
X96491Y101000D01*
X96528Y100529D01*
Y100529D01*
X96549Y100440D01*
X96638Y100070D01*
X96819Y99634D01*
X97065Y99231D01*
X97065Y99231D01*
X97372Y98872D01*
X97462Y98796D01*
X100296Y95962D01*
X100372Y95872D01*
X100731Y95566D01*
X100731Y95565D01*
X101134Y95319D01*
X101570Y95138D01*
X102029Y95028D01*
X102500Y94991D01*
X102618Y95000D01*
X134500D01*
Y34000D01*
X15000D01*
Y111500D01*
G37*
G36*
X102500Y113000D02*X95000D01*
Y120500D01*
X102500D01*
Y113000D01*
G37*
G54D40*X138000Y89000D02*X148500Y78500D01*
X142000Y93000D02*X159500Y75500D01*
Y69500D01*
X164000Y65000D01*
X168414D01*
X148500Y78500D02*Y65000D01*
G54D41*X102500Y98000D02*X176000D01*
X180500Y102500D01*
Y116500D01*
Y111000D02*Y121000D01*
X160000Y133500D02*Y159500D01*
X172500D02*X174500Y161500D01*
Y168500D02*X172500Y170500D01*
X169500D01*
G54D40*X163500Y174500D02*Y165000D01*
X176500Y176500D02*X165500D01*
X163500Y174500D01*
G54D41*X174500Y161500D02*Y168500D01*
G54D40*X178500Y193780D02*Y217500D01*
X181000Y220000D01*
X151000Y234000D02*Y204000D01*
X146000Y199000D01*
Y189000D01*
X191000D01*
X178500Y193780D02*X183280D01*
X185500Y196000D01*
X200000D01*
X179900Y184000D02*X188500D01*
X191500Y181000D01*
X203000D01*
X205500Y183500D01*
X191000Y189000D02*X194000Y186000D01*
X200000D01*
X205500Y183500D02*Y190500D01*
X200000Y196000D01*
X153000Y165000D02*X169500D01*
X153000D02*X144000D01*
G54D41*X172500Y159500D02*X127500D01*
G54D40*X110500Y106000D02*X113500Y103000D01*
X132000D01*
G54D41*X99500Y117500D02*Y101000D01*
X102500Y98000D01*
G54D42*X84500Y238500D02*X88500Y242500D01*
X92500Y255000D02*X143000D01*
X147000Y251000D01*
Y225500D01*
G54D40*X144600Y187600D02*X146000Y189000D01*
X141000Y170000D02*X155500D01*
X157500Y172000D01*
X144600Y178500D02*Y187600D01*
X157750Y172250D02*Y176750D01*
X156000Y178500D01*
X151400D01*
X173100Y184000D02*Y176500D01*
X110500Y143500D02*Y106000D01*
X107000Y105500D02*Y138000D01*
X105500Y139500D01*
Y177000D01*
G54D43*X97500Y247000D02*Y232500D01*
G54D42*X88500Y242500D02*Y251000D01*
X92500Y255000D01*
X19500Y159500D02*Y232500D01*
X25500Y238500D01*
X84500D01*
X10000Y150000D02*X19500Y159500D01*
G54D39*G36*
X196600Y23400D02*Y16600D01*
X203400D01*
Y23400D01*
X196600D01*
G37*
G54D44*X200000Y30000D03*
Y40000D03*
Y50000D03*
Y60000D03*
Y70000D03*
G54D45*X140000Y10000D03*
G54D44*X10000Y130000D03*
Y120000D03*
Y110000D03*
Y100000D03*
G54D39*G36*
X6600Y163400D02*Y156600D01*
X13400D01*
Y163400D01*
X6600D01*
G37*
G54D44*X10000Y150000D03*
Y140000D03*
G54D45*Y215000D03*
G54D39*G36*
X75000Y251000D02*Y243000D01*
X83000D01*
Y251000D01*
X75000D01*
G37*
G36*
X113500D02*Y243000D01*
X121500D01*
Y251000D01*
X113500D01*
G37*
G54D46*X97500Y247000D03*
X69000D03*
X59000D03*
X49000D03*
X39000D03*
X29000D03*
X19000D03*
X9000D03*
G54D44*X200000Y80000D03*
Y90000D03*
Y106000D03*
Y116000D03*
Y126000D03*
Y136000D03*
Y146000D03*
Y156000D03*
Y166000D03*
Y176000D03*
Y186000D03*
Y196000D03*
G54D45*Y210000D03*
G54D44*X10000Y90000D03*
Y70000D03*
Y60000D03*
Y50000D03*
Y40000D03*
Y30000D03*
Y20000D03*
G54D45*X30000Y10000D03*
G54D39*G36*
X46000Y27000D02*Y19000D01*
X54000D01*
Y27000D01*
X46000D01*
G37*
G54D46*X60000Y23000D03*
X70000D03*
X80000D03*
X90000D03*
X100000D03*
X110000D03*
X120000D03*
G54D47*X144600Y178500D03*
G54D48*X146100Y180000D02*Y177000D01*
G54D47*X151400Y178500D03*
G54D48*X149900Y180000D02*Y177000D01*
G54D47*X179900Y184000D03*
G54D48*X178400Y185500D02*Y182500D01*
G54D47*X173100Y184000D03*
G54D48*X174600Y185500D02*Y182500D01*
G54D41*X169500Y165000D03*
X144000D03*
X132000Y141000D03*
Y146000D03*
Y151000D03*
Y156000D03*
X147000Y225500D03*
X146000Y193780D03*
X151000Y234000D03*
X157500Y172000D03*
X141000Y170000D03*
X169500Y170500D03*
X178500Y193780D03*
X176500Y176500D03*
X181000Y220000D03*
X132000Y103000D03*
Y111000D03*
Y116000D03*
X107000Y105500D03*
X42000Y111000D03*
X62500Y124500D03*
X55500D03*
X59000Y128000D03*
X55500Y131500D03*
X62500D03*
X42000Y105000D03*
Y99000D03*
X18000Y105000D03*
X23500D03*
X29000D03*
X132000Y126000D03*
Y131000D03*
Y136000D03*
X160000Y133500D03*
X105500Y143500D03*
X110500D03*
X99500Y142500D03*
Y137500D03*
Y132500D03*
Y127500D03*
Y122500D03*
Y117500D03*
X180500Y116000D03*
Y121000D03*
X132000D03*
X130500Y50000D03*
X148500Y65000D03*
X168414D03*
X138000Y89000D03*
X142000Y93000D03*
X105500Y177000D03*
G54D43*G54D49*G54D50*G54D49*G54D50*G54D51*G54D49*G54D50*G54D49*G54D50*G54D51*M02*
