M48
INCH
T56C0.020
T55C0.048
T54C0.129
T53C0.038
%
T56
X001800Y010500
X002350Y010500
X002900Y010500
X004200Y011100
X004200Y010500
X004200Y009900
X005550Y013150
X005550Y012450
X005900Y012800
X006250Y013150
X006250Y012450
X009950Y014250
X009950Y013750
X009950Y013250
X009950Y012750
X009950Y012250
X009950Y011750
X010550Y017700
X010550Y014350
X010700Y010550
X011050Y014350
X013050Y005000
X013200Y015600
X013200Y015100
X013200Y014600
X013200Y014100
X013200Y013600
X013200Y013100
X013200Y012600
X013200Y012100
X013200Y011600
X013200Y011100
X013200Y010300
X013800Y008900
X014100Y017000
X014200Y009300
X014400Y016500
X014600Y019378
X014700Y022550
X014850Y006500
X015100Y023400
X015750Y017200
X016000Y013350
X016841Y006500
X016950Y017050
X016950Y016500
X017650Y017650
X017850Y019378
X018050Y012100
X018050Y011600
X018100Y022000
T53
X001000Y016000
X001000Y015000
X001000Y014000
X001000Y013000
X001000Y012000
X001000Y011000
X001000Y010000
X001000Y009000
X001000Y007000
X001000Y006000
X001000Y005000
X001000Y004000
X001000Y003000
X001000Y002000
X020000Y019600
X020000Y018600
X020000Y017600
X020000Y016600
X020000Y015600
X020000Y014600
X020000Y013600
X020000Y012600
X020000Y011600
X020000Y010600
X020000Y009000
X020000Y008000
X020000Y007000
X020000Y006000
X020000Y005000
X020000Y004000
X020000Y003000
X020000Y002000
T55
X000900Y024700
X001900Y024700
X002900Y024700
X003900Y024700
X004900Y024700
X005000Y002300
X005900Y024700
X006000Y002300
X006900Y024700
X007000Y002300
X007900Y024700
X008000Y002300
X009000Y002300
X009750Y024700
X010000Y002300
X011000Y002300
X011750Y024700
X012000Y002300
T54
X001000Y021500
X003000Y001000
X014000Y001000
X020000Y021000
M30
