G04 start of page 6 for group -4063 idx -4063 *
G04 Title: (unknown), componentmask *
G04 Creator: pcb 20140316 *
G04 CreationDate: Thu 22 Dec 2016 06:12:03 PM GMT UTC *
G04 For: ndholmes *
G04 Format: Gerber/RS-274X *
G04 PCB-Dimensions (mil): 2100.00 2700.00 *
G04 PCB-Coordinate-Origin: lower left *
%MOIN*%
%FSLAX25Y25*%
%LNTOPMASK*%
%ADD71R,0.0304X0.0304*%
%ADD70R,0.0550X0.0550*%
%ADD69R,0.1300X0.1300*%
%ADD68R,0.0158X0.0158*%
%ADD67R,0.0225X0.0225*%
%ADD66R,0.0300X0.0300*%
%ADD65R,0.0227X0.0227*%
%ADD64R,0.1005X0.1005*%
%ADD63R,0.0438X0.0438*%
%ADD62R,0.0560X0.0560*%
%ADD61R,0.0572X0.0572*%
%ADD60C,0.0860*%
%ADD59C,0.1560*%
%ADD58C,0.0740*%
%ADD57C,0.0001*%
G54D57*G36*
X196300Y23700D02*Y16300D01*
X203700D01*
Y23700D01*
X196300D01*
G37*
G54D58*X200000Y30000D03*
Y40000D03*
Y50000D03*
Y60000D03*
Y70000D03*
G54D59*X140000Y10000D03*
G54D58*X10000Y130000D03*
Y120000D03*
Y110000D03*
Y100000D03*
G54D57*G36*
X6300Y163700D02*Y156300D01*
X13700D01*
Y163700D01*
X6300D01*
G37*
G54D58*X10000Y150000D03*
Y140000D03*
G54D59*Y215000D03*
G54D57*G36*
X74700Y251300D02*Y242700D01*
X83300D01*
Y251300D01*
X74700D01*
G37*
G36*
X113200D02*Y242700D01*
X121800D01*
Y251300D01*
X113200D01*
G37*
G54D60*X97500Y247000D03*
X69000D03*
X59000D03*
X49000D03*
X39000D03*
X29000D03*
X19000D03*
X9000D03*
G54D58*X200000Y80000D03*
Y90000D03*
Y106000D03*
Y116000D03*
Y126000D03*
Y136000D03*
Y146000D03*
Y156000D03*
Y166000D03*
Y176000D03*
Y186000D03*
Y196000D03*
G54D59*Y210000D03*
G54D58*X10000Y90000D03*
Y70000D03*
Y60000D03*
Y50000D03*
Y40000D03*
Y30000D03*
Y20000D03*
G54D59*X30000Y10000D03*
G54D57*G36*
X45700Y27300D02*Y18700D01*
X54300D01*
Y27300D01*
X45700D01*
G37*
G54D60*X60000Y23000D03*
X70000D03*
X80000D03*
X90000D03*
X100000D03*
X110000D03*
X120000D03*
G54D61*X57543Y102393D02*Y101607D01*
G54D62*X60000Y145327D02*Y138674D01*
X70000Y131154D02*Y124501D01*
G54D61*X50457Y102393D02*Y101607D01*
G54D63*X51000Y91989D02*Y80179D01*
G54D64*Y78445D02*Y76555D01*
G54D57*G36*
X52885Y86434D02*X56149Y83170D01*
X54305Y81326D01*
X51041Y84590D01*
X52885Y86434D01*
G37*
G36*
X45851Y83170D02*X49115Y86434D01*
X50959Y84590D01*
X47695Y81326D01*
X45851Y83170D01*
G37*
G54D63*X45094Y91989D02*Y87895D01*
G54D61*X34607Y98543D02*X35393D01*
X34607Y91457D02*X35393D01*
G54D63*X56906Y91989D02*Y87895D01*
G54D61*X34607Y111414D02*X35393D01*
X34607Y118500D02*X35393D01*
G54D62*X40000Y145327D02*Y138674D01*
X50000Y131154D02*Y124501D01*
X175000Y129740D02*Y123087D01*
X165000Y143913D02*Y137260D01*
X145000Y143913D02*Y137260D01*
X155000Y129740D02*Y123087D01*
G54D61*X160457Y32893D02*Y32107D01*
G54D62*X158001Y50000D02*X164654D01*
X138001D02*X144654D01*
G54D61*X141914Y32893D02*Y32107D01*
X149000Y32893D02*Y32107D01*
X167543Y32893D02*Y32107D01*
G54D62*X172174Y80000D02*X178827D01*
X158001Y70000D02*X164654D01*
X172174Y60000D02*X178827D01*
X152174Y80000D02*X158827D01*
X138001Y70000D02*X144654D01*
X152174Y60000D02*X158827D01*
X132174Y80000D02*X138827D01*
X132174Y60000D02*X138827D01*
G54D65*X141913Y235276D02*X143783D01*
X141913Y238425D02*X143783D01*
G54D62*X156500Y237413D02*Y230760D01*
G54D65*X141913Y241575D02*X143783D01*
X141913Y244724D02*X143783D01*
X135217D02*X137087D01*
X135217Y241575D02*X137087D01*
X135217Y238425D02*X137087D01*
X135217Y235276D02*X137087D01*
X135217Y216075D02*X137087D01*
X135217Y212925D02*X137087D01*
X141913D02*X143783D01*
X141913Y216075D02*X143783D01*
G54D62*X186500Y223240D02*Y216587D01*
X176500Y237413D02*Y230760D01*
X166500Y223240D02*Y216587D01*
G54D66*X165500Y165800D02*Y164200D01*
X161600Y165800D02*Y164200D01*
X157700Y165800D02*Y164200D01*
Y157600D02*Y156000D01*
X161600Y157600D02*Y156000D01*
X165500Y157600D02*Y156000D01*
G54D61*X175107Y157457D02*X175893D01*
X175107Y164543D02*X175893D01*
G54D67*X168122Y188661D02*X169969D01*
X168122Y191220D02*X169969D01*
X168500Y188661D02*X169500D01*
X168500Y191220D02*X169500D01*
X168122Y193780D02*X169969D01*
X168122Y196339D02*X169969D01*
X168500Y193780D02*X169500D01*
X168500Y196339D02*X169500D01*
X151031D02*X152878D01*
X151031Y193780D02*X152878D01*
X151500Y196339D02*X152500D01*
X151500Y193780D02*X152500D01*
X151031Y191220D02*X152878D01*
X151031Y188661D02*X152878D01*
X151500Y191220D02*X152500D01*
X151500Y188661D02*X152500D01*
G54D68*X110827Y170335D02*Y168563D01*
X108858Y170335D02*Y168563D01*
X106890Y170335D02*Y168563D01*
X104921Y170335D02*Y168563D01*
X112500Y165906D02*X114272D01*
X102953Y170335D02*Y168563D01*
X100984Y170335D02*Y168563D01*
X99016Y170335D02*Y168563D01*
X97047Y170335D02*Y168563D01*
X95079Y170335D02*Y168563D01*
X93110Y170335D02*Y168563D01*
X91142Y170335D02*Y168563D01*
X89173Y170335D02*Y168563D01*
X85728Y165906D02*X87500D01*
X85728Y163937D02*X87500D01*
X85728Y161969D02*X87500D01*
X85728Y160000D02*X87500D01*
X85728Y158031D02*X87500D01*
X85728Y156063D02*X87500D01*
X85728Y154094D02*X87500D01*
X89173Y151437D02*Y149665D01*
X91142Y151437D02*Y149665D01*
X93110Y151437D02*Y149665D01*
X95079Y151437D02*Y149665D01*
X97047Y151437D02*Y149665D01*
X99016Y151437D02*Y149665D01*
X100984Y151437D02*Y149665D01*
X102953Y151437D02*Y149665D01*
X104921Y151437D02*Y149665D01*
X106890Y151437D02*Y149665D01*
X108858Y151437D02*Y149665D01*
X110827Y151437D02*Y149665D01*
X112500Y154094D02*X114272D01*
X112500Y156063D02*X114272D01*
X112500Y158031D02*X114272D01*
X112500Y160000D02*X114272D01*
X112500Y161969D02*X114272D01*
X112500Y163937D02*X114272D01*
G54D69*X96062Y160000D02*X103938D01*
X97500D02*X102500D01*
G54D70*X116500Y137300D02*Y133700D01*
X126500Y137300D02*Y133700D01*
G54D61*X117457Y123893D02*Y123107D01*
X124543Y123893D02*Y123107D01*
G54D71*X124976Y106760D02*X127339D01*
X124976Y110500D02*X127339D01*
X124976Y114240D02*X127339D01*
X114661D02*X117024D01*
X114661Y110500D02*X117024D01*
X114661Y106760D02*X117024D01*
G54D61*X117457Y97393D02*Y96607D01*
X124543Y97393D02*Y96607D01*
G54D62*X118001Y70000D02*X124654D01*
X118001Y50000D02*X124654D01*
M02*
