G04 start of page 10 for group -4015 idx -4015 *
G04 Title: (unknown), toppaste *
G04 Creator: pcb 20140316 *
G04 CreationDate: Thu 22 Dec 2016 06:12:03 PM GMT UTC *
G04 For: ndholmes *
G04 Format: Gerber/RS-274X *
G04 PCB-Dimensions (mil): 2100.00 2700.00 *
G04 PCB-Coordinate-Origin: lower left *
%MOIN*%
%FSLAX25Y25*%
%LNTOPPASTE*%
%ADD94R,0.0120X0.0120*%
%ADD93R,0.0167X0.0167*%
%ADD92R,0.0500X0.0500*%
%ADD91R,0.0244X0.0244*%
%ADD90R,0.0490X0.0490*%
%ADD89R,0.0700X0.0700*%
%ADD88R,0.0098X0.0098*%
%ADD87C,0.0001*%
%ADD86R,0.0945X0.0945*%
%ADD85R,0.0378X0.0378*%
%ADD84R,0.0512X0.0512*%
%ADD83R,0.0240X0.0240*%
G54D83*X165500Y165800D02*Y164200D01*
X161600Y165800D02*Y164200D01*
X157700Y165800D02*Y164200D01*
Y157600D02*Y156000D01*
X161600Y157600D02*Y156000D01*
X165500Y157600D02*Y156000D01*
G54D84*X57543Y102393D02*Y101607D01*
X50457Y102393D02*Y101607D01*
X34607Y98543D02*X35393D01*
X34607Y91457D02*X35393D01*
G54D85*X56906Y91989D02*Y87895D01*
X51000Y91989D02*Y80179D01*
G54D86*Y78445D02*Y76555D01*
G54D87*G36*
X52885Y86010D02*X55725Y83170D01*
X54305Y81750D01*
X51465Y84590D01*
X52885Y86010D01*
G37*
G36*
X46275Y83170D02*X49115Y86010D01*
X50535Y84590D01*
X47695Y81750D01*
X46275Y83170D01*
G37*
G54D85*X45094Y91989D02*Y87895D01*
G54D88*X110827Y170335D02*Y168563D01*
X108858Y170335D02*Y168563D01*
X106890Y170335D02*Y168563D01*
X104921Y170335D02*Y168563D01*
X102953Y170335D02*Y168563D01*
X100984Y170335D02*Y168563D01*
X99016Y170335D02*Y168563D01*
X97047Y170335D02*Y168563D01*
X95079Y170335D02*Y168563D01*
X93110Y170335D02*Y168563D01*
X91142Y170335D02*Y168563D01*
X89173Y170335D02*Y168563D01*
X85728Y165906D02*X87500D01*
X85728Y163937D02*X87500D01*
X85728Y161969D02*X87500D01*
X85728Y160000D02*X87500D01*
X85728Y158031D02*X87500D01*
X85728Y156063D02*X87500D01*
X85728Y154094D02*X87500D01*
X89173Y151437D02*Y149665D01*
X91142Y151437D02*Y149665D01*
X93110Y151437D02*Y149665D01*
X95079Y151437D02*Y149665D01*
X97047Y151437D02*Y149665D01*
X99016Y151437D02*Y149665D01*
X100984Y151437D02*Y149665D01*
X102953Y151437D02*Y149665D01*
X104921Y151437D02*Y149665D01*
X106890Y151437D02*Y149665D01*
X108858Y151437D02*Y149665D01*
X110827Y151437D02*Y149665D01*
X112500Y154094D02*X114272D01*
X112500Y156063D02*X114272D01*
X112500Y158031D02*X114272D01*
X112500Y160000D02*X114272D01*
X112500Y161969D02*X114272D01*
X112500Y163937D02*X114272D01*
X112500Y165906D02*X114272D01*
G54D89*X97500Y160000D02*X102500D01*
G54D84*X34607Y111414D02*X35393D01*
X34607Y118500D02*X35393D01*
G54D90*X116500Y137300D02*Y133700D01*
X126500Y137300D02*Y133700D01*
G54D84*X117457Y123893D02*Y123107D01*
X124543Y123893D02*Y123107D01*
G54D91*X124976Y106760D02*X127339D01*
X124976Y110500D02*X127339D01*
X124976Y114240D02*X127339D01*
X114661D02*X117024D01*
X114661Y110500D02*X117024D01*
X114661Y106760D02*X117024D01*
G54D84*X117457Y97393D02*Y96607D01*
X124543Y97393D02*Y96607D01*
X175107Y157457D02*X175893D01*
X175107Y164543D02*X175893D01*
G54D92*X40000Y145327D02*Y138674D01*
X50000Y131154D02*Y124501D01*
X60000Y145327D02*Y138674D01*
X70000Y131154D02*Y124501D01*
G54D84*X160457Y32893D02*Y32107D01*
X167543Y32893D02*Y32107D01*
G54D92*X172174Y80000D02*X178827D01*
X158001Y70000D02*X164654D01*
X172174Y60000D02*X178827D01*
X158001Y50000D02*X164654D01*
X152174Y80000D02*X158827D01*
X138001Y70000D02*X144654D01*
X152174Y60000D02*X158827D01*
X138001Y50000D02*X144654D01*
X132174Y80000D02*X138827D01*
X118001Y70000D02*X124654D01*
X132174Y60000D02*X138827D01*
X118001Y50000D02*X124654D01*
X175000Y129740D02*Y123087D01*
X165000Y143913D02*Y137260D01*
X155000Y129740D02*Y123087D01*
X145000Y143913D02*Y137260D01*
G54D93*X141913Y235276D02*X143783D01*
X141913Y238425D02*X143783D01*
X141913Y241575D02*X143783D01*
X141913Y244724D02*X143783D01*
X135217D02*X137087D01*
X135217Y241575D02*X137087D01*
X135217Y238425D02*X137087D01*
X135217Y235276D02*X137087D01*
G54D84*X141914Y32893D02*Y32107D01*
X149000Y32893D02*Y32107D01*
G54D92*X186500Y223240D02*Y216587D01*
X176500Y237413D02*Y230760D01*
X166500Y223240D02*Y216587D01*
X156500Y237413D02*Y230760D01*
G54D94*X168500Y188661D02*X169500D01*
X168500Y191220D02*X169500D01*
X168500Y193780D02*X169500D01*
X168500Y196339D02*X169500D01*
X151500D02*X152500D01*
X151500Y193780D02*X152500D01*
X151500Y191220D02*X152500D01*
X151500Y188661D02*X152500D01*
G54D93*X135217Y216075D02*X137087D01*
X135217Y212925D02*X137087D01*
X141913D02*X143783D01*
X141913Y216075D02*X143783D01*
M02*
