G04 start of page 8 for group -4079 idx -4079 *
G04 Title: (unknown), topsilk *
G04 Creator: pcb 20140316 *
G04 CreationDate: Thu 22 Dec 2016 06:12:03 PM GMT UTC *
G04 For: ndholmes *
G04 Format: Gerber/RS-274X *
G04 PCB-Dimensions (mil): 2100.00 2700.00 *
G04 PCB-Coordinate-Origin: lower left *
%MOIN*%
%FSLAX25Y25*%
%LNTOPSILK*%
%ADD80C,0.0200*%
%ADD79C,0.0080*%
%ADD78C,0.0100*%
G54D78*X500Y269500D02*X209500D01*
X500Y10500D02*Y269500D01*
X40000Y150500D02*Y156500D01*
X50000D01*
Y150500D01*
X60000D02*Y156500D01*
X70000D01*
Y150500D01*
X209500Y269500D02*Y10500D01*
X131500Y99000D02*X128000Y102500D01*
X130000D01*
X128000D02*Y100500D01*
X145000Y113000D02*Y119000D01*
Y113000D02*X155000D01*
Y119000D02*Y113000D01*
X165000D02*Y119000D01*
X163000Y111500D02*X159500D01*
X175000Y119000D02*Y113000D01*
X165000D02*X175000D01*
X163000Y111500D02*Y108500D01*
X156500Y100500D02*X158000D01*
X159500Y102000D01*
Y108000D01*
X163000Y111500D01*
X156500Y241500D02*Y247500D01*
X166500D01*
Y241500D01*
X176500Y247500D02*X186500D01*
Y241500D01*
X176500D02*Y247500D01*
X119000Y175000D02*X115500Y171500D01*
Y173500D01*
Y171500D02*X117500D01*
X165500Y169500D02*Y174500D01*
Y169500D02*X164000Y171000D01*
X165500Y169500D02*X167000Y171000D01*
X169000Y185000D02*Y180000D01*
Y185000D02*X170500Y183500D01*
X169000Y185000D02*X167500Y183500D01*
X159500Y10500D02*X149500Y500D01*
X209500Y10500D02*X159500D01*
X149500Y500D02*X20500D01*
X500Y10500D02*X10500D01*
X20500Y500D02*X10500Y10500D01*
X113000Y80000D02*X108000D01*
Y70000D01*
X113000D01*
X108000Y60000D02*Y50000D01*
X113000D01*
Y60000D02*X108000D01*
X103500Y70000D02*X98500D01*
Y60000D01*
X103500D01*
G54D79*X18000Y22500D02*Y19000D01*
Y22500D02*X18500Y23000D01*
X20000D01*
X20500Y22500D01*
Y19000D01*
X18000Y21000D02*X20500D01*
X21700Y23000D02*X23700D01*
X21700D02*Y21000D01*
X22200Y21500D01*
X23200D01*
X23700Y21000D01*
Y19500D01*
X23200Y19000D02*X23700Y19500D01*
X22200Y19000D02*X23200D01*
X21700Y19500D02*X22200Y19000D01*
X24900Y19500D02*X27900Y22500D01*
X31100Y23000D02*X31600Y22500D01*
X29600Y23000D02*X31100D01*
X29100Y22500D02*X29600Y23000D01*
X29100Y22500D02*Y21500D01*
X29600Y21000D01*
X31100D01*
X31600Y20500D01*
Y19500D01*
X31100Y19000D02*X31600Y19500D01*
X29600Y19000D02*X31100D01*
X29100Y19500D02*X29600Y19000D01*
X33300D02*X34800D01*
X32800Y19500D02*X33300Y19000D01*
X32800Y22500D02*Y19500D01*
Y22500D02*X33300Y23000D01*
X34800D01*
X36000D02*Y19000D01*
X38000D01*
X18000Y31500D02*Y28000D01*
Y31500D02*X18500Y32000D01*
X20000D01*
X20500Y31500D01*
Y28000D01*
X18000Y30000D02*X20500D01*
X21700D02*X23700Y32000D01*
X21700Y30000D02*X24200D01*
X23700Y32000D02*Y28000D01*
X25400Y28500D02*X28400Y31500D01*
X31600Y32000D02*X32100Y31500D01*
X30100Y32000D02*X31600D01*
X29600Y31500D02*X30100Y32000D01*
X29600Y31500D02*Y30500D01*
X30100Y30000D01*
X31600D01*
X32100Y29500D01*
Y28500D01*
X31600Y28000D02*X32100Y28500D01*
X30100Y28000D02*X31600D01*
X29600Y28500D02*X30100Y28000D01*
X33800Y32000D02*Y28000D01*
X35300Y32000D02*X35800Y31500D01*
Y28500D01*
X35300Y28000D02*X35800Y28500D01*
X33300Y28000D02*X35300D01*
X33300Y32000D02*X35300D01*
X37000Y31500D02*Y28000D01*
Y31500D02*X37500Y32000D01*
X39000D01*
X39500Y31500D01*
Y28000D01*
X37000Y30000D02*X39500D01*
X18000Y41500D02*Y38000D01*
Y41500D02*X18500Y42000D01*
X20000D01*
X20500Y41500D01*
Y38000D01*
X18000Y40000D02*X20500D01*
X21700Y41500D02*X22200Y42000D01*
X23200D01*
X23700Y41500D01*
Y38500D01*
X23200Y38000D02*X23700Y38500D01*
X22200Y38000D02*X23200D01*
X21700Y38500D02*X22200Y38000D01*
Y40000D02*X23700D01*
X18000Y51500D02*Y48000D01*
Y51500D02*X18500Y52000D01*
X20000D01*
X20500Y51500D01*
Y48000D01*
X18000Y50000D02*X20500D01*
X21700Y51500D02*X22200Y52000D01*
X23700D01*
X24200Y51500D01*
Y50500D01*
X21700Y48000D02*X24200Y50500D01*
X21700Y48000D02*X24200D01*
X18000Y61500D02*Y58000D01*
Y61500D02*X18500Y62000D01*
X20000D01*
X20500Y61500D01*
Y58000D01*
X18000Y60000D02*X20500D01*
X22200Y58000D02*X23200D01*
X22700Y62000D02*Y58000D01*
X21700Y61000D02*X22700Y62000D01*
X18000Y71500D02*Y68000D01*
Y71500D02*X18500Y72000D01*
X20000D01*
X20500Y71500D01*
Y68000D01*
X18000Y70000D02*X20500D01*
X21700Y68500D02*X22200Y68000D01*
X21700Y71500D02*Y68500D01*
Y71500D02*X22200Y72000D01*
X23200D01*
X23700Y71500D01*
Y68500D01*
X23200Y68000D02*X23700Y68500D01*
X22200Y68000D02*X23200D01*
X21700Y69000D02*X23700Y71000D01*
X49000Y4000D02*X49500Y3500D01*
X49000Y5000D02*Y4000D01*
Y5000D02*X49500Y5500D01*
X50500D01*
X51000Y5000D01*
Y4000D01*
X50500Y3500D02*X51000Y4000D01*
X49500Y3500D02*X50500D01*
X49000Y6000D02*X49500Y5500D01*
X49000Y7000D02*Y6000D01*
Y7000D02*X49500Y7500D01*
X50500D01*
X51000Y7000D01*
Y6000D01*
X50500Y5500D02*X51000Y6000D01*
X59000Y3500D02*X61000Y5500D01*
Y7000D02*Y5500D01*
X60500Y7500D02*X61000Y7000D01*
X59500Y7500D02*X60500D01*
X59000Y7000D02*X59500Y7500D01*
X59000Y7000D02*Y6000D01*
X59500Y5500D01*
X61000D01*
X68000Y3500D02*X69000D01*
X68500Y7500D02*Y3500D01*
X67500Y6500D02*X68500Y7500D01*
X70200Y4000D02*X70700Y3500D01*
X70200Y7000D02*Y4000D01*
Y7000D02*X70700Y7500D01*
X71700D01*
X72200Y7000D01*
Y4000D01*
X71700Y3500D02*X72200Y4000D01*
X70700Y3500D02*X71700D01*
X70200Y4500D02*X72200Y6500D01*
X78500Y3500D02*X79500D01*
X79000Y7500D02*Y3500D01*
X78000Y6500D02*X79000Y7500D01*
X81200Y3500D02*X82200D01*
X81700Y7500D02*Y3500D01*
X80700Y6500D02*X81700Y7500D01*
X91500Y53500D02*Y50000D01*
Y53500D02*X92000Y54000D01*
X93500D01*
X94000Y53500D01*
Y50000D01*
X91500Y52000D02*X94000D01*
X95200D02*X97200Y50000D01*
X95200D02*X97200Y52000D01*
X98400Y52500D02*X100400D01*
X98400Y51500D02*X100400D01*
X101600Y50500D02*X102100Y50000D01*
X101600Y53500D02*Y50500D01*
Y53500D02*X102100Y54000D01*
X103100D01*
X103600Y53500D01*
Y50500D01*
X103100Y50000D02*X103600Y50500D01*
X102100Y50000D02*X103100D01*
X101600Y51000D02*X103600Y53000D01*
X92000Y79500D02*Y76000D01*
Y79500D02*X92500Y80000D01*
X94000D01*
X94500Y79500D01*
Y76000D01*
X92000Y78000D02*X94500D01*
X95700D02*X97700Y76000D01*
X95700D02*X97700Y78000D01*
X98900Y78500D02*X100900D01*
X98900Y77500D02*X100900D01*
X102600Y76000D02*X103600D01*
X103100Y80000D02*Y76000D01*
X102100Y79000D02*X103100Y80000D01*
X81500Y66500D02*Y63000D01*
Y66500D02*X82000Y67000D01*
X83500D01*
X84000Y66500D01*
Y63000D01*
X81500Y65000D02*X84000D01*
X85200D02*X87200Y63000D01*
X85200D02*X87200Y65000D01*
X88400Y65500D02*X90400D01*
X88400Y64500D02*X90400D01*
X91600Y67000D02*X94100D01*
Y66500D01*
X91600Y64000D02*X94100Y66500D01*
X91600Y64000D02*Y63000D01*
X94100D01*
X79500Y89000D02*Y85000D01*
X81500D01*
X82700Y89000D02*X84700D01*
X83700D02*Y85000D01*
X86400D02*X87900D01*
X85900Y85500D02*X86400Y85000D01*
X85900Y88500D02*Y85500D01*
Y88500D02*X86400Y89000D01*
X87900D01*
X89100Y88500D02*X89600Y89000D01*
X91100D01*
X91600Y88500D01*
Y87500D01*
X89100Y85000D02*X91600Y87500D01*
X89100Y85000D02*X91600D01*
X92800Y87000D02*X94800Y89000D01*
X92800Y87000D02*X95300D01*
X94800Y89000D02*Y85000D01*
X96500D02*X98500Y87000D01*
Y88500D02*Y87000D01*
X98000Y89000D02*X98500Y88500D01*
X97000Y89000D02*X98000D01*
X96500Y88500D02*X97000Y89000D01*
X96500Y88500D02*Y87500D01*
X97000Y87000D01*
X98500D01*
X99700Y85000D02*X101700Y87000D01*
Y88500D02*Y87000D01*
X101200Y89000D02*X101700Y88500D01*
X100200Y89000D02*X101200D01*
X99700Y88500D02*X100200Y89000D01*
X99700Y88500D02*Y87500D01*
X100200Y87000D01*
X101700D01*
X104700Y88500D02*Y85000D01*
Y88500D02*X105200Y89000D01*
X106700D01*
X107200Y88500D01*
Y85000D01*
X104700Y87000D02*X107200D01*
X108900Y89000D02*Y85000D01*
X110400Y89000D02*X110900Y88500D01*
Y85500D01*
X110400Y85000D02*X110900Y85500D01*
X108400Y85000D02*X110400D01*
X108400Y89000D02*X110400D01*
X112600D02*Y85000D01*
X114100Y89000D02*X114600Y88500D01*
Y85500D01*
X114100Y85000D02*X114600Y85500D01*
X112100Y85000D02*X114100D01*
X112100Y89000D02*X114100D01*
X115800D02*X117800D01*
X118300Y88500D01*
Y87500D01*
X117800Y87000D02*X118300Y87500D01*
X116300Y87000D02*X117800D01*
X116300Y89000D02*Y85000D01*
Y87000D02*X118300Y85000D01*
X126000Y91000D02*Y87500D01*
Y91000D02*X126500Y91500D01*
X128000D01*
X128500Y91000D01*
Y87500D01*
X126000Y89500D02*X128500D01*
X129700Y88000D02*X130200Y87500D01*
X129700Y91000D02*Y88000D01*
Y91000D02*X130200Y91500D01*
X131200D01*
X131700Y91000D01*
Y88000D01*
X131200Y87500D02*X131700Y88000D01*
X130200Y87500D02*X131200D01*
X129700Y88500D02*X131700Y90500D01*
X87500Y3500D02*X88500D01*
X88000Y7500D02*Y3500D01*
X87000Y6500D02*X88000Y7500D01*
X89700Y7000D02*X90200Y7500D01*
X91700D01*
X92200Y7000D01*
Y6000D01*
X89700Y3500D02*X92200Y6000D01*
X89700Y3500D02*X92200D01*
X98000D02*X99000D01*
X98500Y7500D02*Y3500D01*
X97500Y6500D02*X98500Y7500D01*
X100200Y7000D02*X100700Y7500D01*
X101700D01*
X102200Y7000D01*
Y4000D01*
X101700Y3500D02*X102200Y4000D01*
X100700Y3500D02*X101700D01*
X100200Y4000D02*X100700Y3500D01*
Y5500D02*X102200D01*
X108000Y3500D02*X109000D01*
X108500Y7500D02*Y3500D01*
X107500Y6500D02*X108500Y7500D01*
X110200Y5500D02*X112200Y7500D01*
X110200Y5500D02*X112700D01*
X112200Y7500D02*Y3500D01*
X118000D02*X119000D01*
X118500Y7500D02*Y3500D01*
X117500Y6500D02*X118500Y7500D01*
X120200D02*X122200D01*
X120200D02*Y5500D01*
X120700Y6000D01*
X121700D01*
X122200Y5500D01*
Y4000D01*
X121700Y3500D02*X122200Y4000D01*
X120700Y3500D02*X121700D01*
X120200Y4000D02*X120700Y3500D01*
X131595Y26500D02*Y22500D01*
X131095Y26500D02*X133095D01*
X133595Y26000D01*
Y25000D01*
X133095Y24500D02*X133595Y25000D01*
X131595Y24500D02*X133095D01*
X134795Y26500D02*Y22500D01*
X136295Y24000D01*
X137795Y22500D01*
Y26500D02*Y22500D01*
X138995Y26500D02*X140995D01*
X141495Y26000D01*
Y25000D01*
X140995Y24500D02*X141495Y25000D01*
X139495Y24500D02*X140995D01*
X139495Y26500D02*Y22500D01*
Y24500D02*X141495Y22500D01*
X185500Y52000D02*Y48000D01*
X187000Y52000D02*X187500Y51500D01*
Y48500D01*
X187000Y48000D02*X187500Y48500D01*
X185000Y48000D02*X187000D01*
X185000Y52000D02*X187000D01*
X188700Y51500D02*X189200Y52000D01*
X190200D01*
X190700Y51500D01*
Y48500D01*
X190200Y48000D02*X190700Y48500D01*
X189200Y48000D02*X190200D01*
X188700Y48500D02*X189200Y48000D01*
Y50000D02*X190700D01*
X185500Y62000D02*Y58000D01*
X187000Y62000D02*X187500Y61500D01*
Y58500D01*
X187000Y58000D02*X187500Y58500D01*
X185000Y58000D02*X187000D01*
X185000Y62000D02*X187000D01*
X188700Y60000D02*X190700Y62000D01*
X188700Y60000D02*X191200D01*
X190700Y62000D02*Y58000D01*
X185500Y42000D02*Y38000D01*
X187000Y42000D02*X187500Y41500D01*
Y38500D01*
X187000Y38000D02*X187500Y38500D01*
X185000Y38000D02*X187000D01*
X185000Y42000D02*X187000D01*
X188700Y41500D02*X189200Y42000D01*
X190700D01*
X191200Y41500D01*
Y40500D01*
X188700Y38000D02*X191200Y40500D01*
X188700Y38000D02*X191200D01*
X174000Y22000D02*X176000D01*
X176500Y21500D01*
Y20500D01*
X176000Y20000D02*X176500Y20500D01*
X174500Y20000D02*X176000D01*
X174500Y22000D02*Y18000D01*
Y20000D02*X176500Y18000D01*
X177700Y22000D02*Y21500D01*
X180200Y19000D01*
Y18000D01*
X177700Y19000D02*Y18000D01*
Y19000D02*X180200Y21500D01*
Y22000D02*Y21500D01*
X181400Y18500D02*X184400Y21500D01*
X186100Y22000D02*Y18000D01*
X187600Y22000D02*X188100Y21500D01*
Y18500D01*
X187600Y18000D02*X188100Y18500D01*
X185600Y18000D02*X187600D01*
X185600Y22000D02*X187600D01*
X189300Y18500D02*X189800Y18000D01*
X189300Y21500D02*Y18500D01*
Y21500D02*X189800Y22000D01*
X190800D01*
X191300Y21500D01*
Y18500D01*
X190800Y18000D02*X191300Y18500D01*
X189800Y18000D02*X190800D01*
X189300Y19000D02*X191300Y21000D01*
X175000Y32000D02*X177000D01*
X176000D02*Y28000D01*
X178200Y32000D02*Y31500D01*
X180700Y29000D01*
Y28000D01*
X178200Y29000D02*Y28000D01*
Y29000D02*X180700Y31500D01*
Y32000D02*Y31500D01*
X181900Y28500D02*X184900Y31500D01*
X186600Y32000D02*Y28000D01*
X188100Y32000D02*X188600Y31500D01*
Y28500D01*
X188100Y28000D02*X188600Y28500D01*
X186100Y28000D02*X188100D01*
X186100Y32000D02*X188100D01*
X190300Y28000D02*X191300D01*
X190800Y32000D02*Y28000D01*
X189800Y31000D02*X190800Y32000D01*
X153595Y32500D02*X155595D01*
X154595Y33500D02*Y31500D01*
X185500Y92000D02*Y88000D01*
X187000Y92000D02*X187500Y91500D01*
Y88500D01*
X187000Y88000D02*X187500Y88500D01*
X185000Y88000D02*X187000D01*
X185000Y92000D02*X187000D01*
X188700Y88000D02*X191200Y90500D01*
Y92000D02*Y90500D01*
X188700Y92000D02*X191200D01*
X146000Y91000D02*Y87500D01*
Y91000D02*X146500Y91500D01*
X148000D01*
X148500Y91000D01*
Y87500D01*
X146000Y89500D02*X148500D01*
X150200Y87500D02*X151200D01*
X150700Y91500D02*Y87500D01*
X149700Y90500D02*X150700Y91500D01*
X165000Y91000D02*Y87500D01*
Y91000D02*X165500Y91500D01*
X167000D01*
X167500Y91000D01*
Y87500D01*
X165000Y89500D02*X167500D01*
X168700Y91000D02*X169200Y91500D01*
X170700D01*
X171200Y91000D01*
Y90000D01*
X168700Y87500D02*X171200Y90000D01*
X168700Y87500D02*X171200D01*
X139000Y110500D02*Y107000D01*
Y110500D02*X139500Y111000D01*
X141000D01*
X141500Y110500D01*
Y107000D01*
X139000Y109000D02*X141500D01*
X143200Y107000D02*X144200D01*
X143700Y111000D02*Y107000D01*
X142700Y110000D02*X143700Y111000D01*
X145400Y109500D02*X147400D01*
X145400Y108500D02*X147400D01*
X148600Y107500D02*X149100Y107000D01*
X148600Y110500D02*Y107500D01*
Y110500D02*X149100Y111000D01*
X150100D01*
X150600Y110500D01*
Y107500D01*
X150100Y107000D02*X150600Y107500D01*
X149100Y107000D02*X150100D01*
X148600Y108000D02*X150600Y110000D01*
X143000Y102000D02*Y98500D01*
Y102000D02*X143500Y102500D01*
X145000D01*
X145500Y102000D01*
Y98500D01*
X143000Y100500D02*X145500D01*
X146700Y99000D02*X147200Y98500D01*
X146700Y102000D02*Y99000D01*
Y102000D02*X147200Y102500D01*
X148200D01*
X148700Y102000D01*
Y99000D01*
X148200Y98500D02*X148700Y99000D01*
X147200Y98500D02*X148200D01*
X146700Y99500D02*X148700Y101500D01*
X149900Y101000D02*X151900D01*
X149900Y100000D02*X151900D01*
X153100Y99000D02*X153600Y98500D01*
X153100Y102000D02*Y99000D01*
Y102000D02*X153600Y102500D01*
X154600D01*
X155100Y102000D01*
Y99000D01*
X154600Y98500D02*X155100Y99000D01*
X153600Y98500D02*X154600D01*
X153100Y99500D02*X155100Y101500D01*
X185500Y72000D02*Y68000D01*
X187000Y72000D02*X187500Y71500D01*
Y68500D01*
X187000Y68000D02*X187500Y68500D01*
X185000Y68000D02*X187000D01*
X185000Y72000D02*X187000D01*
X188700D02*X190700D01*
X188700D02*Y70000D01*
X189200Y70500D01*
X190200D01*
X190700Y70000D01*
Y68500D01*
X190200Y68000D02*X190700Y68500D01*
X189200Y68000D02*X190200D01*
X188700Y68500D02*X189200Y68000D01*
X185500Y82000D02*Y78000D01*
X187000Y82000D02*X187500Y81500D01*
Y78500D01*
X187000Y78000D02*X187500Y78500D01*
X185000Y78000D02*X187000D01*
X185000Y82000D02*X187000D01*
X190200D02*X190700Y81500D01*
X189200Y82000D02*X190200D01*
X188700Y81500D02*X189200Y82000D01*
X188700Y81500D02*Y78500D01*
X189200Y78000D01*
X190200Y80000D02*X190700Y79500D01*
X188700Y80000D02*X190200D01*
X189200Y78000D02*X190200D01*
X190700Y78500D01*
Y79500D02*Y78500D01*
X18000Y122000D02*X20000D01*
X18000D02*Y120000D01*
X18500Y120500D01*
X19500D01*
X20000Y120000D01*
Y118500D01*
X19500Y118000D02*X20000Y118500D01*
X18500Y118000D02*X19500D01*
X18000Y118500D02*X18500Y118000D01*
X21200Y122000D02*Y119000D01*
X22200Y118000D01*
X23200Y119000D01*
Y122000D02*Y119000D01*
X18000Y131500D02*X18500Y132000D01*
X19500D01*
X20000Y131500D01*
Y128500D01*
X19500Y128000D02*X20000Y128500D01*
X18500Y128000D02*X19500D01*
X18000Y128500D02*X18500Y128000D01*
Y130000D02*X20000D01*
X21200Y128000D02*X21700D01*
X22900Y131500D02*X23400Y132000D01*
X24400D01*
X24900Y131500D01*
Y128500D01*
X24400Y128000D02*X24900Y128500D01*
X23400Y128000D02*X24400D01*
X22900Y128500D02*X23400Y128000D01*
Y130000D02*X24900D01*
X26100Y132000D02*Y129000D01*
X27100Y128000D01*
X28100Y129000D01*
Y132000D02*Y129000D01*
X18000Y152000D02*X19000D01*
X18500D02*Y148000D01*
X18000D02*X19000D01*
X20200Y151500D02*Y148500D01*
Y151500D02*X20700Y152000D01*
X21700D01*
X22200Y151500D01*
Y148500D01*
X21700Y148000D02*X22200Y148500D01*
X20700Y148000D02*X21700D01*
X20200Y148500D02*X20700Y148000D01*
X23400Y152000D02*X25400D01*
X25900Y151500D01*
Y150500D01*
X25400Y150000D02*X25900Y150500D01*
X23900Y150000D02*X25400D01*
X23900Y152000D02*Y148000D01*
Y150000D02*X25900Y148000D01*
X27100Y150000D02*X28600D01*
X27100Y148000D02*X29100D01*
X27100Y152000D02*Y148000D01*
Y152000D02*X29100D01*
X30300D02*Y148000D01*
Y152000D02*X32300D01*
X30300Y150000D02*X31800D01*
X18000Y142000D02*X20000D01*
X20500Y141500D01*
Y140500D01*
X20000Y140000D02*X20500Y140500D01*
X18500Y140000D02*X20000D01*
X18500Y142000D02*Y138000D01*
Y140000D02*X20500Y138000D01*
X21700Y140000D02*X23200D01*
X21700Y138000D02*X23700D01*
X21700Y142000D02*Y138000D01*
Y142000D02*X23700D01*
X26900D02*X27400Y141500D01*
X25400Y142000D02*X26900D01*
X24900Y141500D02*X25400Y142000D01*
X24900Y141500D02*Y140500D01*
X25400Y140000D01*
X26900D01*
X27400Y139500D01*
Y138500D01*
X26900Y138000D02*X27400Y138500D01*
X25400Y138000D02*X26900D01*
X24900Y138500D02*X25400Y138000D01*
X28600Y140000D02*X30100D01*
X28600Y138000D02*X30600D01*
X28600Y142000D02*Y138000D01*
Y142000D02*X30600D01*
X31800D02*X33800D01*
X32800D02*Y138000D01*
X18000Y162000D02*Y158000D01*
Y162000D02*Y161500D01*
X20500Y159000D01*
Y162000D02*Y158000D01*
X21700Y158500D02*X24700Y161500D01*
X26400Y158000D02*X27900D01*
X25900Y158500D02*X26400Y158000D01*
X25900Y161500D02*Y158500D01*
Y161500D02*X26400Y162000D01*
X27900D01*
X18000Y92000D02*Y89000D01*
X19000Y88000D01*
X20000Y89000D01*
Y92000D02*Y89000D01*
X21200Y92000D02*X22200D01*
X21700D02*Y88000D01*
X21200D02*X22200D01*
X23400Y92000D02*Y88000D01*
Y92000D02*Y91500D01*
X25900Y89000D01*
Y92000D02*Y88000D01*
X20000Y102000D02*X20500Y101500D01*
X18500Y102000D02*X20000D01*
X18000Y101500D02*X18500Y102000D01*
X18000Y101500D02*Y98500D01*
X18500Y98000D01*
X20000D01*
X20500Y98500D01*
Y99500D02*Y98500D01*
X20000Y100000D02*X20500Y99500D01*
X19000Y100000D02*X20000D01*
X21700Y102000D02*Y98000D01*
Y102000D02*Y101500D01*
X24200Y99000D01*
Y102000D02*Y98000D01*
X25900Y102000D02*Y98000D01*
X27400Y102000D02*X27900Y101500D01*
Y98500D01*
X27400Y98000D02*X27900Y98500D01*
X25400Y98000D02*X27400D01*
X25400Y102000D02*X27400D01*
X20000Y112000D02*X20500Y111500D01*
X18500Y112000D02*X20000D01*
X18000Y111500D02*X18500Y112000D01*
X18000Y111500D02*Y108500D01*
X18500Y108000D01*
X20000D01*
X20500Y108500D01*
Y109500D02*Y108500D01*
X20000Y110000D02*X20500Y109500D01*
X19000Y110000D02*X20000D01*
X21700Y112000D02*Y108000D01*
Y112000D02*Y111500D01*
X24200Y109000D01*
Y112000D02*Y108000D01*
X25900Y112000D02*Y108000D01*
X27400Y112000D02*X27900Y111500D01*
Y108500D01*
X27400Y108000D02*X27900Y108500D01*
X25400Y108000D02*X27400D01*
X25400Y112000D02*X27400D01*
X142500Y264500D02*X140500Y262500D01*
X140000Y264500D02*X142500D01*
X140500Y266500D02*Y262500D01*
X138300Y266500D02*X138800D01*
X137100Y266000D02*X136600Y266500D01*
X137100Y266000D02*Y263000D01*
X136600Y262500D01*
X135600D02*X136600D01*
X135600D02*X135100Y263000D01*
Y266000D02*Y263000D01*
X135600Y266500D02*X135100Y266000D01*
X135600Y266500D02*X136600D01*
X137100Y265500D02*X135100Y263500D01*
X133900Y266500D02*X131900Y264500D01*
Y263000D01*
X132400Y262500D02*X131900Y263000D01*
X132400Y262500D02*X133400D01*
X133900Y263000D02*X133400Y262500D01*
X133900Y264000D02*Y263000D01*
Y264000D02*X133400Y264500D01*
X131900D02*X133400D01*
X129200Y262500D02*X128700Y263000D01*
X129200Y262500D02*X130200D01*
X130700Y263000D02*X130200Y262500D01*
X130700Y266000D02*Y263000D01*
Y266000D02*X130200Y266500D01*
X129200Y264500D02*X128700Y265000D01*
X129200Y264500D02*X130700D01*
X129200Y266500D02*X130200D01*
X129200D02*X128700Y266000D01*
Y265000D01*
X127500Y265500D02*Y262500D01*
Y265500D02*X126500Y266500D01*
X125500Y265500D01*
Y262500D01*
X120500D02*X122500D01*
X120500D02*X120000Y263000D01*
Y264000D02*Y263000D01*
X120500Y264500D02*X120000Y264000D01*
X120500Y264500D02*X122000D01*
Y266500D02*Y262500D01*
Y264500D02*X120000Y266500D01*
X117300Y264500D02*X118800D01*
X116800Y266500D02*X118800D01*
Y262500D01*
X116800D02*X118800D01*
X115600Y266500D02*Y262500D01*
X113600D02*X115600D01*
X114100Y264500D02*X115600D01*
X100000Y266500D02*X101500D01*
X102000Y266000D02*X101500Y266500D01*
X102000Y266000D02*Y263000D01*
X101500Y262500D01*
X100000D02*X101500D01*
X98800Y266000D02*Y263000D01*
X98300Y262500D01*
X97300D02*X98300D01*
X97300D02*X96800Y263000D01*
Y266000D02*Y263000D01*
X97300Y266500D02*X96800Y266000D01*
X97300Y266500D02*X98300D01*
X98800Y266000D02*X98300Y266500D01*
X95600D02*Y262500D01*
X94100Y264000D01*
X92600Y262500D01*
Y266500D02*Y262500D01*
X80000Y266000D02*X79500Y266500D01*
X80000Y266000D02*Y263000D01*
X79500Y262500D01*
X78500D02*X79500D01*
X78500D02*X78000Y263000D01*
Y266000D02*Y263000D01*
X78500Y266500D02*X78000Y266000D01*
X78500Y266500D02*X79500D01*
X80000Y265500D02*X78000Y263500D01*
X68500Y266500D02*X69500D01*
X69000D02*Y262500D01*
X70000Y263500D02*X69000Y262500D01*
X148000Y255000D02*X148500Y255500D01*
X150000D01*
X150500Y255000D01*
Y254000D01*
X148000Y251500D02*X150500Y254000D01*
X148000Y251500D02*X150500D01*
X153500Y255500D02*X155000D01*
Y252000D01*
X154500Y251500D02*X155000Y252000D01*
X154000Y251500D02*X154500D01*
X153500Y252000D02*X154000Y251500D01*
X156200Y253500D02*Y252000D01*
X156700Y251500D01*
X157700D01*
X158200Y252000D01*
Y253500D02*Y252000D01*
X159900Y253000D02*Y251500D01*
Y253000D02*X160400Y253500D01*
X160900D01*
X161400Y253000D01*
Y251500D01*
Y253000D02*X161900Y253500D01*
X162400D01*
X162900Y253000D01*
Y251500D01*
X159400Y253500D02*X159900Y253000D01*
X164600D02*Y250000D01*
X164100Y253500D02*X164600Y253000D01*
X165100Y253500D01*
X166100D01*
X166600Y253000D01*
Y252000D01*
X166100Y251500D02*X166600Y252000D01*
X165100Y251500D02*X166100D01*
X164600Y252000D02*X165100Y251500D01*
X168300D02*X169800D01*
X167800Y252000D02*X168300Y251500D01*
X167800Y253000D02*Y252000D01*
Y253000D02*X168300Y253500D01*
X169300D01*
X169800Y253000D01*
X167800Y252500D02*X169800D01*
Y253000D02*Y252500D01*
X171500Y253000D02*Y251500D01*
Y253000D02*X172000Y253500D01*
X173000D01*
X171000D02*X171500Y253000D01*
X174700Y251500D02*X176200D01*
X176700Y252000D01*
X176200Y252500D02*X176700Y252000D01*
X174700Y252500D02*X176200D01*
X174200Y253000D02*X174700Y252500D01*
X174200Y253000D02*X174700Y253500D01*
X176200D01*
X176700Y253000D01*
X174200Y252000D02*X174700Y251500D01*
X179700Y255000D02*Y251500D01*
Y255000D02*X180200Y255500D01*
X181700D01*
X182200Y255000D01*
Y251500D01*
X179700Y253500D02*X182200D01*
X183900Y251500D02*X185400D01*
X185900Y252000D01*
X185400Y252500D02*X185900Y252000D01*
X183900Y252500D02*X185400D01*
X183400Y253000D02*X183900Y252500D01*
X183400Y253000D02*X183900Y253500D01*
X185400D01*
X185900Y253000D01*
X183400Y252000D02*X183900Y251500D01*
X190900Y255500D02*X191400Y255000D01*
X189400Y255500D02*X190900D01*
X188900Y255000D02*X189400Y255500D01*
X188900Y255000D02*Y254000D01*
X189400Y253500D01*
X190900D01*
X191400Y253000D01*
Y252000D01*
X190900Y251500D02*X191400Y252000D01*
X189400Y251500D02*X190900D01*
X188900Y252000D02*X189400Y251500D01*
X192600Y255500D02*Y251500D01*
Y253000D02*X193100Y253500D01*
X194100D01*
X194600Y253000D01*
Y251500D01*
X195800Y253000D02*Y252000D01*
Y253000D02*X196300Y253500D01*
X197300D01*
X197800Y253000D01*
Y252000D01*
X197300Y251500D02*X197800Y252000D01*
X196300Y251500D02*X197300D01*
X195800Y252000D02*X196300Y251500D01*
X199000Y253500D02*Y252000D01*
X199500Y251500D01*
X200000D01*
X200500Y252000D01*
Y253500D02*Y252000D01*
X201000Y251500D01*
X201500D01*
X202000Y252000D01*
Y253500D02*Y252000D01*
X203700Y253000D02*Y251500D01*
Y253000D02*X204200Y253500D01*
X204700D01*
X205200Y253000D01*
Y251500D01*
X203200Y253500D02*X203700Y253000D01*
X155500Y262500D02*X156500D01*
X156000D02*Y258500D01*
X155500D02*X156500D01*
X157700Y262000D02*X158200Y262500D01*
X159700D01*
X160200Y262000D01*
Y261000D01*
X157700Y258500D02*X160200Y261000D01*
X157700Y258500D02*X160200D01*
X161900D02*X163400D01*
X161400Y259000D02*X161900Y258500D01*
X161400Y262000D02*Y259000D01*
Y262000D02*X161900Y262500D01*
X163400D01*
X166900D02*Y258500D01*
X166400Y262500D02*X168400D01*
X168900Y262000D01*
Y261000D01*
X168400Y260500D02*X168900Y261000D01*
X166900Y260500D02*X168400D01*
X170100D02*Y259000D01*
X170600Y258500D01*
X171600D01*
X172100Y259000D01*
Y260500D02*Y259000D01*
X173300Y262500D02*Y259000D01*
X173800Y258500D01*
X174800Y262500D02*Y259000D01*
X175300Y258500D01*
X176300Y260500D02*X178300D01*
X179500Y262500D02*Y259000D01*
X180000Y258500D01*
X181000D01*
X181500Y259000D01*
Y262500D02*Y259000D01*
X183200Y260000D02*Y257000D01*
X182700Y260500D02*X183200Y260000D01*
X183700Y260500D01*
X184700D01*
X185200Y260000D01*
Y259000D01*
X184700Y258500D02*X185200Y259000D01*
X183700Y258500D02*X184700D01*
X183200Y259000D02*X183700Y258500D01*
X188200Y260500D02*X189700D01*
X188200Y258500D02*X190200D01*
X188200Y262500D02*Y258500D01*
Y262500D02*X190200D01*
X191900Y260000D02*Y258500D01*
Y260000D02*X192400Y260500D01*
X192900D01*
X193400Y260000D01*
Y258500D01*
X191400Y260500D02*X191900Y260000D01*
X196100Y260500D02*X196600Y260000D01*
X195100Y260500D02*X196100D01*
X194600Y260000D02*X195100Y260500D01*
X194600Y260000D02*Y259000D01*
X195100Y258500D01*
X196600Y260500D02*Y259000D01*
X197100Y258500D01*
X195100D02*X196100D01*
X196600Y259000D01*
X198300Y262500D02*Y258500D01*
Y259000D02*X198800Y258500D01*
X199800D01*
X200300Y259000D01*
Y260000D02*Y259000D01*
X199800Y260500D02*X200300Y260000D01*
X198800Y260500D02*X199800D01*
X198300Y260000D02*X198800Y260500D01*
X201500Y262500D02*Y259000D01*
X202000Y258500D01*
X203500D02*X205000D01*
X203000Y259000D02*X203500Y258500D01*
X203000Y260000D02*Y259000D01*
Y260000D02*X203500Y260500D01*
X204500D01*
X205000Y260000D01*
X203000Y259500D02*X205000D01*
Y260000D02*Y259500D01*
X60500Y263000D02*X60000Y262500D01*
X58500D02*X60000D01*
X58500D02*X58000Y263000D01*
Y264000D02*Y263000D01*
X60500Y266500D02*X58000Y264000D01*
Y266500D02*X60500D01*
X50000Y263000D02*X49500Y262500D01*
X48500D02*X49500D01*
X48500D02*X48000Y263000D01*
Y266000D02*Y263000D01*
X48500Y266500D02*X48000Y266000D01*
X48500Y266500D02*X49500D01*
X50000Y266000D02*X49500Y266500D01*
X48000Y264500D02*X49500D01*
X40500D02*X38500Y262500D01*
X38000Y264500D02*X40500D01*
X38500Y266500D02*Y262500D01*
X28000D02*X30000D01*
Y264500D02*Y262500D01*
Y264500D02*X29500Y264000D01*
X28500D02*X29500D01*
X28500D02*X28000Y264500D01*
Y266000D02*Y264500D01*
X28500Y266500D02*X28000Y266000D01*
X28500Y266500D02*X29500D01*
X30000Y266000D02*X29500Y266500D01*
X18500Y262500D02*X18000Y263000D01*
X18500Y262500D02*X19500D01*
X20000Y263000D02*X19500Y262500D01*
X20000Y266000D02*Y263000D01*
Y266000D02*X19500Y266500D01*
X18500Y264500D02*X18000Y265000D01*
X18500Y264500D02*X20000D01*
X18500Y266500D02*X19500D01*
X18500D02*X18000Y266000D01*
Y265000D01*
X10000Y266500D02*X7500Y264000D01*
Y262500D01*
X10000D01*
X6500Y200000D02*Y196500D01*
Y200000D02*X7000Y200500D01*
X8500D01*
X9000Y200000D01*
Y196500D01*
X6500Y198500D02*X9000D01*
X10200Y200500D02*X12200D01*
X12700Y200000D01*
Y199000D01*
X12200Y198500D02*X12700Y199000D01*
X10700Y198500D02*X12200D01*
X10700Y200500D02*Y196500D01*
Y198500D02*X12700Y196500D01*
X14400Y200500D02*Y196500D01*
X15900Y200500D02*X16400Y200000D01*
Y197000D01*
X15900Y196500D02*X16400Y197000D01*
X13900Y196500D02*X15900D01*
X13900Y200500D02*X15900D01*
X17600Y198500D02*X19600D01*
X20800Y200500D02*Y196500D01*
X22800D01*
X24000Y200500D02*X26000D01*
X25000D02*Y196500D01*
X27700D02*X29200D01*
X27200Y197000D02*X27700Y196500D01*
X27200Y200000D02*Y197000D01*
Y200000D02*X27700Y200500D01*
X29200D01*
X30400Y200000D02*X30900Y200500D01*
X32400D01*
X32900Y200000D01*
Y199000D01*
X30400Y196500D02*X32900Y199000D01*
X30400Y196500D02*X32900D01*
X34100Y198500D02*X36100Y200500D01*
X34100Y198500D02*X36600D01*
X36100Y200500D02*Y196500D01*
X37800D02*X39800Y198500D01*
Y200000D02*Y198500D01*
X39300Y200500D02*X39800Y200000D01*
X38300Y200500D02*X39300D01*
X37800Y200000D02*X38300Y200500D01*
X37800Y200000D02*Y199000D01*
X38300Y198500D01*
X39800D01*
X41000Y196500D02*X43000Y198500D01*
Y200000D02*Y198500D01*
X42500Y200500D02*X43000Y200000D01*
X41500Y200500D02*X42500D01*
X41000Y200000D02*X41500Y200500D01*
X41000Y200000D02*Y199000D01*
X41500Y198500D01*
X43000D01*
X46000D02*Y197500D01*
X47000Y196500D01*
X48000Y197500D01*
Y198500D02*Y197500D01*
X49700Y196500D02*X50700D01*
X50200Y200500D02*Y196500D01*
X49200Y199500D02*X50200Y200500D01*
X51900Y196500D02*X52400D01*
X53600Y200000D02*X54100Y200500D01*
X55100D01*
X55600Y200000D01*
Y197000D01*
X55100Y196500D02*X55600Y197000D01*
X54100Y196500D02*X55100D01*
X53600Y197000D02*X54100Y196500D01*
Y198500D02*X55600D01*
X56800Y200500D02*Y196500D01*
X58800D01*
X60000Y200500D02*Y197500D01*
X61000Y196500D01*
X62000Y197500D01*
Y200500D02*Y197500D01*
X63200Y200500D02*Y196500D01*
X65200D01*
X6500Y193000D02*X7500D01*
X7000D02*Y189000D01*
X6500D02*X7500D01*
X8700Y190500D02*Y189500D01*
Y190500D02*X9200Y191000D01*
X10200D01*
X10700Y190500D01*
Y189500D01*
X10200Y189000D02*X10700Y189500D01*
X9200Y189000D02*X10200D01*
X8700Y189500D02*X9200Y189000D01*
X11900Y191000D02*Y189500D01*
X12400Y189000D01*
X12900D01*
X13400Y189500D01*
Y191000D02*Y189500D01*
X13900Y189000D01*
X14400D01*
X14900Y189500D01*
Y191000D02*Y189500D01*
X17600Y191000D02*X18100Y190500D01*
X16600Y191000D02*X17600D01*
X16100Y190500D02*X16600Y191000D01*
X16100Y190500D02*Y189500D01*
X16600Y189000D01*
X18100Y191000D02*Y189500D01*
X18600Y189000D01*
X16600D02*X17600D01*
X18100Y189500D01*
X23600Y193000D02*X24100Y192500D01*
X22100Y193000D02*X23600D01*
X21600Y192500D02*X22100Y193000D01*
X21600Y192500D02*Y191500D01*
X22100Y191000D01*
X23600D01*
X24100Y190500D01*
Y189500D01*
X23600Y189000D02*X24100Y189500D01*
X22100Y189000D02*X23600D01*
X21600Y189500D02*X22100Y189000D01*
X25800Y191000D02*X27300D01*
X25300Y190500D02*X25800Y191000D01*
X25300Y190500D02*Y189500D01*
X25800Y189000D01*
X27300D01*
X30000Y191000D02*X30500Y190500D01*
X29000Y191000D02*X30000D01*
X28500Y190500D02*X29000Y191000D01*
X28500Y190500D02*Y189500D01*
X29000Y189000D01*
X30500Y191000D02*Y189500D01*
X31000Y189000D01*
X29000D02*X30000D01*
X30500Y189500D01*
X32200Y193000D02*Y189500D01*
X32700Y189000D01*
X34200D02*X35700D01*
X33700Y189500D02*X34200Y189000D01*
X33700Y190500D02*Y189500D01*
Y190500D02*X34200Y191000D01*
X35200D01*
X35700Y190500D01*
X33700Y190000D02*X35700D01*
Y190500D02*Y190000D01*
X38900Y193000D02*Y189000D01*
X38400D02*X38900Y189500D01*
X37400Y189000D02*X38400D01*
X36900Y189500D02*X37400Y189000D01*
X36900Y190500D02*Y189500D01*
Y190500D02*X37400Y191000D01*
X38400D01*
X38900Y190500D01*
X41900Y191000D02*X43400D01*
X41900Y189000D02*X43900D01*
X41900Y193000D02*Y189000D01*
Y193000D02*X43900D01*
X45600Y190500D02*Y189000D01*
Y190500D02*X46100Y191000D01*
X46600D01*
X47100Y190500D01*
Y189000D01*
X45100Y191000D02*X45600Y190500D01*
X49800Y191000D02*X50300Y190500D01*
X48800Y191000D02*X49800D01*
X48300Y190500D02*X48800Y191000D01*
X48300Y190500D02*Y189500D01*
X48800Y189000D01*
X49800D01*
X50300Y189500D01*
X48300Y188000D02*X48800Y187500D01*
X49800D01*
X50300Y188000D01*
Y191000D02*Y188000D01*
X51500Y192000D02*Y191500D01*
Y190500D02*Y189000D01*
X53000Y190500D02*Y189000D01*
Y190500D02*X53500Y191000D01*
X54000D01*
X54500Y190500D01*
Y189000D01*
X52500Y191000D02*X53000Y190500D01*
X56200Y189000D02*X57700D01*
X55700Y189500D02*X56200Y189000D01*
X55700Y190500D02*Y189500D01*
Y190500D02*X56200Y191000D01*
X57200D01*
X57700Y190500D01*
X55700Y190000D02*X57700D01*
Y190500D02*Y190000D01*
X59400Y189000D02*X60900D01*
X58900Y189500D02*X59400Y189000D01*
X58900Y190500D02*Y189500D01*
Y190500D02*X59400Y191000D01*
X60400D01*
X60900Y190500D01*
X58900Y190000D02*X60900D01*
Y190500D02*Y190000D01*
X62600Y190500D02*Y189000D01*
Y190500D02*X63100Y191000D01*
X64100D01*
X62100D02*X62600Y190500D01*
X65300Y192000D02*Y191500D01*
Y190500D02*Y189000D01*
X66800Y190500D02*Y189000D01*
Y190500D02*X67300Y191000D01*
X67800D01*
X68300Y190500D01*
Y189000D01*
X66300Y191000D02*X66800Y190500D01*
X71000Y191000D02*X71500Y190500D01*
X70000Y191000D02*X71000D01*
X69500Y190500D02*X70000Y191000D01*
X69500Y190500D02*Y189500D01*
X70000Y189000D01*
X71000D01*
X71500Y189500D01*
X69500Y188000D02*X70000Y187500D01*
X71000D01*
X71500Y188000D01*
Y191000D02*Y188000D01*
X6500Y185500D02*Y181500D01*
Y183000D02*X7000Y183500D01*
X8000D01*
X8500Y183000D01*
Y181500D01*
X10200Y185500D02*Y182000D01*
X10700Y181500D01*
X9700Y184000D02*X10700D01*
X12200Y185500D02*Y182000D01*
X12700Y181500D01*
X11700Y184000D02*X12700D01*
X14200Y183000D02*Y180000D01*
X13700Y183500D02*X14200Y183000D01*
X14700Y183500D01*
X15700D01*
X16200Y183000D01*
Y182000D01*
X15700Y181500D02*X16200Y182000D01*
X14700Y181500D02*X15700D01*
X14200Y182000D02*X14700Y181500D01*
X17400Y184000D02*X17900D01*
X17400Y183000D02*X17900D01*
X19100Y182000D02*X22100Y185000D01*
X23300Y182000D02*X26300Y185000D01*
X27500Y183500D02*Y182000D01*
X28000Y181500D01*
X28500D01*
X29000Y182000D01*
Y183500D02*Y182000D01*
X29500Y181500D01*
X30000D01*
X30500Y182000D01*
Y183500D02*Y182000D01*
X31700Y183500D02*Y182000D01*
X32200Y181500D01*
X32700D01*
X33200Y182000D01*
Y183500D02*Y182000D01*
X33700Y181500D01*
X34200D01*
X34700Y182000D01*
Y183500D02*Y182000D01*
X35900Y183500D02*Y182000D01*
X36400Y181500D01*
X36900D01*
X37400Y182000D01*
Y183500D02*Y182000D01*
X37900Y181500D01*
X38400D01*
X38900Y182000D01*
Y183500D02*Y182000D01*
X40100Y181500D02*X40600D01*
X41800Y184500D02*Y184000D01*
Y183000D02*Y181500D01*
X44300Y183500D02*X44800Y183000D01*
X43300Y183500D02*X44300D01*
X42800Y183000D02*X43300Y183500D01*
X42800Y183000D02*Y182000D01*
X43300Y181500D01*
X44800Y183500D02*Y182000D01*
X45300Y181500D01*
X43300D02*X44300D01*
X44800Y182000D01*
X47000Y181500D02*X48500D01*
X49000Y182000D01*
X48500Y182500D02*X49000Y182000D01*
X47000Y182500D02*X48500D01*
X46500Y183000D02*X47000Y182500D01*
X46500Y183000D02*X47000Y183500D01*
X48500D01*
X49000Y183000D01*
X46500Y182000D02*X47000Y181500D01*
X50700Y183500D02*X52200D01*
X50200Y183000D02*X50700Y183500D01*
X50200Y183000D02*Y182000D01*
X50700Y181500D01*
X52200D01*
X54900Y183500D02*X55400Y183000D01*
X53900Y183500D02*X54900D01*
X53400Y183000D02*X53900Y183500D01*
X53400Y183000D02*Y182000D01*
X53900Y181500D01*
X55400Y183500D02*Y182000D01*
X55900Y181500D01*
X53900D02*X54900D01*
X55400Y182000D01*
X57100Y185500D02*Y182000D01*
X57600Y181500D01*
X59100D02*X60600D01*
X58600Y182000D02*X59100Y181500D01*
X58600Y183000D02*Y182000D01*
Y183000D02*X59100Y183500D01*
X60100D01*
X60600Y183000D01*
X58600Y182500D02*X60600D01*
Y183000D02*Y182500D01*
X63800Y185500D02*Y181500D01*
X63300D02*X63800Y182000D01*
X62300Y181500D02*X63300D01*
X61800Y182000D02*X62300Y181500D01*
X61800Y183000D02*Y182000D01*
Y183000D02*X62300Y183500D01*
X63300D01*
X63800Y183000D01*
X65000Y181500D02*X65500D01*
X67200Y183500D02*X68700D01*
X66700Y183000D02*X67200Y183500D01*
X66700Y183000D02*Y182000D01*
X67200Y181500D01*
X68700D01*
X69900Y183000D02*Y182000D01*
Y183000D02*X70400Y183500D01*
X71400D01*
X71900Y183000D01*
Y182000D01*
X71400Y181500D02*X71900Y182000D01*
X70400Y181500D02*X71400D01*
X69900Y182000D02*X70400Y181500D01*
X73600Y183000D02*Y181500D01*
Y183000D02*X74100Y183500D01*
X74600D01*
X75100Y183000D01*
Y181500D01*
Y183000D02*X75600Y183500D01*
X76100D01*
X76600Y183000D01*
Y181500D01*
X73100Y183500D02*X73600Y183000D01*
X7000Y174000D02*X8500D01*
X6500Y174500D02*X7000Y174000D01*
X6500Y177500D02*Y174500D01*
Y177500D02*X7000Y178000D01*
X8500D01*
X10200Y174000D02*X11700D01*
X9700Y174500D02*X10200Y174000D01*
X9700Y177500D02*Y174500D01*
Y177500D02*X10200Y178000D01*
X11700D01*
X14700Y174000D02*X16700D01*
X17200Y174500D01*
Y175500D02*Y174500D01*
X16700Y176000D02*X17200Y175500D01*
X15200Y176000D02*X16700D01*
X15200Y178000D02*Y174000D01*
X14700Y178000D02*X16700D01*
X17200Y177500D01*
Y176500D01*
X16700Y176000D02*X17200Y176500D01*
X18400Y178000D02*Y177500D01*
X19400Y176500D01*
X20400Y177500D01*
Y178000D02*Y177500D01*
X19400Y176500D02*Y174000D01*
X21600Y176000D02*X23600D01*
X26800Y178000D02*X27300Y177500D01*
X25300Y178000D02*X26800D01*
X24800Y177500D02*X25300Y178000D01*
X24800Y177500D02*Y176500D01*
X25300Y176000D01*
X26800D01*
X27300Y175500D01*
Y174500D01*
X26800Y174000D02*X27300Y174500D01*
X25300Y174000D02*X26800D01*
X24800Y174500D02*X25300Y174000D01*
X28500Y177500D02*Y174000D01*
Y177500D02*X29000Y178000D01*
X30500D01*
X31000Y177500D01*
Y174000D01*
X28500Y176000D02*X31000D01*
X34000Y174500D02*X34500Y174000D01*
X34000Y177500D02*X34500Y178000D01*
X34000Y177500D02*Y174500D01*
X36200Y174000D02*X37700D01*
X35700Y174500D02*X36200Y174000D01*
X35700Y177500D02*Y174500D01*
Y177500D02*X36200Y178000D01*
X37700D01*
X38900D02*X39400Y177500D01*
Y174500D01*
X38900Y174000D02*X39400Y174500D01*
X40600Y177500D02*X41100Y178000D01*
X42600D01*
X43100Y177500D01*
Y176500D01*
X40600Y174000D02*X43100Y176500D01*
X40600Y174000D02*X43100D01*
X44300Y174500D02*X44800Y174000D01*
X44300Y177500D02*Y174500D01*
Y177500D02*X44800Y178000D01*
X45800D01*
X46300Y177500D01*
Y174500D01*
X45800Y174000D02*X46300Y174500D01*
X44800Y174000D02*X45800D01*
X44300Y175000D02*X46300Y177000D01*
X48000Y174000D02*X49000D01*
X48500Y178000D02*Y174000D01*
X47500Y177000D02*X48500Y178000D01*
X51700D02*X52200Y177500D01*
X50700Y178000D02*X51700D01*
X50200Y177500D02*X50700Y178000D01*
X50200Y177500D02*Y174500D01*
X50700Y174000D01*
X51700Y176000D02*X52200Y175500D01*
X50200Y176000D02*X51700D01*
X50700Y174000D02*X51700D01*
X52200Y174500D01*
Y175500D02*Y174500D01*
X32500Y168500D02*Y165000D01*
Y168500D02*X33000Y169000D01*
X34500D01*
X35000Y168500D01*
Y165000D01*
X32500Y167000D02*X35000D01*
X36700Y166500D02*Y165000D01*
Y166500D02*X37200Y167000D01*
X38200D01*
X36200D02*X36700Y166500D01*
X41400Y169000D02*Y165000D01*
X40900D02*X41400Y165500D01*
X39900Y165000D02*X40900D01*
X39400Y165500D02*X39900Y165000D01*
X39400Y166500D02*Y165500D01*
Y166500D02*X39900Y167000D01*
X40900D01*
X41400Y166500D01*
X42600Y167000D02*Y165500D01*
X43100Y165000D01*
X44100D01*
X44600Y165500D01*
Y167000D02*Y165500D01*
X45800Y168000D02*Y167500D01*
Y166500D02*Y165000D01*
X47300Y166500D02*Y165000D01*
Y166500D02*X47800Y167000D01*
X48300D01*
X48800Y166500D01*
Y165000D01*
X46800Y167000D02*X47300Y166500D01*
X50000D02*Y165500D01*
Y166500D02*X50500Y167000D01*
X51500D01*
X52000Y166500D01*
Y165500D01*
X51500Y165000D02*X52000Y165500D01*
X50500Y165000D02*X51500D01*
X50000Y165500D02*X50500Y165000D01*
X59500Y162500D02*X61500D01*
X59500D02*Y160500D01*
X60000Y161000D01*
X61000D01*
X61500Y160500D01*
Y159000D01*
X61000Y158500D02*X61500Y159000D01*
X60000Y158500D02*X61000D01*
X59500Y159000D02*X60000Y158500D01*
X62700Y162500D02*Y159500D01*
X63700Y158500D01*
X64700Y159500D01*
Y162500D02*Y159500D01*
X67700Y162500D02*X69700D01*
X70200Y162000D01*
Y161000D01*
X69700Y160500D02*X70200Y161000D01*
X68200Y160500D02*X69700D01*
X68200Y162500D02*Y158500D01*
Y160500D02*X70200Y158500D01*
X71900D02*X73400D01*
X71400Y159000D02*X71900Y158500D01*
X71400Y160000D02*Y159000D01*
Y160000D02*X71900Y160500D01*
X72900D01*
X73400Y160000D01*
X71400Y159500D02*X73400D01*
Y160000D02*Y159500D01*
X76100Y160500D02*X76600Y160000D01*
X75100Y160500D02*X76100D01*
X74600Y160000D02*X75100Y160500D01*
X74600Y160000D02*Y159000D01*
X75100Y158500D01*
X76100D01*
X76600Y159000D01*
X74600Y157500D02*X75100Y157000D01*
X76100D01*
X76600Y157500D01*
Y160500D02*Y157500D01*
X58000Y168500D02*Y165500D01*
Y168500D02*X58500Y169000D01*
X59500D01*
X60000Y168500D01*
Y165500D01*
X59500Y165000D02*X60000Y165500D01*
X58500Y165000D02*X59500D01*
X58000Y165500D02*X58500Y165000D01*
X61700Y166500D02*Y165000D01*
Y166500D02*X62200Y167000D01*
X62700D01*
X63200Y166500D01*
Y165000D01*
X61200Y167000D02*X61700Y166500D01*
X64400Y169000D02*Y165000D01*
Y165500D02*X64900Y165000D01*
X65900D01*
X66400Y165500D01*
Y166500D02*Y165500D01*
X65900Y167000D02*X66400Y166500D01*
X64900Y167000D02*X65900D01*
X64400Y166500D02*X64900Y167000D01*
X67600Y166500D02*Y165500D01*
Y166500D02*X68100Y167000D01*
X69100D01*
X69600Y166500D01*
Y165500D01*
X69100Y165000D02*X69600Y165500D01*
X68100Y165000D02*X69100D01*
X67600Y165500D02*X68100Y165000D01*
X72300Y167000D02*X72800Y166500D01*
X71300Y167000D02*X72300D01*
X70800Y166500D02*X71300Y167000D01*
X70800Y166500D02*Y165500D01*
X71300Y165000D01*
X72800Y167000D02*Y165500D01*
X73300Y165000D01*
X71300D02*X72300D01*
X72800Y165500D01*
X75000Y166500D02*Y165000D01*
Y166500D02*X75500Y167000D01*
X76500D01*
X74500D02*X75000Y166500D01*
X79700Y169000D02*Y165000D01*
X79200D02*X79700Y165500D01*
X78200Y165000D02*X79200D01*
X77700Y165500D02*X78200Y165000D01*
X77700Y166500D02*Y165500D01*
Y166500D02*X78200Y167000D01*
X79200D01*
X79700Y166500D01*
X42500Y162500D02*X44500D01*
X42500D02*Y160500D01*
X43000Y161000D01*
X44000D01*
X44500Y160500D01*
Y159000D01*
X44000Y158500D02*X44500Y159000D01*
X43000Y158500D02*X44000D01*
X42500Y159000D02*X43000Y158500D01*
X45700Y162500D02*Y159500D01*
X46700Y158500D01*
X47700Y159500D01*
Y162500D02*Y159500D01*
X185500Y108000D02*Y104000D01*
X187000Y108000D02*X187500Y107500D01*
Y104500D01*
X187000Y104000D02*X187500Y104500D01*
X185000Y104000D02*X187000D01*
X185000Y108000D02*X187000D01*
X188700Y104500D02*X189200Y104000D01*
X188700Y105500D02*Y104500D01*
Y105500D02*X189200Y106000D01*
X190200D01*
X190700Y105500D01*
Y104500D01*
X190200Y104000D02*X190700Y104500D01*
X189200Y104000D02*X190200D01*
X188700Y106500D02*X189200Y106000D01*
X188700Y107500D02*Y106500D01*
Y107500D02*X189200Y108000D01*
X190200D01*
X190700Y107500D01*
Y106500D01*
X190200Y106000D02*X190700Y106500D01*
X183500Y148000D02*Y144000D01*
X185000Y148000D02*X185500Y147500D01*
Y144500D01*
X185000Y144000D02*X185500Y144500D01*
X183000Y144000D02*X185000D01*
X183000Y148000D02*X185000D01*
X187200Y144000D02*X188200D01*
X187700Y148000D02*Y144000D01*
X186700Y147000D02*X187700Y148000D01*
X189400Y147500D02*X189900Y148000D01*
X191400D01*
X191900Y147500D01*
Y146500D01*
X189400Y144000D02*X191900Y146500D01*
X189400Y144000D02*X191900D01*
X183500Y138000D02*Y134000D01*
X185000Y138000D02*X185500Y137500D01*
Y134500D01*
X185000Y134000D02*X185500Y134500D01*
X183000Y134000D02*X185000D01*
X183000Y138000D02*X185000D01*
X187200Y134000D02*X188200D01*
X187700Y138000D02*Y134000D01*
X186700Y137000D02*X187700Y138000D01*
X189900Y134000D02*X190900D01*
X190400Y138000D02*Y134000D01*
X189400Y137000D02*X190400Y138000D01*
X183500Y128000D02*Y124000D01*
X185000Y128000D02*X185500Y127500D01*
Y124500D01*
X185000Y124000D02*X185500Y124500D01*
X183000Y124000D02*X185000D01*
X183000Y128000D02*X185000D01*
X187200Y124000D02*X188200D01*
X187700Y128000D02*Y124000D01*
X186700Y127000D02*X187700Y128000D01*
X189400Y124500D02*X189900Y124000D01*
X189400Y127500D02*Y124500D01*
Y127500D02*X189900Y128000D01*
X190900D01*
X191400Y127500D01*
Y124500D01*
X190900Y124000D02*X191400Y124500D01*
X189900Y124000D02*X190900D01*
X189400Y125000D02*X191400Y127000D01*
X185500Y118000D02*Y114000D01*
X187000Y118000D02*X187500Y117500D01*
Y114500D01*
X187000Y114000D02*X187500Y114500D01*
X185000Y114000D02*X187000D01*
X185000Y118000D02*X187000D01*
X188700Y114000D02*X190700Y116000D01*
Y117500D02*Y116000D01*
X190200Y118000D02*X190700Y117500D01*
X189200Y118000D02*X190200D01*
X188700Y117500D02*X189200Y118000D01*
X188700Y117500D02*Y116500D01*
X189200Y116000D01*
X190700D01*
X180000Y177500D02*Y174000D01*
Y177500D02*X180500Y178000D01*
X182000D01*
X182500Y177500D01*
Y174000D01*
X180000Y176000D02*X182500D01*
X183700Y178000D02*X185700D01*
X186200Y177500D01*
Y176500D01*
X185700Y176000D02*X186200Y176500D01*
X184200Y176000D02*X185700D01*
X184200Y178000D02*Y174000D01*
Y176000D02*X186200Y174000D01*
X187400Y176000D02*X188900D01*
X187400Y174000D02*X189400D01*
X187400Y178000D02*Y174000D01*
Y178000D02*X189400D01*
X190600D02*Y174000D01*
Y178000D02*X192600D01*
X190600Y176000D02*X192100D01*
X184000Y168000D02*X184500Y167500D01*
X182500Y168000D02*X184000D01*
X182000Y167500D02*X182500Y168000D01*
X182000Y167500D02*Y164500D01*
X182500Y164000D01*
X184000D01*
X184500Y164500D01*
Y165500D02*Y164500D01*
X184000Y166000D02*X184500Y165500D01*
X183000Y166000D02*X184000D01*
X185700Y168000D02*Y164000D01*
Y168000D02*Y167500D01*
X188200Y165000D01*
Y168000D02*Y164000D01*
X189900Y168000D02*Y164000D01*
X191400Y168000D02*X191900Y167500D01*
Y164500D01*
X191400Y164000D02*X191900Y164500D01*
X189400Y164000D02*X191400D01*
X189400Y168000D02*X191400D01*
X183500Y158000D02*Y154000D01*
X185000Y158000D02*X185500Y157500D01*
Y154500D01*
X185000Y154000D02*X185500Y154500D01*
X183000Y154000D02*X185000D01*
X183000Y158000D02*X185000D01*
X187200Y154000D02*X188200D01*
X187700Y158000D02*Y154000D01*
X186700Y157000D02*X187700Y158000D01*
X189400Y157500D02*X189900Y158000D01*
X190900D01*
X191400Y157500D01*
Y154500D01*
X190900Y154000D02*X191400Y154500D01*
X189900Y154000D02*X190900D01*
X189400Y154500D02*X189900Y154000D01*
Y156000D02*X191400D01*
X184000Y188000D02*X184500Y187500D01*
X182500Y188000D02*X184000D01*
X182000Y187500D02*X182500Y188000D01*
X182000Y187500D02*Y186500D01*
X182500Y186000D01*
X184000D01*
X184500Y185500D01*
Y184500D01*
X184000Y184000D02*X184500Y184500D01*
X182500Y184000D02*X184000D01*
X182000Y184500D02*X182500Y184000D01*
X186200Y188000D02*Y184000D01*
X187700Y188000D02*X188200Y187500D01*
Y184500D01*
X187700Y184000D02*X188200Y184500D01*
X185700Y184000D02*X187700D01*
X185700Y188000D02*X187700D01*
X189400Y187500D02*Y184000D01*
Y187500D02*X189900Y188000D01*
X191400D01*
X191900Y187500D01*
Y184000D01*
X189400Y186000D02*X191900D01*
X149500Y145000D02*X151000D01*
Y141500D01*
X150500Y141000D02*X151000Y141500D01*
X150000Y141000D02*X150500D01*
X149500Y141500D02*X150000Y141000D01*
X152700Y145000D02*Y141000D01*
X152200Y145000D02*X154200D01*
X154700Y144500D01*
Y143500D01*
X154200Y143000D02*X154700Y143500D01*
X152700Y143000D02*X154200D01*
X155900Y141500D02*X156400Y141000D01*
X155900Y142500D02*Y141500D01*
Y142500D02*X156400Y143000D01*
X157400D01*
X157900Y142500D01*
Y141500D01*
X157400Y141000D02*X157900Y141500D01*
X156400Y141000D02*X157400D01*
X155900Y143500D02*X156400Y143000D01*
X155900Y144500D02*Y143500D01*
Y144500D02*X156400Y145000D01*
X157400D01*
X157900Y144500D01*
Y143500D01*
X157400Y143000D02*X157900Y143500D01*
X170000Y145000D02*X171500D01*
Y141500D01*
X171000Y141000D02*X171500Y141500D01*
X170500Y141000D02*X171000D01*
X170000Y141500D02*X170500Y141000D01*
X173200Y145000D02*Y141000D01*
X172700Y145000D02*X174700D01*
X175200Y144500D01*
Y143500D01*
X174700Y143000D02*X175200Y143500D01*
X173200Y143000D02*X174700D01*
X176400Y141000D02*X178900Y143500D01*
Y145000D02*Y143500D01*
X176400Y145000D02*X178900D01*
X143500Y150000D02*X145000D01*
X143500Y148000D02*X145500D01*
X143500Y152000D02*Y148000D01*
Y152000D02*X145500D01*
X146700Y150000D02*X148200D01*
X146700Y148000D02*X148700D01*
X146700Y152000D02*Y148000D01*
Y152000D02*X148700D01*
X150400D02*Y148000D01*
X149900Y152000D02*X151900D01*
X152400Y151500D01*
Y150500D01*
X151900Y150000D02*X152400Y150500D01*
X150400Y150000D02*X151900D01*
X153600Y152000D02*X155600D01*
X156100Y151500D01*
Y150500D01*
X155600Y150000D02*X156100Y150500D01*
X154100Y150000D02*X155600D01*
X154100Y152000D02*Y148000D01*
Y150000D02*X156100Y148000D01*
X157300Y151500D02*Y148500D01*
Y151500D02*X157800Y152000D01*
X158800D01*
X159300Y151500D01*
Y148500D01*
X158800Y148000D02*X159300Y148500D01*
X157800Y148000D02*X158800D01*
X157300Y148500D02*X157800Y148000D01*
X160500Y152000D02*Y148000D01*
Y152000D02*X162000Y150500D01*
X163500Y152000D01*
Y148000D01*
X166500Y151500D02*Y148000D01*
Y151500D02*X167000Y152000D01*
X168500D01*
X169000Y151500D01*
Y148000D01*
X166500Y150000D02*X169000D01*
X170700Y152000D02*Y148000D01*
X172200Y152000D02*X172700Y151500D01*
Y148500D01*
X172200Y148000D02*X172700Y148500D01*
X170200Y148000D02*X172200D01*
X170200Y152000D02*X172200D01*
X174400D02*Y148000D01*
X175900Y152000D02*X176400Y151500D01*
Y148500D01*
X175900Y148000D02*X176400Y148500D01*
X173900Y148000D02*X175900D01*
X173900Y152000D02*X175900D01*
X177600D02*X179600D01*
X180100Y151500D01*
Y150500D01*
X179600Y150000D02*X180100Y150500D01*
X178100Y150000D02*X179600D01*
X178100Y152000D02*Y148000D01*
Y150000D02*X180100Y148000D01*
X185000Y198000D02*X185500Y197500D01*
X183500Y198000D02*X185000D01*
X183000Y197500D02*X183500Y198000D01*
X183000Y197500D02*Y196500D01*
X183500Y196000D01*
X185000D01*
X185500Y195500D01*
Y194500D01*
X185000Y194000D02*X185500Y194500D01*
X183500Y194000D02*X185000D01*
X183000Y194500D02*X183500Y194000D01*
X187200D02*X188700D01*
X186700Y194500D02*X187200Y194000D01*
X186700Y197500D02*Y194500D01*
Y197500D02*X187200Y198000D01*
X188700D01*
X189900D02*Y194000D01*
X191900D01*
G54D78*X5000Y165000D02*Y85000D01*
X15000D01*
Y165000D01*
X5000D01*
Y155000D02*X15000D01*
Y165000D01*
X5000Y75000D02*Y15000D01*
X15000D01*
Y75000D01*
X5000D01*
Y65000D02*X15000D01*
Y75000D01*
X32245Y115350D02*Y114564D01*
X37755Y115350D02*Y114564D01*
X53607Y99245D02*X54393D01*
X53607Y104755D02*X54393D01*
X112400Y116500D02*X129600D01*
Y104500D01*
X112400D02*X129600D01*
X112400Y116500D02*Y104500D01*
X120607Y99755D02*X121393D01*
X120607Y94245D02*X121393D01*
X37755Y95393D02*Y94607D01*
X32245Y95393D02*Y94607D01*
X60250Y88485D02*Y77855D01*
X41750Y88485D02*Y77855D01*
X57000D02*X60250D01*
X41750D02*X45000D01*
X60071Y88485D02*X60250D01*
X41750D02*X41929D01*
X44000Y36000D02*Y10500D01*
X126000Y36000D02*Y10500D01*
X44000Y36000D02*X126000D01*
X44000Y34000D02*X126000D01*
X44000Y10500D02*X126000D01*
X205000Y95000D02*Y15000D01*
X195000Y95000D02*X205000D01*
X195000D02*Y15000D01*
X205000D01*
X195000Y25000D02*X205000D01*
X195000D02*Y15000D01*
X205000Y201000D02*Y101000D01*
X195000Y201000D02*X205000D01*
X195000D02*Y101000D01*
X205000D01*
X195000Y111000D02*X205000D01*
X195000D02*Y101000D01*
X167500Y167900D02*Y154000D01*
X155700Y167900D02*X167500D01*
X155700D02*Y154000D01*
X167500D01*
X172745Y161393D02*Y160607D01*
X178255Y161393D02*Y160607D01*
X86220Y169843D02*Y167843D01*
Y169843D02*X87420D01*
X86220Y152157D02*Y150157D01*
X87420D01*
X113780Y152157D02*Y150157D01*
X112580D02*X113780D01*
X113264Y169327D02*X114264D01*
X113264Y170327D02*Y169327D01*
Y170327D02*X114264D01*
Y169327D01*
X85000Y259500D02*Y234000D01*
X3000Y259500D02*Y234000D01*
X85000D01*
X3000Y236000D02*X85000D01*
X3000Y259500D02*X85000D01*
X87500Y259800D02*X127500D01*
X87500Y229800D02*X127500D01*
X87500Y234200D02*X127500D01*
Y259800D02*Y229800D01*
X87500Y259800D02*Y229800D01*
G54D80*X111900Y139800D02*Y131200D01*
G54D78*X114300Y130000D01*
X130100D01*
Y141000D01*
X114300D01*
X111900Y139800D01*
X120607Y126255D02*X121393D01*
X120607Y120745D02*X121393D01*
X35000Y139914D02*Y129914D01*
X75000Y139914D02*Y129914D01*
X35000Y139914D02*X36000D01*
X44000D02*X56000D01*
X64000D02*X75000D01*
X74000Y129914D02*X75000D01*
X54000D02*X66000D01*
X35000D02*X46000D01*
X133201Y233110D02*X145799D01*
X133201Y246890D02*Y233110D01*
Y246890D02*X145799D01*
Y233110D01*
X191500Y232000D02*Y222000D01*
X151500Y232000D02*Y222000D01*
X190500D02*X191500D01*
X170500D02*X182500D01*
X151500D02*X162500D01*
X151500Y232000D02*X152500D01*
X160500D02*X172500D01*
X180500D02*X191500D01*
X193000Y234000D02*G75*G03X193000Y234000I0J-500D01*G01*
X133201Y218241D02*X145799D01*
Y210759D01*
X133201D01*
Y218241D01*
X163607Y35255D02*X164393D01*
X163607Y29745D02*X164393D01*
X163414Y85000D02*X173414D01*
Y45000D02*X163414D01*
X173414Y85000D02*Y84000D01*
Y76000D02*Y64000D01*
Y56000D02*Y45000D01*
X163414D02*Y46000D01*
Y54000D02*Y66000D01*
Y74000D02*Y85000D01*
X161414Y86500D02*G75*G03X161414Y86500I500J0D01*G01*
X143414Y85000D02*X153414D01*
Y45000D02*X143414D01*
X153414Y85000D02*Y84000D01*
Y76000D02*Y64000D01*
Y56000D02*Y45000D01*
X143414D02*Y46000D01*
Y54000D02*Y66000D01*
Y74000D02*Y85000D01*
X141414Y86500D02*G75*G03X141414Y86500I500J0D01*G01*
X145064Y35255D02*X145850D01*
X145064Y29745D02*X145850D01*
X123414Y85000D02*X133414D01*
Y45000D02*X123414D01*
X133414Y85000D02*Y84000D01*
Y76000D02*Y64000D01*
Y56000D02*Y45000D01*
X123414D02*Y46000D01*
Y54000D02*Y66000D01*
Y74000D02*Y85000D01*
X121414Y86500D02*G75*G03X121414Y86500I500J0D01*G01*
X180000Y138500D02*Y128500D01*
X140000Y138500D02*Y128500D01*
X179000D02*X180000D01*
X159000D02*X171000D01*
X140000D02*X151000D01*
X140000Y138500D02*X141000D01*
X149000D02*X161000D01*
X169000D02*X180000D01*
X148689Y186594D02*X172311D01*
X148689Y198406D02*Y186594D01*
Y198406D02*X172311D01*
Y186594D01*
X174311Y185094D02*G75*G03X174311Y185094I-500J0D01*G01*
G54D79*X62807Y100150D02*X64307D01*
X62307Y100650D02*X62807Y100150D01*
X62307Y103650D02*Y100650D01*
Y103650D02*X62807Y104150D01*
X64307D01*
X67007D02*X67507Y103650D01*
X66007Y104150D02*X67007D01*
X65507Y103650D02*X66007Y104150D01*
X65507Y103650D02*Y100650D01*
X66007Y100150D01*
X67007Y102150D02*X67507Y101650D01*
X65507Y102150D02*X67007D01*
X66007Y100150D02*X67007D01*
X67507Y100650D01*
Y101650D02*Y100650D01*
X32893Y102650D02*X34393D01*
X32393Y103150D02*X32893Y102650D01*
X32393Y106150D02*Y103150D01*
Y106150D02*X32893Y106650D01*
X34393D01*
X35593D02*X37593D01*
X35593D02*Y104650D01*
X36093Y105150D01*
X37093D01*
X37593Y104650D01*
Y103150D01*
X37093Y102650D02*X37593Y103150D01*
X36093Y102650D02*X37093D01*
X35593Y103150D02*X36093Y102650D01*
X33307Y122650D02*X34807D01*
X32807Y123150D02*X33307Y122650D01*
X32807Y126150D02*Y123150D01*
Y126150D02*X33307Y126650D01*
X34807D01*
X36507Y122650D02*X37507D01*
X37007Y126650D02*Y122650D01*
X36007Y125650D02*X37007Y126650D01*
X62505Y85500D02*Y82000D01*
X63005Y81500D01*
X64005D01*
X64505Y82000D01*
Y85500D02*Y82000D01*
X65705Y85000D02*X66205Y85500D01*
X67205D01*
X67705Y85000D01*
Y82000D01*
X67205Y81500D02*X67705Y82000D01*
X66205Y81500D02*X67205D01*
X65705Y82000D02*X66205Y81500D01*
Y83500D02*X67705D01*
X108000Y121500D02*X109500D01*
X107500Y122000D02*X108000Y121500D01*
X107500Y125000D02*Y122000D01*
Y125000D02*X108000Y125500D01*
X109500D01*
X110700Y125000D02*X111200Y125500D01*
X112200D01*
X112700Y125000D01*
Y122000D01*
X112200Y121500D02*X112700Y122000D01*
X111200Y121500D02*X112200D01*
X110700Y122000D02*X111200Y121500D01*
Y123500D02*X112700D01*
X104602Y112582D02*Y109082D01*
X105102Y108582D01*
X106102D01*
X106602Y109082D01*
Y112582D02*Y109082D01*
X107802Y112082D02*X108302Y112582D01*
X109802D01*
X110302Y112082D01*
Y111082D01*
X107802Y108582D02*X110302Y111082D01*
X107802Y108582D02*X110302D01*
X108000Y95000D02*X109500D01*
X107500Y95500D02*X108000Y95000D01*
X107500Y98500D02*Y95500D01*
Y98500D02*X108000Y99000D01*
X109500D01*
X110700Y97000D02*X112700Y99000D01*
X110700Y97000D02*X113200D01*
X112700Y99000D02*Y95000D01*
X77914Y137000D02*X79414D01*
Y133500D01*
X78914Y133000D02*X79414Y133500D01*
X78414Y133000D02*X78914D01*
X77914Y133500D02*X78414Y133000D01*
X81114Y137000D02*Y133000D01*
X80614Y137000D02*X82614D01*
X83114Y136500D01*
Y135500D01*
X82614Y135000D02*X83114Y135500D01*
X81114Y135000D02*X82614D01*
X84314Y136500D02*X84814Y137000D01*
X85814D01*
X86314Y136500D01*
Y133500D01*
X85814Y133000D02*X86314Y133500D01*
X84814Y133000D02*X85814D01*
X84314Y133500D02*X84814Y133000D01*
Y135000D02*X86314D01*
X137152Y230575D02*X139152D01*
X139652Y230075D01*
Y229075D01*
X139152Y228575D02*X139652Y229075D01*
X137652Y228575D02*X139152D01*
X137652Y230575D02*Y226575D01*
Y228575D02*X139652Y226575D01*
X141352D02*X142352D01*
X141852Y230575D02*Y226575D01*
X140852Y229575D02*X141852Y230575D01*
X182000Y238500D02*X183500D01*
Y235000D01*
X183000Y234500D02*X183500Y235000D01*
X182500Y234500D02*X183000D01*
X182000Y235000D02*X182500Y234500D01*
X185200Y238500D02*Y234500D01*
X184700Y238500D02*X186700D01*
X187200Y238000D01*
Y237000D01*
X186700Y236500D02*X187200Y237000D01*
X185200Y236500D02*X186700D01*
X188900Y234500D02*X189900D01*
X189400Y238500D02*Y234500D01*
X188400Y237500D02*X189400Y238500D01*
X148000Y162300D02*Y158800D01*
X148500Y158300D01*
X149500D01*
X150000Y158800D01*
Y162300D02*Y158800D01*
X151200Y160300D02*X153200Y162300D01*
X151200Y160300D02*X153700D01*
X153200Y162300D02*Y158300D01*
X173500Y168500D02*X175000D01*
X173000Y169000D02*X173500Y168500D01*
X173000Y172000D02*Y169000D01*
Y172000D02*X173500Y172500D01*
X175000D01*
X176200Y168500D02*X178700Y171000D01*
Y172500D02*Y171000D01*
X176200Y172500D02*X178700D01*
X158000Y204500D02*Y201000D01*
X158500Y200500D01*
X159500D01*
X160000Y201000D01*
Y204500D02*Y201000D01*
X161200Y204500D02*X163200D01*
X161200D02*Y202500D01*
X161700Y203000D01*
X162700D01*
X163200Y202500D01*
Y201000D01*
X162700Y200500D02*X163200Y201000D01*
X161700Y200500D02*X162700D01*
X161200Y201000D02*X161700Y200500D01*
X137000Y208000D02*X139000D01*
X139500Y207500D01*
Y206500D01*
X139000Y206000D02*X139500Y206500D01*
X137500Y206000D02*X139000D01*
X137500Y208000D02*Y204000D01*
Y206000D02*X139500Y204000D01*
X140700Y207500D02*X141200Y208000D01*
X142700D01*
X143200Y207500D01*
Y206500D01*
X140700Y204000D02*X143200Y206500D01*
X140700Y204000D02*X143200D01*
X87500Y144500D02*Y141000D01*
X88000Y140500D01*
X89000D01*
X89500Y141000D01*
Y144500D02*Y141000D01*
X91200Y140500D02*X92200D01*
X91700Y144500D02*Y140500D01*
X90700Y143500D02*X91700Y144500D01*
X104000Y133600D02*X105500D01*
X103500Y134100D02*X104000Y133600D01*
X103500Y137100D02*Y134100D01*
Y137100D02*X104000Y137600D01*
X105500D01*
X106700Y137100D02*X107200Y137600D01*
X108700D01*
X109200Y137100D01*
Y136100D01*
X106700Y133600D02*X109200Y136100D01*
X106700Y133600D02*X109200D01*
X161540Y26650D02*X163540D01*
X164040Y26150D01*
Y25150D01*
X163540Y24650D02*X164040Y25150D01*
X162040Y24650D02*X163540D01*
X162040Y26650D02*Y22650D01*
Y24650D02*X164040Y22650D01*
X165240Y26650D02*X167240D01*
X165240D02*Y24650D01*
X165740Y25150D01*
X166740D01*
X167240Y24650D01*
Y23150D01*
X166740Y22650D02*X167240Y23150D01*
X165740Y22650D02*X166740D01*
X165240Y23150D02*X165740Y22650D01*
X164414Y43000D02*X165914D01*
Y39500D01*
X165414Y39000D02*X165914Y39500D01*
X164914Y39000D02*X165414D01*
X164414Y39500D02*X164914Y39000D01*
X167614Y43000D02*Y39000D01*
X167114Y43000D02*X169114D01*
X169614Y42500D01*
Y41500D01*
X169114Y41000D02*X169614Y41500D01*
X167614Y41000D02*X169114D01*
X172314Y43000D02*X172814Y42500D01*
X171314Y43000D02*X172314D01*
X170814Y42500D02*X171314Y43000D01*
X170814Y42500D02*Y39500D01*
X171314Y39000D01*
X172314Y41000D02*X172814Y40500D01*
X170814Y41000D02*X172314D01*
X171314Y39000D02*X172314D01*
X172814Y39500D01*
Y40500D02*Y39500D01*
X143414Y43000D02*X144914D01*
Y39500D01*
X144414Y39000D02*X144914Y39500D01*
X143914Y39000D02*X144414D01*
X143414Y39500D02*X143914Y39000D01*
X146614Y43000D02*Y39000D01*
X146114Y43000D02*X148114D01*
X148614Y42500D01*
Y41500D01*
X148114Y41000D02*X148614Y41500D01*
X146614Y41000D02*X148114D01*
X149814Y43000D02*X151814D01*
X149814D02*Y41000D01*
X150314Y41500D01*
X151314D01*
X151814Y41000D01*
Y39500D01*
X151314Y39000D02*X151814Y39500D01*
X150314Y39000D02*X151314D01*
X149814Y39500D02*X150314Y39000D01*
X146807Y26650D02*Y22650D01*
X148307Y26650D02*X148807Y26150D01*
Y23150D01*
X148307Y22650D02*X148807Y23150D01*
X146307Y22650D02*X148307D01*
X146307Y26650D02*X148307D01*
X150507Y22650D02*X151507D01*
X151007Y26650D02*Y22650D01*
X150007Y25650D02*X151007Y26650D01*
X123500Y42500D02*X125000D01*
Y39000D01*
X124500Y38500D02*X125000Y39000D01*
X124000Y38500D02*X124500D01*
X123500Y39000D02*X124000Y38500D01*
X126700Y42500D02*Y38500D01*
X126200Y42500D02*X128200D01*
X128700Y42000D01*
Y41000D01*
X128200Y40500D02*X128700Y41000D01*
X126700Y40500D02*X128200D01*
X129900D02*X131900Y42500D01*
X129900Y40500D02*X132400D01*
X131900Y42500D02*Y38500D01*
M02*
